# https://github.com/mikedh/trimesh
v -0.44921875 -0.49609375 -0.13671875 0.40000000 0.40000000 0.40000000
v -0.44921875 -0.49609375 0.13671875 0.40000000 0.40000000 0.40000000
v -0.44921875 -0.15234375 -0.13671875 0.40000000 0.40000000 0.40000000
v -0.44921875 -0.15234375 0.13671875 0.40000000 0.40000000 0.40000000
v -0.42578125 -0.48046875 -0.13671875 0.40000000 0.40000000 0.40000000
v -0.42578125 -0.48046875 -0.12109375 0.40000000 0.40000000 0.40000000
v -0.42578125 -0.48046875 0.12109375 0.40000000 0.40000000 0.40000000
v -0.42578125 -0.48046875 0.13671875 0.40000000 0.40000000 0.40000000
v -0.42578125 -0.47265625 -0.13671875 0.40000000 0.40000000 0.40000000
v -0.42578125 -0.47265625 -0.12109375 0.40000000 0.40000000 0.40000000
v -0.42578125 -0.17578125 -0.13671875 0.40000000 0.40000000 0.40000000
v -0.42578125 -0.17578125 -0.12109375 0.40000000 0.40000000 0.40000000
v -0.42578125 -0.17578125 0.12109375 0.40000000 0.40000000 0.40000000
v -0.42578125 -0.17578125 0.13671875 0.40000000 0.40000000 0.40000000
v -0.39453125 -0.17578125 -0.05078125 0.40000000 0.40000000 0.40000000
v -0.39453125 -0.17578125 0.09765625 0.40000000 0.40000000 0.40000000
v -0.39453125 -0.15234375 -0.05078125 0.40000000 0.40000000 0.40000000
v -0.39453125 -0.15234375 0.09765625 0.40000000 0.40000000 0.40000000
v -0.26171875 -0.17578125 -0.05078125 0.40000000 0.40000000 0.40000000
v -0.26171875 -0.17578125 0.09765625 0.40000000 0.40000000 0.40000000
v -0.26171875 -0.15234375 -0.05078125 0.40000000 0.40000000 0.40000000
v -0.26171875 -0.15234375 0.09765625 0.40000000 0.40000000 0.40000000
v -0.23828125 -0.15234375 -0.13671875 0.40000000 0.40000000 0.40000000
v -0.23828125 -0.15234375 0.13671875 0.40000000 0.40000000 0.40000000
v -0.23828125 -0.12890625 -0.08984375 0.40000000 0.40000000 0.40000000
v -0.23828125 -0.12890625 0.08984375 0.40000000 0.40000000 0.40000000
v -0.23828125 -0.04296875 -0.08984375 0.40000000 0.40000000 0.40000000
v -0.23828125 -0.04296875 0.08984375 0.40000000 0.40000000 0.40000000
v -0.23828125 0.02734375 -0.13671875 0.40000000 0.40000000 0.40000000
v -0.23828125 0.02734375 0.13671875 0.40000000 0.40000000 0.40000000
v -0.23828125 0.42578125 -0.13671875 0.40000000 0.40000000 0.40000000
v -0.23828125 0.42578125 0.13671875 0.40000000 0.40000000 0.40000000
v -0.23046875 -0.17578125 -0.13671875 0.40000000 0.40000000 0.40000000
v -0.23046875 -0.17578125 -0.12109375 0.40000000 0.40000000 0.40000000
v -0.23046875 -0.17578125 0.12109375 0.40000000 0.40000000 0.40000000
v -0.23046875 -0.17578125 0.13671875 0.40000000 0.40000000 0.40000000
v -0.23046875 -0.16015625 -0.13671875 0.40000000 0.40000000 0.40000000
v -0.23046875 -0.16015625 0.13671875 0.40000000 0.40000000 0.40000000
v -0.23046875 0.02734375 -0.13671875 0.40000000 0.40000000 0.40000000
v -0.23046875 0.02734375 0.13671875 0.40000000 0.40000000 0.40000000
v -0.21484375 -0.15234375 -0.13671875 0.40000000 0.40000000 0.40000000
v -0.21484375 -0.15234375 0.13671875 0.40000000 0.40000000 0.40000000
v -0.21484375 -0.12890625 -0.08984375 0.40000000 0.40000000 0.40000000
v -0.21484375 -0.12890625 0.08984375 0.40000000 0.40000000 0.40000000
v -0.21484375 -0.04296875 -0.08984375 0.40000000 0.40000000 0.40000000
v -0.21484375 -0.04296875 0.08984375 0.40000000 0.40000000 0.40000000
v -0.21484375 0.01953125 -0.13671875 0.40000000 0.40000000 0.40000000
v -0.21484375 0.01953125 0.13671875 0.40000000 0.40000000 0.40000000
v -0.21484375 0.03515625 -0.13671875 0.40000000 0.40000000 0.40000000
v -0.21484375 0.03515625 -0.12109375 0.40000000 0.40000000 0.40000000
v -0.21484375 0.03515625 0.12109375 0.40000000 0.40000000 0.40000000
v -0.21484375 0.03515625 0.13671875 0.40000000 0.40000000 0.40000000
v -0.21484375 0.38671875 0.12109375 0.40000000 0.40000000 0.40000000
v -0.21484375 0.38671875 0.13671875 0.40000000 0.40000000 0.40000000
v -0.21484375 0.40234375 -0.13671875 0.40000000 0.40000000 0.40000000
v -0.21484375 0.40234375 -0.12109375 0.40000000 0.40000000 0.40000000
v -0.21484375 0.40234375 0.13671875 0.40000000 0.40000000 0.40000000
v -0.16015625 0.40234375 -0.05078125 0.40000000 0.40000000 0.40000000
v -0.16015625 0.40234375 0.09765625 0.40000000 0.40000000 0.40000000
v -0.16015625 0.42578125 -0.05078125 0.40000000 0.40000000 0.40000000
v -0.16015625 0.42578125 0.09765625 0.40000000 0.40000000 0.40000000
v -0.13671875 -0.48046875 -0.13671875 0.40000000 0.40000000 0.40000000
v -0.13671875 -0.48046875 -0.12109375 0.40000000 0.40000000 0.40000000
v -0.13671875 -0.48046875 0.12109375 0.40000000 0.40000000 0.40000000
v -0.13671875 -0.48046875 0.13671875 0.40000000 0.40000000 0.40000000
v -0.13671875 -0.47265625 -0.13671875 0.40000000 0.40000000 0.40000000
v -0.13671875 -0.47265625 -0.12109375 0.40000000 0.40000000 0.40000000
v -0.13671875 -0.28515625 -0.13671875 0.40000000 0.40000000 0.40000000
v -0.13671875 -0.28515625 -0.12109375 0.40000000 0.40000000 0.40000000
v -0.13671875 -0.28515625 0.12109375 0.40000000 0.40000000 0.40000000
v -0.13671875 -0.28515625 0.13671875 0.40000000 0.40000000 0.40000000
v -0.13671875 -0.26953125 -0.13671875 0.40000000 0.40000000 0.40000000
v -0.13671875 -0.26953125 -0.12109375 0.40000000 0.40000000 0.40000000
v -0.13671875 -0.26953125 0.08984375 0.40000000 0.40000000 0.40000000
v -0.13671875 -0.18359375 -0.13671875 0.40000000 0.40000000 0.40000000
v -0.13671875 -0.18359375 0.08984375 0.40000000 0.40000000 0.40000000
v -0.13671875 -0.17578125 -0.13671875 0.40000000 0.40000000 0.40000000
v -0.13671875 -0.17578125 -0.12109375 0.40000000 0.40000000 0.40000000
v -0.13671875 -0.17578125 0.12109375 0.40000000 0.40000000 0.40000000
v -0.13671875 -0.17578125 0.13671875 0.40000000 0.40000000 0.40000000
v -0.12890625 -0.49609375 -0.13671875 0.40000000 0.40000000 0.40000000
v -0.12890625 -0.49609375 0.13671875 0.40000000 0.40000000 0.40000000
v -0.12890625 -0.48828125 -0.13671875 0.40000000 0.40000000 0.40000000
v -0.12890625 -0.48828125 0.13671875 0.40000000 0.40000000 0.40000000
v -0.12890625 -0.28515625 -0.13671875 0.40000000 0.40000000 0.40000000
v -0.12890625 -0.28515625 0.13671875 0.40000000 0.40000000 0.40000000
v -0.12890625 -0.16015625 -0.13671875 0.40000000 0.40000000 0.40000000
v -0.12890625 -0.16015625 0.13671875 0.40000000 0.40000000 0.40000000
v -0.12890625 -0.15234375 -0.13671875 0.40000000 0.40000000 0.40000000
v -0.12890625 -0.15234375 0.13671875 0.40000000 0.40000000 0.40000000
v -0.11328125 -0.48046875 -0.13671875 0.40000000 0.40000000 0.40000000
v -0.11328125 -0.48046875 0.13671875 0.40000000 0.40000000 0.40000000
v -0.11328125 -0.30078125 -0.13671875 0.40000000 0.40000000 0.40000000
v -0.11328125 -0.30078125 0.13671875 0.40000000 0.40000000 0.40000000
v -0.11328125 -0.26953125 -0.13671875 0.40000000 0.40000000 0.40000000
v -0.11328125 -0.26953125 0.08984375 0.40000000 0.40000000 0.40000000
v -0.11328125 -0.26953125 0.12109375 0.40000000 0.40000000 0.40000000
v -0.11328125 -0.26953125 0.13671875 0.40000000 0.40000000 0.40000000
v -0.11328125 -0.18359375 -0.13671875 0.40000000 0.40000000 0.40000000
v -0.11328125 -0.18359375 0.08984375 0.40000000 0.40000000 0.40000000
v -0.11328125 -0.17578125 -0.13671875 0.40000000 0.40000000 0.40000000
v -0.11328125 -0.17578125 -0.12109375 0.40000000 0.40000000 0.40000000
v -0.11328125 -0.17578125 0.08984375 0.40000000 0.40000000 0.40000000
v -0.11328125 -0.17578125 0.12109375 0.40000000 0.40000000 0.40000000
v -0.11328125 -0.17578125 0.13671875 0.40000000 0.40000000 0.40000000
v -0.11328125 -0.15234375 -0.13671875 0.40000000 0.40000000 0.40000000
v -0.11328125 -0.15234375 0.08984375 0.40000000 0.40000000 0.40000000
v -0.03515625 -0.17578125 -0.13671875 0.40000000 0.40000000 0.40000000
v -0.03515625 -0.17578125 0.08984375 0.40000000 0.40000000 0.40000000
v -0.03515625 -0.15234375 -0.13671875 0.40000000 0.40000000 0.40000000
v -0.03515625 -0.15234375 0.08984375 0.40000000 0.40000000 0.40000000
v -0.02734375 -0.17578125 -0.13671875 0.40000000 0.40000000 0.40000000
v -0.02734375 -0.17578125 -0.12109375 0.40000000 0.40000000 0.40000000
v -0.02734375 0.40234375 -0.05078125 0.40000000 0.40000000 0.40000000
v -0.02734375 0.40234375 0.09765625 0.40000000 0.40000000 0.40000000
v -0.02734375 0.42578125 -0.05078125 0.40000000 0.40000000 0.40000000
v -0.02734375 0.42578125 0.09765625 0.40000000 0.40000000 0.40000000
v 0.08984375 -0.48046875 -0.13671875 0.40000000 0.40000000 0.40000000
v 0.08984375 -0.48046875 0.13671875 0.40000000 0.40000000 0.40000000
v 0.08984375 -0.37109375 -0.13671875 0.40000000 0.40000000 0.40000000
v 0.08984375 -0.37109375 0.08984375 0.40000000 0.40000000 0.40000000
v 0.08984375 -0.30078125 -0.13671875 0.40000000 0.40000000 0.40000000
v 0.08984375 -0.30078125 0.08984375 0.40000000 0.40000000 0.40000000
v 0.08984375 -0.30078125 0.13671875 0.40000000 0.40000000 0.40000000
v 0.08984375 -0.26953125 -0.13671875 0.40000000 0.40000000 0.40000000
v 0.08984375 -0.26953125 0.09765625 0.40000000 0.40000000 0.40000000
v 0.08984375 -0.26953125 0.12109375 0.40000000 0.40000000 0.40000000
v 0.08984375 -0.26953125 0.13671875 0.40000000 0.40000000 0.40000000
v 0.08984375 -0.18359375 -0.13671875 0.40000000 0.40000000 0.40000000
v 0.08984375 -0.18359375 0.09765625 0.40000000 0.40000000 0.40000000
v 0.08984375 -0.17578125 -0.13671875 0.40000000 0.40000000 0.40000000
v 0.08984375 -0.17578125 -0.12109375 0.40000000 0.40000000 0.40000000
v 0.08984375 -0.17578125 0.12109375 0.40000000 0.40000000 0.40000000
v 0.08984375 -0.17578125 0.13671875 0.40000000 0.40000000 0.40000000
v 0.08984375 -0.15234375 -0.13671875 0.40000000 0.40000000 0.40000000
v 0.08984375 -0.15234375 0.13671875 0.40000000 0.40000000 0.40000000
v 0.08984375 0.01953125 -0.13671875 0.40000000 0.40000000 0.40000000
v 0.08984375 0.01953125 0.13671875 0.40000000 0.40000000 0.40000000
v 0.08984375 0.03515625 -0.13671875 0.40000000 0.40000000 0.40000000
v 0.08984375 0.03515625 -0.12109375 0.40000000 0.40000000 0.40000000
v 0.08984375 0.03515625 0.12109375 0.40000000 0.40000000 0.40000000
v 0.08984375 0.03515625 0.13671875 0.40000000 0.40000000 0.40000000
v 0.08984375 0.04296875 -0.13671875 0.40000000 0.40000000 0.40000000
v 0.08984375 0.04296875 -0.12109375 0.40000000 0.40000000 0.40000000
v 0.08984375 0.05078125 -0.13671875 0.40000000 0.40000000 0.40000000
v 0.08984375 0.05078125 0.08984375 0.40000000 0.40000000 0.40000000
v 0.08984375 0.12890625 -0.13671875 0.40000000 0.40000000 0.40000000
v 0.08984375 0.12890625 0.08984375 0.40000000 0.40000000 0.40000000
v 0.08984375 0.13671875 -0.13671875 0.40000000 0.40000000 0.40000000
v 0.08984375 0.13671875 -0.12109375 0.40000000 0.40000000 0.40000000
v 0.08984375 0.38671875 0.12109375 0.40000000 0.40000000 0.40000000
v 0.08984375 0.38671875 0.13671875 0.40000000 0.40000000 0.40000000
v 0.08984375 0.40234375 -0.13671875 0.40000000 0.40000000 0.40000000
v 0.08984375 0.40234375 -0.12109375 0.40000000 0.40000000 0.40000000
v 0.08984375 0.40234375 0.13671875 0.40000000 0.40000000 0.40000000
v 0.08984375 0.42578125 -0.13671875 0.40000000 0.40000000 0.40000000
v 0.08984375 0.42578125 0.13671875 0.40000000 0.40000000 0.40000000
v 0.08984375 0.49609375 -0.13671875 0.40000000 0.40000000 0.40000000
v 0.08984375 0.49609375 0.13671875 0.40000000 0.40000000 0.40000000
v 0.09765625 -0.49609375 -0.13671875 0.40000000 0.40000000 0.40000000
v 0.09765625 -0.49609375 0.13671875 0.40000000 0.40000000 0.40000000
v 0.09765625 -0.48828125 -0.13671875 0.40000000 0.40000000 0.40000000
v 0.09765625 -0.48828125 0.13671875 0.40000000 0.40000000 0.40000000
v 0.09765625 -0.28515625 -0.13671875 0.40000000 0.40000000 0.40000000
v 0.09765625 -0.28515625 0.13671875 0.40000000 0.40000000 0.40000000
v 0.09765625 -0.16015625 -0.13671875 0.40000000 0.40000000 0.40000000
v 0.09765625 -0.16015625 0.13671875 0.40000000 0.40000000 0.40000000
v 0.09765625 0.02734375 -0.13671875 0.40000000 0.40000000 0.40000000
v 0.09765625 0.02734375 0.13671875 0.40000000 0.40000000 0.40000000
v 0.09765625 0.41796875 -0.13671875 0.40000000 0.40000000 0.40000000
v 0.09765625 0.41796875 0.13671875 0.40000000 0.40000000 0.40000000
v 0.11328125 -0.48046875 -0.13671875 0.40000000 0.40000000 0.40000000
v 0.11328125 -0.48046875 -0.12109375 0.40000000 0.40000000 0.40000000
v 0.11328125 -0.48046875 0.12109375 0.40000000 0.40000000 0.40000000
v 0.11328125 -0.48046875 0.13671875 0.40000000 0.40000000 0.40000000
v 0.11328125 -0.37890625 -0.13671875 0.40000000 0.40000000 0.40000000
v 0.11328125 -0.37890625 -0.12109375 0.40000000 0.40000000 0.40000000
v 0.11328125 -0.37109375 -0.13671875 0.40000000 0.40000000 0.40000000
v 0.11328125 -0.37109375 0.08984375 0.40000000 0.40000000 0.40000000
v 0.11328125 -0.30078125 -0.13671875 0.40000000 0.40000000 0.40000000
v 0.11328125 -0.30078125 -0.12109375 0.40000000 0.40000000 0.40000000
v 0.11328125 -0.30078125 0.08984375 0.40000000 0.40000000 0.40000000
v 0.11328125 -0.30078125 0.09765625 0.40000000 0.40000000 0.40000000
v 0.11328125 -0.30078125 0.12109375 0.40000000 0.40000000 0.40000000
v 0.11328125 -0.30078125 0.13671875 0.40000000 0.40000000 0.40000000
v 0.11328125 -0.26953125 -0.13671875 0.40000000 0.40000000 0.40000000
v 0.11328125 -0.26953125 -0.12109375 0.40000000 0.40000000 0.40000000
v 0.11328125 -0.26953125 0.09765625 0.40000000 0.40000000 0.40000000
v 0.11328125 -0.26953125 0.12109375 0.40000000 0.40000000 0.40000000
v 0.11328125 -0.26953125 0.13671875 0.40000000 0.40000000 0.40000000
v 0.11328125 -0.18359375 -0.13671875 0.40000000 0.40000000 0.40000000
v 0.11328125 -0.18359375 0.09765625 0.40000000 0.40000000 0.40000000
v 0.11328125 -0.17578125 -0.13671875 0.40000000 0.40000000 0.40000000
v 0.11328125 -0.17578125 -0.12109375 0.40000000 0.40000000 0.40000000
v 0.11328125 -0.16015625 -0.13671875 0.40000000 0.40000000 0.40000000
v 0.11328125 -0.16015625 -0.12109375 0.40000000 0.40000000 0.40000000
v 0.11328125 -0.16015625 0.12109375 0.40000000 0.40000000 0.40000000
v 0.11328125 -0.16015625 0.13671875 0.40000000 0.40000000 0.40000000
v 0.11328125 0.02734375 -0.13671875 0.40000000 0.40000000 0.40000000
v 0.11328125 0.02734375 -0.12109375 0.40000000 0.40000000 0.40000000
v 0.11328125 0.02734375 0.12109375 0.40000000 0.40000000 0.40000000
v 0.11328125 0.02734375 0.13671875 0.40000000 0.40000000 0.40000000
v 0.11328125 0.04296875 -0.13671875 0.40000000 0.40000000 0.40000000
v 0.11328125 0.04296875 -0.12109375 0.40000000 0.40000000 0.40000000
v 0.11328125 0.05078125 -0.13671875 0.40000000 0.40000000 0.40000000
v 0.11328125 0.05078125 0.08984375 0.40000000 0.40000000 0.40000000
v 0.11328125 0.12890625 -0.13671875 0.40000000 0.40000000 0.40000000
v 0.11328125 0.12890625 0.08984375 0.40000000 0.40000000 0.40000000
v 0.11328125 0.13671875 -0.13671875 0.40000000 0.40000000 0.40000000
v 0.11328125 0.13671875 -0.12109375 0.40000000 0.40000000 0.40000000
v 0.11328125 0.41796875 -0.13671875 0.40000000 0.40000000 0.40000000
v 0.11328125 0.41796875 -0.12109375 0.40000000 0.40000000 0.40000000
v 0.11328125 0.41796875 0.12109375 0.40000000 0.40000000 0.40000000
v 0.11328125 0.41796875 0.13671875 0.40000000 0.40000000 0.40000000
v 0.11328125 0.45703125 0.12109375 0.40000000 0.40000000 0.40000000
v 0.11328125 0.45703125 0.13671875 0.40000000 0.40000000 0.40000000
v 0.11328125 0.47265625 -0.13671875 0.40000000 0.40000000 0.40000000
v 0.11328125 0.47265625 -0.12109375 0.40000000 0.40000000 0.40000000
v 0.11328125 0.48046875 -0.13671875 0.40000000 0.40000000 0.40000000
v 0.11328125 0.48046875 -0.12109375 0.40000000 0.40000000 0.40000000
v 0.11328125 0.48046875 0.13671875 0.40000000 0.40000000 0.40000000
v 0.12109375 -0.47265625 -0.13671875 0.40000000 0.40000000 0.40000000
v 0.12109375 -0.47265625 -0.12109375 0.40000000 0.40000000 0.40000000
v 0.12109375 -0.37890625 -0.13671875 0.40000000 0.40000000 0.40000000
v 0.12109375 -0.37890625 -0.12109375 0.40000000 0.40000000 0.40000000
v 0.12109375 -0.30078125 -0.13671875 0.40000000 0.40000000 0.40000000
v 0.12109375 -0.30078125 -0.12109375 0.40000000 0.40000000 0.40000000
v 0.12109375 -0.30078125 0.09765625 0.40000000 0.40000000 0.40000000
v 0.12109375 -0.26953125 -0.13671875 0.40000000 0.40000000 0.40000000
v 0.12109375 -0.26953125 -0.12109375 0.40000000 0.40000000 0.40000000
v 0.12109375 -0.26953125 0.09765625 0.40000000 0.40000000 0.40000000
v 0.12890625 -0.48046875 -0.13671875 0.40000000 0.40000000 0.40000000
v 0.12890625 -0.48046875 -0.12109375 0.40000000 0.40000000 0.40000000
v 0.12890625 -0.47265625 -0.13671875 0.40000000 0.40000000 0.40000000
v 0.12890625 -0.47265625 -0.12109375 0.40000000 0.40000000 0.40000000
v 0.13671875 -0.49609375 -0.13671875 0.40000000 0.40000000 0.40000000
v 0.13671875 -0.49609375 0.08984375 0.40000000 0.40000000 0.40000000
v 0.13671875 -0.48046875 -0.13671875 0.40000000 0.40000000 0.40000000
v 0.13671875 -0.48046875 0.08984375 0.40000000 0.40000000 0.40000000
v 0.15234375 0.48046875 -0.11328125 0.40000000 0.40000000 0.40000000
v 0.15234375 0.48046875 0.08984375 0.40000000 0.40000000 0.40000000
v 0.15234375 0.49609375 -0.11328125 0.40000000 0.40000000 0.40000000
v 0.15234375 0.49609375 0.08984375 0.40000000 0.40000000 0.40000000
v 0.21484375 -0.49609375 -0.13671875 0.40000000 0.40000000 0.40000000
v 0.21484375 -0.49609375 0.08984375 0.40000000 0.40000000 0.40000000
v 0.21484375 -0.48046875 -0.13671875 0.40000000 0.40000000 0.40000000
v 0.21484375 -0.48046875 0.08984375 0.40000000 0.40000000 0.40000000
v 0.21484375 -0.30078125 -0.13671875 0.40000000 0.40000000 0.40000000
v 0.21484375 -0.30078125 -0.12109375 0.40000000 0.40000000 0.40000000
v 0.21484375 -0.30078125 0.09765625 0.40000000 0.40000000 0.40000000
v 0.21484375 -0.26953125 -0.13671875 0.40000000 0.40000000 0.40000000
v 0.21484375 -0.26953125 -0.12109375 0.40000000 0.40000000 0.40000000
v 0.21484375 -0.26953125 0.09765625 0.40000000 0.40000000 0.40000000
v 0.22265625 -0.48046875 -0.13671875 0.40000000 0.40000000 0.40000000
v 0.22265625 -0.48046875 -0.12109375 0.40000000 0.40000000 0.40000000
v 0.22265625 -0.48046875 0.12109375 0.40000000 0.40000000 0.40000000
v 0.22265625 -0.48046875 0.13671875 0.40000000 0.40000000 0.40000000
v 0.22265625 -0.47265625 -0.13671875 0.40000000 0.40000000 0.40000000
v 0.22265625 -0.47265625 -0.12109375 0.40000000 0.40000000 0.40000000
v 0.22265625 -0.30078125 -0.13671875 0.40000000 0.40000000 0.40000000
v 0.22265625 -0.30078125 -0.12109375 0.40000000 0.40000000 0.40000000
v 0.22265625 -0.30078125 0.12109375 0.40000000 0.40000000 0.40000000
v 0.22265625 -0.30078125 0.13671875 0.40000000 0.40000000 0.40000000
v 0.22265625 -0.26953125 -0.13671875 0.40000000 0.40000000 0.40000000
v 0.22265625 -0.26953125 -0.12109375 0.40000000 0.40000000 0.40000000
v 0.22265625 -0.26953125 0.09765625 0.40000000 0.40000000 0.40000000
v 0.22265625 -0.26953125 0.12109375 0.40000000 0.40000000 0.40000000
v 0.22265625 -0.26953125 0.13671875 0.40000000 0.40000000 0.40000000
v 0.22265625 -0.23046875 -0.13671875 0.40000000 0.40000000 0.40000000
v 0.22265625 -0.23046875 -0.12109375 0.40000000 0.40000000 0.40000000
v 0.22265625 -0.23046875 0.12109375 0.40000000 0.40000000 0.40000000
v 0.22265625 -0.23046875 0.13671875 0.40000000 0.40000000 0.40000000
v 0.23828125 -0.28515625 -0.13671875 0.40000000 0.40000000 0.40000000
v 0.23828125 -0.28515625 0.13671875 0.40000000 0.40000000 0.40000000
v 0.24609375 -0.49609375 -0.13671875 0.40000000 0.40000000 0.40000000
v 0.24609375 -0.49609375 0.13671875 0.40000000 0.40000000 0.40000000
v 0.24609375 -0.28515625 -0.13671875 0.40000000 0.40000000 0.40000000
v 0.24609375 -0.28515625 0.13671875 0.40000000 0.40000000 0.40000000
v 0.24609375 -0.25390625 -0.13671875 0.40000000 0.40000000 0.40000000
v 0.24609375 -0.25390625 0.13671875 0.40000000 0.40000000 0.40000000
v 0.39453125 0.48046875 -0.11328125 0.40000000 0.40000000 0.40000000
v 0.39453125 0.48046875 0.08984375 0.40000000 0.40000000 0.40000000
v 0.39453125 0.49609375 -0.11328125 0.40000000 0.40000000 0.40000000
v 0.39453125 0.49609375 0.08984375 0.40000000 0.40000000 0.40000000
v 0.42578125 -0.23046875 -0.13671875 0.40000000 0.40000000 0.40000000
v 0.42578125 -0.23046875 -0.12109375 0.40000000 0.40000000 0.40000000
v 0.42578125 -0.23046875 0.12109375 0.40000000 0.40000000 0.40000000
v 0.42578125 -0.23046875 0.13671875 0.40000000 0.40000000 0.40000000
v 0.42578125 0.47265625 -0.13671875 0.40000000 0.40000000 0.40000000
v 0.42578125 0.47265625 -0.12109375 0.40000000 0.40000000 0.40000000
v 0.42578125 0.48046875 -0.13671875 0.40000000 0.40000000 0.40000000
v 0.42578125 0.48046875 -0.12109375 0.40000000 0.40000000 0.40000000
v 0.42578125 0.48046875 0.12109375 0.40000000 0.40000000 0.40000000
v 0.42578125 0.48046875 0.13671875 0.40000000 0.40000000 0.40000000
v 0.44921875 -0.25390625 -0.13671875 0.40000000 0.40000000 0.40000000
v 0.44921875 -0.25390625 0.13671875 0.40000000 0.40000000 0.40000000
v 0.44921875 0.49609375 -0.13671875 0.40000000 0.40000000 0.40000000
v 0.44921875 0.49609375 0.13671875 0.40000000 0.40000000 0.40000000
v -0.37109375 -0.47265625 -0.13671875 0.31372549 0.78431373 0.94117647
v -0.27734375 -0.47265625 -0.13671875 0.31372549 0.78431373 0.94117647
v -0.27734375 -0.26953125 -0.13671875 0.31372549 0.78431373 0.94117647
v -0.37109375 -0.26953125 -0.13671875 0.31372549 0.78431373 0.94117647
v -0.37109375 -0.47265625 0.11328125 0.31372549 0.78431373 0.94117647
v -0.27734375 -0.47265625 0.11328125 0.31372549 0.78431373 0.94117647
v -0.27734375 -0.26953125 0.11328125 0.31372549 0.78431373 0.94117647
v -0.37109375 -0.26953125 0.11328125 0.31372549 0.78431373 0.94117647
v -0.41796875 -0.27734375 -0.13671875 0.70588235 0.50980392 0.27450980
v -0.37109375 -0.27734375 -0.13671875 0.70588235 0.50980392 0.27450980
v -0.37109375 -0.23828125 -0.13671875 0.70588235 0.50980392 0.27450980
v -0.41796875 -0.23828125 -0.13671875 0.70588235 0.50980392 0.27450980
v -0.41796875 -0.27734375 -0.09765625 0.70588235 0.50980392 0.27450980
v -0.37109375 -0.27734375 -0.09765625 0.70588235 0.50980392 0.27450980
v -0.37109375 -0.23828125 -0.09765625 0.70588235 0.50980392 0.27450980
v -0.41796875 -0.23828125 -0.09765625 0.70588235 0.50980392 0.27450980
v 0.26171875 -0.19140625 -0.13671875 0.78431373 0.39215686 0.78431373
v 0.32421875 -0.19140625 -0.13671875 0.78431373 0.39215686 0.78431373
v 0.32421875 -0.10546875 -0.13671875 0.78431373 0.39215686 0.78431373
v 0.26171875 -0.10546875 -0.13671875 0.78431373 0.39215686 0.78431373
v 0.26171875 -0.19140625 -0.07421875 0.78431373 0.39215686 0.78431373
v 0.32421875 -0.19140625 -0.07421875 0.78431373 0.39215686 0.78431373
v 0.32421875 -0.10546875 -0.07421875 0.78431373 0.39215686 0.78431373
v 0.26171875 -0.10546875 -0.07421875 0.78431373 0.39215686 0.78431373
v 0.25390625 -0.15234375 -0.13671875 0.78431373 0.78431373 0.31372549
v 0.33984375 -0.15234375 -0.13671875 0.78431373 0.78431373 0.31372549
v 0.33984375 0.01953125 -0.13671875 0.78431373 0.78431373 0.31372549
v 0.25390625 0.01953125 -0.13671875 0.78431373 0.78431373 0.31372549
v 0.25390625 -0.15234375 0.01171875 0.78431373 0.78431373 0.31372549
v 0.33984375 -0.15234375 0.01171875 0.78431373 0.78431373 0.31372549
v 0.33984375 0.01953125 0.01171875 0.78431373 0.78431373 0.31372549
v 0.25390625 0.01953125 0.01171875 0.78431373 0.78431373 0.31372549
v 0.21484375 -0.12890625 -0.13671875 0.78431373 0.39215686 0.78431373
v 0.28515625 -0.12890625 -0.13671875 0.78431373 0.39215686 0.78431373
v 0.28515625 -0.05859375 -0.13671875 0.78431373 0.39215686 0.78431373
v 0.21484375 -0.05859375 -0.13671875 0.78431373 0.39215686 0.78431373
v 0.21484375 -0.12890625 -0.07421875 0.78431373 0.39215686 0.78431373
v 0.28515625 -0.12890625 -0.07421875 0.78431373 0.39215686 0.78431373
v 0.28515625 -0.05859375 -0.07421875 0.78431373 0.39215686 0.78431373
v 0.21484375 -0.05859375 -0.07421875 0.78431373 0.39215686 0.78431373
v 0.30859375 -0.12890625 -0.13671875 0.78431373 0.39215686 0.78431373
v 0.38671875 -0.12890625 -0.13671875 0.78431373 0.39215686 0.78431373
v 0.38671875 -0.05859375 -0.13671875 0.78431373 0.39215686 0.78431373
v 0.30859375 -0.05859375 -0.13671875 0.78431373 0.39215686 0.78431373
v 0.30859375 -0.12890625 -0.07421875 0.78431373 0.39215686 0.78431373
v 0.38671875 -0.12890625 -0.07421875 0.78431373 0.39215686 0.78431373
v 0.38671875 -0.05859375 -0.07421875 0.78431373 0.39215686 0.78431373
v 0.30859375 -0.05859375 -0.07421875 0.78431373 0.39215686 0.78431373
v 0.22265625 -0.06640625 -0.13671875 0.78431373 0.39215686 0.78431373
v 0.28515625 -0.06640625 -0.13671875 0.78431373 0.39215686 0.78431373
v 0.28515625 -0.00390625 -0.13671875 0.78431373 0.39215686 0.78431373
v 0.22265625 -0.00390625 -0.13671875 0.78431373 0.39215686 0.78431373
v 0.22265625 -0.06640625 -0.07421875 0.78431373 0.39215686 0.78431373
v 0.28515625 -0.06640625 -0.07421875 0.78431373 0.39215686 0.78431373
v 0.28515625 -0.00390625 -0.07421875 0.78431373 0.39215686 0.78431373
v 0.22265625 -0.00390625 -0.07421875 0.78431373 0.39215686 0.78431373
v 0.30859375 -0.06640625 -0.13671875 0.78431373 0.39215686 0.78431373
v 0.38671875 -0.06640625 -0.13671875 0.78431373 0.39215686 0.78431373
v 0.38671875 -0.00390625 -0.13671875 0.78431373 0.39215686 0.78431373
v 0.30859375 -0.00390625 -0.13671875 0.78431373 0.39215686 0.78431373
v 0.30859375 -0.06640625 -0.07421875 0.78431373 0.39215686 0.78431373
v 0.38671875 -0.06640625 -0.07421875 0.78431373 0.39215686 0.78431373
v 0.38671875 -0.00390625 -0.07421875 0.78431373 0.39215686 0.78431373
v 0.30859375 -0.00390625 -0.07421875 0.78431373 0.39215686 0.78431373
v 0.26171875 -0.01953125 -0.13671875 0.78431373 0.39215686 0.78431373
v 0.33203125 -0.01953125 -0.13671875 0.78431373 0.39215686 0.78431373
v 0.33203125 0.04296875 -0.13671875 0.78431373 0.39215686 0.78431373
v 0.26171875 0.04296875 -0.13671875 0.78431373 0.39215686 0.78431373
v 0.26171875 -0.01953125 -0.07421875 0.78431373 0.39215686 0.78431373
v 0.33203125 -0.01953125 -0.07421875 0.78431373 0.39215686 0.78431373
v 0.33203125 0.04296875 -0.07421875 0.78431373 0.39215686 0.78431373
v 0.26171875 0.04296875 -0.07421875 0.78431373 0.39215686 0.78431373
v 0.23828125 0.11328125 -0.13671875 0.00000000 0.54901961 1.00000000
v 0.30078125 0.11328125 -0.13671875 0.00000000 0.54901961 1.00000000
v 0.30078125 0.18359375 -0.13671875 0.00000000 0.54901961 1.00000000
v 0.23828125 0.18359375 -0.13671875 0.00000000 0.54901961 1.00000000
v 0.23828125 0.11328125 -0.07421875 0.00000000 0.54901961 1.00000000
v 0.30078125 0.11328125 -0.07421875 0.00000000 0.54901961 1.00000000
v 0.30078125 0.18359375 -0.07421875 0.00000000 0.54901961 1.00000000
v 0.23828125 0.18359375 -0.07421875 0.00000000 0.54901961 1.00000000
v -0.20703125 0.12890625 -0.13671875 0.70588235 0.50980392 0.27450980
v -0.15234375 0.12890625 -0.13671875 0.70588235 0.50980392 0.27450980
v -0.15234375 0.17578125 -0.13671875 0.70588235 0.50980392 0.27450980
v -0.20703125 0.17578125 -0.13671875 0.70588235 0.50980392 0.27450980
v -0.20703125 0.12890625 -0.08984375 0.70588235 0.50980392 0.27450980
v -0.15234375 0.12890625 -0.08984375 0.70588235 0.50980392 0.27450980
v -0.15234375 0.17578125 -0.08984375 0.70588235 0.50980392 0.27450980
v -0.20703125 0.17578125 -0.08984375 0.70588235 0.50980392 0.27450980
v -0.17578125 0.18359375 -0.13671875 0.31372549 0.78431373 0.94117647
v -0.02734375 0.18359375 -0.13671875 0.31372549 0.78431373 0.94117647
v -0.02734375 0.37890625 -0.13671875 0.31372549 0.78431373 0.94117647
v -0.17578125 0.37890625 -0.13671875 0.31372549 0.78431373 0.94117647
v -0.17578125 0.18359375 0.08984375 0.31372549 0.78431373 0.94117647
v -0.02734375 0.18359375 0.08984375 0.31372549 0.78431373 0.94117647
v -0.02734375 0.37890625 0.08984375 0.31372549 0.78431373 0.94117647
v -0.17578125 0.37890625 0.08984375 0.31372549 0.78431373 0.94117647
v 0.10546875 0.20703125 -0.13671875 0.70588235 0.50980392 0.27450980
v 0.16796875 0.20703125 -0.13671875 0.70588235 0.50980392 0.27450980
v 0.16796875 0.41796875 -0.13671875 0.70588235 0.50980392 0.27450980
v 0.10546875 0.41796875 -0.13671875 0.70588235 0.50980392 0.27450980
v 0.10546875 0.20703125 -0.09765625 0.70588235 0.50980392 0.27450980
v 0.16796875 0.20703125 -0.09765625 0.70588235 0.50980392 0.27450980
v 0.16796875 0.41796875 -0.09765625 0.70588235 0.50980392 0.27450980
v 0.10546875 0.41796875 -0.09765625 0.70588235 0.50980392 0.27450980
v 0.33984375 0.21484375 -0.13671875 0.00000000 0.54901961 1.00000000
v 0.41015625 0.21484375 -0.13671875 0.00000000 0.54901961 1.00000000
v 0.41015625 0.44140625 -0.13671875 0.00000000 0.54901961 1.00000000
v 0.33984375 0.44140625 -0.13671875 0.00000000 0.54901961 1.00000000
v 0.33984375 0.21484375 -0.05078125 0.00000000 0.54901961 1.00000000
v 0.41015625 0.21484375 -0.05078125 0.00000000 0.54901961 1.00000000
v 0.41015625 0.44140625 -0.05078125 0.00000000 0.54901961 1.00000000
v 0.33984375 0.44140625 -0.05078125 0.00000000 0.54901961 1.00000000
v 0.23046875 0.25390625 -0.13671875 0.70588235 0.50980392 0.27450980
v 0.26171875 0.25390625 -0.13671875 0.70588235 0.50980392 0.27450980
v 0.26171875 0.37109375 -0.13671875 0.70588235 0.50980392 0.27450980
v 0.23046875 0.37109375 -0.13671875 0.70588235 0.50980392 0.27450980
v 0.23046875 0.25390625 -0.05859375 0.70588235 0.50980392 0.27450980
v 0.26171875 0.25390625 -0.05859375 0.70588235 0.50980392 0.27450980
v 0.26171875 0.37109375 -0.05859375 0.70588235 0.50980392 0.27450980
v 0.23046875 0.37109375 -0.05859375 0.70588235 0.50980392 0.27450980
v 0.00390625 0.32421875 -0.13671875 0.78431373 0.39215686 0.78431373
v 0.08984375 0.32421875 -0.13671875 0.78431373 0.39215686 0.78431373
v 0.08984375 0.37109375 -0.13671875 0.78431373 0.39215686 0.78431373
v 0.00390625 0.37109375 -0.13671875 0.78431373 0.39215686 0.78431373
v 0.00390625 0.32421875 -0.08203125 0.78431373 0.39215686 0.78431373
v 0.08984375 0.32421875 -0.08203125 0.78431373 0.39215686 0.78431373
v 0.08984375 0.37109375 -0.08203125 0.78431373 0.39215686 0.78431373
v 0.00390625 0.37109375 -0.08203125 0.78431373 0.39215686 0.78431373
v -0.30078125 -0.38671875 0.01953125 0.19607843 0.78431373 1.00000000
v -0.26953125 -0.38671875 0.01953125 0.19607843 0.78431373 1.00000000
v -0.26953125 -0.28515625 0.01953125 0.19607843 0.78431373 1.00000000
v -0.30078125 -0.28515625 0.01953125 0.19607843 0.78431373 1.00000000
v -0.30078125 -0.38671875 0.04296875 0.19607843 0.78431373 1.00000000
v -0.26953125 -0.38671875 0.04296875 0.19607843 0.78431373 1.00000000
v -0.26953125 -0.28515625 0.04296875 0.19607843 0.78431373 1.00000000
v -0.30078125 -0.28515625 0.04296875 0.19607843 0.78431373 1.00000000
v 0.23046875 0.23828125 0.05078125 0.19607843 0.78431373 1.00000000
v 0.31640625 0.23828125 0.05078125 0.19607843 0.78431373 1.00000000
v 0.31640625 0.26953125 0.05078125 0.19607843 0.78431373 1.00000000
v 0.23046875 0.26953125 0.05078125 0.19607843 0.78431373 1.00000000
v 0.23046875 0.23828125 0.08203125 0.19607843 0.78431373 1.00000000
v 0.31640625 0.23828125 0.08203125 0.19607843 0.78431373 1.00000000
v 0.31640625 0.26953125 0.08203125 0.19607843 0.78431373 1.00000000
v 0.23046875 0.26953125 0.08203125 0.19607843 0.78431373 1.00000000
v 0.27734375 -0.09765625 0.08984375 0.19607843 0.78431373 1.00000000
v 0.30859375 -0.09765625 0.08984375 0.19607843 0.78431373 1.00000000
v 0.30859375 -0.04296875 0.08984375 0.19607843 0.78431373 1.00000000
v 0.27734375 -0.04296875 0.08984375 0.19607843 0.78431373 1.00000000
v 0.27734375 -0.09765625 0.15234375 0.19607843 0.78431373 1.00000000
v 0.30859375 -0.09765625 0.15234375 0.19607843 0.78431373 1.00000000
v 0.30859375 -0.04296875 0.15234375 0.19607843 0.78431373 1.00000000
v 0.27734375 -0.04296875 0.15234375 0.19607843 0.78431373 1.00000000
v -0.06640625 0.21484375 0.10546875 0.19607843 0.78431373 1.00000000
v -0.03515625 0.21484375 0.10546875 0.19607843 0.78431373 1.00000000
v -0.03515625 0.28515625 0.10546875 0.19607843 0.78431373 1.00000000
v -0.06640625 0.28515625 0.10546875 0.19607843 0.78431373 1.00000000
v -0.06640625 0.21484375 0.15234375 0.19607843 0.78431373 1.00000000
v -0.03515625 0.21484375 0.15234375 0.19607843 0.78431373 1.00000000
v -0.03515625 0.28515625 0.15234375 0.19607843 0.78431373 1.00000000
v -0.06640625 0.28515625 0.15234375 0.19607843 0.78431373 1.00000000
f 1 81 82
f 1 82 2
f 82 81 161
f 81 1 5
f 1 2 3
f 2 82 8
f 82 161 84
f 161 81 160
f 81 5 62
f 5 1 3
f 3 2 4
f 2 8 4
f 8 82 65
f 82 84 65
f 84 161 92
f 161 160 237
f 160 81 83
f 81 62 83
f 62 5 9
f 62 5 7
f 5 3 11
f 3 4 17
f 4 8 14
f 65 84 71
f 84 92 86
f 92 161 119
f 161 237 276
f 237 160 236
f 160 83 91
f 83 62 68
f 62 9 66
f 5 62 33
f 5 62 6
f 62 7 64
f 7 5 11
f 11 3 23
f 3 17 21
f 17 4 18
f 4 14 24
f 71 84 86
f 86 92 94
f 92 119 118
f 119 161 163
f 161 276 163
f 276 237 245
f 237 236 238
f 236 160 162
f 160 91 118
f 91 83 85
f 83 68 85
f 68 62 64
f 66 9 10
f 5 33 11
f 33 62 77
f 5 6 12
f 6 62 63
f 7 11 13
f 11 5 12
f 11 23 33
f 23 3 21
f 21 17 19
f 17 18 16
f 18 4 22
f 4 24 22
f 24 14 36
f 71 86 80
f 86 94 98
f 94 92 91
f 92 118 91
f 118 119 120
f 119 163 124
f 163 276 175
f 276 245 244
f 245 237 247
f 237 238 239
f 238 236 244
f 238 236 172
f 236 162 172
f 162 160 118
f 91 85 93
f 85 68 72
f 68 64 70
f 62 68 63
f 66 10 67
f 10 9 12
f 11 33 15
f 11 33 34
f 33 77 79
f 6 63 10
f 13 11 16
f 11 12 9
f 33 23 37
f 23 21 22
f 21 19 22
f 19 17 15
f 17 16 15
f 16 18 22
f 22 24 23
f 24 36 38
f 80 86 88
f 86 98 88
f 98 94 124
f 94 91 93
f 91 118 122
f 118 120 162
f 120 119 121
f 119 124 123
f 124 163 165
f 163 175 165
f 175 276 257
f 276 244 275
f 244 245 247
f 247 237 239
f 239 238 174
f 238 244 246
f 238 172 174
f 172 162 178
f 93 85 95
f 85 72 95
f 72 68 69
f 72 68 70
f 63 68 69
f 66 67 68
f 67 10 63
f 11 15 16
f 15 33 19
f 11 34 12
f 33 79 35
f 79 77 76
f 77 33 37
f 77 33 78
f 13 16 35
f 37 23 29
f 22 19 20
f 16 22 20
f 23 24 25
f 24 38 30
f 38 36 80
f 80 88 90
f 88 98 105
f 98 124 128
f 124 94 93
f 93 91 122
f 162 120 178
f 120 121 179
f 121 119 123
f 124 165 128
f 165 175 185
f 257 276 263
f 276 275 278
f 275 244 246
f 244 247 246
f 247 239 174
f 174 172 179
f 172 178 179
f 93 95 122
f 95 72 96
f 72 69 73
f 69 68 67
f 72 70 74
f 19 33 35
f 77 79 75
f 77 37 41
f 78 33 34
f 35 16 20
f 37 29 39
f 29 23 27
f 20 19 35
f 23 25 27
f 25 24 26
f 24 30 28
f 30 38 40
f 38 80 42
f 80 90 42
f 90 88 105
f 124 93 122
f 178 120 179
f 179 121 123
f 128 165 134
f 165 185 190
f 263 276 274
f 276 278 274
f 278 275 277
f 275 246 254
f 246 247 254
f 247 174 256
f 174 179 184
f 122 95 125
f 96 72 74
f 72 95 75
f 74 70 76
f 77 41 89
f 41 37 39
f 39 29 31
f 29 27 28
f 27 25 45
f 25 26 44
f 26 24 28
f 28 30 29
f 30 40 32
f 40 38 42
f 42 90 89
f 90 105 136
f 120 178 122
f 179 123 182
f 134 165 167
f 165 190 167
f 190 185 263
f 263 274 268
f 274 278 280
f 278 277 280
f 277 275 273
f 275 254 260
f 254 247 256
f 184 179 182
f 122 125 164
f 125 95 97
f 96 74 76
f 75 95 99
f 76 70 79
f 77 89 87
f 89 41 42
f 41 39 47
f 39 31 55
f 31 29 30
f 28 27 45
f 45 25 43
f 25 44 43
f 44 26 28
f 30 32 31
f 32 40 57
f 40 42 48
f 89 90 106
f 90 136 111
f 136 105 134
f 122 178 180
f 182 123 180
f 134 167 136
f 167 190 198
f 190 263 268
f 268 274 272
f 274 280 272
f 280 277 279
f 277 273 279
f 273 275 260
f 260 254 262
f 254 256 262
f 122 164 180
f 164 125 186
f 125 97 127
f 95 125 131
f 96 76 100
f 75 99 76
f 76 79 75
f 77 87 99
f 87 89 101
f 42 41 44
f 41 89 137
f 41 47 43
f 47 39 49
f 39 55 49
f 55 31 156
f 28 45 46
f 45 43 47
f 43 44 41
f 44 28 46
f 31 32 60
f 32 57 157
f 57 40 52
f 40 48 52
f 48 42 44
f 89 106 101
f 106 90 107
f 90 111 107
f 111 136 135
f 122 180 123
f 136 167 138
f 167 198 169
f 272 280 288
f 280 279 296
f 279 273 269
f 273 260 264
f 260 262 248
f 254 260 172
f 254 260 255
f 180 164 186
f 186 125 188
f 95 131 101
f 96 100 104
f 100 76 99
f 99 75 77
f 99 87 101
f 41 137 47
f 137 89 135
f 47 49 137
f 49 55 51
f 49 55 56
f 55 156 153
f 156 31 116
f 46 45 48
f 45 47 48
f 44 46 48
f 31 60 116
f 60 32 61
f 32 157 117
f 157 57 155
f 52 48 138
f 101 106 103
f 106 107 103
f 107 111 103
f 111 135 110
f 135 136 137
f 136 138 137
f 138 167 169
f 169 198 202
f 288 280 296
f 296 279 295
f 279 269 285
f 269 273 264
f 264 260 251
f 260 248 251
f 260 248 261
f 248 262 250
f 172 260 180
f 255 260 261
f 180 186 226
f 180 186 183
f 186 188 183
f 188 125 126
f 125 186 129
f 96 104 97
f 104 100 99
f 99 101 104
f 47 137 138
f 137 49 139
f 49 51 141
f 51 55 53
f 55 49 153
f 49 56 50
f 56 55 154
f 55 153 58
f 55 153 154
f 153 156 170
f 156 116 117
f 48 47 138
f 116 60 114
f 60 61 59
f 61 32 117
f 117 157 156
f 157 155 171
f 155 57 59
f 52 138 142
f 106 101 108
f 103 111 109
f 111 110 108
f 110 135 131
f 135 137 166
f 138 169 142
f 169 202 171
f 288 296 294
f 296 295 298
f 295 279 285
f 285 269 270
f 285 269 287
f 269 264 265
f 269 264 271
f 264 251 253
f 251 248 253
f 261 248 249
f 248 250 253
f 250 262 228
f 261 260 259
f 180 226 227
f 226 186 229
f 186 180 187
f 186 180 248
f 183 188 253
f 188 126 130
f 129 186 191
f 137 139 168
f 139 49 50
f 139 49 141
f 53 55 57
f 153 49 139
f 55 58 59
f 58 153 114
f 154 153 150
f 153 170 207
f 170 156 158
f 117 116 114
f 114 60 58
f 60 59 58
f 59 61 117
f 156 157 158
f 157 171 159
f 171 155 169
f 155 59 115
f 59 57 55
f 106 108 110
f 103 109 133
f 109 111 108
f 108 110 131
f 131 135 166
f 166 137 168
f 142 169 155
f 171 202 214
f 294 296 298
f 298 295 297
f 295 285 291
f 285 270 286
f 270 269 265
f 269 285 291
f 285 287 291
f 287 269 271
f 264 269 186
f 271 264 267
f 264 253 267
f 251 253 266
f 248 251 229
f 248 251 249
f 253 250 183
f 228 262 184
f 259 260 258
f 180 227 181
f 227 226 230
f 226 229 230
f 229 186 230
f 186 187 230
f 187 180 181
f 253 188 189
f 188 130 192
f 130 126 127
f 129 191 130
f 168 139 145
f 139 50 140
f 139 141 145
f 53 57 54
f 114 153 155
f 150 153 149
f 153 207 147
f 207 170 211
f 170 158 219
f 117 114 115
f 59 117 115
f 158 157 159
f 159 171 221
f 155 115 114
f 103 133 104
f 133 109 108
f 108 131 133
f 131 166 191
f 166 168 195
f 171 214 221
f 294 298 221
f 298 297 284
f 297 295 291
f 285 286 289
f 269 291 180
f 285 291 286
f 291 287 293
f 186 269 180
f 267 253 189
f 251 266 264
f 248 229 226
f 249 251 252
f 228 184 180
f 181 227 228
f 227 230 228
f 187 181 230
f 189 188 197
f 188 192 197
f 192 130 191
f 130 127 133
f 129 130 133
f 191 129 131
f 168 145 205
f 139 140 143
f 145 141 146
f 155 153 152
f 153 147 151
f 147 207 148
f 207 211 213
f 211 170 219
f 219 158 297
f 158 159 242
f 159 221 298
f 133 131 129
f 191 166 195
f 195 168 199
f 294 221 241
f 298 284 159
f 284 297 283
f 297 291 219
f 289 286 290
f 180 291 195
f 286 291 292
f 291 293 281
f 228 230 231
f 230 181 227
f 197 192 191
f 168 205 199
f 205 145 206
f 143 140 144
f 145 146 206
f 146 141 148
f 152 153 151
f 151 147 148
f 148 207 208
f 207 147 205
f 207 213 208
f 213 211 215
f 211 219 215
f 297 158 283
f 158 242 283
f 242 159 243
f 191 195 197
f 195 199 201
f 195 199 200
f 294 241 282
f 241 221 219
f 159 284 243
f 284 283 281
f 219 291 240
f 219 291 289
f 289 290 217
f 195 291 199
f 292 291 219
f 291 281 240
f 281 293 282
f 228 231 253
f 231 230 188
f 230 227 229
f 199 205 206
f 145 205 147
f 206 146 148
f 148 141 151
f 148 208 206
f 208 213 206
f 215 219 221
f 219 211 220
f 219 211 291
f 283 242 281
f 242 243 241
f 197 195 201
f 201 199 206
f 195 200 196
f 200 199 204
f 294 282 281
f 282 241 284
f 241 219 240
f 243 284 241
f 284 281 282
f 219 289 217
f 217 290 218
f 199 291 211
f 292 219 220
f 240 281 242
f 228 253 250
f 188 230 187
f 229 227 226
f 206 213 201
f 215 221 216
f 220 211 212
f 242 241 240
f 195 196 193
f 204 199 203
f 294 281 293
f 217 218 211
f 218 290 220
f 292 220 290
f 212 211 218
f 193 196 194
f 293 281 292
f 211 212 209
f 209 212 210
f 172 222 232
f 172 232 173
f 232 222 234
f 222 172 224
f 172 173 177
f 173 232 233
f 234 222 223
f 222 224 225
f 224 172 176
f 172 177 176
f 177 173 223
f 173 233 223
f 234 223 235
f 223 222 225
f 177 223 225
f 223 233 235
f 232 235 234
f 235 232 233
f 258 255 254
f 255 258 259
f 224 177 176
f 177 224 225
f 112 132 131
f 132 112 113
f 112 113 101
f 101 113 102
f 299 300 301
f 299 301 302
f 303 306 305
f 303 305 304
f 299 303 304
f 299 304 300
f 302 301 305
f 302 305 306
f 299 302 306
f 299 306 303
f 300 304 305
f 300 305 301
f 307 308 309
f 307 309 310
f 311 314 313
f 311 313 312
f 307 311 312
f 307 312 308
f 310 309 313
f 310 313 314
f 307 310 314
f 307 314 311
f 308 312 313
f 308 313 309
f 315 316 317
f 315 317 318
f 319 322 321
f 319 321 320
f 315 319 320
f 315 320 316
f 318 317 321
f 318 321 322
f 315 318 322
f 315 322 319
f 316 320 321
f 316 321 317
f 323 324 325
f 323 325 326
f 327 330 329
f 327 329 328
f 323 327 328
f 323 328 324
f 326 325 329
f 326 329 330
f 323 326 330
f 323 330 327
f 324 328 329
f 324 329 325
f 331 332 333
f 331 333 334
f 335 338 337
f 335 337 336
f 331 335 336
f 331 336 332
f 334 333 337
f 334 337 338
f 331 334 338
f 331 338 335
f 332 336 337
f 332 337 333
f 339 340 341
f 339 341 342
f 343 346 345
f 343 345 344
f 339 343 344
f 339 344 340
f 342 341 345
f 342 345 346
f 339 342 346
f 339 346 343
f 340 344 345
f 340 345 341
f 347 348 349
f 347 349 350
f 351 354 353
f 351 353 352
f 347 351 352
f 347 352 348
f 350 349 353
f 350 353 354
f 347 350 354
f 347 354 351
f 348 352 353
f 348 353 349
f 355 356 357
f 355 357 358
f 359 362 361
f 359 361 360
f 355 359 360
f 355 360 356
f 358 357 361
f 358 361 362
f 355 358 362
f 355 362 359
f 356 360 361
f 356 361 357
f 363 364 365
f 363 365 366
f 367 370 369
f 367 369 368
f 363 367 368
f 363 368 364
f 366 365 369
f 366 369 370
f 363 366 370
f 363 370 367
f 364 368 369
f 364 369 365
f 371 372 373
f 371 373 374
f 375 378 377
f 375 377 376
f 371 375 376
f 371 376 372
f 374 373 377
f 374 377 378
f 371 374 378
f 371 378 375
f 372 376 377
f 372 377 373
f 379 380 381
f 379 381 382
f 383 386 385
f 383 385 384
f 379 383 384
f 379 384 380
f 382 381 385
f 382 385 386
f 379 382 386
f 379 386 383
f 380 384 385
f 380 385 381
f 387 388 389
f 387 389 390
f 391 394 393
f 391 393 392
f 387 391 392
f 387 392 388
f 390 389 393
f 390 393 394
f 387 390 394
f 387 394 391
f 388 392 393
f 388 393 389
f 395 396 397
f 395 397 398
f 399 402 401
f 399 401 400
f 395 399 400
f 395 400 396
f 398 397 401
f 398 401 402
f 395 398 402
f 395 402 399
f 396 400 401
f 396 401 397
f 403 404 405
f 403 405 406
f 407 410 409
f 407 409 408
f 403 407 408
f 403 408 404
f 406 405 409
f 406 409 410
f 403 406 410
f 403 410 407
f 404 408 409
f 404 409 405
f 411 412 413
f 411 413 414
f 415 418 417
f 415 417 416
f 411 415 416
f 411 416 412
f 414 413 417
f 414 417 418
f 411 414 418
f 411 418 415
f 412 416 417
f 412 417 413
f 419 420 421
f 419 421 422
f 423 426 425
f 423 425 424
f 419 423 424
f 419 424 420
f 422 421 425
f 422 425 426
f 419 422 426
f 419 426 423
f 420 424 425
f 420 425 421
f 427 428 429
f 427 429 430
f 431 434 433
f 431 433 432
f 427 431 432
f 427 432 428
f 430 429 433
f 430 433 434
f 427 430 434
f 427 434 431
f 428 432 433
f 428 433 429
f 435 436 437
f 435 437 438
f 439 442 441
f 439 441 440
f 435 439 440
f 435 440 436
f 438 437 441
f 438 441 442
f 435 438 442
f 435 442 439
f 436 440 441
f 436 441 437
f 443 444 445
f 443 445 446
f 447 450 449
f 447 449 448
f 443 447 448
f 443 448 444
f 446 445 449
f 446 449 450
f 443 446 450
f 443 450 447
f 444 448 449
f 444 449 445
f 451 452 453
f 451 453 454
f 455 458 457
f 455 457 456
f 451 455 456
f 451 456 452
f 454 453 457
f 454 457 458
f 451 454 458
f 451 458 455
f 452 456 457
f 452 457 453

