# https://github.com/mikedh/trimesh
v -0.41015625 -0.33984375 -0.09765625 0.40000000 0.40000000 0.40000000
v -0.41015625 -0.33984375 0.09765625 0.40000000 0.40000000 0.40000000
v -0.41015625 -0.26171875 -0.03515625 0.40000000 0.40000000 0.40000000
v -0.41015625 -0.26171875 0.08203125 0.40000000 0.40000000 0.40000000
v -0.41015625 -0.03515625 -0.03515625 0.40000000 0.40000000 0.40000000
v -0.41015625 -0.03515625 0.08203125 0.40000000 0.40000000 0.40000000
v -0.41015625 0.01953125 -0.09765625 0.40000000 0.40000000 0.40000000
v -0.41015625 0.01953125 0.09765625 0.40000000 0.40000000 0.40000000
v -0.41015625 0.08203125 -0.03515625 0.40000000 0.40000000 0.40000000
v -0.41015625 0.08203125 0.08203125 0.40000000 0.40000000 0.40000000
v -0.41015625 0.30078125 -0.03515625 0.40000000 0.40000000 0.40000000
v -0.41015625 0.30078125 0.08203125 0.40000000 0.40000000 0.40000000
v -0.41015625 0.34765625 -0.09765625 0.40000000 0.40000000 0.40000000
v -0.41015625 0.34765625 0.09765625 0.40000000 0.40000000 0.40000000
v -0.39453125 0.01953125 -0.09765625 0.40000000 0.40000000 0.40000000
v -0.39453125 0.01953125 0.09765625 0.40000000 0.40000000 0.40000000
v -0.38671875 -0.31640625 -0.09765625 0.40000000 0.40000000 0.40000000
v -0.38671875 -0.31640625 -0.08984375 0.40000000 0.40000000 0.40000000
v -0.38671875 -0.31640625 0.08984375 0.40000000 0.40000000 0.40000000
v -0.38671875 -0.31640625 0.09765625 0.40000000 0.40000000 0.40000000
v -0.38671875 -0.26171875 -0.03515625 0.40000000 0.40000000 0.40000000
v -0.38671875 -0.26171875 0.08203125 0.40000000 0.40000000 0.40000000
v -0.38671875 -0.03515625 -0.03515625 0.40000000 0.40000000 0.40000000
v -0.38671875 -0.03515625 0.08203125 0.40000000 0.40000000 0.40000000
v -0.38671875 0.01171875 -0.09765625 0.40000000 0.40000000 0.40000000
v -0.38671875 0.01171875 -0.08984375 0.40000000 0.40000000 0.40000000
v -0.38671875 0.01171875 0.08984375 0.40000000 0.40000000 0.40000000
v -0.38671875 0.01171875 0.09765625 0.40000000 0.40000000 0.40000000
v -0.38671875 0.03515625 -0.09765625 0.40000000 0.40000000 0.40000000
v -0.38671875 0.03515625 -0.08984375 0.40000000 0.40000000 0.40000000
v -0.38671875 0.03515625 0.08984375 0.40000000 0.40000000 0.40000000
v -0.38671875 0.03515625 0.09765625 0.40000000 0.40000000 0.40000000
v -0.38671875 0.08203125 -0.03515625 0.40000000 0.40000000 0.40000000
v -0.38671875 0.08203125 0.08203125 0.40000000 0.40000000 0.40000000
v -0.38671875 0.30078125 -0.03515625 0.40000000 0.40000000 0.40000000
v -0.38671875 0.30078125 0.08203125 0.40000000 0.40000000 0.40000000
v -0.38671875 0.32421875 -0.09765625 0.40000000 0.40000000 0.40000000
v -0.38671875 0.32421875 -0.08984375 0.40000000 0.40000000 0.40000000
v -0.38671875 0.32421875 0.08984375 0.40000000 0.40000000 0.40000000
v -0.38671875 0.32421875 0.09765625 0.40000000 0.40000000 0.40000000
v -0.15234375 -0.49609375 -0.09765625 0.40000000 0.40000000 0.40000000
v -0.15234375 -0.49609375 0.09765625 0.40000000 0.40000000 0.40000000
v -0.15234375 -0.41796875 -0.02734375 0.40000000 0.40000000 0.40000000
v -0.15234375 -0.41796875 0.08203125 0.40000000 0.40000000 0.40000000
v -0.15234375 -0.35546875 -0.02734375 0.40000000 0.40000000 0.40000000
v -0.15234375 -0.35546875 0.08203125 0.40000000 0.40000000 0.40000000
v -0.15234375 -0.33984375 -0.09765625 0.40000000 0.40000000 0.40000000
v -0.15234375 -0.33984375 0.09765625 0.40000000 0.40000000 0.40000000
v -0.14453125 -0.33203125 -0.09765625 0.40000000 0.40000000 0.40000000
v -0.14453125 -0.33203125 0.09765625 0.40000000 0.40000000 0.40000000
v -0.14453125 -0.31640625 -0.09765625 0.40000000 0.40000000 0.40000000
v -0.14453125 -0.31640625 -0.08984375 0.40000000 0.40000000 0.40000000
v -0.14453125 -0.31640625 0.08984375 0.40000000 0.40000000 0.40000000
v -0.14453125 -0.31640625 0.09765625 0.40000000 0.40000000 0.40000000
v -0.12890625 -0.48046875 -0.09765625 0.40000000 0.40000000 0.40000000
v -0.12890625 -0.48046875 0.09765625 0.40000000 0.40000000 0.40000000
v -0.12890625 -0.41796875 -0.02734375 0.40000000 0.40000000 0.40000000
v -0.12890625 -0.41796875 0.08203125 0.40000000 0.40000000 0.40000000
v -0.12890625 -0.35546875 -0.02734375 0.40000000 0.40000000 0.40000000
v -0.12890625 -0.35546875 0.08203125 0.40000000 0.40000000 0.40000000
v -0.12890625 -0.33984375 -0.09765625 0.40000000 0.40000000 0.40000000
v -0.12890625 -0.33984375 0.09765625 0.40000000 0.40000000 0.40000000
v -0.01953125 0.03515625 -0.09765625 0.40000000 0.40000000 0.40000000
v -0.01953125 0.03515625 -0.08984375 0.40000000 0.40000000 0.40000000
v -0.01953125 0.04296875 -0.09765625 0.40000000 0.40000000 0.40000000
v -0.01953125 0.04296875 -0.08984375 0.40000000 0.40000000 0.40000000
v -0.01953125 0.12890625 -0.09765625 0.40000000 0.40000000 0.40000000
v -0.01953125 0.12890625 -0.08984375 0.40000000 0.40000000 0.40000000
v -0.01953125 0.19921875 -0.09765625 0.40000000 0.40000000 0.40000000
v -0.01953125 0.19921875 -0.08984375 0.40000000 0.40000000 0.40000000
v -0.01953125 0.32421875 -0.09765625 0.40000000 0.40000000 0.40000000
v -0.01953125 0.32421875 -0.08984375 0.40000000 0.40000000 0.40000000
v -0.01171875 0.03515625 -0.09765625 0.40000000 0.40000000 0.40000000
v -0.01171875 0.03515625 -0.08984375 0.40000000 0.40000000 0.40000000
v -0.01171875 0.03515625 0.08984375 0.40000000 0.40000000 0.40000000
v -0.01171875 0.03515625 0.09765625 0.40000000 0.40000000 0.40000000
v -0.01171875 0.04296875 -0.09765625 0.40000000 0.40000000 0.40000000
v -0.01171875 0.04296875 -0.08984375 0.40000000 0.40000000 0.40000000
v -0.01171875 0.05078125 -0.09765625 0.40000000 0.40000000 0.40000000
v -0.01171875 0.05078125 0.05859375 0.40000000 0.40000000 0.40000000
v -0.01171875 0.12890625 -0.09765625 0.40000000 0.40000000 0.40000000
v -0.01171875 0.12890625 -0.08984375 0.40000000 0.40000000 0.40000000
v -0.01171875 0.12890625 0.05859375 0.40000000 0.40000000 0.40000000
v -0.01171875 0.19921875 -0.09765625 0.40000000 0.40000000 0.40000000
v -0.01171875 0.19921875 -0.08984375 0.40000000 0.40000000 0.40000000
v -0.01171875 0.19921875 0.08984375 0.40000000 0.40000000 0.40000000
v -0.01171875 0.19921875 0.09765625 0.40000000 0.40000000 0.40000000
v -0.01171875 0.32421875 -0.09765625 0.40000000 0.40000000 0.40000000
v -0.01171875 0.32421875 -0.08984375 0.40000000 0.40000000 0.40000000
v -0.01171875 0.32421875 0.08984375 0.40000000 0.40000000 0.40000000
v -0.01171875 0.32421875 0.09765625 0.40000000 0.40000000 0.40000000
v -0.01171875 0.34765625 -0.09765625 0.40000000 0.40000000 0.40000000
v -0.01171875 0.34765625 0.09765625 0.40000000 0.40000000 0.40000000
v -0.01171875 0.49609375 -0.09765625 0.40000000 0.40000000 0.40000000
v -0.01171875 0.49609375 0.09765625 0.40000000 0.40000000 0.40000000
v -0.00390625 0.19921875 -0.09765625 0.40000000 0.40000000 0.40000000
v -0.00390625 0.19921875 0.09765625 0.40000000 0.40000000 0.40000000
v -0.00390625 0.33203125 -0.09765625 0.40000000 0.40000000 0.40000000
v -0.00390625 0.33203125 0.09765625 0.40000000 0.40000000 0.40000000
v 0.01171875 -0.31640625 -0.09765625 0.40000000 0.40000000 0.40000000
v 0.01171875 -0.31640625 -0.08984375 0.40000000 0.40000000 0.40000000
v 0.01171875 -0.31640625 0.08984375 0.40000000 0.40000000 0.40000000
v 0.01171875 -0.31640625 0.09765625 0.40000000 0.40000000 0.40000000
v 0.01171875 0.01171875 -0.09765625 0.40000000 0.40000000 0.40000000
v 0.01171875 0.01171875 -0.08984375 0.40000000 0.40000000 0.40000000
v 0.01171875 0.01171875 0.08984375 0.40000000 0.40000000 0.40000000
v 0.01171875 0.01171875 0.09765625 0.40000000 0.40000000 0.40000000
v 0.01171875 0.04296875 -0.09765625 0.40000000 0.40000000 0.40000000
v 0.01171875 0.04296875 -0.08984375 0.40000000 0.40000000 0.40000000
v 0.01171875 0.05078125 -0.09765625 0.40000000 0.40000000 0.40000000
v 0.01171875 0.05078125 0.05859375 0.40000000 0.40000000 0.40000000
v 0.01171875 0.12890625 -0.09765625 0.40000000 0.40000000 0.40000000
v 0.01171875 0.12890625 0.05859375 0.40000000 0.40000000 0.40000000
v 0.01171875 0.19140625 -0.09765625 0.40000000 0.40000000 0.40000000
v 0.01171875 0.19140625 0.08984375 0.40000000 0.40000000 0.40000000
v 0.01171875 0.19140625 0.09765625 0.40000000 0.40000000 0.40000000
v 0.01171875 0.21484375 -0.09765625 0.40000000 0.40000000 0.40000000
v 0.01171875 0.21484375 -0.08984375 0.40000000 0.40000000 0.40000000
v 0.01171875 0.21484375 0.08984375 0.40000000 0.40000000 0.40000000
v 0.01171875 0.21484375 0.09765625 0.40000000 0.40000000 0.40000000
v 0.01171875 0.33203125 -0.09765625 0.40000000 0.40000000 0.40000000
v 0.01171875 0.33203125 -0.08984375 0.40000000 0.40000000 0.40000000
v 0.01171875 0.33203125 0.08984375 0.40000000 0.40000000 0.40000000
v 0.01171875 0.33203125 0.09765625 0.40000000 0.40000000 0.40000000
v 0.01171875 0.48046875 -0.09765625 0.40000000 0.40000000 0.40000000
v 0.01171875 0.48046875 -0.08984375 0.40000000 0.40000000 0.40000000
v 0.01171875 0.48046875 0.08984375 0.40000000 0.40000000 0.40000000
v 0.01171875 0.48046875 0.09765625 0.40000000 0.40000000 0.40000000
v 0.01953125 0.19140625 -0.09765625 0.40000000 0.40000000 0.40000000
v 0.01953125 0.19140625 0.05859375 0.40000000 0.40000000 0.40000000
v 0.01953125 0.21484375 -0.09765625 0.40000000 0.40000000 0.40000000
v 0.01953125 0.21484375 0.05859375 0.40000000 0.40000000 0.40000000
v 0.07421875 -0.31640625 -0.09765625 0.40000000 0.40000000 0.40000000
v 0.07421875 -0.31640625 -0.08984375 0.40000000 0.40000000 0.40000000
v 0.08203125 -0.33984375 -0.09765625 0.40000000 0.40000000 0.40000000
v 0.08203125 -0.33984375 0.05859375 0.40000000 0.40000000 0.40000000
v 0.08203125 -0.31640625 -0.09765625 0.40000000 0.40000000 0.40000000
v 0.08203125 -0.31640625 -0.08984375 0.40000000 0.40000000 0.40000000
v 0.08203125 -0.31640625 0.05859375 0.40000000 0.40000000 0.40000000
v 0.08984375 0.21484375 -0.09765625 0.40000000 0.40000000 0.40000000
v 0.08984375 0.21484375 -0.08984375 0.40000000 0.40000000 0.40000000
v 0.09765625 0.19140625 -0.09765625 0.40000000 0.40000000 0.40000000
v 0.09765625 0.19140625 0.05859375 0.40000000 0.40000000 0.40000000
v 0.09765625 0.21484375 -0.09765625 0.40000000 0.40000000 0.40000000
v 0.09765625 0.21484375 0.05859375 0.40000000 0.40000000 0.40000000
v 0.10546875 0.01171875 -0.09765625 0.40000000 0.40000000 0.40000000
v 0.10546875 0.01171875 -0.08984375 0.40000000 0.40000000 0.40000000
v 0.10546875 0.09765625 -0.09765625 0.40000000 0.40000000 0.40000000
v 0.10546875 0.09765625 -0.08984375 0.40000000 0.40000000 0.40000000
v 0.10546875 0.18359375 -0.09765625 0.40000000 0.40000000 0.40000000
v 0.10546875 0.18359375 -0.08984375 0.40000000 0.40000000 0.40000000
v 0.10546875 0.19140625 -0.09765625 0.40000000 0.40000000 0.40000000
v 0.10546875 0.19140625 -0.08984375 0.40000000 0.40000000 0.40000000
v 0.10546875 0.21484375 -0.09765625 0.40000000 0.40000000 0.40000000
v 0.10546875 0.21484375 -0.08984375 0.40000000 0.40000000 0.40000000
v 0.11328125 0.01171875 -0.09765625 0.40000000 0.40000000 0.40000000
v 0.11328125 0.01171875 -0.08984375 0.40000000 0.40000000 0.40000000
v 0.11328125 0.01171875 0.08984375 0.40000000 0.40000000 0.40000000
v 0.11328125 0.01171875 0.09765625 0.40000000 0.40000000 0.40000000
v 0.11328125 0.09765625 -0.09765625 0.40000000 0.40000000 0.40000000
v 0.11328125 0.09765625 -0.08984375 0.40000000 0.40000000 0.40000000
v 0.11328125 0.10546875 -0.09765625 0.40000000 0.40000000 0.40000000
v 0.11328125 0.10546875 0.05859375 0.40000000 0.40000000 0.40000000
v 0.11328125 0.17578125 -0.09765625 0.40000000 0.40000000 0.40000000
v 0.11328125 0.17578125 0.05859375 0.40000000 0.40000000 0.40000000
v 0.11328125 0.18359375 -0.09765625 0.40000000 0.40000000 0.40000000
v 0.11328125 0.18359375 -0.08984375 0.40000000 0.40000000 0.40000000
v 0.11328125 0.19140625 -0.09765625 0.40000000 0.40000000 0.40000000
v 0.11328125 0.19140625 -0.08984375 0.40000000 0.40000000 0.40000000
v 0.11328125 0.19140625 0.08984375 0.40000000 0.40000000 0.40000000
v 0.11328125 0.19140625 0.09765625 0.40000000 0.40000000 0.40000000
v 0.12109375 0.19921875 -0.09765625 0.40000000 0.40000000 0.40000000
v 0.12109375 0.19921875 0.09765625 0.40000000 0.40000000 0.40000000
v 0.12109375 0.21484375 -0.09765625 0.40000000 0.40000000 0.40000000
v 0.12109375 0.21484375 -0.08984375 0.40000000 0.40000000 0.40000000
v 0.12109375 0.21484375 0.08984375 0.40000000 0.40000000 0.40000000
v 0.12109375 0.21484375 0.09765625 0.40000000 0.40000000 0.40000000
v 0.13671875 0.03515625 -0.09765625 0.40000000 0.40000000 0.40000000
v 0.13671875 0.03515625 0.09765625 0.40000000 0.40000000 0.40000000
v 0.13671875 0.10546875 -0.09765625 0.40000000 0.40000000 0.40000000
v 0.13671875 0.10546875 0.05859375 0.40000000 0.40000000 0.40000000
v 0.13671875 0.17578125 -0.09765625 0.40000000 0.40000000 0.40000000
v 0.13671875 0.17578125 0.05859375 0.40000000 0.40000000 0.40000000
v 0.13671875 0.19140625 -0.09765625 0.40000000 0.40000000 0.40000000
v 0.13671875 0.19140625 0.09765625 0.40000000 0.40000000 0.40000000
v 0.22265625 -0.33984375 -0.09765625 0.40000000 0.40000000 0.40000000
v 0.22265625 -0.33984375 0.05859375 0.40000000 0.40000000 0.40000000
v 0.22265625 -0.31640625 -0.09765625 0.40000000 0.40000000 0.40000000
v 0.22265625 -0.31640625 -0.08984375 0.40000000 0.40000000 0.40000000
v 0.22265625 -0.31640625 0.05859375 0.40000000 0.40000000 0.40000000
v 0.30859375 0.48046875 0.08984375 0.40000000 0.40000000 0.40000000
v 0.30859375 0.48046875 0.09765625 0.40000000 0.40000000 0.40000000
v 0.33203125 -0.09765625 -0.09765625 0.40000000 0.40000000 0.40000000
v 0.33203125 -0.09765625 -0.08984375 0.40000000 0.40000000 0.40000000
v 0.33203125 -0.09765625 0.08984375 0.40000000 0.40000000 0.40000000
v 0.33203125 -0.09765625 0.09765625 0.40000000 0.40000000 0.40000000
v 0.33203125 0.01171875 -0.09765625 0.40000000 0.40000000 0.40000000
v 0.33203125 0.01171875 -0.08984375 0.40000000 0.40000000 0.40000000
v 0.33203125 0.01171875 0.08984375 0.40000000 0.40000000 0.40000000
v 0.33203125 0.01171875 0.09765625 0.40000000 0.40000000 0.40000000
v 0.33203125 0.03515625 -0.09765625 0.40000000 0.40000000 0.40000000
v 0.33203125 0.03515625 0.09765625 0.40000000 0.40000000 0.40000000
v 0.33203125 0.19140625 -0.09765625 0.40000000 0.40000000 0.40000000
v 0.33203125 0.19140625 0.09765625 0.40000000 0.40000000 0.40000000
v 0.33203125 0.21484375 -0.09765625 0.40000000 0.40000000 0.40000000
v 0.33203125 0.21484375 -0.08984375 0.40000000 0.40000000 0.40000000
v 0.33203125 0.21484375 0.08984375 0.40000000 0.40000000 0.40000000
v 0.33203125 0.21484375 0.09765625 0.40000000 0.40000000 0.40000000
v 0.33203125 0.22265625 -0.03515625 0.40000000 0.40000000 0.40000000
v 0.33203125 0.22265625 0.06640625 0.40000000 0.40000000 0.40000000
v 0.33203125 0.44921875 -0.03515625 0.40000000 0.40000000 0.40000000
v 0.33203125 0.44921875 0.06640625 0.40000000 0.40000000 0.40000000
v 0.33203125 0.48046875 -0.09765625 0.40000000 0.40000000 0.40000000
v 0.33203125 0.48046875 -0.08984375 0.40000000 0.40000000 0.40000000
v 0.33203125 0.48046875 0.08984375 0.40000000 0.40000000 0.40000000
v 0.33203125 0.48046875 0.09765625 0.40000000 0.40000000 0.40000000
v 0.33984375 -0.48046875 -0.09765625 0.40000000 0.40000000 0.40000000
v 0.33984375 -0.48046875 0.09765625 0.40000000 0.40000000 0.40000000
v 0.33984375 -0.33984375 -0.09765625 0.40000000 0.40000000 0.40000000
v 0.33984375 -0.33984375 0.09765625 0.40000000 0.40000000 0.40000000
v 0.33984375 0.01953125 -0.09765625 0.40000000 0.40000000 0.40000000
v 0.33984375 0.01953125 0.09765625 0.40000000 0.40000000 0.40000000
v 0.33984375 0.19921875 -0.09765625 0.40000000 0.40000000 0.40000000
v 0.33984375 0.19921875 0.09765625 0.40000000 0.40000000 0.40000000
v 0.34765625 -0.33203125 -0.09765625 0.40000000 0.40000000 0.40000000
v 0.34765625 -0.33203125 0.09765625 0.40000000 0.40000000 0.40000000
v 0.34765625 -0.31640625 -0.09765625 0.40000000 0.40000000 0.40000000
v 0.34765625 -0.31640625 -0.08984375 0.40000000 0.40000000 0.40000000
v 0.34765625 -0.31640625 0.08984375 0.40000000 0.40000000 0.40000000
v 0.34765625 -0.31640625 0.09765625 0.40000000 0.40000000 0.40000000
v 0.35546875 -0.49609375 -0.09765625 0.40000000 0.40000000 0.40000000
v 0.35546875 -0.49609375 0.09765625 0.40000000 0.40000000 0.40000000
v 0.35546875 -0.33984375 -0.09765625 0.40000000 0.40000000 0.40000000
v 0.35546875 -0.33984375 0.09765625 0.40000000 0.40000000 0.40000000
v 0.35546875 -0.07421875 -0.09765625 0.40000000 0.40000000 0.40000000
v 0.35546875 -0.07421875 0.09765625 0.40000000 0.40000000 0.40000000
v 0.35546875 0.01953125 -0.09765625 0.40000000 0.40000000 0.40000000
v 0.35546875 0.01953125 0.09765625 0.40000000 0.40000000 0.40000000
v 0.35546875 0.19921875 -0.09765625 0.40000000 0.40000000 0.40000000
v 0.35546875 0.19921875 0.09765625 0.40000000 0.40000000 0.40000000
v 0.35546875 0.22265625 -0.03515625 0.40000000 0.40000000 0.40000000
v 0.35546875 0.22265625 0.06640625 0.40000000 0.40000000 0.40000000
v 0.35546875 0.44921875 -0.03515625 0.40000000 0.40000000 0.40000000
v 0.35546875 0.44921875 0.06640625 0.40000000 0.40000000 0.40000000
v 0.35546875 0.49609375 -0.09765625 0.40000000 0.40000000 0.40000000
v 0.35546875 0.49609375 0.09765625 0.40000000 0.40000000 0.40000000
v 0.38671875 -0.31640625 -0.09765625 0.40000000 0.40000000 0.40000000
v 0.38671875 -0.31640625 -0.08984375 0.40000000 0.40000000 0.40000000
v 0.38671875 -0.31640625 0.08984375 0.40000000 0.40000000 0.40000000
v 0.38671875 -0.31640625 0.09765625 0.40000000 0.40000000 0.40000000
v 0.38671875 -0.28515625 -0.09765625 0.40000000 0.40000000 0.40000000
v 0.38671875 -0.28515625 -0.08984375 0.40000000 0.40000000 0.40000000
v 0.38671875 -0.27734375 -0.09765625 0.40000000 0.40000000 0.40000000
v 0.38671875 -0.27734375 0.05859375 0.40000000 0.40000000 0.40000000
v 0.38671875 -0.16796875 -0.09765625 0.40000000 0.40000000 0.40000000
v 0.38671875 -0.16796875 -0.08984375 0.40000000 0.40000000 0.40000000
v 0.38671875 -0.16796875 0.05859375 0.40000000 0.40000000 0.40000000
v 0.38671875 -0.09765625 -0.09765625 0.40000000 0.40000000 0.40000000
v 0.38671875 -0.09765625 -0.08984375 0.40000000 0.40000000 0.40000000
v 0.38671875 -0.09765625 0.08984375 0.40000000 0.40000000 0.40000000
v 0.38671875 -0.09765625 0.09765625 0.40000000 0.40000000 0.40000000
v 0.41015625 -0.33984375 -0.09765625 0.40000000 0.40000000 0.40000000
v 0.41015625 -0.33984375 0.09765625 0.40000000 0.40000000 0.40000000
v 0.41015625 -0.27734375 -0.09765625 0.40000000 0.40000000 0.40000000
v 0.41015625 -0.27734375 0.05859375 0.40000000 0.40000000 0.40000000
v 0.41015625 -0.16796875 -0.09765625 0.40000000 0.40000000 0.40000000
v 0.41015625 -0.16796875 0.05859375 0.40000000 0.40000000 0.40000000
v 0.41015625 -0.07421875 -0.09765625 0.40000000 0.40000000 0.40000000
v 0.41015625 -0.07421875 0.09765625 0.40000000 0.40000000 0.40000000
v -0.30078125 -0.31640625 -0.09765625 0.00000000 0.54901961 1.00000000
v -0.02734375 -0.31640625 -0.09765625 0.00000000 0.54901961 1.00000000
v -0.02734375 -0.23828125 -0.09765625 0.00000000 0.54901961 1.00000000
v -0.30078125 -0.23828125 -0.09765625 0.00000000 0.54901961 1.00000000
v -0.30078125 -0.31640625 -0.02734375 0.00000000 0.54901961 1.00000000
v -0.02734375 -0.31640625 -0.02734375 0.00000000 0.54901961 1.00000000
v -0.02734375 -0.23828125 -0.02734375 0.00000000 0.54901961 1.00000000
v -0.30078125 -0.23828125 -0.02734375 0.00000000 0.54901961 1.00000000
v 0.10546875 -0.22265625 -0.09765625 0.78431373 0.39215686 0.78431373
v 0.16796875 -0.22265625 -0.09765625 0.78431373 0.39215686 0.78431373
v 0.16796875 -0.13671875 -0.09765625 0.78431373 0.39215686 0.78431373
v 0.10546875 -0.13671875 -0.09765625 0.78431373 0.39215686 0.78431373
v 0.10546875 -0.22265625 -0.05859375 0.78431373 0.39215686 0.78431373
v 0.16796875 -0.22265625 -0.05859375 0.78431373 0.39215686 0.78431373
v 0.16796875 -0.13671875 -0.05859375 0.78431373 0.39215686 0.78431373
v 0.10546875 -0.13671875 -0.05859375 0.78431373 0.39215686 0.78431373
v 0.19140625 -0.22265625 -0.09765625 0.78431373 0.39215686 0.78431373
v 0.24609375 -0.22265625 -0.09765625 0.78431373 0.39215686 0.78431373
v 0.24609375 -0.13671875 -0.09765625 0.78431373 0.39215686 0.78431373
v 0.19140625 -0.13671875 -0.09765625 0.78431373 0.39215686 0.78431373
v 0.19140625 -0.22265625 -0.05859375 0.78431373 0.39215686 0.78431373
v 0.24609375 -0.22265625 -0.05859375 0.78431373 0.39215686 0.78431373
v 0.24609375 -0.13671875 -0.05859375 0.78431373 0.39215686 0.78431373
v 0.19140625 -0.13671875 -0.05859375 0.78431373 0.39215686 0.78431373
v -0.05859375 -0.19921875 -0.09765625 0.78431373 0.39215686 0.78431373
v 0.04296875 -0.19921875 -0.09765625 0.78431373 0.39215686 0.78431373
v 0.04296875 -0.09765625 -0.09765625 0.78431373 0.39215686 0.78431373
v -0.05859375 -0.09765625 -0.09765625 0.78431373 0.39215686 0.78431373
v -0.05859375 -0.19921875 -0.05859375 0.78431373 0.39215686 0.78431373
v 0.04296875 -0.19921875 -0.05859375 0.78431373 0.39215686 0.78431373
v 0.04296875 -0.09765625 -0.05859375 0.78431373 0.39215686 0.78431373
v -0.05859375 -0.09765625 -0.05859375 0.78431373 0.39215686 0.78431373
v -0.23828125 -0.16015625 -0.09765625 0.70588235 0.50980392 0.27450980
v -0.15234375 -0.16015625 -0.09765625 0.70588235 0.50980392 0.27450980
v -0.15234375 -0.12109375 -0.09765625 0.70588235 0.50980392 0.27450980
v -0.23828125 -0.12109375 -0.09765625 0.70588235 0.50980392 0.27450980
v -0.23828125 -0.16015625 -0.04296875 0.70588235 0.50980392 0.27450980
v -0.15234375 -0.16015625 -0.04296875 0.70588235 0.50980392 0.27450980
v -0.15234375 -0.12109375 -0.04296875 0.70588235 0.50980392 0.27450980
v -0.23828125 -0.12109375 -0.04296875 0.70588235 0.50980392 0.27450980
v 0.09765625 -0.14453125 -0.09765625 0.78431373 0.78431373 0.31372549
v 0.30078125 -0.14453125 -0.09765625 0.78431373 0.78431373 0.31372549
v 0.30078125 -0.07421875 -0.09765625 0.78431373 0.78431373 0.31372549
v 0.09765625 -0.07421875 -0.09765625 0.78431373 0.78431373 0.31372549
v 0.09765625 -0.14453125 -0.02734375 0.78431373 0.78431373 0.31372549
v 0.30078125 -0.14453125 -0.02734375 0.78431373 0.78431373 0.31372549
v 0.30078125 -0.07421875 -0.02734375 0.78431373 0.78431373 0.31372549
v 0.09765625 -0.07421875 -0.02734375 0.78431373 0.78431373 0.31372549
v -0.28515625 0.11328125 -0.09765625 0.31372549 0.78431373 0.94117647
v -0.11328125 0.11328125 -0.09765625 0.31372549 0.78431373 0.94117647
v -0.11328125 0.30859375 -0.09765625 0.31372549 0.78431373 0.94117647
v -0.28515625 0.30859375 -0.09765625 0.31372549 0.78431373 0.94117647
v -0.28515625 0.11328125 0.07421875 0.31372549 0.78431373 0.94117647
v -0.11328125 0.11328125 0.07421875 0.31372549 0.78431373 0.94117647
v -0.11328125 0.30859375 0.07421875 0.31372549 0.78431373 0.94117647
v -0.28515625 0.30859375 0.07421875 0.31372549 0.78431373 0.94117647
v 0.09765625 0.29296875 -0.09765625 0.31372549 0.78431373 0.94117647
v 0.29296875 0.29296875 -0.09765625 0.31372549 0.78431373 0.94117647
v 0.29296875 0.37109375 -0.09765625 0.31372549 0.78431373 0.94117647
v 0.09765625 0.37109375 -0.09765625 0.31372549 0.78431373 0.94117647
v 0.09765625 0.29296875 0.08203125 0.31372549 0.78431373 0.94117647
v 0.29296875 0.29296875 0.08203125 0.31372549 0.78431373 0.94117647
v 0.29296875 0.37109375 0.08203125 0.31372549 0.78431373 0.94117647
v 0.09765625 0.37109375 0.08203125 0.31372549 0.78431373 0.94117647
v -0.34765625 0.28515625 -0.09765625 0.70588235 0.50980392 0.27450980
v -0.30078125 0.28515625 -0.09765625 0.70588235 0.50980392 0.27450980
v -0.30078125 0.32421875 -0.09765625 0.70588235 0.50980392 0.27450980
v -0.34765625 0.32421875 -0.09765625 0.70588235 0.50980392 0.27450980
v -0.34765625 0.28515625 -0.06640625 0.70588235 0.50980392 0.27450980
v -0.30078125 0.28515625 -0.06640625 0.70588235 0.50980392 0.27450980
v -0.30078125 0.32421875 -0.06640625 0.70588235 0.50980392 0.27450980
v -0.34765625 0.32421875 -0.06640625 0.70588235 0.50980392 0.27450980
v 0.18359375 -0.14453125 0.05078125 0.19607843 0.78431373 1.00000000
v 0.22265625 -0.14453125 0.05078125 0.19607843 0.78431373 1.00000000
v 0.22265625 -0.09765625 0.05078125 0.19607843 0.78431373 1.00000000
v 0.18359375 -0.09765625 0.05078125 0.19607843 0.78431373 1.00000000
v 0.18359375 -0.14453125 0.08203125 0.19607843 0.78431373 1.00000000
v 0.22265625 -0.14453125 0.08203125 0.19607843 0.78431373 1.00000000
v 0.22265625 -0.09765625 0.08203125 0.19607843 0.78431373 1.00000000
v 0.18359375 -0.09765625 0.08203125 0.19607843 0.78431373 1.00000000
f 41 231 232
f 41 232 42
f 232 231 234
f 231 41 217
f 41 42 43
f 42 232 218
f 232 234 218
f 234 231 233
f 231 217 233
f 217 41 55
f 41 43 45
f 43 42 44
f 42 218 56
f 218 234 220
f 234 233 263
f 233 217 219
f 217 55 56
f 55 41 61
f 41 45 47
f 45 43 59
f 43 44 58
f 44 42 46
f 42 56 62
f 56 218 217
f 218 220 219
f 220 234 226
f 234 263 226
f 263 233 262
f 233 219 225
f 219 217 218
f 56 55 58
f 55 217 61
f 55 61 57
f 61 41 47
f 47 45 46
f 45 59 46
f 59 43 57
f 43 58 57
f 58 44 46
f 46 42 48
f 42 62 48
f 62 56 58
f 219 220 186
f 220 226 62
f 226 263 250
f 263 262 265
f 262 233 225
f 225 219 186
f 217 219 61
f 58 55 57
f 57 61 59
f 61 47 49
f 47 46 48
f 46 59 60
f 58 46 60
f 48 62 50
f 62 58 60
f 186 220 187
f 220 62 136
f 62 226 50
f 226 250 230
f 250 263 261
f 263 265 269
f 265 262 264
f 262 225 247
f 225 186 227
f 59 61 62
f 61 49 135
f 49 47 1
f 47 48 1
f 60 59 62
f 48 50 2
f 186 187 190
f 187 220 136
f 136 62 61
f 50 226 230
f 261 263 269
f 269 265 267
f 265 264 253
f 264 262 247
f 247 225 227
f 227 186 188
f 61 135 136
f 135 49 137
f 49 1 51
f 1 48 2
f 2 50 54
f 186 190 188
f 190 187 136
f 50 230 54
f 261 269 196
f 269 267 266
f 267 265 257
f 265 253 254
f 253 264 247
f 253 264 266
f 247 227 228
f 247 227 229
f 227 188 189
f 227 188 190
f 136 135 137
f 137 49 51
f 51 1 17
f 1 2 3
f 2 54 20
f 186 188 135
f 190 136 139
f 196 269 236
f 269 266 268
f 266 267 257
f 257 265 254
f 254 253 249
f 253 247 249
f 253 266 255
f 247 228 248
f 228 227 189
f 247 229 249
f 229 227 190
f 136 137 139
f 137 135 188
f 51 17 18
f 51 17 19
f 17 1 25
f 1 3 5
f 3 2 4
f 2 20 28
f 190 139 102
f 196 236 200
f 236 269 268
f 268 266 258
f 266 257 255
f 257 254 249
f 247 248 251
f 229 190 102
f 139 137 102
f 51 18 52
f 18 17 26
f 51 19 53
f 19 17 22
f 17 25 21
f 17 25 26
f 25 1 15
f 1 5 7
f 5 3 23
f 3 4 22
f 4 2 6
f 2 28 16
f 196 200 197
f 200 236 238
f 236 268 235
f 268 258 193
f 258 266 255
f 255 257 258
f 257 249 260
f 251 248 252
f 102 137 100
f 51 52 133
f 19 22 27
f 22 17 21
f 21 25 23
f 25 17 193
f 26 25 105
f 25 15 104
f 15 1 7
f 7 5 6
f 5 23 6
f 23 3 21
f 3 22 21
f 22 4 6
f 6 2 8
f 2 16 8
f 16 28 107
f 196 197 193
f 200 238 222
f 238 236 235
f 235 268 193
f 193 258 195
f 193 258 259
f 258 255 256
f 258 257 260
f 133 52 134
f 27 22 24
f 23 25 27
f 25 193 104
f 193 17 247
f 105 25 104
f 104 15 73
f 15 7 29
f 7 6 8
f 6 23 24
f 22 6 24
f 8 16 32
f 16 107 76
f 193 197 235
f 193 197 156
f 200 222 159
f 222 238 202
f 238 235 237
f 195 258 260
f 258 193 247
f 193 259 194
f 259 258 256
f 27 24 23
f 104 193 156
f 105 104 109
f 104 73 110
f 73 15 29
f 29 7 37
f 7 8 9
f 8 32 40
f 32 16 76
f 76 107 116
f 235 197 237
f 197 193 194
f 156 197 199
f 159 222 202
f 202 238 204
f 238 237 240
f 104 156 114
f 109 104 108
f 104 110 106
f 110 73 79
f 73 29 31
f 29 37 33
f 29 37 38
f 37 7 13
f 7 9 11
f 9 8 10
f 8 40 14
f 76 116 97
f 237 197 221
f 197 194 198
f 156 199 158
f 197 156 198
f 197 156 221
f 159 202 179
f 202 204 203
f 204 238 240
f 240 237 239
f 114 156 168
f 106 110 111
f 110 79 111
f 79 73 75
f 73 31 75
f 31 29 33
f 29 73 84
f 29 73 30
f 33 37 35
f 37 29 84
f 29 38 30
f 38 37 89
f 37 13 92
f 13 7 11
f 11 9 35
f 9 10 34
f 10 8 12
f 8 14 12
f 14 40 93
f 76 97 87
f 97 116 173
f 237 221 201
f 197 198 146
f 156 158 162
f 198 156 157
f 221 156 201
f 159 179 185
f 179 202 201
f 202 203 201
f 203 204 184
f 204 240 224
f 240 239 242
f 239 237 203
f 106 111 115
f 111 79 80
f 79 110 112
f 79 75 80
f 31 33 34
f 29 30 63
f 30 73 74
f 33 35 9
f 35 37 39
f 37 84 88
f 89 37 88
f 37 92 98
f 92 13 14
f 13 11 12
f 11 35 12
f 9 34 33
f 34 10 12
f 12 14 13
f 14 93 92
f 93 40 99
f 87 97 120
f 97 173 177
f 173 116 171
f 237 201 203
f 146 198 147
f 156 162 180
f 162 158 163
f 157 156 160
f 201 156 178
f 159 185 171
f 185 179 181
f 179 201 178
f 201 203 184
f 203 184 223
f 184 204 185
f 204 224 185
f 224 240 208
f 240 242 246
f 242 239 241
f 239 203 223
f 115 111 113
f 111 80 83
f 79 112 81
f 80 75 83
f 31 34 39
f 63 30 64
f 74 73 77
f 35 39 36
f 39 37 88
f 88 84 69
f 88 84 86
f 88 37 98
f 98 92 121
f 12 35 36
f 34 12 36
f 92 93 94
f 93 99 124
f 99 40 91
f 87 120 91
f 120 97 177
f 177 173 208
f 173 171 185
f 146 147 148
f 156 180 178
f 180 162 181
f 162 163 181
f 163 158 165
f 157 160 161
f 160 156 148
f 185 181 183
f 181 179 178
f 178 201 184
f 223 184 172
f 184 185 182
f 185 224 173
f 224 208 173
f 208 240 216
f 240 246 216
f 246 242 244
f 242 241 209
f 241 239 245
f 239 223 205
f 115 113 112
f 113 111 83
f 81 112 83
f 83 75 86
f 39 34 36
f 63 64 65
f 74 77 78
f 77 73 63
f 39 88 90
f 88 69 71
f 69 84 67
f 84 88 117
f 84 88 85
f 88 86 90
f 86 84 83
f 88 98 121
f 121 92 125
f 92 94 125
f 94 93 95
f 93 124 128
f 124 99 91
f 91 120 124
f 146 148 156
f 148 147 149
f 178 180 181
f 162 180 182
f 181 163 165
f 165 158 170
f 157 161 149
f 185 183 182
f 183 181 165
f 223 172 205
f 172 184 168
f 184 182 164
f 208 216 212
f 216 246 128
f 246 244 243
f 244 242 212
f 242 209 210
f 209 241 243
f 241 245 243
f 245 239 213
f 239 205 213
f 115 112 114
f 112 113 83
f 81 83 84
f 112 81 114
f 63 65 77
f 65 64 66
f 74 78 64
f 71 69 70
f 69 67 68
f 67 84 81
f 84 69 70
f 84 69 85
f 84 117 96
f 117 88 121
f 84 85 82
f 85 88 89
f 121 125 127
f 121 125 126
f 125 94 245
f 94 95 245
f 95 93 128
f 149 147 157
f 162 182 164
f 165 170 164
f 182 183 165
f 205 172 174
f 172 168 142
f 168 184 164
f 164 182 165
f 208 212 210
f 212 216 213
f 128 246 95
f 246 243 245
f 243 244 212
f 212 242 210
f 210 209 208
f 209 243 211
f 245 213 125
f 213 205 206
f 213 205 211
f 115 114 130
f 81 84 96
f 81 84 82
f 114 81 96
f 66 64 78
f 71 70 72
f 70 69 68
f 68 67 82
f 67 81 82
f 84 70 85
f 85 69 70
f 96 117 131
f 117 121 119
f 117 121 122
f 82 85 70
f 85 89 72
f 121 127 123
f 127 125 215
f 125 121 205
f 121 126 122
f 126 125 214
f 245 95 246
f 164 170 168
f 205 174 176
f 174 172 142
f 142 168 170
f 212 213 211
f 213 216 191
f 243 212 211
f 208 209 205
f 209 211 205
f 125 213 191
f 125 213 214
f 213 206 214
f 205 213 125
f 115 130 170
f 130 114 129
f 114 96 129
f 72 70 85
f 70 68 82
f 96 131 129
f 131 117 119
f 119 121 123
f 121 117 205
f 117 122 118
f 205 176 207
f 176 174 145
f 174 205 175
f 174 142 144
f 142 170 143
f 191 216 192
f 170 130 143
f 130 129 131
f 131 119 132
f 176 145 119
f 145 174 144
f 175 205 206
f 144 142 145
f 142 143 145
f 143 130 145
f 130 131 132
f 131 129 144
f 132 119 145
f 142 144 129
f 145 130 132
f 100 101 133
f 133 101 134
f 101 100 138
f 138 100 137
f 77 66 65
f 66 77 78
f 160 149 148
f 149 160 161
f 150 151 152
f 150 152 168
f 152 151 153
f 150 168 166
f 168 152 169
f 152 153 169
f 153 151 167
f 166 168 167
f 168 169 167
f 169 153 167
f 150 167 166
f 167 150 151
f 140 141 174
f 174 141 175
f 154 155 174
f 174 155 175
f 102 53 54
f 102 54 103
f 270 271 272
f 270 272 273
f 274 277 276
f 274 276 275
f 270 274 275
f 270 275 271
f 273 272 276
f 273 276 277
f 270 273 277
f 270 277 274
f 271 275 276
f 271 276 272
f 278 279 280
f 278 280 281
f 282 285 284
f 282 284 283
f 278 282 283
f 278 283 279
f 281 280 284
f 281 284 285
f 278 281 285
f 278 285 282
f 279 283 284
f 279 284 280
f 286 287 288
f 286 288 289
f 290 293 292
f 290 292 291
f 286 290 291
f 286 291 287
f 289 288 292
f 289 292 293
f 286 289 293
f 286 293 290
f 287 291 292
f 287 292 288
f 294 295 296
f 294 296 297
f 298 301 300
f 298 300 299
f 294 298 299
f 294 299 295
f 297 296 300
f 297 300 301
f 294 297 301
f 294 301 298
f 295 299 300
f 295 300 296
f 302 303 304
f 302 304 305
f 306 309 308
f 306 308 307
f 302 306 307
f 302 307 303
f 305 304 308
f 305 308 309
f 302 305 309
f 302 309 306
f 303 307 308
f 303 308 304
f 310 311 312
f 310 312 313
f 314 317 316
f 314 316 315
f 310 314 315
f 310 315 311
f 313 312 316
f 313 316 317
f 310 313 317
f 310 317 314
f 311 315 316
f 311 316 312
f 318 319 320
f 318 320 321
f 322 325 324
f 322 324 323
f 318 322 323
f 318 323 319
f 321 320 324
f 321 324 325
f 318 321 325
f 318 325 322
f 319 323 324
f 319 324 320
f 326 327 328
f 326 328 329
f 330 333 332
f 330 332 331
f 326 330 331
f 326 331 327
f 329 328 332
f 329 332 333
f 326 329 333
f 326 333 330
f 327 331 332
f 327 332 328
f 334 335 336
f 334 336 337
f 338 341 340
f 338 340 339
f 334 338 339
f 334 339 335
f 337 336 340
f 337 340 341
f 334 337 341
f 334 341 338
f 335 339 340
f 335 340 336
f 342 343 344
f 342 344 345
f 346 349 348
f 346 348 347
f 342 346 347
f 342 347 343
f 345 344 348
f 345 348 349
f 342 345 349
f 342 349 346
f 343 347 348
f 343 348 344

