# https://github.com/mikedh/trimesh
v -0.33203125 -0.34765625 -0.08984375 0.40000000 0.40000000 0.40000000
v -0.33203125 -0.34765625 0.08984375 0.40000000 0.40000000 0.40000000
v -0.33203125 -0.14453125 -0.08984375 0.40000000 0.40000000 0.40000000
v -0.33203125 -0.14453125 0.05859375 0.40000000 0.40000000 0.40000000
v -0.33203125 -0.08203125 -0.08984375 0.40000000 0.40000000 0.40000000
v -0.33203125 -0.08203125 0.05859375 0.40000000 0.40000000 0.40000000
v -0.33203125 -0.07421875 -0.08984375 0.40000000 0.40000000 0.40000000
v -0.33203125 -0.07421875 0.05859375 0.40000000 0.40000000 0.40000000
v -0.33203125 -0.02734375 -0.08984375 0.40000000 0.40000000 0.40000000
v -0.33203125 -0.02734375 0.08984375 0.40000000 0.40000000 0.40000000
v -0.33203125 0.23828125 -0.08984375 0.40000000 0.40000000 0.40000000
v -0.33203125 0.23828125 0.08984375 0.40000000 0.40000000 0.40000000
v -0.31640625 -0.02734375 -0.08984375 0.40000000 0.40000000 0.40000000
v -0.31640625 -0.02734375 0.08984375 0.40000000 0.40000000 0.40000000
v -0.30859375 -0.32421875 -0.08984375 0.40000000 0.40000000 0.40000000
v -0.30859375 -0.32421875 -0.08203125 0.40000000 0.40000000 0.40000000
v -0.30859375 -0.32421875 0.07421875 0.40000000 0.40000000 0.40000000
v -0.30859375 -0.32421875 0.08984375 0.40000000 0.40000000 0.40000000
v -0.30859375 -0.15234375 -0.08984375 0.40000000 0.40000000 0.40000000
v -0.30859375 -0.15234375 -0.08203125 0.40000000 0.40000000 0.40000000
v -0.30859375 -0.14453125 -0.08984375 0.40000000 0.40000000 0.40000000
v -0.30859375 -0.14453125 0.05859375 0.40000000 0.40000000 0.40000000
v -0.30859375 -0.08203125 -0.08984375 0.40000000 0.40000000 0.40000000
v -0.30859375 -0.08203125 -0.08203125 0.40000000 0.40000000 0.40000000
v -0.30859375 -0.08203125 0.05859375 0.40000000 0.40000000 0.40000000
v -0.30859375 -0.07421875 -0.08984375 0.40000000 0.40000000 0.40000000
v -0.30859375 -0.07421875 0.05859375 0.40000000 0.40000000 0.40000000
v -0.30859375 -0.03515625 -0.08984375 0.40000000 0.40000000 0.40000000
v -0.30859375 -0.03515625 -0.08203125 0.40000000 0.40000000 0.40000000
v -0.30859375 -0.03515625 0.07421875 0.40000000 0.40000000 0.40000000
v -0.30859375 -0.03515625 0.08984375 0.40000000 0.40000000 0.40000000
v -0.30859375 -0.01953125 -0.08984375 0.40000000 0.40000000 0.40000000
v -0.30859375 -0.01953125 0.08984375 0.40000000 0.40000000 0.40000000
v -0.30859375 0.22265625 -0.08984375 0.40000000 0.40000000 0.40000000
v -0.30859375 0.22265625 0.08984375 0.40000000 0.40000000 0.40000000
v -0.26171875 -0.34765625 -0.02734375 0.40000000 0.40000000 0.40000000
v -0.26171875 -0.34765625 0.05859375 0.40000000 0.40000000 0.40000000
v -0.26171875 -0.32421875 -0.02734375 0.40000000 0.40000000 0.40000000
v -0.26171875 -0.32421875 0.05859375 0.40000000 0.40000000 0.40000000
v -0.19921875 -0.01953125 -0.08984375 0.40000000 0.40000000 0.40000000
v -0.19921875 -0.01953125 0.08984375 0.40000000 0.40000000 0.40000000
v -0.19921875 0.05859375 -0.08984375 0.40000000 0.40000000 0.40000000
v -0.19921875 0.05859375 0.05078125 0.40000000 0.40000000 0.40000000
v -0.19921875 0.12109375 -0.08984375 0.40000000 0.40000000 0.40000000
v -0.19921875 0.12109375 0.05078125 0.40000000 0.40000000 0.40000000
v -0.19921875 0.22265625 -0.08984375 0.40000000 0.40000000 0.40000000
v -0.19921875 0.22265625 0.08984375 0.40000000 0.40000000 0.40000000
v -0.19921875 0.23828125 -0.08984375 0.40000000 0.40000000 0.40000000
v -0.19921875 0.23828125 0.08984375 0.40000000 0.40000000 0.40000000
v -0.19921875 0.49609375 -0.08984375 0.40000000 0.40000000 0.40000000
v -0.19921875 0.49609375 0.08984375 0.40000000 0.40000000 0.40000000
v -0.19140625 -0.34765625 -0.02734375 0.40000000 0.40000000 0.40000000
v -0.19140625 -0.34765625 0.05859375 0.40000000 0.40000000 0.40000000
v -0.19140625 -0.32421875 -0.02734375 0.40000000 0.40000000 0.40000000
v -0.19140625 -0.32421875 0.05859375 0.40000000 0.40000000 0.40000000
v -0.19140625 -0.03515625 -0.08984375 0.40000000 0.40000000 0.40000000
v -0.19140625 -0.03515625 -0.08203125 0.40000000 0.40000000 0.40000000
v -0.19140625 -0.03515625 0.07421875 0.40000000 0.40000000 0.40000000
v -0.19140625 -0.03515625 0.08984375 0.40000000 0.40000000 0.40000000
v -0.19140625 -0.02734375 -0.08984375 0.40000000 0.40000000 0.40000000
v -0.19140625 -0.02734375 0.08984375 0.40000000 0.40000000 0.40000000
v -0.19140625 0.23046875 -0.08984375 0.40000000 0.40000000 0.40000000
v -0.19140625 0.23046875 0.08984375 0.40000000 0.40000000 0.40000000
v -0.18359375 -0.34765625 -0.08984375 0.40000000 0.40000000 0.40000000
v -0.18359375 -0.34765625 0.08984375 0.40000000 0.40000000 0.40000000
v -0.18359375 -0.32421875 -0.08984375 0.40000000 0.40000000 0.40000000
v -0.18359375 -0.32421875 -0.08203125 0.40000000 0.40000000 0.40000000
v -0.18359375 -0.32421875 0.07421875 0.40000000 0.40000000 0.40000000
v -0.18359375 -0.32421875 0.08984375 0.40000000 0.40000000 0.40000000
v -0.18359375 -0.03515625 -0.08984375 0.40000000 0.40000000 0.40000000
v -0.18359375 -0.03515625 -0.08203125 0.40000000 0.40000000 0.40000000
v -0.18359375 -0.01953125 -0.08984375 0.40000000 0.40000000 0.40000000
v -0.18359375 -0.01953125 -0.08203125 0.40000000 0.40000000 0.40000000
v -0.18359375 -0.01953125 0.07421875 0.40000000 0.40000000 0.40000000
v -0.18359375 -0.01953125 0.08984375 0.40000000 0.40000000 0.40000000
v -0.18359375 0.05859375 -0.08984375 0.40000000 0.40000000 0.40000000
v -0.18359375 0.05859375 0.05078125 0.40000000 0.40000000 0.40000000
v -0.18359375 0.06640625 -0.08984375 0.40000000 0.40000000 0.40000000
v -0.18359375 0.06640625 -0.08203125 0.40000000 0.40000000 0.40000000
v -0.18359375 0.12109375 -0.08984375 0.40000000 0.40000000 0.40000000
v -0.18359375 0.12109375 0.05078125 0.40000000 0.40000000 0.40000000
v -0.18359375 0.22265625 -0.08984375 0.40000000 0.40000000 0.40000000
v -0.18359375 0.22265625 0.07421875 0.40000000 0.40000000 0.40000000
v -0.18359375 0.22265625 0.08984375 0.40000000 0.40000000 0.40000000
v -0.18359375 0.23828125 -0.08984375 0.40000000 0.40000000 0.40000000
v -0.18359375 0.23828125 -0.08203125 0.40000000 0.40000000 0.40000000
v -0.18359375 0.23828125 0.07421875 0.40000000 0.40000000 0.40000000
v -0.18359375 0.23828125 0.08984375 0.40000000 0.40000000 0.40000000
v -0.18359375 0.24609375 -0.08984375 0.40000000 0.40000000 0.40000000
v -0.18359375 0.24609375 -0.08203125 0.40000000 0.40000000 0.40000000
v -0.18359375 0.48046875 -0.08984375 0.40000000 0.40000000 0.40000000
v -0.18359375 0.48046875 -0.08203125 0.40000000 0.40000000 0.40000000
v -0.18359375 0.48046875 0.07421875 0.40000000 0.40000000 0.40000000
v -0.18359375 0.48046875 0.08984375 0.40000000 0.40000000 0.40000000
v -0.17578125 -0.03515625 -0.08984375 0.40000000 0.40000000 0.40000000
v -0.17578125 -0.03515625 0.05859375 0.40000000 0.40000000 0.40000000
v -0.17578125 -0.01953125 -0.08984375 0.40000000 0.40000000 0.40000000
v -0.17578125 -0.01953125 0.05859375 0.40000000 0.40000000 0.40000000
v -0.17578125 0.22265625 -0.08984375 0.40000000 0.40000000 0.40000000
v -0.17578125 0.22265625 0.05078125 0.40000000 0.40000000 0.40000000
v -0.17578125 0.23828125 -0.08984375 0.40000000 0.40000000 0.40000000
v -0.17578125 0.23828125 -0.08203125 0.40000000 0.40000000 0.40000000
v -0.17578125 0.23828125 0.05078125 0.40000000 0.40000000 0.40000000
v -0.17578125 0.24609375 -0.08984375 0.40000000 0.40000000 0.40000000
v -0.17578125 0.24609375 -0.08203125 0.40000000 0.40000000 0.40000000
v -0.16015625 0.48046875 0.07421875 0.40000000 0.40000000 0.40000000
v -0.11328125 0.22265625 -0.08984375 0.40000000 0.40000000 0.40000000
v -0.11328125 0.22265625 0.05078125 0.40000000 0.40000000 0.40000000
v -0.11328125 0.23828125 -0.08984375 0.40000000 0.40000000 0.40000000
v -0.11328125 0.23828125 0.05078125 0.40000000 0.40000000 0.40000000
v -0.10546875 -0.03515625 -0.08984375 0.40000000 0.40000000 0.40000000
v -0.10546875 -0.03515625 -0.08203125 0.40000000 0.40000000 0.40000000
v -0.10546875 -0.03515625 0.05859375 0.40000000 0.40000000 0.40000000
v -0.10546875 -0.01953125 -0.08984375 0.40000000 0.40000000 0.40000000
v -0.10546875 -0.01953125 0.05859375 0.40000000 0.40000000 0.40000000
v -0.10546875 -0.01953125 0.07421875 0.40000000 0.40000000 0.40000000
v -0.10546875 -0.01953125 0.08984375 0.40000000 0.40000000 0.40000000
v -0.10546875 -0.01171875 -0.08984375 0.40000000 0.40000000 0.40000000
v -0.10546875 -0.01171875 0.05078125 0.40000000 0.40000000 0.40000000
v -0.10546875 0.05859375 -0.08984375 0.40000000 0.40000000 0.40000000
v -0.10546875 0.05859375 0.05078125 0.40000000 0.40000000 0.40000000
v -0.10546875 0.22265625 -0.08984375 0.40000000 0.40000000 0.40000000
v -0.10546875 0.22265625 0.07421875 0.40000000 0.40000000 0.40000000
v -0.10546875 0.22265625 0.08984375 0.40000000 0.40000000 0.40000000
v -0.10546875 0.23828125 -0.08984375 0.40000000 0.40000000 0.40000000
v -0.10546875 0.23828125 -0.08203125 0.40000000 0.40000000 0.40000000
v -0.10546875 0.24609375 -0.08984375 0.40000000 0.40000000 0.40000000
v -0.10546875 0.24609375 -0.08203125 0.40000000 0.40000000 0.40000000
v -0.09765625 -0.03515625 -0.08984375 0.40000000 0.40000000 0.40000000
v -0.09765625 -0.03515625 -0.08203125 0.40000000 0.40000000 0.40000000
v -0.09765625 -0.03515625 0.07421875 0.40000000 0.40000000 0.40000000
v -0.09765625 -0.03515625 0.08984375 0.40000000 0.40000000 0.40000000
v -0.09765625 -0.02734375 -0.08984375 0.40000000 0.40000000 0.40000000
v -0.09765625 -0.02734375 0.08984375 0.40000000 0.40000000 0.40000000
v -0.09765625 0.23046875 -0.08984375 0.40000000 0.40000000 0.40000000
v -0.09765625 0.23046875 0.08984375 0.40000000 0.40000000 0.40000000
v -0.09765625 0.23828125 -0.08984375 0.40000000 0.40000000 0.40000000
v -0.09765625 0.23828125 -0.08203125 0.40000000 0.40000000 0.40000000
v -0.09765625 0.23828125 0.07421875 0.40000000 0.40000000 0.40000000
v -0.09765625 0.23828125 0.08984375 0.40000000 0.40000000 0.40000000
v -0.09765625 0.24609375 -0.08984375 0.40000000 0.40000000 0.40000000
v -0.09765625 0.24609375 -0.08203125 0.40000000 0.40000000 0.40000000
v -0.08984375 -0.01953125 -0.08984375 0.40000000 0.40000000 0.40000000
v -0.08984375 -0.01953125 -0.08203125 0.40000000 0.40000000 0.40000000
v -0.08984375 -0.01953125 0.07421875 0.40000000 0.40000000 0.40000000
v -0.08984375 -0.01953125 0.08984375 0.40000000 0.40000000 0.40000000
v -0.08984375 -0.01171875 -0.08984375 0.40000000 0.40000000 0.40000000
v -0.08984375 -0.01171875 0.05078125 0.40000000 0.40000000 0.40000000
v -0.08984375 0.05859375 -0.08984375 0.40000000 0.40000000 0.40000000
v -0.08984375 0.05859375 0.05078125 0.40000000 0.40000000 0.40000000
v -0.08984375 0.06640625 -0.08984375 0.40000000 0.40000000 0.40000000
v -0.08984375 0.06640625 -0.08203125 0.40000000 0.40000000 0.40000000
v -0.08984375 0.22265625 -0.08984375 0.40000000 0.40000000 0.40000000
v -0.08984375 0.22265625 -0.08203125 0.40000000 0.40000000 0.40000000
v -0.08984375 0.22265625 0.07421875 0.40000000 0.40000000 0.40000000
v -0.08984375 0.22265625 0.08984375 0.40000000 0.40000000 0.40000000
v 0.15234375 -0.01953125 0.07421875 0.40000000 0.40000000 0.40000000
v 0.15234375 -0.01953125 0.08984375 0.40000000 0.40000000 0.40000000
v 0.15234375 0.22265625 0.07421875 0.40000000 0.40000000 0.40000000
v 0.15234375 0.22265625 0.08984375 0.40000000 0.40000000 0.40000000
v 0.15234375 0.23828125 0.07421875 0.40000000 0.40000000 0.40000000
v 0.15234375 0.23828125 0.08984375 0.40000000 0.40000000 0.40000000
v 0.15234375 0.48046875 0.07421875 0.40000000 0.40000000 0.40000000
v 0.15234375 0.48046875 0.08984375 0.40000000 0.40000000 0.40000000
v 0.16796875 -0.49609375 -0.08984375 0.40000000 0.40000000 0.40000000
v 0.16796875 -0.49609375 0.08984375 0.40000000 0.40000000 0.40000000
v 0.16796875 -0.34765625 -0.08984375 0.40000000 0.40000000 0.40000000
v 0.16796875 -0.34765625 0.08984375 0.40000000 0.40000000 0.40000000
v 0.16796875 -0.32421875 -0.08984375 0.29019608 0.43921569 0.55686275
v 0.16796875 -0.32421875 -0.08203125 0.40000000 0.40000000 0.40000000
v 0.16796875 -0.32421875 0.07421875 0.40000000 0.40000000 0.40000000
v 0.16796875 -0.32421875 0.08984375 0.40000000 0.40000000 0.40000000
v 0.16796875 -0.20703125 -0.08984375 0.40000000 0.40000000 0.40000000
v 0.16796875 -0.20703125 -0.08203125 0.40000000 0.40000000 0.40000000
v 0.16796875 -0.20703125 0.07421875 0.40000000 0.40000000 0.40000000
v 0.16796875 -0.20703125 0.08984375 0.40000000 0.40000000 0.40000000
v 0.16796875 -0.16796875 -0.08984375 0.40000000 0.40000000 0.40000000
v 0.16796875 -0.16796875 -0.08203125 0.40000000 0.40000000 0.40000000
v 0.16796875 -0.16015625 -0.08984375 0.40000000 0.40000000 0.40000000
v 0.16796875 -0.16015625 0.05859375 0.40000000 0.40000000 0.40000000
v 0.16796875 -0.05859375 -0.08984375 0.40000000 0.40000000 0.40000000
v 0.16796875 -0.05859375 -0.08203125 0.40000000 0.40000000 0.40000000
v 0.16796875 -0.05859375 0.05859375 0.40000000 0.40000000 0.40000000
v 0.16796875 -0.03515625 -0.08984375 0.40000000 0.40000000 0.40000000
v 0.16796875 -0.03515625 -0.08203125 0.40000000 0.40000000 0.40000000
v 0.16796875 -0.03515625 0.07421875 0.40000000 0.40000000 0.40000000
v 0.16796875 -0.03515625 0.08984375 0.40000000 0.40000000 0.40000000
v 0.16796875 -0.01953125 -0.08984375 0.40000000 0.40000000 0.40000000
v 0.16796875 -0.01953125 -0.08203125 0.40000000 0.40000000 0.40000000
v 0.16796875 -0.01953125 0.08984375 0.40000000 0.40000000 0.40000000
v 0.16796875 0.02734375 -0.07421875 0.40000000 0.40000000 0.40000000
v 0.16796875 0.02734375 0.07421875 0.40000000 0.40000000 0.40000000
v 0.16796875 0.15234375 -0.07421875 0.40000000 0.40000000 0.40000000
v 0.16796875 0.15234375 0.07421875 0.40000000 0.40000000 0.40000000
v 0.16796875 0.22265625 -0.08984375 0.40000000 0.40000000 0.40000000
v 0.16796875 0.22265625 -0.08203125 0.40000000 0.40000000 0.40000000
v 0.16796875 0.22265625 0.08984375 0.40000000 0.40000000 0.40000000
v 0.16796875 0.23828125 -0.08984375 0.40000000 0.40000000 0.40000000
v 0.16796875 0.23828125 -0.08203125 0.40000000 0.40000000 0.40000000
v 0.16796875 0.23828125 0.08984375 0.40000000 0.40000000 0.40000000
v 0.16796875 0.24609375 -0.08984375 0.40000000 0.40000000 0.40000000
v 0.16796875 0.24609375 -0.08203125 0.40000000 0.40000000 0.40000000
v 0.16796875 0.30078125 -0.07421875 0.40000000 0.40000000 0.40000000
v 0.16796875 0.30078125 0.07421875 0.40000000 0.40000000 0.40000000
v 0.16796875 0.42578125 -0.07421875 0.40000000 0.40000000 0.40000000
v 0.16796875 0.42578125 0.07421875 0.40000000 0.40000000 0.40000000
v 0.16796875 0.48046875 -0.08984375 0.40000000 0.40000000 0.40000000
v 0.16796875 0.48046875 -0.08203125 0.40000000 0.40000000 0.40000000
v 0.16796875 0.48046875 0.08984375 0.40000000 0.40000000 0.40000000
v 0.17578125 -0.33984375 -0.08984375 0.40000000 0.40000000 0.40000000
v 0.17578125 -0.33984375 0.08984375 0.40000000 0.40000000 0.40000000
v 0.17578125 -0.20703125 -0.08984375 0.40000000 0.40000000 0.40000000
v 0.17578125 -0.20703125 0.08984375 0.40000000 0.40000000 0.40000000
v 0.17578125 -0.02734375 -0.08984375 0.40000000 0.40000000 0.40000000
v 0.17578125 -0.02734375 0.08984375 0.40000000 0.40000000 0.40000000
v 0.17578125 0.23046875 -0.08984375 0.40000000 0.40000000 0.40000000
v 0.17578125 0.23046875 0.08984375 0.40000000 0.40000000 0.40000000
v 0.18359375 -0.48046875 -0.08984375 0.40000000 0.40000000 0.40000000
v 0.18359375 -0.48046875 0.08984375 0.40000000 0.40000000 0.40000000
v 0.18359375 -0.33984375 -0.08984375 0.40000000 0.40000000 0.40000000
v 0.18359375 -0.33984375 0.08984375 0.40000000 0.40000000 0.40000000
v 0.18359375 -0.21484375 -0.08984375 0.40000000 0.40000000 0.40000000
v 0.18359375 -0.21484375 0.08984375 0.40000000 0.40000000 0.40000000
v 0.18359375 -0.19921875 -0.08984375 0.40000000 0.40000000 0.40000000
v 0.18359375 -0.19921875 0.08984375 0.40000000 0.40000000 0.40000000
v 0.18359375 -0.16015625 -0.08984375 0.40000000 0.40000000 0.40000000
v 0.18359375 -0.16015625 0.05859375 0.40000000 0.40000000 0.40000000
v 0.18359375 -0.05859375 -0.08984375 0.40000000 0.40000000 0.40000000
v 0.18359375 -0.05859375 0.05859375 0.40000000 0.40000000 0.40000000
v 0.18359375 -0.03515625 -0.08984375 0.40000000 0.40000000 0.40000000
v 0.18359375 -0.03515625 0.08984375 0.40000000 0.40000000 0.40000000
v 0.18359375 -0.01953125 -0.08984375 0.40000000 0.40000000 0.40000000
v 0.18359375 -0.01953125 0.08984375 0.40000000 0.40000000 0.40000000
v 0.18359375 0.02734375 -0.07421875 0.40000000 0.40000000 0.40000000
v 0.18359375 0.02734375 0.07421875 0.40000000 0.40000000 0.40000000
v 0.18359375 0.15234375 -0.07421875 0.40000000 0.40000000 0.40000000
v 0.18359375 0.15234375 0.07421875 0.40000000 0.40000000 0.40000000
v 0.18359375 0.23046875 -0.08984375 0.40000000 0.40000000 0.40000000
v 0.18359375 0.23046875 0.08984375 0.40000000 0.40000000 0.40000000
v 0.18359375 0.30078125 -0.07421875 0.40000000 0.40000000 0.40000000
v 0.18359375 0.30078125 0.07421875 0.40000000 0.40000000 0.40000000
v 0.18359375 0.42578125 -0.07421875 0.40000000 0.40000000 0.40000000
v 0.18359375 0.42578125 0.07421875 0.40000000 0.40000000 0.40000000
v 0.18359375 0.49609375 -0.08984375 0.40000000 0.40000000 0.40000000
v 0.18359375 0.49609375 0.08984375 0.40000000 0.40000000 0.40000000
v 0.19140625 -0.49609375 -0.02734375 0.40000000 0.40000000 0.40000000
v 0.19140625 -0.49609375 0.06640625 0.40000000 0.40000000 0.40000000
v 0.19140625 -0.48046875 -0.02734375 0.40000000 0.40000000 0.40000000
v 0.19140625 -0.48046875 0.06640625 0.40000000 0.40000000 0.40000000
v 0.19140625 -0.21484375 -0.08984375 0.40000000 0.40000000 0.40000000
v 0.19140625 -0.21484375 0.05078125 0.40000000 0.40000000 0.40000000
v 0.19140625 -0.19921875 -0.08984375 0.40000000 0.40000000 0.40000000
v 0.19140625 -0.19921875 0.05078125 0.40000000 0.40000000 0.40000000
v 0.25390625 -0.21484375 -0.08984375 0.40000000 0.40000000 0.40000000
v 0.25390625 -0.21484375 0.05078125 0.40000000 0.40000000 0.40000000
v 0.25390625 -0.19921875 -0.08984375 0.40000000 0.40000000 0.40000000
v 0.25390625 -0.19921875 0.05078125 0.40000000 0.40000000 0.40000000
v 0.26953125 -0.49609375 -0.02734375 0.40000000 0.40000000 0.40000000
v 0.26953125 -0.49609375 0.06640625 0.40000000 0.40000000 0.40000000
v 0.26953125 -0.48046875 -0.02734375 0.40000000 0.40000000 0.40000000
v 0.26953125 -0.48046875 0.06640625 0.40000000 0.40000000 0.40000000
v 0.30859375 -0.48046875 -0.08984375 0.40000000 0.40000000 0.40000000
v 0.30859375 -0.48046875 0.08984375 0.40000000 0.40000000 0.40000000
v 0.30859375 -0.21484375 -0.08984375 0.40000000 0.40000000 0.40000000
v 0.30859375 -0.21484375 0.08984375 0.40000000 0.40000000 0.40000000
v 0.30859375 -0.19921875 -0.08984375 0.40000000 0.40000000 0.40000000
v 0.30859375 -0.19921875 0.08984375 0.40000000 0.40000000 0.40000000
v 0.30859375 -0.16796875 -0.02734375 0.40000000 0.40000000 0.40000000
v 0.30859375 -0.16796875 0.05859375 0.40000000 0.40000000 0.40000000
v 0.30859375 -0.06640625 -0.02734375 0.40000000 0.40000000 0.40000000
v 0.30859375 -0.06640625 0.05859375 0.40000000 0.40000000 0.40000000
v 0.30859375 -0.03515625 -0.08984375 0.40000000 0.40000000 0.40000000
v 0.30859375 -0.03515625 0.08984375 0.40000000 0.40000000 0.40000000
v 0.31640625 -0.20703125 -0.08984375 0.40000000 0.40000000 0.40000000
v 0.31640625 -0.20703125 0.08984375 0.40000000 0.40000000 0.40000000
v 0.33203125 -0.49609375 -0.08984375 0.40000000 0.40000000 0.40000000
v 0.33203125 -0.49609375 0.08984375 0.40000000 0.40000000 0.40000000
v 0.33203125 -0.20703125 -0.08984375 0.40000000 0.40000000 0.40000000
v 0.33203125 -0.20703125 0.08984375 0.40000000 0.40000000 0.40000000
v 0.33203125 -0.16796875 -0.02734375 0.40000000 0.40000000 0.40000000
v 0.33203125 -0.16796875 0.05859375 0.40000000 0.40000000 0.40000000
v 0.33203125 -0.06640625 -0.02734375 0.40000000 0.40000000 0.40000000
v 0.33203125 -0.06640625 0.05859375 0.40000000 0.40000000 0.40000000
v 0.33203125 -0.01953125 -0.08984375 0.40000000 0.40000000 0.40000000
v 0.33203125 -0.01953125 0.08984375 0.40000000 0.40000000 0.40000000
v -0.06640625 -0.32421875 -0.08984375 0.00000000 0.54901961 1.00000000
v 0.01171875 -0.32421875 -0.08984375 0.00000000 0.54901961 1.00000000
v 0.01171875 -0.23828125 -0.08984375 0.00000000 0.54901961 1.00000000
v -0.06640625 -0.23828125 -0.08984375 0.00000000 0.54901961 1.00000000
v -0.06640625 -0.32421875 -0.02734375 0.00000000 0.54901961 1.00000000
v 0.01171875 -0.32421875 -0.02734375 0.00000000 0.54901961 1.00000000
v 0.01171875 -0.23828125 -0.02734375 0.00000000 0.54901961 1.00000000
v -0.06640625 -0.23828125 -0.02734375 0.00000000 0.54901961 1.00000000
v 0.12109375 -0.32421875 -0.08984375 0.00000000 0.54901961 1.00000000
v 0.12109375 -0.23828125 -0.08984375 0.00000000 0.54901961 1.00000000
v 0.12109375 -0.32421875 -0.02734375 0.00000000 0.54901961 1.00000000
v 0.12109375 -0.23828125 -0.02734375 0.00000000 0.54901961 1.00000000
v 0.16796875 -0.23828125 -0.08984375 0.00000000 0.54901961 1.00000000
v 0.16796875 -0.32421875 -0.02734375 0.00000000 0.54901961 1.00000000
v 0.16796875 -0.23828125 -0.02734375 0.00000000 0.54901961 1.00000000
v -0.24609375 -0.27734375 -0.08984375 0.78431373 0.78431373 0.31372549
v -0.18359375 -0.27734375 -0.08984375 0.78431373 0.78431373 0.31372549
v -0.18359375 -0.16796875 -0.08984375 0.78431373 0.78431373 0.31372549
v -0.24609375 -0.16796875 -0.08984375 0.78431373 0.78431373 0.31372549
v -0.24609375 -0.27734375 -0.03515625 0.78431373 0.78431373 0.31372549
v -0.18359375 -0.27734375 -0.03515625 0.78431373 0.78431373 0.31372549
v -0.18359375 -0.16796875 -0.03515625 0.78431373 0.78431373 0.31372549
v -0.24609375 -0.16796875 -0.03515625 0.78431373 0.78431373 0.31372549
v -0.28515625 -0.26953125 -0.08984375 0.78431373 0.39215686 0.78431373
v -0.24609375 -0.26953125 -0.08984375 0.78431373 0.39215686 0.78431373
v -0.24609375 -0.23046875 -0.08984375 0.78431373 0.39215686 0.78431373
v -0.28515625 -0.23046875 -0.08984375 0.78431373 0.39215686 0.78431373
v -0.28515625 -0.26953125 -0.02734375 0.78431373 0.39215686 0.78431373
v -0.24609375 -0.26953125 -0.02734375 0.78431373 0.39215686 0.78431373
v -0.24609375 -0.23046875 -0.02734375 0.78431373 0.39215686 0.78431373
v -0.28515625 -0.23046875 -0.02734375 0.78431373 0.39215686 0.78431373
v -0.18359375 -0.26953125 -0.08984375 0.78431373 0.39215686 0.78431373
v -0.14453125 -0.26953125 -0.08984375 0.78431373 0.39215686 0.78431373
v -0.14453125 -0.23046875 -0.08984375 0.78431373 0.39215686 0.78431373
v -0.18359375 -0.23046875 -0.08984375 0.78431373 0.39215686 0.78431373
v -0.18359375 -0.26953125 -0.02734375 0.78431373 0.39215686 0.78431373
v -0.14453125 -0.26953125 -0.02734375 0.78431373 0.39215686 0.78431373
v -0.14453125 -0.23046875 -0.02734375 0.78431373 0.39215686 0.78431373
v -0.18359375 -0.23046875 -0.02734375 0.78431373 0.39215686 0.78431373
v -0.13671875 -0.26953125 -0.08984375 0.70588235 0.50980392 0.27450980
v -0.08984375 -0.26953125 -0.08984375 0.70588235 0.50980392 0.27450980
v -0.08984375 -0.22265625 -0.08984375 0.70588235 0.50980392 0.27450980
v -0.13671875 -0.22265625 -0.08984375 0.70588235 0.50980392 0.27450980
v -0.13671875 -0.26953125 -0.05859375 0.70588235 0.50980392 0.27450980
v -0.08984375 -0.26953125 -0.05859375 0.70588235 0.50980392 0.27450980
v -0.08984375 -0.22265625 -0.05859375 0.70588235 0.50980392 0.27450980
v -0.13671875 -0.22265625 -0.05859375 0.70588235 0.50980392 0.27450980
v -0.28515625 -0.21484375 -0.08984375 0.78431373 0.39215686 0.78431373
v -0.24609375 -0.21484375 -0.08984375 0.78431373 0.39215686 0.78431373
v -0.24609375 -0.18359375 -0.08984375 0.78431373 0.39215686 0.78431373
v -0.28515625 -0.18359375 -0.08984375 0.78431373 0.39215686 0.78431373
v -0.28515625 -0.21484375 -0.02734375 0.78431373 0.39215686 0.78431373
v -0.24609375 -0.21484375 -0.02734375 0.78431373 0.39215686 0.78431373
v -0.24609375 -0.18359375 -0.02734375 0.78431373 0.39215686 0.78431373
v -0.28515625 -0.18359375 -0.02734375 0.78431373 0.39215686 0.78431373
v -0.18359375 -0.21484375 -0.08984375 0.78431373 0.39215686 0.78431373
v -0.14453125 -0.21484375 -0.08984375 0.78431373 0.39215686 0.78431373
v -0.14453125 -0.18359375 -0.08984375 0.78431373 0.39215686 0.78431373
v -0.18359375 -0.18359375 -0.08984375 0.78431373 0.39215686 0.78431373
v -0.18359375 -0.21484375 -0.02734375 0.78431373 0.39215686 0.78431373
v -0.14453125 -0.21484375 -0.02734375 0.78431373 0.39215686 0.78431373
v -0.14453125 -0.18359375 -0.02734375 0.78431373 0.39215686 0.78431373
v -0.18359375 -0.18359375 -0.02734375 0.78431373 0.39215686 0.78431373
v -0.01171875 -0.19921875 -0.08984375 0.70588235 0.50980392 0.27450980
v 0.08203125 -0.19921875 -0.08984375 0.70588235 0.50980392 0.27450980
v 0.08203125 -0.14453125 -0.08984375 0.70588235 0.50980392 0.27450980
v -0.01171875 -0.14453125 -0.08984375 0.70588235 0.50980392 0.27450980
v -0.01171875 -0.19921875 -0.06640625 0.70588235 0.50980392 0.27450980
v 0.08203125 -0.19921875 -0.06640625 0.70588235 0.50980392 0.27450980
v 0.08203125 -0.14453125 -0.06640625 0.70588235 0.50980392 0.27450980
v -0.01171875 -0.14453125 -0.06640625 0.70588235 0.50980392 0.27450980
v -0.29296875 -0.07421875 -0.08984375 0.70588235 0.50980392 0.27450980
v -0.25390625 -0.07421875 -0.08984375 0.70588235 0.50980392 0.27450980
v -0.25390625 -0.03515625 -0.08984375 0.70588235 0.50980392 0.27450980
v -0.29296875 -0.03515625 -0.08984375 0.70588235 0.50980392 0.27450980
v -0.29296875 -0.07421875 -0.02734375 0.70588235 0.50980392 0.27450980
v -0.25390625 -0.07421875 -0.02734375 0.70588235 0.50980392 0.27450980
v -0.25390625 -0.03515625 -0.02734375 0.70588235 0.50980392 0.27450980
v -0.29296875 -0.03515625 -0.02734375 0.70588235 0.50980392 0.27450980
v -0.06640625 -0.07421875 -0.08984375 0.70588235 0.50980392 0.27450980
v 0.12109375 -0.07421875 -0.08984375 0.70588235 0.50980392 0.27450980
v 0.12109375 -0.03515625 -0.08984375 0.70588235 0.50980392 0.27450980
v -0.06640625 -0.03515625 -0.08984375 0.70588235 0.50980392 0.27450980
v -0.06640625 -0.07421875 -0.05078125 0.70588235 0.50980392 0.27450980
v 0.12109375 -0.07421875 -0.05078125 0.70588235 0.50980392 0.27450980
v 0.12109375 -0.03515625 -0.05078125 0.70588235 0.50980392 0.27450980
v -0.06640625 -0.03515625 -0.05078125 0.70588235 0.50980392 0.27450980
v -0.03515625 0.09765625 -0.08984375 0.31372549 0.78431373 0.94117647
v 0.11328125 0.09765625 -0.08984375 0.31372549 0.78431373 0.94117647
v 0.11328125 0.17578125 -0.08984375 0.54901961 0.61960784 0.54117647
v -0.03515625 0.17578125 -0.08984375 0.31372549 0.78431373 0.94117647
v -0.03515625 0.09765625 0.04296875 0.31372549 0.78431373 0.94117647
v 0.11328125 0.09765625 0.04296875 0.31372549 0.78431373 0.94117647
v 0.11328125 0.17578125 0.04296875 0.31372549 0.78431373 0.94117647
v -0.03515625 0.17578125 0.04296875 0.31372549 0.78431373 0.94117647
v -0.07421875 0.17578125 -0.08984375 0.70588235 0.50980392 0.27450980
v -0.04296875 0.17578125 -0.08984375 0.70588235 0.50980392 0.27450980
v -0.04296875 0.20703125 -0.08984375 0.70588235 0.50980392 0.27450980
v -0.07421875 0.20703125 -0.08984375 0.70588235 0.50980392 0.27450980
v -0.07421875 0.17578125 -0.07421875 0.70588235 0.50980392 0.27450980
v -0.04296875 0.17578125 -0.07421875 0.70588235 0.50980392 0.27450980
v -0.04296875 0.20703125 -0.07421875 0.70588235 0.50980392 0.27450980
v -0.07421875 0.20703125 -0.07421875 0.70588235 0.50980392 0.27450980
v 0.14453125 0.17578125 -0.08984375 0.70588235 0.50980392 0.27450980
v 0.14453125 0.20703125 -0.08984375 0.70588235 0.50980392 0.27450980
v 0.11328125 0.20703125 -0.08984375 0.70588235 0.50980392 0.27450980
v 0.11328125 0.17578125 -0.07421875 0.70588235 0.50980392 0.27450980
v 0.14453125 0.17578125 -0.07421875 0.70588235 0.50980392 0.27450980
v 0.14453125 0.20703125 -0.07421875 0.70588235 0.50980392 0.27450980
v 0.11328125 0.20703125 -0.07421875 0.70588235 0.50980392 0.27450980
v -0.04296875 0.32421875 -0.08984375 0.31372549 0.78431373 0.94117647
v 0.10546875 0.32421875 -0.08984375 0.31372549 0.78431373 0.94117647
v 0.10546875 0.46484375 -0.08984375 0.31372549 0.78431373 0.94117647
v -0.04296875 0.46484375 -0.08984375 0.31372549 0.78431373 0.94117647
v -0.04296875 0.32421875 0.05859375 0.31372549 0.78431373 0.94117647
v 0.10546875 0.32421875 0.05859375 0.31372549 0.78431373 0.94117647
v 0.10546875 0.46484375 0.05859375 0.31372549 0.78431373 0.94117647
v -0.04296875 0.46484375 0.05859375 0.31372549 0.78431373 0.94117647
v -0.23046875 -0.23828125 0.01171875 0.19607843 0.78431373 1.00000000
v -0.19921875 -0.23828125 0.01171875 0.19607843 0.78431373 1.00000000
v -0.19921875 -0.21484375 0.01171875 0.19607843 0.78431373 1.00000000
v -0.23046875 -0.21484375 0.01171875 0.19607843 0.78431373 1.00000000
v -0.23046875 -0.23828125 0.08203125 0.19607843 0.78431373 1.00000000
v -0.19921875 -0.23828125 0.08203125 0.19607843 0.78431373 1.00000000
v -0.19921875 -0.21484375 0.08203125 0.19607843 0.78431373 1.00000000
v -0.23046875 -0.21484375 0.08203125 0.19607843 0.78431373 1.00000000
v -0.00390625 -0.19921875 0.02734375 0.19607843 0.78431373 1.00000000
v 0.06640625 -0.19921875 0.02734375 0.19607843 0.78431373 1.00000000
v 0.06640625 -0.14453125 0.02734375 0.19607843 0.78431373 1.00000000
v -0.00390625 -0.14453125 0.02734375 0.19607843 0.78431373 1.00000000
v -0.00390625 -0.19921875 0.09765625 0.19607843 0.78431373 1.00000000
v 0.06640625 -0.19921875 0.09765625 0.19607843 0.78431373 1.00000000
v 0.06640625 -0.14453125 0.09765625 0.19607843 0.78431373 1.00000000
v -0.00390625 -0.14453125 0.09765625 0.19607843 0.78431373 1.00000000
f 165 276 246
f 165 246 247
f 246 276 258
f 276 165 262
f 165 247 166
f 247 246 248
f 246 258 248
f 258 276 277
f 276 262 278
f 262 165 218
f 165 166 167
f 166 247 277
f 247 248 249
f 248 258 260
f 258 277 259
f 277 276 279
f 276 278 279
f 278 262 264
f 262 218 260
f 218 165 167
f 167 166 168
f 166 277 263
f 277 247 259
f 247 249 261
f 249 248 219
f 248 260 218
f 260 258 261
f 258 259 261
f 277 279 263
f 279 278 281
f 278 264 274
f 264 262 263
f 262 260 261
f 218 262 220
f 218 167 220
f 167 168 64
f 168 166 219
f 166 263 219
f 259 247 261
f 261 249 219
f 219 248 218
f 263 279 265
f 279 281 285
f 281 278 280
f 278 274 284
f 274 264 254
f 264 263 265
f 263 262 261
f 262 264 220
f 218 220 221
f 220 167 210
f 167 64 210
f 64 168 65
f 168 219 221
f 219 263 261
f 219 218 221
f 265 279 275
f 279 285 275
f 285 281 283
f 281 280 268
f 280 278 284
f 284 274 266
f 274 254 256
f 254 264 265
f 220 264 222
f 221 220 223
f 220 210 222
f 210 64 66
f 64 65 52
f 65 168 211
f 168 221 211
f 265 275 223
f 275 285 267
f 285 283 282
f 283 281 271
f 281 268 269
f 268 280 282
f 280 284 282
f 284 266 272
f 266 274 256
f 256 254 257
f 254 265 255
f 220 222 223
f 221 223 211
f 222 210 169
f 210 66 169
f 66 64 1
f 64 52 36
f 52 65 53
f 65 211 69
f 265 223 251
f 223 275 213
f 275 267 213
f 267 285 273
f 285 282 284
f 282 283 271
f 271 281 269
f 269 268 267
f 268 282 270
f 284 272 230
f 272 266 270
f 266 256 257
f 257 254 255
f 254 256 250
f 255 265 251
f 223 222 251
f 211 223 172
f 222 169 173
f 169 66 67
f 169 66 68
f 66 1 15
f 1 64 36
f 36 52 38
f 52 53 55
f 53 65 37
f 65 69 2
f 69 211 172
f 223 213 176
f 213 267 225
f 267 273 271
f 273 285 231
f 285 284 233
f 282 271 270
f 271 269 267
f 267 268 266
f 268 270 266
f 284 230 214
f 230 272 273
f 272 270 271
f 266 272 230
f 266 257 267
f 257 255 251
f 250 256 252
f 251 222 250
f 172 223 176
f 222 173 212
f 173 169 170
f 173 169 171
f 169 67 170
f 67 66 16
f 66 169 26
f 169 68 171
f 68 66 55
f 66 15 16
f 66 15 54
f 15 1 3
f 1 36 37
f 36 38 37
f 38 52 54
f 52 55 54
f 55 53 37
f 37 65 2
f 2 69 18
f 176 213 225
f 225 267 257
f 271 273 272
f 273 231 230
f 231 285 215
f 285 233 215
f 233 284 232
f 284 214 232
f 214 230 184
f 266 230 224
f 257 251 253
f 250 252 251
f 250 222 252
f 222 212 252
f 212 173 224
f 173 170 174
f 169 173 26
f 173 171 175
f 66 26 15
f 68 55 17
f 55 66 54
f 16 15 20
f 54 15 38
f 15 3 21
f 3 1 2
f 1 37 2
f 37 38 39
f 55 37 39
f 2 18 10
f 176 225 187
f 225 257 253
f 230 231 228
f 231 215 187
f 215 233 190
f 233 232 235
f 232 214 188
f 214 184 129
f 184 230 181
f 253 251 252
f 252 212 224
f 224 173 179
f 173 174 177
f 26 173 184
f 173 175 179
f 17 55 39
f 20 15 19
f 38 15 17
f 15 21 22
f 21 3 22
f 3 2 4
f 39 38 17
f 2 10 6
f 10 18 31
f 187 225 231
f 225 253 252
f 230 228 181
f 228 231 229
f 187 215 132
f 215 190 134
f 190 233 239
f 233 235 239
f 235 232 234
f 232 188 238
f 188 214 133
f 214 129 133
f 129 184 186
f 129 184 185
f 184 181 182
f 184 181 183
f 252 224 225
f 224 179 226
f 177 174 178
f 26 184 28
f 179 175 180
f 17 15 22
f 22 3 4
f 3 21 23
f 4 2 6
f 6 10 9
f 10 31 14
f 231 225 227
f 181 228 183
f 228 229 183
f 229 231 227
f 132 215 134
f 134 190 146
f 190 239 197
f 239 235 237
f 235 234 191
f 234 232 238
f 238 188 195
f 188 133 143
f 133 129 111
f 129 186 131
f 186 184 183
f 129 185 130
f 185 184 182
f 225 224 227
f 224 226 227
f 226 179 227
f 26 28 30
f 179 180 227
f 180 175 183
f 17 22 30
f 22 4 6
f 3 23 5
f 6 9 5
f 9 10 11
f 10 14 33
f 14 31 61
f 228 181 179
f 183 229 227
f 132 134 59
f 134 146 117
f 190 197 194
f 197 239 217
f 239 237 236
f 237 235 194
f 235 191 192
f 191 234 236
f 234 238 236
f 238 195 216
f 195 188 189
f 195 188 193
f 188 143 144
f 188 143 157
f 143 133 114
f 133 111 114
f 111 129 131
f 111 129 130
f 186 183 175
f 179 226 228
f 26 30 27
f 30 28 58
f 28 26 7
f 227 180 183
f 30 22 25
f 22 6 25
f 5 23 6
f 5 9 28
f 9 11 32
f 11 10 12
f 10 33 12
f 33 14 41
f 14 61 41
f 61 31 59
f 59 134 61
f 134 117 61
f 117 146 156
f 190 194 192
f 194 197 195
f 197 217 156
f 217 239 245
f 239 236 238
f 236 237 194
f 194 235 192
f 192 191 190
f 191 236 193
f 238 216 244
f 216 195 153
f 195 189 196
f 189 188 144
f 188 195 153
f 195 193 194
f 193 188 191
f 143 188 153
f 188 157 158
f 157 143 145
f 143 114 147
f 114 111 115
f 111 131 113
f 111 130 112
f 26 27 8
f 27 30 25
f 58 28 56
f 28 7 9
f 7 26 8
f 25 6 23
f 23 5 28
f 28 9 13
f 9 32 13
f 32 11 34
f 11 12 48
f 12 33 35
f 33 41 40
f 41 61 75
f 61 117 75
f 117 156 124
f 195 197 159
f 156 217 136
f 217 245 200
f 245 239 241
f 239 238 241
f 236 194 193
f 190 191 188
f 238 244 240
f 244 216 198
f 216 153 135
f 153 195 159
f 153 195 196
f 188 158 190
f 145 143 148
f 143 147 148
f 147 114 118
f 115 111 113
f 111 114 95
f 113 131 96
f 8 27 25
f 58 56 96
f 56 28 60
f 26 7 23
f 23 28 29
f 28 13 60
f 13 32 40
f 32 34 35
f 34 11 62
f 11 48 62
f 48 12 49
f 12 35 63
f 35 33 32
f 33 40 32
f 40 41 42
f 41 75 84
f 124 156 136
f 159 197 160
f 136 217 200
f 200 245 209
f 245 241 243
f 241 238 240
f 240 244 242
f 244 198 207
f 198 216 135
f 135 153 122
f 153 159 155
f 153 196 154
f 145 148 155
f 148 147 118
f 118 114 116
f 115 113 96
f 95 114 97
f 96 131 58
f 8 25 6
f 96 56 95
f 56 60 97
f 28 56 57
f 23 7 5
f 23 29 24
f 29 28 57
f 60 13 40
f 35 34 47
f 34 32 40
f 34 62 46
f 62 48 85
f 48 49 50
f 49 12 63
f 63 35 47
f 40 42 76
f 42 41 43
f 41 84 47
f 124 136 84
f 136 200 140
f 200 209 206
f 209 245 94
f 245 243 242
f 243 241 206
f 241 240 203
f 240 242 203
f 242 244 245
f 244 207 91
f 207 198 205
f 198 135 137
f 135 122 107
f 122 153 120
f 153 155 149
f 153 154 151
f 155 148 150
f 148 118 119
f 118 147 149
f 118 116 119
f 115 96 98
f 95 97 96
f 95 56 97
f 97 60 72
f 57 56 71
f 60 40 72
f 47 34 46
f 34 40 46
f 46 62 82
f 62 85 101
f 85 48 50
f 50 49 51
f 49 63 88
f 63 47 84
f 40 76 72
f 76 42 77
f 42 43 77
f 43 41 45
f 41 47 45
f 84 136 63
f 136 140 63
f 200 206 204
f 206 209 207
f 94 245 51
f 242 243 206
f 206 241 204
f 241 203 204
f 203 242 205
f 245 244 51
f 244 91 50
f 91 207 106
f 91 207 208
f 207 205 206
f 205 198 203
f 198 207 91
f 198 207 199
f 198 137 141
f 198 137 161
f 137 135 109
f 135 107 109
f 107 122 123
f 122 120 121
f 120 153 149
f 149 155 150
f 151 154 152
f 150 148 121
f 148 119 121
f 118 149 120
f 119 116 121
f 115 98 74
f 98 96 97
f 97 72 74
f 71 56 70
f 47 46 45
f 46 82 44
f 82 62 101
f 101 85 89
f 101 85 87
f 85 50 91
f 50 51 244
f 51 49 88
f 88 63 140
f 72 76 77
f 42 76 80
f 77 43 45
f 200 204 203
f 207 209 163
f 94 51 88
f 242 206 205
f 91 106 93
f 106 207 163
f 91 208 92
f 208 207 202
f 203 198 200
f 198 91 137
f 198 199 138
f 199 207 208
f 198 141 201
f 141 137 127
f 137 198 138
f 198 161 162
f 161 137 139
f 137 109 110
f 109 107 110
f 107 123 108
f 123 122 121
f 121 120 149
f 149 150 121
f 121 116 123
f 115 74 116
f 74 98 97
f 74 72 77
f 45 46 44
f 44 82 80
f 82 101 99
f 101 89 104
f 85 101 86
f 101 87 103
f 87 85 93
f 85 91 93
f 42 80 44
f 77 45 81
f 163 209 164
f 91 92 89
f 202 207 201
f 200 198 162
f 137 91 85
f 138 199 202
f 201 141 142
f 141 127 128
f 127 137 125
f 137 141 138
f 137 141 142
f 137 138 126
f 139 137 110
f 110 107 108
f 107 109 99
f 108 123 100
f 74 77 83
f 45 44 80
f 80 82 83
f 82 99 100
f 99 101 100
f 104 89 90
f 85 86 92
f 86 101 102
f 101 103 100
f 103 87 110
f 91 85 92
f 77 81 83
f 81 45 80
f 89 92 90
f 202 201 142
f 138 202 142
f 142 141 128
f 128 127 126
f 127 125 126
f 125 137 126
f 138 141 142
f 137 142 138
f 126 138 142
f 139 110 87
f 110 108 100
f 99 109 101
f 100 123 83
f 80 83 81
f 83 82 100
f 104 90 105
f 86 102 90
f 100 103 110
f 142 128 126
f 90 102 105
f 114 122 82
f 114 82 72
f 78 79 72
f 72 79 73
f 101 105 104
f 105 101 102
f 286 287 288
f 286 288 289
f 290 293 292
f 290 292 291
f 286 290 291
f 286 291 287
f 289 288 292
f 289 292 293
f 286 289 293
f 286 293 290
f 287 291 292
f 287 292 288
f 287 294 295
f 287 295 288
f 291 292 297
f 291 297 296
f 287 291 296
f 287 296 294
f 288 295 297
f 288 297 292
f 294 296 297
f 294 297 295
f 294 169 298
f 294 298 295
f 296 297 300
f 296 300 299
f 294 296 299
f 294 299 169
f 295 298 300
f 295 300 297
f 169 299 300
f 169 300 298
f 301 302 303
f 301 303 304
f 305 308 307
f 305 307 306
f 301 305 306
f 301 306 302
f 304 303 307
f 304 307 308
f 301 304 308
f 301 308 305
f 302 306 307
f 302 307 303
f 309 310 311
f 309 311 312
f 313 316 315
f 313 315 314
f 309 313 314
f 309 314 310
f 312 311 315
f 312 315 316
f 309 312 316
f 309 316 313
f 310 314 315
f 310 315 311
f 317 318 319
f 317 319 320
f 321 324 323
f 321 323 322
f 317 321 322
f 317 322 318
f 320 319 323
f 320 323 324
f 317 320 324
f 317 324 321
f 318 322 323
f 318 323 319
f 325 326 327
f 325 327 328
f 329 332 331
f 329 331 330
f 325 329 330
f 325 330 326
f 328 327 331
f 328 331 332
f 325 328 332
f 325 332 329
f 326 330 331
f 326 331 327
f 333 334 335
f 333 335 336
f 337 340 339
f 337 339 338
f 333 337 338
f 333 338 334
f 336 335 339
f 336 339 340
f 333 336 340
f 333 340 337
f 334 338 339
f 334 339 335
f 341 342 343
f 341 343 344
f 345 348 347
f 345 347 346
f 341 345 346
f 341 346 342
f 344 343 347
f 344 347 348
f 341 344 348
f 341 348 345
f 342 346 347
f 342 347 343
f 349 350 351
f 349 351 352
f 353 356 355
f 353 355 354
f 349 353 354
f 349 354 350
f 352 351 355
f 352 355 356
f 349 352 356
f 349 356 353
f 350 354 355
f 350 355 351
f 357 358 359
f 357 359 360
f 361 364 363
f 361 363 362
f 357 361 362
f 357 362 358
f 360 359 363
f 360 363 364
f 357 360 364
f 357 364 361
f 358 362 363
f 358 363 359
f 365 366 367
f 365 367 368
f 369 372 371
f 369 371 370
f 365 369 370
f 365 370 366
f 368 367 371
f 368 371 372
f 365 368 372
f 365 372 369
f 366 370 371
f 366 371 367
f 373 374 375
f 373 375 376
f 377 380 379
f 377 379 378
f 373 377 378
f 373 378 374
f 376 375 379
f 376 379 380
f 373 376 380
f 373 380 377
f 374 378 379
f 374 379 375
f 381 382 383
f 381 383 384
f 385 388 387
f 385 387 386
f 381 385 386
f 381 386 382
f 384 383 387
f 384 387 388
f 381 384 388
f 381 388 385
f 382 386 387
f 382 387 383
f 375 389 390
f 375 390 391
f 392 395 394
f 392 394 393
f 375 392 393
f 375 393 389
f 391 390 394
f 391 394 395
f 375 391 395
f 375 395 392
f 389 393 394
f 389 394 390
f 396 397 398
f 396 398 399
f 400 403 402
f 400 402 401
f 396 400 401
f 396 401 397
f 399 398 402
f 399 402 403
f 396 399 403
f 396 403 400
f 397 401 402
f 397 402 398
f 404 405 406
f 404 406 407
f 408 411 410
f 408 410 409
f 404 408 409
f 404 409 405
f 407 406 410
f 407 410 411
f 404 407 411
f 404 411 408
f 405 409 410
f 405 410 406
f 412 413 414
f 412 414 415
f 416 419 418
f 416 418 417
f 412 416 417
f 412 417 413
f 415 414 418
f 415 418 419
f 412 415 419
f 412 419 416
f 413 417 418
f 413 418 414

