# https://github.com/mikedh/trimesh
v -0.41796875 -0.49609375 -0.13671875 0.40000000 0.40000000 0.40000000
v -0.41796875 -0.49609375 0.13671875 0.40000000 0.40000000 0.40000000
v -0.41796875 -0.32421875 -0.13671875 0.40000000 0.40000000 0.40000000
v -0.41796875 -0.32421875 0.13671875 0.40000000 0.40000000 0.40000000
v -0.41796875 -0.07421875 -0.13671875 0.40000000 0.40000000 0.40000000
v -0.41796875 -0.07421875 0.08984375 0.40000000 0.40000000 0.40000000
v -0.41796875 0.00390625 -0.13671875 0.40000000 0.40000000 0.40000000
v -0.41796875 0.00390625 0.08984375 0.40000000 0.40000000 0.40000000
v -0.41796875 0.02734375 -0.13671875 0.40000000 0.40000000 0.40000000
v -0.41796875 0.02734375 0.13671875 0.40000000 0.40000000 0.40000000
v -0.41015625 -0.32421875 -0.13671875 0.40000000 0.40000000 0.40000000
v -0.41015625 -0.32421875 0.13671875 0.40000000 0.40000000 0.40000000
v -0.39453125 -0.48046875 -0.13671875 0.40000000 0.40000000 0.40000000
v -0.39453125 -0.48046875 0.13671875 0.40000000 0.40000000 0.40000000
v -0.39453125 -0.33203125 -0.13671875 0.40000000 0.40000000 0.40000000
v -0.39453125 -0.33203125 0.13671875 0.40000000 0.40000000 0.40000000
v -0.39453125 -0.31640625 -0.13671875 0.40000000 0.40000000 0.40000000
v -0.39453125 -0.31640625 -0.12890625 0.40000000 0.40000000 0.40000000
v -0.39453125 -0.31640625 0.11328125 0.40000000 0.40000000 0.40000000
v -0.39453125 -0.31640625 0.13671875 0.40000000 0.40000000 0.40000000
v -0.39453125 -0.07421875 -0.13671875 0.40000000 0.40000000 0.40000000
v -0.39453125 -0.07421875 -0.12890625 0.40000000 0.40000000 0.40000000
v -0.39453125 -0.07421875 0.08984375 0.40000000 0.40000000 0.40000000
v -0.39453125 0.00390625 -0.13671875 0.40000000 0.40000000 0.40000000
v -0.39453125 0.00390625 -0.12890625 0.40000000 0.40000000 0.40000000
v -0.39453125 0.00390625 0.08984375 0.40000000 0.40000000 0.40000000
v -0.39453125 0.00390625 0.11328125 0.40000000 0.40000000 0.40000000
v -0.39453125 0.00390625 0.13671875 0.40000000 0.40000000 0.40000000
v -0.39453125 0.19921875 -0.13671875 0.40000000 0.40000000 0.40000000
v -0.39453125 0.19921875 0.13671875 0.40000000 0.40000000 0.40000000
v -0.39453125 0.49609375 -0.13671875 0.40000000 0.40000000 0.40000000
v -0.39453125 0.49609375 0.13671875 0.40000000 0.40000000 0.40000000
v -0.37109375 0.22265625 -0.13671875 0.40000000 0.40000000 0.40000000
v -0.37109375 0.22265625 -0.12890625 0.40000000 0.40000000 0.40000000
v -0.37109375 0.22265625 0.11328125 0.40000000 0.40000000 0.40000000
v -0.37109375 0.22265625 0.13671875 0.40000000 0.40000000 0.40000000
v -0.37109375 0.48046875 -0.13671875 0.40000000 0.40000000 0.40000000
v -0.37109375 0.48046875 -0.12890625 0.40000000 0.40000000 0.40000000
v -0.37109375 0.48046875 0.11328125 0.40000000 0.40000000 0.40000000
v -0.37109375 0.48046875 0.13671875 0.40000000 0.40000000 0.40000000
v -0.33203125 0.02734375 -0.13671875 0.40000000 0.40000000 0.40000000
v -0.33203125 0.02734375 0.13671875 0.40000000 0.40000000 0.40000000
v -0.33203125 0.19921875 -0.13671875 0.40000000 0.40000000 0.40000000
v -0.33203125 0.19921875 0.13671875 0.40000000 0.40000000 0.40000000
v -0.31640625 -0.31640625 -0.13671875 0.40000000 0.40000000 0.40000000
v -0.31640625 -0.31640625 -0.12890625 0.40000000 0.40000000 0.40000000
v -0.31640625 0.00390625 -0.13671875 0.40000000 0.40000000 0.40000000
v -0.31640625 0.00390625 -0.12890625 0.40000000 0.40000000 0.40000000
v -0.31640625 0.00390625 0.11328125 0.40000000 0.40000000 0.40000000
v -0.31640625 0.00390625 0.13671875 0.40000000 0.40000000 0.40000000
v -0.31640625 0.01171875 -0.13671875 0.40000000 0.40000000 0.40000000
v -0.31640625 0.01171875 0.13671875 0.40000000 0.40000000 0.40000000
v -0.31640625 0.20703125 -0.13671875 0.40000000 0.40000000 0.40000000
v -0.31640625 0.20703125 0.13671875 0.40000000 0.40000000 0.40000000
v -0.31640625 0.21484375 -0.13671875 0.40000000 0.40000000 0.40000000
v -0.31640625 0.22265625 -0.13671875 0.40000000 0.40000000 0.40000000
v -0.31640625 0.22265625 -0.12890625 0.40000000 0.40000000 0.40000000
v -0.31640625 0.22265625 0.11328125 0.40000000 0.40000000 0.40000000
v -0.31640625 0.22265625 0.13671875 0.40000000 0.40000000 0.40000000
v -0.30859375 -0.33203125 -0.13671875 0.40000000 0.40000000 0.40000000
v -0.30859375 -0.33203125 0.08203125 0.40000000 0.40000000 0.40000000
v -0.30859375 -0.31640625 -0.13671875 0.56470588 0.39607843 0.56470588
v -0.30859375 -0.31640625 0.08203125 0.40000000 0.40000000 0.40000000
v -0.30859375 0.02734375 -0.13671875 0.40000000 0.40000000 0.40000000
v -0.30859375 0.02734375 0.13671875 0.40000000 0.40000000 0.40000000
v -0.30859375 0.19921875 -0.13671875 0.40000000 0.40000000 0.40000000
v -0.30859375 0.19921875 0.13671875 0.40000000 0.40000000 0.40000000
v -0.17578125 0.02734375 -0.13671875 0.40000000 0.40000000 0.40000000
v -0.17578125 0.02734375 0.13671875 0.40000000 0.40000000 0.40000000
v -0.17578125 0.11328125 -0.13671875 0.40000000 0.40000000 0.40000000
v -0.17578125 0.11328125 0.07421875 0.40000000 0.40000000 0.40000000
v -0.17578125 0.18359375 -0.13671875 0.40000000 0.40000000 0.40000000
v -0.17578125 0.18359375 0.07421875 0.40000000 0.40000000 0.40000000
v -0.17578125 0.19921875 -0.13671875 0.40000000 0.40000000 0.40000000
v -0.17578125 0.19921875 0.13671875 0.40000000 0.40000000 0.40000000
v -0.16015625 0.20703125 -0.13671875 0.40000000 0.40000000 0.40000000
v -0.16015625 0.20703125 0.13671875 0.40000000 0.40000000 0.40000000
v -0.16015625 0.21484375 -0.13671875 0.40000000 0.40000000 0.40000000
v -0.16015625 0.22265625 -0.13671875 0.40000000 0.40000000 0.40000000
v -0.16015625 0.22265625 -0.12890625 0.40000000 0.40000000 0.40000000
v -0.16015625 0.22265625 0.11328125 0.40000000 0.40000000 0.40000000
v -0.16015625 0.22265625 0.13671875 0.40000000 0.40000000 0.40000000
v -0.15234375 -0.33203125 -0.13671875 0.40000000 0.40000000 0.40000000
v -0.15234375 -0.33203125 0.08203125 0.40000000 0.40000000 0.40000000
v -0.15234375 -0.31640625 -0.13671875 0.40000000 0.40000000 0.40000000
v -0.15234375 -0.31640625 -0.12890625 0.40000000 0.40000000 0.40000000
v -0.15234375 -0.31640625 0.08203125 0.40000000 0.40000000 0.40000000
v -0.15234375 0.00390625 -0.13671875 0.40000000 0.40000000 0.40000000
v -0.15234375 0.00390625 -0.12890625 0.40000000 0.40000000 0.40000000
v -0.15234375 0.00390625 0.11328125 0.40000000 0.40000000 0.40000000
v -0.15234375 0.00390625 0.13671875 0.40000000 0.40000000 0.40000000
v -0.15234375 0.10546875 -0.13671875 0.40000000 0.40000000 0.40000000
v -0.15234375 0.10546875 -0.12890625 0.40000000 0.40000000 0.40000000
v -0.15234375 0.11328125 -0.13671875 0.40000000 0.40000000 0.40000000
v -0.15234375 0.11328125 0.07421875 0.40000000 0.40000000 0.40000000
v -0.15234375 0.18359375 -0.13671875 0.40000000 0.40000000 0.40000000
v -0.15234375 0.18359375 0.07421875 0.40000000 0.40000000 0.40000000
v -0.15234375 0.19140625 -0.13671875 0.40000000 0.40000000 0.40000000
v -0.15234375 0.19140625 -0.12890625 0.40000000 0.40000000 0.40000000
v -0.15234375 0.19921875 -0.13671875 0.40000000 0.40000000 0.40000000
v -0.15234375 0.19921875 -0.12890625 0.40000000 0.40000000 0.40000000
v -0.15234375 0.19921875 0.11328125 0.40000000 0.40000000 0.40000000
v -0.15234375 0.19921875 0.13671875 0.40000000 0.40000000 0.40000000
v -0.15234375 0.22265625 -0.13671875 0.40000000 0.40000000 0.40000000
v -0.15234375 0.22265625 -0.12890625 0.40000000 0.40000000 0.40000000
v -0.14453125 -0.48046875 -0.13671875 0.40000000 0.40000000 0.40000000
v -0.14453125 -0.48046875 0.13671875 0.40000000 0.40000000 0.40000000
v -0.14453125 -0.42578125 -0.13671875 0.40000000 0.40000000 0.40000000
v -0.14453125 -0.42578125 0.13671875 0.40000000 0.40000000 0.40000000
v -0.14453125 -0.33203125 -0.13671875 0.40000000 0.40000000 0.40000000
v -0.14453125 -0.33203125 0.13671875 0.40000000 0.40000000 0.40000000
v -0.14453125 0.19921875 -0.13671875 0.40000000 0.40000000 0.40000000
v -0.14453125 0.19921875 0.07421875 0.40000000 0.40000000 0.40000000
v -0.14453125 0.22265625 -0.13671875 0.40000000 0.40000000 0.40000000
v -0.14453125 0.22265625 0.07421875 0.40000000 0.40000000 0.40000000
v -0.13671875 -0.49609375 -0.13671875 0.40000000 0.40000000 0.40000000
v -0.13671875 -0.49609375 0.13671875 0.40000000 0.40000000 0.40000000
v -0.13671875 -0.48828125 -0.13671875 0.40000000 0.40000000 0.40000000
v -0.13671875 -0.48828125 0.13671875 0.40000000 0.40000000 0.40000000
v -0.13671875 -0.33203125 -0.13671875 0.40000000 0.40000000 0.40000000
v -0.13671875 -0.33203125 0.13671875 0.40000000 0.40000000 0.40000000
v -0.13671875 -0.32421875 -0.13671875 0.40000000 0.40000000 0.40000000
v -0.13671875 -0.32421875 0.13671875 0.40000000 0.40000000 0.40000000
v -0.13671875 -0.31640625 -0.13671875 0.40000000 0.40000000 0.40000000
v -0.13671875 -0.31640625 -0.12890625 0.40000000 0.40000000 0.40000000
v -0.13671875 -0.31640625 0.13671875 0.40000000 0.40000000 0.40000000
v -0.12890625 -0.48046875 -0.13671875 0.40000000 0.40000000 0.40000000
v -0.12890625 -0.48046875 0.13671875 0.40000000 0.40000000 0.40000000
v -0.12890625 -0.42578125 -0.13671875 0.40000000 0.40000000 0.40000000
v -0.12890625 -0.42578125 0.13671875 0.40000000 0.40000000 0.40000000
v -0.12890625 -0.33203125 -0.13671875 0.40000000 0.40000000 0.40000000
v -0.12890625 -0.33203125 0.13671875 0.40000000 0.40000000 0.40000000
v -0.12109375 -0.31640625 -0.13671875 0.40000000 0.40000000 0.40000000
v -0.12109375 -0.31640625 -0.12890625 0.40000000 0.40000000 0.40000000
v -0.12109375 -0.31640625 0.11328125 0.40000000 0.40000000 0.40000000
v -0.12109375 -0.31640625 0.13671875 0.40000000 0.40000000 0.40000000
v -0.11328125 0.22265625 0.11328125 0.40000000 0.40000000 0.40000000
v -0.11328125 0.22265625 0.13671875 0.40000000 0.40000000 0.40000000
v -0.11328125 0.48046875 0.11328125 0.40000000 0.40000000 0.40000000
v -0.11328125 0.48046875 0.13671875 0.40000000 0.40000000 0.40000000
v -0.08984375 0.19921875 -0.13671875 0.40000000 0.40000000 0.40000000
v -0.08984375 0.19921875 0.07421875 0.40000000 0.40000000 0.40000000
v -0.08984375 0.22265625 -0.13671875 0.40000000 0.40000000 0.40000000
v -0.08984375 0.22265625 0.07421875 0.40000000 0.40000000 0.40000000
v -0.08203125 0.00390625 -0.13671875 0.40000000 0.40000000 0.40000000
v -0.08203125 0.00390625 -0.12890625 0.40000000 0.40000000 0.40000000
v -0.08203125 0.00390625 0.11328125 0.40000000 0.40000000 0.40000000
v -0.08203125 0.00390625 0.13671875 0.40000000 0.40000000 0.40000000
v -0.08203125 0.01953125 -0.13671875 0.40000000 0.40000000 0.40000000
v -0.08203125 0.01953125 -0.12890625 0.40000000 0.40000000 0.40000000
v -0.08203125 0.02734375 -0.13671875 0.40000000 0.40000000 0.40000000
v -0.08203125 0.02734375 0.07421875 0.40000000 0.40000000 0.40000000
v -0.08203125 0.08984375 -0.13671875 0.40000000 0.40000000 0.40000000
v -0.08203125 0.08984375 0.07421875 0.40000000 0.40000000 0.40000000
v -0.08203125 0.09765625 -0.13671875 0.40000000 0.40000000 0.40000000
v -0.08203125 0.09765625 -0.12890625 0.40000000 0.40000000 0.40000000
v -0.08203125 0.12109375 -0.13671875 0.40000000 0.40000000 0.40000000
v -0.08203125 0.12109375 -0.12890625 0.40000000 0.40000000 0.40000000
v -0.08203125 0.12109375 0.13671875 0.40000000 0.40000000 0.40000000
v -0.08203125 0.19921875 -0.13671875 0.40000000 0.40000000 0.40000000
v -0.08203125 0.19921875 -0.12890625 0.40000000 0.40000000 0.40000000
v -0.08203125 0.19921875 0.07421875 0.40000000 0.40000000 0.40000000
v -0.08203125 0.19921875 0.11328125 0.40000000 0.40000000 0.40000000
v -0.08203125 0.19921875 0.13671875 0.40000000 0.40000000 0.40000000
v -0.08203125 0.20703125 -0.13671875 0.40000000 0.40000000 0.40000000
v -0.08203125 0.21484375 -0.13671875 0.40000000 0.40000000 0.40000000
v -0.08203125 0.22265625 -0.13671875 0.40000000 0.40000000 0.40000000
v -0.08203125 0.22265625 -0.12890625 0.40000000 0.40000000 0.40000000
v -0.08203125 0.22265625 0.07421875 0.40000000 0.40000000 0.40000000
v -0.08203125 0.22265625 0.11328125 0.40000000 0.40000000 0.40000000
v -0.08203125 0.22265625 0.13671875 0.40000000 0.40000000 0.40000000
v -0.08203125 0.31640625 -0.13671875 0.40000000 0.40000000 0.40000000
v -0.08203125 0.31640625 -0.12890625 0.40000000 0.40000000 0.40000000
v -0.08203125 0.31640625 0.11328125 0.40000000 0.40000000 0.40000000
v -0.08203125 0.31640625 0.13671875 0.40000000 0.40000000 0.40000000
v -0.08203125 0.35546875 -0.05078125 0.40000000 0.40000000 0.40000000
v -0.08203125 0.35546875 0.09765625 0.40000000 0.40000000 0.40000000
v -0.08203125 0.45703125 -0.05078125 0.40000000 0.40000000 0.40000000
v -0.08203125 0.45703125 0.09765625 0.40000000 0.40000000 0.40000000
v -0.08203125 0.48046875 -0.13671875 0.40000000 0.40000000 0.40000000
v -0.08203125 0.48046875 -0.12890625 0.40000000 0.40000000 0.40000000
v -0.08203125 0.48046875 0.13671875 0.40000000 0.40000000 0.40000000
v -0.07421875 0.12109375 -0.13671875 0.40000000 0.40000000 0.40000000
v -0.07421875 0.12109375 0.13671875 0.40000000 0.40000000 0.40000000
v -0.07421875 0.20703125 -0.13671875 0.40000000 0.40000000 0.40000000
v -0.07421875 0.20703125 0.13671875 0.40000000 0.40000000 0.40000000
v -0.07421875 0.22265625 -0.13671875 0.40000000 0.40000000 0.40000000
v -0.07421875 0.31640625 -0.13671875 0.40000000 0.40000000 0.40000000
v -0.07421875 0.31640625 0.13671875 0.40000000 0.40000000 0.40000000
v -0.05859375 0.02734375 -0.13671875 0.40000000 0.40000000 0.40000000
v -0.05859375 0.02734375 -0.12890625 0.40000000 0.40000000 0.40000000
v -0.05859375 0.02734375 0.07421875 0.40000000 0.40000000 0.40000000
v -0.05859375 0.02734375 0.11328125 0.40000000 0.40000000 0.40000000
v -0.05859375 0.02734375 0.13671875 0.40000000 0.40000000 0.40000000
v -0.05859375 0.08984375 -0.13671875 0.40000000 0.40000000 0.40000000
v -0.05859375 0.08984375 0.07421875 0.40000000 0.40000000 0.40000000
v -0.05859375 0.09765625 -0.13671875 0.40000000 0.40000000 0.40000000
v -0.05859375 0.09765625 -0.12890625 0.40000000 0.40000000 0.40000000
v -0.05859375 0.11328125 -0.13671875 0.40000000 0.40000000 0.40000000
v -0.05859375 0.11328125 -0.12890625 0.40000000 0.40000000 0.40000000
v -0.05859375 0.11328125 0.11328125 0.40000000 0.40000000 0.40000000
v -0.05859375 0.11328125 0.13671875 0.40000000 0.40000000 0.40000000
v -0.05859375 0.13671875 -0.13671875 0.40000000 0.40000000 0.40000000
v -0.05859375 0.13671875 0.13671875 0.40000000 0.40000000 0.40000000
v -0.05859375 0.20703125 -0.13671875 0.40000000 0.40000000 0.40000000
v -0.05859375 0.20703125 0.13671875 0.40000000 0.40000000 0.40000000
v -0.05859375 0.30078125 -0.13671875 0.40000000 0.40000000 0.40000000
v -0.05859375 0.30078125 0.13671875 0.40000000 0.40000000 0.40000000
v -0.05859375 0.32421875 -0.13671875 0.40000000 0.40000000 0.40000000
v -0.05859375 0.32421875 0.13671875 0.40000000 0.40000000 0.40000000
v -0.05859375 0.35546875 -0.05078125 0.40000000 0.40000000 0.40000000
v -0.05859375 0.35546875 0.09765625 0.40000000 0.40000000 0.40000000
v -0.05859375 0.45703125 -0.05078125 0.40000000 0.40000000 0.40000000
v -0.05859375 0.45703125 0.09765625 0.40000000 0.40000000 0.40000000
v -0.05859375 0.49609375 -0.13671875 0.40000000 0.40000000 0.40000000
v -0.05859375 0.49609375 0.13671875 0.40000000 0.40000000 0.40000000
v -0.01953125 -0.48046875 -0.13671875 0.40000000 0.40000000 0.40000000
v -0.01953125 -0.48046875 0.13671875 0.40000000 0.40000000 0.40000000
v -0.01953125 -0.47265625 -0.05078125 0.40000000 0.40000000 0.40000000
v -0.01953125 -0.47265625 0.09765625 0.40000000 0.40000000 0.40000000
v -0.01953125 -0.34765625 -0.05078125 0.40000000 0.40000000 0.40000000
v -0.01953125 -0.34765625 0.09765625 0.40000000 0.40000000 0.40000000
v -0.01953125 -0.33203125 -0.13671875 0.40000000 0.40000000 0.40000000
v -0.01953125 -0.33203125 0.09765625 0.40000000 0.40000000 0.40000000
v -0.01953125 -0.33203125 0.13671875 0.40000000 0.40000000 0.40000000
v -0.01171875 -0.33203125 -0.13671875 0.40000000 0.40000000 0.40000000
v -0.01171875 -0.33203125 0.13671875 0.40000000 0.40000000 0.40000000
v -0.01171875 -0.32421875 -0.13671875 0.40000000 0.40000000 0.40000000
v -0.01171875 -0.32421875 -0.12890625 0.40000000 0.40000000 0.40000000
v -0.01171875 -0.32421875 0.13671875 0.40000000 0.40000000 0.40000000
v -0.01171875 -0.31640625 -0.13671875 0.40000000 0.40000000 0.40000000
v -0.01171875 -0.31640625 -0.12890625 0.40000000 0.40000000 0.40000000
v -0.01171875 -0.31640625 0.11328125 0.40000000 0.40000000 0.40000000
v -0.01171875 -0.31640625 0.13671875 0.40000000 0.40000000 0.40000000
v -0.00390625 -0.49609375 -0.13671875 0.40000000 0.40000000 0.40000000
v -0.00390625 -0.49609375 0.13671875 0.40000000 0.40000000 0.40000000
v -0.00390625 -0.47265625 -0.05078125 0.40000000 0.40000000 0.40000000
v -0.00390625 -0.47265625 0.09765625 0.40000000 0.40000000 0.40000000
v -0.00390625 -0.34765625 -0.13671875 0.40000000 0.40000000 0.40000000
v -0.00390625 -0.34765625 -0.05078125 0.40000000 0.40000000 0.40000000
v -0.00390625 -0.34765625 0.09765625 0.40000000 0.40000000 0.40000000
v -0.00390625 -0.34765625 0.13671875 0.40000000 0.40000000 0.40000000
v 0.00390625 0.11328125 -0.13671875 0.40000000 0.40000000 0.40000000
v 0.00390625 0.11328125 -0.12890625 0.40000000 0.40000000 0.40000000
v 0.01171875 0.11328125 -0.13671875 0.40000000 0.40000000 0.40000000
v 0.01171875 0.11328125 0.07421875 0.40000000 0.40000000 0.40000000
v 0.01171875 0.13671875 -0.13671875 0.40000000 0.40000000 0.40000000
v 0.01171875 0.13671875 0.07421875 0.40000000 0.40000000 0.40000000
v 0.01171875 0.30078125 -0.05078125 0.40000000 0.40000000 0.40000000
v 0.01171875 0.30078125 0.09765625 0.40000000 0.40000000 0.40000000
v 0.01171875 0.32421875 -0.05078125 0.40000000 0.40000000 0.40000000
v 0.01171875 0.32421875 0.09765625 0.40000000 0.40000000 0.40000000
v 0.07421875 0.30078125 -0.05078125 0.40000000 0.40000000 0.40000000
v 0.07421875 0.30078125 0.09765625 0.40000000 0.40000000 0.40000000
v 0.07421875 0.32421875 -0.05078125 0.40000000 0.40000000 0.40000000
v 0.07421875 0.32421875 0.09765625 0.40000000 0.40000000 0.40000000
v 0.08203125 0.11328125 -0.13671875 0.40000000 0.40000000 0.40000000
v 0.08203125 0.11328125 0.07421875 0.40000000 0.40000000 0.40000000
v 0.08203125 0.13671875 -0.13671875 0.40000000 0.40000000 0.40000000
v 0.08203125 0.13671875 0.07421875 0.40000000 0.40000000 0.40000000
v 0.08203125 0.13671875 0.13671875 0.40000000 0.40000000 0.40000000
v 0.08203125 0.30078125 -0.13671875 0.40000000 0.40000000 0.40000000
v 0.08203125 0.30078125 0.13671875 0.40000000 0.40000000 0.40000000
v 0.08984375 0.11328125 -0.13671875 0.40000000 0.40000000 0.40000000
v 0.08984375 0.11328125 -0.12890625 0.40000000 0.40000000 0.40000000
v 0.09765625 0.12109375 0.13671875 0.40000000 0.40000000 0.40000000
v 0.09765625 0.31640625 -0.13671875 0.40000000 0.40000000 0.40000000
v 0.09765625 0.31640625 0.13671875 0.40000000 0.40000000 0.40000000
v 0.09765625 0.32421875 -0.13671875 0.40000000 0.40000000 0.40000000
v 0.09765625 0.32421875 0.13671875 0.40000000 0.40000000 0.40000000
v 0.10546875 0.11328125 -0.13671875 0.40000000 0.40000000 0.40000000
v 0.10546875 0.11328125 -0.12890625 0.40000000 0.40000000 0.40000000
v 0.10546875 0.11328125 0.11328125 0.40000000 0.40000000 0.40000000
v 0.10546875 0.11328125 0.13671875 0.40000000 0.40000000 0.40000000
v 0.10546875 0.30078125 -0.13671875 0.40000000 0.40000000 0.40000000
v 0.10546875 0.30078125 -0.12890625 0.40000000 0.40000000 0.40000000
v 0.10546875 0.30078125 0.11328125 0.40000000 0.40000000 0.40000000
v 0.10546875 0.30078125 0.13671875 0.40000000 0.40000000 0.40000000
v 0.37890625 -0.31640625 0.11328125 0.40000000 0.40000000 0.40000000
v 0.37890625 -0.31640625 0.13671875 0.40000000 0.40000000 0.40000000
v 0.37890625 0.02734375 0.11328125 0.40000000 0.40000000 0.40000000
v 0.37890625 0.02734375 0.13671875 0.40000000 0.40000000 0.40000000
v 0.37890625 0.30078125 0.11328125 0.40000000 0.40000000 0.40000000
v 0.37890625 0.30078125 0.13671875 0.40000000 0.40000000 0.40000000
v 0.39453125 -0.31640625 -0.13671875 0.40000000 0.40000000 0.40000000
v 0.39453125 -0.31640625 -0.12890625 0.40000000 0.40000000 0.40000000
v 0.39453125 -0.31640625 0.13671875 0.40000000 0.40000000 0.40000000
v 0.39453125 -0.27734375 -0.05078125 0.40000000 0.40000000 0.40000000
v 0.39453125 -0.27734375 0.09765625 0.40000000 0.40000000 0.40000000
v 0.39453125 -0.05859375 -0.05078125 0.40000000 0.40000000 0.40000000
v 0.39453125 -0.05859375 0.09765625 0.40000000 0.40000000 0.40000000
v 0.39453125 0.00390625 -0.13671875 0.40000000 0.40000000 0.40000000
v 0.39453125 0.00390625 -0.12890625 0.40000000 0.40000000 0.40000000
v 0.39453125 0.00390625 0.11328125 0.40000000 0.40000000 0.40000000
v 0.39453125 0.00390625 0.13671875 0.40000000 0.40000000 0.40000000
v 0.39453125 0.02734375 -0.13671875 0.40000000 0.40000000 0.40000000
v 0.39453125 0.02734375 -0.12890625 0.40000000 0.40000000 0.40000000
v 0.39453125 0.02734375 0.13671875 0.40000000 0.40000000 0.40000000
v 0.39453125 0.04296875 -0.05078125 0.40000000 0.40000000 0.40000000
v 0.39453125 0.04296875 0.09765625 0.40000000 0.40000000 0.40000000
v 0.39453125 0.24609375 -0.05078125 0.40000000 0.40000000 0.40000000
v 0.39453125 0.24609375 0.09765625 0.40000000 0.40000000 0.40000000
v 0.39453125 0.30078125 -0.13671875 0.40000000 0.40000000 0.40000000
v 0.39453125 0.30078125 -0.12890625 0.40000000 0.40000000 0.40000000
v 0.39453125 0.30078125 0.13671875 0.40000000 0.40000000 0.40000000
v 0.40234375 0.01171875 -0.13671875 0.40000000 0.40000000 0.40000000
v 0.40234375 0.01171875 0.13671875 0.40000000 0.40000000 0.40000000
v 0.41796875 -0.34765625 -0.13671875 0.40000000 0.40000000 0.40000000
v 0.41796875 -0.34765625 0.13671875 0.40000000 0.40000000 0.40000000
v 0.41796875 -0.27734375 -0.05078125 0.40000000 0.40000000 0.40000000
v 0.41796875 -0.27734375 0.09765625 0.40000000 0.40000000 0.40000000
v 0.41796875 -0.05859375 -0.05078125 0.40000000 0.40000000 0.40000000
v 0.41796875 -0.05859375 0.09765625 0.40000000 0.40000000 0.40000000
v 0.41796875 0.01171875 -0.13671875 0.40000000 0.40000000 0.40000000
v 0.41796875 0.01171875 0.13671875 0.40000000 0.40000000 0.40000000
v 0.41796875 0.04296875 -0.05078125 0.40000000 0.40000000 0.40000000
v 0.41796875 0.04296875 0.09765625 0.40000000 0.40000000 0.40000000
v 0.41796875 0.24609375 -0.05078125 0.40000000 0.40000000 0.40000000
v 0.41796875 0.24609375 0.09765625 0.40000000 0.40000000 0.40000000
v 0.41796875 0.32421875 -0.13671875 0.40000000 0.40000000 0.40000000
v 0.41796875 0.32421875 0.13671875 0.40000000 0.40000000 0.40000000
v -0.38671875 -0.31640625 -0.13671875 0.78431373 0.39215686 0.78431373
v -0.33984375 -0.31640625 -0.13671875 0.78431373 0.39215686 0.78431373
v -0.33984375 -0.24609375 -0.13671875 0.78431373 0.39215686 0.78431373
v -0.38671875 -0.24609375 -0.13671875 0.78431373 0.39215686 0.78431373
v -0.38671875 -0.31640625 -0.08203125 0.78431373 0.39215686 0.78431373
v -0.33984375 -0.31640625 -0.08203125 0.78431373 0.39215686 0.78431373
v -0.33984375 -0.24609375 -0.08203125 0.78431373 0.39215686 0.78431373
v -0.38671875 -0.24609375 -0.08203125 0.78431373 0.39215686 0.78431373
v -0.26171875 -0.31640625 -0.13671875 0.78431373 0.39215686 0.78431373
v -0.26171875 -0.24609375 -0.13671875 0.78431373 0.58823529 0.54901961
v -0.30859375 -0.24609375 -0.13671875 0.78431373 0.39215686 0.78431373
v -0.30859375 -0.31640625 -0.08203125 0.78431373 0.39215686 0.78431373
v -0.26171875 -0.31640625 -0.08203125 0.78431373 0.39215686 0.78431373
v -0.26171875 -0.24609375 -0.08203125 0.78431373 0.39215686 0.78431373
v -0.30859375 -0.24609375 -0.08203125 0.78431373 0.39215686 0.78431373
v -0.39453125 -0.24609375 -0.13671875 0.78431373 0.78431373 0.31372549
v -0.26171875 -0.18359375 -0.13671875 0.78431373 0.78431373 0.31372549
v -0.39453125 -0.18359375 -0.13671875 0.78431373 0.78431373 0.31372549
v -0.39453125 -0.24609375 -0.05078125 0.78431373 0.78431373 0.31372549
v -0.26171875 -0.24609375 -0.05078125 0.78431373 0.78431373 0.31372549
v -0.26171875 -0.18359375 -0.05078125 0.78431373 0.78431373 0.31372549
v -0.39453125 -0.18359375 -0.05078125 0.78431373 0.78431373 0.31372549
v 0.05859375 -0.29296875 -0.13671875 0.00000000 0.54901961 1.00000000
v 0.23046875 -0.29296875 -0.13671875 0.00000000 0.54901961 1.00000000
v 0.23046875 -0.22265625 -0.13671875 0.00000000 0.54901961 1.00000000
v 0.05859375 -0.22265625 -0.13671875 0.00000000 0.54901961 1.00000000
v 0.05859375 -0.29296875 -0.04296875 0.00000000 0.54901961 1.00000000
v 0.23046875 -0.29296875 -0.04296875 0.00000000 0.54901961 1.00000000
v 0.23046875 -0.22265625 -0.04296875 0.00000000 0.54901961 1.00000000
v 0.05859375 -0.22265625 -0.04296875 0.00000000 0.54901961 1.00000000
v -0.38671875 -0.18359375 -0.13671875 0.78431373 0.39215686 0.78431373
v -0.33203125 -0.18359375 -0.13671875 0.78431373 0.39215686 0.78431373
v -0.33203125 -0.10546875 -0.13671875 0.78431373 0.39215686 0.78431373
v -0.38671875 -0.10546875 -0.13671875 0.78431373 0.39215686 0.78431373
v -0.38671875 -0.18359375 -0.08203125 0.78431373 0.39215686 0.78431373
v -0.33203125 -0.18359375 -0.08203125 0.78431373 0.39215686 0.78431373
v -0.33203125 -0.10546875 -0.08203125 0.78431373 0.39215686 0.78431373
v -0.38671875 -0.10546875 -0.08203125 0.78431373 0.39215686 0.78431373
v -0.30859375 -0.18359375 -0.13671875 0.78431373 0.39215686 0.78431373
v -0.24609375 -0.18359375 -0.13671875 0.78431373 0.39215686 0.78431373
v -0.24609375 -0.10546875 -0.13671875 0.78431373 0.39215686 0.78431373
v -0.30859375 -0.10546875 -0.13671875 0.78431373 0.39215686 0.78431373
v -0.30859375 -0.18359375 -0.08203125 0.78431373 0.39215686 0.78431373
v -0.24609375 -0.18359375 -0.08203125 0.78431373 0.39215686 0.78431373
v -0.24609375 -0.10546875 -0.08203125 0.78431373 0.39215686 0.78431373
v -0.30859375 -0.10546875 -0.08203125 0.78431373 0.39215686 0.78431373
v -0.03515625 -0.19140625 -0.13671875 0.00000000 0.54901961 1.00000000
v 0.05078125 -0.19140625 -0.13671875 0.00000000 0.54901961 1.00000000
v 0.05078125 -0.09765625 -0.13671875 0.00000000 0.54901961 1.00000000
v -0.03515625 -0.09765625 -0.13671875 0.00000000 0.54901961 1.00000000
v -0.03515625 -0.19140625 -0.04296875 0.00000000 0.54901961 1.00000000
v 0.05078125 -0.19140625 -0.04296875 0.00000000 0.54901961 1.00000000
v 0.05078125 -0.09765625 -0.04296875 0.00000000 0.54901961 1.00000000
v -0.03515625 -0.09765625 -0.04296875 0.00000000 0.54901961 1.00000000
v 0.25390625 -0.19140625 -0.13671875 0.00000000 0.54901961 1.00000000
v 0.34765625 -0.19140625 -0.13671875 0.00000000 0.54901961 1.00000000
v 0.34765625 -0.10546875 -0.13671875 0.00000000 0.54901961 1.00000000
v 0.25390625 -0.10546875 -0.13671875 0.00000000 0.54901961 1.00000000
v 0.25390625 -0.19140625 -0.04296875 0.00000000 0.54901961 1.00000000
v 0.34765625 -0.19140625 -0.04296875 0.00000000 0.54901961 1.00000000
v 0.34765625 -0.10546875 -0.04296875 0.00000000 0.54901961 1.00000000
v 0.25390625 -0.10546875 -0.04296875 0.00000000 0.54901961 1.00000000
v 0.12890625 -0.13671875 -0.13671875 0.70588235 0.50980392 0.27450980
v 0.19921875 -0.13671875 -0.13671875 0.70588235 0.50980392 0.27450980
v 0.19921875 -0.12109375 -0.13671875 0.70588235 0.50980392 0.27450980
v 0.12890625 -0.12109375 -0.13671875 0.70588235 0.50980392 0.27450980
v 0.12890625 -0.13671875 -0.06640625 0.70588235 0.50980392 0.27450980
v 0.19921875 -0.13671875 -0.06640625 0.70588235 0.50980392 0.27450980
v 0.19921875 -0.12109375 -0.06640625 0.70588235 0.50980392 0.27450980
v 0.12890625 -0.12109375 -0.06640625 0.70588235 0.50980392 0.27450980
v -0.29296875 -0.05078125 -0.13671875 0.70588235 0.50980392 0.27450980
v -0.22265625 -0.05078125 -0.13671875 0.70588235 0.50980392 0.27450980
v -0.22265625 0.01171875 -0.13671875 0.70588235 0.50980392 0.27450980
v -0.29296875 0.01171875 -0.13671875 0.70588235 0.50980392 0.27450980
v -0.29296875 -0.05078125 -0.08984375 0.70588235 0.50980392 0.27450980
v -0.22265625 -0.05078125 -0.08984375 0.70588235 0.50980392 0.27450980
v -0.22265625 0.01171875 -0.08984375 0.70588235 0.50980392 0.27450980
v -0.29296875 0.01171875 -0.08984375 0.70588235 0.50980392 0.27450980
v 0.05859375 -0.05078125 -0.13671875 0.70588235 0.50980392 0.27450980
v 0.23046875 -0.05078125 -0.13671875 0.70588235 0.50980392 0.27450980
v 0.23046875 -0.00390625 -0.13671875 0.70588235 0.50980392 0.27450980
v 0.05859375 -0.00390625 -0.13671875 0.70588235 0.50980392 0.27450980
v 0.05859375 -0.05078125 -0.09765625 0.70588235 0.50980392 0.27450980
v 0.23046875 -0.05078125 -0.09765625 0.70588235 0.50980392 0.27450980
v 0.23046875 -0.00390625 -0.09765625 0.70588235 0.50980392 0.27450980
v 0.05859375 -0.00390625 -0.09765625 0.70588235 0.50980392 0.27450980
v 0.13671875 0.06640625 -0.13671875 0.31372549 0.78431373 0.94117647
v 0.38671875 0.06640625 -0.13671875 0.31372549 0.78431373 0.94117647
v 0.38671875 0.22265625 -0.13671875 0.31372549 0.78431373 0.94117647
v 0.13671875 0.22265625 -0.13671875 0.31372549 0.78431373 0.94117647
v 0.13671875 0.06640625 0.15234375 0.31372549 0.78431373 0.94117647
v 0.38671875 0.06640625 0.15234375 0.31372549 0.78431373 0.94117647
v 0.38671875 0.22265625 0.15234375 0.31372549 0.78431373 0.94117647
v 0.13671875 0.22265625 0.15234375 0.31372549 0.78431373 0.94117647
v -0.31640625 0.29296875 -0.13671875 0.31372549 0.78431373 0.94117647
v -0.24609375 0.29296875 -0.13671875 0.31372549 0.78431373 0.94117647
v -0.24609375 0.42578125 -0.13671875 0.31372549 0.78431373 0.94117647
v -0.31640625 0.42578125 -0.13671875 0.31372549 0.78431373 0.94117647
v -0.31640625 0.29296875 0.05859375 0.31372549 0.78431373 0.94117647
v -0.24609375 0.29296875 0.05859375 0.31372549 0.78431373 0.94117647
v -0.24609375 0.42578125 0.05859375 0.31372549 0.78431373 0.94117647
v -0.31640625 0.42578125 0.05859375 0.31372549 0.78431373 0.94117647
v 0.01953125 -0.19140625 -0.03515625 0.19607843 0.78431373 1.00000000
v 0.24609375 -0.19140625 -0.03515625 0.19607843 0.78431373 1.00000000
v 0.24609375 -0.10546875 -0.03515625 0.19607843 0.78431373 1.00000000
v 0.01953125 -0.10546875 -0.03515625 0.19607843 0.78431373 1.00000000
v 0.01953125 -0.19140625 0.02734375 0.19607843 0.78431373 1.00000000
v 0.24609375 -0.19140625 0.02734375 0.19607843 0.78431373 1.00000000
v 0.24609375 -0.10546875 0.02734375 0.19607843 0.78431373 1.00000000
v 0.01953125 -0.10546875 0.02734375 0.19607843 0.78431373 1.00000000
f 1 116 117
f 1 117 2
f 117 116 236
f 116 1 118
f 1 2 3
f 2 117 119
f 117 236 218
f 236 116 235
f 116 118 217
f 118 1 13
f 1 3 13
f 3 2 4
f 2 119 14
f 119 117 218
f 218 236 242
f 236 235 238
f 235 116 217
f 217 118 127
f 118 13 106
f 13 3 15
f 3 4 11
f 3 4 5
f 4 2 14
f 14 119 107
f 119 218 128
f 218 242 225
f 242 236 238
f 238 235 237
f 235 217 239
f 217 127 128
f 127 118 106
f 106 13 14
f 13 15 16
f 15 3 11
f 3 11 12
f 11 4 12
f 4 3 12
f 3 5 17
f 5 4 6
f 4 14 16
f 14 107 106
f 107 119 128
f 128 218 217
f 218 225 224
f 225 242 227
f 242 238 241
f 238 237 219
f 237 235 239
f 239 217 223
f 128 127 130
f 127 217 129
f 127 106 129
f 106 118 119
f 118 127 128
f 14 13 16
f 13 106 15
f 16 15 61
f 16 15 12
f 15 11 12
f 15 11 62
f 11 3 17
f 12 11 16
f 12 11 20
f 11 12 17
f 12 4 16
f 4 12 20
f 17 5 21
f 5 6 23
f 6 4 8
f 106 107 108
f 107 128 130
f 128 119 118
f 119 107 106
f 217 218 219
f 218 224 220
f 225 227 226
f 225 227 234
f 227 242 287
f 227 242 239
f 241 238 222
f 238 219 220
f 219 237 240
f 237 239 240
f 239 223 226
f 223 217 221
f 130 127 129
f 129 217 223
f 129 106 108
f 15 106 108
f 16 61 111
f 61 15 60
f 15 16 11
f 15 62 60
f 62 11 17
f 11 17 20
f 12 16 123
f 12 20 17
f 4 20 10
f 20 12 126
f 17 21 22
f 17 21 23
f 21 5 23
f 23 6 8
f 8 4 10
f 108 107 109
f 107 130 109
f 217 219 221
f 219 218 220
f 220 224 238
f 225 226 223
f 226 227 239
f 226 227 228
f 225 234 121
f 234 227 287
f 287 242 309
f 242 227 226
f 239 242 226
f 241 222 240
f 222 238 220
f 219 240 221
f 239 226 285
f 226 223 231
f 223 221 222
f 130 129 109
f 129 223 131
f 129 108 109
f 15 108 129
f 16 111 123
f 111 61 84
f 61 60 62
f 62 17 20
f 12 123 126
f 10 20 28
f 20 126 87
f 17 22 18
f 17 23 19
f 5 21 24
f 23 8 26
f 8 10 9
f 225 223 121
f 227 226 230
f 226 228 230
f 228 227 230
f 225 121 120
f 121 234 123
f 287 309 315
f 309 242 239
f 240 222 221
f 239 285 308
f 285 226 231
f 231 223 120
f 223 222 225
f 129 131 110
f 15 129 110
f 123 111 132
f 111 84 83
f 84 61 87
f 61 62 63
f 62 60 85
f 62 20 63
f 126 123 234
f 126 123 122
f 10 28 52
f 20 87 63
f 87 126 124
f 17 18 45
f 19 23 27
f 5 24 7
f 23 26 27
f 26 8 24
f 8 9 7
f 9 10 41
f 121 223 120
f 223 225 120
f 230 228 234
f 120 121 122
f 121 123 122
f 287 315 295
f 315 309 311
f 309 239 308
f 308 285 314
f 285 231 232
f 285 231 279
f 231 120 122
f 110 131 111
f 123 132 234
f 123 132 131
f 111 83 110
f 83 84 87
f 87 61 63
f 85 60 83
f 123 126 124
f 126 122 124
f 122 123 131
f 122 123 124
f 10 52 42
f 52 28 50
f 87 124 85
f 124 126 133
f 45 18 46
f 7 24 8
f 7 9 24
f 9 41 51
f 41 10 42
f 121 120 132
f 230 234 132
f 234 228 231
f 295 315 307
f 315 311 313
f 311 309 308
f 308 314 310
f 314 285 292
f 285 232 286
f 232 231 229
f 232 231 125
f 231 285 24
f 285 279 280
f 279 231 233
f 231 122 124
f 122 120 83
f 111 131 132
f 131 132 120
f 83 87 85
f 124 122 85
f 123 122 132
f 42 52 65
f 52 50 69
f 124 133 122
f 133 126 135
f 24 9 51
f 51 41 64
f 41 42 43
f 234 231 136
f 231 228 229
f 295 307 148
f 307 315 321
f 315 313 312
f 313 311 291
f 311 308 310
f 310 314 312
f 314 292 306
f 292 285 286
f 292 285 290
f 232 229 228
f 231 232 228
f 125 231 124
f 231 24 124
f 24 285 292
f 285 280 287
f 233 231 135
f 231 124 135
f 122 83 85
f 124 85 86
f 42 65 67
f 65 52 69
f 69 50 91
f 122 133 231
f 133 124 125
f 133 135 231
f 135 126 136
f 24 51 47
f 51 64 68
f 64 41 66
f 41 43 66
f 43 42 44
f 148 307 194
f 307 321 298
f 321 315 317
f 315 312 314
f 312 313 291
f 291 311 289
f 311 310 288
f 310 312 288
f 314 306 320
f 306 292 145
f 292 286 293
f 292 290 291
f 290 285 288
f 125 124 86
f 124 24 17
f 285 287 288
f 42 67 44
f 67 65 64
f 65 69 68
f 69 91 103
f 133 125 134
f 24 47 49
f 24 47 48
f 47 51 68
f 68 64 65
f 64 66 67
f 66 43 53
f 43 44 29
f 148 194 159
f 194 307 298
f 298 321 305
f 321 317 319
f 317 315 314
f 312 291 290
f 291 289 287
f 289 311 288
f 288 312 290
f 314 320 316
f 320 306 296
f 306 145 190
f 292 291 294
f 288 287 289
f 44 67 54
f 68 69 70
f 69 103 75
f 24 49 27
f 49 47 90
f 24 48 25
f 48 47 89
f 47 68 88
f 64 68 66
f 67 66 75
f 66 53 76
f 53 43 29
f 29 44 30
f 148 159 154
f 159 194 202
f 298 305 302
f 305 321 278
f 321 319 318
f 319 317 302
f 317 314 316
f 291 287 294
f 316 320 318
f 320 296 303
f 296 306 190
f 190 145 151
f 292 294 145
f 44 54 30
f 54 67 77
f 68 70 94
f 70 69 71
f 69 75 73
f 75 103 77
f 90 47 88
f 89 47 88
f 88 68 94
f 66 68 74
f 67 75 77
f 75 66 74
f 66 76 74
f 76 53 79
f 53 29 33
f 29 30 31
f 148 154 152
f 154 159 157
f 159 202 184
f 298 302 300
f 302 305 303
f 278 321 268
f 321 318 320
f 318 319 302
f 302 317 300
f 317 316 299
f 294 287 295
f 316 318 299
f 320 303 275
f 303 296 297
f 303 296 301
f 296 190 191
f 296 190 281
f 190 151 192
f 151 145 148
f 145 294 147
f 30 54 36
f 54 77 82
f 94 70 95
f 70 71 95
f 71 69 73
f 73 75 74
f 77 103 186
f 90 88 95
f 89 88 93
f 88 94 95
f 74 76 100
f 76 79 114
f 79 53 56
f 53 33 56
f 33 29 31
f 31 30 32
f 148 152 151
f 152 154 192
f 154 157 153
f 157 159 160
f 159 184 204
f 184 202 266
f 298 300 299
f 302 303 301
f 303 305 283
f 278 268 263
f 268 321 270
f 321 320 270
f 318 302 301
f 300 317 299
f 299 318 301
f 320 275 267
f 275 303 277
f 275 303 304
f 303 297 304
f 297 296 191
f 296 303 271
f 301 296 299
f 190 296 199
f 296 281 282
f 281 190 193
f 192 151 152
f 151 190 195
f 30 36 32
f 36 54 59
f 54 82 59
f 82 77 171
f 70 94 96
f 95 71 73
f 73 74 72
f 77 186 171
f 186 103 164
f 90 95 102
f 93 88 92
f 74 100 72
f 100 76 114
f 114 79 82
f 79 56 57
f 79 56 58
f 56 33 34
f 56 33 35
f 33 31 37
f 31 32 215
f 192 154 196
f 154 153 195
f 153 157 199
f 157 160 100
f 157 160 203
f 160 159 164
f 159 204 164
f 204 184 261
f 184 266 261
f 266 202 274
f 298 299 296
f 303 283 277
f 283 305 284
f 278 263 261
f 263 268 208
f 268 270 189
f 270 320 269
f 320 267 269
f 267 275 262
f 275 277 271
f 303 275 271
f 275 304 276
f 296 271 199
f 296 282 298
f 151 195 153
f 32 36 40
f 70 96 72
f 95 73 97
f 73 72 96
f 171 186 208
f 186 164 206
f 102 95 97
f 72 100 96
f 100 114 112
f 114 82 115
f 79 57 80
f 57 56 34
f 56 79 37
f 79 58 81
f 58 56 35
f 34 33 38
f 33 56 37
f 35 33 39
f 33 37 39
f 33 37 38
f 37 31 215
f 215 32 216
f 192 196 201
f 196 154 195
f 195 153 199
f 199 157 183
f 157 100 145
f 160 157 158
f 157 203 183
f 203 160 205
f 164 204 206
f 204 261 260
f 261 266 278
f 266 274 278
f 261 263 262
f 263 208 250
f 208 268 189
f 189 270 210
f 270 269 256
f 269 267 188
f 267 262 207
f 262 275 259
f 275 271 259
f 275 271 276
f 271 277 273
f 32 40 216
f 97 73 96
f 171 208 175
f 208 186 206
f 102 97 96
f 96 100 102
f 100 112 113
f 112 114 113
f 114 115 113
f 115 82 137
f 79 56 55
f 39 37 180
f 38 37 181
f 37 215 180
f 215 216 213
f 192 201 193
f 201 196 195
f 195 199 201
f 199 183 247
f 145 100 88
f 160 158 161
f 158 157 156
f 183 203 247
f 203 205 206
f 205 160 185
f 206 204 203
f 204 260 248
f 278 274 271
f 261 262 259
f 262 263 253
f 263 250 254
f 250 208 207
f 208 189 175
f 189 210 175
f 210 270 256
f 256 269 255
f 269 188 209
f 188 267 207
f 207 262 249
f 259 271 257
f 276 271 272
f 271 273 257
f 216 40 182
f 208 206 205
f 102 100 113
f 114 112 143
f 113 115 144
f 115 137 144
f 137 82 138
f 79 55 78
f 39 180 139
f 180 37 172
f 181 37 180
f 180 215 209
f 215 213 211
f 213 216 214
f 201 199 246
f 199 247 245
f 156 157 155
f 247 203 204
f 205 203 259
f 205 185 207
f 185 160 167
f 204 248 247
f 248 260 246
f 259 262 205
f 262 253 249
f 253 263 254
f 254 250 256
f 250 207 249
f 207 208 205
f 175 210 182
f 210 256 252
f 256 255 253
f 255 269 209
f 209 188 172
f 188 207 172
f 262 207 205
f 259 257 260
f 272 271 264
f 257 273 258
f 216 182 210
f 102 113 163
f 143 112 141
f 113 144 142
f 144 137 170
f 139 180 182
f 180 172 173
f 180 172 178
f 172 37 167
f 181 180 173
f 180 209 172
f 209 215 211
f 211 213 176
f 213 214 179
f 214 216 212
f 201 246 273
f 246 199 245
f 245 247 246
f 167 160 169
f 247 248 246
f 246 260 258
f 249 253 251
f 253 254 256
f 256 250 252
f 250 249 251
f 175 182 179
f 210 252 251
f 253 255 251
f 255 209 251
f 172 207 167
f 260 257 258
f 257 259 245
f 272 264 265
f 258 273 246
f 216 210 212
f 163 113 142
f 143 141 144
f 142 144 141
f 144 170 167
f 139 182 140
f 182 180 179
f 173 172 168
f 180 178 179
f 178 172 176
f 172 167 168
f 172 167 170
f 167 37 79
f 209 211 212
f 211 176 212
f 176 213 178
f 213 179 178
f 179 214 212
f 247 245 259
f 169 160 162
f 160 167 141
f 252 250 251
f 175 179 177
f 210 251 209
f 212 210 209
f 163 142 141
f 143 144 167
f 141 143 185
f 176 172 174
f 172 170 174
f 212 176 177
f 179 212 177
f 169 162 142
f 141 167 143
f 175 177 176
f 163 141 160
f 143 167 185
f 141 185 160
f 176 174 175
f 169 142 144
f 142 162 163
f 167 143 165
f 167 165 185
f 165 143 166
f 166 143 187
f 166 187 167
f 145 146 149
f 149 146 150
f 199 200 197
f 197 200 198
f 200 199 244
f 244 199 243
f 100 101 98
f 98 101 99
f 79 80 104
f 104 80 105
f 322 323 324
f 322 324 325
f 326 329 328
f 326 328 327
f 322 326 327
f 322 327 323
f 325 324 328
f 325 328 329
f 322 325 329
f 322 329 326
f 323 327 328
f 323 328 324
f 62 330 331
f 62 331 332
f 333 336 335
f 333 335 334
f 62 333 334
f 62 334 330
f 332 331 335
f 332 335 336
f 62 332 336
f 62 336 333
f 330 334 335
f 330 335 331
f 337 331 338
f 337 338 339
f 340 343 342
f 340 342 341
f 337 340 341
f 337 341 331
f 339 338 342
f 339 342 343
f 337 339 343
f 337 343 340
f 331 341 342
f 331 342 338
f 344 345 346
f 344 346 347
f 348 351 350
f 348 350 349
f 344 348 349
f 344 349 345
f 347 346 350
f 347 350 351
f 344 347 351
f 344 351 348
f 345 349 350
f 345 350 346
f 352 353 354
f 352 354 355
f 356 359 358
f 356 358 357
f 352 356 357
f 352 357 353
f 355 354 358
f 355 358 359
f 352 355 359
f 352 359 356
f 353 357 358
f 353 358 354
f 360 361 362
f 360 362 363
f 364 367 366
f 364 366 365
f 360 364 365
f 360 365 361
f 363 362 366
f 363 366 367
f 360 363 367
f 360 367 364
f 361 365 366
f 361 366 362
f 368 369 370
f 368 370 371
f 372 375 374
f 372 374 373
f 368 372 373
f 368 373 369
f 371 370 374
f 371 374 375
f 368 371 375
f 368 375 372
f 369 373 374
f 369 374 370
f 376 377 378
f 376 378 379
f 380 383 382
f 380 382 381
f 376 380 381
f 376 381 377
f 379 378 382
f 379 382 383
f 376 379 383
f 376 383 380
f 377 381 382
f 377 382 378
f 384 385 386
f 384 386 387
f 388 391 390
f 388 390 389
f 384 388 389
f 384 389 385
f 387 386 390
f 387 390 391
f 384 387 391
f 384 391 388
f 385 389 390
f 385 390 386
f 392 393 394
f 392 394 395
f 396 399 398
f 396 398 397
f 392 396 397
f 392 397 393
f 395 394 398
f 395 398 399
f 392 395 399
f 392 399 396
f 393 397 398
f 393 398 394
f 400 401 402
f 400 402 403
f 404 407 406
f 404 406 405
f 400 404 405
f 400 405 401
f 403 402 406
f 403 406 407
f 400 403 407
f 400 407 404
f 401 405 406
f 401 406 402
f 408 409 410
f 408 410 411
f 412 415 414
f 412 414 413
f 408 412 413
f 408 413 409
f 411 410 414
f 411 414 415
f 408 411 415
f 408 415 412
f 409 413 414
f 409 414 410
f 416 417 418
f 416 418 419
f 420 423 422
f 420 422 421
f 416 420 421
f 416 421 417
f 419 418 422
f 419 422 423
f 416 419 423
f 416 423 420
f 417 421 422
f 417 422 418
f 424 425 426
f 424 426 427
f 428 431 430
f 428 430 429
f 424 428 429
f 424 429 425
f 427 426 430
f 427 430 431
f 424 427 431
f 424 431 428
f 425 429 430
f 425 430 426

