# https://github.com/mikedh/trimesh
v -0.31640625 -0.49609375 -0.15234375 0.40000000 0.40000000 0.40000000
v -0.31640625 -0.49609375 0.15234375 0.40000000 0.40000000 0.40000000
v -0.31640625 0.01171875 -0.15234375 0.40000000 0.40000000 0.40000000
v -0.31640625 0.01171875 0.15234375 0.40000000 0.40000000 0.40000000
v -0.31640625 0.33203125 -0.15234375 0.40000000 0.40000000 0.40000000
v -0.31640625 0.33203125 0.15234375 0.40000000 0.40000000 0.40000000
v -0.30859375 0.01171875 -0.15234375 0.40000000 0.40000000 0.40000000
v -0.30859375 0.01171875 0.15234375 0.40000000 0.40000000 0.40000000
v -0.30078125 -0.48046875 -0.15234375 0.40000000 0.40000000 0.40000000
v -0.30078125 -0.48046875 -0.13671875 0.40000000 0.40000000 0.40000000
v -0.30078125 -0.48046875 0.15234375 0.40000000 0.40000000 0.40000000
v -0.30078125 -0.47265625 0.15234375 0.40000000 0.40000000 0.40000000
v -0.30078125 0.00390625 -0.15234375 0.40000000 0.40000000 0.40000000
v -0.30078125 0.00390625 -0.13671875 0.40000000 0.40000000 0.40000000
v -0.30078125 0.00390625 0.15234375 0.40000000 0.40000000 0.40000000
v -0.30078125 0.01953125 -0.15234375 0.40000000 0.40000000 0.40000000
v -0.30078125 0.01953125 0.15234375 0.40000000 0.40000000 0.40000000
v -0.30078125 0.30859375 -0.15234375 0.40000000 0.40000000 0.40000000
v -0.30078125 0.30859375 0.15234375 0.40000000 0.40000000 0.40000000
v -0.23828125 -0.49609375 -0.05078125 0.40000000 0.40000000 0.40000000
v -0.23828125 -0.49609375 0.10546875 0.40000000 0.40000000 0.40000000
v -0.23828125 -0.48046875 -0.05078125 0.40000000 0.40000000 0.40000000
v -0.23828125 -0.48046875 0.10546875 0.40000000 0.40000000 0.40000000
v -0.14453125 0.01953125 -0.15234375 0.40000000 0.40000000 0.40000000
v -0.14453125 0.01953125 0.15234375 0.40000000 0.40000000 0.40000000
v -0.14453125 0.02734375 -0.15234375 0.40000000 0.40000000 0.40000000
v -0.14453125 0.02734375 0.09765625 0.40000000 0.40000000 0.40000000
v -0.14453125 0.10546875 -0.15234375 0.40000000 0.40000000 0.40000000
v -0.14453125 0.10546875 0.09765625 0.40000000 0.40000000 0.40000000
v -0.14453125 0.30859375 -0.15234375 0.40000000 0.40000000 0.40000000
v -0.14453125 0.30859375 0.15234375 0.40000000 0.40000000 0.40000000
v -0.13671875 0.00390625 -0.15234375 0.40000000 0.40000000 0.40000000
v -0.13671875 0.00390625 -0.13671875 0.40000000 0.40000000 0.40000000
v -0.13671875 0.00390625 0.15234375 0.40000000 0.40000000 0.40000000
v -0.13671875 0.01171875 -0.15234375 0.40000000 0.40000000 0.40000000
v -0.13671875 0.01171875 0.15234375 0.40000000 0.40000000 0.40000000
v -0.13671875 0.31640625 -0.15234375 0.40000000 0.40000000 0.40000000
v -0.13671875 0.31640625 0.15234375 0.40000000 0.40000000 0.40000000
v -0.13671875 0.33203125 -0.15234375 0.40000000 0.40000000 0.40000000
v -0.13671875 0.33203125 0.15234375 0.40000000 0.40000000 0.40000000
v -0.12890625 0.01953125 -0.15234375 0.40000000 0.40000000 0.40000000
v -0.12890625 0.01953125 0.15234375 0.40000000 0.40000000 0.40000000
v -0.12890625 0.02734375 -0.15234375 0.40000000 0.40000000 0.40000000
v -0.12890625 0.02734375 0.09765625 0.40000000 0.40000000 0.40000000
v -0.12890625 0.10546875 -0.15234375 0.40000000 0.40000000 0.40000000
v -0.12890625 0.10546875 0.09765625 0.40000000 0.40000000 0.40000000
v -0.12890625 0.11328125 -0.15234375 0.40000000 0.40000000 0.40000000
v -0.12890625 0.11328125 -0.13671875 0.40000000 0.40000000 0.40000000
v -0.12890625 0.30859375 -0.15234375 0.40000000 0.40000000 0.40000000
v -0.12890625 0.30859375 -0.13671875 0.40000000 0.40000000 0.40000000
v -0.12890625 0.30859375 0.15234375 0.40000000 0.40000000 0.40000000
v -0.12109375 0.30859375 -0.15234375 0.40000000 0.40000000 0.40000000
v -0.12109375 0.30859375 0.09765625 0.40000000 0.40000000 0.40000000
v -0.12109375 0.33203125 -0.15234375 0.40000000 0.40000000 0.40000000
v -0.12109375 0.33203125 0.09765625 0.40000000 0.40000000 0.40000000
v -0.11328125 0.00390625 -0.15234375 0.40000000 0.40000000 0.40000000
v -0.11328125 0.00390625 -0.13671875 0.40000000 0.40000000 0.40000000
v -0.10546875 0.00390625 -0.15234375 0.40000000 0.40000000 0.40000000
v -0.10546875 0.00390625 0.09765625 0.40000000 0.40000000 0.40000000
v -0.10546875 0.01953125 -0.15234375 0.40000000 0.40000000 0.40000000
v -0.10546875 0.01953125 0.09765625 0.40000000 0.40000000 0.40000000
v -0.02734375 -0.49609375 -0.05078125 0.40000000 0.40000000 0.40000000
v -0.02734375 -0.49609375 0.10546875 0.40000000 0.40000000 0.40000000
v -0.02734375 -0.48046875 -0.05078125 0.40000000 0.40000000 0.40000000
v -0.02734375 -0.48046875 0.10546875 0.40000000 0.40000000 0.40000000
v -0.02734375 0.30859375 -0.15234375 0.40000000 0.40000000 0.40000000
v -0.02734375 0.30859375 0.09765625 0.40000000 0.40000000 0.40000000
v -0.02734375 0.33203125 -0.15234375 0.40000000 0.40000000 0.40000000
v -0.02734375 0.33203125 0.09765625 0.40000000 0.40000000 0.40000000
v -0.01171875 -0.47265625 0.15234375 0.40000000 0.40000000 0.40000000
v -0.01171875 -0.34765625 0.15234375 0.40000000 0.40000000 0.40000000
v -0.01171875 -0.33984375 0.15234375 0.40000000 0.40000000 0.40000000
v -0.01171875 0.00390625 -0.15234375 0.40000000 0.40000000 0.40000000
v -0.01171875 0.00390625 0.09765625 0.40000000 0.40000000 0.40000000
v -0.01171875 0.00390625 0.15234375 0.40000000 0.40000000 0.40000000
v -0.01171875 0.01953125 -0.15234375 0.40000000 0.40000000 0.40000000
v -0.01171875 0.01953125 0.09765625 0.40000000 0.40000000 0.40000000
v -0.00390625 -0.48046875 -0.15234375 0.40000000 0.40000000 0.40000000
v -0.00390625 -0.48046875 -0.13671875 0.40000000 0.40000000 0.40000000
v -0.00390625 -0.48046875 0.15234375 0.40000000 0.40000000 0.40000000
v -0.00390625 -0.34765625 -0.15234375 0.40000000 0.40000000 0.40000000
v -0.00390625 -0.34765625 0.15234375 0.40000000 0.40000000 0.40000000
v -0.00390625 -0.33984375 -0.15234375 0.40000000 0.40000000 0.40000000
v -0.00390625 -0.33984375 -0.13671875 0.40000000 0.40000000 0.40000000
v -0.00390625 -0.33984375 0.15234375 0.40000000 0.40000000 0.40000000
v -0.00390625 0.00390625 -0.15234375 0.40000000 0.40000000 0.40000000
v -0.00390625 0.00390625 -0.13671875 0.40000000 0.40000000 0.40000000
v -0.00390625 0.00390625 0.15234375 0.40000000 0.40000000 0.40000000
v -0.00390625 0.01953125 -0.15234375 0.40000000 0.40000000 0.40000000
v -0.00390625 0.01953125 0.15234375 0.40000000 0.40000000 0.40000000
v -0.00390625 0.03515625 -0.15234375 0.40000000 0.40000000 0.40000000
v -0.00390625 0.03515625 0.11328125 0.40000000 0.40000000 0.40000000
v -0.00390625 0.30078125 -0.15234375 0.40000000 0.40000000 0.40000000
v -0.00390625 0.30078125 0.11328125 0.40000000 0.40000000 0.40000000
v -0.00390625 0.30859375 -0.15234375 0.40000000 0.40000000 0.40000000
v -0.00390625 0.30859375 0.15234375 0.40000000 0.40000000 0.40000000
v -0.00390625 0.33203125 -0.15234375 0.40000000 0.40000000 0.40000000
v -0.00390625 0.33203125 0.15234375 0.40000000 0.40000000 0.40000000
v -0.00390625 0.49609375 -0.15234375 0.40000000 0.40000000 0.40000000
v -0.00390625 0.49609375 0.15234375 0.40000000 0.40000000 0.40000000
v 0.00390625 -0.33984375 -0.15234375 0.40000000 0.40000000 0.40000000
v 0.00390625 0.01171875 -0.15234375 0.40000000 0.40000000 0.40000000
v 0.00390625 0.01171875 0.15234375 0.40000000 0.40000000 0.40000000
v 0.00390625 0.31640625 -0.15234375 0.40000000 0.40000000 0.40000000
v 0.00390625 0.31640625 0.15234375 0.40000000 0.40000000 0.40000000
v 0.01171875 -0.49609375 -0.15234375 0.40000000 0.40000000 0.40000000
v 0.01171875 -0.49609375 0.15234375 0.40000000 0.40000000 0.40000000
v 0.01171875 -0.35546875 -0.15234375 0.40000000 0.40000000 0.40000000
v 0.01171875 -0.35546875 0.15234375 0.40000000 0.40000000 0.40000000
v 0.01171875 -0.34765625 -0.15234375 0.40000000 0.40000000 0.40000000
v 0.01171875 -0.34765625 0.15234375 0.40000000 0.40000000 0.40000000
v 0.01171875 -0.33203125 -0.15234375 0.40000000 0.40000000 0.40000000
v 0.01171875 -0.33203125 -0.13671875 0.40000000 0.40000000 0.40000000
v 0.01171875 -0.33203125 0.15234375 0.40000000 0.40000000 0.40000000
v 0.01171875 0.01171875 -0.15234375 0.40000000 0.40000000 0.40000000
v 0.01171875 0.01171875 -0.13671875 0.40000000 0.40000000 0.40000000
v 0.01171875 0.01171875 0.15234375 0.40000000 0.40000000 0.40000000
v 0.01171875 0.02734375 -0.15234375 0.40000000 0.40000000 0.40000000
v 0.01171875 0.02734375 -0.13671875 0.40000000 0.40000000 0.40000000
v 0.01171875 0.03515625 -0.15234375 0.40000000 0.40000000 0.40000000
v 0.01171875 0.03515625 0.11328125 0.40000000 0.40000000 0.40000000
v 0.01171875 0.30078125 -0.15234375 0.40000000 0.40000000 0.40000000
v 0.01171875 0.30078125 0.11328125 0.40000000 0.40000000 0.40000000
v 0.01171875 0.30859375 -0.15234375 0.40000000 0.40000000 0.40000000
v 0.01171875 0.30859375 -0.13671875 0.40000000 0.40000000 0.40000000
v 0.01171875 0.30859375 0.15234375 0.40000000 0.40000000 0.40000000
v 0.01171875 0.32421875 -0.15234375 0.40000000 0.40000000 0.40000000
v 0.01171875 0.32421875 0.15234375 0.40000000 0.40000000 0.40000000
v 0.01171875 0.48046875 -0.15234375 0.40000000 0.40000000 0.40000000
v 0.01171875 0.48046875 0.15234375 0.40000000 0.40000000 0.40000000
v 0.06640625 0.30859375 -0.15234375 0.40000000 0.40000000 0.40000000
v 0.06640625 0.30859375 -0.13671875 0.40000000 0.40000000 0.40000000
v 0.06640625 0.30859375 0.10546875 0.40000000 0.40000000 0.40000000
v 0.06640625 0.32421875 -0.15234375 0.40000000 0.40000000 0.40000000
v 0.06640625 0.32421875 0.10546875 0.40000000 0.40000000 0.40000000
v 0.08984375 -0.35546875 -0.05078125 0.40000000 0.40000000 0.40000000
v 0.08984375 -0.35546875 0.11328125 0.40000000 0.40000000 0.40000000
v 0.08984375 -0.34765625 -0.05078125 0.40000000 0.40000000 0.40000000
v 0.08984375 -0.34765625 0.11328125 0.40000000 0.40000000 0.40000000
v 0.08984375 -0.33203125 -0.05078125 0.40000000 0.40000000 0.40000000
v 0.08984375 -0.33203125 0.11328125 0.40000000 0.40000000 0.40000000
v 0.23046875 0.30859375 -0.15234375 0.40000000 0.40000000 0.40000000
v 0.23046875 0.30859375 -0.13671875 0.40000000 0.40000000 0.40000000
v 0.23046875 0.30859375 0.10546875 0.40000000 0.40000000 0.40000000
v 0.23046875 0.32421875 -0.15234375 0.40000000 0.40000000 0.40000000
v 0.23046875 0.32421875 0.10546875 0.40000000 0.40000000 0.40000000
v 0.28515625 -0.35546875 -0.05078125 0.40000000 0.40000000 0.40000000
v 0.28515625 -0.35546875 0.11328125 0.40000000 0.40000000 0.40000000
v 0.28515625 -0.34765625 -0.05078125 0.40000000 0.40000000 0.40000000
v 0.28515625 -0.33203125 -0.05078125 0.40000000 0.40000000 0.40000000
v 0.28515625 -0.33203125 0.11328125 0.40000000 0.40000000 0.40000000
v 0.30078125 -0.33203125 -0.15234375 0.40000000 0.40000000 0.40000000
v 0.30078125 -0.33203125 -0.13671875 0.40000000 0.40000000 0.40000000
v 0.30078125 -0.33203125 0.15234375 0.40000000 0.40000000 0.40000000
v 0.30078125 -0.28515625 -0.05078125 0.40000000 0.40000000 0.40000000
v 0.30078125 -0.28515625 0.11328125 0.40000000 0.40000000 0.40000000
v 0.30078125 0.02734375 -0.05078125 0.40000000 0.40000000 0.40000000
v 0.30078125 0.02734375 0.11328125 0.40000000 0.40000000 0.40000000
v 0.30078125 0.14453125 -0.05078125 0.40000000 0.40000000 0.40000000
v 0.30078125 0.14453125 0.11328125 0.40000000 0.40000000 0.40000000
v 0.30078125 0.30859375 -0.15234375 0.40000000 0.40000000 0.40000000
v 0.30078125 0.30859375 -0.13671875 0.40000000 0.40000000 0.40000000
v 0.30078125 0.30859375 0.15234375 0.40000000 0.40000000 0.40000000
v 0.30078125 0.32421875 -0.15234375 0.40000000 0.40000000 0.40000000
v 0.30078125 0.32421875 0.15234375 0.40000000 0.40000000 0.40000000
v 0.30078125 0.48046875 -0.15234375 0.40000000 0.40000000 0.40000000
v 0.30078125 0.48046875 0.15234375 0.40000000 0.40000000 0.40000000
v 0.30859375 0.31640625 -0.15234375 0.40000000 0.40000000 0.40000000
v 0.30859375 0.31640625 0.15234375 0.40000000 0.40000000 0.40000000
v 0.31640625 -0.35546875 -0.15234375 0.40000000 0.40000000 0.40000000
v 0.31640625 -0.35546875 0.15234375 0.40000000 0.40000000 0.40000000
v 0.31640625 -0.28515625 -0.05078125 0.40000000 0.40000000 0.40000000
v 0.31640625 -0.28515625 0.11328125 0.40000000 0.40000000 0.40000000
v 0.31640625 0.02734375 -0.05078125 0.40000000 0.40000000 0.40000000
v 0.31640625 0.02734375 0.11328125 0.40000000 0.40000000 0.40000000
v 0.31640625 0.14453125 -0.05078125 0.40000000 0.40000000 0.40000000
v 0.31640625 0.14453125 0.11328125 0.40000000 0.40000000 0.40000000
v 0.31640625 0.31640625 -0.15234375 0.40000000 0.40000000 0.40000000
v 0.31640625 0.31640625 0.15234375 0.40000000 0.40000000 0.40000000
v 0.31640625 0.49609375 -0.15234375 0.40000000 0.40000000 0.40000000
v 0.31640625 0.49609375 0.15234375 0.40000000 0.40000000 0.40000000
v -0.12109375 -0.47265625 -0.15234375 0.78431373 0.39215686 0.78431373
v -0.03515625 -0.47265625 -0.15234375 0.78431373 0.39215686 0.78431373
v -0.03515625 -0.37109375 -0.15234375 0.78431373 0.39215686 0.78431373
v -0.12109375 -0.37109375 -0.15234375 0.78431373 0.39215686 0.78431373
v -0.12109375 -0.47265625 -0.08984375 0.78431373 0.39215686 0.78431373
v -0.03515625 -0.47265625 -0.08984375 0.78431373 0.39215686 0.78431373
v -0.03515625 -0.37109375 -0.08984375 0.78431373 0.39215686 0.78431373
v -0.12109375 -0.37109375 -0.08984375 0.78431373 0.39215686 0.78431373
v -0.14453125 -0.44921875 -0.15234375 0.70588235 0.50980392 0.27450980
v -0.08984375 -0.44921875 -0.15234375 0.70588235 0.50980392 0.27450980
v -0.08984375 -0.39453125 -0.15234375 0.70588235 0.50980392 0.27450980
v -0.14453125 -0.39453125 -0.15234375 0.70588235 0.50980392 0.27450980
v -0.14453125 -0.44921875 -0.09765625 0.70588235 0.50980392 0.27450980
v -0.08984375 -0.44921875 -0.09765625 0.70588235 0.50980392 0.27450980
v -0.08984375 -0.39453125 -0.09765625 0.70588235 0.50980392 0.27450980
v -0.14453125 -0.39453125 -0.09765625 0.70588235 0.50980392 0.27450980
v -0.22265625 -0.33984375 -0.15234375 0.31372549 0.78431373 0.94117647
v -0.08203125 -0.33984375 -0.15234375 0.31372549 0.78431373 0.94117647
v -0.08203125 -0.19140625 -0.15234375 0.31372549 0.78431373 0.94117647
v -0.22265625 -0.19140625 -0.15234375 0.31372549 0.78431373 0.94117647
v -0.22265625 -0.33984375 0.12890625 0.31372549 0.78431373 0.94117647
v -0.08203125 -0.33984375 0.12890625 0.31372549 0.78431373 0.94117647
v -0.08203125 -0.19140625 0.12890625 0.31372549 0.78431373 0.94117647
v -0.22265625 -0.19140625 0.12890625 0.31372549 0.78431373 0.94117647
v 0.13671875 -0.30859375 -0.15234375 0.78431373 0.39215686 0.78431373
v 0.22265625 -0.30859375 -0.15234375 0.78431373 0.39215686 0.78431373
v 0.22265625 -0.21484375 -0.15234375 0.78431373 0.39215686 0.78431373
v 0.13671875 -0.21484375 -0.15234375 0.78431373 0.39215686 0.78431373
v 0.13671875 -0.30859375 -0.08984375 0.78431373 0.39215686 0.78431373
v 0.22265625 -0.30859375 -0.08984375 0.78431373 0.39215686 0.78431373
v 0.22265625 -0.21484375 -0.08984375 0.78431373 0.39215686 0.78431373
v 0.13671875 -0.21484375 -0.08984375 0.78431373 0.39215686 0.78431373
v 0.23828125 -0.30859375 -0.15234375 0.70588235 0.50980392 0.27450980
v 0.29296875 -0.30859375 -0.15234375 0.70588235 0.50980392 0.27450980
v 0.29296875 -0.25390625 -0.15234375 0.70588235 0.50980392 0.27450980
v 0.23828125 -0.25390625 -0.15234375 0.70588235 0.50980392 0.27450980
v 0.23828125 -0.30859375 -0.08984375 0.70588235 0.50980392 0.27450980
v 0.29296875 -0.30859375 -0.08984375 0.70588235 0.50980392 0.27450980
v 0.29296875 -0.25390625 -0.08984375 0.70588235 0.50980392 0.27450980
v 0.23828125 -0.25390625 -0.08984375 0.70588235 0.50980392 0.27450980
v -0.29296875 -0.24609375 -0.15234375 0.70588235 0.50980392 0.27450980
v -0.24609375 -0.24609375 -0.15234375 0.70588235 0.50980392 0.27450980
v -0.24609375 -0.19140625 -0.15234375 0.70588235 0.50980392 0.27450980
v -0.29296875 -0.19140625 -0.15234375 0.70588235 0.50980392 0.27450980
v -0.29296875 -0.24609375 -0.09765625 0.70588235 0.50980392 0.27450980
v -0.24609375 -0.24609375 -0.09765625 0.70588235 0.50980392 0.27450980
v -0.24609375 -0.19140625 -0.09765625 0.70588235 0.50980392 0.27450980
v -0.29296875 -0.19140625 -0.09765625 0.70588235 0.50980392 0.27450980
v 0.21484375 -0.23828125 -0.15234375 0.00000000 0.54901961 1.00000000
v 0.29296875 -0.23828125 -0.15234375 0.00000000 0.54901961 1.00000000
v 0.29296875 -0.02734375 -0.15234375 0.35294118 0.52941176 0.63529412
v 0.21484375 -0.02734375 -0.15234375 0.00000000 0.54901961 1.00000000
v 0.21484375 -0.23828125 -0.05859375 0.00000000 0.54901961 1.00000000
v 0.29296875 -0.23828125 -0.05859375 0.00000000 0.54901961 1.00000000
v 0.29296875 -0.02734375 -0.05859375 0.00000000 0.54901961 1.00000000
v 0.21484375 -0.02734375 -0.05859375 0.00000000 0.54901961 1.00000000
v 0.01171875 -0.22265625 -0.15234375 0.70588235 0.50980392 0.27450980
v 0.05078125 -0.22265625 -0.15234375 0.70588235 0.50980392 0.27450980
v 0.05078125 -0.04296875 -0.15234375 0.70588235 0.50980392 0.27450980
v 0.01171875 -0.04296875 -0.15234375 0.70588235 0.50980392 0.27450980
v 0.01171875 -0.22265625 -0.11328125 0.70588235 0.50980392 0.27450980
v 0.05078125 -0.22265625 -0.11328125 0.70588235 0.50980392 0.27450980
v 0.05078125 -0.04296875 -0.11328125 0.70588235 0.50980392 0.27450980
v 0.01171875 -0.04296875 -0.11328125 0.70588235 0.50980392 0.27450980
v 0.09765625 -0.18359375 -0.15234375 0.70588235 0.50980392 0.27450980
v 0.17578125 -0.18359375 -0.15234375 0.70588235 0.50980392 0.27450980
v 0.17578125 -0.07421875 -0.15234375 0.70588235 0.50980392 0.27450980
v 0.09765625 -0.07421875 -0.15234375 0.70588235 0.50980392 0.27450980
v 0.09765625 -0.18359375 0.00390625 0.70588235 0.50980392 0.27450980
v 0.17578125 -0.18359375 0.00390625 0.70588235 0.50980392 0.27450980
v 0.17578125 -0.07421875 0.00390625 0.70588235 0.50980392 0.27450980
v 0.09765625 -0.07421875 0.00390625 0.70588235 0.50980392 0.27450980
v 0.11328125 -0.03515625 -0.15234375 0.31372549 0.47058824 0.62745098
v 0.16015625 -0.03515625 -0.15234375 0.31372549 0.47058824 0.62745098
v 0.16015625 0.01171875 -0.15234375 0.31372549 0.47058824 0.62745098
v 0.11328125 0.01171875 -0.15234375 0.31372549 0.47058824 0.62745098
v 0.11328125 -0.03515625 -0.09765625 0.31372549 0.47058824 0.62745098
v 0.16015625 -0.03515625 -0.09765625 0.31372549 0.47058824 0.62745098
v 0.16015625 0.01171875 -0.09765625 0.31372549 0.47058824 0.62745098
v 0.11328125 0.01171875 -0.09765625 0.31372549 0.47058824 0.62745098
v 0.17578125 -0.03515625 -0.15234375 0.31372549 0.47058824 0.62745098
v 0.21484375 -0.03515625 -0.15234375 0.31372549 0.47058824 0.62745098
v 0.21484375 0.01171875 -0.15234375 0.31372549 0.47058824 0.62745098
v 0.17578125 0.01171875 -0.15234375 0.31372549 0.47058824 0.62745098
v 0.17578125 -0.03515625 -0.09765625 0.31372549 0.47058824 0.62745098
v 0.21484375 -0.03515625 -0.09765625 0.31372549 0.47058824 0.62745098
v 0.21484375 0.01171875 -0.09765625 0.31372549 0.47058824 0.62745098
v 0.17578125 0.01171875 -0.09765625 0.31372549 0.47058824 0.62745098
v 0.23828125 -0.02734375 -0.15234375 0.70588235 0.50980392 0.27450980
v 0.29296875 0.02734375 -0.15234375 0.70588235 0.50980392 0.27450980
v 0.23828125 0.02734375 -0.15234375 0.70588235 0.50980392 0.27450980
v 0.23828125 -0.02734375 -0.08984375 0.70588235 0.50980392 0.27450980
v 0.29296875 -0.02734375 -0.08984375 0.70588235 0.50980392 0.27450980
v 0.29296875 0.02734375 -0.08984375 0.70588235 0.50980392 0.27450980
v 0.23828125 0.02734375 -0.08984375 0.70588235 0.50980392 0.27450980
v 0.15234375 0.07421875 -0.15234375 0.78431373 0.39215686 0.78431373
v 0.23828125 0.07421875 -0.15234375 0.78431373 0.39215686 0.78431373
v 0.23828125 0.16796875 -0.15234375 0.78431373 0.39215686 0.78431373
v 0.15234375 0.16796875 -0.15234375 0.78431373 0.39215686 0.78431373
v 0.15234375 0.07421875 -0.09765625 0.78431373 0.39215686 0.78431373
v 0.23828125 0.07421875 -0.09765625 0.78431373 0.39215686 0.78431373
v 0.23828125 0.16796875 -0.09765625 0.78431373 0.39215686 0.78431373
v 0.15234375 0.16796875 -0.09765625 0.78431373 0.39215686 0.78431373
v 0.10546875 0.13671875 -0.15234375 0.78431373 0.78431373 0.31372549
v 0.23046875 0.13671875 -0.15234375 0.78431373 0.78431373 0.31372549
v 0.23046875 0.23046875 -0.15234375 0.78431373 0.78431373 0.31372549
v 0.10546875 0.23046875 -0.15234375 0.78431373 0.78431373 0.31372549
v 0.10546875 0.13671875 -0.01953125 0.78431373 0.78431373 0.31372549
v 0.23046875 0.13671875 -0.01953125 0.78431373 0.78431373 0.31372549
v 0.23046875 0.23046875 -0.01953125 0.78431373 0.78431373 0.31372549
v 0.10546875 0.23046875 -0.01953125 0.78431373 0.78431373 0.31372549
v 0.05859375 0.14453125 -0.15234375 0.78431373 0.39215686 0.78431373
v 0.14453125 0.14453125 -0.15234375 0.78431373 0.39215686 0.78431373
v 0.14453125 0.21484375 -0.15234375 0.78431373 0.39215686 0.78431373
v 0.05859375 0.21484375 -0.15234375 0.78431373 0.39215686 0.78431373
v 0.05859375 0.14453125 -0.09765625 0.78431373 0.39215686 0.78431373
v 0.14453125 0.14453125 -0.09765625 0.78431373 0.39215686 0.78431373
v 0.14453125 0.21484375 -0.09765625 0.78431373 0.39215686 0.78431373
v 0.05859375 0.21484375 -0.09765625 0.78431373 0.39215686 0.78431373
v 0.13671875 0.19140625 -0.15234375 0.78431373 0.39215686 0.78431373
v 0.22265625 0.19140625 -0.15234375 0.78431373 0.39215686 0.78431373
v 0.22265625 0.26171875 -0.15234375 0.78431373 0.39215686 0.78431373
v 0.13671875 0.26171875 -0.15234375 0.78431373 0.39215686 0.78431373
v 0.13671875 0.19140625 -0.09765625 0.78431373 0.39215686 0.78431373
v 0.22265625 0.19140625 -0.09765625 0.78431373 0.39215686 0.78431373
v 0.22265625 0.26171875 -0.09765625 0.78431373 0.39215686 0.78431373
v 0.13671875 0.26171875 -0.09765625 0.78431373 0.39215686 0.78431373
v -0.23046875 -0.33984375 0.04296875 0.19607843 0.78431373 1.00000000
v -0.08203125 -0.33984375 0.04296875 0.19607843 0.78431373 1.00000000
v -0.08203125 -0.24609375 0.04296875 0.19607843 0.78431373 1.00000000
v -0.23046875 -0.24609375 0.04296875 0.19607843 0.78431373 1.00000000
v -0.23046875 -0.33984375 0.13671875 0.19607843 0.78431373 1.00000000
v -0.08203125 -0.33984375 0.13671875 0.19607843 0.78431373 1.00000000
v -0.08203125 -0.24609375 0.13671875 0.19607843 0.78431373 1.00000000
v -0.23046875 -0.24609375 0.13671875 0.19607843 0.78431373 1.00000000
v 0.15234375 -0.17578125 0.07421875 0.19607843 0.78431373 1.00000000
v 0.19140625 -0.17578125 0.07421875 0.19607843 0.78431373 1.00000000
v 0.19140625 -0.08203125 0.07421875 0.19607843 0.78431373 1.00000000
v 0.15234375 -0.08203125 0.07421875 0.19607843 0.78431373 1.00000000
v 0.15234375 -0.17578125 0.14453125 0.19607843 0.78431373 1.00000000
v 0.19140625 -0.17578125 0.14453125 0.19607843 0.78431373 1.00000000
v 0.19140625 -0.08203125 0.14453125 0.19607843 0.78431373 1.00000000
v 0.15234375 -0.08203125 0.14453125 0.19607843 0.78431373 1.00000000
v 0.13671875 0.13671875 0.07421875 0.19607843 0.78431373 1.00000000
v 0.16796875 0.13671875 0.07421875 0.19607843 0.78431373 1.00000000
v 0.16796875 0.19921875 0.07421875 0.19607843 0.78431373 1.00000000
v 0.13671875 0.19921875 0.07421875 0.19607843 0.78431373 1.00000000
v 0.13671875 0.13671875 0.14453125 0.19607843 0.78431373 1.00000000
v 0.16796875 0.13671875 0.14453125 0.19607843 0.78431373 1.00000000
v 0.16796875 0.19921875 0.14453125 0.19607843 0.78431373 1.00000000
v 0.13671875 0.19921875 0.14453125 0.19607843 0.78431373 1.00000000
f 1 106 20
f 1 20 21
f 20 106 62
f 106 1 78
f 1 21 2
f 21 20 22
f 20 62 22
f 62 106 107
f 106 78 110
f 78 1 9
f 1 2 3
f 2 21 107
f 21 22 23
f 22 62 64
f 62 107 63
f 107 106 109
f 106 110 111
f 110 78 101
f 78 9 10
f 78 9 64
f 9 1 7
f 1 3 7
f 3 2 4
f 2 107 80
f 107 21 63
f 21 23 65
f 23 22 11
f 22 64 9
f 64 62 65
f 62 63 65
f 107 109 82
f 109 106 108
f 111 110 139
f 110 101 112
f 101 78 83
f 78 10 79
f 10 9 14
f 9 78 83
f 78 64 65
f 9 7 13
f 7 3 5
f 3 4 5
f 4 2 8
f 2 80 11
f 80 107 82
f 63 21 65
f 65 23 11
f 11 22 9
f 82 109 114
f 109 108 137
f 108 106 81
f 111 139 171
f 139 110 138
f 110 112 152
f 112 101 86
f 101 83 86
f 83 78 79
f 83 78 80
f 14 9 13
f 9 83 86
f 78 65 80
f 9 13 15
f 13 7 16
f 7 5 16
f 5 4 6
f 4 8 6
f 8 2 11
f 11 80 65
f 80 82 81
f 11 9 15
f 82 114 103
f 114 109 154
f 109 137 171
f 137 108 136
f 108 81 112
f 81 106 78
f 111 171 154
f 171 139 148
f 139 138 140
f 138 110 170
f 110 152 170
f 152 112 113
f 152 112 150
f 112 86 115
f 86 83 84
f 86 83 85
f 83 79 84
f 83 80 85
f 14 13 33
f 13 9 32
f 9 86 32
f 15 13 34
f 13 16 24
f 16 5 18
f 5 6 39
f 6 8 17
f 8 11 15
f 80 81 78
f 81 82 86
f 82 103 88
f 103 114 117
f 114 154 151
f 154 109 171
f 171 137 148
f 137 136 140
f 136 108 170
f 108 112 152
f 154 171 169
f 171 148 147
f 148 139 151
f 139 140 141
f 140 138 149
f 138 170 147
f 170 152 168
f 152 113 153
f 113 112 116
f 112 152 161
f 152 150 151
f 150 112 140
f 112 115 117
f 112 115 116
f 115 86 102
f 86 84 87
f 86 85 88
f 33 13 32
f 13 32 34
f 15 34 25
f 13 24 32
f 24 16 17
f 16 18 19
f 18 5 30
f 5 39 37
f 39 6 40
f 6 17 19
f 17 8 15
f 86 82 88
f 88 103 90
f 103 117 105
f 117 114 112
f 114 151 141
f 151 154 152
f 148 137 151
f 137 140 141
f 140 136 147
f 136 170 147
f 170 108 152
f 154 169 163
f 169 171 179
f 171 147 170
f 147 148 151
f 151 139 141
f 141 140 114
f 140 149 150
f 149 138 147
f 170 168 178
f 168 152 161
f 152 153 161
f 112 161 124
f 161 152 159
f 151 150 149
f 140 112 114
f 117 115 121
f 115 112 161
f 115 102 91
f 102 86 89
f 88 85 72
f 33 32 57
f 34 32 59
f 15 25 17
f 25 34 36
f 32 24 35
f 24 17 25
f 17 16 19
f 16 24 30
f 19 18 31
f 18 16 30
f 18 30 31
f 30 5 37
f 37 39 49
f 39 40 54
f 40 6 38
f 6 19 31
f 88 82 71
f 88 90 42
f 90 103 96
f 103 105 96
f 105 117 126
f 152 154 155
f 163 169 168
f 163 169 165
f 169 179 178
f 169 179 167
f 179 171 173
f 171 170 173
f 170 178 172
f 178 168 166
f 178 168 169
f 168 161 164
f 168 161 163
f 161 153 162
f 161 159 160
f 159 152 157
f 117 121 126
f 121 115 120
f 115 161 124
f 115 91 120
f 91 102 89
f 89 86 76
f 88 72 75
f 72 85 70
f 57 32 56
f 34 59 88
f 59 32 58
f 25 36 31
f 36 34 42
f 32 35 41
f 35 24 26
f 24 25 26
f 31 30 29
f 30 37 28
f 37 49 45
f 49 39 52
f 39 54 52
f 54 40 55
f 40 38 51
f 38 6 31
f 88 71 75
f 88 42 34
f 42 90 77
f 90 96 94
f 96 105 104
f 96 105 98
f 105 126 128
f 105 126 124
f 152 155 157
f 155 154 156
f 154 163 160
f 168 169 161
f 168 169 164
f 169 163 161
f 163 165 128
f 165 169 167
f 165 169 168
f 178 179 168
f 178 179 176
f 179 169 168
f 167 179 181
f 179 173 175
f 173 170 172
f 172 178 176
f 178 166 180
f 166 168 164
f 168 164 165
f 164 161 145
f 163 161 160
f 161 162 142
f 160 159 176
f 159 157 176
f 126 121 123
f 121 120 91
f 91 89 90
f 89 76 77
f 76 86 73
f 70 85 80
f 88 59 74
f 59 58 60
f 58 32 41
f 25 31 29
f 31 36 38
f 36 42 38
f 41 35 26
f 26 25 27
f 29 30 28
f 28 37 45
f 45 49 51
f 49 52 53
f 52 54 53
f 54 55 53
f 55 40 69
f 40 51 96
f 51 38 42
f 42 77 61
f 77 90 89
f 90 94 92
f 94 96 95
f 96 104 95
f 104 105 95
f 104 105 124
f 104 105 97
f 104 105 127
f 105 96 95
f 96 98 40
f 98 105 100
f 98 105 104
f 105 128 127
f 105 128 100
f 128 126 163
f 126 105 104
f 124 126 122
f 124 126 104
f 157 155 174
f 155 156 173
f 156 154 158
f 154 160 158
f 163 165 126
f 164 169 165
f 161 163 142
f 128 165 146
f 165 167 166
f 179 178 181
f 176 179 177
f 167 181 100
f 179 175 177
f 175 173 158
f 173 172 155
f 172 176 155
f 178 180 181
f 180 166 99
f 166 164 165
f 165 164 146
f 164 145 146
f 145 161 142
f 142 162 143
f 160 176 177
f 176 157 174
f 126 123 122
f 123 121 94
f 121 91 92
f 91 120 93
f 91 90 92
f 77 76 73
f 73 86 88
f 70 80 12
f 88 74 73
f 74 59 77
f 59 60 61
f 60 58 73
f 60 58 41
f 25 29 27
f 41 26 43
f 26 27 44
f 29 28 45
f 45 51 46
f 51 49 53
f 54 52 66
f 53 55 69
f 69 40 98
f 96 51 53
f 51 42 44
f 42 61 60
f 61 77 59
f 92 94 121
f 94 95 93
f 95 96 66
f 95 104 93
f 104 95 97
f 105 104 128
f 104 124 122
f 104 97 98
f 104 97 99
f 97 105 98
f 104 127 124
f 104 127 128
f 98 100 99
f 127 128 134
f 100 128 130
f 163 126 133
f 126 124 133
f 174 155 172
f 173 156 158
f 158 160 175
f 126 165 128
f 142 163 144
f 128 146 135
f 166 167 129
f 167 100 130
f 100 181 180
f 177 175 160
f 180 99 100
f 99 166 129
f 164 166 127
f 146 145 142
f 174 157 175
f 122 123 94
f 93 120 122
f 77 73 74
f 73 76 60
f 12 80 11
f 60 41 42
f 27 29 44
f 41 43 44
f 43 26 44
f 29 45 46
f 45 28 43
f 46 51 44
f 54 66 68
f 53 69 67
f 69 98 97
f 96 53 67
f 44 42 41
f 94 93 122
f 95 66 68
f 66 96 67
f 93 104 122
f 97 95 68
f 104 99 127
f 99 97 98
f 124 127 131
f 128 127 130
f 127 134 131
f 134 128 135
f 163 133 144
f 133 124 131
f 142 144 146
f 135 146 133
f 166 129 127
f 129 167 130
f 99 129 127
f 142 145 134
f 175 157 158
f 44 29 46
f 26 43 28
f 68 66 69
f 67 69 66
f 69 97 68
f 124 131 132
f 130 127 129
f 131 134 133
f 134 135 133
f 144 133 146
f 142 134 131
f 124 132 125
f 115 119 118
f 119 115 116
f 41 89 95
f 41 95 49
f 47 50 49
f 50 47 48
f 182 183 184
f 182 184 185
f 186 189 188
f 186 188 187
f 182 186 187
f 182 187 183
f 185 184 188
f 185 188 189
f 182 185 189
f 182 189 186
f 183 187 188
f 183 188 184
f 190 191 192
f 190 192 193
f 194 197 196
f 194 196 195
f 190 194 195
f 190 195 191
f 193 192 196
f 193 196 197
f 190 193 197
f 190 197 194
f 191 195 196
f 191 196 192
f 198 199 200
f 198 200 201
f 202 205 204
f 202 204 203
f 198 202 203
f 198 203 199
f 201 200 204
f 201 204 205
f 198 201 205
f 198 205 202
f 199 203 204
f 199 204 200
f 206 207 208
f 206 208 209
f 210 213 212
f 210 212 211
f 206 210 211
f 206 211 207
f 209 208 212
f 209 212 213
f 206 209 213
f 206 213 210
f 207 211 212
f 207 212 208
f 214 215 216
f 214 216 217
f 218 221 220
f 218 220 219
f 214 218 219
f 214 219 215
f 217 216 220
f 217 220 221
f 214 217 221
f 214 221 218
f 215 219 220
f 215 220 216
f 222 223 224
f 222 224 225
f 226 229 228
f 226 228 227
f 222 226 227
f 222 227 223
f 225 224 228
f 225 228 229
f 222 225 229
f 222 229 226
f 223 227 228
f 223 228 224
f 230 231 232
f 230 232 233
f 234 237 236
f 234 236 235
f 230 234 235
f 230 235 231
f 233 232 236
f 233 236 237
f 230 233 237
f 230 237 234
f 231 235 236
f 231 236 232
f 238 239 240
f 238 240 241
f 242 245 244
f 242 244 243
f 238 242 243
f 238 243 239
f 241 240 244
f 241 244 245
f 238 241 245
f 238 245 242
f 239 243 244
f 239 244 240
f 246 247 248
f 246 248 249
f 250 253 252
f 250 252 251
f 246 250 251
f 246 251 247
f 249 248 252
f 249 252 253
f 246 249 253
f 246 253 250
f 247 251 252
f 247 252 248
f 254 255 256
f 254 256 257
f 258 261 260
f 258 260 259
f 254 258 259
f 254 259 255
f 257 256 260
f 257 260 261
f 254 257 261
f 254 261 258
f 255 259 260
f 255 260 256
f 262 263 264
f 262 264 265
f 266 269 268
f 266 268 267
f 262 266 267
f 262 267 263
f 265 264 268
f 265 268 269
f 262 265 269
f 262 269 266
f 263 267 268
f 263 268 264
f 270 232 271
f 270 271 272
f 273 276 275
f 273 275 274
f 270 273 274
f 270 274 232
f 272 271 275
f 272 275 276
f 270 272 276
f 270 276 273
f 232 274 275
f 232 275 271
f 277 278 279
f 277 279 280
f 281 284 283
f 281 283 282
f 277 281 282
f 277 282 278
f 280 279 283
f 280 283 284
f 277 280 284
f 277 284 281
f 278 282 283
f 278 283 279
f 285 286 287
f 285 287 288
f 289 292 291
f 289 291 290
f 285 289 290
f 285 290 286
f 288 287 291
f 288 291 292
f 285 288 292
f 285 292 289
f 286 290 291
f 286 291 287
f 293 294 295
f 293 295 296
f 297 300 299
f 297 299 298
f 293 297 298
f 293 298 294
f 296 295 299
f 296 299 300
f 293 296 300
f 293 300 297
f 294 298 299
f 294 299 295
f 301 302 303
f 301 303 304
f 305 308 307
f 305 307 306
f 301 305 306
f 301 306 302
f 304 303 307
f 304 307 308
f 301 304 308
f 301 308 305
f 302 306 307
f 302 307 303
f 309 310 311
f 309 311 312
f 313 316 315
f 313 315 314
f 309 313 314
f 309 314 310
f 312 311 315
f 312 315 316
f 309 312 316
f 309 316 313
f 310 314 315
f 310 315 311
f 317 318 319
f 317 319 320
f 321 324 323
f 321 323 322
f 317 321 322
f 317 322 318
f 320 319 323
f 320 323 324
f 317 320 324
f 317 324 321
f 318 322 323
f 318 323 319
f 325 326 327
f 325 327 328
f 329 332 331
f 329 331 330
f 325 329 330
f 325 330 326
f 328 327 331
f 328 331 332
f 325 328 332
f 325 332 329
f 326 330 331
f 326 331 327

