# https://github.com/mikedh/trimesh
v -0.49609375 -0.13671875 -0.08984375 0.40000000 0.40000000 0.40000000
v -0.49609375 -0.13671875 0.08984375 0.40000000 0.40000000 0.40000000
v -0.49609375 -0.08203125 -0.07421875 0.40000000 0.40000000 0.40000000
v -0.49609375 -0.08203125 0.05859375 0.40000000 0.40000000 0.40000000
v -0.49609375 0.06640625 -0.07421875 0.40000000 0.40000000 0.40000000
v -0.49609375 0.06640625 0.05859375 0.40000000 0.40000000 0.40000000
v -0.49609375 0.10546875 -0.08984375 0.40000000 0.40000000 0.40000000
v -0.49609375 0.10546875 0.08984375 0.40000000 0.40000000 0.40000000
v -0.49609375 0.20703125 -0.07421875 0.40000000 0.40000000 0.40000000
v -0.49609375 0.20703125 0.05859375 0.40000000 0.40000000 0.40000000
v -0.49609375 0.34765625 -0.07421875 0.40000000 0.40000000 0.40000000
v -0.49609375 0.34765625 0.05859375 0.40000000 0.40000000 0.40000000
v -0.49609375 0.44140625 -0.08984375 0.40000000 0.40000000 0.40000000
v -0.49609375 0.44140625 0.08984375 0.40000000 0.40000000 0.40000000
v -0.48828125 -0.12890625 -0.08984375 0.40000000 0.40000000 0.40000000
v -0.48828125 -0.12890625 0.08984375 0.40000000 0.40000000 0.40000000
v -0.48828125 0.10546875 -0.08984375 0.40000000 0.40000000 0.40000000
v -0.48828125 0.10546875 0.08984375 0.40000000 0.40000000 0.40000000
v -0.48828125 0.43359375 -0.08984375 0.40000000 0.40000000 0.40000000
v -0.48828125 0.43359375 0.08984375 0.40000000 0.40000000 0.40000000
v -0.48046875 -0.12109375 -0.08984375 0.40000000 0.40000000 0.40000000
v -0.48046875 -0.12109375 0.08984375 0.40000000 0.40000000 0.40000000
v -0.48046875 -0.08203125 -0.07421875 0.40000000 0.40000000 0.40000000
v -0.48046875 -0.08203125 0.05859375 0.40000000 0.40000000 0.40000000
v -0.48046875 0.06640625 -0.07421875 0.40000000 0.40000000 0.40000000
v -0.48046875 0.06640625 0.05859375 0.40000000 0.40000000 0.40000000
v -0.48046875 0.09765625 -0.08984375 0.40000000 0.40000000 0.40000000
v -0.48046875 0.09765625 0.08984375 0.40000000 0.40000000 0.40000000
v -0.48046875 0.12109375 -0.08984375 0.40000000 0.40000000 0.40000000
v -0.48046875 0.12109375 0.08984375 0.40000000 0.40000000 0.40000000
v -0.48046875 0.20703125 -0.07421875 0.40000000 0.40000000 0.40000000
v -0.48046875 0.20703125 0.05859375 0.40000000 0.40000000 0.40000000
v -0.48046875 0.34765625 -0.07421875 0.40000000 0.40000000 0.40000000
v -0.48046875 0.34765625 0.05859375 0.40000000 0.40000000 0.40000000
v -0.48046875 0.42578125 -0.08984375 0.40000000 0.40000000 0.40000000
v -0.48046875 0.42578125 0.08984375 0.40000000 0.40000000 0.40000000
v -0.14453125 -0.25390625 -0.08984375 0.40000000 0.40000000 0.40000000
v -0.14453125 -0.25390625 0.08984375 0.40000000 0.40000000 0.40000000
v -0.14453125 -0.21484375 -0.08984375 0.40000000 0.40000000 0.40000000
v -0.14453125 -0.21484375 0.05078125 0.40000000 0.40000000 0.40000000
v -0.14453125 -0.15234375 -0.08984375 0.40000000 0.40000000 0.40000000
v -0.14453125 -0.15234375 0.05078125 0.40000000 0.40000000 0.40000000
v -0.14453125 -0.13671875 -0.08984375 0.40000000 0.40000000 0.40000000
v -0.14453125 -0.13671875 0.08984375 0.40000000 0.40000000 0.40000000
v -0.14453125 -0.12109375 -0.08984375 0.40000000 0.40000000 0.40000000
v -0.14453125 -0.12109375 0.08984375 0.40000000 0.40000000 0.40000000
v -0.14453125 0.04296875 -0.08984375 0.40000000 0.40000000 0.40000000
v -0.14453125 0.04296875 0.05078125 0.40000000 0.40000000 0.40000000
v -0.14453125 0.09765625 -0.08984375 0.40000000 0.40000000 0.40000000
v -0.14453125 0.09765625 0.05078125 0.40000000 0.40000000 0.40000000
v -0.14453125 0.09765625 0.08984375 0.40000000 0.40000000 0.40000000
v -0.14453125 0.12109375 -0.08984375 0.40000000 0.40000000 0.40000000
v -0.14453125 0.12109375 0.08984375 0.40000000 0.40000000 0.40000000
v -0.14453125 0.13671875 -0.08984375 0.40000000 0.40000000 0.40000000
v -0.14453125 0.13671875 0.05078125 0.40000000 0.40000000 0.40000000
v -0.14453125 0.19140625 -0.08984375 0.40000000 0.40000000 0.40000000
v -0.14453125 0.19140625 0.05078125 0.40000000 0.40000000 0.40000000
v -0.14453125 0.25390625 -0.08984375 0.40000000 0.40000000 0.40000000
v -0.14453125 0.25390625 0.08984375 0.40000000 0.40000000 0.40000000
v -0.14453125 0.42578125 -0.08984375 0.40000000 0.40000000 0.40000000
v -0.14453125 0.42578125 0.08984375 0.40000000 0.40000000 0.40000000
v -0.13671875 -0.24609375 -0.08984375 0.40000000 0.40000000 0.40000000
v -0.13671875 -0.24609375 0.08984375 0.40000000 0.40000000 0.40000000
v -0.13671875 -0.12890625 -0.08984375 0.40000000 0.40000000 0.40000000
v -0.13671875 -0.12890625 0.08984375 0.40000000 0.40000000 0.40000000
v -0.13671875 0.10546875 -0.08984375 0.40000000 0.40000000 0.40000000
v -0.13671875 0.10546875 0.08984375 0.40000000 0.40000000 0.40000000
v -0.13671875 0.25390625 -0.08984375 0.40000000 0.40000000 0.40000000
v -0.13671875 0.25390625 0.08984375 0.40000000 0.40000000 0.40000000
v -0.13671875 0.43359375 -0.08984375 0.40000000 0.40000000 0.40000000
v -0.13671875 0.43359375 0.08984375 0.40000000 0.40000000 0.40000000
v -0.13671875 0.44140625 -0.08984375 0.40000000 0.40000000 0.40000000
v -0.13671875 0.44140625 0.08984375 0.40000000 0.40000000 0.40000000
v -0.12890625 -0.23828125 -0.08984375 0.40000000 0.40000000 0.40000000
v -0.12890625 -0.23828125 0.08984375 0.40000000 0.40000000 0.40000000
v -0.12890625 -0.21484375 -0.08984375 0.40000000 0.40000000 0.40000000
v -0.12890625 -0.21484375 0.05078125 0.40000000 0.40000000 0.40000000
v -0.12890625 -0.15234375 -0.08984375 0.40000000 0.40000000 0.40000000
v -0.12890625 -0.15234375 0.05078125 0.40000000 0.40000000 0.40000000
v -0.12890625 -0.12890625 -0.08984375 0.40000000 0.40000000 0.40000000
v -0.12890625 -0.12890625 0.08984375 0.40000000 0.40000000 0.40000000
v -0.12890625 0.04296875 -0.08984375 0.40000000 0.40000000 0.40000000
v -0.12890625 0.04296875 0.05078125 0.40000000 0.40000000 0.40000000
v -0.12890625 0.09765625 -0.08984375 0.40000000 0.40000000 0.40000000
v -0.12890625 0.09765625 0.05078125 0.40000000 0.40000000 0.40000000
v -0.12890625 0.10546875 -0.08984375 0.40000000 0.40000000 0.40000000
v -0.12890625 0.10546875 0.08984375 0.40000000 0.40000000 0.40000000
v -0.12890625 0.13671875 -0.08984375 0.40000000 0.40000000 0.40000000
v -0.12890625 0.13671875 0.05078125 0.40000000 0.40000000 0.40000000
v -0.12890625 0.19140625 -0.08984375 0.40000000 0.40000000 0.40000000
v -0.12890625 0.19140625 0.05078125 0.40000000 0.40000000 0.40000000
v -0.12890625 0.25390625 -0.08984375 0.40000000 0.40000000 0.40000000
v -0.12890625 0.25390625 0.08984375 0.40000000 0.40000000 0.40000000
v -0.12890625 0.26171875 -0.08984375 0.40000000 0.40000000 0.40000000
v -0.12890625 0.26171875 0.08984375 0.40000000 0.40000000 0.40000000
v -0.12890625 0.42578125 -0.08984375 0.40000000 0.40000000 0.40000000
v -0.12890625 0.42578125 0.08984375 0.40000000 0.40000000 0.40000000
v -0.10546875 0.42578125 -0.08984375 0.40000000 0.40000000 0.40000000
v -0.10546875 0.42578125 0.05859375 0.40000000 0.40000000 0.40000000
v -0.10546875 0.44140625 -0.08984375 0.40000000 0.40000000 0.40000000
v -0.10546875 0.44140625 0.05859375 0.40000000 0.40000000 0.40000000
v -0.05078125 0.42578125 -0.08984375 0.40000000 0.40000000 0.40000000
v -0.05078125 0.42578125 0.05859375 0.40000000 0.40000000 0.40000000
v -0.05078125 0.44140625 -0.08984375 0.40000000 0.40000000 0.40000000
v -0.05078125 0.44140625 0.05859375 0.40000000 0.40000000 0.40000000
v -0.02734375 -0.44140625 -0.08984375 0.40000000 0.40000000 0.40000000
v -0.02734375 -0.44140625 0.08984375 0.40000000 0.40000000 0.40000000
v -0.02734375 -0.25390625 -0.08984375 0.40000000 0.40000000 0.40000000
v -0.02734375 -0.25390625 0.08984375 0.40000000 0.40000000 0.40000000
v -0.02734375 -0.23828125 -0.08984375 0.40000000 0.40000000 0.40000000
v -0.02734375 -0.23828125 0.08984375 0.40000000 0.40000000 0.40000000
v -0.02734375 -0.21484375 -0.08984375 0.40000000 0.40000000 0.40000000
v -0.02734375 -0.21484375 0.05078125 0.40000000 0.40000000 0.40000000
v -0.02734375 -0.15234375 -0.08984375 0.40000000 0.40000000 0.40000000
v -0.02734375 -0.15234375 0.05078125 0.40000000 0.40000000 0.40000000
v -0.02734375 -0.12109375 -0.08984375 0.40000000 0.40000000 0.40000000
v -0.02734375 -0.12109375 0.08984375 0.40000000 0.40000000 0.40000000
v -0.01953125 -0.43359375 -0.08984375 0.40000000 0.40000000 0.40000000
v -0.01953125 -0.43359375 0.08984375 0.40000000 0.40000000 0.40000000
v -0.01953125 -0.24609375 -0.08984375 0.40000000 0.40000000 0.40000000
v -0.01953125 -0.24609375 0.08984375 0.40000000 0.40000000 0.40000000
v -0.01953125 -0.12890625 -0.08984375 0.40000000 0.40000000 0.40000000
v -0.01953125 -0.12890625 0.08984375 0.40000000 0.40000000 0.40000000
v -0.01953125 0.26171875 -0.08984375 0.40000000 0.40000000 0.40000000
v -0.01953125 0.26171875 0.08984375 0.40000000 0.40000000 0.40000000
v -0.01953125 0.26953125 -0.08984375 0.40000000 0.40000000 0.40000000
v -0.01953125 0.26953125 0.06640625 0.40000000 0.40000000 0.40000000
v -0.01953125 0.41015625 -0.08984375 0.40000000 0.40000000 0.40000000
v -0.01953125 0.41015625 0.06640625 0.40000000 0.40000000 0.40000000
v -0.01953125 0.42578125 -0.08984375 0.40000000 0.40000000 0.40000000
v -0.01953125 0.42578125 0.08984375 0.40000000 0.40000000 0.40000000
v -0.01171875 -0.42578125 -0.08984375 0.40000000 0.40000000 0.40000000
v -0.01171875 -0.42578125 0.08984375 0.40000000 0.40000000 0.40000000
v -0.01171875 -0.24609375 -0.08984375 0.40000000 0.40000000 0.40000000
v -0.01171875 -0.24609375 0.08984375 0.40000000 0.40000000 0.40000000
v -0.01171875 -0.21484375 -0.08984375 0.40000000 0.40000000 0.40000000
v -0.01171875 -0.21484375 0.05078125 0.40000000 0.40000000 0.40000000
v -0.01171875 -0.15234375 -0.08984375 0.40000000 0.40000000 0.40000000
v -0.01171875 -0.15234375 0.05078125 0.40000000 0.40000000 0.40000000
v -0.01171875 -0.13671875 -0.08984375 0.40000000 0.40000000 0.40000000
v -0.01171875 -0.13671875 0.08984375 0.40000000 0.40000000 0.40000000
v -0.01171875 0.25390625 0.08984375 0.40000000 0.40000000 0.40000000
v -0.01171875 0.43359375 -0.08984375 0.40000000 0.40000000 0.40000000
v -0.01171875 0.43359375 0.08984375 0.40000000 0.40000000 0.40000000
v -0.01171875 0.44140625 -0.08984375 0.40000000 0.40000000 0.40000000
v -0.01171875 0.44140625 0.08984375 0.40000000 0.40000000 0.40000000
v -0.00390625 0.25390625 -0.08984375 0.40000000 0.40000000 0.40000000
v -0.00390625 0.25390625 0.08984375 0.40000000 0.40000000 0.40000000
v -0.00390625 0.26953125 -0.08984375 0.40000000 0.40000000 0.40000000
v -0.00390625 0.26953125 0.06640625 0.40000000 0.40000000 0.40000000
v -0.00390625 0.41015625 -0.08984375 0.40000000 0.40000000 0.40000000
v -0.00390625 0.41015625 0.06640625 0.40000000 0.40000000 0.40000000
v -0.00390625 0.42578125 -0.08984375 0.40000000 0.40000000 0.40000000
v -0.00390625 0.42578125 0.08984375 0.40000000 0.40000000 0.40000000
v 0.30078125 -0.26171875 -0.08984375 0.40000000 0.40000000 0.40000000
v 0.30078125 -0.26171875 0.08984375 0.40000000 0.40000000 0.40000000
v 0.30078125 -0.25390625 -0.08984375 0.40000000 0.40000000 0.40000000
v 0.30078125 -0.25390625 0.08984375 0.40000000 0.40000000 0.40000000
v 0.30078125 -0.13671875 -0.08984375 0.40000000 0.40000000 0.40000000
v 0.30078125 -0.13671875 0.08984375 0.40000000 0.40000000 0.40000000
v 0.30078125 -0.12890625 -0.08984375 0.53333333 0.44705882 0.34117647
v 0.30078125 -0.12890625 0.08984375 0.40000000 0.40000000 0.40000000
v 0.30078125 -0.12109375 -0.08984375 0.40000000 0.40000000 0.40000000
v 0.30078125 -0.12109375 0.08984375 0.40000000 0.40000000 0.40000000
v 0.30078125 -0.08984375 -0.08984375 0.40000000 0.40000000 0.40000000
v 0.30078125 -0.08984375 0.06640625 0.40000000 0.40000000 0.40000000
v 0.30078125 -0.08984375 0.08984375 0.40000000 0.40000000 0.40000000
v 0.30078125 0.11328125 -0.08984375 0.40000000 0.40000000 0.40000000
v 0.30078125 0.11328125 0.06640625 0.40000000 0.40000000 0.40000000
v 0.30078125 0.16015625 -0.08984375 0.40000000 0.40000000 0.40000000
v 0.30078125 0.16015625 0.08984375 0.40000000 0.40000000 0.40000000
v 0.30078125 0.22265625 -0.08984375 0.40000000 0.40000000 0.40000000
v 0.30078125 0.22265625 0.06640625 0.40000000 0.40000000 0.40000000
v 0.30078125 0.37890625 -0.08984375 0.40000000 0.40000000 0.40000000
v 0.30078125 0.37890625 0.06640625 0.40000000 0.40000000 0.40000000
v 0.30078125 0.42578125 -0.08984375 0.40000000 0.40000000 0.40000000
v 0.30078125 0.42578125 0.08984375 0.40000000 0.40000000 0.40000000
v 0.30859375 -0.24609375 -0.08984375 0.40000000 0.40000000 0.40000000
v 0.30859375 -0.24609375 0.08984375 0.40000000 0.40000000 0.40000000
v 0.30859375 -0.12890625 -0.08984375 0.40000000 0.40000000 0.40000000
v 0.30859375 -0.12890625 0.08984375 0.40000000 0.40000000 0.40000000
v 0.30859375 -0.08984375 -0.08984375 0.40000000 0.40000000 0.40000000
v 0.30859375 -0.08984375 0.06640625 0.40000000 0.40000000 0.40000000
v 0.30859375 0.16015625 -0.08984375 0.40000000 0.40000000 0.40000000
v 0.30859375 0.16015625 0.08984375 0.40000000 0.40000000 0.40000000
v 0.30859375 0.43359375 -0.08984375 0.40000000 0.40000000 0.40000000
v 0.30859375 0.43359375 0.08984375 0.40000000 0.40000000 0.40000000
v 0.30859375 0.44140625 -0.08984375 0.40000000 0.40000000 0.40000000
v 0.30859375 0.44140625 0.08984375 0.40000000 0.40000000 0.40000000
v 0.31640625 -0.08984375 -0.08984375 0.40000000 0.40000000 0.40000000
v 0.31640625 -0.08984375 0.08984375 0.40000000 0.40000000 0.40000000
v 0.31640625 0.16015625 -0.08984375 0.40000000 0.40000000 0.40000000
v 0.32421875 -0.12890625 -0.08984375 0.40000000 0.40000000 0.40000000
v 0.32421875 -0.12890625 0.08984375 0.40000000 0.40000000 0.40000000
v 0.32421875 -0.08984375 -0.08984375 0.40000000 0.40000000 0.40000000
v 0.32421875 -0.08984375 0.06640625 0.40000000 0.40000000 0.40000000
v 0.32421875 0.11328125 -0.08984375 0.40000000 0.40000000 0.40000000
v 0.32421875 0.11328125 0.06640625 0.40000000 0.40000000 0.40000000
v 0.32421875 0.15234375 -0.08984375 0.40000000 0.40000000 0.40000000
v 0.32421875 0.15234375 0.08984375 0.40000000 0.40000000 0.40000000
v 0.32421875 0.16796875 -0.08984375 0.40000000 0.40000000 0.40000000
v 0.32421875 0.16796875 0.08984375 0.40000000 0.40000000 0.40000000
v 0.32421875 0.22265625 -0.08984375 0.40000000 0.40000000 0.40000000
v 0.32421875 0.22265625 0.06640625 0.40000000 0.40000000 0.40000000
v 0.32421875 0.37890625 -0.08984375 0.40000000 0.40000000 0.40000000
v 0.32421875 0.37890625 0.06640625 0.40000000 0.40000000 0.40000000
v 0.32421875 0.42578125 -0.08984375 0.40000000 0.40000000 0.40000000
v 0.32421875 0.42578125 0.08984375 0.40000000 0.40000000 0.40000000
v 0.36328125 -0.41796875 -0.07421875 0.40000000 0.40000000 0.40000000
v 0.36328125 -0.26171875 -0.07421875 0.40000000 0.40000000 0.40000000
v 0.37109375 -0.42578125 -0.08984375 0.40000000 0.40000000 0.40000000
v 0.37109375 -0.42578125 0.08984375 0.40000000 0.40000000 0.40000000
v 0.37109375 -0.41796875 -0.07421875 0.40000000 0.40000000 0.40000000
v 0.37109375 -0.41796875 0.05859375 0.40000000 0.40000000 0.40000000
v 0.37109375 -0.26171875 -0.08984375 0.40000000 0.40000000 0.40000000
v 0.37109375 -0.26171875 -0.07421875 0.40000000 0.40000000 0.40000000
v 0.37109375 -0.26171875 0.05859375 0.40000000 0.40000000 0.40000000
v 0.37109375 -0.26171875 0.08984375 0.40000000 0.40000000 0.40000000
v 0.37890625 -0.43359375 -0.08984375 0.40000000 0.40000000 0.40000000
v 0.37890625 -0.43359375 0.08984375 0.40000000 0.40000000 0.40000000
v 0.37890625 -0.25390625 -0.08984375 0.40000000 0.40000000 0.40000000
v 0.37890625 -0.25390625 0.08984375 0.40000000 0.40000000 0.40000000
v 0.37890625 -0.24609375 -0.08984375 0.40000000 0.40000000 0.40000000
v 0.37890625 -0.24609375 0.08984375 0.40000000 0.40000000 0.40000000
v 0.38671875 -0.44140625 -0.08984375 0.40000000 0.40000000 0.40000000
v 0.38671875 -0.44140625 0.08984375 0.40000000 0.40000000 0.40000000
v 0.38671875 -0.43359375 -0.08984375 0.40000000 0.40000000 0.40000000
v 0.38671875 -0.43359375 0.08984375 0.40000000 0.40000000 0.40000000
v 0.38671875 -0.41796875 -0.07421875 0.40000000 0.40000000 0.40000000
v 0.38671875 -0.41796875 0.05078125 0.40000000 0.40000000 0.40000000
v 0.38671875 -0.41796875 0.05859375 0.40000000 0.40000000 0.40000000
v 0.38671875 -0.34765625 -0.07421875 0.40000000 0.40000000 0.40000000
v 0.38671875 -0.34765625 0.05078125 0.40000000 0.40000000 0.40000000
v 0.38671875 -0.34765625 0.05859375 0.40000000 0.40000000 0.40000000
v 0.38671875 -0.26953125 -0.07421875 0.40000000 0.40000000 0.40000000
v 0.38671875 -0.26953125 0.05078125 0.40000000 0.40000000 0.40000000
v 0.38671875 -0.26171875 -0.07421875 0.40000000 0.40000000 0.40000000
v 0.38671875 -0.26171875 0.05078125 0.40000000 0.40000000 0.40000000
v 0.38671875 -0.26171875 0.05859375 0.40000000 0.40000000 0.40000000
v 0.38671875 -0.24609375 -0.08984375 0.40000000 0.40000000 0.40000000
v 0.38671875 -0.24609375 0.08984375 0.40000000 0.40000000 0.40000000
v 0.48046875 0.16796875 -0.08984375 0.40000000 0.40000000 0.40000000
v 0.48046875 0.16796875 0.08984375 0.40000000 0.40000000 0.40000000
v 0.48046875 0.21484375 -0.03515625 0.40000000 0.40000000 0.40000000
v 0.48046875 0.21484375 0.06640625 0.40000000 0.40000000 0.40000000
v 0.48046875 0.37109375 -0.03515625 0.40000000 0.40000000 0.40000000
v 0.48046875 0.37109375 0.06640625 0.40000000 0.40000000 0.40000000
v 0.48046875 0.42578125 -0.08984375 0.40000000 0.40000000 0.40000000
v 0.48046875 0.42578125 0.08984375 0.40000000 0.40000000 0.40000000
v 0.48828125 0.16015625 -0.08984375 0.40000000 0.40000000 0.40000000
v 0.48828125 0.16015625 0.08984375 0.40000000 0.40000000 0.40000000
v 0.48828125 0.43359375 -0.08984375 0.40000000 0.40000000 0.40000000
v 0.48828125 0.43359375 0.08984375 0.40000000 0.40000000 0.40000000
v 0.49609375 0.15234375 -0.08984375 0.40000000 0.40000000 0.40000000
v 0.49609375 0.15234375 0.08984375 0.40000000 0.40000000 0.40000000
v 0.49609375 0.21484375 -0.03515625 0.40000000 0.40000000 0.40000000
v 0.49609375 0.21484375 0.06640625 0.40000000 0.40000000 0.40000000
v 0.49609375 0.37109375 -0.03515625 0.40000000 0.40000000 0.40000000
v 0.49609375 0.37109375 0.06640625 0.40000000 0.40000000 0.40000000
v 0.49609375 0.44140625 -0.08984375 0.40000000 0.40000000 0.40000000
v 0.49609375 0.44140625 0.08984375 0.40000000 0.40000000 0.40000000
v 0.06640625 -0.42578125 -0.08984375 0.70588235 0.50980392 0.27450980
v 0.08203125 -0.42578125 -0.08984375 0.70588235 0.50980392 0.27450980
v 0.08203125 -0.40234375 -0.08984375 0.70588235 0.50980392 0.27450980
v 0.06640625 -0.40234375 -0.08984375 0.70588235 0.50980392 0.27450980
v 0.06640625 -0.42578125 -0.07421875 0.70588235 0.50980392 0.27450980
v 0.08203125 -0.42578125 -0.07421875 0.70588235 0.50980392 0.27450980
v 0.08203125 -0.40234375 -0.07421875 0.70588235 0.50980392 0.27450980
v 0.06640625 -0.40234375 -0.07421875 0.70588235 0.50980392 0.27450980
v 0.27734375 -0.42578125 -0.08984375 0.70588235 0.50980392 0.27450980
v 0.29296875 -0.42578125 -0.08984375 0.70588235 0.50980392 0.27450980
v 0.29296875 -0.40234375 -0.08984375 0.70588235 0.50980392 0.27450980
v 0.27734375 -0.40234375 -0.08984375 0.70588235 0.50980392 0.27450980
v 0.27734375 -0.42578125 -0.07421875 0.70588235 0.50980392 0.27450980
v 0.29296875 -0.42578125 -0.07421875 0.70588235 0.50980392 0.27450980
v 0.29296875 -0.40234375 -0.07421875 0.70588235 0.50980392 0.27450980
v 0.27734375 -0.40234375 -0.07421875 0.70588235 0.50980392 0.27450980
v 0.12109375 -0.37109375 -0.08984375 0.31372549 0.78431373 0.94117647
v 0.24609375 -0.37109375 -0.08984375 0.31372549 0.78431373 0.94117647
v 0.24609375 -0.30078125 -0.08984375 0.31372549 0.78431373 0.94117647
v 0.12109375 -0.30078125 -0.08984375 0.31372549 0.78431373 0.94117647
v 0.12109375 -0.37109375 0.05859375 0.31372549 0.78431373 0.94117647
v 0.24609375 -0.37109375 0.05859375 0.31372549 0.78431373 0.94117647
v 0.24609375 -0.30078125 0.05859375 0.31372549 0.78431373 0.94117647
v 0.12109375 -0.30078125 0.05859375 0.31372549 0.78431373 0.94117647
v 0.25390625 -0.24609375 -0.08984375 0.70588235 0.50980392 0.27450980
v 0.32421875 -0.24609375 -0.08984375 0.70588235 0.50980392 0.27450980
v 0.32421875 -0.14453125 -0.08984375 0.70588235 0.50980392 0.27450980
v 0.25390625 -0.14453125 -0.08984375 0.70588235 0.50980392 0.27450980
v 0.25390625 -0.24609375 -0.06640625 0.70588235 0.50980392 0.27450980
v 0.32421875 -0.24609375 -0.06640625 0.70588235 0.50980392 0.27450980
v 0.32421875 -0.14453125 -0.06640625 0.70588235 0.50980392 0.27450980
v 0.25390625 -0.14453125 -0.06640625 0.70588235 0.50980392 0.27450980
v 0.21484375 -0.20703125 -0.08984375 0.70588235 0.50980392 0.27450980
v 0.26953125 -0.20703125 -0.08984375 0.70588235 0.50980392 0.27450980
v 0.26953125 -0.16796875 -0.08984375 0.70588235 0.50980392 0.27450980
v 0.21484375 -0.16796875 -0.08984375 0.70588235 0.50980392 0.27450980
v 0.21484375 -0.20703125 -0.05859375 0.70588235 0.50980392 0.27450980
v 0.26953125 -0.20703125 -0.05859375 0.70588235 0.50980392 0.27450980
v 0.26953125 -0.16796875 -0.05859375 0.70588235 0.50980392 0.27450980
v 0.21484375 -0.16796875 -0.05859375 0.70588235 0.50980392 0.27450980
v 0.25390625 -0.16796875 -0.08984375 0.70588235 0.50980392 0.27450980
v 0.30078125 -0.16796875 -0.08984375 0.70588235 0.50980392 0.27450980
v 0.25390625 -0.12890625 -0.08984375 0.70588235 0.50980392 0.27450980
v 0.25390625 -0.16796875 -0.05859375 0.70588235 0.50980392 0.27450980
v 0.30078125 -0.16796875 -0.05859375 0.70588235 0.50980392 0.27450980
v 0.30078125 -0.12890625 -0.05859375 0.70588235 0.50980392 0.27450980
v 0.25390625 -0.12890625 -0.05859375 0.70588235 0.50980392 0.27450980
v 0.21484375 -0.11328125 -0.08984375 0.70588235 0.50980392 0.27450980
v 0.28515625 -0.11328125 -0.08984375 0.70588235 0.50980392 0.27450980
v 0.28515625 -0.09765625 -0.08984375 0.70588235 0.50980392 0.27450980
v 0.21484375 -0.09765625 -0.08984375 0.70588235 0.50980392 0.27450980
v 0.21484375 -0.11328125 -0.06640625 0.70588235 0.50980392 0.27450980
v 0.28515625 -0.11328125 -0.06640625 0.70588235 0.50980392 0.27450980
v 0.28515625 -0.09765625 -0.06640625 0.70588235 0.50980392 0.27450980
v 0.21484375 -0.09765625 -0.06640625 0.70588235 0.50980392 0.27450980
v -0.38671875 -0.06640625 -0.08984375 0.31372549 0.78431373 0.94117647
v -0.26171875 -0.06640625 -0.08984375 0.31372549 0.78431373 0.94117647
v -0.26171875 0.00390625 -0.08984375 0.31372549 0.78431373 0.94117647
v -0.38671875 0.00390625 -0.08984375 0.31372549 0.78431373 0.94117647
v -0.38671875 -0.06640625 0.05078125 0.31372549 0.78431373 0.94117647
v -0.26171875 -0.06640625 0.05078125 0.31372549 0.78431373 0.94117647
v -0.26171875 0.00390625 0.05078125 0.31372549 0.78431373 0.94117647
v -0.38671875 0.00390625 0.05078125 0.31372549 0.78431373 0.94117647
v 0.22265625 -0.02734375 -0.08984375 0.00000000 0.54901961 1.00000000
v 0.27734375 -0.02734375 -0.08984375 0.00000000 0.54901961 1.00000000
v 0.27734375 0.04296875 -0.08984375 0.00000000 0.54901961 1.00000000
v 0.22265625 0.04296875 -0.08984375 0.00000000 0.54901961 1.00000000
v 0.22265625 -0.02734375 -0.04296875 0.00000000 0.54901961 1.00000000
v 0.27734375 -0.02734375 -0.04296875 0.00000000 0.54901961 1.00000000
v 0.27734375 0.04296875 -0.04296875 0.00000000 0.54901961 1.00000000
v 0.22265625 0.04296875 -0.04296875 0.00000000 0.54901961 1.00000000
v 0.12109375 0.00390625 -0.08984375 0.70588235 0.50980392 0.27450980
v 0.15234375 0.00390625 -0.08984375 0.70588235 0.50980392 0.27450980
v 0.15234375 0.03515625 -0.08984375 0.70588235 0.50980392 0.27450980
v 0.12109375 0.03515625 -0.08984375 0.70588235 0.50980392 0.27450980
v 0.12109375 0.00390625 -0.07421875 0.70588235 0.50980392 0.27450980
v 0.15234375 0.00390625 -0.07421875 0.70588235 0.50980392 0.27450980
v 0.15234375 0.03515625 -0.07421875 0.70588235 0.50980392 0.27450980
v 0.12109375 0.03515625 -0.07421875 0.70588235 0.50980392 0.27450980
v 0.03515625 0.08203125 -0.08984375 0.00000000 0.54901961 1.00000000
v 0.22265625 0.08203125 -0.08984375 0.00000000 0.54901961 1.00000000
v 0.22265625 0.14453125 -0.08984375 0.00000000 0.54901961 1.00000000
v 0.03515625 0.14453125 -0.08984375 0.00000000 0.54901961 1.00000000
v 0.03515625 0.08203125 -0.04296875 0.00000000 0.54901961 1.00000000
v 0.22265625 0.08203125 -0.04296875 0.00000000 0.54901961 1.00000000
v 0.22265625 0.14453125 -0.04296875 0.00000000 0.54901961 1.00000000
v 0.03515625 0.14453125 -0.04296875 0.00000000 0.54901961 1.00000000
v -0.01171875 0.10546875 -0.08984375 0.70588235 0.50980392 0.27450980
v 0.02734375 0.10546875 -0.08984375 0.70588235 0.50980392 0.27450980
v 0.02734375 0.12890625 -0.08984375 0.70588235 0.50980392 0.27450980
v -0.01171875 0.12890625 -0.08984375 0.70588235 0.50980392 0.27450980
v -0.01171875 0.10546875 -0.06640625 0.70588235 0.50980392 0.27450980
v 0.02734375 0.10546875 -0.06640625 0.70588235 0.50980392 0.27450980
v 0.02734375 0.12890625 -0.06640625 0.70588235 0.50980392 0.27450980
v -0.01171875 0.12890625 -0.06640625 0.70588235 0.50980392 0.27450980
v 0.23828125 0.10546875 -0.08984375 0.70588235 0.50980392 0.27450980
v 0.27734375 0.10546875 -0.08984375 0.70588235 0.50980392 0.27450980
v 0.27734375 0.13671875 -0.08984375 0.70588235 0.50980392 0.27450980
v 0.23828125 0.13671875 -0.08984375 0.70588235 0.50980392 0.27450980
v 0.23828125 0.10546875 -0.06640625 0.70588235 0.50980392 0.27450980
v 0.27734375 0.10546875 -0.06640625 0.70588235 0.50980392 0.27450980
v 0.27734375 0.13671875 -0.06640625 0.70588235 0.50980392 0.27450980
v 0.23828125 0.13671875 -0.06640625 0.70588235 0.50980392 0.27450980
v 0.10546875 0.18359375 -0.08984375 0.78431373 0.39215686 0.78431373
v 0.14453125 0.18359375 -0.08984375 0.78431373 0.39215686 0.78431373
v 0.14453125 0.25390625 -0.08984375 0.78431373 0.39215686 0.78431373
v 0.10546875 0.25390625 -0.08984375 0.78431373 0.39215686 0.78431373
v 0.10546875 0.18359375 -0.05859375 0.78431373 0.39215686 0.78431373
v 0.14453125 0.18359375 -0.05859375 0.78431373 0.39215686 0.78431373
v 0.14453125 0.25390625 -0.05859375 0.78431373 0.39215686 0.78431373
v 0.10546875 0.25390625 -0.05859375 0.78431373 0.39215686 0.78431373
v 0.15234375 0.18359375 -0.08984375 0.78431373 0.39215686 0.78431373
v 0.19140625 0.18359375 -0.08984375 0.78431373 0.39215686 0.78431373
v 0.19140625 0.24609375 -0.08984375 0.78431373 0.58823529 0.54901961
v 0.15234375 0.24609375 -0.08984375 0.78431373 0.39215686 0.78431373
v 0.15234375 0.18359375 -0.05859375 0.78431373 0.39215686 0.78431373
v 0.19140625 0.18359375 -0.05859375 0.78431373 0.39215686 0.78431373
v 0.19140625 0.24609375 -0.05859375 0.78431373 0.39215686 0.78431373
v 0.15234375 0.24609375 -0.05859375 0.78431373 0.39215686 0.78431373
v 0.09765625 0.24609375 -0.08984375 0.78431373 0.78431373 0.31372549
v 0.19140625 0.29296875 -0.08984375 0.78431373 0.52156863 0.62745098
v 0.09765625 0.29296875 -0.08984375 0.78431373 0.78431373 0.31372549
v 0.09765625 0.24609375 -0.03515625 0.78431373 0.78431373 0.31372549
v 0.19140625 0.24609375 -0.03515625 0.78431373 0.78431373 0.31372549
v 0.19140625 0.29296875 -0.03515625 0.78431373 0.78431373 0.31372549
v 0.09765625 0.29296875 -0.03515625 0.78431373 0.78431373 0.31372549
v 0.04296875 0.25390625 -0.08984375 0.78431373 0.39215686 0.78431373
v 0.10546875 0.29296875 -0.08984375 0.78431373 0.39215686 0.78431373
v 0.04296875 0.29296875 -0.08984375 0.78431373 0.39215686 0.78431373
v 0.04296875 0.25390625 -0.05859375 0.78431373 0.39215686 0.78431373
v 0.10546875 0.29296875 -0.05859375 0.78431373 0.39215686 0.78431373
v 0.04296875 0.29296875 -0.05859375 0.78431373 0.39215686 0.78431373
v 0.19140625 0.25390625 -0.08984375 0.78431373 0.39215686 0.78431373
v 0.25390625 0.25390625 -0.08984375 0.78431373 0.39215686 0.78431373
v 0.25390625 0.29296875 -0.08984375 0.78431373 0.39215686 0.78431373
v 0.19140625 0.25390625 -0.05859375 0.78431373 0.39215686 0.78431373
v 0.25390625 0.25390625 -0.05859375 0.78431373 0.39215686 0.78431373
v 0.25390625 0.29296875 -0.05859375 0.78431373 0.39215686 0.78431373
v 0.19140625 0.29296875 -0.05859375 0.78431373 0.39215686 0.78431373
v 0.14453125 0.29296875 -0.08984375 0.78431373 0.39215686 0.78431373
v 0.14453125 0.35546875 -0.08984375 0.78431373 0.39215686 0.78431373
v 0.10546875 0.35546875 -0.08984375 0.78431373 0.39215686 0.78431373
v 0.14453125 0.29296875 -0.05859375 0.78431373 0.39215686 0.78431373
v 0.14453125 0.35546875 -0.05859375 0.78431373 0.39215686 0.78431373
v 0.10546875 0.35546875 -0.05859375 0.78431373 0.39215686 0.78431373
v 0.15234375 0.29296875 -0.08984375 0.78431373 0.39215686 0.78431373
v 0.19140625 0.35546875 -0.08984375 0.78431373 0.39215686 0.78431373
v 0.15234375 0.35546875 -0.08984375 0.78431373 0.39215686 0.78431373
v 0.15234375 0.29296875 -0.05859375 0.78431373 0.39215686 0.78431373
v 0.19140625 0.35546875 -0.05859375 0.78431373 0.39215686 0.78431373
v 0.15234375 0.35546875 -0.05859375 0.78431373 0.39215686 0.78431373
v -0.40234375 0.30078125 -0.08984375 0.31372549 0.78431373 0.94117647
v -0.28515625 0.30078125 -0.08984375 0.31372549 0.78431373 0.94117647
v -0.28515625 0.37109375 -0.08984375 0.31372549 0.78431373 0.94117647
v -0.40234375 0.37109375 -0.08984375 0.31372549 0.78431373 0.94117647
v -0.40234375 0.30078125 0.05078125 0.31372549 0.78431373 0.94117647
v -0.28515625 0.30078125 0.05078125 0.31372549 0.78431373 0.94117647
v -0.28515625 0.37109375 0.05078125 0.31372549 0.78431373 0.94117647
v -0.40234375 0.37109375 0.05078125 0.31372549 0.78431373 0.94117647
v -0.44921875 0.39453125 -0.08984375 0.70588235 0.50980392 0.27450980
v -0.42578125 0.39453125 -0.08984375 0.70588235 0.50980392 0.27450980
v -0.42578125 0.41796875 -0.08984375 0.70588235 0.50980392 0.27450980
v -0.44921875 0.41796875 -0.08984375 0.70588235 0.50980392 0.27450980
v -0.44921875 0.39453125 -0.07421875 0.70588235 0.50980392 0.27450980
v -0.42578125 0.39453125 -0.07421875 0.70588235 0.50980392 0.27450980
v -0.42578125 0.41796875 -0.07421875 0.70588235 0.50980392 0.27450980
v -0.44921875 0.41796875 -0.07421875 0.70588235 0.50980392 0.27450980
v 0.10546875 -0.04296875 0.02734375 0.19607843 0.78431373 1.00000000
v 0.17578125 -0.04296875 0.02734375 0.19607843 0.78431373 1.00000000
v 0.17578125 0.05859375 0.02734375 0.19607843 0.78431373 1.00000000
v 0.10546875 0.05859375 0.02734375 0.19607843 0.78431373 1.00000000
v 0.10546875 -0.04296875 0.09765625 0.19607843 0.78431373 1.00000000
v 0.17578125 -0.04296875 0.09765625 0.19607843 0.78431373 1.00000000
v 0.17578125 0.05859375 0.09765625 0.19607843 0.78431373 1.00000000
v 0.10546875 0.05859375 0.09765625 0.19607843 0.78431373 1.00000000
v 0.12890625 0.23046875 0.02734375 0.19607843 0.78431373 1.00000000
v 0.15234375 0.23046875 0.02734375 0.19607843 0.78431373 1.00000000
v 0.15234375 0.29296875 0.02734375 0.19607843 0.78431373 1.00000000
v 0.12890625 0.29296875 0.02734375 0.19607843 0.78431373 1.00000000
v 0.12890625 0.23046875 0.03515625 0.19607843 0.78431373 1.00000000
v 0.15234375 0.23046875 0.03515625 0.19607843 0.78431373 1.00000000
v 0.15234375 0.29296875 0.03515625 0.19607843 0.78431373 1.00000000
v 0.12890625 0.29296875 0.03515625 0.19607843 0.78431373 1.00000000
v -0.36328125 0.27734375 0.05078125 0.19607843 0.78431373 1.00000000
v -0.30078125 0.27734375 0.05078125 0.19607843 0.78431373 1.00000000
v -0.30078125 0.33203125 0.05078125 0.19607843 0.78431373 1.00000000
v -0.36328125 0.33203125 0.05078125 0.19607843 0.78431373 1.00000000
v -0.36328125 0.27734375 0.10546875 0.19607843 0.78431373 1.00000000
v -0.30078125 0.27734375 0.10546875 0.19607843 0.78431373 1.00000000
v -0.30078125 0.33203125 0.10546875 0.19607843 0.78431373 1.00000000
v -0.36328125 0.33203125 0.10546875 0.19607843 0.78431373 1.00000000
f 106 225 226
f 106 226 107
f 226 225 231
f 225 106 118
f 106 107 108
f 107 226 119
f 226 231 241
f 231 225 229
f 225 118 132
f 118 106 108
f 108 107 109
f 107 119 121
f 119 226 133
f 226 241 220
f 241 231 239
f 231 229 214
f 229 225 240
f 225 132 211
f 132 118 120
f 118 108 120
f 108 109 37
f 109 107 121
f 121 119 135
f 119 133 135
f 133 226 212
f 220 241 222
f 241 239 237
f 239 231 230
f 239 231 214
f 214 229 213
f 229 231 234
f 229 240 237
f 240 225 221
f 211 132 133
f 132 120 134
f 120 108 110
f 108 37 62
f 37 109 38
f 109 121 111
f 121 135 141
f 135 133 132
f 133 212 211
f 220 222 212
f 241 237 240
f 237 239 216
f 237 239 236
f 237 239 234
f 239 241 240
f 239 230 236
f 230 231 233
f 230 231 236
f 231 239 236
f 239 214 217
f 214 213 212
f 213 229 216
f 229 234 232
f 234 231 230
f 229 237 216
f 221 225 219
f 132 211 155
f 132 134 135
f 134 120 136
f 120 110 112
f 110 108 74
f 108 62 74
f 37 38 39
f 38 109 63
f 109 111 75
f 111 121 123
f 121 141 123
f 141 135 137
f 211 212 213
f 212 222 218
f 216 239 217
f 239 237 232
f 239 237 235
f 237 236 235
f 236 239 235
f 237 234 232
f 234 239 232
f 234 239 238
f 230 233 234
f 233 231 234
f 217 214 212
f 213 216 211
f 213 216 210
f 213 216 237
f 229 213 237
f 221 219 215
f 132 155 159
f 155 211 215
f 135 134 137
f 134 136 137
f 136 120 112
f 112 110 111
f 110 74 75
f 37 39 74
f 39 38 40
f 38 63 65
f 63 109 75
f 75 111 110
f 111 123 117
f 123 141 164
f 141 137 139
f 212 218 217
f 237 240 227
f 239 234 233
f 234 238 233
f 238 239 233
f 211 216 215
f 216 213 209
f 213 210 209
f 210 216 209
f 221 215 178
f 215 219 211
f 132 159 140
f 159 155 156
f 155 215 218
f 137 136 113
f 136 112 113
f 112 111 113
f 75 74 77
f 74 39 76
f 39 40 76
f 40 38 42
f 38 65 44
f 65 63 81
f 63 75 81
f 111 117 115
f 117 123 164
f 164 141 160
f 141 139 138
f 139 137 113
f 237 227 229
f 221 178 223
f 178 215 157
f 140 159 160
f 159 156 160
f 156 155 218
f 215 155 157
f 112 136 138
f 113 111 115
f 75 77 81
f 77 74 76
f 39 76 78
f 76 40 77
f 40 42 79
f 42 38 44
f 44 65 46
f 65 81 87
f 115 117 116
f 117 164 163
f 164 160 181
f 160 141 140
f 141 138 140
f 138 139 114
f 139 113 115
f 229 227 228
f 223 178 179
f 178 157 161
f 159 140 163
f 160 156 181
f 156 218 158
f 157 159 180
f 112 138 114
f 81 77 79
f 39 78 41
f 77 40 79
f 79 42 41
f 42 44 43
f 44 46 22
f 46 65 67
f 65 87 67
f 87 81 83
f 115 116 114
f 116 117 163
f 163 164 165
f 164 181 185
f 140 138 116
f 138 114 116
f 114 139 115
f 229 228 231
f 223 179 224
f 179 178 181
f 178 161 180
f 159 163 180
f 163 140 122
f 181 156 158
f 158 218 179
f 81 79 78
f 41 78 79
f 41 42 43
f 43 44 1
f 44 22 16
f 22 46 45
f 46 67 51
f 67 87 93
f 87 83 85
f 83 81 80
f 116 163 122
f 163 165 180
f 165 164 166
f 164 185 171
f 185 181 200
f 231 228 239
f 224 179 218
f 179 181 158
f 181 178 180
f 81 78 80
f 78 41 43
f 43 1 15
f 1 44 2
f 44 16 2
f 16 22 28
f 22 45 21
f 45 46 47
f 46 51 50
f 51 67 53
f 67 93 69
f 93 87 89
f 87 85 84
f 85 83 48
f 83 80 82
f 180 165 195
f 165 166 195
f 166 164 169
f 164 171 169
f 171 185 187
f 185 200 202
f 200 181 194
f 239 228 241
f 181 180 183
f 80 78 64
f 78 43 64
f 43 15 21
f 15 1 7
f 1 2 3
f 2 16 18
f 16 28 18
f 28 22 24
f 22 21 24
f 21 45 43
f 21 45 49
f 45 47 64
f 47 46 48
f 46 50 48
f 51 53 28
f 53 67 69
f 69 93 95
f 93 89 91
f 89 87 86
f 87 84 86
f 84 85 49
f 85 48 50
f 48 83 82
f 82 80 64
f 180 195 193
f 165 195 197
f 195 166 196
f 166 169 198
f 169 171 170
f 171 187 177
f 187 185 208
f 185 202 208
f 202 200 243
f 200 194 196
f 181 183 194
f 183 180 182
f 64 43 45
f 21 15 17
f 15 7 17
f 7 1 5
f 1 3 5
f 3 2 4
f 2 18 8
f 18 28 30
f 28 24 26
f 24 21 23
f 21 49 27
f 64 47 82
f 47 48 82
f 51 28 27
f 28 53 30
f 53 69 59
f 69 95 97
f 95 93 125
f 93 91 90
f 91 89 55
f 89 86 88
f 86 84 66
f 84 49 66
f 84 49 47
f 49 85 50
f 193 195 196
f 165 197 168
f 196 166 198
f 198 169 168
f 169 170 168
f 170 171 172
f 171 177 175
f 177 187 189
f 187 208 261
f 208 202 204
f 202 243 242
f 243 200 255
f 200 196 198
f 196 194 193
f 194 183 196
f 183 182 166
f 21 17 27
f 17 7 13
f 7 5 6
f 5 3 23
f 3 4 23
f 4 2 6
f 2 8 6
f 8 18 20
f 18 30 36
f 28 26 25
f 26 24 4
f 24 23 4
f 23 21 27
f 27 49 51
f 47 82 84
f 27 28 25
f 30 53 52
f 53 59 57
f 59 69 71
f 69 97 71
f 97 95 94
f 95 125 124
f 125 93 148
f 93 90 92
f 90 91 56
f 91 55 57
f 55 89 88
f 88 86 66
f 66 49 52
f 168 197 198
f 168 170 197
f 170 172 184
f 172 171 173
f 171 175 173
f 175 177 176
f 177 189 154
f 189 187 261
f 261 208 249
f 208 204 206
f 204 202 201
f 202 242 201
f 242 243 244
f 255 200 199
f 200 198 197
f 193 194 161
f 166 182 165
f 27 17 29
f 17 13 19
f 13 7 11
f 7 6 8
f 6 5 26
f 5 23 25
f 4 6 26
f 8 20 14
f 20 18 36
f 36 30 32
f 25 26 5
f 23 27 25
f 49 27 29
f 30 52 29
f 52 53 54
f 53 57 55
f 57 59 58
f 59 71 61
f 71 97 146
f 97 94 96
f 94 95 124
f 124 125 126
f 148 93 92
f 92 90 68
f 90 56 54
f 90 56 58
f 56 91 57
f 55 88 54
f 88 66 54
f 66 52 54
f 52 49 29
f 197 170 184
f 184 172 203
f 172 173 203
f 173 175 206
f 175 176 174
f 176 177 153
f 177 154 153
f 154 189 144
f 189 261 260
f 249 208 207
f 208 206 205
f 206 204 173
f 204 201 203
f 201 242 254
f 201 242 248
f 242 244 246
f 244 243 245
f 255 199 254
f 199 200 197
f 193 161 165
f 161 194 162
f 165 182 184
f 29 17 19
f 19 13 72
f 13 11 12
f 11 7 9
f 7 8 9
f 8 14 12
f 14 20 73
f 20 36 73
f 36 32 34
f 32 30 29
f 29 52 60
f 54 53 55
f 57 58 56
f 58 59 60
f 59 61 60
f 61 71 73
f 71 146 73
f 146 97 131
f 97 96 99
f 96 94 130
f 96 94 70
f 94 124 147
f 94 124 130
f 124 126 147
f 126 125 127
f 148 92 147
f 92 68 94
f 68 90 58
f 90 54 88
f 197 184 199
f 184 203 201
f 172 203 205
f 203 173 204
f 206 175 174
f 174 176 205
f 176 153 147
f 176 153 188
f 153 154 151
f 154 144 142
f 144 189 146
f 189 260 188
f 260 261 258
f 249 207 248
f 207 208 205
f 205 206 174
f 201 254 199
f 201 248 207
f 248 242 246
f 246 244 256
f 244 245 256
f 245 243 247
f 255 254 257
f 199 197 192
f 193 165 190
f 162 194 191
f 165 184 170
f 29 19 35
f 19 72 35
f 72 13 14
f 13 12 14
f 12 11 34
f 11 9 31
f 9 8 10
f 8 12 10
f 14 73 72
f 73 36 61
f 36 34 33
f 34 32 10
f 32 29 31
f 29 60 35
f 58 60 68
f 60 61 35
f 73 146 105
f 146 131 144
f 131 97 99
f 99 96 98
f 96 70 72
f 70 94 68
f 94 147 92
f 147 126 149
f 126 127 149
f 127 125 129
f 148 147 150
f 199 184 201
f 172 205 174
f 205 176 186
f 176 147 163
f 176 188 186
f 188 153 145
f 153 151 143
f 151 154 152
f 154 142 148
f 142 144 125
f 146 189 188
f 188 260 207
f 260 258 256
f 258 261 259
f 249 248 247
f 248 207 260
f 207 205 186
f 248 246 247
f 242 248 250
f 246 256 258
f 256 245 257
f 245 247 259
f 247 243 249
f 255 257 261
f 257 254 256
f 192 197 184
f 162 191 167
f 29 35 31
f 35 72 60
f 12 34 10
f 34 11 33
f 11 31 33
f 31 9 10
f 72 73 100
f 61 36 35
f 36 33 35
f 10 32 31
f 68 60 70
f 73 105 101
f 105 146 145
f 144 131 125
f 131 99 103
f 99 98 101
f 98 96 100
f 96 72 100
f 72 70 60
f 147 149 150
f 126 149 151
f 149 127 150
f 127 129 152
f 129 125 131
f 148 150 154
f 163 147 116
f 186 188 207
f 188 145 146
f 145 153 143
f 143 151 130
f 151 152 128
f 152 154 150
f 260 256 254
f 258 259 246
f 259 261 257
f 247 246 259
f 250 248 252
f 257 245 259
f 249 243 253
f 255 261 251
f 167 191 190
f 31 35 33
f 100 73 101
f 101 105 103
f 105 145 104
f 131 103 102
f 103 99 101
f 101 98 100
f 126 151 128
f 150 127 152
f 152 129 128
f 129 131 130
f 116 147 74
f 145 143 130
f 130 151 128
f 260 254 252
f 250 252 254
f 253 243 251
f 251 261 253
f 167 190 165
f 103 105 104
f 104 145 130
f 131 102 130
f 102 103 104
f 100 98 104
f 128 129 130
f 116 74 110
f 74 147 92
f 104 130 102
f 102 104 98
f 262 263 264
f 262 264 265
f 266 269 268
f 266 268 267
f 262 266 267
f 262 267 263
f 265 264 268
f 265 268 269
f 262 265 269
f 262 269 266
f 263 267 268
f 263 268 264
f 270 271 272
f 270 272 273
f 274 277 276
f 274 276 275
f 270 274 275
f 270 275 271
f 273 272 276
f 273 276 277
f 270 273 277
f 270 277 274
f 271 275 276
f 271 276 272
f 278 279 280
f 278 280 281
f 282 285 284
f 282 284 283
f 278 282 283
f 278 283 279
f 281 280 284
f 281 284 285
f 278 281 285
f 278 285 282
f 279 283 284
f 279 284 280
f 286 287 288
f 286 288 289
f 290 293 292
f 290 292 291
f 286 290 291
f 286 291 287
f 289 288 292
f 289 292 293
f 286 289 293
f 286 293 290
f 287 291 292
f 287 292 288
f 294 295 296
f 294 296 297
f 298 301 300
f 298 300 299
f 294 298 299
f 294 299 295
f 297 296 300
f 297 300 301
f 294 297 301
f 294 301 298
f 295 299 300
f 295 300 296
f 302 303 161
f 302 161 304
f 305 308 307
f 305 307 306
f 302 305 306
f 302 306 303
f 304 161 307
f 304 307 308
f 302 304 308
f 302 308 305
f 303 306 307
f 303 307 161
f 309 310 311
f 309 311 312
f 313 316 315
f 313 315 314
f 309 313 314
f 309 314 310
f 312 311 315
f 312 315 316
f 309 312 316
f 309 316 313
f 310 314 315
f 310 315 311
f 317 318 319
f 317 319 320
f 321 324 323
f 321 323 322
f 317 321 322
f 317 322 318
f 320 319 323
f 320 323 324
f 317 320 324
f 317 324 321
f 318 322 323
f 318 323 319
f 325 326 327
f 325 327 328
f 329 332 331
f 329 331 330
f 325 329 330
f 325 330 326
f 328 327 331
f 328 331 332
f 325 328 332
f 325 332 329
f 326 330 331
f 326 331 327
f 333 334 335
f 333 335 336
f 337 340 339
f 337 339 338
f 333 337 338
f 333 338 334
f 336 335 339
f 336 339 340
f 333 336 340
f 333 340 337
f 334 338 339
f 334 339 335
f 341 342 343
f 341 343 344
f 345 348 347
f 345 347 346
f 341 345 346
f 341 346 342
f 344 343 347
f 344 347 348
f 341 344 348
f 341 348 345
f 342 346 347
f 342 347 343
f 349 350 351
f 349 351 352
f 353 356 355
f 353 355 354
f 349 353 354
f 349 354 350
f 352 351 355
f 352 355 356
f 349 352 356
f 349 356 353
f 350 354 355
f 350 355 351
f 357 358 359
f 357 359 360
f 361 364 363
f 361 363 362
f 357 361 362
f 357 362 358
f 360 359 363
f 360 363 364
f 357 360 364
f 357 364 361
f 358 362 363
f 358 363 359
f 365 366 367
f 365 367 368
f 369 372 371
f 369 371 370
f 365 369 370
f 365 370 366
f 368 367 371
f 368 371 372
f 365 368 372
f 365 372 369
f 366 370 371
f 366 371 367
f 373 374 375
f 373 375 376
f 377 380 379
f 377 379 378
f 373 377 378
f 373 378 374
f 376 375 379
f 376 379 380
f 373 376 380
f 373 380 377
f 374 378 379
f 374 379 375
f 381 375 382
f 381 382 383
f 384 387 386
f 384 386 385
f 381 384 385
f 381 385 375
f 383 382 386
f 383 386 387
f 381 383 387
f 381 387 384
f 375 385 386
f 375 386 382
f 388 368 389
f 388 389 390
f 391 393 392
f 391 392 372
f 388 391 372
f 388 372 368
f 390 389 392
f 390 392 393
f 388 390 393
f 388 393 391
f 368 372 392
f 368 392 389
f 394 395 396
f 394 396 382
f 397 400 399
f 397 399 398
f 394 397 398
f 394 398 395
f 382 396 399
f 382 399 400
f 394 382 400
f 394 400 397
f 395 398 399
f 395 399 396
f 389 401 402
f 389 402 403
f 392 406 405
f 392 405 404
f 389 392 404
f 389 404 401
f 403 402 405
f 403 405 406
f 389 403 406
f 389 406 392
f 401 404 405
f 401 405 402
f 407 382 408
f 407 408 409
f 410 412 411
f 410 411 400
f 407 410 400
f 407 400 382
f 409 408 411
f 409 411 412
f 407 409 412
f 407 412 410
f 382 400 411
f 382 411 408
f 413 414 415
f 413 415 416
f 417 420 419
f 417 419 418
f 413 417 418
f 413 418 414
f 416 415 419
f 416 419 420
f 413 416 420
f 413 420 417
f 414 418 419
f 414 419 415
f 421 422 423
f 421 423 424
f 425 428 427
f 425 427 426
f 421 425 426
f 421 426 422
f 424 423 427
f 424 427 428
f 421 424 428
f 421 428 425
f 422 426 427
f 422 427 423
f 429 430 431
f 429 431 432
f 433 436 435
f 433 435 434
f 429 433 434
f 429 434 430
f 432 431 435
f 432 435 436
f 429 432 436
f 429 436 433
f 430 434 435
f 430 435 431
f 437 438 439
f 437 439 440
f 441 444 443
f 441 443 442
f 437 441 442
f 437 442 438
f 440 439 443
f 440 443 444
f 437 440 444
f 437 444 441
f 438 442 443
f 438 443 439
f 445 446 447
f 445 447 448
f 449 452 451
f 449 451 450
f 445 449 450
f 445 450 446
f 448 447 451
f 448 451 452
f 445 448 452
f 445 452 449
f 446 450 451
f 446 451 447

