# https://github.com/mikedh/trimesh
v -0.49609375 -0.03515625 -0.07421875 0.40000000 0.40000000 0.40000000
v -0.49609375 -0.03515625 0.07421875 0.40000000 0.40000000 0.40000000
v -0.49609375 -0.00390625 -0.06640625 0.40000000 0.40000000 0.40000000
v -0.49609375 -0.00390625 0.05859375 0.40000000 0.40000000 0.40000000
v -0.49609375 0.08984375 -0.06640625 0.40000000 0.40000000 0.40000000
v -0.49609375 0.08984375 0.05859375 0.40000000 0.40000000 0.40000000
v -0.49609375 0.11328125 -0.07421875 0.40000000 0.40000000 0.40000000
v -0.49609375 0.11328125 0.07421875 0.40000000 0.40000000 0.40000000
v -0.48046875 -0.01953125 -0.07421875 0.40000000 0.40000000 0.40000000
v -0.48046875 -0.01953125 0.06640625 0.40000000 0.40000000 0.40000000
v -0.48046875 -0.01953125 0.07421875 0.40000000 0.40000000 0.40000000
v -0.48046875 -0.00390625 -0.06640625 0.40000000 0.40000000 0.40000000
v -0.48046875 -0.00390625 0.05859375 0.40000000 0.40000000 0.40000000
v -0.48046875 0.08984375 -0.06640625 0.40000000 0.40000000 0.40000000
v -0.48046875 0.08984375 0.05859375 0.40000000 0.40000000 0.40000000
v -0.48046875 0.09765625 -0.07421875 0.40000000 0.40000000 0.40000000
v -0.48046875 0.09765625 0.06640625 0.40000000 0.40000000 0.40000000
v -0.48046875 0.09765625 0.07421875 0.40000000 0.40000000 0.40000000
v -0.47265625 -0.03515625 -0.06640625 0.40000000 0.40000000 0.40000000
v -0.47265625 -0.03515625 0.05859375 0.40000000 0.40000000 0.40000000
v -0.47265625 -0.01953125 -0.06640625 0.40000000 0.40000000 0.40000000
v -0.47265625 -0.01953125 0.05859375 0.40000000 0.40000000 0.40000000
v -0.47265625 0.09765625 -0.06640625 0.40000000 0.40000000 0.40000000
v -0.47265625 0.09765625 0.05859375 0.40000000 0.40000000 0.40000000
v -0.47265625 0.11328125 -0.06640625 0.40000000 0.40000000 0.40000000
v -0.47265625 0.11328125 0.05859375 0.40000000 0.40000000 0.40000000
v -0.41015625 -0.03515625 -0.06640625 0.40000000 0.40000000 0.40000000
v -0.41015625 -0.03515625 0.05859375 0.40000000 0.40000000 0.40000000
v -0.41015625 -0.01953125 -0.06640625 0.40000000 0.40000000 0.40000000
v -0.41015625 -0.01953125 0.05859375 0.40000000 0.40000000 0.40000000
v -0.41015625 0.09765625 -0.06640625 0.40000000 0.40000000 0.40000000
v -0.41015625 0.09765625 0.05859375 0.40000000 0.40000000 0.40000000
v -0.41015625 0.11328125 -0.06640625 0.40000000 0.40000000 0.40000000
v -0.41015625 0.11328125 0.05859375 0.40000000 0.40000000 0.40000000
v -0.40234375 -0.23046875 -0.07421875 0.40000000 0.40000000 0.40000000
v -0.40234375 -0.23046875 0.07421875 0.40000000 0.40000000 0.40000000
v -0.40234375 -0.17578125 -0.02734375 0.40000000 0.40000000 0.40000000
v -0.40234375 -0.17578125 0.05078125 0.40000000 0.40000000 0.40000000
v -0.40234375 -0.08203125 -0.02734375 0.40000000 0.40000000 0.40000000
v -0.40234375 -0.08203125 0.05078125 0.40000000 0.40000000 0.40000000
v -0.40234375 -0.03515625 -0.07421875 0.40000000 0.40000000 0.40000000
v -0.40234375 -0.03515625 0.07421875 0.40000000 0.40000000 0.40000000
v -0.40234375 -0.01953125 -0.07421875 0.40000000 0.40000000 0.40000000
v -0.40234375 -0.01953125 0.06640625 0.40000000 0.40000000 0.40000000
v -0.40234375 -0.01953125 0.07421875 0.40000000 0.40000000 0.40000000
v -0.40234375 -0.01171875 -0.07421875 0.40000000 0.40000000 0.40000000
v -0.40234375 -0.01171875 0.05078125 0.40000000 0.40000000 0.40000000
v -0.40234375 0.04296875 -0.07421875 0.40000000 0.40000000 0.40000000
v -0.40234375 0.04296875 0.05078125 0.40000000 0.40000000 0.40000000
v -0.40234375 0.09765625 -0.07421875 0.40000000 0.40000000 0.40000000
v -0.40234375 0.09765625 0.06640625 0.40000000 0.40000000 0.40000000
v -0.40234375 0.09765625 0.07421875 0.40000000 0.40000000 0.40000000
v -0.39453125 -0.02734375 -0.07421875 0.40000000 0.40000000 0.40000000
v -0.39453125 -0.02734375 0.07421875 0.40000000 0.40000000 0.40000000
v -0.39453125 0.10546875 -0.07421875 0.40000000 0.40000000 0.40000000
v -0.39453125 0.10546875 0.07421875 0.40000000 0.40000000 0.40000000
v -0.39453125 0.11328125 -0.07421875 0.40000000 0.40000000 0.40000000
v -0.39453125 0.11328125 0.07421875 0.40000000 0.40000000 0.40000000
v -0.38671875 -0.20703125 -0.07421875 0.40000000 0.40000000 0.40000000
v -0.38671875 -0.20703125 -0.06640625 0.40000000 0.40000000 0.40000000
v -0.38671875 -0.20703125 0.07421875 0.40000000 0.40000000 0.40000000
v -0.38671875 -0.17578125 -0.02734375 0.40000000 0.40000000 0.40000000
v -0.38671875 -0.17578125 0.05078125 0.40000000 0.40000000 0.40000000
v -0.38671875 -0.08203125 -0.02734375 0.40000000 0.40000000 0.40000000
v -0.38671875 -0.08203125 0.05078125 0.40000000 0.40000000 0.40000000
v -0.38671875 -0.03515625 -0.07421875 0.40000000 0.40000000 0.40000000
v -0.38671875 -0.03515625 -0.06640625 0.40000000 0.40000000 0.40000000
v -0.38671875 -0.03515625 0.07421875 0.40000000 0.40000000 0.40000000
v -0.38671875 -0.01953125 -0.07421875 0.40000000 0.40000000 0.40000000
v -0.38671875 -0.01953125 0.06640625 0.40000000 0.40000000 0.40000000
v -0.38671875 -0.01953125 0.07421875 0.40000000 0.40000000 0.40000000
v -0.38671875 -0.01171875 -0.07421875 0.40000000 0.40000000 0.40000000
v -0.38671875 -0.01171875 0.05078125 0.40000000 0.40000000 0.40000000
v -0.38671875 0.04296875 -0.07421875 0.40000000 0.40000000 0.40000000
v -0.38671875 0.04296875 0.05078125 0.40000000 0.40000000 0.40000000
v -0.38671875 0.09765625 -0.07421875 0.40000000 0.40000000 0.40000000
v -0.38671875 0.09765625 0.06640625 0.40000000 0.40000000 0.40000000
v -0.38671875 0.09765625 0.07421875 0.40000000 0.40000000 0.40000000
v -0.37109375 -0.03515625 0.06640625 0.40000000 0.40000000 0.40000000
v -0.37109375 -0.03515625 0.07421875 0.40000000 0.40000000 0.40000000
v -0.19140625 -0.01953125 -0.07421875 0.40000000 0.40000000 0.40000000
v -0.19140625 -0.01953125 0.06640625 0.40000000 0.40000000 0.40000000
v -0.19140625 -0.01953125 0.07421875 0.40000000 0.40000000 0.40000000
v -0.19140625 -0.01171875 -0.07421875 0.40000000 0.40000000 0.40000000
v -0.19140625 -0.01171875 0.05078125 0.40000000 0.40000000 0.40000000
v -0.19140625 0.04296875 -0.07421875 0.40000000 0.40000000 0.40000000
v -0.19140625 0.04296875 0.05078125 0.40000000 0.40000000 0.40000000
v -0.19140625 0.09765625 -0.07421875 0.40000000 0.40000000 0.40000000
v -0.19140625 0.09765625 0.06640625 0.40000000 0.40000000 0.40000000
v -0.19140625 0.09765625 0.07421875 0.40000000 0.40000000 0.40000000
v -0.18359375 -0.03515625 -0.07421875 0.40000000 0.40000000 0.40000000
v -0.18359375 -0.03515625 -0.06640625 0.40000000 0.40000000 0.40000000
v -0.18359375 -0.03515625 0.06640625 0.40000000 0.40000000 0.40000000
v -0.18359375 -0.03515625 0.07421875 0.40000000 0.40000000 0.40000000
v -0.18359375 -0.02734375 -0.07421875 0.40000000 0.40000000 0.40000000
v -0.18359375 -0.02734375 0.07421875 0.40000000 0.40000000 0.40000000
v -0.18359375 0.10546875 -0.07421875 0.40000000 0.40000000 0.40000000
v -0.18359375 0.10546875 0.07421875 0.40000000 0.40000000 0.40000000
v -0.18359375 0.11328125 -0.07421875 0.40000000 0.40000000 0.40000000
v -0.18359375 0.11328125 0.07421875 0.40000000 0.40000000 0.40000000
v -0.17578125 -0.03515625 -0.07421875 0.40000000 0.40000000 0.40000000
v -0.17578125 -0.03515625 -0.06640625 0.40000000 0.40000000 0.40000000
v -0.17578125 -0.01953125 -0.07421875 0.40000000 0.40000000 0.40000000
v -0.17578125 -0.01953125 -0.06640625 0.40000000 0.40000000 0.40000000
v -0.17578125 -0.01953125 0.06640625 0.40000000 0.40000000 0.40000000
v -0.17578125 -0.01953125 0.07421875 0.40000000 0.40000000 0.40000000
v -0.17578125 -0.01171875 -0.07421875 0.40000000 0.40000000 0.40000000
v -0.17578125 -0.01171875 -0.06640625 0.40000000 0.40000000 0.40000000
v -0.17578125 -0.01171875 0.05078125 0.40000000 0.40000000 0.40000000
v -0.17578125 0.04296875 -0.07421875 0.40000000 0.40000000 0.40000000
v -0.17578125 0.04296875 0.05078125 0.40000000 0.40000000 0.40000000
v -0.17578125 0.05078125 -0.07421875 0.40000000 0.40000000 0.40000000
v -0.17578125 0.05078125 -0.06640625 0.40000000 0.40000000 0.40000000
v -0.17578125 0.09765625 -0.07421875 0.40000000 0.40000000 0.40000000
v -0.17578125 0.09765625 -0.06640625 0.40000000 0.40000000 0.40000000
v -0.17578125 0.09765625 0.06640625 0.40000000 0.40000000 0.40000000
v -0.17578125 0.09765625 0.07421875 0.40000000 0.40000000 0.40000000
v -0.16796875 -0.03515625 -0.07421875 0.40000000 0.40000000 0.40000000
v -0.16796875 -0.03515625 0.05078125 0.40000000 0.40000000 0.40000000
v -0.16796875 -0.01953125 -0.07421875 0.40000000 0.40000000 0.40000000
v -0.16796875 -0.01953125 0.05078125 0.40000000 0.40000000 0.40000000
v -0.15234375 -0.20703125 0.06640625 0.40000000 0.40000000 0.40000000
v -0.15234375 -0.20703125 0.07421875 0.40000000 0.40000000 0.40000000
v -0.12109375 -0.03515625 -0.07421875 0.40000000 0.40000000 0.40000000
v -0.12109375 -0.03515625 0.05078125 0.40000000 0.40000000 0.40000000
v -0.12109375 -0.01953125 -0.07421875 0.40000000 0.40000000 0.40000000
v -0.12109375 -0.01953125 -0.06640625 0.40000000 0.40000000 0.40000000
v -0.12109375 -0.01953125 0.05078125 0.40000000 0.40000000 0.40000000
v -0.12109375 -0.01171875 -0.07421875 0.40000000 0.40000000 0.40000000
v -0.12109375 -0.01171875 -0.06640625 0.40000000 0.40000000 0.40000000
v -0.12109375 0.08984375 -0.07421875 0.40000000 0.40000000 0.40000000
v -0.12109375 0.08984375 -0.06640625 0.40000000 0.40000000 0.40000000
v -0.12109375 0.09765625 -0.07421875 0.40000000 0.40000000 0.40000000
v -0.12109375 0.09765625 -0.06640625 0.40000000 0.40000000 0.40000000
v -0.11328125 -0.20703125 -0.07421875 0.40000000 0.40000000 0.40000000
v -0.11328125 -0.20703125 -0.06640625 0.40000000 0.40000000 0.40000000
v -0.11328125 -0.20703125 0.06640625 0.40000000 0.40000000 0.40000000
v -0.11328125 -0.20703125 0.07421875 0.40000000 0.40000000 0.40000000
v -0.11328125 -0.03515625 -0.07421875 0.40000000 0.40000000 0.40000000
v -0.11328125 -0.03515625 -0.06640625 0.40000000 0.40000000 0.40000000
v -0.11328125 -0.03515625 0.06640625 0.40000000 0.40000000 0.40000000
v -0.11328125 -0.03515625 0.07421875 0.40000000 0.40000000 0.40000000
v -0.11328125 -0.01953125 -0.07421875 0.40000000 0.40000000 0.40000000
v -0.11328125 -0.01953125 -0.06640625 0.40000000 0.40000000 0.40000000
v -0.11328125 -0.01953125 0.06640625 0.40000000 0.40000000 0.40000000
v -0.11328125 -0.01953125 0.07421875 0.40000000 0.40000000 0.40000000
v -0.11328125 -0.01171875 -0.07421875 0.40000000 0.40000000 0.40000000
v -0.11328125 -0.01171875 -0.06640625 0.40000000 0.40000000 0.40000000
v -0.11328125 -0.01171875 0.05078125 0.40000000 0.40000000 0.40000000
v -0.11328125 0.08984375 -0.07421875 0.40000000 0.40000000 0.40000000
v -0.11328125 0.08984375 -0.06640625 0.40000000 0.40000000 0.40000000
v -0.11328125 0.08984375 0.05078125 0.40000000 0.40000000 0.40000000
v -0.11328125 0.09765625 -0.07421875 0.40000000 0.40000000 0.40000000
v -0.11328125 0.09765625 -0.06640625 0.40000000 0.40000000 0.40000000
v -0.11328125 0.09765625 0.06640625 0.40000000 0.40000000 0.40000000
v -0.11328125 0.09765625 0.07421875 0.40000000 0.40000000 0.40000000
v -0.10546875 -0.23046875 -0.07421875 0.40000000 0.40000000 0.40000000
v -0.10546875 -0.23046875 0.07421875 0.40000000 0.40000000 0.40000000
v -0.10546875 -0.21484375 -0.07421875 0.40000000 0.40000000 0.40000000
v -0.10546875 -0.21484375 0.07421875 0.40000000 0.40000000 0.40000000
v -0.10546875 -0.02734375 -0.07421875 0.40000000 0.40000000 0.40000000
v -0.10546875 -0.02734375 0.07421875 0.40000000 0.40000000 0.40000000
v -0.10546875 0.10546875 -0.07421875 0.40000000 0.40000000 0.40000000
v -0.10546875 0.10546875 0.07421875 0.40000000 0.40000000 0.40000000
v -0.10546875 0.11328125 -0.07421875 0.40000000 0.40000000 0.40000000
v -0.10546875 0.11328125 0.07421875 0.40000000 0.40000000 0.40000000
v -0.09765625 -0.20703125 -0.07421875 0.40000000 0.40000000 0.40000000
v -0.09765625 -0.20703125 0.06640625 0.40000000 0.40000000 0.40000000
v -0.09765625 -0.20703125 0.07421875 0.40000000 0.40000000 0.40000000
v -0.09765625 -0.03515625 -0.07421875 0.40000000 0.40000000 0.40000000
v -0.09765625 -0.03515625 0.06640625 0.40000000 0.40000000 0.40000000
v -0.09765625 -0.03515625 0.07421875 0.40000000 0.40000000 0.40000000
v -0.09765625 -0.01953125 -0.07421875 0.40000000 0.40000000 0.40000000
v -0.09765625 -0.01953125 -0.06640625 0.40000000 0.40000000 0.40000000
v -0.09765625 -0.01953125 0.06640625 0.40000000 0.40000000 0.40000000
v -0.09765625 -0.01953125 0.07421875 0.40000000 0.40000000 0.40000000
v -0.09765625 -0.01171875 -0.07421875 0.40000000 0.40000000 0.40000000
v -0.09765625 -0.01171875 -0.06640625 0.40000000 0.40000000 0.40000000
v -0.09765625 -0.01171875 0.05078125 0.40000000 0.40000000 0.40000000
v -0.09765625 0.08984375 -0.07421875 0.40000000 0.40000000 0.40000000
v -0.09765625 0.08984375 0.05078125 0.40000000 0.40000000 0.40000000
v -0.09765625 0.09765625 -0.07421875 0.40000000 0.40000000 0.40000000
v -0.09765625 0.09765625 -0.06640625 0.40000000 0.40000000 0.40000000
v -0.09765625 0.09765625 0.06640625 0.40000000 0.40000000 0.40000000
v -0.09765625 0.09765625 0.07421875 0.40000000 0.40000000 0.40000000
v -0.08984375 0.09765625 -0.07421875 0.40000000 0.40000000 0.40000000
v -0.08984375 0.09765625 -0.06640625 0.40000000 0.40000000 0.40000000
v -0.08203125 0.09765625 -0.07421875 0.40000000 0.40000000 0.40000000
v -0.08203125 0.09765625 0.05078125 0.40000000 0.40000000 0.40000000
v -0.08203125 0.11328125 -0.07421875 0.40000000 0.40000000 0.40000000
v -0.08203125 0.11328125 0.05078125 0.40000000 0.40000000 0.40000000
v -0.02734375 0.09765625 -0.07421875 0.40000000 0.40000000 0.40000000
v -0.02734375 0.09765625 0.05078125 0.40000000 0.40000000 0.40000000
v -0.02734375 0.11328125 -0.07421875 0.40000000 0.40000000 0.40000000
v -0.02734375 0.11328125 0.05078125 0.40000000 0.40000000 0.40000000
v -0.01953125 0.09765625 -0.07421875 0.40000000 0.40000000 0.40000000
v -0.01953125 0.09765625 -0.06640625 0.40000000 0.40000000 0.40000000
v -0.01953125 0.11328125 -0.07421875 0.40000000 0.40000000 0.40000000
v -0.01953125 0.11328125 0.07421875 0.40000000 0.40000000 0.40000000
v -0.01953125 0.23046875 -0.07421875 0.40000000 0.40000000 0.40000000
v -0.01953125 0.23046875 0.07421875 0.40000000 0.40000000 0.40000000
v 0.00390625 0.09765625 -0.07421875 0.40000000 0.40000000 0.40000000
v 0.00390625 0.09765625 -0.06640625 0.40000000 0.40000000 0.40000000
v 0.00390625 0.09765625 0.06640625 0.40000000 0.40000000 0.40000000
v 0.00390625 0.09765625 0.07421875 0.40000000 0.40000000 0.40000000
v 0.00390625 0.20703125 -0.07421875 0.40000000 0.40000000 0.40000000
v 0.00390625 0.20703125 -0.06640625 0.40000000 0.40000000 0.40000000
v 0.00390625 0.20703125 0.06640625 0.40000000 0.40000000 0.40000000
v 0.00390625 0.20703125 0.07421875 0.40000000 0.40000000 0.40000000
v 0.01171875 -0.11328125 -0.07421875 0.40000000 0.40000000 0.40000000
v 0.01171875 -0.11328125 0.06640625 0.40000000 0.40000000 0.40000000
v 0.01171875 -0.11328125 0.07421875 0.40000000 0.40000000 0.40000000
v 0.01171875 -0.08984375 -0.07421875 0.40000000 0.40000000 0.40000000
v 0.01171875 -0.08984375 0.05078125 0.40000000 0.40000000 0.40000000
v 0.01171875 -0.04296875 -0.07421875 0.40000000 0.40000000 0.40000000
v 0.01171875 -0.04296875 0.05078125 0.40000000 0.40000000 0.40000000
v 0.01171875 -0.03515625 -0.07421875 0.40000000 0.40000000 0.40000000
v 0.01171875 -0.03515625 0.06640625 0.40000000 0.40000000 0.40000000
v 0.01171875 -0.03515625 0.07421875 0.40000000 0.40000000 0.40000000
v 0.01953125 -0.02734375 -0.07421875 0.40000000 0.40000000 0.40000000
v 0.01953125 -0.02734375 0.07421875 0.40000000 0.40000000 0.40000000
v 0.01953125 -0.01953125 -0.07421875 0.40000000 0.40000000 0.40000000
v 0.01953125 -0.01953125 -0.06640625 0.40000000 0.40000000 0.40000000
v 0.01953125 -0.01953125 0.06640625 0.40000000 0.40000000 0.40000000
v 0.01953125 -0.01953125 0.07421875 0.40000000 0.40000000 0.40000000
v 0.02734375 -0.09765625 -0.07421875 0.40000000 0.40000000 0.40000000
v 0.02734375 -0.09765625 -0.06640625 0.40000000 0.40000000 0.40000000
v 0.02734375 -0.09765625 0.06640625 0.40000000 0.40000000 0.40000000
v 0.02734375 -0.09765625 0.07421875 0.40000000 0.40000000 0.40000000
v 0.02734375 -0.08984375 -0.07421875 0.40000000 0.40000000 0.40000000
v 0.02734375 -0.08984375 0.05078125 0.40000000 0.40000000 0.40000000
v 0.02734375 -0.04296875 -0.07421875 0.40000000 0.40000000 0.40000000
v 0.02734375 -0.04296875 0.05078125 0.40000000 0.40000000 0.40000000
v 0.02734375 -0.03515625 -0.07421875 0.40000000 0.40000000 0.40000000
v 0.02734375 -0.03515625 -0.06640625 0.40000000 0.40000000 0.40000000
v 0.02734375 -0.03515625 0.06640625 0.40000000 0.40000000 0.40000000
v 0.02734375 -0.03515625 0.07421875 0.40000000 0.40000000 0.40000000
v 0.03515625 -0.03515625 -0.07421875 0.40000000 0.40000000 0.40000000
v 0.03515625 -0.03515625 -0.06640625 0.40000000 0.40000000 0.40000000
v 0.03515625 -0.03515625 0.05078125 0.40000000 0.40000000 0.40000000
v 0.03515625 -0.01953125 -0.07421875 0.40000000 0.40000000 0.40000000
v 0.03515625 -0.01953125 -0.06640625 0.40000000 0.40000000 0.40000000
v 0.03515625 -0.01953125 0.05078125 0.40000000 0.40000000 0.40000000
v 0.08984375 0.20703125 0.06640625 0.40000000 0.40000000 0.40000000
v 0.11328125 -0.20703125 -0.07421875 0.40000000 0.40000000 0.40000000
v 0.11328125 -0.20703125 0.06640625 0.40000000 0.40000000 0.40000000
v 0.11328125 -0.20703125 0.07421875 0.40000000 0.40000000 0.40000000
v 0.11328125 -0.11328125 -0.07421875 0.40000000 0.40000000 0.40000000
v 0.11328125 -0.11328125 0.06640625 0.40000000 0.40000000 0.40000000
v 0.11328125 -0.11328125 0.07421875 0.40000000 0.40000000 0.40000000
v 0.11328125 -0.09765625 -0.07421875 0.40000000 0.40000000 0.40000000
v 0.11328125 -0.09765625 -0.06640625 0.40000000 0.40000000 0.40000000
v 0.11328125 -0.09765625 0.06640625 0.40000000 0.40000000 0.40000000
v 0.11328125 -0.09765625 0.07421875 0.40000000 0.40000000 0.40000000
v 0.11328125 -0.08984375 -0.07421875 0.40000000 0.40000000 0.40000000
v 0.11328125 -0.08984375 0.05078125 0.40000000 0.40000000 0.40000000
v 0.11328125 -0.04296875 -0.07421875 0.40000000 0.40000000 0.40000000
v 0.11328125 -0.04296875 -0.06640625 0.40000000 0.40000000 0.40000000
v 0.11328125 -0.04296875 0.05078125 0.40000000 0.40000000 0.40000000
v 0.11328125 -0.03515625 -0.07421875 0.40000000 0.40000000 0.40000000
v 0.11328125 -0.03515625 -0.06640625 0.40000000 0.40000000 0.40000000
v 0.11328125 -0.03515625 0.05078125 0.40000000 0.40000000 0.40000000
v 0.11328125 -0.03515625 0.06640625 0.40000000 0.40000000 0.40000000
v 0.11328125 -0.03515625 0.07421875 0.40000000 0.40000000 0.40000000
v 0.11328125 -0.01953125 -0.07421875 0.40000000 0.40000000 0.40000000
v 0.11328125 -0.01953125 -0.06640625 0.40000000 0.40000000 0.40000000
v 0.11328125 -0.01953125 0.05078125 0.40000000 0.40000000 0.40000000
v 0.12109375 -0.23046875 -0.07421875 0.40000000 0.40000000 0.40000000
v 0.12109375 -0.23046875 0.07421875 0.40000000 0.40000000 0.40000000
v 0.12109375 -0.21484375 -0.07421875 0.40000000 0.40000000 0.40000000
v 0.12109375 -0.21484375 0.07421875 0.40000000 0.40000000 0.40000000
v 0.12109375 -0.10546875 -0.07421875 0.40000000 0.40000000 0.40000000
v 0.12109375 -0.10546875 0.07421875 0.40000000 0.40000000 0.40000000
v 0.12109375 -0.02734375 -0.07421875 0.40000000 0.40000000 0.40000000
v 0.12109375 -0.02734375 0.07421875 0.40000000 0.40000000 0.40000000
v 0.12109375 -0.01953125 -0.07421875 0.40000000 0.40000000 0.40000000
v 0.12109375 -0.01953125 -0.06640625 0.40000000 0.40000000 0.40000000
v 0.12109375 -0.01953125 0.06640625 0.40000000 0.40000000 0.40000000
v 0.12109375 -0.01953125 0.07421875 0.40000000 0.40000000 0.40000000
v 0.13671875 -0.20703125 -0.07421875 0.40000000 0.40000000 0.40000000
v 0.13671875 -0.20703125 -0.06640625 0.40000000 0.40000000 0.40000000
v 0.13671875 -0.20703125 0.06640625 0.40000000 0.40000000 0.40000000
v 0.13671875 -0.20703125 0.07421875 0.40000000 0.40000000 0.40000000
v 0.13671875 -0.10546875 -0.07421875 0.40000000 0.40000000 0.40000000
v 0.13671875 -0.10546875 -0.06640625 0.40000000 0.40000000 0.40000000
v 0.13671875 -0.10546875 0.06640625 0.40000000 0.40000000 0.40000000
v 0.13671875 -0.10546875 0.07421875 0.40000000 0.40000000 0.40000000
v 0.13671875 -0.09765625 -0.07421875 0.40000000 0.40000000 0.40000000
v 0.13671875 -0.09765625 -0.06640625 0.40000000 0.40000000 0.40000000
v 0.13671875 -0.08984375 -0.07421875 0.40000000 0.40000000 0.40000000
v 0.13671875 -0.08984375 0.05078125 0.40000000 0.40000000 0.40000000
v 0.13671875 -0.04296875 -0.07421875 0.40000000 0.40000000 0.40000000
v 0.13671875 -0.04296875 0.05078125 0.40000000 0.40000000 0.40000000
v 0.13671875 -0.03515625 -0.07421875 0.40000000 0.40000000 0.40000000
v 0.13671875 -0.03515625 -0.06640625 0.40000000 0.40000000 0.40000000
v 0.13671875 -0.03515625 0.06640625 0.40000000 0.40000000 0.40000000
v 0.13671875 -0.03515625 0.07421875 0.40000000 0.40000000 0.40000000
v 0.37109375 -0.20703125 -0.06640625 0.40000000 0.40000000 0.40000000
v 0.37109375 -0.20703125 0.06640625 0.40000000 0.40000000 0.40000000
v 0.37109375 -0.20703125 0.07421875 0.40000000 0.40000000 0.40000000
v 0.37109375 -0.03515625 0.06640625 0.40000000 0.40000000 0.40000000
v 0.37109375 -0.03515625 0.07421875 0.40000000 0.40000000 0.40000000
v 0.37109375 -0.01953125 0.06640625 0.40000000 0.40000000 0.40000000
v 0.37109375 -0.01953125 0.07421875 0.40000000 0.40000000 0.40000000
v 0.37109375 0.20703125 0.06640625 0.40000000 0.40000000 0.40000000
v 0.37109375 0.20703125 0.07421875 0.40000000 0.40000000 0.40000000
v 0.38671875 -0.20703125 -0.07421875 0.40000000 0.40000000 0.40000000
v 0.38671875 -0.20703125 -0.06640625 0.40000000 0.40000000 0.40000000
v 0.38671875 -0.20703125 0.07421875 0.40000000 0.40000000 0.40000000
v 0.38671875 -0.16796875 -0.02734375 0.40000000 0.40000000 0.40000000
v 0.38671875 -0.16796875 0.05859375 0.40000000 0.40000000 0.40000000
v 0.38671875 -0.07421875 -0.02734375 0.40000000 0.40000000 0.40000000
v 0.38671875 -0.07421875 0.05859375 0.40000000 0.40000000 0.40000000
v 0.38671875 -0.03515625 -0.07421875 0.40000000 0.40000000 0.40000000
v 0.38671875 -0.03515625 -0.06640625 0.40000000 0.40000000 0.40000000
v 0.38671875 -0.03515625 0.07421875 0.40000000 0.40000000 0.40000000
v 0.38671875 -0.01953125 -0.07421875 0.40000000 0.40000000 0.40000000
v 0.38671875 -0.01953125 -0.06640625 0.40000000 0.40000000 0.40000000
v 0.38671875 -0.01953125 0.07421875 0.40000000 0.40000000 0.40000000
v 0.38671875 -0.00390625 -0.07421875 0.40000000 0.40000000 0.40000000
v 0.38671875 -0.00390625 -0.06640625 0.40000000 0.40000000 0.40000000
v 0.38671875 0.00390625 -0.07421875 0.40000000 0.40000000 0.40000000
v 0.38671875 0.00390625 0.05078125 0.40000000 0.40000000 0.40000000
v 0.38671875 0.19140625 -0.07421875 0.40000000 0.40000000 0.40000000
v 0.38671875 0.19140625 0.05078125 0.40000000 0.40000000 0.40000000
v 0.38671875 0.19921875 -0.07421875 0.40000000 0.40000000 0.40000000
v 0.38671875 0.19921875 -0.06640625 0.40000000 0.40000000 0.40000000
v 0.38671875 0.20703125 -0.07421875 0.40000000 0.40000000 0.40000000
v 0.38671875 0.20703125 -0.06640625 0.40000000 0.40000000 0.40000000
v 0.38671875 0.20703125 0.07421875 0.40000000 0.40000000 0.40000000
v 0.39453125 -0.02734375 -0.07421875 0.40000000 0.40000000 0.40000000
v 0.39453125 -0.02734375 0.07421875 0.40000000 0.40000000 0.40000000
v 0.39453125 0.21484375 -0.07421875 0.40000000 0.40000000 0.40000000
v 0.39453125 0.21484375 0.07421875 0.40000000 0.40000000 0.40000000
v 0.39453125 0.23046875 -0.07421875 0.40000000 0.40000000 0.40000000
v 0.39453125 0.23046875 0.07421875 0.40000000 0.40000000 0.40000000
v 0.40234375 -0.23046875 -0.07421875 0.40000000 0.40000000 0.40000000
v 0.40234375 -0.23046875 0.07421875 0.40000000 0.40000000 0.40000000
v 0.40234375 -0.16796875 -0.02734375 0.40000000 0.40000000 0.40000000
v 0.40234375 -0.16796875 0.05859375 0.40000000 0.40000000 0.40000000
v 0.40234375 -0.07421875 -0.02734375 0.40000000 0.40000000 0.40000000
v 0.40234375 -0.07421875 0.05859375 0.40000000 0.40000000 0.40000000
v 0.40234375 -0.03515625 -0.07421875 0.40000000 0.40000000 0.40000000
v 0.40234375 -0.03515625 0.07421875 0.40000000 0.40000000 0.40000000
v 0.40234375 -0.01953125 -0.07421875 0.40000000 0.40000000 0.40000000
v 0.40234375 -0.01953125 0.07421875 0.40000000 0.40000000 0.40000000
v 0.40234375 0.00390625 -0.07421875 0.40000000 0.40000000 0.40000000
v 0.40234375 0.00390625 0.05078125 0.40000000 0.40000000 0.40000000
v 0.40234375 0.19140625 -0.07421875 0.40000000 0.40000000 0.40000000
v 0.40234375 0.19140625 0.05078125 0.40000000 0.40000000 0.40000000
v 0.40234375 0.20703125 -0.07421875 0.40000000 0.40000000 0.40000000
v 0.40234375 0.20703125 0.07421875 0.40000000 0.40000000 0.40000000
v 0.41015625 -0.03515625 -0.06640625 0.40000000 0.40000000 0.40000000
v 0.41015625 -0.03515625 0.05859375 0.40000000 0.40000000 0.40000000
v 0.41015625 -0.01953125 -0.06640625 0.40000000 0.40000000 0.40000000
v 0.41015625 -0.01953125 0.05859375 0.40000000 0.40000000 0.40000000
v 0.41015625 0.20703125 -0.06640625 0.40000000 0.40000000 0.40000000
v 0.41015625 0.20703125 0.05859375 0.40000000 0.40000000 0.40000000
v 0.41015625 0.23046875 -0.06640625 0.40000000 0.40000000 0.40000000
v 0.41015625 0.23046875 0.05859375 0.40000000 0.40000000 0.40000000
v 0.47265625 -0.03515625 -0.06640625 0.40000000 0.40000000 0.40000000
v 0.47265625 -0.03515625 0.05859375 0.40000000 0.40000000 0.40000000
v 0.47265625 -0.01953125 -0.06640625 0.40000000 0.40000000 0.40000000
v 0.47265625 -0.01953125 0.05859375 0.40000000 0.40000000 0.40000000
v 0.47265625 0.20703125 -0.06640625 0.40000000 0.40000000 0.40000000
v 0.47265625 0.20703125 0.05859375 0.40000000 0.40000000 0.40000000
v 0.47265625 0.23046875 -0.06640625 0.40000000 0.40000000 0.40000000
v 0.47265625 0.23046875 0.05859375 0.40000000 0.40000000 0.40000000
v 0.48046875 -0.01953125 -0.07421875 0.40000000 0.40000000 0.40000000
v 0.48046875 -0.01953125 0.07421875 0.40000000 0.40000000 0.40000000
v 0.48046875 -0.01171875 -0.06640625 0.40000000 0.40000000 0.40000000
v 0.48046875 -0.01171875 0.05859375 0.40000000 0.40000000 0.40000000
v 0.48046875 0.20703125 -0.07421875 0.40000000 0.40000000 0.40000000
v 0.48046875 0.20703125 -0.06640625 0.40000000 0.40000000 0.40000000
v 0.48046875 0.20703125 0.05859375 0.40000000 0.40000000 0.40000000
v 0.48046875 0.20703125 0.07421875 0.40000000 0.40000000 0.40000000
v 0.49609375 -0.03515625 -0.07421875 0.40000000 0.40000000 0.40000000
v 0.49609375 -0.03515625 0.07421875 0.40000000 0.40000000 0.40000000
v 0.49609375 -0.01171875 -0.06640625 0.40000000 0.40000000 0.40000000
v 0.49609375 -0.01171875 0.05859375 0.40000000 0.40000000 0.40000000
v 0.49609375 0.20703125 -0.06640625 0.40000000 0.40000000 0.40000000
v 0.49609375 0.20703125 0.05859375 0.40000000 0.40000000 0.40000000
v 0.49609375 0.23046875 -0.07421875 0.40000000 0.40000000 0.40000000
v 0.49609375 0.23046875 0.07421875 0.40000000 0.40000000 0.40000000
v 0.16796875 -0.21484375 -0.07421875 0.70588235 0.50980392 0.27450980
v 0.19921875 -0.21484375 -0.07421875 0.70588235 0.50980392 0.27450980
v 0.19921875 -0.16796875 -0.07421875 0.70588235 0.50980392 0.27450980
v 0.16796875 -0.16796875 -0.07421875 0.70588235 0.50980392 0.27450980
v 0.16796875 -0.21484375 -0.05078125 0.70588235 0.50980392 0.27450980
v 0.19921875 -0.21484375 -0.05078125 0.70588235 0.50980392 0.27450980
v 0.19921875 -0.16796875 -0.05078125 0.70588235 0.50980392 0.27450980
v 0.16796875 -0.16796875 -0.05078125 0.70588235 0.50980392 0.27450980
v -0.22265625 -0.19140625 -0.07421875 0.78431373 0.39215686 0.78431373
v -0.19140625 -0.19140625 -0.07421875 0.78431373 0.39215686 0.78431373
v -0.19140625 -0.13671875 -0.07421875 0.78431373 0.39215686 0.78431373
v -0.22265625 -0.13671875 -0.07421875 0.78431373 0.39215686 0.78431373
v -0.22265625 -0.19140625 -0.04296875 0.78431373 0.39215686 0.78431373
v -0.19140625 -0.19140625 -0.04296875 0.78431373 0.39215686 0.78431373
v -0.19140625 -0.13671875 -0.04296875 0.78431373 0.39215686 0.78431373
v -0.22265625 -0.13671875 -0.04296875 0.78431373 0.39215686 0.78431373
v 0.19140625 -0.18359375 -0.07421875 0.31372549 0.78431373 0.94117647
v 0.30859375 -0.18359375 -0.07421875 0.31372549 0.78431373 0.94117647
v 0.30859375 -0.09765625 -0.07421875 0.31372549 0.78431373 0.94117647
v 0.19140625 -0.09765625 -0.07421875 0.31372549 0.78431373 0.94117647
v 0.19140625 -0.18359375 0.06640625 0.31372549 0.78431373 0.94117647
v 0.30859375 -0.18359375 0.06640625 0.31372549 0.78431373 0.94117647
v 0.30859375 -0.09765625 0.06640625 0.31372549 0.78431373 0.94117647
v 0.19140625 -0.09765625 0.06640625 0.31372549 0.78431373 0.94117647
v -0.35546875 -0.16796875 -0.07421875 0.31372549 0.78431373 0.94117647
v -0.23046875 -0.16796875 -0.07421875 0.31372549 0.78431373 0.94117647
v -0.23046875 -0.10546875 -0.07421875 0.31372549 0.78431373 0.94117647
v -0.35546875 -0.10546875 -0.07421875 0.31372549 0.78431373 0.94117647
v -0.35546875 -0.16796875 0.05859375 0.31372549 0.78431373 0.94117647
v -0.23046875 -0.16796875 0.05859375 0.31372549 0.78431373 0.94117647
v -0.23046875 -0.10546875 0.05859375 0.31372549 0.78431373 0.94117647
v -0.35546875 -0.10546875 0.05859375 0.31372549 0.78431373 0.94117647
v 0.20703125 0.05078125 -0.07421875 0.70588235 0.50980392 0.27450980
v 0.28515625 0.05078125 -0.07421875 0.70588235 0.50980392 0.27450980
v 0.28515625 0.11328125 -0.07421875 0.70588235 0.50980392 0.27450980
v 0.20703125 0.11328125 -0.07421875 0.70588235 0.50980392 0.27450980
v 0.20703125 0.05078125 0.00390625 0.70588235 0.50980392 0.27450980
v 0.28515625 0.05078125 0.00390625 0.70588235 0.50980392 0.27450980
v 0.28515625 0.11328125 0.00390625 0.70588235 0.50980392 0.27450980
v 0.20703125 0.11328125 0.00390625 0.70588235 0.50980392 0.27450980
v 0.32421875 0.05859375 -0.07421875 0.00000000 0.54901961 1.00000000
v 0.38671875 0.05859375 -0.07421875 0.00000000 0.54901961 1.00000000
v 0.38671875 0.12890625 -0.07421875 0.00000000 0.54901961 1.00000000
v 0.32421875 0.12890625 -0.07421875 0.00000000 0.54901961 1.00000000
v 0.32421875 0.05859375 -0.01953125 0.00000000 0.54901961 1.00000000
v 0.38671875 0.05859375 -0.01953125 0.00000000 0.54901961 1.00000000
v 0.38671875 0.12890625 -0.01953125 0.00000000 0.54901961 1.00000000
v 0.32421875 0.12890625 -0.01953125 0.00000000 0.54901961 1.00000000
v 0.00390625 0.13671875 -0.07421875 0.78431373 0.39215686 0.78431373
v 0.07421875 0.13671875 -0.07421875 0.78431373 0.39215686 0.78431373
v 0.07421875 0.16796875 -0.07421875 0.78431373 0.39215686 0.78431373
v 0.00390625 0.16796875 -0.07421875 0.78431373 0.39215686 0.78431373
v 0.00390625 0.13671875 -0.04296875 0.78431373 0.39215686 0.78431373
v 0.07421875 0.13671875 -0.04296875 0.78431373 0.39215686 0.78431373
v 0.07421875 0.16796875 -0.04296875 0.78431373 0.39215686 0.78431373
v 0.00390625 0.16796875 -0.04296875 0.78431373 0.39215686 0.78431373
v 0.08984375 0.13671875 -0.07421875 0.78431373 0.39215686 0.78431373
v 0.16015625 0.13671875 -0.07421875 0.78431373 0.39215686 0.78431373
v 0.16015625 0.16796875 -0.07421875 0.78431373 0.39215686 0.78431373
v 0.08984375 0.16796875 -0.07421875 0.78431373 0.39215686 0.78431373
v 0.08984375 0.13671875 -0.04296875 0.78431373 0.39215686 0.78431373
v 0.16015625 0.13671875 -0.04296875 0.78431373 0.39215686 0.78431373
v 0.16015625 0.16796875 -0.04296875 0.78431373 0.39215686 0.78431373
v 0.08984375 0.16796875 -0.04296875 0.78431373 0.39215686 0.78431373
v 0.16796875 0.15234375 -0.07421875 0.00000000 0.54901961 1.00000000
v 0.31640625 0.15234375 -0.07421875 0.00000000 0.54901961 1.00000000
v 0.31640625 0.20703125 -0.07421875 0.00000000 0.54901961 1.00000000
v 0.16796875 0.20703125 -0.07421875 0.00000000 0.54901961 1.00000000
v 0.16796875 0.15234375 -0.01953125 0.00000000 0.54901961 1.00000000
v 0.31640625 0.15234375 -0.01953125 0.00000000 0.54901961 1.00000000
v 0.31640625 0.20703125 -0.01953125 0.00000000 0.54901961 1.00000000
v 0.16796875 0.20703125 -0.01953125 0.00000000 0.54901961 1.00000000
v 0.05078125 0.12109375 -0.06640625 0.78431373 0.78431373 0.31372549
v 0.10546875 0.12109375 -0.06640625 0.78431373 0.78431373 0.31372549
v 0.10546875 0.20703125 -0.06640625 0.78431373 0.78431373 0.31372549
v 0.05078125 0.20703125 -0.06640625 0.78431373 0.78431373 0.31372549
v 0.05078125 0.12109375 -0.01953125 0.78431373 0.78431373 0.31372549
v 0.10546875 0.12109375 -0.01953125 0.78431373 0.78431373 0.31372549
v 0.10546875 0.20703125 -0.01953125 0.78431373 0.78431373 0.31372549
v 0.05078125 0.20703125 -0.01953125 0.78431373 0.78431373 0.31372549
v 0.22265625 -0.16796875 0.00390625 0.19607843 0.78431373 1.00000000
v 0.27734375 -0.16796875 0.00390625 0.19607843 0.78431373 1.00000000
v 0.27734375 -0.09765625 0.00390625 0.19607843 0.78431373 1.00000000
v 0.22265625 -0.09765625 0.00390625 0.19607843 0.78431373 1.00000000
v 0.22265625 -0.16796875 0.05859375 0.19607843 0.78431373 1.00000000
v 0.27734375 -0.16796875 0.05859375 0.19607843 0.78431373 1.00000000
v 0.27734375 -0.09765625 0.05859375 0.19607843 0.78431373 1.00000000
v 0.22265625 -0.09765625 0.05859375 0.19607843 0.78431373 1.00000000
v -0.25390625 -0.16796875 0.01953125 0.19607843 0.78431373 1.00000000
v -0.23046875 -0.16796875 0.01953125 0.19607843 0.78431373 1.00000000
v -0.23046875 -0.09765625 0.01953125 0.19607843 0.78431373 1.00000000
v -0.25390625 -0.09765625 0.01953125 0.19607843 0.78431373 1.00000000
v -0.25390625 -0.16796875 0.03515625 0.19607843 0.78431373 1.00000000
v -0.23046875 -0.16796875 0.03515625 0.19607843 0.78431373 1.00000000
v -0.23046875 -0.09765625 0.03515625 0.19607843 0.78431373 1.00000000
v -0.25390625 -0.09765625 0.03515625 0.19607843 0.78431373 1.00000000
v 0.21484375 0.08203125 0.02734375 0.19607843 0.78431373 1.00000000
v 0.27734375 0.08203125 0.02734375 0.19607843 0.78431373 1.00000000
v 0.27734375 0.08984375 0.02734375 0.19607843 0.78431373 1.00000000
v 0.21484375 0.08984375 0.02734375 0.19607843 0.78431373 1.00000000
v 0.21484375 0.08203125 0.03515625 0.19607843 0.78431373 1.00000000
v 0.27734375 0.08203125 0.03515625 0.19607843 0.78431373 1.00000000
v 0.27734375 0.08984375 0.03515625 0.19607843 0.78431373 1.00000000
v 0.21484375 0.08984375 0.03515625 0.19607843 0.78431373 1.00000000
v 0.04296875 0.12890625 0.03515625 0.19607843 0.78431373 1.00000000
v 0.09765625 0.12890625 0.03515625 0.19607843 0.78431373 1.00000000
v 0.09765625 0.19140625 0.03515625 0.19607843 0.78431373 1.00000000
v 0.04296875 0.19140625 0.03515625 0.19607843 0.78431373 1.00000000
v 0.04296875 0.12890625 0.08203125 0.19607843 0.78431373 1.00000000
v 0.09765625 0.12890625 0.08203125 0.19607843 0.78431373 1.00000000
v 0.09765625 0.19140625 0.08203125 0.19607843 0.78431373 1.00000000
v 0.04296875 0.19140625 0.08203125 0.19607843 0.78431373 1.00000000
f 35 157 158
f 35 158 36
f 158 157 269
f 157 35 159
f 35 36 37
f 36 158 160
f 158 269 271
f 269 157 268
f 157 159 270
f 159 35 59
f 35 37 39
f 37 36 38
f 36 160 61
f 160 158 271
f 271 269 309
f 269 268 338
f 268 157 270
f 270 159 245
f 159 59 135
f 59 35 41
f 35 39 41
f 39 37 64
f 37 38 63
f 38 36 40
f 36 61 42
f 61 160 138
f 160 271 247
f 271 309 283
f 309 269 338
f 338 268 337
f 268 270 307
f 270 245 280
f 245 159 167
f 159 135 167
f 135 59 60
f 135 59 122
f 59 41 66
f 41 39 40
f 39 64 40
f 64 37 62
f 37 63 62
f 63 38 40
f 40 36 42
f 42 61 68
f 138 160 169
f 160 247 169
f 247 271 283
f 309 338 344
f 338 337 340
f 337 268 307
f 307 270 280
f 280 245 284
f 245 167 168
f 167 135 170
f 135 60 136
f 60 59 67
f 59 135 66
f 135 122 137
f 122 59 61
f 59 66 62
f 59 66 67
f 66 41 53
f 41 40 42
f 40 64 65
f 64 62 66
f 62 63 59
f 63 40 65
f 42 68 54
f 68 61 63
f 138 169 172
f 247 283 287
f 309 344 316
f 344 338 340
f 340 337 339
f 337 307 343
f 307 280 281
f 307 280 298
f 280 284 286
f 280 284 285
f 284 245 248
f 245 168 246
f 168 167 171
f 167 245 210
f 167 170 171
f 170 135 139
f 135 136 139
f 66 135 139
f 135 137 139
f 122 61 123
f 61 59 63
f 67 66 92
f 66 53 95
f 53 41 1
f 41 42 27
f 65 64 68
f 64 66 68
f 63 65 68
f 42 54 2
f 54 68 96
f 138 172 142
f 247 287 250
f 309 316 313
f 316 344 332
f 344 340 342
f 340 339 310
f 339 337 343
f 343 307 314
f 307 281 308
f 281 280 285
f 280 307 284
f 307 298 299
f 298 280 281
f 280 286 282
f 286 284 291
f 285 284 289
f 284 248 272
f 248 245 246
f 167 210 170
f 210 245 248
f 171 170 218
f 170 139 161
f 139 136 140
f 139 137 141
f 92 66 91
f 66 95 91
f 95 53 81
f 53 1 9
f 1 41 19
f 41 27 19
f 27 42 28
f 68 66 80
f 42 2 20
f 2 54 11
f 54 96 83
f 96 68 94
f 142 172 162
f 250 287 273
f 309 313 311
f 313 316 314
f 316 332 297
f 332 344 370
f 344 342 341
f 342 340 313
f 340 310 311
f 310 339 341
f 339 343 341
f 343 314 331
f 314 307 308
f 314 307 312
f 284 307 314
f 307 299 309
f 286 291 296
f 291 284 290
f 289 284 288
f 284 272 290
f 272 248 210
f 248 246 249
f 170 210 217
f 210 248 249
f 218 170 217
f 170 161 220
f 161 139 124
f 139 141 124
f 92 91 102
f 66 91 79
f 91 95 120
f 95 81 103
f 81 53 69
f 53 9 43
f 9 1 7
f 1 19 20
f 19 27 21
f 27 28 30
f 28 42 20
f 80 66 79
f 20 2 1
f 2 11 8
f 11 54 45
f 54 83 71
f 83 96 106
f 96 94 162
f 142 162 94
f 162 172 221
f 250 273 212
f 273 287 297
f 309 311 310
f 311 313 340
f 313 314 312
f 314 316 301
f 297 332 275
f 332 370 346
f 370 344 378
f 344 341 343
f 341 342 313
f 310 341 312
f 343 331 369
f 331 314 294
f 314 308 315
f 312 307 310
f 284 314 294
f 307 309 310
f 309 299 300
f 296 291 293
f 291 290 255
f 290 272 251
f 272 210 226
f 210 249 211
f 218 217 215
f 217 170 220
f 220 161 222
f 161 124 126
f 124 141 125
f 102 91 101
f 79 91 93
f 91 120 118
f 120 95 103
f 103 81 107
f 81 69 70
f 69 53 43
f 43 9 29
f 9 7 16
f 7 1 5
f 20 19 21
f 21 27 29
f 27 30 29
f 30 28 20
f 1 2 3
f 2 8 6
f 8 11 18
f 45 54 71
f 83 106 117
f 106 96 146
f 96 162 146
f 162 221 225
f 221 172 219
f 212 273 229
f 273 297 254
f 313 312 341
f 314 301 294
f 301 316 302
f 297 275 264
f 275 332 319
f 332 346 319
f 346 370 364
f 370 378 384
f 378 344 354
f 344 343 354
f 343 369 377
f 369 331 345
f 331 294 274
f 294 314 315
f 296 293 292
f 293 291 259
f 291 255 256
f 255 290 251
f 255 290 292
f 251 272 226
f 226 210 213
f 210 211 213
f 218 215 216
f 215 217 234
f 217 220 234
f 220 222 241
f 222 161 173
f 161 126 143
f 126 124 128
f 124 125 128
f 125 141 119
f 93 91 119
f 91 118 119
f 118 120 119
f 120 103 105
f 103 107 108
f 103 107 109
f 107 81 84
f 81 70 82
f 70 69 73
f 69 81 76
f 69 43 72
f 43 29 44
f 29 9 21
f 9 43 16
f 9 16 12
f 16 7 55
f 7 5 6
f 5 1 3
f 20 21 22
f 29 30 44
f 30 20 22
f 3 2 4
f 2 6 4
f 6 8 7
f 8 18 56
f 45 71 78
f 83 117 90
f 146 162 176
f 162 225 176
f 225 221 279
f 221 219 237
f 212 229 219
f 229 273 254
f 254 297 264
f 294 301 296
f 264 275 237
f 275 319 279
f 319 346 352
f 346 364 356
f 364 370 369
f 370 384 376
f 384 378 380
f 378 354 362
f 354 343 353
f 343 377 353
f 377 369 383
f 369 345 363
f 345 331 317
f 331 274 317
f 274 294 260
f 294 315 295
f 296 292 294
f 292 293 259
f 259 291 256
f 256 255 253
f 255 251 253
f 255 292 257
f 251 226 227
f 251 226 228
f 226 213 230
f 213 211 214
f 218 216 211
f 216 215 232
f 215 234 232
f 234 220 241
f 241 222 223
f 241 222 224
f 222 173 174
f 222 173 175
f 173 161 143
f 143 126 145
f 126 128 145
f 124 126 118
f 128 125 119
f 119 141 93
f 119 120 121
f 120 118 126
f 120 105 121
f 105 103 109
f 103 108 104
f 109 107 84
f 84 81 82
f 70 73 77
f 73 69 72
f 76 81 88
f 72 43 46
f 43 44 46
f 21 9 10
f 16 43 50
f 9 12 13
f 12 16 14
f 16 55 50
f 55 7 57
f 6 5 14
f 5 3 14
f 22 21 10
f 44 30 10
f 30 22 10
f 3 4 13
f 4 6 13
f 7 8 25
f 8 56 58
f 56 18 52
f 45 78 52
f 90 117 98
f 146 176 185
f 279 221 275
f 221 237 275
f 237 219 229
f 319 352 330
f 352 346 348
f 346 356 355
f 356 364 354
f 364 369 363
f 369 370 371
f 370 376 375
f 376 384 352
f 384 380 382
f 380 378 377
f 378 362 361
f 362 354 364
f 354 353 355
f 353 377 361
f 377 383 379
f 383 369 373
f 363 345 355
f 345 369 351
f 345 317 347
f 317 274 276
f 274 260 265
f 260 294 257
f 294 292 257
f 292 259 257
f 259 256 253
f 253 251 228
f 251 227 252
f 226 251 234
f 228 226 230
f 230 213 231
f 213 214 231
f 214 211 216
f 216 232 233
f 232 215 213
f 232 234 236
f 234 241 238
f 241 223 242
f 223 222 174
f 241 224 243
f 224 222 175
f 174 173 178
f 173 222 182
f 175 173 179
f 173 143 177
f 143 145 147
f 145 128 105
f 128 119 121
f 121 105 128
f 105 109 116
f 109 84 85
f 84 107 110
f 84 82 85
f 77 73 75
f 73 72 46
f 76 88 89
f 46 44 47
f 10 9 13
f 16 50 23
f 13 12 3
f 12 14 3
f 14 16 17
f 50 55 76
f 55 57 99
f 57 7 33
f 6 14 15
f 13 6 15
f 7 25 33
f 25 8 26
f 8 58 34
f 58 56 100
f 56 52 78
f 90 98 78
f 98 117 164
f 146 185 156
f 319 330 325
f 330 352 334
f 352 348 350
f 348 346 345
f 346 355 345
f 355 356 354
f 364 363 361
f 369 371 374
f 371 370 372
f 370 375 372
f 376 352 358
f 352 384 334
f 384 382 381
f 382 380 375
f 380 377 379
f 377 378 361
f 361 362 364
f 355 353 361
f 379 383 381
f 383 373 351
f 373 369 374
f 363 355 361
f 351 369 373
f 345 347 348
f 347 317 322
f 317 276 277
f 317 276 303
f 276 274 265
f 265 260 267
f 260 257 258
f 260 257 263
f 257 259 263
f 259 253 263
f 234 251 260
f 228 230 231
f 213 230 232
f 231 214 216
f 216 233 231
f 233 232 236
f 236 234 240
f 234 238 239
f 234 238 240
f 238 241 240
f 241 243 240
f 243 224 267
f 178 173 177
f 182 222 276
f 175 179 184
f 179 173 177
f 177 143 147
f 143 147 144
f 147 145 149
f 116 109 111
f 109 85 87
f 84 110 86
f 85 82 87
f 77 75 74
f 75 73 49
f 73 46 47
f 46 72 74
f 76 89 77
f 89 88 87
f 88 76 97
f 47 44 49
f 10 13 17
f 16 23 24
f 23 50 31
f 14 17 15
f 17 16 24
f 50 76 48
f 76 55 97
f 55 99 97
f 99 57 58
f 57 33 34
f 13 15 17
f 33 25 31
f 25 26 24
f 26 8 34
f 34 58 57
f 58 100 99
f 100 56 98
f 56 78 98
f 98 164 166
f 164 117 156
f 156 185 164
f 319 325 323
f 325 330 328
f 330 334 209
f 352 350 349
f 350 348 325
f 374 371 381
f 371 372 380
f 372 375 380
f 376 358 366
f 358 352 351
f 334 384 336
f 384 381 383
f 381 382 375
f 380 379 371
f 379 381 371
f 383 351 333
f 351 373 357
f 348 347 322
f 322 317 319
f 317 277 318
f 277 276 266
f 276 317 182
f 317 303 304
f 303 276 278
f 276 265 266
f 276 265 267
f 267 260 262
f 260 265 238
f 260 258 261
f 228 231 236
f 231 233 236
f 236 240 263
f 234 239 235
f 241 238 265
f 240 243 267
f 267 224 278
f 184 179 181
f 179 177 147
f 147 143 126
f 147 149 179
f 149 145 152
f 116 111 110
f 111 109 87
f 86 110 87
f 87 82 89
f 77 74 76
f 74 75 49
f 49 73 47
f 46 74 48
f 87 88 86
f 88 97 114
f 49 44 51
f 24 23 25
f 23 31 25
f 31 50 51
f 17 24 51
f 50 48 49
f 48 76 74
f 97 99 165
f 34 33 31
f 24 26 34
f 99 100 165
f 100 98 166
f 166 164 199
f 164 185 199
f 319 323 322
f 323 325 348
f 325 328 324
f 328 330 305
f 209 334 201
f 352 349 351
f 349 350 325
f 374 381 375
f 376 366 365
f 366 358 368
f 358 351 357
f 334 336 201
f 336 384 368
f 384 383 368
f 383 333 335
f 333 351 328
f 357 373 365
f 348 322 323
f 322 347 349
f 319 317 304
f 317 318 320
f 182 317 202
f 278 276 267
f 267 262 240
f 263 240 262
f 184 181 180
f 181 179 152
f 147 177 180
f 147 126 129
f 179 149 152
f 152 145 155
f 116 110 114
f 110 111 87
f 110 86 114
f 74 49 48
f 86 88 114
f 114 97 163
f 49 51 50
f 31 51 32
f 51 24 32
f 97 165 163
f 34 31 32
f 24 34 32
f 165 100 166
f 166 199 195
f 199 185 205
f 325 324 349
f 324 328 351
f 328 305 244
f 305 330 306
f 209 201 199
f 351 349 324
f 376 365 373
f 365 366 368
f 368 358 360
f 358 357 359
f 201 336 335
f 336 368 360
f 368 383 367
f 383 335 367
f 335 333 200
f 333 328 206
f 357 365 359
f 322 349 324
f 320 318 321
f 202 317 328
f 184 180 182
f 180 181 152
f 147 180 150
f 129 126 127
f 152 155 153
f 116 114 153
f 114 163 153
f 163 165 190
f 165 166 190
f 166 195 191
f 195 199 198
f 199 205 209
f 328 244 206
f 199 201 200
f 365 368 367
f 360 358 359
f 201 335 200
f 335 336 359
f 336 360 359
f 367 335 359
f 200 333 206
f 206 328 329
f 359 365 367
f 202 328 206
f 184 182 189
f 182 180 150
f 180 152 150
f 129 127 130
f 152 153 150
f 153 155 116
f 153 114 143
f 114 153 154
f 153 163 182
f 163 190 182
f 190 166 191
f 191 195 189
f 195 198 194
f 198 199 200
f 206 244 208
f 200 206 198
f 206 329 207
f 329 328 327
f 202 206 208
f 202 206 207
f 184 189 204
f 189 182 188
f 182 150 153
f 129 130 147
f 130 127 148
f 153 143 126
f 143 114 103
f 114 154 115
f 182 190 188
f 190 191 189
f 189 195 193
f 195 194 192
f 194 198 192
f 198 206 202
f 327 328 326
f 202 208 204
f 202 207 203
f 204 189 193
f 189 188 190
f 153 150 133
f 147 130 148
f 148 127 144
f 153 126 133
f 114 115 112
f 193 195 192
f 192 194 188
f 192 198 202
f 202 204 192
f 202 203 196
f 204 193 192
f 190 188 194
f 133 150 131
f 148 144 147
f 133 126 147
f 112 115 113
f 196 203 197
f 133 131 134
f 133 147 153
f 134 131 132
f 134 132 151
f 134 151 154
f 154 151 153
f 153 151 150
f 131 151 150
f 151 131 132
f 186 187 182
f 182 187 183
f 385 386 387
f 385 387 388
f 389 392 391
f 389 391 390
f 385 389 390
f 385 390 386
f 388 387 391
f 388 391 392
f 385 388 392
f 385 392 389
f 386 390 391
f 386 391 387
f 393 394 395
f 393 395 396
f 397 400 399
f 397 399 398
f 393 397 398
f 393 398 394
f 396 395 399
f 396 399 400
f 393 396 400
f 393 400 397
f 394 398 399
f 394 399 395
f 401 402 403
f 401 403 404
f 405 408 407
f 405 407 406
f 401 405 406
f 401 406 402
f 404 403 407
f 404 407 408
f 401 404 408
f 401 408 405
f 402 406 407
f 402 407 403
f 409 410 411
f 409 411 412
f 413 416 415
f 413 415 414
f 409 413 414
f 409 414 410
f 412 411 415
f 412 415 416
f 409 412 416
f 409 416 413
f 410 414 415
f 410 415 411
f 417 418 419
f 417 419 420
f 421 424 423
f 421 423 422
f 417 421 422
f 417 422 418
f 420 419 423
f 420 423 424
f 417 420 424
f 417 424 421
f 418 422 423
f 418 423 419
f 425 426 427
f 425 427 428
f 429 432 431
f 429 431 430
f 425 429 430
f 425 430 426
f 428 427 431
f 428 431 432
f 425 428 432
f 425 432 429
f 426 430 431
f 426 431 427
f 433 434 435
f 433 435 436
f 437 440 439
f 437 439 438
f 433 437 438
f 433 438 434
f 436 435 439
f 436 439 440
f 433 436 440
f 433 440 437
f 434 438 439
f 434 439 435
f 441 442 443
f 441 443 444
f 445 448 447
f 445 447 446
f 441 445 446
f 441 446 442
f 444 443 447
f 444 447 448
f 441 444 448
f 441 448 445
f 442 446 447
f 442 447 443
f 449 450 451
f 449 451 452
f 453 456 455
f 453 455 454
f 449 453 454
f 449 454 450
f 452 451 455
f 452 455 456
f 449 452 456
f 449 456 453
f 450 454 455
f 450 455 451
f 457 458 459
f 457 459 460
f 461 464 463
f 461 463 462
f 457 461 462
f 457 462 458
f 460 459 463
f 460 463 464
f 457 460 464
f 457 464 461
f 458 462 463
f 458 463 459
f 465 466 467
f 465 467 468
f 469 472 471
f 469 471 470
f 465 469 470
f 465 470 466
f 468 467 471
f 468 471 472
f 465 468 472
f 465 472 469
f 466 470 471
f 466 471 467
f 473 474 475
f 473 475 476
f 477 480 479
f 477 479 478
f 473 477 478
f 473 478 474
f 476 475 479
f 476 479 480
f 473 476 480
f 473 480 477
f 474 478 479
f 474 479 475
f 481 482 483
f 481 483 484
f 485 488 487
f 485 487 486
f 481 485 486
f 481 486 482
f 484 483 487
f 484 487 488
f 481 484 488
f 481 488 485
f 482 486 487
f 482 487 483
f 489 490 491
f 489 491 492
f 493 496 495
f 493 495 494
f 489 493 494
f 489 494 490
f 492 491 495
f 492 495 496
f 489 492 496
f 489 496 493
f 490 494 495
f 490 495 491

