# https://github.com/mikedh/trimesh
v -0.48828125 0.02734375 -0.12890625 0.40000000 0.40000000 0.40000000
v -0.48828125 0.02734375 0.12890625 0.40000000 0.40000000 0.40000000
v -0.48828125 0.39453125 -0.12890625 0.40000000 0.40000000 0.40000000
v -0.48828125 0.39453125 0.12890625 0.40000000 0.40000000 0.40000000
v -0.48046875 0.03515625 -0.12890625 0.40000000 0.40000000 0.40000000
v -0.48046875 0.03515625 0.12890625 0.40000000 0.40000000 0.40000000
v -0.48046875 0.38671875 0.12890625 0.40000000 0.40000000 0.40000000
v -0.46484375 0.04296875 -0.12890625 0.40000000 0.40000000 0.40000000
v -0.46484375 0.04296875 -0.12109375 0.40000000 0.40000000 0.40000000
v -0.46484375 0.04296875 0.12890625 0.40000000 0.40000000 0.40000000
v -0.46484375 0.37890625 -0.12890625 0.40000000 0.40000000 0.40000000
v -0.46484375 0.37890625 -0.12109375 0.40000000 0.40000000 0.40000000
v -0.46484375 0.37890625 0.08203125 0.40000000 0.40000000 0.40000000
v -0.46484375 0.37890625 0.12890625 0.40000000 0.40000000 0.40000000
v -0.46484375 0.39453125 -0.12890625 0.40000000 0.40000000 0.40000000
v -0.46484375 0.39453125 0.08203125 0.40000000 0.40000000 0.40000000
v -0.33203125 -0.49609375 -0.12890625 0.40000000 0.40000000 0.40000000
v -0.33203125 -0.49609375 0.12890625 0.40000000 0.40000000 0.40000000
v -0.33203125 -0.47265625 -0.12890625 0.40000000 0.40000000 0.40000000
v -0.33203125 -0.47265625 0.08203125 0.40000000 0.40000000 0.40000000
v -0.33203125 -0.41015625 -0.12890625 0.40000000 0.40000000 0.40000000
v -0.33203125 -0.33203125 -0.12890625 0.40000000 0.40000000 0.40000000
v -0.33203125 -0.25390625 -0.12890625 0.40000000 0.40000000 0.40000000
v -0.33203125 -0.20703125 -0.12890625 0.40000000 0.40000000 0.40000000
v -0.33203125 -0.13671875 -0.12890625 0.40000000 0.40000000 0.40000000
v -0.33203125 -0.13671875 0.08203125 0.40000000 0.40000000 0.40000000
v -0.33203125 -0.12109375 -0.12890625 0.40000000 0.40000000 0.40000000
v -0.33203125 -0.12109375 0.12890625 0.40000000 0.40000000 0.40000000
v -0.33203125 -0.09765625 -0.12890625 0.40000000 0.40000000 0.40000000
v -0.33203125 -0.09765625 0.08203125 0.40000000 0.40000000 0.40000000
v -0.33203125 -0.02734375 -0.12890625 0.40000000 0.40000000 0.40000000
v -0.33203125 0.00390625 -0.12890625 0.40000000 0.40000000 0.40000000
v -0.33203125 0.00390625 0.08203125 0.40000000 0.40000000 0.40000000
v -0.33203125 0.02734375 -0.12890625 0.40000000 0.40000000 0.40000000
v -0.33203125 0.02734375 0.12890625 0.40000000 0.40000000 0.40000000
v -0.32421875 -0.48828125 -0.12890625 0.40000000 0.40000000 0.40000000
v -0.32421875 -0.48828125 0.12890625 0.40000000 0.40000000 0.40000000
v -0.32421875 -0.12109375 -0.12890625 0.40000000 0.40000000 0.40000000
v -0.32421875 -0.12109375 0.12890625 0.40000000 0.40000000 0.40000000
v -0.32421875 0.03515625 -0.12890625 0.40000000 0.40000000 0.40000000
v -0.32421875 0.03515625 0.12890625 0.40000000 0.40000000 0.40000000
v -0.32421875 0.04296875 -0.12890625 0.40000000 0.40000000 0.40000000
v -0.32421875 0.04296875 -0.12109375 0.40000000 0.40000000 0.40000000
v -0.32421875 0.04296875 0.12890625 0.40000000 0.40000000 0.40000000
v -0.31640625 -0.48046875 -0.12890625 0.40000000 0.40000000 0.40000000
v -0.31640625 -0.48046875 -0.12109375 0.40000000 0.40000000 0.40000000
v -0.31640625 -0.48046875 0.12890625 0.40000000 0.40000000 0.40000000
v -0.31640625 -0.47265625 -0.12890625 0.40000000 0.40000000 0.40000000
v -0.31640625 -0.47265625 0.08203125 0.40000000 0.40000000 0.40000000
v -0.31640625 -0.41015625 -0.12890625 0.40000000 0.40000000 0.40000000
v -0.31640625 -0.33203125 -0.12890625 0.40000000 0.40000000 0.40000000
v -0.31640625 -0.25390625 -0.12890625 0.40000000 0.40000000 0.40000000
v -0.31640625 -0.20703125 -0.12890625 0.40000000 0.40000000 0.40000000
v -0.31640625 -0.13671875 -0.12890625 0.40000000 0.40000000 0.40000000
v -0.31640625 -0.13671875 0.08203125 0.40000000 0.40000000 0.40000000
v -0.31640625 -0.12890625 -0.12890625 0.40000000 0.40000000 0.40000000
v -0.31640625 -0.12890625 -0.12109375 0.40000000 0.40000000 0.40000000
v -0.31640625 -0.12890625 0.12890625 0.40000000 0.40000000 0.40000000
v -0.31640625 -0.10546875 -0.12890625 0.40000000 0.40000000 0.40000000
v -0.31640625 -0.10546875 -0.12109375 0.40000000 0.40000000 0.40000000
v -0.31640625 -0.10546875 0.12890625 0.40000000 0.40000000 0.40000000
v -0.31640625 -0.09765625 -0.12890625 0.40000000 0.40000000 0.40000000
v -0.31640625 -0.09765625 -0.12109375 0.40000000 0.40000000 0.40000000
v -0.31640625 -0.09765625 0.08203125 0.40000000 0.40000000 0.40000000
v -0.31640625 -0.02734375 -0.12890625 0.40000000 0.40000000 0.40000000
v -0.31640625 -0.01171875 -0.12890625 0.40000000 0.40000000 0.40000000
v -0.31640625 0.00390625 -0.12890625 0.40000000 0.40000000 0.40000000
v -0.31640625 0.00390625 0.08203125 0.40000000 0.40000000 0.40000000
v -0.31640625 0.01171875 -0.12890625 0.40000000 0.40000000 0.40000000
v -0.31640625 0.01171875 -0.12109375 0.40000000 0.40000000 0.40000000
v -0.31640625 0.02734375 -0.12890625 0.40000000 0.40000000 0.40000000
v -0.31640625 0.02734375 -0.12109375 0.40000000 0.40000000 0.40000000
v -0.31640625 0.02734375 0.12890625 0.40000000 0.40000000 0.40000000
v -0.28515625 0.02734375 -0.12890625 0.40000000 0.40000000 0.40000000
v -0.28515625 0.02734375 -0.12109375 0.40000000 0.40000000 0.40000000
v -0.28515625 0.02734375 0.07421875 0.40000000 0.40000000 0.40000000
v -0.28515625 0.03515625 -0.12890625 0.40000000 0.40000000 0.40000000
v -0.28515625 0.04296875 -0.12890625 0.40000000 0.40000000 0.40000000
v -0.28515625 0.04296875 -0.12109375 0.40000000 0.40000000 0.40000000
v -0.28515625 0.04296875 0.07421875 0.40000000 0.40000000 0.40000000
v -0.24609375 -0.10546875 -0.12890625 0.40000000 0.40000000 0.40000000
v -0.24609375 -0.09765625 -0.12890625 0.40000000 0.40000000 0.40000000
v -0.24609375 -0.01171875 -0.12890625 0.40000000 0.40000000 0.40000000
v -0.24609375 0.03515625 -0.12890625 0.40000000 0.40000000 0.40000000
v -0.24609375 0.04296875 -0.12890625 0.40000000 0.40000000 0.40000000
v -0.23828125 -0.48046875 -0.12890625 0.40000000 0.40000000 0.40000000
v -0.23828125 -0.41015625 -0.12890625 0.40000000 0.40000000 0.40000000
v -0.23828125 -0.33203125 -0.12890625 0.40000000 0.40000000 0.40000000
v -0.23828125 -0.25390625 -0.12890625 0.40000000 0.40000000 0.40000000
v -0.23828125 -0.20703125 -0.12890625 0.40000000 0.40000000 0.40000000
v -0.23828125 -0.12890625 -0.12890625 0.40000000 0.40000000 0.40000000
v -0.20703125 0.02734375 -0.12890625 0.40000000 0.40000000 0.40000000
v -0.20703125 0.02734375 -0.12109375 0.40000000 0.40000000 0.40000000
v -0.20703125 0.02734375 0.07421875 0.40000000 0.40000000 0.40000000
v -0.20703125 0.04296875 -0.12890625 0.40000000 0.40000000 0.40000000
v -0.20703125 0.04296875 -0.12109375 0.40000000 0.40000000 0.40000000
v -0.20703125 0.04296875 0.07421875 0.40000000 0.40000000 0.40000000
v -0.19921875 -0.12890625 -0.12890625 0.40000000 0.40000000 0.40000000
v -0.19921875 -0.12890625 -0.12109375 0.40000000 0.40000000 0.40000000
v -0.19921875 -0.12890625 0.07421875 0.40000000 0.40000000 0.40000000
v -0.19921875 -0.10546875 -0.12890625 0.40000000 0.40000000 0.40000000
v -0.19921875 -0.10546875 -0.12109375 0.40000000 0.40000000 0.40000000
v -0.19921875 -0.10546875 0.07421875 0.40000000 0.40000000 0.40000000
v -0.19921875 0.02734375 -0.12890625 0.40000000 0.40000000 0.40000000
v -0.19921875 0.02734375 -0.12109375 0.40000000 0.40000000 0.40000000
v -0.19921875 0.02734375 0.12890625 0.40000000 0.40000000 0.40000000
v -0.19921875 0.03515625 -0.12890625 0.40000000 0.40000000 0.40000000
v -0.19921875 0.04296875 -0.12890625 0.40000000 0.40000000 0.40000000
v -0.19921875 0.04296875 -0.12109375 0.40000000 0.40000000 0.40000000
v -0.19921875 0.04296875 0.12890625 0.40000000 0.40000000 0.40000000
v -0.19921875 0.37890625 -0.12890625 0.40000000 0.40000000 0.40000000
v -0.19921875 0.37890625 -0.12109375 0.40000000 0.40000000 0.40000000
v -0.19921875 0.37890625 0.08203125 0.40000000 0.40000000 0.40000000
v -0.19921875 0.39453125 -0.12890625 0.40000000 0.40000000 0.40000000
v -0.19921875 0.39453125 0.08203125 0.40000000 0.40000000 0.40000000
v -0.19921875 0.48046875 -0.12890625 0.40000000 0.40000000 0.40000000
v -0.19921875 0.48046875 -0.12109375 0.40000000 0.40000000 0.40000000
v -0.19921875 0.49609375 -0.12890625 0.40000000 0.40000000 0.40000000
v -0.19921875 0.49609375 0.12890625 0.40000000 0.40000000 0.40000000
v -0.19140625 0.03515625 -0.12890625 0.40000000 0.40000000 0.40000000
v -0.19140625 0.03515625 0.12890625 0.40000000 0.40000000 0.40000000
v -0.19140625 0.37890625 -0.12890625 0.40000000 0.40000000 0.40000000
v -0.19140625 0.37890625 0.12890625 0.40000000 0.40000000 0.40000000
v -0.19140625 0.39453125 -0.12890625 0.40000000 0.40000000 0.40000000
v -0.19140625 0.39453125 0.12890625 0.40000000 0.40000000 0.40000000
v -0.19140625 0.48046875 -0.12890625 0.40000000 0.40000000 0.40000000
v -0.19140625 0.48046875 0.10546875 0.40000000 0.40000000 0.40000000
v -0.19140625 0.48046875 0.12890625 0.40000000 0.40000000 0.40000000
v -0.19140625 0.49609375 -0.12890625 0.40000000 0.40000000 0.40000000
v -0.19140625 0.49609375 0.10546875 0.40000000 0.40000000 0.40000000
v -0.19140625 0.49609375 0.12890625 0.40000000 0.40000000 0.40000000
v -0.17578125 -0.10546875 -0.12890625 0.40000000 0.40000000 0.40000000
v -0.17578125 -0.09765625 -0.12890625 0.40000000 0.40000000 0.40000000
v -0.17578125 -0.01171875 -0.12890625 0.40000000 0.40000000 0.40000000
v -0.17578125 0.02734375 -0.12890625 0.40000000 0.40000000 0.40000000
v -0.17578125 0.03515625 0.12890625 0.40000000 0.40000000 0.40000000
v -0.17578125 0.04296875 -0.12890625 0.40000000 0.40000000 0.40000000
v -0.17578125 0.04296875 -0.12109375 0.40000000 0.40000000 0.40000000
v -0.17578125 0.04296875 0.12890625 0.40000000 0.40000000 0.40000000
v -0.17578125 0.48046875 -0.12890625 0.40000000 0.40000000 0.40000000
v -0.17578125 0.48046875 -0.12109375 0.40000000 0.40000000 0.40000000
v -0.17578125 0.48046875 0.12890625 0.40000000 0.40000000 0.40000000
v -0.16015625 -0.48046875 -0.12890625 0.40000000 0.40000000 0.40000000
v -0.16015625 -0.41015625 -0.12890625 0.40000000 0.40000000 0.40000000
v -0.16015625 -0.33203125 -0.12890625 0.40000000 0.40000000 0.40000000
v -0.16015625 -0.25390625 -0.12890625 0.40000000 0.40000000 0.40000000
v -0.16015625 -0.20703125 -0.12890625 0.55294118 0.39607843 0.55294118
v -0.16015625 -0.12890625 -0.12890625 0.40000000 0.40000000 0.40000000
v -0.16015625 -0.10546875 -0.12890625 0.40000000 0.40000000 0.40000000
v -0.10546875 -0.10546875 -0.12890625 0.40000000 0.40000000 0.40000000
v -0.10546875 -0.09765625 -0.12890625 0.40000000 0.40000000 0.40000000
v -0.10546875 -0.01171875 -0.12890625 0.40000000 0.40000000 0.40000000
v -0.10546875 0.02734375 -0.12890625 0.40000000 0.40000000 0.40000000
v -0.08984375 -0.48046875 -0.12890625 0.40000000 0.40000000 0.40000000
v -0.08984375 -0.41015625 -0.12890625 0.40000000 0.40000000 0.40000000
v -0.08984375 -0.33203125 -0.12890625 0.40000000 0.40000000 0.40000000
v -0.08984375 -0.25390625 -0.12890625 0.40000000 0.40000000 0.40000000
v -0.08984375 -0.20703125 -0.12890625 0.40000000 0.40000000 0.40000000
v -0.08984375 -0.12890625 -0.12890625 0.40000000 0.40000000 0.40000000
v -0.08984375 -0.10546875 -0.12890625 0.40000000 0.40000000 0.40000000
v -0.03515625 -0.10546875 -0.12890625 0.40000000 0.40000000 0.40000000
v -0.03515625 -0.09765625 -0.12890625 0.40000000 0.40000000 0.40000000
v -0.03515625 -0.01171875 -0.12890625 0.40000000 0.40000000 0.40000000
v -0.03515625 0.02734375 -0.12890625 0.40000000 0.40000000 0.40000000
v -0.01171875 -0.48046875 -0.12890625 0.40000000 0.40000000 0.40000000
v -0.01171875 -0.41015625 -0.12890625 0.40000000 0.40000000 0.40000000
v -0.01171875 -0.33203125 -0.12890625 0.40000000 0.40000000 0.40000000
v -0.01171875 -0.25390625 -0.12890625 0.40000000 0.40000000 0.40000000
v -0.01171875 -0.20703125 -0.12890625 0.40000000 0.40000000 0.40000000
v -0.01171875 -0.12890625 -0.12890625 0.40000000 0.40000000 0.40000000
v -0.01171875 -0.10546875 -0.12890625 0.40000000 0.40000000 0.40000000
v 0.00390625 -0.12890625 -0.12890625 0.40000000 0.40000000 0.40000000
v 0.00390625 -0.12890625 0.07421875 0.40000000 0.40000000 0.40000000
v 0.00390625 -0.10546875 -0.12890625 0.40000000 0.40000000 0.40000000
v 0.00390625 -0.10546875 0.07421875 0.40000000 0.40000000 0.40000000
v 0.01171875 -0.12890625 -0.12890625 0.40000000 0.40000000 0.40000000
v 0.01171875 -0.12890625 -0.12109375 0.40000000 0.40000000 0.40000000
v 0.01171875 -0.10546875 -0.12890625 0.40000000 0.40000000 0.40000000
v 0.01171875 -0.10546875 -0.12109375 0.40000000 0.40000000 0.40000000
v 0.01953125 0.02734375 -0.12890625 0.40000000 0.40000000 0.40000000
v 0.01953125 0.02734375 -0.12109375 0.40000000 0.40000000 0.40000000
v 0.01953125 0.04296875 -0.12890625 0.40000000 0.40000000 0.40000000
v 0.01953125 0.04296875 -0.12109375 0.40000000 0.40000000 0.40000000
v 0.02734375 -0.48046875 -0.12890625 0.40000000 0.40000000 0.40000000
v 0.02734375 -0.48046875 -0.12109375 0.40000000 0.40000000 0.40000000
v 0.02734375 -0.48046875 0.12890625 0.40000000 0.40000000 0.40000000
v 0.02734375 -0.44921875 -0.12890625 0.40000000 0.40000000 0.40000000
v 0.02734375 -0.44921875 -0.12109375 0.40000000 0.40000000 0.40000000
v 0.02734375 -0.44921875 0.07421875 0.40000000 0.40000000 0.40000000
v 0.02734375 -0.16796875 -0.12890625 0.40000000 0.40000000 0.40000000
v 0.02734375 -0.16796875 -0.12109375 0.40000000 0.40000000 0.40000000
v 0.02734375 -0.16796875 0.07421875 0.40000000 0.40000000 0.40000000
v 0.02734375 -0.12890625 -0.12890625 0.40000000 0.40000000 0.40000000
v 0.02734375 -0.12890625 -0.12109375 0.40000000 0.40000000 0.40000000
v 0.02734375 -0.12890625 0.12890625 0.40000000 0.40000000 0.40000000
v 0.02734375 0.02734375 -0.12890625 0.40000000 0.40000000 0.40000000
v 0.02734375 0.02734375 0.07421875 0.40000000 0.40000000 0.40000000
v 0.02734375 0.03515625 -0.12890625 0.40000000 0.40000000 0.40000000
v 0.02734375 0.04296875 -0.12890625 0.40000000 0.40000000 0.40000000
v 0.02734375 0.04296875 0.07421875 0.40000000 0.40000000 0.40000000
v 0.03515625 -0.49609375 -0.12890625 0.40000000 0.40000000 0.40000000
v 0.03515625 -0.49609375 0.12890625 0.40000000 0.40000000 0.40000000
v 0.03515625 -0.48828125 -0.12890625 0.40000000 0.40000000 0.40000000
v 0.03515625 -0.48828125 0.12890625 0.40000000 0.40000000 0.40000000
v 0.03515625 -0.12109375 -0.12890625 0.40000000 0.40000000 0.40000000
v 0.03515625 -0.12109375 0.12890625 0.40000000 0.40000000 0.40000000
v 0.03515625 -0.10546875 -0.12890625 0.40000000 0.40000000 0.40000000
v 0.03515625 -0.10546875 -0.12109375 0.40000000 0.40000000 0.40000000
v 0.03515625 -0.10546875 0.12890625 0.40000000 0.40000000 0.40000000
v 0.04296875 -0.48046875 -0.12890625 0.40000000 0.40000000 0.40000000
v 0.04296875 -0.48046875 -0.12109375 0.40000000 0.40000000 0.40000000
v 0.04296875 -0.48046875 0.12890625 0.40000000 0.40000000 0.40000000
v 0.04296875 -0.44921875 -0.12890625 0.40000000 0.40000000 0.40000000
v 0.04296875 -0.44921875 -0.12109375 0.40000000 0.40000000 0.40000000
v 0.04296875 -0.44921875 0.07421875 0.40000000 0.40000000 0.40000000
v 0.04296875 -0.41015625 -0.12890625 0.40000000 0.40000000 0.40000000
v 0.04296875 -0.33203125 -0.12890625 0.40000000 0.40000000 0.40000000
v 0.04296875 -0.25390625 -0.12890625 0.40000000 0.40000000 0.40000000
v 0.04296875 -0.20703125 -0.12890625 0.40000000 0.40000000 0.40000000
v 0.04296875 -0.16796875 -0.12890625 0.40000000 0.40000000 0.40000000
v 0.04296875 -0.16796875 -0.12109375 0.40000000 0.40000000 0.40000000
v 0.04296875 -0.16796875 0.07421875 0.40000000 0.40000000 0.40000000
v 0.04296875 -0.12890625 -0.12890625 0.40000000 0.40000000 0.40000000
v 0.04296875 -0.12890625 -0.12109375 0.40000000 0.40000000 0.40000000
v 0.04296875 -0.12890625 0.12890625 0.40000000 0.40000000 0.40000000
v 0.04296875 -0.10546875 -0.12890625 0.40000000 0.40000000 0.40000000
v 0.04296875 -0.09765625 -0.12890625 0.40000000 0.40000000 0.40000000
v 0.04296875 -0.01171875 -0.12890625 0.40000000 0.40000000 0.40000000
v 0.04296875 0.03515625 -0.12890625 0.40000000 0.40000000 0.40000000
v 0.04296875 0.04296875 -0.12890625 0.40000000 0.40000000 0.40000000
v 0.11328125 -0.48046875 -0.12890625 0.40000000 0.40000000 0.40000000
v 0.11328125 -0.41015625 -0.12890625 0.40000000 0.40000000 0.40000000
v 0.11328125 -0.33203125 -0.12890625 0.40000000 0.40000000 0.40000000
v 0.11328125 -0.25390625 -0.12890625 0.40000000 0.40000000 0.40000000
v 0.11328125 -0.20703125 -0.12890625 0.40000000 0.40000000 0.40000000
v 0.11328125 -0.12890625 -0.12890625 0.40000000 0.40000000 0.40000000
v 0.11328125 -0.10546875 -0.12890625 0.40000000 0.40000000 0.40000000
v 0.11328125 -0.09765625 -0.12890625 0.40000000 0.40000000 0.40000000
v 0.11328125 -0.01171875 -0.12890625 0.40000000 0.40000000 0.40000000
v 0.11328125 0.02734375 -0.12890625 0.40000000 0.40000000 0.40000000
v 0.11328125 0.03515625 -0.12890625 0.40000000 0.40000000 0.40000000
v 0.12109375 -0.10546875 -0.12890625 0.40000000 0.40000000 0.40000000
v 0.12109375 -0.10546875 -0.12109375 0.40000000 0.40000000 0.40000000
v 0.12109375 -0.10546875 0.12890625 0.40000000 0.40000000 0.40000000
v 0.12109375 -0.09765625 -0.12890625 0.40000000 0.40000000 0.40000000
v 0.12109375 -0.09765625 0.07421875 0.40000000 0.40000000 0.40000000
v 0.12109375 -0.08203125 -0.12890625 0.40000000 0.40000000 0.40000000
v 0.12109375 -0.01171875 -0.12890625 0.40000000 0.40000000 0.40000000
v 0.12109375 -0.01171875 0.07421875 0.40000000 0.40000000 0.40000000
v 0.12109375 -0.00390625 -0.12890625 0.40000000 0.40000000 0.40000000
v 0.12109375 -0.00390625 -0.12109375 0.40000000 0.40000000 0.40000000
v 0.12109375 0.02734375 -0.12890625 0.40000000 0.40000000 0.40000000
v 0.12109375 0.02734375 -0.12109375 0.40000000 0.40000000 0.40000000
v 0.12109375 0.02734375 0.07421875 0.40000000 0.40000000 0.40000000
v 0.12109375 0.02734375 0.12890625 0.40000000 0.40000000 0.40000000
v 0.12109375 0.04296875 -0.12890625 0.40000000 0.40000000 0.40000000
v 0.12109375 0.04296875 -0.12109375 0.40000000 0.40000000 0.40000000
v 0.12109375 0.04296875 0.07421875 0.40000000 0.40000000 0.40000000
v 0.12109375 0.04296875 0.12890625 0.40000000 0.40000000 0.40000000
v 0.12109375 0.48046875 -0.12890625 0.40000000 0.40000000 0.40000000
v 0.12109375 0.48046875 -0.12109375 0.40000000 0.40000000 0.40000000
v 0.12109375 0.48046875 0.10546875 0.40000000 0.40000000 0.40000000
v 0.12109375 0.48046875 0.12890625 0.40000000 0.40000000 0.40000000
v 0.12109375 0.49609375 -0.12890625 0.40000000 0.40000000 0.40000000
v 0.12109375 0.49609375 0.10546875 0.40000000 0.40000000 0.40000000
v 0.12109375 0.49609375 0.12890625 0.40000000 0.40000000 0.40000000
v 0.12890625 -0.12890625 -0.12890625 0.40000000 0.40000000 0.40000000
v 0.12890625 -0.12890625 0.12890625 0.40000000 0.40000000 0.40000000
v 0.12890625 -0.12109375 -0.12890625 0.40000000 0.40000000 0.40000000
v 0.12890625 -0.12109375 0.12890625 0.40000000 0.40000000 0.40000000
v 0.12890625 0.03515625 -0.12890625 0.40000000 0.40000000 0.40000000
v 0.12890625 0.03515625 0.12890625 0.40000000 0.40000000 0.40000000
v 0.12890625 0.49609375 0.12890625 0.40000000 0.40000000 0.40000000
v 0.13671875 -0.10546875 -0.12890625 0.40000000 0.40000000 0.40000000
v 0.13671875 -0.10546875 -0.12109375 0.40000000 0.40000000 0.40000000
v 0.13671875 -0.10546875 0.12890625 0.40000000 0.40000000 0.40000000
v 0.13671875 -0.09765625 -0.12890625 0.40000000 0.40000000 0.40000000
v 0.13671875 -0.09765625 0.07421875 0.40000000 0.40000000 0.40000000
v 0.13671875 -0.08203125 -0.12890625 0.40000000 0.40000000 0.40000000
v 0.13671875 -0.01171875 -0.12890625 0.40000000 0.40000000 0.40000000
v 0.13671875 -0.01171875 0.07421875 0.40000000 0.40000000 0.40000000
v 0.13671875 -0.00390625 -0.12890625 0.40000000 0.40000000 0.40000000
v 0.13671875 -0.00390625 -0.12109375 0.40000000 0.40000000 0.40000000
v 0.13671875 0.03515625 -0.12890625 0.40000000 0.40000000 0.40000000
v 0.13671875 0.03515625 -0.12109375 0.40000000 0.40000000 0.40000000
v 0.13671875 0.03515625 0.12890625 0.40000000 0.40000000 0.40000000
v 0.13671875 0.20703125 -0.12890625 0.40000000 0.40000000 0.40000000
v 0.13671875 0.20703125 0.12890625 0.40000000 0.40000000 0.40000000
v 0.13671875 0.29296875 -0.12890625 0.40000000 0.40000000 0.40000000
v 0.13671875 0.29296875 -0.12109375 0.40000000 0.40000000 0.40000000
v 0.13671875 0.30078125 -0.12890625 0.40000000 0.40000000 0.40000000
v 0.13671875 0.30078125 -0.12109375 0.40000000 0.40000000 0.40000000
v 0.13671875 0.30078125 0.12890625 0.40000000 0.40000000 0.40000000
v 0.13671875 0.30859375 -0.12890625 0.40000000 0.40000000 0.40000000
v 0.13671875 0.30859375 0.12890625 0.40000000 0.40000000 0.40000000
v 0.13671875 0.31640625 -0.12890625 0.40000000 0.40000000 0.40000000
v 0.13671875 0.31640625 0.12890625 0.40000000 0.40000000 0.40000000
v 0.13671875 0.49609375 -0.12890625 0.40000000 0.40000000 0.40000000
v 0.13671875 0.49609375 0.12890625 0.40000000 0.40000000 0.40000000
v 0.14453125 0.30078125 -0.12890625 0.40000000 0.40000000 0.40000000
v 0.14453125 0.30078125 0.08203125 0.40000000 0.40000000 0.40000000
v 0.14453125 0.31640625 -0.12890625 0.40000000 0.40000000 0.40000000
v 0.14453125 0.31640625 0.08203125 0.40000000 0.40000000 0.40000000
v 0.16796875 -0.48046875 -0.12890625 0.40000000 0.40000000 0.40000000
v 0.16796875 -0.41015625 -0.12890625 0.40000000 0.40000000 0.40000000
v 0.16796875 -0.33203125 -0.12890625 0.40000000 0.40000000 0.40000000
v 0.16796875 -0.25390625 -0.12890625 0.40000000 0.40000000 0.40000000
v 0.16796875 -0.20703125 -0.12890625 0.40000000 0.40000000 0.40000000
v 0.16796875 -0.12890625 -0.12890625 0.40000000 0.40000000 0.40000000
v 0.24609375 -0.48046875 -0.12890625 0.40000000 0.40000000 0.40000000
v 0.24609375 -0.41015625 -0.12890625 0.40000000 0.40000000 0.40000000
v 0.24609375 -0.33203125 -0.12890625 0.40000000 0.40000000 0.40000000
v 0.24609375 -0.25390625 -0.12890625 0.52156863 0.44313725 0.34901961
v 0.24609375 -0.20703125 -0.12890625 0.40000000 0.40000000 0.40000000
v 0.24609375 -0.12890625 -0.12890625 0.40000000 0.40000000 0.40000000
v 0.32421875 -0.48046875 -0.12890625 0.40000000 0.40000000 0.40000000
v 0.32421875 -0.41015625 -0.12890625 0.40000000 0.40000000 0.40000000
v 0.32421875 -0.33203125 -0.12890625 0.40000000 0.40000000 0.40000000
v 0.32421875 -0.25390625 -0.12890625 0.40000000 0.40000000 0.40000000
v 0.32421875 -0.20703125 -0.12890625 0.40000000 0.40000000 0.40000000
v 0.32421875 -0.12890625 -0.12890625 0.40000000 0.40000000 0.40000000
v 0.40234375 -0.48046875 -0.12890625 0.40000000 0.40000000 0.40000000
v 0.40234375 -0.41015625 -0.12890625 0.40000000 0.40000000 0.40000000
v 0.40234375 -0.33203125 -0.12890625 0.40000000 0.40000000 0.40000000
v 0.40234375 -0.25390625 -0.12890625 0.40000000 0.40000000 0.40000000
v 0.40234375 -0.20703125 -0.12890625 0.40000000 0.40000000 0.40000000
v 0.40234375 -0.12890625 -0.12890625 0.40000000 0.40000000 0.40000000
v 0.45703125 0.30078125 -0.12890625 0.40000000 0.40000000 0.40000000
v 0.45703125 0.30078125 0.08203125 0.40000000 0.40000000 0.40000000
v 0.45703125 0.31640625 -0.12890625 0.40000000 0.40000000 0.40000000
v 0.45703125 0.31640625 0.08203125 0.40000000 0.40000000 0.40000000
v 0.46484375 -0.48046875 -0.12890625 0.40000000 0.40000000 0.40000000
v 0.46484375 -0.48046875 0.08203125 0.40000000 0.40000000 0.40000000
v 0.46484375 -0.48046875 0.12890625 0.40000000 0.40000000 0.40000000
v 0.46484375 -0.12890625 -0.12890625 0.40000000 0.40000000 0.40000000
v 0.46484375 -0.12890625 0.08203125 0.40000000 0.40000000 0.40000000
v 0.46484375 -0.12890625 0.12890625 0.40000000 0.40000000 0.40000000
v 0.46484375 -0.10546875 -0.12890625 0.40000000 0.40000000 0.40000000
v 0.46484375 -0.10546875 -0.12109375 0.40000000 0.40000000 0.40000000
v 0.46484375 -0.10546875 0.12890625 0.40000000 0.40000000 0.40000000
v 0.46484375 0.30078125 -0.12890625 0.40000000 0.40000000 0.40000000
v 0.46484375 0.30078125 0.12890625 0.40000000 0.40000000 0.40000000
v 0.48046875 -0.48828125 -0.12890625 0.40000000 0.40000000 0.40000000
v 0.48046875 -0.48828125 0.12890625 0.40000000 0.40000000 0.40000000
v 0.48046875 -0.12109375 -0.12890625 0.40000000 0.40000000 0.40000000
v 0.48046875 -0.12109375 0.12890625 0.40000000 0.40000000 0.40000000
v 0.48046875 0.30859375 0.12890625 0.40000000 0.40000000 0.40000000
v 0.48828125 -0.49609375 -0.12890625 0.40000000 0.40000000 0.40000000
v 0.48828125 -0.49609375 0.12890625 0.40000000 0.40000000 0.40000000
v 0.48828125 -0.48046875 -0.12890625 0.40000000 0.40000000 0.40000000
v 0.48828125 -0.48046875 0.08203125 0.40000000 0.40000000 0.40000000
v 0.48828125 -0.41015625 -0.12890625 0.40000000 0.40000000 0.40000000
v 0.48828125 -0.33203125 -0.12890625 0.40000000 0.40000000 0.40000000
v 0.48828125 -0.25390625 -0.12890625 0.40000000 0.40000000 0.40000000
v 0.48828125 -0.20703125 -0.12890625 0.40000000 0.40000000 0.40000000
v 0.48828125 -0.12890625 -0.12890625 0.40000000 0.40000000 0.40000000
v 0.48828125 -0.12890625 0.08203125 0.40000000 0.40000000 0.40000000
v 0.48828125 -0.12109375 -0.12890625 0.40000000 0.40000000 0.40000000
v 0.48828125 -0.12109375 0.12890625 0.40000000 0.40000000 0.40000000
v 0.48828125 0.31640625 -0.12890625 0.40000000 0.40000000 0.40000000
v 0.48828125 0.31640625 0.12890625 0.40000000 0.40000000 0.40000000
v 0.17578125 -0.47265625 -0.12890625 0.00000000 0.54901961 1.00000000
v 0.35546875 -0.47265625 -0.12890625 0.00000000 0.54901961 1.00000000
v 0.35546875 -0.41015625 -0.12890625 0.00000000 0.54901961 1.00000000
v 0.17578125 -0.41015625 -0.12890625 0.00000000 0.54901961 1.00000000
v 0.17578125 -0.47265625 -0.06640625 0.00000000 0.54901961 1.00000000
v 0.35546875 -0.47265625 -0.06640625 0.00000000 0.54901961 1.00000000
v 0.35546875 -0.41015625 -0.06640625 0.00000000 0.54901961 1.00000000
v 0.17578125 -0.41015625 -0.06640625 0.00000000 0.54901961 1.00000000
v 0.12890625 -0.46484375 -0.12890625 0.70588235 0.50980392 0.27450980
v 0.16796875 -0.46484375 -0.12890625 0.70588235 0.50980392 0.27450980
v 0.16796875 -0.41796875 -0.12890625 0.70588235 0.50980392 0.27450980
v 0.12890625 -0.41796875 -0.12890625 0.70588235 0.50980392 0.27450980
v 0.12890625 -0.46484375 -0.08984375 0.70588235 0.50980392 0.27450980
v 0.16796875 -0.46484375 -0.08984375 0.70588235 0.50980392 0.27450980
v 0.16796875 -0.41796875 -0.08984375 0.70588235 0.50980392 0.27450980
v 0.12890625 -0.41796875 -0.08984375 0.70588235 0.50980392 0.27450980
v 0.36328125 -0.46484375 -0.12890625 0.70588235 0.50980392 0.27450980
v 0.40234375 -0.46484375 -0.12890625 0.70588235 0.50980392 0.27450980
v 0.40234375 -0.41796875 -0.12890625 0.70588235 0.50980392 0.27450980
v 0.36328125 -0.41796875 -0.12890625 0.70588235 0.50980392 0.27450980
v 0.36328125 -0.46484375 -0.08984375 0.70588235 0.50980392 0.27450980
v 0.40234375 -0.46484375 -0.08984375 0.70588235 0.50980392 0.27450980
v 0.40234375 -0.41796875 -0.08984375 0.70588235 0.50980392 0.27450980
v 0.36328125 -0.41796875 -0.08984375 0.70588235 0.50980392 0.27450980
v -0.23046875 -0.39453125 -0.12890625 0.78431373 0.39215686 0.78431373
v -0.16015625 -0.39453125 -0.12890625 0.78431373 0.39215686 0.78431373
v -0.16015625 -0.32421875 -0.12890625 0.78431373 0.39215686 0.78431373
v -0.23046875 -0.32421875 -0.12890625 0.78431373 0.39215686 0.78431373
v -0.23046875 -0.39453125 -0.08984375 0.78431373 0.39215686 0.78431373
v -0.16015625 -0.39453125 -0.08984375 0.78431373 0.39215686 0.78431373
v -0.16015625 -0.32421875 -0.08984375 0.78431373 0.39215686 0.78431373
v -0.23046875 -0.32421875 -0.08984375 0.78431373 0.39215686 0.78431373
v -0.11328125 -0.39453125 -0.12890625 0.78431373 0.39215686 0.78431373
v -0.05078125 -0.39453125 -0.12890625 0.78431373 0.39215686 0.78431373
v -0.05078125 -0.32421875 -0.12890625 0.78431373 0.39215686 0.78431373
v -0.11328125 -0.32421875 -0.12890625 0.78431373 0.39215686 0.78431373
v -0.11328125 -0.39453125 -0.08984375 0.78431373 0.39215686 0.78431373
v -0.05078125 -0.39453125 -0.08984375 0.78431373 0.39215686 0.78431373
v -0.05078125 -0.32421875 -0.08984375 0.78431373 0.39215686 0.78431373
v -0.11328125 -0.32421875 -0.08984375 0.78431373 0.39215686 0.78431373
v 0.35546875 -0.38671875 -0.12890625 0.00000000 0.54901961 1.00000000
v 0.42578125 -0.38671875 -0.12890625 0.00000000 0.54901961 1.00000000
v 0.42578125 -0.24609375 -0.12890625 0.00000000 0.54901961 1.00000000
v 0.35546875 -0.24609375 -0.12890625 0.00000000 0.54901961 1.00000000
v 0.35546875 -0.38671875 -0.05859375 0.00000000 0.54901961 1.00000000
v 0.42578125 -0.38671875 -0.05859375 0.00000000 0.54901961 1.00000000
v 0.42578125 -0.24609375 -0.05859375 0.00000000 0.54901961 1.00000000
v 0.35546875 -0.24609375 -0.05859375 0.00000000 0.54901961 1.00000000
v -0.30859375 -0.37890625 -0.12890625 0.70588235 0.50980392 0.27450980
v -0.25390625 -0.37890625 -0.12890625 0.70588235 0.50980392 0.27450980
v -0.25390625 -0.25390625 -0.12890625 0.70588235 0.50980392 0.27450980
v -0.30859375 -0.25390625 -0.12890625 0.70588235 0.50980392 0.27450980
v -0.30859375 -0.37890625 -0.08984375 0.70588235 0.50980392 0.27450980
v -0.25390625 -0.37890625 -0.08984375 0.70588235 0.50980392 0.27450980
v -0.25390625 -0.25390625 -0.08984375 0.70588235 0.50980392 0.27450980
v -0.30859375 -0.25390625 -0.08984375 0.70588235 0.50980392 0.27450980
v 0.24609375 -0.37890625 -0.12890625 0.70588235 0.50980392 0.27450980
v 0.28515625 -0.37890625 -0.12890625 0.70588235 0.50980392 0.27450980
v 0.28515625 -0.25390625 -0.12890625 0.70588235 0.50980392 0.27450980
v 0.24609375 -0.37890625 -0.06640625 0.70588235 0.50980392 0.27450980
v 0.28515625 -0.37890625 -0.06640625 0.70588235 0.50980392 0.27450980
v 0.28515625 -0.25390625 -0.06640625 0.70588235 0.50980392 0.27450980
v 0.24609375 -0.25390625 -0.06640625 0.70588235 0.50980392 0.27450980
v 0.08984375 -0.36328125 -0.12890625 0.78431373 0.39215686 0.78431373
v 0.16015625 -0.36328125 -0.12890625 0.78431373 0.39215686 0.78431373
v 0.16015625 -0.28515625 -0.12890625 0.78431373 0.39215686 0.78431373
v 0.08984375 -0.28515625 -0.12890625 0.78431373 0.39215686 0.78431373
v 0.08984375 -0.36328125 -0.08984375 0.78431373 0.39215686 0.78431373
v 0.16015625 -0.36328125 -0.08984375 0.78431373 0.39215686 0.78431373
v 0.16015625 -0.28515625 -0.08984375 0.78431373 0.39215686 0.78431373
v 0.08984375 -0.28515625 -0.08984375 0.78431373 0.39215686 0.78431373
v -0.17578125 -0.35546875 -0.12890625 0.78431373 0.78431373 0.31372549
v -0.09765625 -0.35546875 -0.12890625 0.78431373 0.78431373 0.31372549
v -0.09765625 -0.26171875 -0.12890625 0.78431373 0.78431373 0.31372549
v -0.17578125 -0.26171875 -0.12890625 0.78431373 0.78431373 0.31372549
v -0.17578125 -0.35546875 -0.01953125 0.78431373 0.78431373 0.31372549
v -0.09765625 -0.35546875 -0.01953125 0.78431373 0.78431373 0.31372549
v -0.09765625 -0.26171875 -0.01953125 0.78431373 0.78431373 0.31372549
v -0.17578125 -0.26171875 -0.01953125 0.78431373 0.78431373 0.31372549
v -0.23046875 -0.28515625 -0.12890625 0.78431373 0.39215686 0.78431373
v -0.16015625 -0.28515625 -0.12890625 0.78431373 0.39215686 0.78431373
v -0.23046875 -0.20703125 -0.12890625 0.78431373 0.39215686 0.78431373
v -0.23046875 -0.28515625 -0.08984375 0.78431373 0.39215686 0.78431373
v -0.16015625 -0.28515625 -0.08984375 0.78431373 0.39215686 0.78431373
v -0.16015625 -0.20703125 -0.08984375 0.78431373 0.39215686 0.78431373
v -0.23046875 -0.20703125 -0.08984375 0.78431373 0.39215686 0.78431373
v -0.12109375 -0.28515625 -0.12890625 0.78431373 0.39215686 0.78431373
v -0.05078125 -0.28515625 -0.12890625 0.78431373 0.39215686 0.78431373
v -0.05078125 -0.20703125 -0.12890625 0.78431373 0.39215686 0.78431373
v -0.12109375 -0.20703125 -0.12890625 0.78431373 0.39215686 0.78431373
v -0.12109375 -0.28515625 -0.08984375 0.78431373 0.39215686 0.78431373
v -0.05078125 -0.28515625 -0.08984375 0.78431373 0.39215686 0.78431373
v -0.05078125 -0.20703125 -0.08984375 0.78431373 0.39215686 0.78431373
v -0.12109375 -0.20703125 -0.08984375 0.78431373 0.39215686 0.78431373
v 0.42578125 -0.07421875 -0.12890625 0.70588235 0.50980392 0.27450980
v 0.46484375 -0.07421875 -0.12890625 0.70588235 0.50980392 0.27450980
v 0.46484375 -0.04296875 -0.12890625 0.70588235 0.50980392 0.27450980
v 0.42578125 -0.04296875 -0.12890625 0.70588235 0.50980392 0.27450980
v 0.42578125 -0.07421875 -0.10546875 0.70588235 0.50980392 0.27450980
v 0.46484375 -0.07421875 -0.10546875 0.70588235 0.50980392 0.27450980
v 0.46484375 -0.04296875 -0.10546875 0.70588235 0.50980392 0.27450980
v 0.42578125 -0.04296875 -0.10546875 0.70588235 0.50980392 0.27450980
v 0.29296875 0.00390625 -0.12890625 0.31372549 0.78431373 0.94117647
v 0.46484375 0.00390625 -0.12890625 0.31372549 0.78431373 0.94117647
v 0.46484375 0.17578125 -0.12890625 0.31372549 0.78431373 0.94117647
v 0.29296875 0.17578125 -0.12890625 0.31372549 0.78431373 0.94117647
v 0.29296875 0.00390625 0.05859375 0.31372549 0.78431373 0.94117647
v 0.46484375 0.00390625 0.05859375 0.31372549 0.78431373 0.94117647
v 0.46484375 0.17578125 0.05859375 0.31372549 0.78431373 0.94117647
v 0.29296875 0.17578125 0.05859375 0.31372549 0.78431373 0.94117647
v -0.14453125 0.05078125 -0.12890625 0.00000000 0.54901961 1.00000000
v -0.01953125 0.05078125 -0.12890625 0.00000000 0.54901961 1.00000000
v -0.01953125 0.09765625 -0.12890625 0.00000000 0.54901961 1.00000000
v -0.14453125 0.09765625 -0.12890625 0.00000000 0.54901961 1.00000000
v -0.14453125 0.05078125 -0.05859375 0.00000000 0.54901961 1.00000000
v -0.01953125 0.05078125 -0.05859375 0.00000000 0.54901961 1.00000000
v -0.01953125 0.09765625 -0.05859375 0.00000000 0.54901961 1.00000000
v -0.14453125 0.09765625 -0.05859375 0.00000000 0.54901961 1.00000000
v -0.46484375 0.05859375 -0.12890625 0.70588235 0.50980392 0.27450980
v -0.38671875 0.05859375 -0.12890625 0.70588235 0.50980392 0.27450980
v -0.38671875 0.10546875 -0.12890625 0.70588235 0.50980392 0.27450980
v -0.46484375 0.10546875 -0.12890625 0.70588235 0.50980392 0.27450980
v -0.46484375 0.05859375 -0.09765625 0.70588235 0.50980392 0.27450980
v -0.38671875 0.05859375 -0.09765625 0.70588235 0.50980392 0.27450980
v -0.38671875 0.10546875 -0.09765625 0.70588235 0.50980392 0.27450980
v -0.46484375 0.10546875 -0.09765625 0.70588235 0.50980392 0.27450980
v 0.14453125 0.07421875 -0.12890625 0.70588235 0.50980392 0.27450980
v 0.19921875 0.07421875 -0.12890625 0.70588235 0.50980392 0.27450980
v 0.19921875 0.12109375 -0.12890625 0.70588235 0.50980392 0.27450980
v 0.14453125 0.12109375 -0.12890625 0.70588235 0.50980392 0.27450980
v 0.14453125 0.07421875 -0.08203125 0.70588235 0.50980392 0.27450980
v 0.19921875 0.07421875 -0.08203125 0.70588235 0.50980392 0.27450980
v 0.19921875 0.12109375 -0.08203125 0.70588235 0.50980392 0.27450980
v 0.14453125 0.12109375 -0.08203125 0.70588235 0.50980392 0.27450980
v -0.35546875 0.11328125 -0.12890625 0.70588235 0.50980392 0.27450980
v -0.25390625 0.11328125 -0.12890625 0.70588235 0.50980392 0.27450980
v -0.25390625 0.19921875 -0.12890625 0.70588235 0.50980392 0.27450980
v -0.35546875 0.19921875 -0.12890625 0.70588235 0.50980392 0.27450980
v -0.35546875 0.11328125 -0.04296875 0.70588235 0.50980392 0.27450980
v -0.25390625 0.11328125 -0.04296875 0.70588235 0.50980392 0.27450980
v -0.25390625 0.19921875 -0.04296875 0.70588235 0.50980392 0.27450980
v -0.35546875 0.19921875 -0.04296875 0.70588235 0.50980392 0.27450980
v 0.13671875 0.13671875 -0.12890625 0.00000000 0.54901961 1.00000000
v 0.21484375 0.13671875 -0.12890625 0.00000000 0.54901961 1.00000000
v 0.21484375 0.19921875 -0.12890625 0.00000000 0.54901961 1.00000000
v 0.13671875 0.19921875 -0.12890625 0.00000000 0.54901961 1.00000000
v 0.13671875 0.13671875 -0.06640625 0.00000000 0.54901961 1.00000000
v 0.21484375 0.13671875 -0.06640625 0.00000000 0.54901961 1.00000000
v 0.21484375 0.19921875 -0.06640625 0.00000000 0.54901961 1.00000000
v 0.13671875 0.19921875 -0.06640625 0.00000000 0.54901961 1.00000000
v -0.13671875 0.14453125 -0.12890625 0.78431373 0.78431373 0.31372549
v -0.02734375 0.14453125 -0.12890625 0.78431373 0.78431373 0.31372549
v -0.02734375 0.20703125 -0.12890625 0.78431373 0.78431373 0.31372549
v -0.13671875 0.20703125 -0.12890625 0.78431373 0.78431373 0.31372549
v -0.13671875 0.14453125 -0.06640625 0.78431373 0.78431373 0.31372549
v -0.02734375 0.14453125 -0.06640625 0.78431373 0.78431373 0.31372549
v -0.02734375 0.20703125 -0.06640625 0.78431373 0.78431373 0.31372549
v -0.13671875 0.20703125 -0.06640625 0.78431373 0.78431373 0.31372549
v -0.46484375 0.15234375 -0.12890625 0.31372549 0.78431373 0.94117647
v -0.30078125 0.15234375 -0.12890625 0.31372549 0.78431373 0.94117647
v -0.30078125 0.27734375 -0.12890625 0.31372549 0.78431373 0.94117647
v -0.46484375 0.27734375 -0.12890625 0.31372549 0.78431373 0.94117647
v -0.46484375 0.15234375 0.07421875 0.31372549 0.78431373 0.94117647
v -0.30078125 0.15234375 0.07421875 0.31372549 0.78431373 0.94117647
v -0.30078125 0.27734375 0.07421875 0.31372549 0.78431373 0.94117647
v -0.46484375 0.27734375 0.07421875 0.31372549 0.78431373 0.94117647
v -0.13671875 0.16796875 -0.12890625 0.70588235 0.50980392 0.27450980
v -0.09765625 0.16796875 -0.12890625 0.70588235 0.50980392 0.27450980
v -0.09765625 0.26171875 -0.12890625 0.70588235 0.50980392 0.27450980
v -0.13671875 0.26171875 -0.12890625 0.70588235 0.50980392 0.27450980
v -0.13671875 0.16796875 -0.09765625 0.70588235 0.50980392 0.27450980
v -0.09765625 0.16796875 -0.09765625 0.70588235 0.50980392 0.27450980
v -0.09765625 0.26171875 -0.09765625 0.70588235 0.50980392 0.27450980
v -0.13671875 0.26171875 -0.09765625 0.70588235 0.50980392 0.27450980
v -0.04296875 0.18359375 -0.12890625 0.70588235 0.50980392 0.27450980
v -0.00390625 0.18359375 -0.12890625 0.70588235 0.50980392 0.27450980
v -0.00390625 0.26953125 -0.12890625 0.70588235 0.50980392 0.27450980
v -0.04296875 0.26953125 -0.12890625 0.70588235 0.50980392 0.27450980
v -0.04296875 0.18359375 -0.09765625 0.70588235 0.50980392 0.27450980
v -0.00390625 0.18359375 -0.09765625 0.70588235 0.50980392 0.27450980
v -0.00390625 0.26953125 -0.09765625 0.70588235 0.50980392 0.27450980
v -0.04296875 0.26953125 -0.09765625 0.70588235 0.50980392 0.27450980
v 0.37890625 0.23046875 -0.12890625 0.78431373 0.39215686 0.78431373
v 0.42578125 0.23046875 -0.12890625 0.78431373 0.39215686 0.78431373
v 0.42578125 0.26171875 -0.12890625 0.78431373 0.39215686 0.78431373
v 0.37890625 0.26171875 -0.12890625 0.78431373 0.39215686 0.78431373
v 0.37890625 0.23046875 -0.08984375 0.78431373 0.39215686 0.78431373
v 0.42578125 0.23046875 -0.08984375 0.78431373 0.39215686 0.78431373
v 0.42578125 0.26171875 -0.08984375 0.78431373 0.39215686 0.78431373
v 0.37890625 0.26171875 -0.08984375 0.78431373 0.39215686 0.78431373
v -0.23046875 0.23828125 -0.12890625 0.70588235 0.50980392 0.27450980
v -0.19921875 0.23828125 -0.12890625 0.70588235 0.50980392 0.27450980
v -0.19921875 0.30078125 -0.12890625 0.70588235 0.50980392 0.27450980
v -0.23046875 0.30078125 -0.12890625 0.70588235 0.50980392 0.27450980
v -0.23046875 0.23828125 -0.09765625 0.70588235 0.50980392 0.27450980
v -0.19921875 0.23828125 -0.09765625 0.70588235 0.50980392 0.27450980
v -0.19921875 0.30078125 -0.09765625 0.70588235 0.50980392 0.27450980
v -0.23046875 0.30078125 -0.09765625 0.70588235 0.50980392 0.27450980
v -0.22265625 0.25390625 -0.12890625 0.70588235 0.50980392 0.27450980
v -0.19140625 0.25390625 -0.12890625 0.70588235 0.50980392 0.27450980
v -0.19140625 0.29296875 -0.12890625 0.70588235 0.50980392 0.27450980
v -0.22265625 0.29296875 -0.12890625 0.70588235 0.50980392 0.27450980
v -0.22265625 0.25390625 -0.09765625 0.70588235 0.50980392 0.27450980
v -0.19140625 0.25390625 -0.09765625 0.70588235 0.50980392 0.27450980
v -0.19140625 0.29296875 -0.09765625 0.70588235 0.50980392 0.27450980
v -0.22265625 0.29296875 -0.09765625 0.70588235 0.50980392 0.27450980
v -0.47265625 0.27734375 -0.12890625 0.70588235 0.50980392 0.27450980
v -0.42578125 0.27734375 -0.12890625 0.70588235 0.50980392 0.27450980
v -0.42578125 0.32421875 -0.12890625 0.70588235 0.50980392 0.27450980
v -0.47265625 0.32421875 -0.12890625 0.70588235 0.50980392 0.27450980
v -0.47265625 0.27734375 -0.09765625 0.70588235 0.50980392 0.27450980
v -0.42578125 0.27734375 -0.09765625 0.70588235 0.50980392 0.27450980
v -0.42578125 0.32421875 -0.09765625 0.70588235 0.50980392 0.27450980
v -0.47265625 0.32421875 -0.09765625 0.70588235 0.50980392 0.27450980
v 0.01953125 0.30078125 -0.12890625 0.31372549 0.78431373 0.94117647
v 0.08203125 0.30078125 -0.12890625 0.31372549 0.78431373 0.94117647
v 0.08203125 0.41796875 -0.12890625 0.31372549 0.78431373 0.94117647
v 0.01953125 0.41796875 -0.12890625 0.31372549 0.78431373 0.94117647
v 0.01953125 0.30078125 0.06640625 0.31372549 0.78431373 0.94117647
v 0.08203125 0.30078125 0.06640625 0.31372549 0.78431373 0.94117647
v 0.08203125 0.41796875 0.06640625 0.31372549 0.78431373 0.94117647
v 0.01953125 0.41796875 0.06640625 0.31372549 0.78431373 0.94117647
v -0.08984375 0.33203125 -0.12890625 0.78431373 0.78431373 0.31372549
v 0.04296875 0.33203125 -0.12890625 0.78431373 0.78431373 0.31372549
v 0.04296875 0.38671875 -0.12890625 0.78431373 0.78431373 0.31372549
v -0.08984375 0.38671875 -0.12890625 0.78431373 0.78431373 0.31372549
v -0.08984375 0.33203125 0.06640625 0.78431373 0.78431373 0.31372549
v 0.04296875 0.33203125 0.06640625 0.78431373 0.78431373 0.31372549
v 0.04296875 0.38671875 0.06640625 0.78431373 0.78431373 0.31372549
v -0.08984375 0.38671875 0.06640625 0.78431373 0.78431373 0.31372549
v -0.05078125 0.33203125 -0.12890625 0.78431373 0.78431373 0.31372549
v 0.00390625 0.33203125 -0.12890625 0.78431373 0.78431373 0.31372549
v 0.00390625 0.39453125 -0.12890625 0.78431373 0.78431373 0.31372549
v -0.05078125 0.39453125 -0.12890625 0.78431373 0.78431373 0.31372549
v -0.05078125 0.33203125 -0.06640625 0.78431373 0.78431373 0.31372549
v 0.00390625 0.33203125 -0.06640625 0.78431373 0.78431373 0.31372549
v 0.00390625 0.39453125 -0.06640625 0.78431373 0.78431373 0.31372549
v -0.05078125 0.39453125 -0.06640625 0.78431373 0.78431373 0.31372549
v -0.05078125 0.41015625 -0.12890625 0.00000000 0.54901961 1.00000000
v -0.00390625 0.41015625 -0.12890625 0.00000000 0.54901961 1.00000000
v -0.00390625 0.46484375 -0.12890625 0.00000000 0.54901961 1.00000000
v -0.05078125 0.46484375 -0.12890625 0.00000000 0.54901961 1.00000000
v -0.05078125 0.41015625 -0.08203125 0.00000000 0.54901961 1.00000000
v -0.00390625 0.41015625 -0.08203125 0.00000000 0.54901961 1.00000000
v -0.00390625 0.46484375 -0.08203125 0.00000000 0.54901961 1.00000000
v -0.05078125 0.46484375 -0.08203125 0.00000000 0.54901961 1.00000000
v 0.26953125 0.04296875 0.01953125 0.19607843 0.78431373 1.00000000
v 0.33984375 0.04296875 0.01953125 0.19607843 0.78431373 1.00000000
v 0.33984375 0.12109375 0.01953125 0.19607843 0.78431373 1.00000000
v 0.26953125 0.12109375 0.01953125 0.19607843 0.78431373 1.00000000
v 0.26953125 0.04296875 0.08984375 0.19607843 0.78431373 1.00000000
v 0.33984375 0.04296875 0.08984375 0.19607843 0.78431373 1.00000000
v 0.33984375 0.12109375 0.08984375 0.19607843 0.78431373 1.00000000
v 0.26953125 0.12109375 0.08984375 0.19607843 0.78431373 1.00000000
v -0.35546875 0.18359375 0.02734375 0.19607843 0.78431373 1.00000000
v -0.30078125 0.18359375 0.02734375 0.19607843 0.78431373 1.00000000
v -0.30078125 0.23828125 0.02734375 0.19607843 0.78431373 1.00000000
v -0.35546875 0.23828125 0.02734375 0.19607843 0.78431373 1.00000000
v -0.35546875 0.18359375 0.11328125 0.19607843 0.78431373 1.00000000
v -0.30078125 0.18359375 0.11328125 0.19607843 0.78431373 1.00000000
v -0.30078125 0.23828125 0.11328125 0.19607843 0.78431373 1.00000000
v -0.35546875 0.23828125 0.11328125 0.19607843 0.78431373 1.00000000
v -0.09765625 0.19921875 0.03515625 0.19607843 0.78431373 1.00000000
v 0.01953125 0.19921875 0.03515625 0.19607843 0.78431373 1.00000000
v 0.01953125 0.29296875 0.03515625 0.19607843 0.78431373 1.00000000
v -0.09765625 0.29296875 0.03515625 0.19607843 0.78431373 1.00000000
v -0.09765625 0.19921875 0.13671875 0.19607843 0.78431373 1.00000000
v 0.01953125 0.19921875 0.13671875 0.19607843 0.78431373 1.00000000
v 0.01953125 0.29296875 0.13671875 0.19607843 0.78431373 1.00000000
v -0.09765625 0.29296875 0.13671875 0.19607843 0.78431373 1.00000000
v -0.04296875 0.25390625 0.05078125 0.19607843 0.78431373 1.00000000
v 0.02734375 0.25390625 0.05078125 0.19607843 0.78431373 1.00000000
v 0.02734375 0.33203125 0.05078125 0.19607843 0.78431373 1.00000000
v -0.04296875 0.33203125 0.05078125 0.19607843 0.78431373 1.00000000
v -0.04296875 0.25390625 0.13671875 0.19607843 0.78431373 1.00000000
v 0.02734375 0.25390625 0.13671875 0.19607843 0.78431373 1.00000000
v 0.02734375 0.33203125 0.13671875 0.19607843 0.78431373 1.00000000
v -0.04296875 0.33203125 0.13671875 0.19607843 0.78431373 1.00000000
f 17 201 202
f 17 202 18
f 202 201 349
f 201 17 203
f 17 18 19
f 18 202 37
f 202 349 204
f 349 201 348
f 201 203 343
f 203 17 36
f 17 19 45
f 19 18 20
f 18 37 28
f 37 202 204
f 204 349 344
f 349 348 351
f 348 201 343
f 343 203 332
f 203 36 184
f 45 19 48
f 19 20 48
f 20 18 26
f 18 28 26
f 28 37 47
f 37 204 47
f 204 344 212
f 344 349 359
f 349 351 359
f 351 348 350
f 332 203 210
f 203 184 210
f 184 36 45
f 45 48 49
f 19 48 21
f 48 20 49
f 20 26 55
f 26 28 27
f 28 47 58
f 47 204 186
f 204 212 186
f 212 344 334
f 344 359 334
f 359 351 357
f 351 350 333
f 350 348 332
f 332 210 212
f 210 184 213
f 184 45 46
f 184 45 47
f 45 49 47
f 21 48 50
f 49 20 55
f 55 26 25
f 26 27 25
f 27 28 29
f 28 58 39
f 58 47 49
f 47 186 184
f 186 212 195
f 212 334 332
f 334 359 337
f 359 357 356
f 357 351 333
f 333 350 332
f 212 210 215
f 210 213 214
f 210 213 215
f 213 184 187
f 184 46 185
f 46 45 185
f 45 184 185
f 21 50 22
f 49 55 58
f 55 25 54
f 25 27 56
f 27 29 59
f 29 28 30
f 28 39 35
f 39 58 195
f 184 186 187
f 186 195 192
f 195 212 225
f 334 337 336
f 337 359 346
f 359 356 358
f 356 357 335
f 357 333 336
f 332 350 323
f 212 215 225
f 210 214 211
f 214 213 211
f 213 210 211
f 215 213 189
f 213 187 189
f 187 184 185
f 185 184 188
f 22 50 51
f 58 55 54
f 54 25 53
f 54 25 56
f 56 27 38
f 27 59 38
f 59 29 62
f 29 30 62
f 30 28 33
f 28 35 33
f 35 39 61
f 39 195 206
f 195 58 100
f 184 187 166
f 184 187 188
f 187 186 189
f 186 192 189
f 192 195 193
f 195 225 206
f 334 336 333
f 337 346 270
f 346 359 340
f 359 358 361
f 358 356 335
f 356 335 355
f 335 357 336
f 332 323 322
f 323 350 352
f 225 215 222
f 215 189 222
f 187 213 166
f 187 185 188
f 22 51 23
f 51 50 87
f 58 54 56
f 53 25 24
f 56 38 101
f 38 59 101
f 59 62 63
f 59 62 64
f 29 62 31
f 62 30 64
f 30 33 68
f 33 35 34
f 35 61 73
f 61 39 206
f 195 100 173
f 100 58 56
f 184 166 165
f 189 192 222
f 192 193 190
f 193 195 172
f 206 225 268
f 337 270 268
f 270 346 276
f 346 340 276
f 340 359 361
f 361 358 360
f 358 335 345
f 355 335 327
f 322 323 317
f 323 352 324
f 225 222 220
f 166 213 216
f 23 51 52
f 51 87 88
f 87 50 86
f 53 24 52
f 56 101 98
f 101 59 60
f 101 59 61
f 59 63 60
f 63 62 60
f 62 59 60
f 59 64 61
f 31 62 65
f 64 30 68
f 68 33 32
f 33 34 32
f 34 35 1
f 35 73 41
f 73 61 64
f 61 206 209
f 195 173 172
f 173 100 103
f 100 56 98
f 165 166 155
f 222 192 190
f 190 193 223
f 190 193 194
f 193 172 205
f 206 268 270
f 268 225 223
f 337 268 267
f 270 276 244
f 276 340 338
f 340 361 342
f 361 360 331
f 360 358 345
f 345 335 267
f 355 327 326
f 322 317 316
f 317 323 318
f 323 324 318
f 324 352 353
f 225 220 223
f 220 222 190
f 166 216 167
f 23 52 24
f 52 51 88
f 88 87 144
f 87 86 143
f 86 50 45
f 53 52 89
f 56 98 99
f 98 101 103
f 101 60 102
f 60 59 102
f 59 101 102
f 101 61 103
f 31 65 32
f 64 68 73
f 68 32 67
f 32 34 71
f 34 1 40
f 1 35 2
f 35 41 6
f 41 73 106
f 61 209 175
f 209 206 270
f 172 173 174
f 173 103 175
f 103 100 98
f 98 56 57
f 165 155 154
f 155 166 156
f 190 223 220
f 223 193 205
f 193 190 191
f 190 194 191
f 194 193 191
f 194 193 177
f 205 172 174
f 268 223 267
f 337 267 335
f 270 244 209
f 244 276 255
f 276 338 274
f 338 340 341
f 340 342 341
f 361 331 297
f 331 360 330
f 360 345 338
f 345 267 269
f 355 326 354
f 326 327 321
f 316 317 311
f 317 318 312
f 318 324 319
f 324 353 325
f 223 220 221
f 220 190 219
f 166 167 156
f 167 216 217
f 52 88 89
f 88 144 145
f 144 87 143
f 53 89 90
f 56 99 57
f 99 98 57
f 101 98 148
f 103 61 175
f 32 65 67
f 73 68 67
f 67 32 71
f 71 34 40
f 40 1 5
f 1 2 3
f 2 35 6
f 6 41 10
f 41 106 121
f 106 73 76
f 175 209 207
f 172 174 171
f 174 173 175
f 154 155 144
f 155 156 145
f 220 223 224
f 223 205 269
f 193 194 176
f 194 177 176
f 177 193 176
f 205 174 207
f 267 223 269
f 209 244 242
f 244 255 249
f 255 276 286
f 274 338 269
f 274 338 339
f 274 338 291
f 338 341 291
f 338 341 360
f 341 342 328
f 361 297 347
f 297 331 303
f 331 330 329
f 330 360 328
f 338 345 269
f 354 326 325
f 326 321 320
f 316 311 310
f 311 317 312
f 312 318 313
f 318 319 313
f 319 324 325
f 325 353 354
f 223 221 224
f 221 220 224
f 219 190 169
f 156 167 157
f 167 217 168
f 217 216 232
f 89 88 145
f 145 144 155
f 144 143 154
f 53 90 56
f 90 89 146
f 101 148 149
f 73 67 71
f 71 40 78
f 40 5 42
f 5 1 3
f 3 2 4
f 2 6 4
f 6 10 4
f 10 41 44
f 41 121 44
f 121 106 136
f 106 76 94
f 76 73 71
f 175 207 174
f 207 209 242
f 172 171 170
f 145 156 146
f 269 205 242
f 205 207 242
f 242 244 245
f 244 249 246
f 249 255 252
f 255 286 272
f 286 276 278
f 274 269 242
f 338 274 275
f 274 339 275
f 339 338 275
f 360 341 328
f 328 342 329
f 347 297 342
f 297 303 302
f 303 331 329
f 329 330 328
f 325 326 320
f 320 321 315
f 310 311 305
f 311 312 306
f 312 313 307
f 313 319 314
f 319 325 320
f 219 169 218
f 169 190 170
f 156 157 146
f 157 167 168
f 168 217 218
f 217 232 233
f 232 216 231
f 89 145 146
f 56 90 91
f 90 146 147
f 149 148 159
f 71 78 74
f 78 40 42
f 42 5 8
f 5 3 8
f 3 4 15
f 4 10 14
f 10 44 42
f 44 121 110
f 121 136 110
f 136 106 255
f 106 94 92
f 94 76 80
f 76 71 74
f 207 242 243
f 170 171 160
f 242 207 208
f 242 245 277
f 245 244 246
f 246 249 281
f 249 252 248
f 255 272 121
f 272 286 259
f 286 278 281
f 278 276 274
f 274 242 277
f 329 342 301
f 342 297 293
f 297 302 296
f 302 303 300
f 303 329 301
f 328 330 302
f 320 315 314
f 310 305 304
f 305 311 306
f 306 312 307
f 307 313 308
f 313 314 308
f 314 319 320
f 218 169 168
f 169 170 159
f 170 190 193
f 146 157 147
f 157 168 158
f 218 217 233
f 233 232 305
f 232 231 304
f 231 216 210
f 91 90 147
f 149 159 160
f 159 148 158
f 71 74 75
f 74 78 80
f 78 42 43
f 78 42 44
f 42 8 9
f 42 8 10
f 8 3 11
f 3 15 11
f 15 4 16
f 14 10 8
f 44 110 97
f 110 136 142
f 255 106 197
f 106 92 104
f 92 94 95
f 94 80 97
f 80 76 74
f 74 71 72
f 207 243 208
f 243 242 208
f 170 160 159
f 208 207 179
f 277 245 246
f 246 281 278
f 281 249 248
f 248 252 284
f 248 252 241
f 121 272 139
f 272 259 139
f 259 286 299
f 286 281 280
f 278 274 277
f 301 342 293
f 296 302 291
f 302 300 291
f 302 300 328
f 300 303 301
f 314 315 309
f 304 305 232
f 305 306 233
f 306 307 234
f 307 308 235
f 308 314 309
f 168 169 158
f 169 159 158
f 147 157 158
f 218 233 234
f 91 147 148
f 158 148 147
f 71 75 72
f 75 74 72
f 80 78 44
f 78 74 95
f 78 43 79
f 43 42 9
f 43 42 79
f 42 78 79
f 9 8 43
f 9 8 12
f 8 42 43
f 8 11 12
f 8 11 14
f 11 15 16
f 16 4 115
f 44 97 80
f 97 110 108
f 110 142 119
f 255 197 254
f 197 106 104
f 104 92 93
f 104 92 120
f 92 95 120
f 92 95 74
f 95 94 97
f 72 71 70
f 207 208 178
f 208 179 178
f 179 207 178
f 277 246 278
f 245 277 247
f 281 248 280
f 248 284 280
f 284 252 271
f 248 241 239
f 139 259 258
f 259 299 263
f 286 280 284
f 301 293 291
f 291 300 301
f 233 306 234
f 234 307 235
f 235 308 236
f 308 309 236
f 218 234 219
f 71 72 69
f 8 9 11
f 9 12 11
f 11 8 108
f 11 16 13
f 15 11 111
f 16 115 113
f 115 4 125
f 97 108 95
f 108 110 116
f 110 119 118
f 254 197 200
f 197 104 196
f 104 93 105
f 93 92 105
f 92 104 105
f 104 120 198
f 120 95 108
f 72 70 69
f 70 71 69
f 247 277 279
f 280 248 279
f 284 271 298
f 271 252 256
f 239 241 229
f 139 258 200
f 259 263 260
f 286 284 293
f 291 293 284
f 234 235 219
f 235 236 223
f 11 108 111
f 13 16 113
f 15 111 114
f 113 115 114
f 115 125 124
f 125 4 7
f 95 108 109
f 108 116 140
f 108 116 117
f 116 110 126
f 118 119 129
f 254 200 258
f 200 197 196
f 196 104 198
f 104 105 180
f 105 104 181
f 198 120 199
f 120 108 137
f 108 95 96
f 247 279 248
f 298 271 256
f 256 252 254
f 239 229 228
f 139 200 199
f 259 260 256
f 260 263 264
f 291 284 285
f 219 235 223
f 111 108 109
f 13 113 123
f 114 111 113
f 114 115 124
f 125 7 14
f 95 109 96
f 109 108 96
f 109 108 117
f 108 140 137
f 116 108 109
f 117 116 109
f 116 126 118
f 126 110 128
f 118 129 126
f 129 119 130
f 254 258 256
f 200 196 199
f 104 180 181
f 180 105 181
f 199 120 137
f 298 256 260
f 252 256 230
f 239 228 238
f 228 229 196
f 139 199 137
f 256 260 140
f 256 260 261
f 260 264 129
f 260 264 298
f 264 263 266
f 291 285 292
f 285 284 283
f 285 284 290
f 111 109 112
f 13 123 14
f 123 113 111
f 111 114 124
f 125 14 123
f 137 140 141
f 137 140 142
f 126 128 129
f 128 110 139
f 129 130 126
f 130 119 265
f 199 196 230
f 260 256 257
f 252 230 239
f 239 238 245
f 238 228 227
f 228 196 164
f 196 229 198
f 139 137 142
f 256 140 137
f 140 260 129
f 256 261 257
f 261 260 257
f 298 264 265
f 266 263 131
f 285 283 282
f 283 284 282
f 284 285 282
f 290 284 289
f 123 111 122
f 111 124 122
f 137 141 138
f 141 140 138
f 140 137 138
f 129 128 131
f 128 139 142
f 126 130 127
f 130 265 262
f 265 119 299
f 230 196 228
f 252 239 240
f 239 230 228
f 239 245 248
f 238 227 237
f 227 228 163
f 228 164 163
f 298 265 299
f 131 263 128
f 137 138 182
f 138 137 183
f 127 130 262
f 262 265 264
f 238 237 242
f 237 227 226
f 227 163 162
f 163 164 153
f 298 299 294
f 137 182 183
f 182 138 183
f 131 263 273
f 127 262 263
f 262 264 260
f 238 242 245
f 226 227 162
f 162 163 152
f 163 153 152
f 294 299 295
f 127 263 128
f 226 162 161
f 162 152 151
f 152 153 135
f 294 295 287
f 161 162 151
f 151 152 134
f 152 135 134
f 287 295 288
f 161 151 150
f 151 134 133
f 134 135 104
f 287 288 284
f 150 151 133
f 133 134 83
f 134 104 84
f 284 288 286
f 150 133 132
f 133 83 82
f 83 134 84
f 84 104 107
f 132 133 82
f 82 83 66
f 83 84 74
f 84 107 85
f 132 82 81
f 82 66 62
f 66 83 71
f 83 74 71
f 74 84 77
f 84 85 78
f 85 107 108
f 81 82 62
f 77 84 78
f 81 62 59
f 250 252 253
f 250 253 251
f 253 252 251
f 252 250 251
f 362 363 364
f 362 364 365
f 366 369 368
f 366 368 367
f 362 366 367
f 362 367 363
f 365 364 368
f 365 368 369
f 362 365 369
f 362 369 366
f 363 367 368
f 363 368 364
f 370 371 372
f 370 372 373
f 374 377 376
f 374 376 375
f 370 374 375
f 370 375 371
f 373 372 376
f 373 376 377
f 370 373 377
f 370 377 374
f 371 375 376
f 371 376 372
f 378 379 380
f 378 380 381
f 382 385 384
f 382 384 383
f 378 382 383
f 378 383 379
f 381 380 384
f 381 384 385
f 378 381 385
f 378 385 382
f 379 383 384
f 379 384 380
f 386 387 388
f 386 388 389
f 390 393 392
f 390 392 391
f 386 390 391
f 386 391 387
f 389 388 392
f 389 392 393
f 386 389 393
f 386 393 390
f 387 391 392
f 387 392 388
f 394 395 396
f 394 396 397
f 398 401 400
f 398 400 399
f 394 398 399
f 394 399 395
f 397 396 400
f 397 400 401
f 394 397 401
f 394 401 398
f 395 399 400
f 395 400 396
f 402 403 404
f 402 404 405
f 406 409 408
f 406 408 407
f 402 406 407
f 402 407 403
f 405 404 408
f 405 408 409
f 402 405 409
f 402 409 406
f 403 407 408
f 403 408 404
f 410 411 412
f 410 412 413
f 414 417 416
f 414 416 415
f 410 414 415
f 410 415 411
f 413 412 416
f 413 416 417
f 410 413 417
f 410 417 414
f 411 415 416
f 411 416 412
f 418 419 420
f 418 420 313
f 421 424 423
f 421 423 422
f 418 421 422
f 418 422 419
f 313 420 423
f 313 423 424
f 418 313 424
f 418 424 421
f 419 422 423
f 419 423 420
f 425 426 427
f 425 427 428
f 429 432 431
f 429 431 430
f 425 429 430
f 425 430 426
f 428 427 431
f 428 431 432
f 425 428 432
f 425 432 429
f 426 430 431
f 426 431 427
f 433 434 435
f 433 435 436
f 437 440 439
f 437 439 438
f 433 437 438
f 433 438 434
f 436 435 439
f 436 439 440
f 433 436 440
f 433 440 437
f 434 438 439
f 434 439 435
f 441 442 147
f 441 147 443
f 444 447 446
f 444 446 445
f 441 444 445
f 441 445 442
f 443 147 446
f 443 446 447
f 441 443 447
f 441 447 444
f 442 445 446
f 442 446 147
f 448 449 450
f 448 450 451
f 452 455 454
f 452 454 453
f 448 452 453
f 448 453 449
f 451 450 454
f 451 454 455
f 448 451 455
f 448 455 452
f 449 453 454
f 449 454 450
f 456 457 458
f 456 458 459
f 460 463 462
f 460 462 461
f 456 460 461
f 456 461 457
f 459 458 462
f 459 462 463
f 456 459 463
f 456 463 460
f 457 461 462
f 457 462 458
f 464 465 466
f 464 466 467
f 468 471 470
f 468 470 469
f 464 468 469
f 464 469 465
f 467 466 470
f 467 470 471
f 464 467 471
f 464 471 468
f 465 469 470
f 465 470 466
f 472 473 474
f 472 474 475
f 476 479 478
f 476 478 477
f 472 476 477
f 472 477 473
f 475 474 478
f 475 478 479
f 472 475 479
f 472 479 476
f 473 477 478
f 473 478 474
f 480 481 482
f 480 482 483
f 484 487 486
f 484 486 485
f 480 484 485
f 480 485 481
f 483 482 486
f 483 486 487
f 480 483 487
f 480 487 484
f 481 485 486
f 481 486 482
f 488 489 490
f 488 490 491
f 492 495 494
f 492 494 493
f 488 492 493
f 488 493 489
f 491 490 494
f 491 494 495
f 488 491 495
f 488 495 492
f 489 493 494
f 489 494 490
f 496 497 498
f 496 498 499
f 500 503 502
f 500 502 501
f 496 500 501
f 496 501 497
f 499 498 502
f 499 502 503
f 496 499 503
f 496 503 500
f 497 501 502
f 497 502 498
f 504 505 506
f 504 506 507
f 508 511 510
f 508 510 509
f 504 508 509
f 504 509 505
f 507 506 510
f 507 510 511
f 504 507 511
f 504 511 508
f 505 509 510
f 505 510 506
f 512 513 514
f 512 514 515
f 516 519 518
f 516 518 517
f 512 516 517
f 512 517 513
f 515 514 518
f 515 518 519
f 512 515 519
f 512 519 516
f 513 517 518
f 513 518 514
f 520 521 522
f 520 522 523
f 524 527 526
f 524 526 525
f 520 524 525
f 520 525 521
f 523 522 526
f 523 526 527
f 520 523 527
f 520 527 524
f 521 525 526
f 521 526 522
f 528 529 530
f 528 530 531
f 532 535 534
f 532 534 533
f 528 532 533
f 528 533 529
f 531 530 534
f 531 534 535
f 528 531 535
f 528 535 532
f 529 533 534
f 529 534 530
f 536 537 538
f 536 538 539
f 540 543 542
f 540 542 541
f 536 540 541
f 536 541 537
f 539 538 542
f 539 542 543
f 536 539 543
f 536 543 540
f 537 541 542
f 537 542 538
f 544 545 546
f 544 546 547
f 548 551 550
f 548 550 549
f 544 548 549
f 544 549 545
f 547 546 550
f 547 550 551
f 544 547 551
f 544 551 548
f 545 549 550
f 545 550 546
f 552 553 554
f 552 554 555
f 556 559 558
f 556 558 557
f 552 556 557
f 552 557 553
f 555 554 558
f 555 558 559
f 552 555 559
f 552 559 556
f 553 557 558
f 553 558 554
f 560 561 562
f 560 562 563
f 564 567 566
f 564 566 565
f 560 564 565
f 560 565 561
f 563 562 566
f 563 566 567
f 560 563 567
f 560 567 564
f 561 565 566
f 561 566 562
f 568 569 570
f 568 570 571
f 572 575 574
f 572 574 573
f 568 572 573
f 568 573 569
f 571 570 574
f 571 574 575
f 568 571 575
f 568 575 572
f 569 573 574
f 569 574 570
f 576 577 578
f 576 578 579
f 580 583 582
f 580 582 581
f 576 580 581
f 576 581 577
f 579 578 582
f 579 582 583
f 576 579 583
f 576 583 580
f 577 581 582
f 577 582 578
f 584 585 586
f 584 586 587
f 588 591 590
f 588 590 589
f 584 588 589
f 584 589 585
f 587 586 590
f 587 590 591
f 584 587 591
f 584 591 588
f 585 589 590
f 585 590 586
f 592 593 594
f 592 594 595
f 596 599 598
f 596 598 597
f 592 596 597
f 592 597 593
f 595 594 598
f 595 598 599
f 592 595 599
f 592 599 596
f 593 597 598
f 593 598 594
f 600 601 602
f 600 602 603
f 604 607 606
f 604 606 605
f 600 604 605
f 600 605 601
f 603 602 606
f 603 606 607
f 600 603 607
f 600 607 604
f 601 605 606
f 601 606 602
f 608 609 610
f 608 610 611
f 612 615 614
f 612 614 613
f 608 612 613
f 608 613 609
f 611 610 614
f 611 614 615
f 608 611 615
f 608 615 612
f 609 613 614
f 609 614 610
f 616 617 618
f 616 618 619
f 620 623 622
f 620 622 621
f 616 620 621
f 616 621 617
f 619 618 622
f 619 622 623
f 616 619 623
f 616 623 620
f 617 621 622
f 617 622 618
f 624 625 626
f 624 626 627
f 628 631 630
f 628 630 629
f 624 628 629
f 624 629 625
f 627 626 630
f 627 630 631
f 624 627 631
f 624 631 628
f 625 629 630
f 625 630 626
f 632 633 634
f 632 634 635
f 636 639 638
f 636 638 637
f 632 636 637
f 632 637 633
f 635 634 638
f 635 638 639
f 632 635 639
f 632 639 636
f 633 637 638
f 633 638 634

