# https://github.com/mikedh/trimesh
v -0.49609375 -0.25390625 -0.15234375 0.40000000 0.40000000 0.40000000
v -0.49609375 -0.25390625 0.15234375 0.40000000 0.40000000 0.40000000
v -0.49609375 -0.00390625 -0.15234375 0.40000000 0.40000000 0.40000000
v -0.49609375 -0.00390625 0.15234375 0.40000000 0.40000000 0.40000000
v -0.49609375 0.16796875 -0.15234375 0.40000000 0.40000000 0.40000000
v -0.49609375 0.16796875 0.15234375 0.40000000 0.40000000 0.40000000
v -0.48828125 -0.00390625 -0.15234375 0.40000000 0.40000000 0.40000000
v -0.48828125 -0.00390625 0.15234375 0.40000000 0.40000000 0.40000000
v -0.47265625 -0.25390625 -0.15234375 0.40000000 0.40000000 0.40000000
v -0.47265625 -0.25390625 0.10546875 0.40000000 0.40000000 0.40000000
v -0.47265625 -0.23046875 -0.15234375 0.40000000 0.40000000 0.40000000
v -0.47265625 -0.23046875 0.10546875 0.40000000 0.40000000 0.40000000
v -0.47265625 -0.23046875 0.15234375 0.40000000 0.40000000 0.40000000
v -0.47265625 -0.01171875 -0.15234375 0.40000000 0.40000000 0.40000000
v -0.47265625 -0.01171875 0.15234375 0.40000000 0.40000000 0.40000000
v -0.47265625 0.01171875 -0.15234375 0.40000000 0.40000000 0.40000000
v -0.47265625 0.01171875 0.15234375 0.40000000 0.40000000 0.40000000
v -0.47265625 0.14453125 -0.15234375 0.40000000 0.40000000 0.40000000
v -0.47265625 0.14453125 0.15234375 0.40000000 0.40000000 0.40000000
v -0.37109375 -0.25390625 -0.15234375 0.40000000 0.40000000 0.40000000
v -0.37109375 -0.25390625 0.10546875 0.40000000 0.40000000 0.40000000
v -0.37109375 -0.23046875 -0.15234375 0.40000000 0.40000000 0.40000000
v -0.37109375 -0.23046875 0.10546875 0.40000000 0.40000000 0.40000000
v -0.37109375 -0.23046875 0.15234375 0.40000000 0.40000000 0.40000000
v -0.37109375 -0.16015625 -0.15234375 0.40000000 0.40000000 0.40000000
v -0.37109375 -0.16015625 0.15234375 0.40000000 0.40000000 0.40000000
v -0.37109375 -0.13671875 -0.15234375 0.40000000 0.40000000 0.40000000
v -0.37109375 -0.13671875 0.09765625 0.40000000 0.40000000 0.40000000
v -0.37109375 -0.01171875 -0.15234375 0.40000000 0.40000000 0.40000000
v -0.37109375 -0.01171875 0.09765625 0.40000000 0.40000000 0.40000000
v -0.37109375 -0.01171875 0.15234375 0.40000000 0.40000000 0.40000000
v -0.36328125 -0.16015625 -0.15234375 0.40000000 0.40000000 0.40000000
v -0.36328125 -0.16015625 0.15234375 0.40000000 0.40000000 0.40000000
v -0.36328125 -0.00390625 -0.15234375 0.40000000 0.40000000 0.40000000
v -0.36328125 -0.00390625 0.15234375 0.40000000 0.40000000 0.40000000
v -0.36328125 0.01171875 -0.15234375 0.40000000 0.40000000 0.40000000
v -0.36328125 0.01171875 0.15234375 0.40000000 0.40000000 0.40000000
v -0.34765625 -0.25390625 -0.15234375 0.40000000 0.40000000 0.40000000
v -0.34765625 -0.25390625 0.15234375 0.40000000 0.40000000 0.40000000
v -0.34765625 -0.16796875 -0.15234375 0.40000000 0.40000000 0.40000000
v -0.34765625 -0.16796875 0.15234375 0.40000000 0.40000000 0.40000000
v -0.34765625 -0.14453125 -0.15234375 0.40000000 0.40000000 0.40000000
v -0.34765625 -0.14453125 -0.14453125 0.40000000 0.40000000 0.40000000
v -0.34765625 -0.14453125 0.15234375 0.40000000 0.40000000 0.40000000
v -0.34765625 -0.13671875 -0.15234375 0.40000000 0.40000000 0.40000000
v -0.34765625 -0.13671875 0.09765625 0.40000000 0.40000000 0.40000000
v -0.34765625 -0.01171875 -0.15234375 0.40000000 0.40000000 0.40000000
v -0.34765625 -0.01171875 0.09765625 0.40000000 0.40000000 0.40000000
v -0.34765625 -0.01171875 0.15234375 0.40000000 0.40000000 0.40000000
v -0.30078125 -0.36328125 -0.15234375 0.40000000 0.40000000 0.40000000
v -0.30078125 -0.36328125 0.15234375 0.40000000 0.40000000 0.40000000
v -0.30078125 -0.16796875 -0.15234375 0.40000000 0.40000000 0.40000000
v -0.30078125 -0.16796875 0.15234375 0.40000000 0.40000000 0.40000000
v -0.27734375 -0.33984375 -0.15234375 0.40000000 0.40000000 0.40000000
v -0.27734375 -0.33984375 -0.14453125 0.40000000 0.40000000 0.40000000
v -0.27734375 -0.33984375 0.15234375 0.40000000 0.40000000 0.40000000
v -0.27734375 -0.14453125 -0.15234375 0.40000000 0.40000000 0.40000000
v -0.27734375 -0.14453125 -0.14453125 0.40000000 0.40000000 0.40000000
v -0.27734375 -0.14453125 0.15234375 0.40000000 0.40000000 0.40000000
v -0.26953125 -0.33984375 -0.15234375 0.40000000 0.40000000 0.40000000
v -0.26953125 -0.33984375 -0.14453125 0.40000000 0.40000000 0.40000000
v -0.26953125 -0.14453125 -0.15234375 0.40000000 0.40000000 0.40000000
v -0.26953125 -0.14453125 -0.14453125 0.40000000 0.40000000 0.40000000
v -0.23828125 0.01171875 -0.15234375 0.40000000 0.40000000 0.40000000
v -0.23828125 0.01171875 0.15234375 0.40000000 0.40000000 0.40000000
v -0.23828125 0.14453125 -0.15234375 0.40000000 0.40000000 0.40000000
v -0.23828125 0.14453125 0.15234375 0.40000000 0.40000000 0.40000000
v -0.22265625 -0.01171875 -0.15234375 0.40000000 0.40000000 0.40000000
v -0.22265625 -0.01171875 -0.14453125 0.40000000 0.40000000 0.40000000
v -0.22265625 -0.01171875 0.15234375 0.40000000 0.40000000 0.40000000
v -0.22265625 -0.00390625 -0.15234375 0.40000000 0.40000000 0.40000000
v -0.22265625 -0.00390625 0.15234375 0.40000000 0.40000000 0.40000000
v -0.22265625 0.15234375 -0.15234375 0.40000000 0.40000000 0.40000000
v -0.22265625 0.15234375 0.15234375 0.40000000 0.40000000 0.40000000
v -0.22265625 0.16796875 -0.15234375 0.40000000 0.40000000 0.40000000
v -0.22265625 0.16796875 0.15234375 0.40000000 0.40000000 0.40000000
v -0.20703125 0.01171875 -0.15234375 0.40000000 0.40000000 0.40000000
v -0.20703125 0.01171875 0.15234375 0.40000000 0.40000000 0.40000000
v -0.20703125 0.14453125 -0.15234375 0.40000000 0.40000000 0.40000000
v -0.20703125 0.14453125 0.15234375 0.40000000 0.40000000 0.40000000
v -0.18359375 -0.01171875 -0.15234375 0.40000000 0.40000000 0.40000000
v -0.18359375 -0.01171875 -0.14453125 0.40000000 0.40000000 0.40000000
v -0.18359375 -0.01171875 0.08984375 0.40000000 0.40000000 0.40000000
v -0.18359375 0.01171875 -0.15234375 0.40000000 0.40000000 0.40000000
v -0.18359375 0.01171875 0.08984375 0.40000000 0.40000000 0.40000000
v -0.03515625 0.14453125 -0.04296875 0.40000000 0.40000000 0.40000000
v -0.03515625 0.14453125 0.13671875 0.40000000 0.40000000 0.40000000
v -0.03515625 0.16796875 -0.04296875 0.40000000 0.40000000 0.40000000
v -0.03515625 0.16796875 0.13671875 0.40000000 0.40000000 0.40000000
v 0.01953125 -0.01171875 -0.15234375 0.40000000 0.40000000 0.40000000
v 0.01953125 -0.01171875 -0.14453125 0.40000000 0.40000000 0.40000000
v 0.01953125 -0.01171875 0.08984375 0.40000000 0.40000000 0.40000000
v 0.01953125 0.01171875 -0.15234375 0.40000000 0.40000000 0.40000000
v 0.01953125 0.01171875 0.08984375 0.40000000 0.40000000 0.40000000
v 0.01953125 0.14453125 -0.04296875 0.40000000 0.40000000 0.40000000
v 0.01953125 0.14453125 0.13671875 0.40000000 0.40000000 0.40000000
v 0.01953125 0.16796875 -0.04296875 0.40000000 0.40000000 0.40000000
v 0.01953125 0.16796875 0.13671875 0.40000000 0.40000000 0.40000000
v 0.02734375 0.01171875 -0.15234375 0.40000000 0.40000000 0.40000000
v 0.02734375 0.01171875 0.15234375 0.40000000 0.40000000 0.40000000
v 0.02734375 0.06640625 -0.15234375 0.40000000 0.40000000 0.40000000
v 0.02734375 0.06640625 0.15234375 0.40000000 0.40000000 0.40000000
v 0.02734375 0.14453125 -0.15234375 0.40000000 0.40000000 0.40000000
v 0.02734375 0.14453125 0.15234375 0.40000000 0.40000000 0.40000000
v 0.02734375 0.16796875 -0.15234375 0.40000000 0.40000000 0.40000000
v 0.02734375 0.16796875 0.15234375 0.40000000 0.40000000 0.40000000
v 0.02734375 0.36328125 -0.15234375 0.40000000 0.40000000 0.40000000
v 0.02734375 0.36328125 0.15234375 0.40000000 0.40000000 0.40000000
v 0.04296875 0.06640625 -0.15234375 0.40000000 0.40000000 0.40000000
v 0.04296875 0.06640625 0.15234375 0.40000000 0.40000000 0.40000000
v 0.04296875 0.15234375 -0.15234375 0.40000000 0.40000000 0.40000000
v 0.04296875 0.15234375 0.15234375 0.40000000 0.40000000 0.40000000
v 0.05078125 -0.01171875 -0.15234375 0.40000000 0.40000000 0.40000000
v 0.05078125 -0.01171875 -0.14453125 0.40000000 0.40000000 0.40000000
v 0.05078125 -0.01171875 0.15234375 0.40000000 0.40000000 0.40000000
v 0.05078125 0.05859375 -0.15234375 0.40000000 0.40000000 0.40000000
v 0.05078125 0.05859375 -0.14453125 0.40000000 0.40000000 0.40000000
v 0.05078125 0.05859375 0.15234375 0.40000000 0.40000000 0.40000000
v 0.05078125 0.08203125 -0.15234375 0.40000000 0.40000000 0.40000000
v 0.05078125 0.08203125 -0.14453125 0.40000000 0.40000000 0.40000000
v 0.05078125 0.08203125 0.15234375 0.40000000 0.40000000 0.40000000
v 0.05078125 0.15234375 -0.15234375 0.40000000 0.40000000 0.40000000
v 0.05078125 0.15234375 -0.14453125 0.40000000 0.40000000 0.40000000
v 0.05078125 0.15234375 0.15234375 0.40000000 0.40000000 0.40000000
v 0.05078125 0.33984375 -0.15234375 0.40000000 0.40000000 0.40000000
v 0.05078125 0.33984375 -0.14453125 0.40000000 0.40000000 0.40000000
v 0.05078125 0.33984375 0.15234375 0.40000000 0.40000000 0.40000000
v 0.05859375 0.05859375 -0.15234375 0.40000000 0.40000000 0.40000000
v 0.05859375 0.05859375 0.08984375 0.40000000 0.40000000 0.40000000
v 0.05859375 0.08203125 -0.15234375 0.40000000 0.40000000 0.40000000
v 0.05859375 0.08203125 -0.14453125 0.40000000 0.40000000 0.40000000
v 0.05859375 0.08203125 0.08984375 0.40000000 0.40000000 0.40000000
v 0.14453125 0.05859375 -0.15234375 0.40000000 0.40000000 0.40000000
v 0.14453125 0.05859375 0.08984375 0.40000000 0.40000000 0.40000000
v 0.14453125 0.08203125 -0.15234375 0.40000000 0.40000000 0.40000000
v 0.14453125 0.08203125 0.08984375 0.40000000 0.40000000 0.40000000
v 0.15234375 0.05859375 -0.15234375 0.40000000 0.40000000 0.40000000
v 0.15234375 0.05859375 -0.14453125 0.40000000 0.40000000 0.40000000
v 0.15234375 0.08203125 -0.15234375 0.40000000 0.40000000 0.40000000
v 0.15234375 0.08203125 -0.14453125 0.40000000 0.40000000 0.40000000
v 0.41015625 0.08203125 -0.15234375 0.40000000 0.40000000 0.40000000
v 0.41015625 0.08203125 -0.14453125 0.40000000 0.40000000 0.40000000
v 0.41015625 0.08203125 0.15234375 0.40000000 0.40000000 0.40000000
v 0.41015625 0.12890625 -0.05078125 0.40000000 0.40000000 0.40000000
v 0.41015625 0.12890625 0.12109375 0.40000000 0.40000000 0.40000000
v 0.41015625 0.30078125 -0.05078125 0.40000000 0.40000000 0.40000000
v 0.41015625 0.30078125 0.12109375 0.40000000 0.40000000 0.40000000
v 0.41015625 0.33984375 -0.15234375 0.40000000 0.40000000 0.40000000
v 0.41015625 0.33984375 -0.14453125 0.40000000 0.40000000 0.40000000
v 0.41015625 0.33984375 0.15234375 0.40000000 0.40000000 0.40000000
v 0.42578125 0.05859375 -0.15234375 0.40000000 0.40000000 0.40000000
v 0.42578125 0.05859375 -0.14453125 0.40000000 0.40000000 0.40000000
v 0.42578125 0.05859375 0.15234375 0.40000000 0.40000000 0.40000000
v 0.42578125 0.06640625 -0.15234375 0.40000000 0.40000000 0.40000000
v 0.42578125 0.06640625 0.15234375 0.40000000 0.40000000 0.40000000
v 0.44140625 0.08203125 -0.15234375 0.40000000 0.40000000 0.40000000
v 0.44140625 0.08203125 0.15234375 0.40000000 0.40000000 0.40000000
v 0.44140625 0.12890625 -0.05078125 0.40000000 0.40000000 0.40000000
v 0.44140625 0.12890625 0.12109375 0.40000000 0.40000000 0.40000000
v 0.44140625 0.30078125 -0.05078125 0.40000000 0.40000000 0.40000000
v 0.44140625 0.30078125 0.12109375 0.40000000 0.40000000 0.40000000
v 0.44140625 0.36328125 -0.15234375 0.40000000 0.40000000 0.40000000
v 0.44140625 0.36328125 0.15234375 0.40000000 0.40000000 0.40000000
v 0.47265625 -0.33984375 -0.15234375 0.40000000 0.40000000 0.40000000
v 0.47265625 -0.33984375 -0.14453125 0.40000000 0.40000000 0.40000000
v 0.47265625 -0.33984375 0.15234375 0.40000000 0.40000000 0.40000000
v 0.47265625 -0.33203125 -0.12890625 0.40000000 0.40000000 0.40000000
v 0.47265625 -0.33203125 0.12890625 0.40000000 0.40000000 0.40000000
v 0.47265625 0.01953125 -0.12890625 0.40000000 0.40000000 0.40000000
v 0.47265625 0.01953125 0.12890625 0.40000000 0.40000000 0.40000000
v 0.47265625 0.05859375 -0.15234375 0.40000000 0.40000000 0.40000000
v 0.47265625 0.05859375 -0.14453125 0.40000000 0.40000000 0.40000000
v 0.47265625 0.05859375 0.15234375 0.40000000 0.40000000 0.40000000
v 0.49609375 -0.36328125 -0.15234375 0.40000000 0.40000000 0.40000000
v 0.49609375 -0.36328125 0.15234375 0.40000000 0.40000000 0.40000000
v 0.49609375 -0.33203125 -0.12890625 0.40000000 0.40000000 0.40000000
v 0.49609375 -0.33203125 0.12890625 0.40000000 0.40000000 0.40000000
v 0.49609375 0.01953125 -0.12890625 0.40000000 0.40000000 0.40000000
v 0.49609375 0.01953125 0.12890625 0.40000000 0.40000000 0.40000000
v 0.49609375 0.08203125 -0.15234375 0.40000000 0.40000000 0.40000000
v 0.49609375 0.08203125 0.15234375 0.40000000 0.40000000 0.40000000
v 0.19140625 0.01953125 -0.15234375 0.70588235 0.50980392 0.27450980
v 0.41796875 0.01953125 -0.15234375 0.70588235 0.50980392 0.27450980
v 0.41796875 0.05859375 -0.15234375 0.70588235 0.50980392 0.27450980
v 0.19140625 0.05859375 -0.15234375 0.70588235 0.50980392 0.27450980
v 0.19140625 0.01953125 -0.11328125 0.70588235 0.50980392 0.27450980
v 0.41796875 0.01953125 -0.11328125 0.70588235 0.50980392 0.27450980
v 0.41796875 0.05859375 -0.11328125 0.70588235 0.50980392 0.27450980
v 0.19140625 0.05859375 -0.11328125 0.70588235 0.50980392 0.27450980
v 0.34765625 0.28515625 -0.15234375 0.70588235 0.50980392 0.27450980
v 0.38671875 0.28515625 -0.15234375 0.70588235 0.50980392 0.27450980
v 0.38671875 0.31640625 -0.15234375 0.70588235 0.50980392 0.27450980
v 0.34765625 0.31640625 -0.15234375 0.70588235 0.50980392 0.27450980
v 0.34765625 0.28515625 -0.11328125 0.70588235 0.50980392 0.27450980
v 0.38671875 0.28515625 -0.11328125 0.70588235 0.50980392 0.27450980
v 0.38671875 0.31640625 -0.11328125 0.70588235 0.50980392 0.27450980
v 0.34765625 0.31640625 -0.11328125 0.70588235 0.50980392 0.27450980
v 0.23046875 0.19140625 0.07421875 0.19607843 0.78431373 1.00000000
v 0.30859375 0.19140625 0.07421875 0.19607843 0.78431373 1.00000000
v 0.30859375 0.23828125 0.07421875 0.19607843 0.78431373 1.00000000
v 0.23046875 0.23828125 0.07421875 0.19607843 0.78431373 1.00000000
v 0.23046875 0.19140625 0.12109375 0.19607843 0.78431373 1.00000000
v 0.30859375 0.19140625 0.12109375 0.19607843 0.78431373 1.00000000
v 0.30859375 0.23828125 0.12109375 0.19607843 0.78431373 1.00000000
v 0.23046875 0.23828125 0.12109375 0.19607843 0.78431373 1.00000000
f 50 174 175
f 50 175 51
f 175 174 177
f 174 50 54
f 50 51 52
f 51 175 56
f 175 177 181
f 177 174 176
f 174 54 164
f 54 50 52
f 52 51 53
f 51 56 53
f 56 175 166
f 175 181 173
f 181 177 179
f 177 176 167
f 176 174 180
f 174 164 171
f 164 54 56
f 54 52 57
f 52 53 40
f 53 56 59
f 56 166 164
f 166 175 173
f 173 181 157
f 181 179 178
f 179 177 170
f 177 167 168
f 167 176 178
f 176 180 178
f 180 174 171
f 171 164 165
f 171 164 169
f 56 54 59
f 54 164 68
f 54 164 55
f 54 57 60
f 54 57 59
f 57 52 42
f 52 40 42
f 40 53 41
f 53 59 44
f 164 166 167
f 166 173 170
f 173 157 153
f 157 181 180
f 181 178 180
f 178 179 170
f 170 177 168
f 168 167 166
f 167 178 169
f 180 171 156
f 171 165 172
f 165 164 61
f 164 171 151
f 171 169 170
f 169 164 167
f 54 68 57
f 68 164 113
f 54 55 58
f 55 164 165
f 60 57 62
f 57 54 58
f 59 57 44
f 57 42 44
f 42 40 32
f 40 41 38
f 41 53 44
f 166 170 168
f 170 173 171
f 173 153 151
f 153 157 155
f 157 180 156
f 178 170 169
f 156 171 151
f 171 172 151
f 61 164 60
f 164 151 113
f 151 171 173
f 57 68 42
f 58 55 61
f 60 62 63
f 57 58 43
f 44 42 46
f 42 57 43
f 42 32 45
f 32 40 38
f 38 41 39
f 41 44 33
f 151 153 133
f 153 155 143
f 155 157 163
f 157 156 159
f 156 151 154
f 151 172 152
f 61 60 63
f 113 151 116
f 42 68 47
f 58 61 63
f 63 62 43
f 44 46 49
f 46 42 45
f 42 43 62
f 45 32 27
f 32 38 25
f 38 39 20
f 39 41 33
f 33 44 35
f 151 133 135
f 133 153 134
f 153 143 118
f 143 155 150
f 155 163 150
f 163 157 159
f 159 156 158
f 156 154 162
f 154 151 141
f 151 152 137
f 113 116 118
f 113 116 117
f 44 49 35
f 49 46 48
f 46 45 27
f 27 32 25
f 25 38 22
f 38 20 22
f 20 39 21
f 39 33 24
f 33 35 31
f 151 135 141
f 135 133 136
f 133 134 136
f 134 153 129
f 153 118 129
f 118 143 121
f 143 150 147
f 150 163 127
f 163 159 161
f 159 158 144
f 158 156 162
f 162 154 148
f 154 141 148
f 137 152 138
f 113 118 115
f 118 116 129
f 116 113 109
f 113 117 114
f 35 49 37
f 48 46 30
f 46 27 28
f 27 45 29
f 27 25 26
f 25 22 24
f 22 20 23
f 20 21 23
f 21 39 10
f 39 24 13
f 24 33 26
f 33 31 26
f 31 35 37
f 141 135 136
f 133 135 130
f 136 134 129
f 118 121 110
f 121 143 136
f 143 147 145
f 147 150 148
f 150 127 125
f 127 163 108
f 163 161 160
f 161 159 147
f 159 144 145
f 144 158 160
f 158 162 160
f 162 148 125
f 148 141 142
f 148 141 146
f 113 115 90
f 115 118 110
f 129 116 128
f 116 109 119
f 109 113 101
f 113 114 90
f 37 49 65
f 48 30 47
f 30 46 28
f 28 27 26
f 29 45 47
f 26 25 24
f 20 22 11
f 23 21 10
f 10 39 2
f 39 13 2
f 13 24 23
f 26 31 30
f 31 37 17
f 141 136 143
f 133 130 128
f 136 129 132
f 110 121 112
f 121 136 132
f 143 145 144
f 145 147 159
f 147 148 146
f 148 150 125
f 125 127 122
f 127 108 112
f 108 163 162
f 163 160 162
f 160 161 147
f 144 160 146
f 162 125 107
f 125 148 149
f 148 142 149
f 142 141 140
f 141 148 119
f 146 141 144
f 113 90 93
f 90 115 92
f 115 110 102
f 129 128 130
f 128 116 119
f 119 109 111
f 109 101 103
f 101 113 99
f 90 114 91
f 37 65 64
f 65 49 70
f 47 30 29
f 30 28 26
f 20 11 9
f 11 22 29
f 23 10 12
f 10 2 1
f 2 13 4
f 13 23 12
f 31 17 15
f 17 37 36
f 141 143 144
f 132 129 130
f 110 112 104
f 112 121 124
f 121 132 130
f 147 146 160
f 148 125 122
f 125 122 111
f 122 127 124
f 127 112 124
f 112 108 106
f 108 162 107
f 107 125 111
f 125 149 126
f 140 141 139
f 119 148 122
f 113 93 99
f 93 90 94
f 90 92 94
f 92 115 83
f 115 102 100
f 102 110 104
f 130 128 119
f 119 111 122
f 111 109 103
f 103 101 102
f 101 99 100
f 37 64 36
f 64 65 66
f 65 70 72
f 70 49 47
f 47 29 34
f 9 11 10
f 11 29 14
f 12 10 11
f 10 1 9
f 1 2 3
f 2 4 3
f 4 13 8
f 31 15 14
f 15 17 8
f 17 36 16
f 104 112 106
f 124 121 119
f 121 130 119
f 122 125 126
f 122 124 119
f 106 108 107
f 107 111 105
f 99 93 94
f 90 93 84
f 94 92 83
f 83 115 70
f 115 100 78
f 100 102 101
f 102 104 103
f 111 103 105
f 100 99 94
f 36 64 66
f 36 64 47
f 64 66 71
f 66 65 67
f 65 72 67
f 72 70 115
f 70 47 68
f 47 34 36
f 34 29 36
f 11 9 1
f 11 14 15
f 14 29 31
f 1 3 11
f 3 4 5
f 4 8 6
f 8 13 15
f 8 17 19
f 17 16 19
f 16 36 66
f 16 36 29
f 104 106 80
f 122 126 123
f 122 119 123
f 106 107 105
f 90 84 81
f 94 83 85
f 83 70 68
f 115 78 72
f 78 100 94
f 103 104 95
f 105 103 79
f 66 67 18
f 67 72 74
f 14 11 7
f 11 3 7
f 3 5 7
f 5 4 6
f 6 8 19
f 19 16 18
f 16 66 18
f 16 29 14
f 104 80 87
f 80 106 76
f 123 119 120
f 106 105 98
f 81 84 83
f 94 85 78
f 85 83 84
f 83 68 81
f 72 78 74
f 103 95 86
f 95 104 96
f 105 79 75
f 79 103 86
f 66 18 75
f 18 67 19
f 67 74 76
f 14 7 16
f 7 5 18
f 5 6 75
f 6 19 76
f 18 16 7
f 104 87 96
f 87 80 79
f 80 76 74
f 76 106 98
f 98 105 97
f 84 81 77
f 78 85 84
f 81 68 71
f 74 78 80
f 86 95 88
f 95 96 98
f 105 75 97
f 75 79 73
f 79 86 87
f 103 79 77
f 66 75 73
f 75 18 5
f 19 67 76
f 75 6 76
f 96 87 98
f 79 80 77
f 76 98 89
f 98 97 95
f 84 77 78
f 77 81 71
f 68 81 82
f 80 78 77
f 86 88 87
f 88 95 97
f 97 75 88
f 73 79 77
f 103 77 99
f 66 73 71
f 75 76 88
f 98 87 89
f 76 89 88
f 77 71 73
f 68 82 69
f 87 88 89
f 119 120 130
f 130 120 131
f 182 183 184
f 182 184 185
f 186 189 188
f 186 188 187
f 182 186 187
f 182 187 183
f 185 184 188
f 185 188 189
f 182 185 189
f 182 189 186
f 183 187 188
f 183 188 184
f 190 191 192
f 190 192 193
f 194 197 196
f 194 196 195
f 190 194 195
f 190 195 191
f 193 192 196
f 193 196 197
f 190 193 197
f 190 197 194
f 191 195 196
f 191 196 192
f 198 199 200
f 198 200 201
f 202 205 204
f 202 204 203
f 198 202 203
f 198 203 199
f 201 200 204
f 201 204 205
f 198 201 205
f 198 205 202
f 199 203 204
f 199 204 200

