# https://github.com/mikedh/trimesh
v -0.49609375 -0.40234375 -0.11328125 0.40000000 0.40000000 0.40000000
v -0.49609375 -0.40234375 0.11328125 0.40000000 0.40000000 0.40000000
v -0.49609375 0.01953125 -0.11328125 0.40000000 0.40000000 0.40000000
v -0.49609375 0.01953125 0.11328125 0.40000000 0.40000000 0.40000000
v -0.49609375 0.08984375 -0.11328125 0.40000000 0.40000000 0.40000000
v -0.49609375 0.08984375 0.07421875 0.40000000 0.40000000 0.40000000
v -0.49609375 0.15234375 -0.11328125 0.40000000 0.40000000 0.40000000
v -0.49609375 0.15234375 0.07421875 0.40000000 0.40000000 0.40000000
v -0.49609375 0.19140625 -0.11328125 0.40000000 0.40000000 0.40000000
v -0.49609375 0.19140625 0.11328125 0.40000000 0.40000000 0.40000000
v -0.48828125 0.01953125 -0.11328125 0.40000000 0.40000000 0.40000000
v -0.48828125 0.01953125 0.11328125 0.40000000 0.40000000 0.40000000
v -0.48046875 -0.38671875 -0.11328125 0.40000000 0.40000000 0.40000000
v -0.48046875 -0.38671875 0.11328125 0.40000000 0.40000000 0.40000000
v -0.48046875 -0.00390625 -0.11328125 0.40000000 0.40000000 0.40000000
v -0.48046875 -0.00390625 0.11328125 0.40000000 0.40000000 0.40000000
v -0.48046875 0.01953125 -0.11328125 0.40000000 0.40000000 0.40000000
v -0.48046875 0.01953125 -0.10546875 0.40000000 0.40000000 0.40000000
v -0.48046875 0.01953125 0.11328125 0.40000000 0.40000000 0.40000000
v -0.48046875 0.06640625 -0.11328125 0.40000000 0.40000000 0.40000000
v -0.48046875 0.06640625 -0.10546875 0.40000000 0.40000000 0.40000000
v -0.48046875 0.06640625 0.11328125 0.40000000 0.40000000 0.40000000
v -0.48046875 0.08984375 -0.11328125 0.40000000 0.40000000 0.40000000
v -0.48046875 0.08984375 0.07421875 0.40000000 0.40000000 0.40000000
v -0.48046875 0.15234375 -0.11328125 0.40000000 0.40000000 0.40000000
v -0.48046875 0.15234375 0.07421875 0.40000000 0.40000000 0.40000000
v -0.48046875 0.16015625 -0.11328125 0.40000000 0.40000000 0.40000000
v -0.48046875 0.16015625 -0.10546875 0.40000000 0.40000000 0.40000000
v -0.48046875 0.16796875 -0.11328125 0.40000000 0.40000000 0.40000000
v -0.48046875 0.16796875 -0.10546875 0.40000000 0.40000000 0.40000000
v -0.48046875 0.16796875 0.11328125 0.40000000 0.40000000 0.40000000
v -0.45703125 0.01953125 -0.11328125 0.40000000 0.40000000 0.40000000
v -0.45703125 0.01953125 0.11328125 0.40000000 0.40000000 0.40000000
v -0.45703125 0.06640625 -0.11328125 0.40000000 0.40000000 0.40000000
v -0.45703125 0.06640625 0.11328125 0.40000000 0.40000000 0.40000000
v -0.44140625 -0.00390625 -0.11328125 0.40000000 0.40000000 0.40000000
v -0.44140625 -0.00390625 0.11328125 0.40000000 0.40000000 0.40000000
v -0.44140625 0.04296875 -0.11328125 0.40000000 0.40000000 0.40000000
v -0.44140625 0.04296875 0.11328125 0.40000000 0.40000000 0.40000000
v -0.41796875 0.04296875 -0.11328125 0.40000000 0.40000000 0.40000000
v -0.41796875 0.04296875 0.07421875 0.40000000 0.40000000 0.40000000
v -0.41796875 0.06640625 -0.11328125 0.40000000 0.40000000 0.40000000
v -0.41796875 0.06640625 0.07421875 0.40000000 0.40000000 0.40000000
v -0.33984375 0.04296875 -0.11328125 0.40000000 0.40000000 0.40000000
v -0.33984375 0.04296875 0.07421875 0.40000000 0.40000000 0.40000000
v -0.33984375 0.06640625 -0.11328125 0.40000000 0.40000000 0.40000000
v -0.33984375 0.06640625 0.07421875 0.40000000 0.40000000 0.40000000
v -0.33203125 -0.38671875 -0.11328125 0.40000000 0.40000000 0.40000000
v -0.33203125 -0.38671875 0.11328125 0.40000000 0.40000000 0.40000000
v -0.33203125 -0.35546875 -0.11328125 0.40000000 0.40000000 0.40000000
v -0.33203125 -0.35546875 0.07421875 0.40000000 0.40000000 0.40000000
v -0.33203125 -0.27734375 -0.11328125 0.40000000 0.40000000 0.40000000
v -0.33203125 -0.27734375 0.07421875 0.40000000 0.40000000 0.40000000
v -0.33203125 -0.21484375 -0.11328125 0.40000000 0.40000000 0.40000000
v -0.33203125 -0.21484375 0.11328125 0.40000000 0.40000000 0.40000000
v -0.33203125 0.04296875 -0.11328125 0.40000000 0.40000000 0.40000000
v -0.33203125 0.04296875 0.11328125 0.40000000 0.40000000 0.40000000
v -0.33203125 0.06640625 -0.11328125 0.40000000 0.40000000 0.40000000
v -0.33203125 0.06640625 -0.10546875 0.40000000 0.40000000 0.40000000
v -0.31640625 -0.40234375 -0.11328125 0.40000000 0.40000000 0.40000000
v -0.31640625 -0.40234375 0.11328125 0.40000000 0.40000000 0.40000000
v -0.31640625 -0.21484375 -0.11328125 0.40000000 0.40000000 0.40000000
v -0.31640625 -0.21484375 0.11328125 0.40000000 0.40000000 0.40000000
v -0.31640625 0.05078125 -0.11328125 0.40000000 0.40000000 0.40000000
v -0.31640625 0.05078125 0.11328125 0.40000000 0.40000000 0.40000000
v -0.31640625 0.06640625 -0.11328125 0.40000000 0.40000000 0.40000000
v -0.31640625 0.06640625 -0.10546875 0.40000000 0.40000000 0.40000000
v -0.31640625 0.06640625 0.07421875 0.40000000 0.40000000 0.40000000
v -0.31640625 0.06640625 0.09765625 0.40000000 0.40000000 0.40000000
v -0.31640625 0.06640625 0.11328125 0.40000000 0.40000000 0.40000000
v -0.30859375 -0.38671875 -0.11328125 0.40000000 0.40000000 0.40000000
v -0.30859375 -0.38671875 0.11328125 0.40000000 0.40000000 0.40000000
v -0.30859375 -0.35546875 -0.11328125 0.40000000 0.40000000 0.40000000
v -0.30859375 -0.35546875 0.07421875 0.40000000 0.40000000 0.40000000
v -0.30859375 -0.27734375 -0.11328125 0.40000000 0.40000000 0.40000000
v -0.30859375 -0.27734375 0.07421875 0.40000000 0.40000000 0.40000000
v -0.30859375 -0.22265625 -0.11328125 0.40000000 0.40000000 0.40000000
v -0.30859375 -0.22265625 0.11328125 0.40000000 0.40000000 0.40000000
v -0.30859375 -0.19921875 -0.11328125 0.40000000 0.40000000 0.40000000
v -0.30859375 -0.19921875 0.11328125 0.40000000 0.40000000 0.40000000
v -0.30859375 0.04296875 -0.11328125 0.40000000 0.40000000 0.40000000
v -0.30859375 0.04296875 0.11328125 0.40000000 0.40000000 0.40000000
v -0.30859375 0.06640625 0.11328125 0.40000000 0.40000000 0.40000000
v -0.30078125 0.04296875 -0.11328125 0.40000000 0.40000000 0.40000000
v -0.30078125 0.04296875 0.07421875 0.40000000 0.40000000 0.40000000
v -0.30078125 0.06640625 -0.11328125 0.40000000 0.40000000 0.40000000
v -0.30078125 0.06640625 -0.10546875 0.40000000 0.40000000 0.40000000
v -0.30078125 0.06640625 0.07421875 0.40000000 0.40000000 0.40000000
v -0.28515625 -0.22265625 -0.08984375 0.40000000 0.40000000 0.40000000
v -0.28515625 -0.22265625 0.08203125 0.40000000 0.40000000 0.40000000
v -0.28515625 -0.19921875 -0.08984375 0.40000000 0.40000000 0.40000000
v -0.28515625 -0.19921875 0.08203125 0.40000000 0.40000000 0.40000000
v -0.24609375 0.04296875 -0.11328125 0.40000000 0.40000000 0.40000000
v -0.24609375 0.04296875 0.07421875 0.40000000 0.40000000 0.40000000
v -0.24609375 0.06640625 -0.11328125 0.40000000 0.40000000 0.40000000
v -0.24609375 0.06640625 -0.10546875 0.40000000 0.40000000 0.40000000
v -0.24609375 0.06640625 0.07421875 0.40000000 0.40000000 0.40000000
v -0.24609375 0.06640625 0.09765625 0.40000000 0.40000000 0.40000000
v -0.24609375 0.06640625 0.11328125 0.40000000 0.40000000 0.40000000
v -0.24609375 0.16796875 -0.10546875 0.40000000 0.40000000 0.40000000
v -0.24609375 0.19140625 -0.11328125 0.40000000 0.40000000 0.40000000
v -0.24609375 0.19140625 -0.10546875 0.40000000 0.40000000 0.40000000
v -0.24609375 0.19140625 0.11328125 0.40000000 0.40000000 0.40000000
v -0.24609375 0.40234375 -0.11328125 0.40000000 0.40000000 0.40000000
v -0.24609375 0.40234375 0.11328125 0.40000000 0.40000000 0.40000000
v -0.23828125 0.16796875 -0.11328125 0.40000000 0.40000000 0.40000000
v -0.23828125 0.16796875 -0.10546875 0.40000000 0.40000000 0.40000000
v -0.23828125 0.19140625 -0.11328125 0.40000000 0.40000000 0.40000000
v -0.23828125 0.19140625 -0.10546875 0.40000000 0.40000000 0.40000000
v -0.23828125 0.38671875 -0.10546875 0.40000000 0.40000000 0.40000000
v -0.23046875 0.16796875 -0.11328125 0.40000000 0.40000000 0.40000000
v -0.23046875 0.16796875 -0.10546875 0.40000000 0.40000000 0.40000000
v -0.23046875 0.16796875 0.11328125 0.40000000 0.40000000 0.40000000
v -0.23046875 0.38671875 -0.11328125 0.40000000 0.40000000 0.40000000
v -0.23046875 0.38671875 -0.10546875 0.40000000 0.40000000 0.40000000
v -0.23046875 0.38671875 0.11328125 0.40000000 0.40000000 0.40000000
v -0.22265625 -0.22265625 -0.08984375 0.40000000 0.40000000 0.40000000
v -0.22265625 -0.22265625 0.08203125 0.40000000 0.40000000 0.40000000
v -0.22265625 -0.19921875 -0.08984375 0.40000000 0.40000000 0.40000000
v -0.22265625 -0.19921875 0.08203125 0.40000000 0.40000000 0.40000000
v -0.18359375 -0.38671875 -0.11328125 0.40000000 0.40000000 0.40000000
v -0.18359375 -0.38671875 0.11328125 0.40000000 0.40000000 0.40000000
v -0.18359375 -0.36328125 -0.08984375 0.40000000 0.40000000 0.40000000
v -0.18359375 -0.36328125 0.08984375 0.40000000 0.40000000 0.40000000
v -0.18359375 -0.27734375 -0.08984375 0.40000000 0.40000000 0.40000000
v -0.18359375 -0.27734375 0.08984375 0.40000000 0.40000000 0.40000000
v -0.18359375 -0.22265625 -0.11328125 0.40000000 0.40000000 0.40000000
v -0.18359375 -0.22265625 0.11328125 0.40000000 0.40000000 0.40000000
v -0.18359375 -0.19921875 -0.11328125 0.40000000 0.40000000 0.40000000
v -0.18359375 -0.19921875 0.11328125 0.40000000 0.40000000 0.40000000
v -0.18359375 0.04296875 -0.11328125 0.40000000 0.40000000 0.40000000
v -0.18359375 0.04296875 0.11328125 0.40000000 0.40000000 0.40000000
v -0.17578125 -0.21484375 -0.11328125 0.40000000 0.40000000 0.40000000
v -0.17578125 -0.21484375 0.11328125 0.40000000 0.40000000 0.40000000
v -0.17578125 0.05078125 -0.11328125 0.40000000 0.40000000 0.40000000
v -0.17578125 0.05078125 0.11328125 0.40000000 0.40000000 0.40000000
v -0.17578125 0.06640625 -0.11328125 0.40000000 0.40000000 0.40000000
v -0.17578125 0.06640625 -0.10546875 0.40000000 0.40000000 0.40000000
v -0.17578125 0.06640625 0.09765625 0.40000000 0.40000000 0.40000000
v -0.17578125 0.06640625 0.11328125 0.40000000 0.40000000 0.40000000
v -0.16015625 -0.40234375 -0.11328125 0.40000000 0.40000000 0.40000000
v -0.16015625 -0.40234375 0.11328125 0.40000000 0.40000000 0.40000000
v -0.16015625 -0.36328125 -0.08984375 0.40000000 0.40000000 0.40000000
v -0.16015625 -0.36328125 0.08984375 0.40000000 0.40000000 0.40000000
v -0.16015625 -0.27734375 -0.08984375 0.40000000 0.40000000 0.40000000
v -0.16015625 -0.27734375 0.08984375 0.40000000 0.40000000 0.40000000
v -0.16015625 -0.23828125 -0.11328125 0.40000000 0.40000000 0.40000000
v -0.16015625 -0.23828125 -0.10546875 0.40000000 0.40000000 0.40000000
v -0.16015625 -0.23828125 0.11328125 0.40000000 0.40000000 0.40000000
v -0.16015625 -0.23046875 -0.11328125 0.40000000 0.40000000 0.40000000
v -0.16015625 -0.23046875 -0.10546875 0.40000000 0.40000000 0.40000000
v -0.16015625 -0.23046875 0.11328125 0.40000000 0.40000000 0.40000000
v -0.16015625 -0.21484375 -0.11328125 0.40000000 0.40000000 0.40000000
v -0.16015625 -0.21484375 0.11328125 0.40000000 0.40000000 0.40000000
v -0.16015625 0.04296875 -0.11328125 0.40000000 0.40000000 0.40000000
v -0.16015625 0.04296875 -0.10546875 0.40000000 0.40000000 0.40000000
v -0.16015625 0.04296875 0.11328125 0.40000000 0.40000000 0.40000000
v -0.14453125 -0.23046875 0.11328125 0.40000000 0.40000000 0.40000000
v -0.09765625 -0.23828125 -0.04296875 0.40000000 0.40000000 0.40000000
v -0.09765625 -0.23828125 0.08203125 0.40000000 0.40000000 0.40000000
v -0.09765625 -0.23046875 -0.04296875 0.40000000 0.40000000 0.40000000
v -0.09765625 -0.23046875 0.08203125 0.40000000 0.40000000 0.40000000
v -0.09765625 -0.23046875 0.09765625 0.40000000 0.40000000 0.40000000
v -0.09765625 0.06640625 -0.11328125 0.40000000 0.40000000 0.40000000
v -0.09765625 0.06640625 -0.10546875 0.40000000 0.40000000 0.40000000
v -0.09765625 0.06640625 0.09765625 0.40000000 0.40000000 0.40000000
v -0.09765625 0.06640625 0.11328125 0.40000000 0.40000000 0.40000000
v -0.08984375 -0.23046875 0.09765625 0.40000000 0.40000000 0.40000000
v -0.08984375 0.06640625 0.09765625 0.40000000 0.40000000 0.40000000
v -0.08984375 0.06640625 0.10546875 0.40000000 0.40000000 0.40000000
v -0.08203125 -0.23046875 0.09765625 0.40000000 0.40000000 0.40000000
v -0.08203125 0.06640625 0.10546875 0.40000000 0.40000000 0.40000000
v -0.07421875 -0.23046875 0.09765625 0.40000000 0.40000000 0.40000000
v -0.07421875 0.06640625 0.10546875 0.40000000 0.40000000 0.40000000
v -0.07421875 0.06640625 0.11328125 0.40000000 0.40000000 0.40000000
v -0.06640625 -0.23046875 0.09765625 0.40000000 0.40000000 0.40000000
v -0.06640625 -0.23046875 0.10546875 0.40000000 0.40000000 0.40000000
v -0.06640625 0.06640625 0.09765625 0.40000000 0.40000000 0.40000000
v -0.05859375 -0.23046875 0.10546875 0.40000000 0.40000000 0.40000000
v -0.05859375 0.06640625 0.09765625 0.40000000 0.40000000 0.40000000
v -0.05859375 0.06640625 0.11328125 0.40000000 0.40000000 0.40000000
v -0.05078125 -0.23046875 0.10546875 0.40000000 0.40000000 0.40000000
v -0.04296875 -0.23046875 0.10546875 0.40000000 0.40000000 0.40000000
v -0.04296875 0.06640625 0.09765625 0.40000000 0.40000000 0.40000000
v -0.04296875 0.06640625 0.11328125 0.40000000 0.40000000 0.40000000
v -0.03515625 -0.23046875 0.10546875 0.40000000 0.40000000 0.40000000
v 0.01953125 -0.23046875 0.10546875 0.40000000 0.40000000 0.40000000
v 0.02734375 -0.23046875 0.10546875 0.40000000 0.40000000 0.40000000
v 0.02734375 0.04296875 -0.11328125 0.40000000 0.40000000 0.40000000
v 0.02734375 0.04296875 -0.10546875 0.40000000 0.40000000 0.40000000
v 0.02734375 0.04296875 0.07421875 0.40000000 0.40000000 0.40000000
v 0.02734375 0.06640625 -0.11328125 0.40000000 0.40000000 0.40000000
v 0.02734375 0.06640625 -0.10546875 0.40000000 0.40000000 0.40000000
v 0.02734375 0.06640625 0.07421875 0.40000000 0.40000000 0.40000000
v 0.03515625 -0.23828125 -0.04296875 0.40000000 0.40000000 0.40000000
v 0.03515625 -0.23828125 0.08203125 0.40000000 0.40000000 0.40000000
v 0.03515625 -0.23046875 -0.04296875 0.40000000 0.40000000 0.40000000
v 0.03515625 -0.23046875 0.08203125 0.40000000 0.40000000 0.40000000
v 0.03515625 -0.23046875 0.09765625 0.40000000 0.40000000 0.40000000
v 0.03515625 -0.23046875 0.10546875 0.40000000 0.40000000 0.40000000
v 0.03515625 -0.23046875 0.11328125 0.40000000 0.40000000 0.40000000
v 0.04296875 -0.23046875 0.09765625 0.40000000 0.40000000 0.40000000
v 0.05078125 -0.23046875 0.09765625 0.40000000 0.40000000 0.40000000
v 0.05078125 -0.23046875 0.10546875 0.40000000 0.40000000 0.40000000
v 0.05078125 -0.23046875 0.11328125 0.40000000 0.40000000 0.40000000
v 0.05859375 -0.23046875 0.10546875 0.40000000 0.40000000 0.40000000
v 0.09765625 -0.23828125 -0.11328125 0.40000000 0.40000000 0.40000000
v 0.09765625 -0.23828125 -0.10546875 0.40000000 0.40000000 0.40000000
v 0.09765625 -0.23828125 0.11328125 0.40000000 0.40000000 0.40000000
v 0.09765625 -0.23046875 -0.11328125 0.40000000 0.40000000 0.40000000
v 0.09765625 -0.23046875 -0.10546875 0.40000000 0.40000000 0.40000000
v 0.09765625 -0.23046875 0.11328125 0.40000000 0.40000000 0.40000000
v 0.09765625 0.04296875 -0.11328125 0.40000000 0.40000000 0.40000000
v 0.09765625 0.04296875 -0.10546875 0.40000000 0.40000000 0.40000000
v 0.09765625 0.04296875 0.07421875 0.40000000 0.40000000 0.40000000
v 0.09765625 0.06640625 -0.11328125 0.40000000 0.40000000 0.40000000
v 0.09765625 0.06640625 -0.10546875 0.40000000 0.40000000 0.40000000
v 0.09765625 0.06640625 0.07421875 0.40000000 0.40000000 0.40000000
v 0.10546875 -0.23828125 -0.11328125 0.40000000 0.40000000 0.40000000
v 0.10546875 -0.23828125 -0.10546875 0.40000000 0.40000000 0.40000000
v 0.10546875 -0.23828125 0.11328125 0.40000000 0.40000000 0.40000000
v 0.10546875 -0.23046875 -0.11328125 0.40000000 0.40000000 0.40000000
v 0.10546875 -0.23046875 -0.10546875 0.40000000 0.40000000 0.40000000
v 0.10546875 -0.23046875 0.11328125 0.40000000 0.40000000 0.40000000
v 0.10546875 0.04296875 -0.11328125 0.40000000 0.40000000 0.40000000
v 0.10546875 0.04296875 -0.10546875 0.40000000 0.40000000 0.40000000
v 0.10546875 0.04296875 0.11328125 0.40000000 0.40000000 0.40000000
v 0.12109375 -0.23046875 -0.11328125 0.40000000 0.40000000 0.40000000
v 0.12109375 -0.23046875 -0.10546875 0.40000000 0.40000000 0.40000000
v 0.12109375 -0.23046875 0.11328125 0.40000000 0.40000000 0.40000000
v 0.12109375 0.04296875 -0.11328125 0.40000000 0.40000000 0.40000000
v 0.12109375 0.04296875 -0.10546875 0.40000000 0.40000000 0.40000000
v 0.12109375 0.04296875 0.11328125 0.40000000 0.40000000 0.40000000
v 0.12109375 0.05078125 -0.11328125 0.40000000 0.40000000 0.40000000
v 0.12109375 0.05078125 0.11328125 0.40000000 0.40000000 0.40000000
v 0.12109375 0.06640625 -0.11328125 0.40000000 0.40000000 0.40000000
v 0.12109375 0.06640625 -0.10546875 0.40000000 0.40000000 0.40000000
v 0.12109375 0.06640625 0.09765625 0.40000000 0.40000000 0.40000000
v 0.12109375 0.06640625 0.11328125 0.40000000 0.40000000 0.40000000
v 0.12890625 -0.23828125 -0.11328125 0.40000000 0.40000000 0.40000000
v 0.12890625 -0.23828125 0.11328125 0.40000000 0.40000000 0.40000000
v 0.12890625 -0.23046875 -0.11328125 0.40000000 0.40000000 0.40000000
v 0.12890625 -0.23046875 -0.10546875 0.40000000 0.40000000 0.40000000
v 0.12890625 -0.23046875 0.09765625 0.40000000 0.40000000 0.40000000
v 0.12890625 -0.23046875 0.11328125 0.40000000 0.40000000 0.40000000
v 0.12890625 0.04296875 -0.11328125 0.40000000 0.40000000 0.40000000
v 0.12890625 0.04296875 -0.10546875 0.40000000 0.40000000 0.40000000
v 0.12890625 0.04296875 0.09765625 0.40000000 0.40000000 0.40000000
v 0.12890625 0.04296875 0.11328125 0.40000000 0.40000000 0.40000000
v 0.13671875 0.04296875 -0.11328125 0.40000000 0.40000000 0.40000000
v 0.13671875 0.04296875 -0.10546875 0.40000000 0.40000000 0.40000000
v 0.13671875 0.04296875 0.07421875 0.40000000 0.40000000 0.40000000
v 0.13671875 0.06640625 -0.11328125 0.40000000 0.40000000 0.40000000
v 0.13671875 0.06640625 -0.10546875 0.40000000 0.40000000 0.40000000
v 0.13671875 0.06640625 0.07421875 0.40000000 0.40000000 0.40000000
v 0.19921875 0.04296875 -0.11328125 0.40000000 0.40000000 0.40000000
v 0.19921875 0.04296875 0.07421875 0.40000000 0.40000000 0.40000000
v 0.19921875 0.06640625 -0.11328125 0.40000000 0.40000000 0.40000000
v 0.19921875 0.06640625 0.07421875 0.40000000 0.40000000 0.40000000
v 0.20703125 0.04296875 -0.11328125 0.40000000 0.40000000 0.40000000
v 0.20703125 0.04296875 -0.10546875 0.40000000 0.40000000 0.40000000
v 0.20703125 0.06640625 -0.11328125 0.40000000 0.40000000 0.40000000
v 0.20703125 0.06640625 -0.10546875 0.40000000 0.40000000 0.40000000
v 0.23046875 0.04296875 0.09765625 0.40000000 0.40000000 0.40000000
v 0.23046875 0.06640625 0.09765625 0.40000000 0.40000000 0.40000000
v 0.23046875 0.06640625 0.11328125 0.40000000 0.40000000 0.40000000
v 0.24609375 0.04296875 0.09765625 0.40000000 0.40000000 0.40000000
v 0.45703125 0.04296875 0.09765625 0.40000000 0.40000000 0.40000000
v 0.45703125 0.04296875 0.11328125 0.40000000 0.40000000 0.40000000
v 0.48046875 -0.23046875 -0.11328125 0.40000000 0.40000000 0.40000000
v 0.48046875 -0.23046875 -0.10546875 0.40000000 0.40000000 0.40000000
v 0.48046875 -0.23046875 0.11328125 0.40000000 0.40000000 0.40000000
v 0.48046875 -0.17578125 -0.04296875 0.40000000 0.40000000 0.40000000
v 0.48046875 -0.17578125 0.08203125 0.40000000 0.40000000 0.40000000
v 0.48046875 -0.00390625 -0.04296875 0.40000000 0.40000000 0.40000000
v 0.48046875 -0.00390625 0.08203125 0.40000000 0.40000000 0.40000000
v 0.48046875 0.04296875 -0.11328125 0.40000000 0.40000000 0.40000000
v 0.48046875 0.04296875 -0.10546875 0.40000000 0.40000000 0.40000000
v 0.48046875 0.04296875 0.11328125 0.40000000 0.40000000 0.40000000
v 0.48046875 0.06640625 -0.11328125 0.40000000 0.40000000 0.40000000
v 0.48046875 0.06640625 -0.10546875 0.40000000 0.40000000 0.40000000
v 0.48046875 0.06640625 0.11328125 0.40000000 0.40000000 0.40000000
v 0.48046875 0.13671875 -0.08984375 0.40000000 0.40000000 0.40000000
v 0.48046875 0.13671875 0.08984375 0.40000000 0.40000000 0.40000000
v 0.48046875 0.32421875 -0.08984375 0.40000000 0.40000000 0.40000000
v 0.48046875 0.32421875 0.08984375 0.40000000 0.40000000 0.40000000
v 0.48046875 0.38671875 -0.11328125 0.40000000 0.40000000 0.40000000
v 0.48046875 0.38671875 -0.10546875 0.40000000 0.40000000 0.40000000
v 0.48046875 0.38671875 0.11328125 0.40000000 0.40000000 0.40000000
v 0.48828125 0.05078125 -0.11328125 0.40000000 0.40000000 0.40000000
v 0.48828125 0.05078125 0.11328125 0.40000000 0.40000000 0.40000000
v 0.49609375 -0.23828125 -0.11328125 0.40000000 0.40000000 0.40000000
v 0.49609375 -0.23828125 0.11328125 0.40000000 0.40000000 0.40000000
v 0.49609375 -0.17578125 -0.04296875 0.40000000 0.40000000 0.40000000
v 0.49609375 -0.17578125 0.08203125 0.40000000 0.40000000 0.40000000
v 0.49609375 -0.00390625 -0.04296875 0.40000000 0.40000000 0.40000000
v 0.49609375 -0.00390625 0.08203125 0.40000000 0.40000000 0.40000000
v 0.49609375 0.05078125 -0.11328125 0.40000000 0.40000000 0.40000000
v 0.49609375 0.05078125 0.11328125 0.40000000 0.40000000 0.40000000
v 0.49609375 0.13671875 -0.08984375 0.40000000 0.40000000 0.40000000
v 0.49609375 0.13671875 0.08984375 0.40000000 0.40000000 0.40000000
v 0.49609375 0.32421875 -0.08984375 0.40000000 0.40000000 0.40000000
v 0.49609375 0.32421875 0.08984375 0.40000000 0.40000000 0.40000000
v 0.49609375 0.40234375 -0.11328125 0.40000000 0.40000000 0.40000000
v 0.49609375 0.40234375 0.11328125 0.40000000 0.40000000 0.40000000
v -0.16796875 -0.23828125 -0.11328125 0.70588235 0.50980392 0.27450980
v -0.12109375 -0.23828125 -0.11328125 0.70588235 0.50980392 0.27450980
v -0.12109375 -0.17578125 -0.11328125 0.70588235 0.50980392 0.27450980
v -0.16796875 -0.17578125 -0.11328125 0.70588235 0.50980392 0.27450980
v -0.16796875 -0.23828125 -0.08203125 0.70588235 0.50980392 0.27450980
v -0.12109375 -0.23828125 -0.08203125 0.70588235 0.50980392 0.27450980
v -0.12109375 -0.17578125 -0.08203125 0.70588235 0.50980392 0.27450980
v -0.16796875 -0.17578125 -0.08203125 0.70588235 0.50980392 0.27450980
v 0.18359375 -0.23046875 -0.11328125 0.70588235 0.50980392 0.27450980
v 0.22265625 -0.23046875 -0.11328125 0.70588235 0.50980392 0.27450980
v 0.22265625 -0.18359375 -0.11328125 0.70588235 0.50980392 0.27450980
v 0.18359375 -0.18359375 -0.11328125 0.70588235 0.50980392 0.27450980
v 0.18359375 -0.23046875 -0.08203125 0.70588235 0.50980392 0.27450980
v 0.22265625 -0.23046875 -0.08203125 0.70588235 0.50980392 0.27450980
v 0.22265625 -0.18359375 -0.08203125 0.70588235 0.50980392 0.27450980
v 0.18359375 -0.18359375 -0.08203125 0.70588235 0.50980392 0.27450980
v 0.41796875 -0.23046875 -0.11328125 0.70588235 0.50980392 0.27450980
v 0.45703125 -0.23046875 -0.11328125 0.70588235 0.50980392 0.27450980
v 0.45703125 -0.18359375 -0.11328125 0.70588235 0.50980392 0.27450980
v 0.41796875 -0.18359375 -0.11328125 0.70588235 0.50980392 0.27450980
v 0.41796875 -0.23046875 -0.08203125 0.70588235 0.50980392 0.27450980
v 0.45703125 -0.23046875 -0.08203125 0.70588235 0.50980392 0.27450980
v 0.45703125 -0.18359375 -0.08203125 0.70588235 0.50980392 0.27450980
v 0.41796875 -0.18359375 -0.08203125 0.70588235 0.50980392 0.27450980
v 0.21484375 -0.17578125 -0.11328125 0.78431373 0.78431373 0.31372549
v 0.41796875 -0.17578125 -0.11328125 0.78431373 0.78431373 0.31372549
v 0.41796875 -0.11328125 -0.11328125 0.78431373 0.78431373 0.31372549
v 0.21484375 -0.11328125 -0.11328125 0.78431373 0.78431373 0.31372549
v 0.21484375 -0.17578125 0.01953125 0.78431373 0.78431373 0.31372549
v 0.41796875 -0.17578125 0.01953125 0.78431373 0.78431373 0.31372549
v 0.41796875 -0.11328125 0.01953125 0.78431373 0.78431373 0.31372549
v 0.21484375 -0.11328125 0.01953125 0.78431373 0.78431373 0.31372549
v -0.10546875 -0.18359375 -0.11328125 0.31372549 0.78431373 0.94117647
v -0.01171875 -0.18359375 -0.11328125 0.31372549 0.78431373 0.94117647
v -0.01171875 -0.05078125 -0.11328125 0.31372549 0.78431373 0.94117647
v -0.10546875 -0.05078125 -0.11328125 0.31372549 0.78431373 0.94117647
v -0.10546875 -0.18359375 0.06640625 0.31372549 0.78431373 0.94117647
v -0.01171875 -0.18359375 0.06640625 0.31372549 0.78431373 0.94117647
v -0.01171875 -0.05078125 0.06640625 0.31372549 0.78431373 0.94117647
v -0.10546875 -0.05078125 0.06640625 0.31372549 0.78431373 0.94117647
v -0.17578125 -0.05859375 -0.11328125 0.70588235 0.50980392 0.27450980
v -0.11328125 -0.05859375 -0.11328125 0.70588235 0.50980392 0.27450980
v -0.11328125 0.00390625 -0.11328125 0.70588235 0.50980392 0.27450980
v -0.17578125 0.00390625 -0.11328125 0.70588235 0.50980392 0.27450980
v -0.17578125 -0.05859375 -0.08203125 0.70588235 0.50980392 0.27450980
v -0.11328125 -0.05859375 -0.08203125 0.70588235 0.50980392 0.27450980
v -0.11328125 0.00390625 -0.08203125 0.70588235 0.50980392 0.27450980
v -0.17578125 0.00390625 -0.08203125 0.70588235 0.50980392 0.27450980
v 0.22265625 0.06640625 -0.11328125 0.70588235 0.50980392 0.27450980
v 0.45703125 0.06640625 -0.11328125 0.70588235 0.50980392 0.27450980
v 0.45703125 0.11328125 -0.11328125 0.70588235 0.50980392 0.27450980
v 0.22265625 0.11328125 -0.11328125 0.70588235 0.50980392 0.27450980
v 0.22265625 0.06640625 -0.08203125 0.70588235 0.50980392 0.27450980
v 0.45703125 0.06640625 -0.08203125 0.70588235 0.50980392 0.27450980
v 0.45703125 0.11328125 -0.08203125 0.70588235 0.50980392 0.27450980
v 0.22265625 0.11328125 -0.08203125 0.70588235 0.50980392 0.27450980
v -0.23046875 0.19140625 -0.11328125 0.70588235 0.50980392 0.27450980
v -0.19140625 0.19140625 -0.11328125 0.70588235 0.50980392 0.27450980
v -0.19140625 0.29296875 -0.11328125 0.70588235 0.50980392 0.27450980
v -0.23046875 0.29296875 -0.11328125 0.70588235 0.50980392 0.27450980
v -0.23046875 0.19140625 0.00390625 0.70588235 0.50980392 0.27450980
v -0.19140625 0.19140625 0.00390625 0.70588235 0.50980392 0.27450980
v -0.19140625 0.29296875 0.00390625 0.70588235 0.50980392 0.27450980
v -0.23046875 0.29296875 0.00390625 0.70588235 0.50980392 0.27450980
v 0.16015625 0.19140625 -0.11328125 0.70588235 0.50980392 0.27450980
v 0.26171875 0.19140625 -0.11328125 0.70588235 0.50980392 0.27450980
v 0.26171875 0.23828125 -0.11328125 0.70588235 0.50980392 0.27450980
v 0.16015625 0.23828125 -0.11328125 0.70588235 0.50980392 0.27450980
v 0.16015625 0.19140625 -0.08984375 0.70588235 0.50980392 0.27450980
v 0.26171875 0.19140625 -0.08984375 0.70588235 0.50980392 0.27450980
v 0.26171875 0.23828125 -0.08984375 0.70588235 0.50980392 0.27450980
v 0.16015625 0.23828125 -0.08984375 0.70588235 0.50980392 0.27450980
v -0.13671875 0.20703125 -0.11328125 0.78431373 0.39215686 0.78431373
v -0.08984375 0.20703125 -0.11328125 0.78431373 0.39215686 0.78431373
v -0.08984375 0.26171875 -0.11328125 0.78431373 0.39215686 0.78431373
v -0.13671875 0.26171875 -0.11328125 0.78431373 0.39215686 0.78431373
v -0.13671875 0.20703125 -0.04296875 0.78431373 0.39215686 0.78431373
v -0.08984375 0.20703125 -0.04296875 0.78431373 0.39215686 0.78431373
v -0.08984375 0.26171875 -0.04296875 0.78431373 0.39215686 0.78431373
v -0.13671875 0.26171875 -0.04296875 0.78431373 0.39215686 0.78431373
v -0.08203125 0.20703125 -0.11328125 0.78431373 0.39215686 0.78431373
v -0.03515625 0.20703125 -0.11328125 0.78431373 0.39215686 0.78431373
v -0.03515625 0.26171875 -0.11328125 0.78431373 0.39215686 0.78431373
v -0.08203125 0.26171875 -0.11328125 0.78431373 0.39215686 0.78431373
v -0.08203125 0.20703125 -0.04296875 0.78431373 0.39215686 0.78431373
v -0.03515625 0.20703125 -0.04296875 0.78431373 0.39215686 0.78431373
v -0.03515625 0.26171875 -0.04296875 0.78431373 0.39215686 0.78431373
v -0.08203125 0.26171875 -0.04296875 0.78431373 0.39215686 0.78431373
v -0.15234375 0.26171875 -0.11328125 0.78431373 0.78431373 0.31372549
v -0.02734375 0.26171875 -0.11328125 0.78431373 0.78431373 0.31372549
v -0.02734375 0.32421875 -0.11328125 0.78431373 0.78431373 0.31372549
v -0.15234375 0.32421875 -0.11328125 0.78431373 0.78431373 0.31372549
v -0.15234375 0.26171875 -0.05078125 0.78431373 0.78431373 0.31372549
v -0.02734375 0.26171875 -0.05078125 0.78431373 0.78431373 0.31372549
v -0.02734375 0.32421875 -0.05078125 0.78431373 0.78431373 0.31372549
v -0.15234375 0.32421875 -0.05078125 0.78431373 0.78431373 0.31372549
v -0.13671875 0.32421875 -0.11328125 0.78431373 0.39215686 0.78431373
v -0.08984375 0.32421875 -0.11328125 0.78431373 0.39215686 0.78431373
v -0.08984375 0.37890625 -0.11328125 0.78431373 0.39215686 0.78431373
v -0.13671875 0.37890625 -0.11328125 0.78431373 0.39215686 0.78431373
v -0.13671875 0.32421875 -0.04296875 0.78431373 0.39215686 0.78431373
v -0.08984375 0.32421875 -0.04296875 0.78431373 0.39215686 0.78431373
v -0.08984375 0.37890625 -0.04296875 0.78431373 0.39215686 0.78431373
v -0.13671875 0.37890625 -0.04296875 0.78431373 0.39215686 0.78431373
v -0.08203125 0.32421875 -0.11328125 0.78431373 0.39215686 0.78431373
v -0.03515625 0.32421875 -0.11328125 0.78431373 0.39215686 0.78431373
v -0.03515625 0.37890625 -0.11328125 0.78431373 0.39215686 0.78431373
v -0.08203125 0.37890625 -0.11328125 0.78431373 0.39215686 0.78431373
v -0.08203125 0.32421875 -0.04296875 0.78431373 0.39215686 0.78431373
v -0.03515625 0.32421875 -0.04296875 0.78431373 0.39215686 0.78431373
v -0.03515625 0.37890625 -0.04296875 0.78431373 0.39215686 0.78431373
v -0.08203125 0.37890625 -0.04296875 0.78431373 0.39215686 0.78431373
v -0.05078125 -0.14453125 0.03515625 0.19607843 0.78431373 1.00000000
v 0.02734375 -0.14453125 0.03515625 0.19607843 0.78431373 1.00000000
v 0.02734375 -0.08203125 0.03515625 0.19607843 0.78431373 1.00000000
v -0.05078125 -0.08203125 0.03515625 0.19607843 0.78431373 1.00000000
v -0.05078125 -0.14453125 0.11328125 0.19607843 0.78431373 1.00000000
v 0.02734375 -0.14453125 0.11328125 0.19607843 0.78431373 1.00000000
v 0.02734375 -0.08203125 0.11328125 0.19607843 0.78431373 1.00000000
v -0.05078125 -0.08203125 0.11328125 0.19607843 0.78431373 1.00000000
v 0.32421875 -0.16796875 0.06640625 0.19607843 0.78431373 1.00000000
v 0.41015625 -0.16796875 0.06640625 0.19607843 0.78431373 1.00000000
v 0.41015625 -0.10546875 0.06640625 0.19607843 0.78431373 1.00000000
v 0.32421875 -0.10546875 0.06640625 0.19607843 0.78431373 1.00000000
v 0.32421875 -0.16796875 0.08203125 0.19607843 0.78431373 1.00000000
v 0.41015625 -0.16796875 0.08203125 0.19607843 0.78431373 1.00000000
v 0.41015625 -0.10546875 0.08203125 0.19607843 0.78431373 1.00000000
v 0.32421875 -0.10546875 0.08203125 0.19607843 0.78431373 1.00000000
v -0.13671875 0.29296875 0.08984375 0.19607843 0.78431373 1.00000000
v -0.12109375 0.29296875 0.08984375 0.19607843 0.78431373 1.00000000
v -0.12109375 0.31640625 0.08984375 0.19607843 0.78431373 1.00000000
v -0.13671875 0.31640625 0.08984375 0.19607843 0.78431373 1.00000000
v -0.13671875 0.29296875 0.12109375 0.19607843 0.78431373 1.00000000
v -0.12109375 0.29296875 0.12109375 0.19607843 0.78431373 1.00000000
v -0.12109375 0.31640625 0.12109375 0.19607843 0.78431373 1.00000000
v -0.13671875 0.31640625 0.12109375 0.19607843 0.78431373 1.00000000
v -0.07421875 0.29296875 0.08984375 0.19607843 0.78431373 1.00000000
v -0.05078125 0.29296875 0.08984375 0.19607843 0.78431373 1.00000000
v -0.05078125 0.31640625 0.08984375 0.19607843 0.78431373 1.00000000
v -0.07421875 0.31640625 0.08984375 0.19607843 0.78431373 1.00000000
v -0.07421875 0.29296875 0.12109375 0.19607843 0.78431373 1.00000000
v -0.05078125 0.29296875 0.12109375 0.19607843 0.78431373 1.00000000
v -0.05078125 0.31640625 0.12109375 0.19607843 0.78431373 1.00000000
v -0.07421875 0.31640625 0.12109375 0.19607843 0.78431373 1.00000000
f 1 60 61
f 1 61 2
f 61 60 142
f 60 1 13
f 1 2 3
f 2 61 14
f 61 142 72
f 142 60 141
f 60 13 48
f 13 1 3
f 3 2 4
f 2 14 4
f 14 61 49
f 61 72 63
f 72 142 122
f 142 141 144
f 141 60 71
f 60 48 50
f 48 13 14
f 13 3 11
f 3 4 5
f 4 14 12
f 14 49 48
f 49 61 55
f 61 63 55
f 63 72 78
f 72 122 121
f 122 142 128
f 142 144 154
f 144 141 143
f 141 71 121
f 71 60 73
f 60 50 73
f 50 48 49
f 14 13 16
f 13 48 36
f 13 11 15
f 11 3 5
f 5 4 6
f 4 12 10
f 12 14 16
f 49 55 53
f 55 63 57
f 63 78 80
f 78 72 74
f 72 121 71
f 121 122 123
f 122 128 126
f 128 142 134
f 142 154 134
f 154 144 146
f 144 143 123
f 143 141 153
f 141 121 127
f 71 73 74
f 73 50 74
f 50 49 51
f 16 13 15
f 13 36 15
f 36 48 56
f 15 11 17
f 11 5 23
f 5 6 24
f 6 4 8
f 4 10 8
f 10 12 31
f 12 16 19
f 49 53 51
f 53 55 54
f 55 57 56
f 57 63 65
f 63 80 65
f 80 78 128
f 78 74 76
f 74 72 71
f 71 121 127
f 121 123 125
f 123 122 124
f 122 126 124
f 126 128 127
f 128 134 130
f 134 154 136
f 154 146 145
f 146 144 126
f 144 123 124
f 123 143 145
f 143 153 145
f 153 141 133
f 141 127 133
f 127 121 125
f 74 50 51
f 50 73 52
f 16 15 37
f 15 36 37
f 36 56 38
f 15 17 32
f 17 11 23
f 23 5 24
f 24 6 8
f 8 10 9
f 10 31 103
f 31 12 19
f 19 16 33
f 51 53 74
f 53 54 52
f 54 55 56
f 56 57 44
f 57 65 70
f 65 80 82
f 80 128 130
f 128 78 90
f 78 76 75
f 76 74 53
f 71 127 77
f 125 123 145
f 124 126 144
f 126 127 125
f 127 128 117
f 130 134 132
f 134 136 132
f 136 154 157
f 154 145 153
f 145 146 126
f 153 133 135
f 133 127 129
f 52 73 75
f 16 37 33
f 37 36 39
f 36 15 32
f 36 38 39
f 32 17 19
f 17 23 24
f 5 23 7
f 24 8 26
f 8 9 7
f 9 10 101
f 10 103 101
f 103 31 113
f 31 19 24
f 19 33 32
f 53 52 75
f 52 54 75
f 54 56 62
f 56 44 46
f 44 57 45
f 57 70 39
f 70 65 82
f 82 80 79
f 80 130 120
f 128 90 118
f 90 78 77
f 78 75 77
f 75 76 53
f 77 127 89
f 125 145 126
f 127 117 89
f 117 128 118
f 130 132 131
f 132 136 140
f 136 157 140
f 157 154 153
f 153 135 155
f 135 133 131
f 133 129 131
f 129 127 79
f 33 37 35
f 37 39 35
f 36 32 34
f 39 38 41
f 38 36 34
f 19 17 22
f 17 32 34
f 17 24 22
f 7 23 25
f 24 26 31
f 26 8 25
f 8 7 25
f 7 9 25
f 9 101 29
f 101 103 104
f 103 113 105
f 113 31 29
f 32 33 34
f 75 54 62
f 62 56 64
f 56 46 66
f 46 44 47
f 44 45 47
f 45 57 41
f 57 39 41
f 39 70 35
f 70 82 140
f 82 79 81
f 79 80 91
f 80 120 92
f 120 130 129
f 118 90 120
f 90 77 89
f 77 75 62
f 127 77 79
f 89 117 91
f 117 118 120
f 130 131 129
f 131 132 93
f 132 140 82
f 140 157 239
f 157 153 155
f 153 155 156
f 155 135 137
f 135 131 137
f 129 79 119
f 33 35 34
f 41 38 40
f 38 34 42
f 17 34 111
f 31 26 25
f 25 9 29
f 29 101 111
f 101 104 111
f 104 103 105
f 105 113 116
f 113 29 111
f 29 31 25
f 62 64 79
f 64 56 66
f 66 46 47
f 44 46 42
f 47 45 41
f 35 70 47
f 82 70 83
f 82 81 85
f 81 79 64
f 81 79 131
f 79 91 119
f 91 80 92
f 92 120 90
f 120 129 119
f 90 89 91
f 77 62 79
f 91 117 119
f 117 120 119
f 129 131 79
f 131 93 95
f 93 132 94
f 132 82 85
f 239 157 227
f 157 155 191
f 155 153 225
f 135 155 189
f 137 131 95
f 34 35 42
f 41 40 42
f 40 38 42
f 17 111 29
f 111 34 66
f 111 101 114
f 101 111 106
f 111 104 114
f 104 105 304
f 105 116 305
f 116 113 111
f 111 29 112
f 64 66 81
f 66 47 70
f 44 42 40
f 47 41 43
f 35 47 43
f 85 81 84
f 91 92 90
f 95 93 97
f 93 94 97
f 94 132 85
f 239 227 235
f 227 157 191
f 191 155 189
f 225 153 147
f 189 155 190
f 137 95 96
f 137 95 97
f 42 35 43
f 41 42 43
f 111 66 137
f 111 114 116
f 111 114 115
f 114 101 104
f 101 106 108
f 106 111 112
f 114 104 304
f 304 105 305
f 305 116 289
f 112 29 30
f 81 66 86
f 66 70 86
f 85 84 86
f 84 81 86
f 93 95 86
f 97 94 85
f 239 235 249
f 235 227 241
f 227 191 215
f 191 189 192
f 225 147 219
f 190 155 156
f 137 96 138
f 137 97 139
f 111 137 287
f 116 114 289
f 114 111 287
f 111 115 112
f 115 114 288
f 101 108 109
f 108 106 107
f 106 112 107
f 114 304 287
f 304 305 302
f 305 289 291
f 30 29 107
f 86 66 67
f 86 70 88
f 85 86 88
f 86 84 93
f 97 85 88
f 239 249 282
f 249 235 245
f 235 241 245
f 241 227 224
f 227 215 213
f 215 191 218
f 191 192 194
f 192 189 213
f 192 189 137
f 219 147 195
f 137 138 164
f 137 139 164
f 139 97 69
f 287 137 236
f 289 114 287
f 114 287 288
f 101 109 102
f 109 108 107
f 107 112 110
f 287 304 290
f 304 302 300
f 302 305 303
f 305 291 299
f 291 289 282
f 107 29 106
f 29 30 27
f 86 67 87
f 67 66 59
f 88 70 98
f 97 88 98
f 282 249 279
f 241 224 152
f 224 227 225
f 227 213 225
f 213 215 218
f 218 191 194
f 194 192 166
f 192 213 216
f 189 192 193
f 219 195 196
f 195 147 159
f 147 219 222
f 147 219 148
f 164 138 165
f 164 139 166
f 69 97 68
f 287 236 280
f 289 287 286
f 288 287 281
f 102 109 100
f 109 107 100
f 287 290 280
f 290 304 298
f 304 300 298
f 300 302 283
f 302 303 286
f 303 305 301
f 305 299 301
f 299 291 293
f 291 282 279
f 282 289 286
f 27 30 28
f 59 66 58
f 98 70 99
f 224 241 230
f 224 225 222
f 225 213 216
f 213 218 216
f 218 194 166
f 166 192 164
f 189 193 190
f 193 192 165
f 219 196 221
f 196 195 197
f 195 159 197
f 159 147 149
f 147 222 150
f 222 219 221
f 147 148 207
f 147 148 151
f 148 219 220
f 287 280 281
f 287 280 285
f 287 289 285
f 280 290 277
f 290 298 292
f 298 300 301
f 300 283 301
f 283 302 285
f 302 286 285
f 286 303 301
f 301 299 298
f 299 293 295
f 293 291 279
f 282 286 284
f 230 241 272
f 224 222 221
f 222 225 240
f 222 225 223
f 225 216 236
f 213 225 214
f 216 218 236
f 218 166 238
f 221 196 149
f 196 197 198
f 197 159 161
f 159 149 160
f 147 150 207
f 150 222 151
f 219 222 240
f 219 222 220
f 207 148 208
f 147 207 208
f 147 151 150
f 281 280 263
f 285 280 283
f 287 285 283
f 280 277 258
f 277 290 292
f 292 298 294
f 301 283 284
f 286 301 284
f 298 299 296
f 299 295 297
f 295 293 292
f 293 279 272
f 282 284 283
f 230 272 270
f 272 241 293
f 224 221 241
f 240 225 234
f 225 222 210
f 222 223 220
f 223 225 226
f 225 236 234
f 213 214 211
f 214 225 226
f 216 236 217
f 236 218 238
f 221 149 224
f 149 196 160
f 196 198 162
f 198 197 212
f 197 161 222
f 161 159 162
f 159 160 162
f 207 150 210
f 150 151 210
f 150 151 148
f 150 151 223
f 151 222 223
f 222 150 223
f 222 219 210
f 207 208 210
f 208 207 219
f 263 280 262
f 283 280 282
f 277 290 270
f 290 292 270
f 280 258 259
f 258 277 256
f 277 292 270
f 292 294 295
f 294 298 296
f 296 299 297
f 297 295 276
f 292 293 240
f 272 279 276
f 230 270 228
f 270 272 273
f 293 241 240
f 240 234 228
f 225 210 213
f 220 223 208
f 223 226 211
f 234 236 246
f 213 211 210
f 211 214 223
f 214 226 223
f 217 236 237
f 236 238 253
f 224 149 152
f 160 196 162
f 162 198 212
f 212 197 222
f 222 161 150
f 161 162 150
f 207 210 219
f 210 151 211
f 148 151 208
f 210 208 211
f 208 219 220
f 282 280 266
f 277 270 271
f 277 270 275
f 270 292 240
f 280 259 266
f 259 258 256
f 256 277 264
f 295 294 273
f 294 296 273
f 296 297 276
f 276 295 274
f 272 276 274
f 276 279 277
f 230 228 233
f 228 270 277
f 228 270 240
f 270 273 275
f 273 272 274
f 208 223 211
f 211 226 214
f 246 236 253
f 210 211 214
f 253 238 255
f 152 149 209
f 162 212 152
f 212 222 210
f 150 162 152
f 208 151 211
f 277 258 253
f 277 271 278
f 271 270 229
f 277 275 276
f 266 259 265
f 259 256 257
f 256 258 253
f 256 264 257
f 264 277 267
f 295 273 274
f 273 296 275
f 296 276 275
f 277 279 268
f 233 228 231
f 228 277 231
f 270 228 229
f 246 253 250
f 253 236 237
f 253 255 252
f 255 238 259
f 152 209 212
f 212 162 158
f 150 152 147
f 277 253 250
f 277 278 260
f 265 259 238
f 259 257 252
f 256 253 250
f 257 264 252
f 267 277 268
f 268 279 269
f 233 231 252
f 231 228 232
f 246 250 251
f 246 250 252
f 250 253 252
f 253 237 254
f 252 255 259
f 152 212 149
f 212 209 149
f 158 162 163
f 147 152 149
f 260 278 261
f 252 264 248
f 233 252 249
f 252 231 250
f 231 232 251
f 232 228 229
f 246 251 247
f 246 252 248
f 158 163 168
f 231 251 250
f 246 247 242
f 246 248 242
f 158 168 171
f 242 247 243
f 242 248 244
f 158 171 173
f 158 173 177
f 158 177 179
f 177 173 176
f 158 179 182
f 182 158 183
f 183 158 186
f 186 158 187
f 187 158 188
f 188 158 212
f 188 212 199
f 188 199 201
f 199 212 202
f 188 201 200
f 202 212 203
f 203 212 206
f 206 212 204
f 204 212 205
f 20 21 17
f 17 21 18
f 166 169 167
f 167 169 170
f 167 170 172
f 167 172 175
f 175 172 174
f 178 180 181
f 184 238 239
f 184 239 185
f 306 307 308
f 306 308 309
f 310 313 312
f 310 312 311
f 306 310 311
f 306 311 307
f 309 308 312
f 309 312 313
f 306 309 313
f 306 313 310
f 307 311 312
f 307 312 308
f 314 315 316
f 314 316 317
f 318 321 320
f 318 320 319
f 314 318 319
f 314 319 315
f 317 316 320
f 317 320 321
f 314 317 321
f 314 321 318
f 315 319 320
f 315 320 316
f 322 323 324
f 322 324 325
f 326 329 328
f 326 328 327
f 322 326 327
f 322 327 323
f 325 324 328
f 325 328 329
f 322 325 329
f 322 329 326
f 323 327 328
f 323 328 324
f 330 331 332
f 330 332 333
f 334 337 336
f 334 336 335
f 330 334 335
f 330 335 331
f 333 332 336
f 333 336 337
f 330 333 337
f 330 337 334
f 331 335 336
f 331 336 332
f 338 339 340
f 338 340 341
f 342 345 344
f 342 344 343
f 338 342 343
f 338 343 339
f 341 340 344
f 341 344 345
f 338 341 345
f 338 345 342
f 339 343 344
f 339 344 340
f 346 347 348
f 346 348 349
f 350 353 352
f 350 352 351
f 346 350 351
f 346 351 347
f 349 348 352
f 349 352 353
f 346 349 353
f 346 353 350
f 347 351 352
f 347 352 348
f 354 355 356
f 354 356 357
f 358 361 360
f 358 360 359
f 354 358 359
f 354 359 355
f 357 356 360
f 357 360 361
f 354 357 361
f 354 361 358
f 355 359 360
f 355 360 356
f 362 363 364
f 362 364 365
f 366 369 368
f 366 368 367
f 362 366 367
f 362 367 363
f 365 364 368
f 365 368 369
f 362 365 369
f 362 369 366
f 363 367 368
f 363 368 364
f 370 371 372
f 370 372 373
f 374 377 376
f 374 376 375
f 370 374 375
f 370 375 371
f 373 372 376
f 373 376 377
f 370 373 377
f 370 377 374
f 371 375 376
f 371 376 372
f 378 379 380
f 378 380 381
f 382 385 384
f 382 384 383
f 378 382 383
f 378 383 379
f 381 380 384
f 381 384 385
f 378 381 385
f 378 385 382
f 379 383 384
f 379 384 380
f 386 387 388
f 386 388 389
f 390 393 392
f 390 392 391
f 386 390 391
f 386 391 387
f 389 388 392
f 389 392 393
f 386 389 393
f 386 393 390
f 387 391 392
f 387 392 388
f 394 395 396
f 394 396 397
f 398 401 400
f 398 400 399
f 394 398 399
f 394 399 395
f 397 396 400
f 397 400 401
f 394 397 401
f 394 401 398
f 395 399 400
f 395 400 396
f 402 403 404
f 402 404 405
f 406 409 408
f 406 408 407
f 402 406 407
f 402 407 403
f 405 404 408
f 405 408 409
f 402 405 409
f 402 409 406
f 403 407 408
f 403 408 404
f 410 411 412
f 410 412 413
f 414 417 416
f 414 416 415
f 410 414 415
f 410 415 411
f 413 412 416
f 413 416 417
f 410 413 417
f 410 417 414
f 411 415 416
f 411 416 412
f 418 419 420
f 418 420 421
f 422 425 424
f 422 424 423
f 418 422 423
f 418 423 419
f 421 420 424
f 421 424 425
f 418 421 425
f 418 425 422
f 419 423 424
f 419 424 420
f 426 427 428
f 426 428 429
f 430 433 432
f 430 432 431
f 426 430 431
f 426 431 427
f 429 428 432
f 429 432 433
f 426 429 433
f 426 433 430
f 427 431 432
f 427 432 428
f 434 435 436
f 434 436 437
f 438 441 440
f 438 440 439
f 434 438 439
f 434 439 435
f 437 436 440
f 437 440 441
f 434 437 441
f 434 441 438
f 435 439 440
f 435 440 436
f 442 443 444
f 442 444 445
f 446 449 448
f 446 448 447
f 442 446 447
f 442 447 443
f 445 444 448
f 445 448 449
f 442 445 449
f 442 449 446
f 443 447 448
f 443 448 444

