# https://github.com/mikedh/trimesh
v -0.21484375 -0.49609375 -0.07421875 0.40000000 0.40000000 0.40000000
v -0.21484375 -0.49609375 0.07421875 0.40000000 0.40000000 0.40000000
v -0.21484375 -0.17578125 -0.07421875 0.40000000 0.40000000 0.40000000
v -0.21484375 -0.17578125 0.07421875 0.40000000 0.40000000 0.40000000
v -0.21484375 0.01953125 -0.07421875 0.40000000 0.40000000 0.40000000
v -0.21484375 0.01953125 0.07421875 0.40000000 0.40000000 0.40000000
v -0.21484375 0.11328125 -0.07421875 0.40000000 0.40000000 0.40000000
v -0.21484375 0.11328125 0.07421875 0.40000000 0.40000000 0.40000000
v -0.21484375 0.42578125 -0.07421875 0.40000000 0.40000000 0.40000000
v -0.21484375 0.42578125 0.07421875 0.40000000 0.40000000 0.40000000
v -0.20703125 -0.17578125 -0.07421875 0.40000000 0.40000000 0.40000000
v -0.20703125 -0.17578125 0.07421875 0.40000000 0.40000000 0.40000000
v -0.20703125 0.01953125 -0.07421875 0.40000000 0.40000000 0.40000000
v -0.20703125 0.01953125 0.07421875 0.40000000 0.40000000 0.40000000
v -0.20703125 0.11328125 -0.07421875 0.40000000 0.40000000 0.40000000
v -0.20703125 0.11328125 0.07421875 0.40000000 0.40000000 0.40000000
v -0.19921875 -0.48046875 -0.07421875 0.40000000 0.40000000 0.40000000
v -0.19921875 -0.48046875 -0.06640625 0.40000000 0.40000000 0.40000000
v -0.19921875 -0.48046875 0.06640625 0.40000000 0.40000000 0.40000000
v -0.19921875 -0.48046875 0.07421875 0.40000000 0.40000000 0.40000000
v -0.19921875 -0.18359375 -0.07421875 0.40000000 0.40000000 0.40000000
v -0.19921875 -0.18359375 -0.06640625 0.40000000 0.40000000 0.40000000
v -0.19921875 -0.18359375 0.06640625 0.40000000 0.40000000 0.40000000
v -0.19921875 -0.18359375 0.07421875 0.40000000 0.40000000 0.40000000
v -0.19921875 -0.16796875 -0.07421875 0.40000000 0.40000000 0.40000000
v -0.19921875 -0.16796875 0.07421875 0.40000000 0.40000000 0.40000000
v -0.19921875 0.01171875 -0.07421875 0.40000000 0.40000000 0.40000000
v -0.19921875 0.01171875 0.07421875 0.40000000 0.40000000 0.40000000
v -0.19921875 0.02734375 -0.07421875 0.40000000 0.40000000 0.40000000
v -0.19921875 0.02734375 0.07421875 0.40000000 0.40000000 0.40000000
v -0.19921875 0.10546875 -0.07421875 0.40000000 0.40000000 0.40000000
v -0.19921875 0.10546875 0.07421875 0.40000000 0.40000000 0.40000000
v -0.19921875 0.12109375 -0.07421875 0.40000000 0.40000000 0.40000000
v -0.19921875 0.12109375 -0.02734375 0.40000000 0.40000000 0.40000000
v -0.19921875 0.12109375 -0.01953125 0.40000000 0.40000000 0.40000000
v -0.19921875 0.12109375 0.07421875 0.40000000 0.40000000 0.40000000
v -0.19921875 0.40234375 -0.07421875 0.40000000 0.40000000 0.40000000
v -0.19921875 0.40234375 -0.02734375 0.40000000 0.40000000 0.40000000
v -0.19921875 0.40234375 -0.01953125 0.40000000 0.40000000 0.40000000
v -0.19921875 0.40234375 0.07421875 0.40000000 0.40000000 0.40000000
v -0.19140625 -0.48046875 -0.07421875 0.40000000 0.40000000 0.40000000
v -0.19140625 -0.48046875 -0.06640625 0.40000000 0.40000000 0.40000000
v -0.19140625 -0.19140625 -0.07421875 0.40000000 0.40000000 0.40000000
v -0.19140625 -0.19140625 -0.06640625 0.40000000 0.40000000 0.40000000
v -0.17578125 0.42578125 -0.07421875 0.40000000 0.40000000 0.40000000
v -0.17578125 0.42578125 0.07421875 0.40000000 0.40000000 0.40000000
v -0.17578125 0.43359375 -0.06640625 0.40000000 0.40000000 0.40000000
v -0.17578125 0.43359375 0.06640625 0.40000000 0.40000000 0.40000000
v -0.17578125 0.48046875 -0.06640625 0.40000000 0.40000000 0.40000000
v -0.17578125 0.48046875 0.06640625 0.40000000 0.40000000 0.40000000
v -0.17578125 0.49609375 -0.07421875 0.40000000 0.40000000 0.40000000
v -0.17578125 0.49609375 0.07421875 0.40000000 0.40000000 0.40000000
v -0.16796875 0.12109375 -0.07421875 0.40000000 0.40000000 0.40000000
v -0.16796875 0.40234375 -0.07421875 0.40000000 0.40000000 0.40000000
v -0.16796875 0.40234375 -0.02734375 0.40000000 0.40000000 0.40000000
v -0.16796875 0.40234375 -0.01953125 0.40000000 0.40000000 0.40000000
v -0.16796875 0.40234375 0.07421875 0.40000000 0.40000000 0.40000000
v -0.16796875 0.41796875 -0.07421875 0.40000000 0.40000000 0.40000000
v -0.16796875 0.41796875 0.07421875 0.40000000 0.40000000 0.40000000
v -0.16015625 -0.49609375 -0.02734375 0.40000000 0.40000000 0.40000000
v -0.16015625 -0.49609375 0.05078125 0.40000000 0.40000000 0.40000000
v -0.16015625 -0.48046875 -0.02734375 0.40000000 0.40000000 0.40000000
v -0.16015625 -0.48046875 0.05078125 0.40000000 0.40000000 0.40000000
v -0.16015625 0.42578125 -0.07421875 0.40000000 0.40000000 0.40000000
v -0.16015625 0.42578125 0.07421875 0.40000000 0.40000000 0.40000000
v -0.16015625 0.43359375 -0.06640625 0.40000000 0.40000000 0.40000000
v -0.16015625 0.43359375 0.06640625 0.40000000 0.40000000 0.40000000
v -0.16015625 0.48046875 -0.07421875 0.40000000 0.40000000 0.40000000
v -0.16015625 0.48046875 -0.06640625 0.40000000 0.40000000 0.40000000
v -0.16015625 0.48046875 0.06640625 0.40000000 0.40000000 0.40000000
v -0.16015625 0.48046875 0.07421875 0.40000000 0.40000000 0.40000000
v -0.16015625 0.49609375 -0.06640625 0.40000000 0.40000000 0.40000000
v -0.16015625 0.49609375 0.06640625 0.40000000 0.40000000 0.40000000
v -0.15234375 0.10546875 -0.07421875 0.40000000 0.40000000 0.40000000
v -0.15234375 0.10546875 0.05078125 0.40000000 0.40000000 0.40000000
v -0.15234375 0.12109375 -0.07421875 0.40000000 0.40000000 0.40000000
v -0.15234375 0.12109375 -0.02734375 0.40000000 0.40000000 0.40000000
v -0.15234375 0.12109375 -0.01953125 0.40000000 0.40000000 0.40000000
v -0.15234375 0.12109375 0.05078125 0.40000000 0.40000000 0.40000000
v -0.14453125 0.01171875 -0.07421875 0.40000000 0.40000000 0.40000000
v -0.14453125 0.01171875 0.05078125 0.40000000 0.40000000 0.40000000
v -0.14453125 0.02734375 -0.07421875 0.40000000 0.40000000 0.40000000
v -0.14453125 0.02734375 0.05078125 0.40000000 0.40000000 0.40000000
v -0.14453125 0.40234375 -0.07421875 0.40000000 0.40000000 0.40000000
v -0.14453125 0.40234375 -0.02734375 0.40000000 0.40000000 0.40000000
v -0.14453125 0.40234375 -0.01953125 0.40000000 0.40000000 0.40000000
v -0.14453125 0.40234375 0.05078125 0.40000000 0.40000000 0.40000000
v -0.14453125 0.42578125 -0.07421875 0.40000000 0.40000000 0.40000000
v -0.14453125 0.42578125 0.05078125 0.40000000 0.40000000 0.40000000
v -0.08984375 0.10546875 -0.07421875 0.40000000 0.40000000 0.40000000
v -0.08984375 0.10546875 0.05078125 0.40000000 0.40000000 0.40000000
v -0.08984375 0.12109375 -0.07421875 0.40000000 0.40000000 0.40000000
v -0.08984375 0.12109375 -0.02734375 0.40000000 0.40000000 0.40000000
v -0.08984375 0.12109375 -0.01953125 0.40000000 0.40000000 0.40000000
v -0.08984375 0.12109375 0.05078125 0.40000000 0.40000000 0.40000000
v -0.08984375 0.40234375 -0.07421875 0.40000000 0.40000000 0.40000000
v -0.08984375 0.40234375 -0.02734375 0.40000000 0.40000000 0.40000000
v -0.08984375 0.40234375 -0.01953125 0.40000000 0.40000000 0.40000000
v -0.08984375 0.40234375 0.05078125 0.40000000 0.40000000 0.40000000
v -0.08984375 0.42578125 -0.07421875 0.40000000 0.40000000 0.40000000
v -0.08984375 0.42578125 0.05078125 0.40000000 0.40000000 0.40000000
v -0.08984375 0.48046875 -0.06640625 0.40000000 0.40000000 0.40000000
v -0.08984375 0.48046875 0.06640625 0.40000000 0.40000000 0.40000000
v -0.08984375 0.49609375 -0.06640625 0.40000000 0.40000000 0.40000000
v -0.08984375 0.49609375 0.06640625 0.40000000 0.40000000 0.40000000
v -0.08203125 0.01171875 -0.07421875 0.40000000 0.40000000 0.40000000
v -0.08203125 0.01171875 0.05078125 0.40000000 0.40000000 0.40000000
v -0.08203125 0.02734375 -0.07421875 0.40000000 0.40000000 0.40000000
v -0.08203125 0.02734375 0.05078125 0.40000000 0.40000000 0.40000000
v -0.07421875 -0.16796875 -0.07421875 0.40000000 0.40000000 0.40000000
v -0.07421875 -0.16796875 0.07421875 0.40000000 0.40000000 0.40000000
v -0.07421875 -0.06640625 -0.07421875 0.40000000 0.40000000 0.40000000
v -0.07421875 -0.06640625 0.07421875 0.40000000 0.40000000 0.40000000
v -0.07421875 0.01171875 -0.07421875 0.40000000 0.40000000 0.40000000
v -0.07421875 0.01171875 0.07421875 0.40000000 0.40000000 0.40000000
v -0.07421875 0.02734375 -0.07421875 0.40000000 0.40000000 0.40000000
v -0.07421875 0.02734375 0.07421875 0.40000000 0.40000000 0.40000000
v -0.07421875 0.03515625 -0.07421875 0.40000000 0.40000000 0.40000000
v -0.07421875 0.03515625 0.05078125 0.40000000 0.40000000 0.40000000
v -0.07421875 0.10546875 -0.07421875 0.40000000 0.40000000 0.40000000
v -0.07421875 0.10546875 0.05078125 0.40000000 0.40000000 0.40000000
v -0.07421875 0.10546875 0.07421875 0.40000000 0.40000000 0.40000000
v -0.07421875 0.12109375 -0.07421875 0.40000000 0.40000000 0.40000000
v -0.07421875 0.12109375 -0.02734375 0.40000000 0.40000000 0.40000000
v -0.07421875 0.12109375 -0.01953125 0.40000000 0.40000000 0.40000000
v -0.07421875 0.12109375 0.07421875 0.40000000 0.40000000 0.40000000
v -0.07421875 0.40234375 -0.07421875 0.40000000 0.40000000 0.40000000
v -0.07421875 0.40234375 -0.02734375 0.40000000 0.40000000 0.40000000
v -0.07421875 0.40234375 -0.01953125 0.40000000 0.40000000 0.40000000
v -0.07421875 0.40234375 0.07421875 0.40000000 0.40000000 0.40000000
v -0.07421875 0.42578125 -0.07421875 0.40000000 0.40000000 0.40000000
v -0.07421875 0.42578125 0.07421875 0.40000000 0.40000000 0.40000000
v -0.07421875 0.48046875 -0.07421875 0.40000000 0.40000000 0.40000000
v -0.07421875 0.48046875 0.07421875 0.40000000 0.40000000 0.40000000
v -0.06640625 -0.19140625 -0.07421875 0.40000000 0.40000000 0.40000000
v -0.06640625 -0.19140625 -0.06640625 0.40000000 0.40000000 0.40000000
v -0.06640625 -0.18359375 -0.07421875 0.40000000 0.40000000 0.40000000
v -0.06640625 -0.18359375 -0.06640625 0.40000000 0.40000000 0.40000000
v -0.06640625 -0.18359375 0.06640625 0.40000000 0.40000000 0.40000000
v -0.06640625 -0.18359375 0.07421875 0.40000000 0.40000000 0.40000000
v -0.06640625 -0.17578125 -0.07421875 0.40000000 0.40000000 0.40000000
v -0.06640625 -0.17578125 0.07421875 0.40000000 0.40000000 0.40000000
v -0.06640625 -0.06640625 -0.07421875 0.40000000 0.40000000 0.40000000
v -0.06640625 -0.06640625 -0.06640625 0.40000000 0.40000000 0.40000000
v -0.06640625 -0.06640625 0.07421875 0.40000000 0.40000000 0.40000000
v -0.06640625 -0.05859375 -0.07421875 0.40000000 0.40000000 0.40000000
v -0.06640625 -0.05859375 -0.06640625 0.40000000 0.40000000 0.40000000
v -0.06640625 -0.05859375 0.07421875 0.40000000 0.40000000 0.40000000
v -0.06640625 0.01953125 -0.07421875 0.40000000 0.40000000 0.40000000
v -0.06640625 0.01953125 0.07421875 0.40000000 0.40000000 0.40000000
v -0.06640625 0.11328125 -0.07421875 0.40000000 0.40000000 0.40000000
v -0.06640625 0.11328125 0.07421875 0.40000000 0.40000000 0.40000000
v -0.06640625 0.41796875 -0.07421875 0.40000000 0.40000000 0.40000000
v -0.06640625 0.41796875 0.07421875 0.40000000 0.40000000 0.40000000
v -0.06640625 0.42578125 -0.07421875 0.40000000 0.40000000 0.40000000
v -0.06640625 0.42578125 0.07421875 0.40000000 0.40000000 0.40000000
v -0.06640625 0.48828125 -0.07421875 0.40000000 0.40000000 0.40000000
v -0.06640625 0.48828125 0.07421875 0.40000000 0.40000000 0.40000000
v -0.06640625 0.49609375 -0.07421875 0.40000000 0.40000000 0.40000000
v -0.06640625 0.49609375 0.07421875 0.40000000 0.40000000 0.40000000
v -0.05859375 -0.19140625 -0.07421875 0.40000000 0.40000000 0.40000000
v -0.05859375 -0.19140625 -0.06640625 0.40000000 0.40000000 0.40000000
v -0.05859375 -0.18359375 -0.07421875 0.40000000 0.40000000 0.40000000
v -0.05859375 -0.18359375 -0.06640625 0.40000000 0.40000000 0.40000000
v -0.05859375 -0.16796875 -0.07421875 0.40000000 0.40000000 0.40000000
v -0.05859375 -0.16796875 -0.06640625 0.40000000 0.40000000 0.40000000
v -0.05859375 -0.16796875 0.06640625 0.40000000 0.40000000 0.40000000
v -0.05859375 -0.16796875 0.07421875 0.40000000 0.40000000 0.40000000
v -0.05859375 -0.07421875 -0.07421875 0.40000000 0.40000000 0.40000000
v -0.05859375 -0.07421875 -0.06640625 0.40000000 0.40000000 0.40000000
v -0.05859375 -0.07421875 0.06640625 0.40000000 0.40000000 0.40000000
v -0.05859375 -0.07421875 0.07421875 0.40000000 0.40000000 0.40000000
v -0.05859375 -0.06640625 -0.07421875 0.40000000 0.40000000 0.40000000
v -0.05859375 -0.06640625 -0.06640625 0.40000000 0.40000000 0.40000000
v -0.05859375 -0.06640625 0.06640625 0.40000000 0.40000000 0.40000000
v -0.05859375 -0.06640625 0.07421875 0.40000000 0.40000000 0.40000000
v -0.05859375 -0.05859375 -0.07421875 0.40000000 0.40000000 0.40000000
v -0.05859375 -0.05859375 -0.06640625 0.40000000 0.40000000 0.40000000
v -0.05859375 -0.05859375 0.07421875 0.40000000 0.40000000 0.40000000
v -0.05859375 -0.05078125 -0.07421875 0.40000000 0.40000000 0.40000000
v -0.05859375 0.01953125 -0.07421875 0.40000000 0.40000000 0.40000000
v -0.05859375 0.01953125 -0.06640625 0.40000000 0.40000000 0.40000000
v -0.05859375 0.01953125 0.06640625 0.40000000 0.40000000 0.40000000
v -0.05859375 0.01953125 0.07421875 0.40000000 0.40000000 0.40000000
v -0.05859375 0.03515625 -0.07421875 0.40000000 0.40000000 0.40000000
v -0.05859375 0.03515625 -0.06640625 0.40000000 0.40000000 0.40000000
v -0.05859375 0.03515625 0.05078125 0.40000000 0.40000000 0.40000000
v -0.05859375 0.10546875 -0.07421875 0.40000000 0.40000000 0.40000000
v -0.05859375 0.10546875 -0.06640625 0.40000000 0.40000000 0.40000000
v -0.05859375 0.10546875 0.05078125 0.40000000 0.40000000 0.40000000
v -0.05859375 0.11328125 -0.07421875 0.40000000 0.40000000 0.40000000
v -0.05859375 0.11328125 -0.06640625 0.40000000 0.40000000 0.40000000
v -0.05859375 0.11328125 0.06640625 0.40000000 0.40000000 0.40000000
v -0.05859375 0.11328125 0.07421875 0.40000000 0.40000000 0.40000000
v -0.05859375 0.41015625 -0.07421875 0.40000000 0.40000000 0.40000000
v -0.05859375 0.41796875 -0.07421875 0.40000000 0.40000000 0.40000000
v -0.05859375 0.41796875 -0.06640625 0.40000000 0.40000000 0.40000000
v -0.05859375 0.41796875 0.06640625 0.40000000 0.40000000 0.40000000
v -0.05859375 0.41796875 0.07421875 0.40000000 0.40000000 0.40000000
v -0.05859375 0.42578125 -0.07421875 0.40000000 0.40000000 0.40000000
v -0.05859375 0.42578125 -0.06640625 0.40000000 0.40000000 0.40000000
v -0.05859375 0.42578125 0.06640625 0.40000000 0.40000000 0.40000000
v -0.05859375 0.42578125 0.07421875 0.40000000 0.40000000 0.40000000
v -0.05859375 0.48046875 -0.07421875 0.40000000 0.40000000 0.40000000
v -0.05859375 0.48046875 -0.06640625 0.40000000 0.40000000 0.40000000
v -0.05859375 0.48046875 0.06640625 0.40000000 0.40000000 0.40000000
v -0.05859375 0.48046875 0.07421875 0.40000000 0.40000000 0.40000000
v -0.05078125 -0.49609375 -0.02734375 0.40000000 0.40000000 0.40000000
v -0.05078125 -0.49609375 0.05078125 0.40000000 0.40000000 0.40000000
v -0.05078125 -0.48046875 -0.02734375 0.40000000 0.40000000 0.40000000
v -0.05078125 -0.48046875 0.05078125 0.40000000 0.40000000 0.40000000
v -0.05078125 -0.18359375 -0.07421875 0.40000000 0.40000000 0.40000000
v -0.05078125 -0.18359375 0.05078125 0.40000000 0.40000000 0.40000000
v -0.05078125 -0.16796875 -0.07421875 0.40000000 0.40000000 0.40000000
v -0.05078125 -0.16796875 -0.06640625 0.40000000 0.40000000 0.40000000
v -0.05078125 -0.16796875 0.05078125 0.40000000 0.40000000 0.40000000
v -0.05078125 -0.07421875 -0.07421875 0.40000000 0.40000000 0.40000000
v -0.05078125 -0.07421875 -0.06640625 0.40000000 0.40000000 0.40000000
v -0.05078125 -0.07421875 0.07421875 0.40000000 0.40000000 0.40000000
v -0.05078125 -0.05859375 -0.07421875 0.40000000 0.40000000 0.40000000
v -0.05078125 -0.05859375 0.07421875 0.40000000 0.40000000 0.40000000
v -0.05078125 -0.05078125 -0.07421875 0.40000000 0.40000000 0.40000000
v -0.05078125 0.10546875 -0.07421875 0.40000000 0.40000000 0.40000000
v -0.05078125 0.10546875 -0.06640625 0.40000000 0.40000000 0.40000000
v -0.05078125 0.11328125 -0.07421875 0.40000000 0.40000000 0.40000000
v -0.05078125 0.11328125 -0.06640625 0.40000000 0.40000000 0.40000000
v -0.05078125 0.41015625 -0.07421875 0.40000000 0.40000000 0.40000000
v -0.05078125 0.41015625 -0.06640625 0.40000000 0.40000000 0.40000000
v -0.05078125 0.42578125 -0.07421875 0.40000000 0.40000000 0.40000000
v -0.05078125 0.42578125 -0.06640625 0.40000000 0.40000000 0.40000000
v -0.05078125 0.48046875 -0.07421875 0.40000000 0.40000000 0.40000000
v -0.01953125 0.41015625 -0.07421875 0.40000000 0.40000000 0.40000000
v -0.01953125 0.41015625 -0.06640625 0.40000000 0.40000000 0.40000000
v -0.01953125 0.41796875 -0.07421875 0.40000000 0.40000000 0.40000000
v -0.01953125 0.41796875 -0.06640625 0.40000000 0.40000000 0.40000000
v -0.01953125 0.41796875 0.05078125 0.40000000 0.40000000 0.40000000
v -0.01953125 0.42578125 -0.07421875 0.40000000 0.40000000 0.40000000
v -0.01953125 0.42578125 -0.06640625 0.40000000 0.40000000 0.40000000
v -0.01953125 0.42578125 0.05078125 0.40000000 0.40000000 0.40000000
v 0.00390625 -0.18359375 -0.07421875 0.40000000 0.40000000 0.40000000
v 0.00390625 -0.18359375 0.05078125 0.40000000 0.40000000 0.40000000
v 0.00390625 -0.16796875 -0.07421875 0.40000000 0.40000000 0.40000000
v 0.00390625 -0.16796875 0.05078125 0.40000000 0.40000000 0.40000000
v 0.01171875 -0.48046875 -0.07421875 0.40000000 0.40000000 0.40000000
v 0.01171875 -0.48046875 -0.06640625 0.40000000 0.40000000 0.40000000
v 0.01171875 -0.48046875 0.06640625 0.40000000 0.40000000 0.40000000
v 0.01171875 -0.48046875 0.07421875 0.40000000 0.40000000 0.40000000
v 0.01171875 -0.40234375 0.07421875 0.40000000 0.40000000 0.40000000
v 0.01171875 -0.39453125 -0.07421875 0.40000000 0.40000000 0.40000000
v 0.01171875 -0.39453125 -0.06640625 0.40000000 0.40000000 0.40000000
v 0.01171875 -0.39453125 0.06640625 0.40000000 0.40000000 0.40000000
v 0.01171875 -0.39453125 0.07421875 0.40000000 0.40000000 0.40000000
v 0.01171875 -0.19140625 -0.07421875 0.40000000 0.40000000 0.40000000
v 0.01171875 -0.19140625 -0.06640625 0.40000000 0.40000000 0.40000000
v 0.01171875 -0.18359375 -0.07421875 0.40000000 0.40000000 0.40000000
v 0.01171875 -0.18359375 -0.06640625 0.40000000 0.40000000 0.40000000
v 0.01171875 -0.18359375 0.06640625 0.40000000 0.40000000 0.40000000
v 0.01171875 -0.18359375 0.07421875 0.40000000 0.40000000 0.40000000
v 0.01171875 -0.17578125 0.07421875 0.40000000 0.40000000 0.40000000
v 0.01171875 -0.16796875 -0.07421875 0.40000000 0.40000000 0.40000000
v 0.01171875 -0.16796875 -0.06640625 0.40000000 0.40000000 0.40000000
v 0.01171875 -0.16796875 0.06640625 0.40000000 0.40000000 0.40000000
v 0.01171875 -0.16796875 0.07421875 0.40000000 0.40000000 0.40000000
v 0.01171875 -0.07421875 -0.07421875 0.40000000 0.40000000 0.40000000
v 0.01171875 -0.07421875 -0.06640625 0.40000000 0.40000000 0.40000000
v 0.01171875 -0.07421875 0.06640625 0.40000000 0.40000000 0.40000000
v 0.01171875 -0.07421875 0.07421875 0.40000000 0.40000000 0.40000000
v 0.01953125 -0.49609375 -0.07421875 0.40000000 0.40000000 0.40000000
v 0.01953125 -0.49609375 0.07421875 0.40000000 0.40000000 0.40000000
v 0.01953125 -0.48828125 -0.07421875 0.40000000 0.40000000 0.40000000
v 0.01953125 -0.48828125 0.07421875 0.40000000 0.40000000 0.40000000
v 0.01953125 -0.39453125 -0.07421875 0.40000000 0.40000000 0.40000000
v 0.01953125 -0.39453125 0.07421875 0.40000000 0.40000000 0.40000000
v 0.01953125 -0.17578125 -0.07421875 0.40000000 0.40000000 0.40000000
v 0.01953125 -0.17578125 0.07421875 0.40000000 0.40000000 0.40000000
v 0.01953125 -0.06640625 0.07421875 0.40000000 0.40000000 0.40000000
v 0.01953125 -0.05859375 0.07421875 0.40000000 0.40000000 0.40000000
v 0.03515625 -0.48046875 -0.07421875 0.40000000 0.40000000 0.40000000
v 0.03515625 -0.48046875 -0.06640625 0.40000000 0.40000000 0.40000000
v 0.03515625 -0.48046875 0.06640625 0.40000000 0.40000000 0.40000000
v 0.03515625 -0.48046875 0.07421875 0.40000000 0.40000000 0.40000000
v 0.03515625 -0.40234375 -0.07421875 0.40000000 0.40000000 0.40000000
v 0.03515625 -0.40234375 -0.06640625 0.40000000 0.40000000 0.40000000
v 0.03515625 -0.40234375 0.06640625 0.40000000 0.40000000 0.40000000
v 0.03515625 -0.40234375 0.07421875 0.40000000 0.40000000 0.40000000
v 0.03515625 -0.38671875 -0.07421875 0.40000000 0.40000000 0.40000000
v 0.03515625 -0.38671875 -0.06640625 0.40000000 0.40000000 0.40000000
v 0.03515625 -0.38671875 0.06640625 0.40000000 0.40000000 0.40000000
v 0.03515625 -0.38671875 0.07421875 0.40000000 0.40000000 0.40000000
v 0.03515625 -0.17578125 -0.07421875 0.40000000 0.40000000 0.40000000
v 0.03515625 -0.17578125 -0.06640625 0.40000000 0.40000000 0.40000000
v 0.03515625 -0.17578125 0.06640625 0.40000000 0.40000000 0.40000000
v 0.03515625 -0.17578125 0.07421875 0.40000000 0.40000000 0.40000000
v 0.03515625 -0.08984375 -0.07421875 0.40000000 0.40000000 0.40000000
v 0.03515625 -0.08984375 -0.06640625 0.40000000 0.40000000 0.40000000
v 0.03515625 -0.08984375 0.06640625 0.40000000 0.40000000 0.40000000
v 0.03515625 -0.08984375 0.07421875 0.40000000 0.40000000 0.40000000
v 0.03515625 -0.07421875 -0.07421875 0.40000000 0.40000000 0.40000000
v 0.03515625 -0.07421875 -0.06640625 0.40000000 0.40000000 0.40000000
v 0.03515625 -0.07421875 0.07421875 0.40000000 0.40000000 0.40000000
v 0.04296875 -0.49609375 -0.06640625 0.40000000 0.40000000 0.40000000
v 0.04296875 -0.49609375 0.06640625 0.40000000 0.40000000 0.40000000
v 0.04296875 -0.48046875 -0.07421875 0.40000000 0.40000000 0.40000000
v 0.04296875 -0.48046875 -0.06640625 0.40000000 0.40000000 0.40000000
v 0.04296875 -0.48046875 0.06640625 0.40000000 0.40000000 0.40000000
v 0.04296875 -0.40234375 -0.07421875 0.40000000 0.40000000 0.40000000
v 0.04296875 -0.40234375 -0.06640625 0.40000000 0.40000000 0.40000000
v 0.04296875 -0.08984375 -0.07421875 0.40000000 0.40000000 0.40000000
v 0.04296875 -0.08984375 -0.06640625 0.40000000 0.40000000 0.40000000
v 0.04296875 -0.08984375 0.05078125 0.40000000 0.40000000 0.40000000
v 0.04296875 -0.07421875 -0.07421875 0.40000000 0.40000000 0.40000000
v 0.04296875 -0.07421875 0.05078125 0.40000000 0.40000000 0.40000000
v 0.05859375 -0.40234375 -0.07421875 0.40000000 0.40000000 0.40000000
v 0.05859375 -0.40234375 -0.06640625 0.40000000 0.40000000 0.40000000
v 0.05859375 -0.40234375 0.05078125 0.40000000 0.40000000 0.40000000
v 0.05859375 -0.38671875 -0.07421875 0.40000000 0.40000000 0.40000000
v 0.05859375 -0.38671875 -0.06640625 0.40000000 0.40000000 0.40000000
v 0.05859375 -0.38671875 0.05078125 0.40000000 0.40000000 0.40000000
v 0.09765625 -0.08984375 -0.07421875 0.40000000 0.40000000 0.40000000
v 0.09765625 -0.08984375 0.05078125 0.40000000 0.40000000 0.40000000
v 0.09765625 -0.07421875 -0.07421875 0.40000000 0.40000000 0.40000000
v 0.09765625 -0.07421875 0.05078125 0.40000000 0.40000000 0.40000000
v 0.10546875 -0.08984375 -0.07421875 0.40000000 0.40000000 0.40000000
v 0.10546875 -0.08984375 -0.06640625 0.40000000 0.40000000 0.40000000
v 0.10546875 -0.07421875 -0.07421875 0.40000000 0.40000000 0.40000000
v 0.10546875 -0.07421875 -0.06640625 0.40000000 0.40000000 0.40000000
v 0.13671875 0.41015625 -0.07421875 0.40000000 0.40000000 0.40000000
v 0.13671875 0.41015625 -0.06640625 0.40000000 0.40000000 0.40000000
v 0.13671875 0.42578125 -0.07421875 0.40000000 0.40000000 0.40000000
v 0.13671875 0.42578125 -0.06640625 0.40000000 0.40000000 0.40000000
v 0.14453125 0.41015625 -0.07421875 0.40000000 0.40000000 0.40000000
v 0.14453125 0.41015625 -0.06640625 0.40000000 0.40000000 0.40000000
v 0.14453125 0.41796875 -0.07421875 0.40000000 0.40000000 0.40000000
v 0.14453125 0.41796875 -0.06640625 0.40000000 0.40000000 0.40000000
v 0.14453125 0.41796875 0.05078125 0.40000000 0.40000000 0.40000000
v 0.14453125 0.42578125 -0.07421875 0.40000000 0.40000000 0.40000000
v 0.14453125 0.42578125 -0.06640625 0.40000000 0.40000000 0.40000000
v 0.14453125 0.42578125 0.05078125 0.40000000 0.40000000 0.40000000
v 0.16015625 0.42578125 -0.07421875 0.40000000 0.40000000 0.40000000
v 0.16015625 0.42578125 0.06640625 0.40000000 0.40000000 0.40000000
v 0.16015625 0.42578125 0.07421875 0.40000000 0.40000000 0.40000000
v 0.16015625 0.43359375 -0.06640625 0.40000000 0.40000000 0.40000000
v 0.16015625 0.43359375 0.06640625 0.40000000 0.40000000 0.40000000
v 0.16015625 0.48046875 -0.07421875 0.40000000 0.40000000 0.40000000
v 0.16015625 0.48046875 -0.06640625 0.40000000 0.40000000 0.40000000
v 0.16015625 0.48046875 0.06640625 0.40000000 0.40000000 0.40000000
v 0.16015625 0.48046875 0.07421875 0.40000000 0.40000000 0.40000000
v 0.16796875 0.41015625 -0.07421875 0.40000000 0.40000000 0.40000000
v 0.16796875 0.41015625 -0.06640625 0.40000000 0.40000000 0.40000000
v 0.16796875 0.41796875 -0.07421875 0.40000000 0.40000000 0.40000000
v 0.16796875 0.41796875 -0.06640625 0.40000000 0.40000000 0.40000000
v 0.16796875 0.41796875 0.06640625 0.40000000 0.40000000 0.40000000
v 0.16796875 0.41796875 0.07421875 0.40000000 0.40000000 0.40000000
v 0.16796875 0.42578125 -0.07421875 0.40000000 0.40000000 0.40000000
v 0.16796875 0.42578125 0.07421875 0.40000000 0.40000000 0.40000000
v 0.17578125 0.42578125 -0.07421875 0.40000000 0.40000000 0.40000000
v 0.17578125 0.42578125 0.07421875 0.40000000 0.40000000 0.40000000
v 0.17578125 0.43359375 -0.06640625 0.40000000 0.40000000 0.40000000
v 0.17578125 0.43359375 0.06640625 0.40000000 0.40000000 0.40000000
v 0.17578125 0.48046875 -0.06640625 0.40000000 0.40000000 0.40000000
v 0.17578125 0.48046875 0.06640625 0.40000000 0.40000000 0.40000000
v 0.17578125 0.49609375 -0.07421875 0.40000000 0.40000000 0.40000000
v 0.17578125 0.49609375 0.07421875 0.40000000 0.40000000 0.40000000
v 0.18359375 -0.49609375 -0.06640625 0.40000000 0.40000000 0.40000000
v 0.18359375 -0.49609375 0.06640625 0.40000000 0.40000000 0.40000000
v 0.18359375 -0.48046875 -0.06640625 0.40000000 0.40000000 0.40000000
v 0.18359375 -0.48046875 0.06640625 0.40000000 0.40000000 0.40000000
v 0.18359375 -0.40234375 -0.07421875 0.40000000 0.40000000 0.40000000
v 0.18359375 -0.40234375 -0.06640625 0.40000000 0.40000000 0.40000000
v 0.18359375 -0.40234375 0.05078125 0.40000000 0.40000000 0.40000000
v 0.18359375 -0.38671875 -0.07421875 0.40000000 0.40000000 0.40000000
v 0.18359375 -0.38671875 -0.06640625 0.40000000 0.40000000 0.40000000
v 0.18359375 -0.38671875 0.05078125 0.40000000 0.40000000 0.40000000
v 0.19140625 -0.48046875 -0.07421875 0.40000000 0.40000000 0.40000000
v 0.19140625 -0.48046875 -0.06640625 0.40000000 0.40000000 0.40000000
v 0.19140625 -0.40234375 -0.07421875 0.40000000 0.40000000 0.40000000
v 0.19140625 -0.40234375 -0.06640625 0.40000000 0.40000000 0.40000000
v 0.19140625 -0.38671875 -0.07421875 0.40000000 0.40000000 0.40000000
v 0.19140625 -0.38671875 -0.06640625 0.40000000 0.40000000 0.40000000
v 0.19140625 -0.08984375 -0.07421875 0.40000000 0.40000000 0.40000000
v 0.19140625 -0.08984375 -0.06640625 0.40000000 0.40000000 0.40000000
v 0.19140625 -0.07421875 -0.07421875 0.40000000 0.40000000 0.40000000
v 0.19140625 -0.06640625 -0.07421875 0.40000000 0.40000000 0.40000000
v 0.19140625 0.01171875 -0.07421875 0.40000000 0.40000000 0.40000000
v 0.19140625 0.01171875 -0.06640625 0.40000000 0.40000000 0.40000000
v 0.19140625 0.41015625 -0.07421875 0.40000000 0.40000000 0.40000000
v 0.19140625 0.41015625 -0.06640625 0.40000000 0.40000000 0.40000000
v 0.19921875 -0.48046875 -0.07421875 0.40000000 0.40000000 0.40000000
v 0.19921875 -0.48046875 -0.06640625 0.40000000 0.40000000 0.40000000
v 0.19921875 -0.48046875 0.06640625 0.40000000 0.40000000 0.40000000
v 0.19921875 -0.48046875 0.07421875 0.40000000 0.40000000 0.40000000
v 0.19921875 -0.40234375 -0.07421875 0.40000000 0.40000000 0.40000000
v 0.19921875 -0.40234375 -0.06640625 0.40000000 0.40000000 0.40000000
v 0.19921875 -0.40234375 0.06640625 0.40000000 0.40000000 0.40000000
v 0.19921875 -0.40234375 0.07421875 0.40000000 0.40000000 0.40000000
v 0.19921875 -0.38671875 -0.07421875 0.40000000 0.40000000 0.40000000
v 0.19921875 -0.38671875 -0.06640625 0.40000000 0.40000000 0.40000000
v 0.19921875 -0.38671875 0.06640625 0.40000000 0.40000000 0.40000000
v 0.19921875 -0.38671875 0.07421875 0.40000000 0.40000000 0.40000000
v 0.19921875 -0.08984375 -0.07421875 0.40000000 0.40000000 0.40000000
v 0.19921875 -0.08984375 -0.06640625 0.40000000 0.40000000 0.40000000
v 0.19921875 -0.08984375 0.06640625 0.40000000 0.40000000 0.40000000
v 0.19921875 -0.08984375 0.07421875 0.40000000 0.40000000 0.40000000
v 0.19921875 -0.07421875 -0.07421875 0.40000000 0.40000000 0.40000000
v 0.19921875 -0.07421875 -0.06640625 0.40000000 0.40000000 0.40000000
v 0.19921875 -0.07421875 0.05078125 0.40000000 0.40000000 0.40000000
v 0.19921875 -0.07421875 0.06640625 0.40000000 0.40000000 0.40000000
v 0.19921875 -0.07421875 0.07421875 0.40000000 0.40000000 0.40000000
v 0.19921875 -0.05859375 0.07421875 0.40000000 0.40000000 0.40000000
v 0.19921875 0.00390625 -0.07421875 0.40000000 0.40000000 0.40000000
v 0.19921875 0.00390625 0.05078125 0.40000000 0.40000000 0.40000000
v 0.19921875 0.01171875 -0.07421875 0.40000000 0.40000000 0.40000000
v 0.19921875 0.01171875 -0.06640625 0.40000000 0.40000000 0.40000000
v 0.19921875 0.41796875 -0.07421875 0.40000000 0.40000000 0.40000000
v 0.19921875 0.41796875 -0.06640625 0.40000000 0.40000000 0.40000000
v 0.19921875 0.41796875 0.06640625 0.40000000 0.40000000 0.40000000
v 0.19921875 0.41796875 0.07421875 0.40000000 0.40000000 0.40000000
v 0.20703125 -0.39453125 -0.07421875 0.40000000 0.40000000 0.40000000
v 0.20703125 -0.39453125 0.07421875 0.40000000 0.40000000 0.40000000
v 0.20703125 -0.08203125 -0.07421875 0.40000000 0.40000000 0.40000000
v 0.20703125 -0.08203125 0.07421875 0.40000000 0.40000000 0.40000000
v 0.21484375 -0.49609375 -0.07421875 0.40000000 0.40000000 0.40000000
v 0.21484375 -0.49609375 0.07421875 0.40000000 0.40000000 0.40000000
v 0.21484375 -0.39453125 -0.07421875 0.40000000 0.40000000 0.40000000
v 0.21484375 -0.39453125 0.07421875 0.40000000 0.40000000 0.40000000
v 0.21484375 -0.08203125 -0.07421875 0.40000000 0.40000000 0.40000000
v 0.21484375 -0.08203125 0.07421875 0.40000000 0.40000000 0.40000000
v 0.21484375 -0.07421875 -0.07421875 0.40000000 0.40000000 0.40000000
v 0.21484375 -0.07421875 0.05078125 0.40000000 0.40000000 0.40000000
v 0.21484375 0.00390625 -0.07421875 0.40000000 0.40000000 0.40000000
v 0.21484375 0.00390625 0.05078125 0.40000000 0.40000000 0.40000000
v 0.21484375 0.42578125 -0.07421875 0.40000000 0.40000000 0.40000000
v 0.21484375 0.42578125 0.07421875 0.40000000 0.40000000 0.40000000
v -0.16015625 -0.41796875 -0.07421875 0.31372549 0.78431373 0.94117647
v -0.07421875 -0.41796875 -0.07421875 0.31372549 0.78431373 0.94117647
v -0.07421875 -0.28515625 -0.07421875 0.31372549 0.78431373 0.94117647
v -0.16015625 -0.28515625 -0.07421875 0.50980392 0.64705882 0.60784314
v -0.16015625 -0.41796875 0.05859375 0.31372549 0.78431373 0.94117647
v -0.07421875 -0.41796875 0.05859375 0.31372549 0.78431373 0.94117647
v -0.07421875 -0.28515625 0.05859375 0.31372549 0.78431373 0.94117647
v -0.16015625 -0.28515625 0.05859375 0.31372549 0.78431373 0.94117647
v 0.13671875 -0.30859375 -0.07421875 0.78431373 0.78431373 0.31372549
v 0.19921875 -0.30859375 -0.07421875 0.78431373 0.78431373 0.31372549
v 0.19921875 -0.26171875 -0.07421875 0.78431373 0.78431373 0.31372549
v 0.13671875 -0.26171875 -0.07421875 0.78431373 0.78431373 0.31372549
v 0.13671875 -0.30859375 -0.03515625 0.78431373 0.78431373 0.31372549
v 0.19921875 -0.30859375 -0.03515625 0.78431373 0.78431373 0.31372549
v 0.19921875 -0.26171875 -0.03515625 0.78431373 0.78431373 0.31372549
v 0.13671875 -0.26171875 -0.03515625 0.78431373 0.78431373 0.31372549
v 0.08203125 -0.22265625 -0.07421875 0.31372549 0.78431373 0.94117647
v 0.18359375 -0.22265625 -0.07421875 0.31372549 0.78431373 0.94117647
v 0.18359375 -0.12890625 -0.07421875 0.31372549 0.78431373 0.94117647
v 0.08203125 -0.12890625 -0.07421875 0.31372549 0.78431373 0.94117647
v 0.08203125 -0.22265625 0.04296875 0.24313725 0.78431373 0.97647059
v 0.18359375 -0.22265625 0.04296875 0.31372549 0.78431373 0.94117647
v 0.18359375 -0.12890625 0.04296875 0.31372549 0.78431373 0.94117647
v 0.08203125 -0.12890625 0.04296875 0.31372549 0.78431373 0.94117647
v -0.20703125 -0.28515625 -0.07421875 0.70588235 0.50980392 0.27450980
v -0.16015625 -0.24609375 -0.07421875 0.70588235 0.50980392 0.27450980
v -0.20703125 -0.24609375 -0.07421875 0.70588235 0.50980392 0.27450980
v -0.20703125 -0.28515625 -0.05859375 0.70588235 0.50980392 0.27450980
v -0.16015625 -0.28515625 -0.05859375 0.70588235 0.50980392 0.27450980
v -0.16015625 -0.24609375 -0.05859375 0.70588235 0.50980392 0.27450980
v -0.20703125 -0.24609375 -0.05859375 0.70588235 0.50980392 0.27450980
v 0.12109375 -0.28515625 -0.07421875 0.78431373 0.39215686 0.78431373
v 0.17578125 -0.28515625 -0.07421875 0.78431373 0.39215686 0.78431373
v 0.17578125 -0.25390625 -0.07421875 0.78431373 0.39215686 0.78431373
v 0.12109375 -0.25390625 -0.07421875 0.78431373 0.39215686 0.78431373
v 0.12109375 -0.28515625 -0.05078125 0.78431373 0.39215686 0.78431373
v 0.17578125 -0.28515625 -0.05078125 0.78431373 0.39215686 0.78431373
v 0.17578125 -0.25390625 -0.05078125 0.78431373 0.39215686 0.78431373
v 0.12109375 -0.25390625 -0.05078125 0.78431373 0.39215686 0.78431373
v 0.09765625 0.00390625 -0.07421875 0.78431373 0.39215686 0.78431373
v 0.15234375 0.00390625 -0.07421875 0.78431373 0.39215686 0.78431373
v 0.15234375 0.05078125 -0.07421875 0.78431373 0.39215686 0.78431373
v 0.09765625 0.05078125 -0.07421875 0.78431373 0.39215686 0.78431373
v 0.09765625 0.00390625 -0.04296875 0.78431373 0.39215686 0.78431373
v 0.15234375 0.00390625 -0.04296875 0.78431373 0.39215686 0.78431373
v 0.15234375 0.05078125 -0.04296875 0.78431373 0.39215686 0.78431373
v 0.09765625 0.05078125 -0.04296875 0.78431373 0.39215686 0.78431373
v 0.08984375 0.02734375 -0.07421875 0.78431373 0.78431373 0.31372549
v 0.16796875 0.02734375 -0.07421875 0.78431373 0.78431373 0.31372549
v 0.16796875 0.09765625 -0.07421875 0.78431373 0.78431373 0.31372549
v 0.08984375 0.09765625 -0.07421875 0.78431373 0.78431373 0.31372549
v 0.08984375 0.02734375 0.01171875 0.78431373 0.78431373 0.31372549
v 0.16796875 0.02734375 0.01171875 0.78431373 0.78431373 0.31372549
v 0.16796875 0.09765625 0.01171875 0.78431373 0.78431373 0.31372549
v 0.08984375 0.09765625 0.01171875 0.78431373 0.78431373 0.31372549
v 0.05859375 0.05859375 -0.07421875 0.78431373 0.39215686 0.78431373
v 0.11328125 0.05859375 -0.07421875 0.78431373 0.39215686 0.78431373
v 0.11328125 0.09765625 -0.07421875 0.78431373 0.39215686 0.78431373
v 0.05859375 0.09765625 -0.07421875 0.78431373 0.39215686 0.78431373
v 0.05859375 0.05859375 -0.04296875 0.78431373 0.39215686 0.78431373
v 0.11328125 0.05859375 -0.04296875 0.78431373 0.39215686 0.78431373
v 0.11328125 0.09765625 -0.04296875 0.78431373 0.39215686 0.78431373
v 0.05859375 0.09765625 -0.04296875 0.78431373 0.39215686 0.78431373
v 0.04296875 0.16015625 -0.07421875 0.31372549 0.47058824 0.62745098
v 0.13671875 0.16015625 -0.07421875 0.31372549 0.47058824 0.62745098
v 0.13671875 0.19140625 -0.07421875 0.31372549 0.47058824 0.62745098
v 0.04296875 0.19140625 -0.07421875 0.31372549 0.47058824 0.62745098
v 0.04296875 0.16015625 -0.03515625 0.31372549 0.47058824 0.62745098
v 0.13671875 0.16015625 -0.03515625 0.31372549 0.47058824 0.62745098
v 0.13671875 0.19140625 -0.03515625 0.31372549 0.47058824 0.62745098
v 0.04296875 0.19140625 -0.03515625 0.31372549 0.47058824 0.62745098
v -0.05859375 0.21484375 -0.07421875 0.70588235 0.50980392 0.27450980
v -0.01953125 0.21484375 -0.07421875 0.70588235 0.50980392 0.27450980
v -0.01953125 0.32421875 -0.07421875 0.70588235 0.50980392 0.27450980
v -0.05859375 0.32421875 -0.07421875 0.70588235 0.50980392 0.27450980
v -0.05859375 0.21484375 -0.05859375 0.70588235 0.50980392 0.27450980
v -0.01953125 0.21484375 -0.05859375 0.70588235 0.50980392 0.27450980
v -0.01953125 0.32421875 -0.05859375 0.70588235 0.50980392 0.27450980
v -0.05859375 0.32421875 -0.05859375 0.70588235 0.50980392 0.27450980
v 0.06640625 0.22265625 -0.07421875 0.70588235 0.50980392 0.27450980
v 0.10546875 0.22265625 -0.07421875 0.70588235 0.50980392 0.27450980
v 0.10546875 0.29296875 -0.07421875 0.70588235 0.50980392 0.27450980
v 0.06640625 0.29296875 -0.07421875 0.70588235 0.50980392 0.27450980
v 0.06640625 0.22265625 -0.02734375 0.70588235 0.50980392 0.27450980
v 0.10546875 0.22265625 -0.02734375 0.70588235 0.50980392 0.27450980
v 0.10546875 0.29296875 -0.02734375 0.70588235 0.50980392 0.27450980
v 0.06640625 0.29296875 -0.02734375 0.70588235 0.50980392 0.27450980
v 0.08984375 0.30078125 -0.07421875 0.00000000 0.54901961 1.00000000
v 0.16015625 0.30078125 -0.07421875 0.00000000 0.54901961 1.00000000
v 0.16015625 0.39453125 -0.07421875 0.00000000 0.54901961 1.00000000
v 0.08984375 0.39453125 -0.07421875 0.00000000 0.54901961 1.00000000
v 0.08984375 0.30078125 -0.01953125 0.00000000 0.54901961 1.00000000
v 0.16015625 0.30078125 -0.01953125 0.00000000 0.54901961 1.00000000
v 0.16015625 0.39453125 -0.01953125 0.00000000 0.54901961 1.00000000
v 0.08984375 0.39453125 -0.01953125 0.00000000 0.54901961 1.00000000
v 0.05078125 0.34765625 -0.07421875 0.00000000 0.54901961 1.00000000
v 0.11328125 0.34765625 -0.07421875 0.00000000 0.54901961 1.00000000
v 0.11328125 0.41015625 -0.07421875 0.00000000 0.54901961 1.00000000
v 0.05078125 0.41015625 -0.07421875 0.00000000 0.54901961 1.00000000
v 0.05078125 0.34765625 -0.01953125 0.00000000 0.54901961 1.00000000
v 0.11328125 0.34765625 -0.01953125 0.00000000 0.54901961 1.00000000
v 0.11328125 0.41015625 -0.01953125 0.00000000 0.54901961 1.00000000
v 0.05078125 0.41015625 -0.01953125 0.00000000 0.54901961 1.00000000
v -0.13671875 -0.35546875 0.01953125 0.19607843 0.78431373 1.00000000
v -0.07421875 -0.35546875 0.01953125 0.19607843 0.78431373 1.00000000
v -0.07421875 -0.30078125 0.01953125 0.19607843 0.78431373 1.00000000
v -0.13671875 -0.30078125 0.01953125 0.19607843 0.78431373 1.00000000
v -0.13671875 -0.35546875 0.06640625 0.19607843 0.78431373 1.00000000
v -0.07421875 -0.35546875 0.06640625 0.19607843 0.78431373 1.00000000
v -0.07421875 -0.30078125 0.06640625 0.19607843 0.78431373 1.00000000
v -0.13671875 -0.30078125 0.06640625 0.19607843 0.78431373 1.00000000
v 0.02734375 0.20703125 0.01953125 0.19607843 0.78431373 1.00000000
v 0.09765625 0.20703125 0.01953125 0.19607843 0.78431373 1.00000000
v 0.09765625 0.27734375 0.01953125 0.19607843 0.78431373 1.00000000
v 0.02734375 0.27734375 0.01953125 0.19607843 0.78431373 1.00000000
v 0.02734375 0.20703125 0.08203125 0.19607843 0.78431373 1.00000000
v 0.09765625 0.20703125 0.08203125 0.19607843 0.78431373 1.00000000
v 0.09765625 0.27734375 0.08203125 0.19607843 0.78431373 1.00000000
v 0.02734375 0.27734375 0.08203125 0.19607843 0.78431373 1.00000000
v 0.13671875 -0.22265625 0.04296875 0.19607843 0.78431373 1.00000000
v 0.13671875 -0.16015625 0.04296875 0.19607843 0.78431373 1.00000000
v 0.08203125 -0.16015625 0.04296875 0.19607843 0.78431373 1.00000000
v 0.08203125 -0.22265625 0.08984375 0.19607843 0.78431373 1.00000000
v 0.13671875 -0.22265625 0.08984375 0.19607843 0.78431373 1.00000000
v 0.13671875 -0.16015625 0.08984375 0.19607843 0.78431373 1.00000000
v 0.08203125 -0.16015625 0.08984375 0.19607843 0.78431373 1.00000000
v 0.03515625 0.01953125 0.05078125 0.19607843 0.78431373 1.00000000
v 0.12890625 0.01953125 0.05078125 0.19607843 0.78431373 1.00000000
v 0.12890625 0.10546875 0.05078125 0.19607843 0.78431373 1.00000000
v 0.03515625 0.10546875 0.05078125 0.19607843 0.78431373 1.00000000
v 0.03515625 0.01953125 0.07421875 0.19607843 0.78431373 1.00000000
v 0.12890625 0.01953125 0.07421875 0.19607843 0.78431373 1.00000000
v 0.12890625 0.10546875 0.07421875 0.19607843 0.78431373 1.00000000
v 0.03515625 0.10546875 0.07421875 0.19607843 0.78431373 1.00000000
f 1 268 60
f 1 60 61
f 60 268 208
f 268 1 244
f 1 61 2
f 61 60 62
f 60 208 62
f 208 268 269
f 268 244 270
f 244 1 17
f 1 2 3
f 2 61 269
f 61 62 63
f 62 208 210
f 208 269 209
f 269 268 302
f 268 270 278
f 270 244 249
f 244 17 210
f 17 1 11
f 1 3 11
f 3 2 4
f 2 269 247
f 269 61 209
f 61 63 211
f 63 62 19
f 62 210 17
f 210 208 211
f 208 209 211
f 269 302 423
f 302 268 301
f 268 278 388
f 278 270 272
f 270 249 272
f 249 244 245
f 249 244 246
f 244 210 211
f 17 244 249
f 17 244 18
f 17 11 21
f 11 3 5
f 3 4 5
f 4 2 12
f 2 247 20
f 247 269 271
f 209 61 211
f 211 63 19
f 19 62 17
f 269 423 391
f 423 302 365
f 302 301 304
f 301 268 422
f 268 388 422
f 388 278 366
f 278 272 282
f 272 249 255
f 249 245 250
f 245 244 42
f 249 246 251
f 246 244 211
f 17 249 255
f 17 18 22
f 18 244 245
f 17 21 23
f 17 21 43
f 21 11 25
f 11 5 13
f 5 4 6
f 4 12 6
f 12 2 20
f 247 271 252
f 271 269 281
f 211 19 246
f 19 17 23
f 269 391 281
f 391 423 419
f 423 365 364
f 365 302 367
f 302 304 305
f 304 301 364
f 301 422 364
f 422 388 418
f 388 366 367
f 366 278 304
f 278 388 392
f 278 388 279
f 278 282 284
f 278 282 306
f 282 272 286
f 272 255 274
f 255 249 251
f 249 250 253
f 42 244 41
f 17 255 137
f 17 22 21
f 22 18 44
f 23 21 137
f 21 17 137
f 17 43 41
f 43 21 135
f 21 25 110
f 25 11 13
f 13 5 7
f 5 6 7
f 6 12 14
f 12 20 24
f 252 271 273
f 271 281 273
f 391 419 395
f 419 423 425
f 423 364 422
f 364 365 367
f 367 302 305
f 305 304 280
f 304 364 366
f 422 418 424
f 418 388 392
f 388 367 390
f 367 366 364
f 304 278 280
f 278 392 282
f 392 388 374
f 392 388 390
f 278 279 283
f 279 388 389
f 278 284 280
f 284 282 315
f 282 278 283
f 278 306 303
f 282 286 313
f 286 272 274
f 274 255 260
f 255 251 257
f 249 255 250
f 253 250 254
f 42 41 44
f 21 22 138
f 22 44 138
f 44 18 42
f 23 137 139
f 137 21 138
f 137 21 110
f 21 137 135
f 41 43 44
f 43 135 136
f 110 25 26
f 25 13 27
f 13 7 15
f 7 6 8
f 6 14 8
f 14 12 26
f 12 24 26
f 252 273 258
f 273 281 285
f 395 419 399
f 419 425 421
f 425 423 422
f 422 424 425
f 424 418 420
f 418 392 396
f 392 374 376
f 388 392 389
f 392 390 394
f 283 279 307
f 284 315 394
f 315 282 313
f 282 283 314
f 303 306 307
f 313 286 316
f 286 274 290
f 274 260 264
f 260 255 242
f 255 257 240
f 250 255 256
f 138 44 136
f 139 137 213
f 137 138 164
f 137 110 141
f 135 137 161
f 44 43 136
f 136 135 162
f 110 26 111
f 26 25 28
f 25 110 114
f 25 27 28
f 27 13 29
f 13 15 29
f 15 7 9
f 7 8 9
f 8 14 16
f 14 26 28
f 26 24 111
f 258 273 275
f 273 285 289
f 395 399 289
f 399 419 403
f 419 421 403
f 421 425 427
f 425 424 427
f 424 420 426
f 420 418 400
f 418 396 400
f 396 392 371
f 376 374 375
f 389 392 393
f 392 394 368
f 307 279 304
f 394 315 370
f 315 313 316
f 313 282 314
f 303 307 304
f 307 306 314
f 316 286 288
f 286 290 288
f 290 274 264
f 264 260 261
f 264 260 262
f 260 242 243
f 242 255 240
f 240 257 241
f 138 136 164
f 139 213 257
f 213 137 212
f 137 164 163
f 138 137 135
f 138 137 136
f 137 141 165
f 141 110 112
f 135 161 162
f 161 137 163
f 137 135 136
f 136 162 164
f 135 136 138
f 110 111 112
f 25 114 27
f 28 27 81
f 27 29 80
f 29 15 31
f 15 9 33
f 9 8 10
f 8 16 10
f 16 14 30
f 14 28 30
f 111 24 140
f 258 275 263
f 275 273 289
f 289 285 395
f 403 421 408
f 421 427 417
f 427 424 426
f 426 420 404
f 420 400 404
f 400 396 378
f 400 396 398
f 396 371 398
f 371 392 368
f 376 375 377
f 375 374 304
f 389 393 375
f 393 392 368
f 368 394 370
f 370 315 373
f 315 316 318
f 316 313 317
f 316 313 368
f 313 314 306
f 313 314 317
f 303 304 374
f 316 288 318
f 286 316 287
f 288 290 292
f 290 286 291
f 290 264 294
f 264 261 265
f 260 264 165
f 264 262 266
f 262 260 243
f 243 242 240
f 240 241 243
f 241 257 213
f 213 212 214
f 212 137 165
f 163 164 161
f 165 141 143
f 141 112 143
f 162 161 164
f 112 111 113
f 28 81 115
f 81 27 80
f 80 29 82
f 29 31 32
f 31 15 33
f 33 9 37
f 9 10 45
f 10 16 36
f 16 30 32
f 30 28 115
f 111 140 142
f 258 263 168
f 263 275 267
f 275 289 293
f 403 408 267
f 408 421 417
f 417 427 433
f 427 426 429
f 426 404 428
f 404 400 321
f 400 378 380
f 396 400 286
f 396 400 397
f 400 398 402
f 398 371 373
f 371 396 372
f 371 368 369
f 371 368 373
f 376 377 368
f 377 375 393
f 393 368 369
f 368 370 373
f 373 315 318
f 316 317 287
f 316 368 371
f 318 288 373
f 286 287 317
f 292 290 296
f 290 291 287
f 291 286 287
f 290 294 296
f 294 264 308
f 264 265 298
f 165 264 173
f 264 266 311
f 262 243 167
f 240 242 214
f 243 241 213
f 213 214 216
f 214 212 240
f 214 212 165
f 165 143 169
f 143 112 114
f 112 113 114
f 113 111 142
f 115 81 107
f 81 80 82
f 82 29 30
f 29 32 30
f 32 31 75
f 31 29 120
f 31 33 74
f 33 37 38
f 37 9 45
f 45 10 46
f 10 36 40
f 36 16 32
f 30 115 117
f 142 140 168
f 258 168 140
f 267 275 293
f 403 267 297
f 417 433 357
f 433 427 429
f 429 426 428
f 428 404 429
f 404 321 322
f 321 400 319
f 380 378 379
f 286 400 294
f 396 397 372
f 397 400 401
f 400 402 319
f 398 373 288
f 371 372 378
f 371 369 372
f 369 368 377
f 296 294 308
f 294 308 295
f 308 264 311
f 298 265 299
f 165 173 175
f 165 173 217
f 173 264 143
f 311 266 312
f 167 243 216
f 243 213 216
f 216 214 167
f 214 165 217
f 214 165 167
f 169 143 146
f 143 114 149
f 114 113 115
f 113 142 145
f 115 107 106
f 107 81 109
f 81 82 83
f 82 80 106
f 82 30 83
f 32 75 122
f 75 31 74
f 120 29 116
f 74 33 76
f 33 38 34
f 38 37 55
f 37 33 54
f 37 45 54
f 45 46 47
f 46 10 40
f 40 36 35
f 36 32 122
f 30 117 109
f 117 115 150
f 142 168 145
f 267 293 297
f 417 357 353
f 357 433 432
f 433 429 431
f 429 404 406
f 404 428 410
f 404 322 407
f 322 321 319
f 380 379 381
f 379 378 372
f 397 401 379
f 401 400 323
f 319 402 320
f 296 308 310
f 295 308 309
f 308 311 310
f 165 175 167
f 175 173 183
f 173 165 174
f 311 312 310
f 312 266 322
f 214 217 215
f 169 146 177
f 146 143 144
f 143 169 144
f 149 114 116
f 114 115 106
f 115 113 145
f 106 107 109
f 109 81 83
f 82 106 108
f 83 30 109
f 122 75 91
f 75 74 76
f 76 33 34
f 34 38 39
f 38 55 56
f 55 37 54
f 54 33 53
f 54 45 58
f 45 47 49
f 47 46 48
f 46 40 57
f 40 35 39
f 35 36 78
f 36 122 126
f 109 117 116
f 117 150 122
f 150 115 145
f 145 168 172
f 353 357 355
f 357 432 356
f 432 433 430
f 433 431 430
f 431 429 411
f 429 406 411
f 410 428 430
f 407 322 266
f 322 319 320
f 319 321 311
f 380 381 323
f 381 379 401
f 401 323 324
f 320 402 310
f 296 310 402
f 311 308 319
f 183 173 181
f 174 165 166
f 310 312 322
f 215 217 218
f 169 177 217
f 169 177 178
f 177 146 147
f 146 144 147
f 144 169 170
f 149 116 118
f 116 114 108
f 114 106 108
f 106 109 108
f 122 91 90
f 91 75 95
f 75 76 79
f 76 74 90
f 76 34 77
f 34 39 35
f 39 38 56
f 56 55 86
f 55 54 85
f 54 53 127
f 54 58 64
f 58 45 51
f 45 49 51
f 49 47 69
f 47 48 67
f 48 46 50
f 46 57 59
f 57 40 39
f 35 78 77
f 78 36 79
f 36 126 95
f 126 122 152
f 109 116 108
f 116 117 118
f 117 122 121
f 122 150 152
f 150 145 176
f 145 172 179
f 353 355 341
f 355 357 347
f 357 356 359
f 356 432 414
f 432 430 414
f 430 431 411
f 411 406 407
f 410 430 411
f 322 320 310
f 323 381 324
f 183 181 187
f 181 173 143
f 169 217 220
f 169 217 170
f 217 177 220
f 177 169 220
f 169 178 170
f 178 177 147
f 147 144 178
f 144 170 178
f 149 118 181
f 122 90 120
f 90 91 95
f 95 75 79
f 76 90 92
f 77 34 35
f 39 56 57
f 56 86 87
f 86 55 85
f 85 54 84
f 127 53 123
f 54 64 84
f 64 58 51
f 51 49 50
f 49 69 50
f 69 47 66
f 47 67 66
f 67 48 50
f 50 46 52
f 46 59 52
f 59 57 65
f 79 36 95
f 95 126 125
f 126 152 130
f 118 117 119
f 117 121 119
f 152 150 184
f 150 176 184
f 176 145 172
f 145 179 176
f 179 172 267
f 353 341 154
f 341 355 347
f 347 357 363
f 357 359 363
f 359 356 358
f 356 414 350
f 414 430 410
f 411 407 416
f 410 411 414
f 183 187 193
f 187 181 185
f 181 143 149
f 173 181 182
f 217 218 170
f 177 220 180
f 120 90 92
f 90 95 92
f 57 56 87
f 127 123 124
f 84 64 88
f 64 51 68
f 51 50 52
f 50 69 70
f 69 66 68
f 66 67 64
f 67 50 70
f 52 59 65
f 65 57 130
f 95 125 94
f 125 126 129
f 126 130 129
f 130 152 154
f 118 119 187
f 119 121 187
f 152 184 194
f 176 172 221
f 145 176 148
f 179 145 148
f 179 267 276
f 154 341 203
f 347 363 160
f 363 359 361
f 359 358 342
f 358 356 362
f 356 350 354
f 350 414 416
f 350 414 386
f 411 416 414
f 193 187 190
f 187 185 118
f 185 181 186
f 173 182 174
f 180 220 222
f 120 92 123
f 57 87 130
f 127 124 128
f 124 123 93
f 123 127 151
f 84 88 87
f 88 64 65
f 64 68 66
f 68 51 133
f 51 52 72
f 70 69 72
f 69 68 133
f 64 67 65
f 67 70 71
f 52 65 71
f 65 130 132
f 94 125 124
f 125 129 128
f 129 130 98
f 130 154 132
f 154 152 194
f 187 121 190
f 176 221 148
f 221 172 219
f 172 176 175
f 179 276 277
f 276 267 275
f 154 203 156
f 347 160 207
f 160 363 362
f 363 361 360
f 361 359 346
f 359 342 343
f 342 358 360
f 358 362 360
f 362 356 344
f 356 354 344
f 354 350 339
f 350 416 352
f 414 350 415
f 414 350 264
f 350 386 348
f 386 414 384
f 193 190 188
f 118 185 120
f 186 181 182
f 180 222 195
f 120 123 151
f 123 92 93
f 130 87 99
f 127 128 96
f 128 124 125
f 124 93 94
f 151 127 153
f 87 88 89
f 88 84 96
f 88 65 89
f 68 64 133
f 133 51 157
f 51 72 104
f 72 52 73
f 70 72 73
f 72 69 102
f 69 133 102
f 65 67 71
f 71 70 134
f 52 71 134
f 65 132 101
f 128 129 97
f 129 98 97
f 98 130 99
f 132 154 156
f 154 194 199
f 190 121 188
f 221 219 175
f 172 175 171
f 277 276 300
f 276 275 293
f 156 203 158
f 207 160 158
f 160 362 159
f 362 363 360
f 360 361 346
f 346 359 343
f 343 342 340
f 342 360 345
f 362 344 159
f 344 354 339
f 339 350 333
f 350 352 333
f 414 415 413
f 415 350 351
f 414 264 404
f 264 350 196
f 350 348 333
f 348 386 387
f 386 384 385
f 384 414 412
f 193 188 191
f 120 185 188
f 195 222 227
f 120 151 188
f 99 87 101
f 127 96 100
f 96 128 97
f 151 153 191
f 153 127 131
f 87 89 101
f 88 96 100
f 89 65 101
f 133 64 131
f 133 157 155
f 157 51 159
f 51 104 159
f 104 72 102
f 73 52 105
f 70 73 105
f 102 133 134
f 134 70 103
f 52 134 158
f 101 132 131
f 132 156 134
f 188 121 120
f 175 219 171
f 277 300 409
f 300 276 293
f 156 158 134
f 158 203 207
f 158 160 52
f 160 159 105
f 360 346 345
f 340 342 339
f 342 345 339
f 159 344 204
f 344 339 345
f 339 333 336
f 350 333 351
f 333 352 335
f 414 413 412
f 413 415 387
f 415 351 387
f 264 196 169
f 333 348 331
f 348 350 349
f 348 350 351
f 348 387 349
f 387 386 385
f 193 191 198
f 191 188 192
f 191 188 151
f 195 227 196
f 227 222 382
f 99 101 96
f 127 100 131
f 100 96 101
f 191 153 196
f 153 131 155
f 133 131 132
f 133 155 131
f 155 157 200
f 157 159 204
f 159 104 105
f 104 102 105
f 105 52 160
f 70 105 103
f 102 134 103
f 134 133 132
f 101 131 100
f 409 300 408
f 289 275 248
f 340 339 338
f 204 344 206
f 344 345 205
f 339 344 200
f 339 336 338
f 336 333 338
f 336 333 329
f 350 351 349
f 351 333 334
f 333 335 338
f 335 352 236
f 413 387 385
f 387 351 349
f 333 331 332
f 331 348 349
f 348 351 349
f 198 191 196
f 191 192 225
f 191 192 226
f 191 192 197
f 192 188 189
f 188 191 225
f 196 227 234
f 227 382 386
f 382 222 217
f 191 196 227
f 196 153 155
f 155 200 153
f 200 157 204
f 105 102 103
f 289 248 285
f 248 275 259
f 340 338 202
f 204 206 200
f 206 344 346
f 344 204 200
f 344 205 231
f 205 345 231
f 333 336 334
f 333 336 237
f 336 329 337
f 329 333 327
f 349 351 332
f 351 334 332
f 334 333 332
f 338 335 236
f 236 352 198
f 351 334 328
f 332 331 349
f 198 196 236
f 196 191 197
f 191 225 226
f 225 192 226
f 226 192 224
f 197 192 228
f 192 189 224
f 189 188 224
f 188 225 223
f 225 191 227
f 196 234 232
f 196 234 236
f 234 227 232
f 227 386 196
f 227 196 232
f 200 204 231
f 202 338 239
f 204 200 205
f 200 206 202
f 231 205 201
f 231 345 344
f 334 336 337
f 333 237 234
f 337 329 330
f 329 327 328
f 327 333 331
f 338 236 239
f 196 197 235
f 226 225 228
f 225 226 223
f 192 226 228
f 226 224 223
f 197 228 235
f 224 188 223
f 225 227 228
f 234 196 235
f 236 234 237
f 196 386 414
f 227 232 233
f 200 231 229
f 202 239 237
f 205 200 201
f 200 202 237
f 231 201 229
f 234 237 238
f 337 330 332
f 330 329 328
f 328 327 332
f 327 331 332
f 239 236 237
f 235 228 233
f 228 227 233
f 234 235 238
f 414 386 383
f 201 200 237
f 229 201 238
f 414 383 404
f 404 383 169
f 229 201 230
f 169 383 173
f 255 254 253
f 254 255 256
f 325 326 404
f 404 326 405
f 384 413 412
f 413 384 385
f 434 435 436
f 434 436 437
f 438 441 440
f 438 440 439
f 434 438 439
f 434 439 435
f 437 436 440
f 437 440 441
f 434 437 441
f 434 441 438
f 435 439 440
f 435 440 436
f 442 443 444
f 442 444 445
f 446 449 448
f 446 448 447
f 442 446 447
f 442 447 443
f 445 444 448
f 445 448 449
f 442 445 449
f 442 449 446
f 443 447 448
f 443 448 444
f 450 451 452
f 450 452 453
f 454 457 456
f 454 456 455
f 450 454 455
f 450 455 451
f 453 452 456
f 453 456 457
f 450 453 457
f 450 457 454
f 451 455 456
f 451 456 452
f 458 437 459
f 458 459 460
f 461 464 463
f 461 463 462
f 458 461 462
f 458 462 437
f 460 459 463
f 460 463 464
f 458 460 464
f 458 464 461
f 437 462 463
f 437 463 459
f 465 466 467
f 465 467 468
f 469 472 471
f 469 471 470
f 465 469 470
f 465 470 466
f 468 467 471
f 468 471 472
f 465 468 472
f 465 472 469
f 466 470 471
f 466 471 467
f 473 474 475
f 473 475 476
f 477 480 479
f 477 479 478
f 473 477 478
f 473 478 474
f 476 475 479
f 476 479 480
f 473 476 480
f 473 480 477
f 474 478 479
f 474 479 475
f 481 482 483
f 481 483 484
f 485 488 487
f 485 487 486
f 481 485 486
f 481 486 482
f 484 483 487
f 484 487 488
f 481 484 488
f 481 488 485
f 482 486 487
f 482 487 483
f 489 490 491
f 489 491 492
f 493 496 495
f 493 495 494
f 489 493 494
f 489 494 490
f 492 491 495
f 492 495 496
f 489 492 496
f 489 496 493
f 490 494 495
f 490 495 491
f 497 498 499
f 497 499 500
f 501 504 503
f 501 503 502
f 497 501 502
f 497 502 498
f 500 499 503
f 500 503 504
f 497 500 504
f 497 504 501
f 498 502 503
f 498 503 499
f 505 506 507
f 505 507 508
f 509 512 511
f 509 511 510
f 505 509 510
f 505 510 506
f 508 507 511
f 508 511 512
f 505 508 512
f 505 512 509
f 506 510 511
f 506 511 507
f 513 514 515
f 513 515 516
f 517 520 519
f 517 519 518
f 513 517 518
f 513 518 514
f 516 515 519
f 516 519 520
f 513 516 520
f 513 520 517
f 514 518 519
f 514 519 515
f 521 522 523
f 521 523 524
f 525 528 527
f 525 527 526
f 521 525 526
f 521 526 522
f 524 523 527
f 524 527 528
f 521 524 528
f 521 528 525
f 522 526 527
f 522 527 523
f 529 530 531
f 529 531 532
f 533 536 535
f 533 535 534
f 529 533 534
f 529 534 530
f 532 531 535
f 532 535 536
f 529 532 536
f 529 536 533
f 530 534 535
f 530 535 531
f 537 538 539
f 537 539 540
f 541 544 543
f 541 543 542
f 537 541 542
f 537 542 538
f 540 539 543
f 540 543 544
f 537 540 544
f 537 544 541
f 538 542 543
f 538 543 539
f 545 546 547
f 545 547 548
f 549 552 551
f 549 551 550
f 545 549 550
f 545 550 546
f 548 547 551
f 548 551 552
f 545 548 552
f 545 552 549
f 546 550 551
f 546 551 547
f 454 553 554
f 454 554 555
f 556 559 558
f 556 558 557
f 454 556 557
f 454 557 553
f 555 554 558
f 555 558 559
f 454 555 559
f 454 559 556
f 553 557 558
f 553 558 554
f 560 561 562
f 560 562 563
f 564 567 566
f 564 566 565
f 560 564 565
f 560 565 561
f 563 562 566
f 563 566 567
f 560 563 567
f 560 567 564
f 561 565 566
f 561 566 562

