# https://github.com/mikedh/trimesh
v -0.49609375 -0.14453125 -0.23828125
v -0.49609375 -0.14453125 -0.23046875
v -0.49609375 -0.13671875 -0.12109375
v -0.49609375 -0.13671875 -0.11328125
v -0.49609375 -0.13671875 -0.09765625
v -0.49609375 -0.12890625 -0.23828125
v -0.49609375 -0.12890625 -0.23046875
v -0.49609375 -0.12890625 -0.12109375
v -0.49609375 -0.12890625 -0.11328125
v -0.49609375 -0.12890625 -0.09765625
v -0.48828125 -0.14453125 -0.23828125
v -0.48828125 -0.14453125 -0.23046875
v -0.48828125 -0.14453125 -0.12109375
v -0.48828125 -0.14453125 -0.10546875
v -0.48828125 -0.14453125 -0.08984375
v -0.48828125 -0.13671875 -0.13671875
v -0.48828125 -0.13671875 -0.12890625
v -0.48828125 -0.13671875 -0.12109375
v -0.48828125 -0.13671875 -0.11328125
v -0.48828125 -0.13671875 -0.10546875
v -0.48828125 -0.13671875 -0.08984375
v -0.48828125 -0.12890625 -0.23828125
v -0.48828125 -0.12890625 -0.23046875
v -0.48828125 -0.12890625 -0.13671875
v -0.48828125 -0.12890625 -0.12890625
v -0.48828125 -0.12890625 -0.12109375
v -0.48828125 -0.12890625 -0.11328125
v -0.48828125 -0.12890625 -0.10546875
v -0.48828125 -0.12890625 -0.08984375
v -0.30859375 -0.15234375 -0.02734375
v -0.30859375 -0.15234375 -0.01953125
v -0.30859375 -0.15234375 0.01171875
v -0.30859375 -0.14453125 -0.05859375
v -0.30859375 -0.14453125 0.01171875
v -0.30859375 -0.12890625 0.01171875
v -0.30859375 -0.11328125 -0.05859375
v -0.30859375 -0.11328125 -0.02734375
v -0.30859375 -0.11328125 0.01171875
v -0.30859375 -0.10546875 -0.01953125
v -0.30078125 -0.15234375 -0.23828125
v -0.30078125 -0.15234375 -0.23046875
v -0.30078125 -0.15234375 -0.08203125
v -0.30078125 -0.14453125 -0.26953125
v -0.30078125 -0.12109375 -0.26953125
v -0.30078125 -0.12109375 -0.23828125
v -0.30078125 -0.12109375 -0.23046875
v -0.30078125 -0.11328125 -0.27734375
v -0.30078125 -0.11328125 -0.08203125
v -0.30078125 -0.10546875 -0.05078125
v -0.30078125 -0.10546875 -0.02734375
v -0.29296875 -0.15234375 -0.26953125
v -0.29296875 -0.14453125 -0.27734375
v -0.29296875 -0.14453125 -0.26953125
v -0.29296875 -0.14453125 0.09765625
v -0.29296875 -0.11328125 -0.26953125
v -0.29296875 -0.10546875 -0.28515625
v -0.29296875 -0.10546875 -0.08203125
v -0.29296875 -0.10546875 0.09765625
v -0.29296875 -0.09765625 -0.08203125
v -0.29296875 -0.09765625 -0.05078125
v -0.29296875 -0.09765625 -0.01953125
v -0.29296875 -0.09765625 0.09765625
v -0.28515625 -0.17578125 0.09765625
v -0.28515625 -0.16796875 0.13671875
v -0.28515625 -0.15234375 -0.27734375
v -0.28515625 -0.14453125 0.13671875
v -0.28515625 -0.11328125 -0.27734375
v -0.28515625 -0.11328125 0.13671875
v -0.28515625 -0.09765625 -0.28515625
v -0.28515625 -0.09765625 -0.26171875
v -0.28515625 -0.09765625 -0.05078125
v -0.28515625 -0.09765625 -0.01953125
v -0.28515625 -0.09765625 0.09765625
v -0.27734375 -0.14453125 -0.26953125
v -0.27734375 -0.08984375 -0.06640625
v -0.26953125 -0.16796875 0.16015625
v -0.26953125 -0.14453125 -0.27734375
v -0.26953125 -0.14453125 0.16796875
v -0.26953125 -0.12109375 -0.28515625
v -0.26953125 -0.12109375 -0.26171875
v -0.26953125 -0.12109375 0.16015625
v -0.26953125 -0.09765625 0.12109375
v -0.26953125 -0.08984375 -0.06640625
v -0.26171875 -0.22265625 -0.02734375
v -0.26171875 -0.22265625 -0.01171875
v -0.26171875 -0.21484375 -0.09765625
v -0.26171875 -0.21484375 -0.05859375
v -0.26171875 -0.21484375 0.10546875
v -0.26171875 -0.16015625 0.12890625
v -0.26171875 -0.14453125 0.12890625
v -0.26171875 -0.13671875 -0.25390625
v -0.26171875 -0.12890625 -0.25390625
v -0.26171875 -0.12890625 0.12890625
v -0.26171875 -0.12109375 -0.25390625
v -0.26171875 -0.08203125 -0.28515625
v -0.26171875 -0.05078125 -0.06640625
v -0.26171875 -0.04296875 -0.05859375
v -0.26171875 -0.04296875 -0.01953125
v -0.26171875 -0.04296875 0.09765625
v -0.25390625 -0.19921875 0.13671875
v -0.25390625 -0.19140625 0.16015625
v -0.25390625 -0.16015625 0.11328125
v -0.25390625 -0.14453125 0.11328125
v -0.25390625 -0.13671875 0.12109375
v -0.25390625 -0.08203125 -0.29296875
v -0.25390625 -0.07421875 -0.28515625
v -0.25390625 -0.06640625 -0.28515625
v -0.25390625 -0.06640625 -0.26171875
v -0.25390625 -0.05078125 -0.06640625
v -0.25390625 -0.04296875 0.12109375
v -0.25390625 -0.03515625 0.08984375
v -0.24609375 -0.18359375 0.12890625
v -0.24609375 -0.08203125 -0.29296875
v -0.24609375 -0.08203125 -0.28515625
v -0.24609375 -0.07421875 -0.29296875
v -0.24609375 -0.05859375 -0.23046875
v -0.24609375 -0.03515625 -0.04296875
v -0.24609375 -0.03515625 -0.01953125
v -0.23828125 -0.17578125 0.11328125
v -0.23828125 -0.07421875 -0.13671875
v -0.22265625 -0.06640625 -0.28515625
v -0.22265625 -0.06640625 -0.26171875
v -0.20703125 -0.10546875 -0.05859375
v -0.20703125 -0.09765625 -0.05859375
v -0.20703125 -0.08984375 -0.05859375
v -0.20703125 -0.05859375 -0.23046875
v -0.20703125 -0.05859375 -0.16015625
v -0.19921875 -0.09765625 0.09765625
v -0.19921875 -0.08203125 0.12109375
v -0.19140625 -0.19921875 0.13671875
v -0.19140625 -0.19140625 0.16015625
v -0.19140625 -0.18359375 0.12890625
v -0.19140625 -0.17578125 0.11328125
v -0.19140625 -0.10546875 -0.08203125
v -0.19140625 -0.10546875 -0.05078125
v -0.19140625 -0.09765625 -0.05859375
v -0.19140625 -0.09765625 -0.02734375
v -0.19140625 -0.09765625 -0.01953125
v -0.19140625 -0.08984375 -0.05859375
v -0.19140625 -0.08203125 -0.05859375
v -0.19140625 -0.05859375 -0.05859375
v -0.18359375 -0.21484375 0.10546875
v -0.18359375 -0.15234375 0.12109375
v -0.18359375 -0.10546875 -0.07421875
v -0.17578125 -0.22265625 -0.01953125
v -0.17578125 -0.22265625 -0.01171875
v -0.17578125 -0.21484375 -0.05078125
v -0.17578125 -0.15234375 0.13671875
v -0.17578125 -0.14453125 -0.27734375
v -0.17578125 -0.13671875 -0.25390625
v -0.17578125 -0.13671875 0.12109375
v -0.17578125 -0.12890625 -0.25390625
v -0.17578125 -0.12109375 -0.26953125
v -0.17578125 -0.12109375 -0.25390625
v -0.17578125 -0.10546875 -0.27734375
v -0.17578125 -0.08203125 -0.27734375
v -0.17578125 -0.06640625 -0.19140625
v -0.17578125 0.03515625 0.08984375
v -0.16796875 -0.21484375 -0.08984375
v -0.16796875 -0.15234375 -0.27734375
v -0.16796875 -0.15234375 0.16796875
v -0.16796875 -0.14453125 -0.26953125
v -0.16796875 -0.13671875 -0.27734375
v -0.16796875 -0.12890625 0.13671875
v -0.16796875 -0.12109375 -0.27734375
v -0.16796875 -0.11328125 -0.26953125
v -0.16796875 -0.05859375 -0.42578125
v -0.16796875 -0.05859375 -0.38671875
v -0.16796875 -0.05078125 -0.41796875
v -0.16796875 -0.05078125 -0.38671875
v -0.16796875 -0.05078125 -0.37890625
v -0.16796875 0.02734375 -0.05859375
v -0.16796875 0.03515625 -0.06640625
v -0.16796875 0.04296875 -0.04296875
v -0.16796875 0.04296875 -0.01953125
v -0.16015625 -0.13671875 -0.27734375
v -0.16015625 -0.12109375 -0.27734375
v -0.16015625 -0.12109375 0.16796875
v -0.16015625 -0.04296875 -0.41796875
v -0.16015625 -0.04296875 -0.37890625
v -0.16015625 -0.04296875 0.10546875
v -0.16015625 0.04296875 0.12109375
v -0.16015625 0.05078125 -0.05859375
v -0.16015625 0.05078125 -0.01953125
v -0.16015625 0.05078125 0.09765625
v -0.15234375 -0.18359375 -0.02734375
v -0.15234375 -0.18359375 -0.01953125
v -0.15234375 -0.15234375 0.13671875
v -0.15234375 -0.14453125 -0.29296875
v -0.15234375 -0.11328125 -0.29296875
v -0.15234375 -0.11328125 0.13671875
v -0.15234375 -0.10546875 -0.08203125
v -0.15234375 -0.06640625 -0.05859375
v -0.15234375 -0.05859375 0.10546875
v -0.15234375 -0.05078125 -0.41796875
v -0.15234375 -0.05078125 -0.38671875
v -0.15234375 -0.05078125 -0.37890625
v -0.15234375 -0.04296875 -0.41796875
v -0.15234375 -0.04296875 -0.41015625
v -0.15234375 -0.04296875 -0.37890625
v -0.15234375 -0.04296875 -0.37109375
v -0.14453125 -0.17578125 -0.05078125
v -0.14453125 -0.16796875 -0.08203125
v -0.14453125 -0.11328125 -0.08203125
v -0.14453125 -0.10546875 -0.05078125
v -0.14453125 -0.09765625 -0.02734375
v -0.14453125 -0.09765625 -0.01953125
v -0.14453125 -0.09765625 0.09765625
v -0.14453125 -0.07421875 -0.05859375
v -0.14453125 -0.07421875 0.12109375
v -0.14453125 -0.06640625 0.16015625
v -0.14453125 -0.06640625 0.16796875
v -0.14453125 -0.05859375 -0.05859375
v -0.14453125 -0.05859375 0.36328125
v -0.14453125 -0.05859375 0.37109375
v -0.14453125 -0.03515625 0.07421875
v -0.14453125 -0.01171875 -0.05859375
v -0.14453125 0.00390625 0.09765625
v -0.14453125 0.01171875 0.10546875
v -0.14453125 0.01953125 -0.05859375
v -0.14453125 0.02734375 0.12109375
v -0.13671875 -0.16015625 0.09765625
v -0.13671875 -0.11328125 -0.26953125
v -0.13671875 -0.11328125 -0.05078125
v -0.13671875 -0.10546875 -0.02734375
v -0.13671875 -0.10546875 -0.01953125
v -0.13671875 -0.10546875 0.09765625
v -0.13671875 -0.08984375 -0.05859375
v -0.13671875 -0.08984375 -0.05078125
v -0.13671875 -0.08203125 0.09765625
v -0.13671875 -0.07421875 -0.12109375
v -0.13671875 -0.06640625 -0.05859375
v -0.13671875 -0.03515625 0.08984375
v -0.13671875 0.03515625 -0.05859375
v -0.13671875 0.20703125 -0.28515625
v -0.13671875 0.21484375 -0.29296875
v -0.12890625 -0.15234375 -0.23828125
v -0.12890625 -0.14453125 -0.26171875
v -0.12890625 -0.12109375 -0.26171875
v -0.12890625 -0.10546875 -0.23828125
v -0.12890625 -0.09765625 -0.24609375
v -0.12890625 -0.08984375 -0.03515625
v -0.12890625 -0.08203125 -0.01953125
v -0.12890625 -0.07421875 -0.12890625
v -0.12890625 -0.06640625 -0.13671875
v -0.12890625 -0.06640625 -0.12109375
v -0.12890625 -0.05078125 0.16015625
v -0.12890625 -0.05078125 0.36328125
v -0.12890625 -0.05078125 0.41796875
v -0.12890625 -0.03515625 0.09765625
v -0.12890625 -0.02734375 -0.06640625
v -0.12890625 0.00390625 -0.06640625
v -0.12890625 0.05078125 0.12109375
v -0.12890625 0.20703125 -0.29296875
v -0.12890625 0.22265625 -0.33203125
v -0.12109375 -0.08984375 -0.12890625
v -0.12109375 -0.08984375 -0.12109375
v -0.12109375 -0.03515625 -0.16015625
v -0.12109375 -0.03515625 -0.15234375
v -0.12109375 -0.03515625 -0.12890625
v -0.12109375 -0.03515625 -0.07421875
v -0.12109375 -0.03515625 0.14453125
v -0.12109375 -0.01171875 0.34765625
v -0.12109375 0.00390625 -0.08203125
v -0.12109375 0.01171875 0.07421875
v -0.12109375 0.01953125 -0.06640625
v -0.12109375 0.05078125 0.08984375
v -0.12109375 0.05859375 -0.05859375
v -0.12109375 0.05859375 -0.01953125
v -0.12109375 0.05859375 0.09765625
v -0.12109375 0.20703125 -0.32421875
v -0.12109375 0.21484375 -0.28515625
v -0.11328125 -0.08203125 -0.13671875
v -0.11328125 -0.05859375 -0.16015625
v -0.11328125 -0.05078125 -0.15234375
v -0.11328125 -0.00390625 -0.16015625
v -0.11328125 -0.00390625 -0.15234375
v -0.11328125 -0.00390625 -0.08984375
v -0.11328125 -0.00390625 0.33984375
v -0.11328125 0.01171875 0.08984375
v -0.11328125 0.01953125 -0.08203125
v -0.11328125 0.01953125 0.09765625
v -0.11328125 0.04296875 -0.07421875
v -0.11328125 0.04296875 0.07421875
v -0.11328125 0.21484375 -0.32421875
v -0.11328125 0.21484375 -0.29296875
v -0.10546875 -0.12890625 -0.12109375
v -0.10546875 -0.12890625 -0.04296875
v -0.10546875 -0.12890625 -0.01953125
v -0.10546875 -0.12890625 0.12109375
v -0.10546875 -0.12109375 -0.05078125
v -0.10546875 -0.12109375 -0.01171875
v -0.10546875 -0.12109375 0.09765625
v -0.10546875 -0.12109375 0.19921875
v -0.10546875 -0.12109375 0.36328125
v -0.10546875 -0.05078125 0.45703125
v -0.10546875 -0.01171875 0.19921875
v -0.10546875 -0.00390625 -0.13671875
v -0.10546875 0.02734375 -0.16796875
v -0.10546875 0.02734375 -0.15234375
v -0.10546875 0.02734375 -0.08984375
v -0.10546875 0.05078125 -0.08984375
v -0.09765625 -0.12890625 0.19921875
v -0.09765625 -0.12890625 0.37109375
v -0.09765625 -0.12109375 -0.11328125
v -0.09765625 -0.09765625 -0.15234375
v -0.09765625 -0.01171875 0.19921875
v -0.09765625 -0.00390625 0.35546875
v -0.09765625 0.01953125 0.14453125
v -0.09765625 0.02734375 -0.13671875
v -0.09765625 0.05859375 -0.16796875
v -0.09765625 0.05859375 -0.14453125
v -0.09765625 0.05859375 -0.09765625
v -0.09765625 0.06640625 0.08984375
v -0.09765625 0.06640625 0.09765625
v -0.09765625 0.08203125 -0.01953125
v -0.09765625 0.08203125 0.09765625
v -0.09765625 0.08984375 -0.07421875
v -0.08984375 -0.12890625 -0.04296875
v -0.08984375 -0.12890625 -0.01953125
v -0.08984375 -0.12890625 0.12109375
v -0.08984375 -0.12109375 -0.12890625
v -0.08984375 -0.12109375 -0.05078125
v -0.08984375 -0.12109375 -0.01171875
v -0.08984375 -0.12109375 0.09765625
v -0.08984375 -0.11328125 0.19921875
v -0.08984375 -0.11328125 0.36328125
v -0.08984375 -0.08984375 -0.14453125
v -0.08984375 -0.01171875 0.39453125
v -0.08984375 0.05859375 -0.14453125
v -0.08984375 0.06640625 0.14453125
v -0.08984375 0.08984375 -0.01953125
v -0.08984375 0.08984375 0.09765625
v -0.08984375 0.09765625 -0.08984375
v -0.08984375 0.10546875 -0.14453125
v -0.08984375 0.11328125 0.09765625
v -0.08203125 -0.18359375 -0.05078125
v -0.08203125 -0.18359375 -0.03515625
v -0.08203125 -0.18359375 -0.01171875
v -0.08203125 -0.18359375 -0.00390625
v -0.08203125 -0.18359375 0.09765625
v -0.08203125 -0.18359375 0.12109375
v -0.08203125 -0.15234375 0.24609375
v -0.08203125 -0.13671875 -0.14453125
v -0.08203125 -0.12109375 -0.11328125
v -0.08203125 -0.11328125 0.41796875
v -0.08203125 -0.05859375 0.45703125
v -0.08203125 -0.02734375 0.44921875
v -0.08203125 -0.01171875 -0.34765625
v -0.08203125 -0.01171875 -0.33984375
v -0.08203125 -0.00390625 -0.41015625
v -0.08203125 -0.00390625 0.19921875
v -0.08203125 -0.00390625 0.36328125
v -0.08203125 0.00390625 -0.33203125
v -0.08203125 0.01171875 0.31640625
v -0.08203125 0.01953125 0.18359375
v -0.08203125 0.02734375 0.33984375
v -0.08203125 0.06640625 -0.28515625
v -0.08203125 0.07421875 -0.28515625
v -0.08203125 0.08203125 0.14453125
v -0.08203125 0.09765625 -0.10546875
v -0.08203125 0.10546875 -0.16015625
v -0.08203125 0.10546875 -0.14453125
v -0.08203125 0.10546875 0.14453125
v -0.08203125 0.11328125 -0.10546875
v -0.08203125 0.11328125 -0.08984375
v -0.08203125 0.11328125 -0.01953125
v -0.08203125 0.11328125 0.12109375
v -0.07421875 -0.18359375 -0.12109375
v -0.07421875 -0.18359375 -0.11328125
v -0.07421875 -0.13671875 -0.13671875
v -0.07421875 -0.11328125 -0.25390625
v -0.07421875 -0.11328125 -0.22265625
v -0.07421875 -0.10546875 -0.24609375
v -0.07421875 -0.10546875 -0.21484375
v -0.07421875 -0.01171875 -0.34765625
v -0.07421875 -0.00390625 -0.41796875
v -0.07421875 -0.00390625 0.36328125
v -0.07421875 0.00390625 -0.41796875
v -0.07421875 0.01171875 -0.34765625
v -0.07421875 0.01171875 -0.33984375
v -0.07421875 0.01171875 -0.31640625
v -0.07421875 0.01171875 -0.28515625
v -0.07421875 0.01171875 0.35546875
v -0.07421875 0.01953125 -0.30078125
v -0.07421875 0.01953125 0.29296875
v -0.07421875 0.03515625 0.29296875
v -0.07421875 0.06640625 -0.27734375
v -0.07421875 0.07421875 -0.27734375
v -0.07421875 0.09765625 -0.28515625
v -0.07421875 0.11328125 -0.16015625
v -0.07421875 0.11328125 -0.14453125
v -0.06640625 -0.09765625 0.44921875
v -0.06640625 -0.07421875 -0.28515625
v -0.06640625 -0.05859375 0.44921875
v -0.06640625 -0.05859375 0.45703125
v -0.06640625 -0.04296875 0.44921875
v -0.06640625 -0.03515625 0.45703125
v -0.06640625 -0.02734375 -0.28515625
v -0.06640625 -0.01953125 -0.31640625
v -0.06640625 -0.01171875 0.19921875
v -0.06640625 -0.00390625 -0.42578125
v -0.06640625 0.00390625 0.34765625
v -0.06640625 0.01171875 -0.42578125
v -0.06640625 0.01171875 0.18359375
v -0.06640625 0.01171875 0.19921875
v -0.06640625 0.01171875 0.31640625
v -0.06640625 0.01171875 0.34765625
v -0.06640625 0.01171875 0.35546875
v -0.06640625 0.01953125 -0.28515625
v -0.06640625 0.01953125 0.19921875
v -0.06640625 0.01953125 0.32421875
v -0.06640625 0.02734375 -0.29296875
v -0.06640625 0.02734375 0.33984375
v -0.06640625 0.05078125 -0.35546875
v -0.06640625 0.05078125 0.31640625
v -0.06640625 0.05859375 0.18359375
v -0.06640625 0.06640625 -0.29296875
v -0.06640625 0.06640625 -0.27734375
v -0.06640625 0.07421875 -0.30859375
v -0.06640625 0.07421875 -0.27734375
v -0.06640625 0.09765625 -0.27734375
v -0.05859375 -0.08984375 0.44921875
v -0.05859375 -0.08203125 0.44140625
v -0.05859375 -0.07421875 -0.28515625
v -0.05859375 -0.07421875 0.43359375
v -0.05859375 -0.04296875 0.44140625
v -0.05859375 -0.02734375 -0.30078125
v -0.05859375 -0.02734375 -0.28515625
v -0.05859375 0.02734375 -0.28515625
v -0.05859375 0.02734375 0.29296875
v -0.05859375 0.04296875 0.30859375
v -0.05859375 0.05078125 0.31640625
v -0.05859375 0.08984375 0.25390625
v -0.05859375 0.09765625 0.18359375
v -0.05859375 0.12109375 -0.28515625
v -0.05078125 -0.02734375 -0.29296875
v -0.05078125 0.05078125 -0.41796875
v -0.05078125 0.05859375 0.18359375
v -0.05078125 0.05859375 0.19921875
v -0.05078125 0.06640625 -0.41796875
v -0.05078125 0.08203125 -0.41796875
v -0.05078125 0.08984375 0.23828125
v -0.05078125 0.08984375 0.25390625
v -0.05078125 0.08984375 0.26953125
v -0.05078125 0.09765625 -0.27734375
v -0.05078125 0.10546875 0.18359375
v -0.05078125 0.11328125 -0.14453125
v -0.05078125 0.11328125 -0.10546875
v -0.05078125 0.11328125 -0.08984375
v -0.05078125 0.11328125 -0.01953125
v -0.05078125 0.11328125 0.09765625
v -0.05078125 0.11328125 0.11328125
v -0.05078125 0.12890625 0.10546875
v -0.05078125 0.13671875 -0.14453125
v -0.05078125 0.13671875 -0.10546875
v -0.05078125 0.13671875 -0.08984375
v -0.05078125 0.13671875 -0.01953125
v -0.05078125 0.13671875 0.09765625
v -0.05078125 0.13671875 0.10546875
v -0.04296875 -0.02734375 -0.28515625
v -0.04296875 0.01171875 -0.42578125
v -0.04296875 0.07421875 0.26171875
v -0.04296875 0.07421875 0.26953125
v -0.04296875 0.08203125 0.25390625
v -0.04296875 0.08203125 0.26953125
v -0.04296875 0.08984375 0.18359375
v -0.04296875 0.08984375 0.19921875
v -0.04296875 0.08984375 0.23828125
v -0.04296875 0.08984375 0.25390625
v -0.04296875 0.08984375 0.26953125
v -0.04296875 0.09765625 0.18359375
v -0.04296875 0.11328125 -0.16015625
v -0.04296875 0.12109375 0.10546875
v -0.04296875 0.12109375 0.11328125
v -0.04296875 0.12890625 -0.28515625
v -0.04296875 0.13671875 -0.16015625
v -0.04296875 0.14453125 -0.01953125
v -0.03515625 -0.08203125 -0.28515625
v -0.03515625 -0.07421875 -0.28515625
v -0.03515625 -0.06640625 -0.37109375
v -0.03515625 0.04296875 -0.44921875
v -0.03515625 0.05078125 -0.44921875
v -0.03515625 0.10546875 0.18359375
v -0.03515625 0.11328125 -0.37109375
v -0.03515625 0.14453125 -0.14453125
v -0.03515625 0.14453125 -0.10546875
v -0.03515625 0.14453125 -0.08984375
v -0.03515625 0.14453125 0.08984375
v -0.02734375 -0.04296875 0.44140625
v -0.02734375 -0.04296875 0.44921875
v -0.02734375 -0.03515625 0.45703125
v -0.02734375 -0.00390625 -0.43359375
v -0.02734375 0.01171875 -0.42578125
v -0.02734375 0.04296875 -0.46484375
v -0.02734375 0.12109375 -0.42578125
v -0.02734375 0.12109375 -0.28515625
v -0.02734375 0.13671875 -0.28515625
v -0.02734375 0.13671875 -0.16796875
v -0.01953125 -0.13671875 -0.13671875
v -0.01953125 -0.05859375 -0.43359375
v -0.01953125 -0.05859375 0.44921875
v -0.01953125 -0.00390625 -0.45703125
v -0.01953125 0.00390625 -0.45703125
v -0.01953125 0.00390625 -0.43359375
v -0.01953125 0.00390625 0.34765625
v -0.01953125 0.01171875 -0.42578125
v -0.01953125 0.01171875 0.34765625
v -0.01953125 0.03515625 -0.44921875
v -0.01953125 0.03515625 -0.43359375
v -0.01953125 0.13671875 -0.26953125
v -0.01171875 -0.13671875 -0.14453125
v -0.01171875 -0.11328125 -0.22265625
v -0.01171875 -0.10546875 -0.21484375
v -0.01171875 -0.08984375 0.44921875
v -0.01171875 -0.08203125 0.44140625
v -0.01171875 -0.07421875 0.43359375
v -0.01171875 -0.05859375 -0.44140625
v -0.01171875 -0.05859375 0.44921875
v -0.01171875 -0.05859375 0.45703125
v -0.01171875 -0.04296875 -0.46484375
v -0.01171875 -0.01171875 -0.43359375
v -0.01171875 -0.00390625 -0.43359375
v -0.01171875 0.00390625 0.35546875
v -0.01171875 0.03515625 -0.43359375
v -0.01171875 0.07421875 0.26953125
v -0.01171875 0.07421875 0.27734375
v -0.00390625 -0.18359375 -0.12109375
v -0.00390625 -0.18359375 -0.11328125
v -0.00390625 -0.18359375 -0.05078125
v -0.00390625 -0.18359375 -0.03515625
v -0.00390625 -0.18359375 -0.01171875
v -0.00390625 -0.18359375 -0.00390625
v -0.00390625 -0.18359375 0.09765625
v -0.00390625 -0.18359375 0.12109375
v -0.00390625 -0.15234375 0.24609375
v -0.00390625 -0.12890625 -0.24609375
v -0.00390625 -0.11328125 0.41796875
v -0.00390625 -0.09765625 0.44921875
v -0.00390625 -0.05078125 0.45703125
v -0.00390625 -0.03515625 -0.43359375
v -0.00390625 -0.02734375 0.44921875
v -0.00390625 -0.01171875 -0.43359375
v -0.00390625 -0.01171875 0.39453125
v -0.00390625 -0.00390625 -0.43359375
v -0.00390625 0.08203125 0.25390625
v -0.00390625 0.08203125 0.26953125
v -0.00390625 0.08984375 0.23828125
v -0.00390625 0.08984375 0.25390625
v -0.00390625 0.09765625 0.18359375
v -0.00390625 0.11328125 0.11328125
v -0.00390625 0.11328125 0.18359375
v -0.00390625 0.12109375 0.10546875
v -0.00390625 0.12109375 0.11328125
v -0.00390625 0.12890625 0.10546875
v -0.00390625 0.13671875 -0.16796875
v -0.00390625 0.13671875 0.09765625
v -0.00390625 0.13671875 0.10546875
v -0.00390625 0.14453125 -0.14453125
v -0.00390625 0.14453125 -0.10546875
v -0.00390625 0.14453125 -0.08984375
v -0.00390625 0.14453125 -0.01953125
v -0.00390625 0.14453125 0.08984375
v 0.00390625 -0.08984375 0.44921875
v 0.00390625 -0.08203125 0.44140625
v 0.00390625 -0.05859375 0.44921875
v 0.00390625 -0.05859375 0.45703125
v 0.00390625 0.00390625 0.34765625
v 0.00390625 0.01171875 0.34765625
v 0.00390625 0.07421875 0.26953125
v 0.00390625 0.07421875 0.27734375
v 0.01171875 -0.13671875 -0.14453125
v 0.01171875 -0.13671875 -0.13671875
v 0.01171875 -0.11328125 -0.22265625
v 0.01171875 -0.10546875 -0.21484375
v 0.01171875 -0.07421875 0.43359375
v 0.01171875 -0.05859375 0.44921875
v 0.01171875 -0.04296875 0.44921875
v 0.01171875 -0.03515625 0.45703125
v 0.01953125 -0.04296875 0.44140625
v 0.01953125 -0.03515625 -0.43359375
v 0.01953125 -0.01171875 -0.43359375
v 0.01953125 -0.00390625 -0.43359375
v 0.01953125 0.03515625 -0.43359375
v 0.01953125 0.13671875 -0.26953125
v 0.02734375 -0.04296875 -0.46484375
v 0.02734375 -0.00390625 -0.45703125
v 0.02734375 0.00390625 -0.45703125
v 0.02734375 0.00390625 -0.43359375
v 0.02734375 0.03515625 -0.43359375
v 0.02734375 0.04296875 -0.46484375
v 0.02734375 0.08984375 0.19921875
v 0.02734375 0.08984375 0.20703125
v 0.02734375 0.08984375 0.23828125
v 0.02734375 0.09765625 0.18359375
v 0.02734375 0.10546875 0.18359375
v 0.02734375 0.11328125 -0.37109375
v 0.02734375 0.12109375 -0.42578125
v 0.02734375 0.12109375 -0.28515625
v 0.02734375 0.13671875 -0.28515625
v 0.02734375 0.13671875 -0.16796875
v 0.03515625 -0.05859375 -0.44140625
v 0.03515625 0.00390625 -0.42578125
v 0.03515625 0.01171875 -0.42578125
v 0.03515625 0.03515625 -0.44921875
v 0.03515625 0.07421875 0.26171875
v 0.03515625 0.07421875 0.26953125
v 0.03515625 0.08203125 0.25390625
v 0.03515625 0.08203125 0.26953125
v 0.03515625 0.08984375 0.19921875
v 0.03515625 0.08984375 0.20703125
v 0.03515625 0.08984375 0.23828125
v 0.03515625 0.08984375 0.25390625
v 0.03515625 0.08984375 0.26953125
v 0.03515625 0.09765625 0.18359375
v 0.03515625 0.12109375 0.10546875
v 0.03515625 0.14453125 -0.14453125
v 0.03515625 0.14453125 -0.10546875
v 0.03515625 0.14453125 -0.08984375
v 0.03515625 0.14453125 -0.01953125
v 0.03515625 0.14453125 0.08984375
v 0.04296875 -0.08203125 0.44140625
v 0.04296875 -0.07421875 -0.28515625
v 0.04296875 -0.06640625 -0.37109375
v 0.04296875 -0.05859375 -0.43359375
v 0.04296875 -0.00390625 -0.43359375
v 0.04296875 0.01171875 -0.42578125
v 0.04296875 0.04296875 -0.44921875
v 0.04296875 0.04296875 0.30859375
v 0.04296875 0.05078125 -0.44921875
v 0.04296875 0.05078125 0.31640625
v 0.04296875 0.05859375 0.19921875
v 0.04296875 0.08984375 0.23828125
v 0.04296875 0.09765625 0.18359375
v 0.04296875 0.10546875 0.18359375
v 0.04296875 0.11328125 -0.16015625
v 0.04296875 0.11328125 -0.14453125
v 0.04296875 0.11328125 -0.10546875
v 0.04296875 0.11328125 -0.08984375
v 0.04296875 0.11328125 -0.01953125
v 0.04296875 0.11328125 0.09765625
v 0.04296875 0.11328125 0.11328125
v 0.04296875 0.12109375 0.11328125
v 0.04296875 0.12890625 -0.28515625
v 0.04296875 0.12890625 0.10546875
v 0.04296875 0.13671875 -0.16015625
v 0.04296875 0.13671875 -0.14453125
v 0.04296875 0.13671875 -0.10546875
v 0.04296875 0.13671875 -0.08984375
v 0.04296875 0.13671875 -0.01953125
v 0.04296875 0.13671875 0.09765625
v 0.04296875 0.13671875 0.10546875
v 0.05078125 -0.09765625 0.44921875
v 0.05078125 -0.08984375 0.44921875
v 0.05078125 -0.08203125 -0.28515625
v 0.05078125 -0.07421875 0.43359375
v 0.05078125 -0.05859375 0.44921875
v 0.05078125 -0.04296875 0.44140625
v 0.05078125 -0.04296875 0.44921875
v 0.05078125 -0.03515625 0.45703125
v 0.05078125 -0.02734375 -0.29296875
v 0.05078125 -0.02734375 -0.28515625
v 0.05078125 0.01953125 0.32421875
v 0.05078125 0.02734375 0.29296875
v 0.05078125 0.02734375 0.33984375
v 0.05078125 0.05078125 0.31640625
v 0.05078125 0.05859375 0.18359375
v 0.05078125 0.05859375 0.19921875
v 0.05078125 0.08203125 -0.41796875
v 0.05078125 0.09765625 -0.28515625
v 0.05078125 0.09765625 0.18359375
v 0.05078125 0.10546875 0.18359375
v 0.05859375 -0.11328125 -0.25390625
v 0.05859375 -0.11328125 -0.22265625
v 0.05859375 -0.10546875 -0.24609375
v 0.05859375 -0.10546875 -0.21484375
v 0.05859375 -0.07421875 -0.28515625
v 0.05859375 -0.05859375 0.44921875
v 0.05859375 -0.02734375 -0.30078125
v 0.05859375 -0.02734375 0.44921875
v 0.05859375 0.00390625 0.34765625
v 0.05859375 0.01171875 -0.41796875
v 0.05859375 0.01171875 0.19921875
v 0.05859375 0.01171875 0.31640625
v 0.05859375 0.01171875 0.34765625
v 0.05859375 0.01171875 0.35546875
v 0.05859375 0.01953125 0.19921875
v 0.05859375 0.01953125 0.29296875
v 0.05859375 0.02734375 -0.30078125
v 0.05859375 0.02734375 -0.28515625
v 0.05859375 0.02734375 0.33984375
v 0.05859375 0.03515625 0.29296875
v 0.05859375 0.05078125 -0.41796875
v 0.05859375 0.06640625 -0.41796875
v 0.05859375 0.06640625 -0.29296875
v 0.05859375 0.06640625 -0.28515625
v 0.05859375 0.07421875 -0.30859375
v 0.05859375 0.07421875 -0.28515625
v 0.05859375 0.12109375 -0.28515625
v 0.06640625 -0.13671875 -0.13671875
v 0.06640625 -0.11328125 0.41796875
v 0.06640625 -0.07421875 -0.28515625
v 0.06640625 -0.05859375 0.45703125
v 0.06640625 -0.02734375 -0.28515625
v 0.06640625 -0.01171875 0.19921875
v 0.06640625 -0.00390625 0.36328125
v 0.06640625 0.01171875 0.18359375
v 0.06640625 0.01953125 -0.30078125
v 0.06640625 0.01953125 -0.28515625
v 0.06640625 0.02734375 0.33984375
v 0.06640625 0.05078125 -0.35546875
v 0.06640625 0.05859375 0.18359375
v 0.06640625 0.06640625 -0.28515625
v 0.06640625 0.09765625 -0.28515625
v 0.07421875 -0.18359375 -0.12109375
v 0.07421875 -0.18359375 -0.11328125
v 0.07421875 -0.18359375 -0.05078125
v 0.07421875 -0.18359375 -0.03515625
v 0.07421875 -0.18359375 -0.01171875
v 0.07421875 -0.18359375 -0.00390625
v 0.07421875 -0.18359375 0.09765625
v 0.07421875 -0.18359375 0.12109375
v 0.07421875 -0.15234375 0.24609375
v 0.07421875 -0.13671875 -0.14453125
v 0.07421875 -0.11328125 0.36328125
v 0.07421875 -0.02734375 -0.28515625
v 0.07421875 -0.01953125 -0.31640625
v 0.07421875 -0.01171875 0.39453125
v 0.07421875 -0.00390625 -0.42578125
v 0.07421875 -0.00390625 -0.41796875
v 0.07421875 -0.00390625 0.36328125
v 0.07421875 0.00390625 -0.41796875
v 0.07421875 0.01171875 -0.42578125
v 0.07421875 0.01171875 -0.34765625
v 0.07421875 0.01171875 -0.33984375
v 0.07421875 0.01171875 -0.31640625
v 0.07421875 0.01171875 -0.28515625
v 0.07421875 0.01171875 0.31640625
v 0.07421875 0.01953125 0.18359375
v 0.07421875 0.06640625 -0.28515625
v 0.07421875 0.07421875 -0.28515625
v 0.07421875 0.09765625 -0.28515625
v 0.07421875 0.10546875 -0.13671875
v 0.07421875 0.10546875 -0.10546875
v 0.07421875 0.10546875 -0.08984375
v 0.07421875 0.10546875 -0.01953125
v 0.07421875 0.10546875 0.12109375
v 0.07421875 0.10546875 0.14453125
v 0.07421875 0.11328125 -0.16015625
v 0.07421875 0.11328125 -0.14453125
v 0.07421875 0.11328125 -0.10546875
v 0.07421875 0.11328125 -0.08984375
v 0.07421875 0.11328125 -0.01953125
v 0.07421875 0.11328125 0.12109375
v 0.08203125 -0.12890625 -0.04296875
v 0.08203125 -0.12890625 -0.01953125
v 0.08203125 -0.12890625 0.12109375
v 0.08203125 -0.12109375 -0.11328125
v 0.08203125 -0.12109375 -0.05078125
v 0.08203125 -0.12109375 -0.01171875
v 0.08203125 -0.12109375 0.09765625
v 0.08203125 -0.11328125 0.19921875
v 0.08203125 -0.08984375 -0.14453125
v 0.08203125 -0.01171875 -0.34765625
v 0.08203125 -0.00390625 -0.41015625
v 0.08203125 -0.00390625 0.19921875
v 0.08203125 0.00390625 -0.33203125
v 0.08203125 0.05859375 -0.13671875
v 0.08203125 0.06640625 0.14453125
v 0.08203125 0.07421875 -0.28515625
v 0.08203125 0.08203125 0.14453125
v 0.08203125 0.10546875 -0.16015625
v 0.08984375 -0.12890625 -0.04296875
v 0.08984375 -0.12890625 -0.01953125
v 0.08984375 -0.12890625 0.19921875
v 0.08984375 -0.12890625 0.37109375
v 0.08984375 -0.12109375 -0.12109375
v 0.08984375 -0.12109375 -0.05078125
v 0.08984375 -0.12109375 -0.01171875
v 0.08984375 -0.12109375 0.19921875
v 0.08984375 -0.12109375 0.36328125
v 0.08984375 -0.09765625 -0.15234375
v 0.08984375 -0.05078125 0.45703125
v 0.08984375 -0.01171875 -0.33984375
v 0.08984375 -0.01171875 0.19921875
v 0.08984375 -0.00390625 0.35546875
v 0.08984375 0.02734375 -0.13671875
v 0.08984375 0.06640625 0.12109375
v 0.08984375 0.07421875 -0.01953125
v 0.08984375 0.08203125 0.09765625
v 0.08984375 0.10546875 -0.14453125
v 0.09765625 -0.12890625 -0.12109375
v 0.09765625 -0.12890625 0.12109375
v 0.09765625 -0.12109375 -0.11328125
v 0.09765625 -0.12109375 0.09765625
v 0.09765625 -0.00390625 -0.13671875
v 0.09765625 0.01953125 0.14453125
v 0.09765625 0.05859375 -0.16796875
v 0.09765625 0.05859375 -0.14453125
v 0.09765625 0.05859375 -0.09765625
v 0.09765625 0.06640625 -0.05859375
v 0.09765625 0.06640625 -0.01953125
v 0.09765625 0.06640625 0.08984375
v 0.09765625 0.06640625 0.09765625
v 0.10546875 -0.08203125 -0.13671875
v 0.10546875 -0.05859375 -0.16015625
v 0.10546875 -0.05078125 -0.15234375
v 0.10546875 -0.00390625 -0.16015625
v 0.10546875 -0.00390625 -0.15234375
v 0.10546875 -0.00390625 -0.08984375
v 0.10546875 -0.00390625 0.33984375
v 0.10546875 0.01171875 0.08984375
v 0.10546875 0.01953125 0.09765625
v 0.10546875 0.01953125 0.12109375
v 0.10546875 0.02734375 -0.16796875
v 0.10546875 0.02734375 -0.14453125
v 0.10546875 0.02734375 -0.08984375
v 0.10546875 0.04296875 0.07421875
v 0.10546875 0.05859375 -0.07421875
v 0.10546875 0.05859375 0.09765625
v 0.10546875 0.06640625 -0.05859375
v 0.10546875 0.21484375 -0.31640625
v 0.11328125 -0.08984375 -0.12890625
v 0.11328125 -0.05078125 0.41796875
v 0.11328125 -0.03515625 -0.16015625
v 0.11328125 -0.03515625 -0.15234375
v 0.11328125 -0.03515625 -0.12890625
v 0.11328125 -0.01171875 0.19921875
v 0.11328125 -0.01171875 0.34765625
v 0.11328125 0.00390625 -0.08203125
v 0.11328125 0.01953125 -0.08203125
v 0.11328125 0.05078125 0.09765625
v 0.11328125 0.05078125 0.12109375
v 0.11328125 0.20703125 -0.32421875
v 0.11328125 0.21484375 -0.29296875
v 0.12109375 -0.08984375 -0.12109375
v 0.12109375 -0.08984375 -0.05859375
v 0.12109375 -0.08984375 -0.05078125
v 0.12109375 -0.08984375 -0.02734375
v 0.12109375 -0.08203125 -0.01953125
v 0.12109375 -0.07421875 -0.12890625
v 0.12109375 -0.06640625 -0.13671875
v 0.12109375 -0.06640625 -0.12109375
v 0.12109375 -0.05078125 0.36328125
v 0.12109375 -0.03515625 -0.07421875
v 0.12109375 -0.03515625 0.14453125
v 0.12109375 -0.01171875 -0.06640625
v 0.12109375 0.01171875 0.07421875
v 0.12109375 0.01953125 -0.06640625
v 0.12109375 0.05859375 -0.05859375
v 0.12109375 0.20703125 -0.30078125
v 0.12109375 0.21484375 -0.28515625
v 0.12109375 0.22265625 -0.32421875
v 0.12890625 -0.15234375 -0.07421875
v 0.12890625 -0.15234375 -0.05078125
v 0.12890625 -0.15234375 -0.02734375
v 0.12890625 -0.15234375 -0.01953125
v 0.12890625 -0.15234375 0.09765625
v 0.12890625 -0.15234375 0.14453125
v 0.12890625 -0.11328125 -0.24609375
v 0.12890625 -0.11328125 -0.07421875
v 0.12890625 -0.11328125 -0.05078125
v 0.12890625 -0.11328125 -0.02734375
v 0.12890625 -0.11328125 -0.01953125
v 0.12890625 -0.11328125 0.09765625
v 0.12890625 -0.10546875 -0.24609375
v 0.12890625 -0.09765625 -0.23828125
v 0.12890625 -0.08203125 0.09765625
v 0.12890625 -0.07421875 -0.12109375
v 0.12890625 -0.07421875 -0.05859375
v 0.12890625 -0.06640625 -0.05859375
v 0.12890625 -0.05859375 0.37109375
v 0.12890625 -0.05078125 0.16015625
v 0.12890625 -0.03515625 0.09765625
v 0.12890625 -0.03515625 0.12109375
v 0.12890625 -0.02734375 -0.05859375
v 0.12890625 0.01171875 0.10546875
v 0.12890625 0.02734375 0.12109375
v 0.12890625 0.03515625 -0.05859375
v 0.12890625 0.20703125 -0.29296875
v 0.12890625 0.22265625 -0.30078125
v 0.13671875 -0.12890625 -0.26953125
v 0.13671875 -0.12109375 0.12890625
v 0.13671875 -0.10546875 -0.07421875
v 0.13671875 -0.10546875 -0.05078125
v 0.13671875 -0.10546875 -0.02734375
v 0.13671875 -0.10546875 -0.01953125
v 0.13671875 -0.10546875 0.09765625
v 0.13671875 -0.10546875 0.12109375
v 0.13671875 -0.09765625 -0.07421875
v 0.13671875 -0.09765625 -0.05078125
v 0.13671875 -0.09765625 -0.02734375
v 0.13671875 -0.09765625 -0.01953125
v 0.13671875 -0.09765625 0.09765625
v 0.13671875 -0.06640625 0.16015625
v 0.13671875 -0.06640625 0.16796875
v 0.13671875 -0.05078125 0.10546875
v 0.13671875 -0.05078125 0.12109375
v 0.13671875 0.00390625 0.10546875
v 0.14453125 -0.16015625 0.18359375
v 0.14453125 -0.13671875 -0.24609375
v 0.14453125 -0.11328125 -0.26953125
v 0.14453125 -0.10546875 -0.24609375
v 0.14453125 -0.07421875 0.12109375
v 0.14453125 -0.05859375 0.10546875
v 0.14453125 -0.03515625 0.07421875
v 0.15234375 -0.12890625 -0.26953125
v 0.15234375 -0.10546875 0.12890625
v 0.15234375 -0.09765625 -0.23828125
v 0.15234375 -0.09765625 0.12109375
v 0.15234375 -0.05078125 -0.37109375
v 0.15234375 -0.04296875 -0.37890625
v 0.15234375 -0.04296875 -0.37109375
v 0.15234375 -0.04296875 0.10546875
v 0.15234375 -0.03515625 -0.41015625
v 0.15234375 -0.03515625 -0.37890625
v 0.16015625 -0.21484375 0.09765625
v 0.16015625 -0.19921875 0.12109375
v 0.16015625 -0.16015625 0.16015625
v 0.16015625 -0.05078125 -0.41796875
v 0.16015625 -0.05078125 -0.38671875
v 0.16015625 -0.05078125 -0.37890625
v 0.16015625 -0.04296875 -0.41796875
v 0.16015625 -0.04296875 -0.41015625
v 0.16015625 -0.04296875 -0.37890625
v 0.16015625 -0.02734375 -0.05859375
v 0.16015625 0.03515625 0.12109375
v 0.16015625 0.04296875 0.09765625
v 0.16015625 0.05078125 -0.05859375
v 0.16015625 0.05078125 -0.01953125
v 0.16015625 0.05078125 0.07421875
v 0.16796875 -0.21484375 -0.08203125
v 0.16796875 -0.21484375 -0.05859375
v 0.16796875 -0.21484375 -0.02734375
v 0.16796875 -0.21484375 -0.01953125
v 0.16796875 -0.14453125 0.12890625
v 0.16796875 -0.11328125 0.13671875
v 0.16796875 -0.05078125 -0.41796875
v 0.16796875 -0.05078125 -0.37890625
v 0.16796875 0.04296875 -0.05859375
v 0.17578125 -0.21484375 0.09765625
v 0.17578125 -0.21484375 0.12109375
v 0.17578125 -0.20703125 0.14453125
v 0.17578125 -0.12890625 0.12109375
v 0.17578125 -0.10546875 -0.07421875
v 0.17578125 -0.09765625 -0.07421875
v 0.17578125 -0.09765625 -0.05859375
v 0.17578125 -0.08984375 -0.05859375
v 0.17578125 -0.08203125 -0.05859375
v 0.17578125 -0.05078125 -0.41796875
v 0.17578125 -0.05078125 -0.38671875
v 0.18359375 -0.21484375 -0.02734375
v 0.18359375 -0.21484375 -0.01953125
v 0.18359375 -0.18359375 0.11328125
v 0.18359375 -0.10546875 -0.05078125
v 0.18359375 -0.09765625 -0.02734375
v 0.18359375 -0.09765625 -0.01953125
v 0.18359375 -0.05859375 -0.38671875
v 0.19140625 -0.21484375 -0.08203125
v 0.19140625 -0.21484375 -0.05859375
v 0.19140625 -0.19921875 0.16015625
v 0.19140625 -0.09765625 0.09765625
v 0.19140625 -0.08203125 0.12109375
v 0.19140625 -0.05859375 -0.21484375
v 0.19921875 -0.05859375 -0.16015625
v 0.23046875 -0.18359375 0.11328125
v 0.23828125 -0.19140625 0.14453125
v 0.23828125 -0.05859375 -0.21484375
v 0.23828125 -0.05859375 -0.16015625
v 0.24609375 -0.21484375 -0.08203125
v 0.24609375 -0.21484375 -0.05859375
v 0.24609375 -0.21484375 -0.01953125
v 0.24609375 -0.21484375 0.09765625
v 0.24609375 -0.21484375 0.12109375
v 0.24609375 -0.19921875 0.12890625
v 0.24609375 -0.14453125 0.11328125
v 0.24609375 -0.12890625 0.12109375
v 0.24609375 -0.11328125 0.13671875
v 0.24609375 -0.04296875 0.12890625
v 0.24609375 -0.03515625 -0.05859375
v 0.25390625 -0.20703125 0.12109375
v 0.25390625 -0.13671875 0.16015625
v 0.25390625 -0.04296875 0.09765625
v 0.25390625 -0.03515625 -0.01953125
v 0.26171875 -0.16015625 0.16015625
v 0.26171875 -0.15234375 0.18359375
v 0.26171875 -0.11328125 0.17578125
v 0.26171875 -0.10546875 0.12890625
v 0.26171875 -0.09765625 -0.07421875
v 0.26171875 -0.09765625 -0.05859375
v 0.26171875 -0.09765625 0.09765625
v 0.26171875 -0.09765625 0.12109375
v 0.26171875 -0.09765625 0.12890625
v 0.26171875 -0.08984375 -0.05859375
v 0.26171875 -0.08203125 -0.05859375
v 0.26171875 -0.04296875 -0.05859375
v 0.26171875 -0.03515625 0.07421875
v 0.26953125 -0.14453125 0.17578125
v 0.26953125 -0.12890625 -0.28515625
v 0.26953125 -0.12109375 0.16796875
v 0.26953125 -0.09765625 -0.26953125
v 0.26953125 -0.08984375 -0.28515625
v 0.27734375 -0.10546875 -0.28515625
v 0.27734375 -0.09765625 -0.05859375
v 0.27734375 -0.08984375 0.09765625
v 0.28515625 -0.15234375 0.01953125
v 0.28515625 -0.15234375 0.09765625
v 0.28515625 -0.15234375 0.12890625
v 0.28515625 -0.13671875 -0.26953125
v 0.28515625 -0.12890625 -0.26953125
v 0.28515625 -0.12109375 0.12890625
v 0.28515625 -0.11328125 -0.26953125
v 0.28515625 -0.11328125 0.01953125
v 0.28515625 -0.11328125 0.09765625
v 0.28515625 -0.10546875 -0.26953125
v 0.28515625 -0.10546875 -0.07421875
v 0.28515625 -0.10546875 -0.05859375
v 0.28515625 -0.10546875 -0.01953125
v 0.28515625 -0.10546875 0.09765625
v 0.28515625 -0.10546875 0.12890625
v 0.28515625 -0.09765625 -0.26953125
v 0.28515625 -0.09765625 -0.05859375
v 0.28515625 -0.09765625 -0.01953125
v 0.28515625 -0.09765625 0.09765625
v 0.28515625 -0.09765625 0.12890625
v 0.28515625 -0.08984375 0.09765625
v 0.29296875 -0.16015625 -0.05859375
v 0.29296875 -0.14453125 -0.26953125
v 0.29296875 -0.09765625 -0.26953125
v 0.30859375 -0.16015625 -0.05859375
v 0.31640625 -0.14453125 -0.26953125
v 0.31640625 -0.14453125 -0.24609375
v 0.31640625 -0.13671875 -0.26953125
v 0.31640625 -0.11328125 -0.26953125
v 0.31640625 -0.11328125 -0.24609375
v 0.31640625 -0.10546875 -0.07421875
v 0.41796875 -0.13671875 -0.02734375
v 0.41796875 -0.12109375 -0.02734375
v 0.44921875 -0.14453125 -0.24609375
v 0.44921875 -0.14453125 -0.23046875
v 0.44921875 -0.13671875 -0.24609375
v 0.44921875 -0.12109375 -0.23046875
v 0.44921875 -0.11328125 -0.24609375
v 0.44921875 -0.11328125 -0.23046875
v 0.45703125 -0.13671875 -0.23828125
v 0.45703125 -0.12109375 -0.23828125
v 0.46484375 -0.14453125 -0.08984375
v 0.47265625 -0.14453125 -0.08984375
v 0.47265625 -0.12109375 -0.08984375
v 0.48046875 -0.11328125 -0.08984375
v 0.49609375 -0.13671875 -0.21484375
v 0.49609375 -0.13671875 -0.20703125
v 0.49609375 -0.13671875 -0.09765625
v 0.49609375 -0.13671875 -0.08984375
v 0.49609375 -0.12890625 -0.09765625
v 0.49609375 -0.12890625 -0.08203125
v 0.49609375 -0.12109375 -0.21484375
v 0.49609375 -0.12109375 -0.20703125
v 0.49609375 -0.12109375 -0.09765625
v 0.49609375 -0.12109375 -0.07421875
f 84 85 31
f 84 31 30
f 31 85 32
f 85 84 145
f 84 30 87
f 30 31 14
f 31 32 15
f 32 85 88
f 85 145 146
f 145 84 147
f 84 87 147
f 87 30 33
f 30 14 13
f 14 31 15
f 15 32 21
f 32 88 34
f 88 85 146
f 146 145 186
f 145 147 202
f 147 87 159
f 87 33 86
f 33 30 13
f 13 14 18
f 14 15 20
f 15 21 20
f 21 32 34
f 34 88 63
f 88 146 142
f 146 186 187
f 186 145 202
f 202 147 203
f 147 159 203
f 159 87 86
f 86 33 42
f 33 13 17
f 13 18 17
f 18 14 20
f 21 15 10
f 21 34 35
f 34 63 35
f 63 88 64
f 88 142 100
f 142 146 187
f 187 186 225
f 186 202 224
f 202 203 204
f 203 159 237
f 159 86 160
f 86 42 65
f 42 33 17
f 17 18 25
f 18 20 3
f 21 10 5
f 21 35 29
f 35 63 54
f 63 64 66
f 64 88 100
f 100 142 130
f 142 187 222
f 187 225 226
f 225 186 224
f 224 202 204
f 204 203 240
f 203 237 240
f 237 159 160
f 160 86 65
f 65 42 41
f 42 17 16
f 17 25 24
f 25 18 26
f 18 3 8
f 3 20 19
f 21 5 4
f 5 10 9
f 10 21 29
f 29 35 38
f 35 54 38
f 54 63 66
f 66 64 78
f 64 100 76
f 100 130 101
f 130 142 222
f 222 187 226
f 226 225 206
f 225 224 205
f 224 204 192
f 204 240 241
f 240 237 239
f 237 160 238
f 160 65 162
f 65 41 40
f 41 42 16
f 16 17 24
f 24 25 36
f 26 18 8
f 8 3 9
f 3 19 4
f 21 4 19
f 4 5 9
f 9 10 27
f 10 29 27
f 29 38 39
f 38 54 58
f 54 66 68
f 66 78 81
f 78 64 76
f 76 100 101
f 101 130 131
f 130 222 188
f 222 226 227
f 226 206 207
f 206 225 205
f 205 224 192
f 192 204 241
f 241 240 223
f 240 239 223
f 239 237 238
f 238 160 189
f 160 162 176
f 162 65 74
f 65 40 51
f 40 41 43
f 41 16 12
f 16 24 7
f 24 36 48
f 36 25 37
f 26 8 27
f 8 9 27
f 9 3 4
f 29 39 28
f 39 38 58
f 58 54 68
f 68 66 81
f 81 78 93
f 78 76 90
f 76 101 89
f 101 131 112
f 131 130 188
f 188 222 227
f 227 226 207
f 207 206 137
f 206 205 135
f 205 192 134
f 192 241 157
f 241 223 190
f 223 239 238
f 238 189 223
f 189 160 176
f 176 162 163
f 162 74 149
f 74 65 56
f 65 51 53
f 51 40 53
f 40 43 53
f 43 41 12
f 12 16 2
f 16 7 2
f 7 24 23
f 24 48 23
f 48 36 49
f 36 37 50
f 37 25 28
f 28 39 37
f 39 58 62
f 58 68 62
f 68 81 178
f 81 93 164
f 93 78 90
f 90 76 89
f 89 101 112
f 112 131 132
f 131 188 161
f 188 227 191
f 227 207 208
f 207 137 138
f 137 206 135
f 135 205 134
f 134 192 157
f 157 241 122
f 241 190 155
f 190 223 189
f 189 176 177
f 176 163 165
f 163 162 149
f 149 74 77
f 74 56 67
f 56 65 47
f 65 53 52
f 53 43 44
f 43 12 11
f 12 2 1
f 2 7 1
f 7 23 22
f 23 48 46
f 48 49 57
f 49 36 50
f 50 37 39
f 39 62 50
f 62 68 191
f 68 178 191
f 178 81 164
f 164 93 151
f 93 90 104
f 90 89 103
f 89 112 102
f 112 132 119
f 132 131 161
f 161 188 191
f 191 227 208
f 208 207 138
f 138 137 242
f 137 135 229
f 135 134 144
f 134 157 127
f 157 122 126
f 122 241 121
f 241 155 56
f 155 190 166
f 190 189 177
f 177 176 165
f 165 163 154
f 163 149 152
f 149 77 150
f 77 74 67
f 67 56 155
f 56 47 45
f 47 65 52
f 52 53 55
f 53 44 55
f 44 43 22
f 43 11 22
f 11 12 1
f 1 7 6
f 7 22 6
f 22 23 46
f 46 48 57
f 57 49 60
f 49 50 61
f 50 62 61
f 62 191 208
f 191 178 161
f 178 164 148
f 164 151 143
f 151 93 104
f 104 90 103
f 103 89 102
f 102 112 119
f 119 132 133
f 132 161 148
f 208 138 128
f 138 242 243
f 242 137 229
f 229 135 228
f 135 144 136
f 144 134 123
f 134 127 123
f 127 157 126
f 126 122 108
f 122 121 107
f 121 241 156
f 241 56 156
f 155 166 67
f 166 190 177
f 177 165 153
f 165 154 153
f 154 163 152
f 152 149 150
f 150 77 91
f 77 67 79
f 56 45 46
f 45 47 55
f 47 52 55
f 55 44 45
f 44 22 46
f 22 11 6
f 11 1 6
f 46 57 56
f 57 60 59
f 60 49 61
f 61 62 72
f 161 178 148
f 148 164 143
f 143 151 103
f 151 104 103
f 103 102 143
f 102 119 133
f 133 132 148
f 128 138 243
f 243 242 289
f 242 229 288
f 229 228 291
f 228 135 136
f 136 144 123
f 123 127 120
f 127 126 116
f 126 108 116
f 108 122 107
f 107 121 106
f 121 156 114
f 156 56 114
f 67 166 79
f 166 177 153
f 153 154 80
f 154 152 94
f 152 150 92
f 150 91 92
f 91 77 79
f 56 57 59
f 59 60 71
f 60 61 72
f 72 62 73
f 148 143 133
f 143 102 133
f 128 243 230
f 243 289 292
f 289 242 288
f 288 229 291
f 291 228 305
f 228 136 139
f 136 123 124
f 123 120 71
f 120 127 116
f 116 108 70
f 108 107 69
f 107 106 95
f 106 121 114
f 114 56 95
f 79 166 153
f 153 80 79
f 80 154 94
f 94 152 92
f 92 91 79
f 56 59 70
f 59 71 120
f 71 60 72
f 72 73 98
f 128 230 129
f 230 243 292
f 292 289 320
f 289 288 319
f 288 291 323
f 291 305 345
f 305 228 257
f 228 139 209
f 139 136 124
f 124 123 75
f 123 71 75
f 120 116 70
f 70 108 69
f 69 107 95
f 95 106 105
f 106 114 115
f 114 95 113
f 95 56 69
f 79 80 94
f 94 92 79
f 56 70 69
f 70 59 120
f 71 72 97
f 72 98 97
f 98 73 99
f 128 129 82
f 129 230 210
f 230 292 293
f 292 320 324
f 320 289 319
f 319 288 323
f 323 291 345
f 345 305 322
f 305 257 287
f 257 228 209
f 209 139 140
f 139 124 125
f 124 75 83
f 75 71 96
f 95 105 113
f 105 106 115
f 115 114 113
f 71 97 96
f 97 98 118
f 98 99 111
f 99 73 82
f 128 82 73
f 82 129 210
f 210 230 293
f 293 292 324
f 324 320 339
f 320 319 338
f 319 323 337
f 323 345 370
f 345 322 369
f 322 305 287
f 287 257 256
f 257 209 231
f 209 140 193
f 140 139 125
f 125 124 83
f 83 75 109
f 75 96 109
f 113 105 115
f 96 97 173
f 97 118 117
f 118 98 111
f 111 99 158
f 99 82 110
f 82 210 110
f 210 293 290
f 293 324 325
f 324 339 340
f 339 320 338
f 338 319 337
f 337 323 370
f 370 345 369
f 369 322 371
f 322 287 273
f 287 256 273
f 256 257 231
f 231 209 232
f 209 193 232
f 193 140 213
f 140 125 141
f 125 83 109
f 109 96 172
f 96 173 172
f 173 97 183
f 97 117 183
f 117 118 174
f 118 111 175
f 111 158 175
f 158 99 185
f 99 110 185
f 110 210 221
f 210 290 326
f 290 293 325
f 325 324 340
f 340 339 532
f 339 338 531
f 338 337 530
f 337 370 529
f 370 369 528
f 369 371 500
f 371 322 328
f 322 273 328
f 273 256 245
f 256 231 244
f 231 232 246
f 232 193 213
f 213 140 141
f 141 125 109
f 109 172 141
f 172 173 220
f 173 183 234
f 183 117 174
f 174 118 175
f 175 158 185
f 185 110 182
f 110 221 182
f 221 210 194
f 210 326 247
f 326 290 321
f 290 325 321
f 325 340 341
f 340 532 533
f 532 339 531
f 531 338 530
f 530 337 529
f 529 370 528
f 528 369 500
f 500 371 512
f 371 328 344
f 328 273 275
f 273 245 275
f 245 256 244
f 244 231 246
f 246 232 261
f 232 213 261
f 213 141 217
f 141 172 217
f 172 220 217
f 220 173 234
f 234 183 268
f 183 174 184
f 174 175 184
f 175 185 184
f 185 182 270
f 182 221 253
f 221 194 219
f 194 210 233
f 210 247 250
f 247 326 303
f 326 321 342
f 321 325 341
f 341 340 533
f 533 532 720
f 532 531 719
f 531 530 718
f 530 529 717
f 529 528 716
f 528 500 514
f 500 512 513
f 512 371 344
f 344 328 306
f 328 275 306
f 275 245 259
f 245 244 246
f 246 261 260
f 261 213 251
f 213 217 251
f 217 220 252
f 220 234 252
f 234 268 266
f 268 183 184
f 184 185 269
f 185 270 269
f 270 182 253
f 253 221 219
f 219 194 181
f 194 233 216
f 233 210 250
f 250 247 262
f 247 303 211
f 303 326 304
f 326 342 343
f 342 321 341
f 341 533 534
f 533 720 721
f 720 532 719
f 719 531 718
f 718 530 717
f 717 529 716
f 716 528 715
f 528 514 537
f 514 500 513
f 513 512 344
f 344 306 372
f 306 275 274
f 275 259 274
f 259 245 260
f 245 246 260
f 260 261 278
f 261 251 278
f 251 217 252
f 252 234 266
f 266 268 283
f 268 184 269
f 269 270 316
f 270 253 219
f 219 181 218
f 181 194 216
f 216 233 265
f 233 250 280
f 250 262 282
f 262 247 352
f 247 211 352
f 211 303 294
f 303 304 295
f 304 326 327
f 326 343 327
f 343 342 535
f 342 341 534
f 534 533 721
f 721 720 761
f 720 719 760
f 719 718 756
f 718 717 755
f 717 716 759
f 716 715 758
f 715 528 573
f 528 537 575
f 537 514 676
f 514 513 373
f 513 344 373
f 344 372 373
f 372 306 394
f 306 274 394
f 274 259 258
f 259 260 298
f 260 278 298
f 278 251 264
f 251 252 264
f 252 266 264
f 266 283 281
f 283 268 318
f 268 269 318
f 269 316 318
f 316 270 317
f 270 219 218
f 218 181 216
f 216 265 218
f 265 233 280
f 280 250 282
f 282 262 309
f 262 352 356
f 352 211 307
f 211 294 212
f 294 303 295
f 295 304 214
f 304 327 215
f 327 343 346
f 343 535 536
f 535 342 534
f 534 721 722
f 721 761 757
f 761 720 760
f 760 719 756
f 756 718 755
f 755 717 759
f 759 716 758
f 758 715 777
f 715 573 700
f 573 528 575
f 575 537 676
f 676 514 675
f 514 373 375
f 373 372 375
f 372 394 374
f 394 274 399
f 274 258 399
f 258 259 277
f 259 298 277
f 298 278 301
f 278 264 301
f 264 266 281
f 281 283 302
f 283 318 334
f 318 316 334
f 316 317 332
f 317 270 284
f 270 218 267
f 218 265 267
f 265 280 284
f 280 282 314
f 282 309 315
f 309 262 356
f 356 352 401
f 352 307 355
f 307 211 212
f 212 294 295
f 295 214 212
f 214 304 215
f 215 327 248
f 327 346 248
f 346 343 536
f 536 535 723
f 535 534 722
f 722 721 757
f 757 761 793
f 761 760 795
f 760 756 779
f 756 755 774
f 755 759 773
f 759 758 778
f 758 777 794
f 777 715 700
f 700 573 572
f 573 575 574
f 575 676 674
f 676 675 673
f 675 514 374
f 514 375 374
f 375 372 374
f 374 394 425
f 394 399 425
f 399 258 383
f 258 277 276
f 277 298 310
f 298 301 310
f 301 264 281
f 281 302 313
f 302 283 334
f 334 316 332
f 332 317 333
f 317 284 314
f 284 270 267
f 267 265 284
f 284 280 314
f 314 282 315
f 315 309 331
f 309 356 417
f 356 401 405
f 401 352 407
f 352 355 407
f 355 307 308
f 307 212 297
f 212 214 297
f 214 215 263
f 215 248 279
f 248 346 249
f 346 536 538
f 536 723 701
f 723 535 722
f 722 757 762
f 757 793 762
f 793 761 795
f 795 760 779
f 779 756 774
f 774 755 773
f 773 759 778
f 778 758 794
f 794 777 792
f 777 700 763
f 700 572 724
f 572 573 574
f 574 575 674
f 674 676 673
f 673 675 702
f 675 374 655
f 374 425 479
f 425 399 429
f 399 383 429
f 383 258 276
f 276 277 300
f 277 310 300
f 310 301 313
f 301 281 313
f 313 302 334
f 334 332 366
f 332 333 367
f 333 317 364
f 317 314 315
f 315 331 317
f 331 309 417
f 417 356 405
f 405 401 406
f 401 407 431
f 407 355 431
f 355 308 357
f 308 307 297
f 297 214 263
f 263 215 279
f 279 248 308
f 248 249 308
f 249 346 393
f 346 538 539
f 538 536 701
f 701 723 725
f 723 722 762
f 762 793 898
f 793 795 904
f 795 779 868
f 779 774 840
f 774 773 839
f 773 778 838
f 778 794 837
f 794 792 836
f 792 777 805
f 777 763 805
f 763 700 724
f 724 572 574
f 574 674 724
f 674 673 724
f 673 702 782
f 702 675 677
f 675 655 677
f 655 374 479
f 479 425 429
f 429 383 410
f 383 276 358
f 276 300 299
f 300 310 330
f 310 313 330
f 313 334 361
f 334 366 365
f 366 332 367
f 367 333 336
f 333 364 368
f 364 317 360
f 317 331 360
f 331 417 435
f 417 405 439
f 405 406 411
f 406 401 431
f 431 355 387
f 355 357 416
f 357 308 353
f 308 297 279
f 297 263 279
f 308 249 329
f 249 393 296
f 393 346 539
f 539 538 701
f 701 725 844
f 725 723 762
f 762 898 873
f 898 793 904
f 904 795 868
f 868 779 840
f 840 774 839
f 839 773 838
f 838 778 837
f 837 794 836
f 836 792 823
f 792 805 823
f 805 763 807
f 763 724 782
f 724 673 782
f 782 702 806
f 702 677 726
f 677 655 704
f 655 479 623
f 479 429 461
f 429 410 461
f 410 383 358
f 358 276 299
f 299 300 312
f 300 330 312
f 330 313 361
f 361 334 365
f 365 366 450
f 366 367 451
f 367 336 452
f 336 333 368
f 368 364 447
f 364 360 435
f 360 331 435
f 435 417 439
f 439 405 411
f 411 406 443
f 406 431 386
f 431 387 444
f 387 355 416
f 416 357 414
f 357 353 384
f 353 308 329
f 329 249 296
f 296 393 423
f 393 539 515
f 539 701 653
f 701 844 824
f 844 725 872
f 725 762 776
f 762 873 775
f 873 898 846
f 898 904 897
f 904 868 963
f 868 840 962
f 840 839 957
f 839 838 956
f 838 837 955
f 837 836 870
f 836 823 869
f 823 805 842
f 805 807 842
f 807 763 782
f 782 806 807
f 806 702 726
f 726 677 704
f 704 655 662
f 655 623 661
f 623 479 480
f 479 461 480
f 461 410 430
f 410 358 388
f 358 299 359
f 299 312 311
f 312 330 363
f 330 361 363
f 361 365 392
f 365 450 449
f 450 366 451
f 451 367 452
f 452 336 453
f 336 368 453
f 368 447 484
f 447 364 435
f 435 439 472
f 439 411 440
f 411 443 440
f 443 406 386
f 386 431 443
f 431 444 443
f 444 387 434
f 387 416 434
f 416 414 433
f 414 357 384
f 384 353 378
f 353 329 378
f 329 296 348
f 296 423 347
f 423 393 515
f 515 539 520
f 539 653 564
f 653 701 824
f 824 844 786
f 844 872 811
f 872 725 776
f 776 762 775
f 775 873 895
f 873 846 739
f 846 898 875
f 898 897 875
f 897 904 874
f 904 963 993
f 963 868 962
f 962 840 957
f 957 839 956
f 956 838 955
f 955 837 947
f 837 870 948
f 870 836 869
f 869 823 841
f 823 842 841
f 842 807 826
f 807 806 826
f 806 726 825
f 726 704 737
f 704 662 709
f 662 655 661
f 661 623 764
f 623 480 624
f 480 461 437
f 461 430 437
f 430 410 388
f 388 358 359
f 359 299 311
f 311 312 335
f 312 363 335
f 363 361 392
f 392 365 449
f 449 450 457
f 450 451 458
f 451 452 459
f 452 453 459
f 453 368 484
f 484 447 472
f 447 435 472
f 472 439 440
f 440 443 467
f 443 444 469
f 444 434 465
f 434 416 445
f 416 433 445
f 433 414 412
f 414 384 408
f 384 378 409
f 378 329 544
f 329 348 544
f 348 296 347
f 347 423 424
f 423 515 516
f 515 520 519
f 520 539 540
f 539 564 567
f 564 653 654
f 653 824 783
f 824 786 728
f 786 844 811
f 811 872 829
f 872 776 781
f 776 775 781
f 775 895 780
f 895 873 766
f 873 739 766
f 739 846 712
f 846 875 797
f 875 897 874
f 874 904 905
f 904 993 979
f 993 963 962
f 962 957 894
f 957 956 893
f 956 955 892
f 955 947 945
f 947 837 948
f 948 870 949
f 870 869 871
f 869 841 843
f 841 842 843
f 842 826 827
f 826 806 825
f 825 726 737
f 737 704 709
f 709 662 690
f 662 661 689
f 661 764 679
f 764 623 624
f 624 480 481
f 480 437 481
f 437 430 413
f 430 388 419
f 388 359 389
f 359 311 390
f 311 335 362
f 335 363 391
f 363 392 391
f 392 449 448
f 449 457 456
f 457 450 458
f 458 451 459
f 459 453 460
f 453 484 552
f 484 472 552
f 472 440 468
f 440 467 468
f 467 443 469
f 469 444 465
f 465 434 470
f 434 445 471
f 445 433 466
f 433 412 432
f 412 414 408
f 408 384 409
f 409 378 524
f 378 544 524
f 544 348 542
f 348 347 398
f 347 424 396
f 424 423 516
f 516 515 519
f 519 520 491
f 520 540 492
f 540 539 567
f 567 564 566
f 564 654 565
f 654 653 783
f 783 824 728
f 728 786 731
f 786 811 828
f 811 829 828
f 829 872 828
f 872 781 896
f 781 775 780
f 780 895 896
f 895 766 785
f 766 739 705
f 739 712 707
f 712 846 797
f 797 875 814
f 875 874 814
f 874 905 906
f 905 904 878
f 904 979 878
f 979 993 1005
f 993 962 991
f 962 894 910
f 894 957 893
f 893 956 892
f 892 955 891
f 955 945 891
f 945 947 946
f 947 948 994
f 948 949 995
f 949 870 871
f 871 869 843
f 843 842 827
f 827 826 796
f 826 825 809
f 825 737 808
f 737 709 740
f 709 690 713
f 690 662 689
f 689 661 708
f 661 679 708
f 679 764 784
f 764 624 729
f 624 481 625
f 481 437 376
f 437 413 428
f 413 430 419
f 419 388 389
f 389 359 390
f 390 311 362
f 362 335 391
f 391 392 448
f 448 449 456
f 456 457 488
f 457 458 478
f 458 459 489
f 459 460 558
f 460 453 454
f 453 552 551
f 552 472 550
f 472 468 469
f 469 465 548
f 465 470 546
f 470 434 471
f 471 445 466
f 466 433 432
f 432 412 408
f 408 409 403
f 409 524 508
f 524 544 706
f 544 542 680
f 542 348 398
f 398 347 396
f 396 424 426
f 424 516 517
f 516 519 502
f 519 491 490
f 491 520 492
f 492 540 542
f 540 567 579
f 567 566 578
f 566 564 565
f 565 654 622
f 654 783 703
f 783 728 680
f 728 731 706
f 731 786 710
f 786 828 785
f 828 872 896
f 896 781 780
f 896 895 785
f 785 766 738
f 766 705 684
f 705 739 707
f 707 712 667
f 712 797 671
f 797 814 769
f 814 874 813
f 874 906 848
f 906 905 914
f 905 878 877
f 878 979 927
f 979 1005 983
f 1005 993 1024
f 993 991 1025
f 991 962 992
f 962 910 992
f 910 894 889
f 894 893 888
f 893 892 887
f 892 891 886
f 891 945 890
f 945 946 903
f 946 947 990
f 947 994 990
f 994 948 995
f 995 949 980
f 949 871 926
f 871 843 845
f 843 827 845
f 827 796 810
f 796 826 809
f 809 825 808
f 808 737 740
f 740 709 713
f 713 690 696
f 690 689 695
f 689 708 735
f 708 679 736
f 679 784 727
f 784 764 729
f 729 624 625
f 625 481 501
f 481 376 501
f 376 437 350
f 437 428 350
f 428 413 385
f 413 419 418
f 419 389 421
f 389 390 422
f 390 362 436
f 362 391 476
f 391 448 473
f 448 456 455
f 456 488 487
f 488 457 478
f 478 458 489
f 489 459 557
f 459 558 557
f 558 460 555
f 460 454 555
f 454 453 475
f 453 551 475
f 551 552 642
f 552 550 595
f 550 472 469
f 469 548 550
f 548 465 546
f 546 470 549
f 470 471 547
f 471 466 547
f 466 432 464
f 432 408 403
f 403 409 506
f 409 508 506
f 508 524 547
f 524 706 686
f 706 544 728
f 544 680 728
f 680 542 660
f 542 398 492
f 398 396 397
f 396 426 395
f 426 424 517
f 517 516 502
f 502 519 490
f 490 491 427
f 491 492 397
f 542 540 579
f 579 567 578
f 578 566 580
f 566 565 577
f 565 622 576
f 622 654 703
f 703 783 680
f 706 731 691
f 731 710 691
f 710 786 738
f 786 785 738
f 785 828 896
f 738 766 684
f 684 705 664
f 705 707 683
f 707 667 687
f 667 712 671
f 671 797 769
f 769 814 788
f 814 813 788
f 813 874 812
f 874 848 812
f 848 906 899
f 906 914 899
f 914 905 877
f 877 878 833
f 878 927 833
f 927 979 983
f 983 1005 1026
f 1005 1024 1023
f 1024 993 1025
f 1025 991 992
f 992 910 908
f 910 889 883
f 889 894 888
f 888 893 887
f 887 892 886
f 886 891 885
f 891 890 885
f 890 945 903
f 903 946 909
f 946 990 989
f 990 994 1004
f 994 995 1022
f 995 980 996
f 980 949 926
f 926 871 876
f 871 845 876
f 845 827 810
f 810 796 817
f 796 809 787
f 809 808 816
f 808 740 815
f 740 713 770
f 713 696 741
f 696 690 695
f 695 689 711
f 689 735 734
f 735 708 767
f 708 736 767
f 736 679 727
f 727 784 922
f 784 729 730
f 729 625 626
f 625 501 602
f 501 376 402
f 376 350 377
f 350 428 349
f 428 385 400
f 385 413 380
f 413 418 380
f 418 419 696
f 419 421 698
f 421 389 422
f 422 390 436
f 436 362 476
f 476 391 473
f 473 448 455
f 455 456 487
f 487 488 561
f 488 478 562
f 478 489 563
f 489 557 563
f 557 558 651
f 558 555 652
f 555 454 553
f 454 475 474
f 475 551 554
f 551 642 643
f 642 552 596
f 552 595 596
f 595 550 594
f 550 548 594
f 548 546 608
f 546 549 613
f 549 470 547
f 547 466 527
f 466 464 463
f 464 432 526
f 432 403 506
f 506 508 526
f 508 547 527
f 547 524 569
f 524 686 569
f 686 706 691
f 680 660 703
f 660 542 579
f 492 398 397
f 397 396 395
f 395 426 517
f 517 502 395
f 502 490 427
f 427 491 397
f 579 578 659
f 578 580 658
f 580 566 577
f 577 565 576
f 576 622 656
f 622 703 678
f 691 710 666
f 710 738 666
f 738 684 664
f 664 705 683
f 683 707 687
f 687 667 668
f 667 671 615
f 671 769 771
f 769 788 790
f 788 813 804
f 813 812 803
f 812 848 818
f 848 899 832
f 899 914 877
f 877 833 820
f 833 927 928
f 927 983 928
f 983 1026 997
f 1026 1005 1023
f 1023 1024 1018
f 1024 1025 1019
f 1025 992 1020
f 992 908 988
f 908 910 883
f 883 889 865
f 889 888 865
f 888 887 864
f 887 886 864
f 886 885 863
f 885 890 884
f 890 903 867
f 903 909 1003
f 909 946 965
f 946 989 969
f 989 990 1017
f 990 1004 1017
f 1004 994 1022
f 1022 995 996
f 996 980 940
f 980 926 929
f 926 876 879
f 876 845 847
f 845 810 847
f 810 817 830
f 817 796 787
f 787 809 816
f 816 808 815
f 815 740 770
f 770 713 741
f 741 696 698
f 696 695 418
f 695 711 694
f 711 689 734
f 735 689 734
f 735 767 765
f 767 736 916
f 736 727 912
f 727 922 912
f 922 784 921
f 784 730 921
f 730 729 733
f 729 626 733
f 626 625 602
f 602 501 518
f 501 402 493
f 402 376 377
f 377 350 349
f 349 428 400
f 400 385 382
f 385 380 381
f 380 418 415
f 696 419 698
f 698 421 697
f 421 422 446
f 422 436 476
f 476 473 497
f 473 455 477
f 455 487 486
f 487 561 560
f 561 488 562
f 562 478 563
f 563 557 621
f 557 651 621
f 651 558 652
f 652 555 645
f 555 553 645
f 553 454 474
f 474 475 554
f 554 551 643
f 643 642 645
f 642 596 754
f 596 595 635
f 595 594 592
f 594 548 608
f 608 546 613
f 613 549 547
f 527 466 463
f 463 464 526
f 526 432 506
f 526 508 527
f 547 569 571
f 569 686 568
f 686 691 665
f 703 660 678
f 660 579 659
f 397 395 427
f 395 502 427
f 659 578 658
f 658 580 577
f 577 576 657
f 576 656 657
f 656 622 678
f 691 666 665
f 666 738 692
f 738 664 692
f 664 683 688
f 683 687 633
f 687 668 632
f 668 667 615
f 671 667 634
f 671 771 748
f 771 769 790
f 790 788 804
f 804 813 803
f 803 812 818
f 818 848 832
f 832 899 820
f 899 877 820
f 820 833 928
f 928 983 997
f 997 1026 1023
f 1023 1018 1017
f 1018 1024 1019
f 1019 1025 1020
f 1020 992 988
f 988 908 978
f 908 883 859
f 883 865 858
f 865 888 864
f 864 886 863
f 863 885 862
f 885 884 862
f 884 890 867
f 867 903 902
f 903 1003 907
f 1003 909 1001
f 909 965 964
f 965 946 969
f 969 989 968
f 989 1017 1016
f 1017 1004 1023
f 1004 1022 1023
f 1022 996 984
f 996 940 930
f 940 980 929
f 929 926 879
f 879 876 849
f 876 847 849
f 847 810 830
f 830 817 831
f 817 787 800
f 787 816 768
f 816 815 799
f 815 770 798
f 770 741 742
f 741 698 714
f 418 695 441
f 695 694 441
f 694 711 693
f 711 734 693
f 735 765 732
f 765 767 915
f 767 916 915
f 916 736 912
f 912 922 913
f 922 921 911
f 921 730 920
f 730 733 732
f 733 626 682
f 626 602 587
f 602 518 586
f 518 501 493
f 493 402 404
f 402 377 379
f 377 349 195
f 349 400 196
f 400 382 197
f 382 385 381
f 381 380 415
f 380 415 404
f 415 418 438
f 698 697 670
f 697 421 420
f 421 446 420
f 446 422 476
f 476 497 446
f 497 473 477
f 477 455 254
f 455 486 235
f 486 487 560
f 560 561 618
f 561 562 619
f 562 563 620
f 563 621 620
f 621 651 650
f 651 652 642
f 652 645 642
f 645 553 616
f 553 474 554
f 554 643 616
f 643 645 616
f 642 754 753
f 754 596 672
f 635 595 634
f 595 592 615
f 594 595 610
f 594 608 613
f 613 547 614
f 527 463 526
f 547 571 609
f 571 569 570
f 569 568 570
f 568 686 681
f 686 665 685
f 678 660 659
f 659 658 657
f 658 577 657
f 657 656 678
f 665 666 631
f 666 692 613
f 692 664 608
f 664 688 608
f 688 683 612
f 683 633 612
f 633 687 612
f 687 632 612
f 632 668 610
f 668 615 610
f 671 748 672
f 748 771 790
f 790 804 802
f 803 818 832
f 832 820 803
f 820 928 931
f 928 997 931
f 997 1023 984
f 1017 1018 1036
f 1018 1019 1013
f 1019 1020 1014
f 1020 988 987
f 988 978 982
f 978 908 937
f 908 859 900
f 859 883 858
f 858 865 857
f 865 864 857
f 864 863 857
f 863 862 856
f 862 884 861
f 884 867 866
f 867 902 866
f 902 903 907
f 907 1003 999
f 1003 1001 1002
f 1001 909 964
f 964 965 968
f 965 969 968
f 968 989 1029
f 989 1016 1015
f 1016 1017 1036
f 1023 1022 984
f 984 996 930
f 930 940 929
f 929 879 850
f 879 849 821
f 849 847 831
f 847 830 831
f 831 817 800
f 800 787 768
f 768 816 799
f 799 815 798
f 798 770 742
f 742 741 714
f 714 698 670
f 418 441 438
f 441 694 483
f 694 693 630
f 693 734 733
f 735 732 734
f 732 765 923
f 765 915 924
f 915 916 923
f 916 912 925
f 912 913 925
f 913 922 911
f 911 921 939
f 921 920 939
f 920 730 732
f 732 733 734
f 733 682 628
f 682 626 627
f 626 587 588
f 587 602 586
f 586 518 521
f 518 493 521
f 493 404 462
f 404 402 379
f 379 377 198
f 377 195 198
f 195 349 196
f 196 400 197
f 197 382 200
f 381 385 380
f 380 404 379
f 404 415 438
f 670 697 599
f 697 420 669
f 420 446 497
f 497 477 498
f 477 254 271
f 254 455 235
f 235 486 272
f 486 560 559
f 560 618 617
f 618 561 619
f 619 562 620
f 620 621 650
f 650 651 640
f 651 642 641
f 616 553 554
f 642 753 640
f 753 754 746
f 754 672 748
f 635 634 671
f 595 615 610
f 615 592 610
f 594 610 633
f 594 613 612
f 613 608 633
f 613 614 666
f 614 547 609
f 609 571 606
f 571 570 606
f 570 568 629
f 568 681 629
f 681 686 685
f 685 665 663
f 678 659 657
f 665 631 663
f 631 666 614
f 613 692 608
f 608 688 612
f 612 633 608
f 633 612 613
f 612 632 610
f 671 672 635
f 748 790 747
f 790 802 789
f 803 820 931
f 931 997 984
f 1036 1018 1013
f 1013 1019 1014
f 1014 1020 1011
f 1020 987 1011
f 987 988 986
f 988 982 985
f 982 978 976
f 978 937 977
f 937 908 900
f 900 859 918
f 859 858 917
f 858 857 935
f 857 863 856
f 856 862 855
f 862 861 855
f 861 884 866
f 866 902 860
f 902 907 882
f 907 999 901
f 999 1003 1010
f 1003 1002 1021
f 1002 1001 968
f 1001 964 968
f 968 1029 1002
f 1029 989 1015
f 1015 1016 1012
f 1016 1036 1035
f 984 930 931
f 930 929 850
f 850 879 821
f 821 849 819
f 849 831 819
f 831 800 819
f 800 768 744
f 768 799 743
f 799 798 791
f 798 742 772
f 742 714 699
f 714 670 644
f 438 441 483
f 483 694 630
f 630 693 628
f 693 733 628
f 732 923 920
f 923 765 924
f 924 915 923
f 923 916 925
f 925 913 951
f 913 911 939
f 939 920 938
f 628 682 605
f 682 627 605
f 627 626 604
f 626 588 589
f 588 587 583
f 587 586 582
f 586 521 581
f 521 493 503
f 493 462 494
f 462 404 438
f 379 198 199
f 198 195 179
f 195 196 168
f 196 197 168
f 197 200 201
f 200 382 354
f 380 379 381
f 670 599 644
f 599 697 597
f 697 669 598
f 669 420 442
f 420 497 485
f 497 498 600
f 498 477 271
f 271 254 236
f 254 235 236
f 235 272 236
f 272 486 499
f 486 559 499
f 559 560 617
f 617 618 647
f 618 619 648
f 619 620 649
f 620 650 649
f 650 640 639
f 640 651 641
f 640 753 752
f 753 746 745
f 746 754 747
f 754 748 747
f 610 592 593
f 610 594 612
f 614 609 631
f 609 606 607
f 606 570 607
f 570 629 607
f 629 681 685
f 685 663 629
f 663 631 629
f 747 790 789
f 789 802 801
f 803 931 930
f 1036 1013 1050
f 1013 1014 1006
f 1014 1011 1007
f 1011 987 1000
f 987 986 1000
f 986 988 985
f 985 982 967
f 982 976 966
f 976 978 977
f 977 937 944
f 937 900 919
f 900 918 943
f 918 859 917
f 917 858 935
f 935 857 856
f 856 855 934
f 855 861 854
f 861 866 860
f 860 902 882
f 882 907 901
f 901 999 1009
f 999 1010 1009
f 1010 1003 1012
f 1003 1021 1012
f 1021 1002 1029
f 1029 1015 1021
f 1012 1016 1035
f 1035 1036 1050
f 930 850 802
f 850 821 801
f 821 819 801
f 819 800 745
f 800 744 745
f 744 768 743
f 743 799 791
f 791 798 772
f 772 742 699
f 699 714 644
f 438 483 482
f 483 630 495
f 630 628 591
f 920 923 938
f 923 925 950
f 925 951 950
f 951 913 939
f 939 938 958
f 628 605 591
f 605 627 590
f 627 604 590
f 604 626 603
f 626 589 603
f 589 588 583
f 583 587 582
f 582 586 581
f 581 521 541
f 521 503 541
f 503 493 504
f 493 494 505
f 494 462 509
f 462 438 482
f 379 199 351
f 199 198 179
f 179 195 169
f 195 168 167
f 168 197 170
f 197 201 170
f 201 200 180
f 200 354 180
f 354 382 380
f 381 379 351
f 644 599 636
f 599 597 485
f 597 697 598
f 598 669 442
f 442 420 485
f 485 497 599
f 497 600 599
f 600 498 585
f 498 271 285
f 271 236 255
f 236 272 286
f 272 499 286
f 499 559 556
f 559 617 601
f 617 647 880
f 647 618 648
f 648 619 649
f 649 650 639
f 639 640 752
f 752 753 745
f 745 746 801
f 746 747 789
f 610 593 611
f 631 609 629
f 609 607 629
f 789 801 746
f 801 802 850
f 803 930 802
f 1050 1013 1038
f 1013 1006 1038
f 1006 1014 1007
f 1007 1011 1008
f 1011 1000 1008
f 1000 986 998
f 986 985 1008
f 985 967 975
f 967 982 966
f 966 976 954
f 976 977 936
f 977 944 936
f 944 937 919
f 919 900 943
f 943 918 942
f 918 917 941
f 917 935 953
f 935 856 934
f 934 855 933
f 855 854 933
f 854 861 860
f 860 882 854
f 882 901 932
f 901 1009 959
f 1009 1010 1033
f 1010 1012 1033
f 1012 1035 1034
f 1035 1050 1044
f 801 819 745
f 745 744 752
f 744 743 751
f 743 791 750
f 791 772 749
f 772 699 644
f 482 483 495
f 495 630 591
f 938 923 950
f 950 951 938
f 951 939 958
f 958 938 951
f 591 605 584
f 605 590 584
f 590 604 589
f 604 603 589
f 589 583 584
f 583 582 543
f 582 581 541
f 541 503 522
f 503 504 522
f 504 493 505
f 505 494 507
f 494 509 507
f 509 462 482
f 351 199 179
f 179 169 170
f 169 195 167
f 167 168 170
f 170 201 171
f 201 180 171
f 180 354 351
f 354 380 381
f 381 351 354
f 644 636 749
f 636 599 646
f 485 597 496
f 597 598 496
f 598 442 496
f 442 485 496
f 599 600 646
f 600 585 822
f 585 498 511
f 498 285 511
f 285 271 255
f 255 236 286
f 286 499 511
f 499 556 511
f 556 559 601
f 601 617 852
f 617 880 852
f 880 647 851
f 647 648 637
f 648 649 638
f 649 639 638
f 639 752 751
f 611 593 612
f 1050 1038 1055
f 1038 1006 1037
f 1006 1007 972
f 1007 1008 973
f 1008 1000 998
f 998 986 1008
f 1008 985 981
f 985 975 981
f 975 967 961
f 967 966 954
f 954 976 936
f 936 944 919
f 919 943 961
f 943 942 974
f 942 918 941
f 941 917 953
f 953 935 934
f 934 933 952
f 933 854 932
f 854 882 932
f 932 901 959
f 959 1009 970
f 1009 1033 1031
f 1033 1012 1034
f 1034 1035 1043
f 1035 1044 1043
f 1044 1050 1042
f 752 744 751
f 751 743 750
f 750 791 749
f 749 772 644
f 482 495 509
f 495 591 525
f 591 584 525
f 584 590 589
f 584 583 545
f 583 543 545
f 543 582 541
f 541 522 543
f 522 504 523
f 504 505 523
f 505 507 523
f 507 509 510
f 351 179 180
f 179 170 180
f 170 169 167
f 170 171 180
f 749 636 637
f 636 646 647
f 646 600 834
f 600 822 834
f 822 585 835
f 585 511 556
f 511 285 286
f 285 255 286
f 556 601 585
f 601 852 835
f 852 880 881
f 880 851 881
f 851 647 646
f 647 637 636
f 637 648 638
f 638 639 751
f 612 593 594
f 1050 1055 1049
f 1055 1038 1056
f 1038 1037 1056
f 1037 1006 1047
f 1006 972 971
f 972 1007 973
f 973 1008 981
f 981 975 974
f 975 961 943
f 961 967 954
f 954 936 961
f 936 919 961
f 943 974 975
f 974 942 973
f 942 941 973
f 941 953 972
f 953 934 952
f 952 933 960
f 933 932 960
f 932 959 960
f 959 970 971
f 970 1009 1028
f 1009 1031 1028
f 1031 1033 1039
f 1033 1034 1041
f 1034 1043 1041
f 1043 1044 1046
f 1044 1042 1046
f 1042 1050 1049
f 751 750 638
f 750 749 637
f 509 495 510
f 495 525 510
f 525 584 545
f 545 543 522
f 522 523 545
f 523 507 510
f 646 834 851
f 834 822 853
f 822 835 853
f 835 585 601
f 835 852 881
f 881 851 834
f 637 638 750
f 1049 1055 1059
f 1056 1038 1060
f 1056 1037 1054
f 1037 1047 1054
f 1047 1006 1030
f 1006 971 1027
f 971 972 960
f 972 973 941
f 973 981 974
f 972 953 952
f 952 960 972
f 960 959 971
f 971 970 1027
f 970 1028 1027
f 1028 1031 1032
f 1031 1039 1040
f 1039 1033 1041
f 1041 1043 1045
f 1043 1046 1045
f 1046 1042 1057
f 1042 1049 1058
f 510 525 545
f 545 523 510
f 834 853 881
f 853 835 881
f 1049 1059 1058
f 1059 1055 1053
f 1054 1047 1048
f 1047 1030 1032
f 1030 1006 1027
f 1027 1028 1030
f 1028 1032 1030
f 1032 1031 1040
f 1040 1039 1052
f 1039 1041 1045
f 1045 1046 1051
f 1046 1057 1051
f 1057 1042 1058
f 1058 1059 1052
f 1059 1053 1052
f 1053 1055 1054
f 1054 1048 1053
f 1048 1047 1040
f 1047 1032 1040
f 1040 1052 1053
f 1052 1039 1045
f 1045 1051 1052
f 1051 1057 1058
f 1058 1052 1051
f 1053 1048 1040

