# https://github.com/mikedh/trimesh
v -0.49609375 -0.15234375 -0.23046875
v -0.49609375 -0.14453125 -0.23046875
v -0.49609375 -0.14453125 -0.09765625
v -0.49609375 -0.13671875 -0.09765625
v -0.49609375 -0.12109375 -0.23046875
v -0.49609375 -0.12109375 -0.09765625
v -0.45703125 -0.14453125 -0.05859375
v -0.45703125 -0.12890625 -0.05859375
v -0.30859375 -0.15234375 -0.07421875
v -0.30859375 -0.15234375 0.01953125
v -0.30859375 -0.11328125 -0.07421875
v -0.30859375 -0.08984375 0.01953125
v -0.30078125 -0.15234375 0.01171875
v -0.30078125 -0.14453125 -0.26953125
v -0.30078125 -0.11328125 -0.26953125
v -0.30078125 -0.10546875 0.01171875
v -0.28515625 -0.18359375 0.13671875
v -0.28515625 -0.17578125 -0.22265625
v -0.28515625 -0.15234375 -0.26953125
v -0.28515625 -0.11328125 -0.26953125
v -0.28515625 -0.11328125 0.12890625
v -0.28515625 -0.10546875 -0.26171875
v -0.27734375 -0.10546875 -0.28515625
v -0.27734375 -0.09765625 0.12890625
v -0.27734375 -0.08984375 0.02734375
v -0.27734375 -0.08984375 0.10546875
v -0.27734375 -0.08203125 0.09765625
v -0.26953125 -0.15234375 -0.29296875
v -0.26953125 -0.14453125 -0.28515625
v -0.26953125 -0.14453125 0.16015625
v -0.26953125 -0.13671875 0.16796875
v -0.26953125 -0.12109375 0.16015625
v -0.26953125 -0.11328125 -0.28515625
v -0.26953125 -0.08984375 -0.07421875
v -0.26953125 -0.08984375 0.11328125
v -0.26953125 -0.05078125 0.03515625
v -0.26171875 -0.22265625 -0.09765625
v -0.26171875 -0.22265625 0.08203125
v -0.26171875 -0.18359375 0.16015625
v -0.26171875 -0.14453125 -0.26171875
v -0.26171875 -0.14453125 0.12890625
v -0.26171875 -0.12890625 0.15234375
v -0.26171875 -0.11328125 -0.26171875
v -0.26171875 -0.09765625 -0.25390625
v -0.26171875 -0.09765625 -0.24609375
v -0.26171875 -0.08984375 0.12109375
v -0.26171875 -0.05078125 -0.07421875
v -0.26171875 -0.05078125 -0.06640625
v -0.25390625 -0.20703125 0.12890625
v -0.25390625 -0.18359375 0.16015625
v -0.25390625 -0.12890625 0.12109375
v -0.25390625 -0.06640625 -0.26953125
v -0.25390625 -0.06640625 -0.26171875
v -0.25390625 -0.05078125 0.09765625
v -0.25390625 -0.05078125 0.12109375
v -0.24609375 -0.19921875 0.14453125
v -0.24609375 -0.08984375 -0.26171875
v -0.24609375 -0.07421875 -0.28515625
v -0.24609375 -0.05859375 -0.23046875
v -0.24609375 -0.05859375 0.12109375
v -0.23828125 -0.18359375 0.11328125
v -0.23046875 -0.19140625 0.10546875
v -0.23046875 -0.12109375 -0.19921875
v -0.23046875 -0.10546875 -0.19921875
v -0.21484375 -0.08984375 -0.25390625
v -0.20703125 -0.07421875 -0.27734375
v -0.20703125 -0.06640625 -0.26953125
v -0.20703125 -0.05859375 -0.13671875
v -0.19921875 -0.05859375 -0.23046875
v -0.19140625 -0.19140625 0.11328125
v -0.18359375 -0.20703125 0.13671875
v -0.18359375 -0.19921875 0.14453125
v -0.18359375 -0.17578125 0.12109375
v -0.18359375 -0.12890625 0.12109375
v -0.17578125 -0.22265625 -0.09765625
v -0.17578125 -0.22265625 0.08203125
v -0.17578125 -0.18359375 0.16796875
v -0.17578125 -0.14453125 0.12890625
v -0.17578125 -0.12109375 -0.19921875
v -0.17578125 -0.12109375 -0.19140625
v -0.17578125 -0.12109375 0.16015625
v -0.17578125 -0.10546875 -0.19140625
v -0.17578125 0.05078125 0.05078125
v -0.16796875 -0.14453125 -0.27734375
v -0.16796875 -0.14453125 0.16796875
v -0.16796875 -0.12109375 0.16796875
v -0.16796875 -0.06640625 -0.42578125
v -0.16796875 -0.06640625 -0.40234375
v -0.16796875 -0.06640625 -0.39453125
v -0.16796875 -0.06640625 0.12109375
v -0.16796875 -0.05859375 -0.42578125
v -0.16796875 -0.05859375 -0.40234375
v -0.16796875 -0.05859375 -0.39453125
v -0.16796875 -0.05859375 -0.06640625
v -0.16796875 -0.04296875 0.08984375
v -0.16796875 0.05078125 -0.06640625
v -0.16015625 -0.15234375 -0.30859375
v -0.16015625 -0.15234375 -0.30078125
v -0.16015625 -0.14453125 0.17578125
v -0.16015625 -0.07421875 0.11328125
v -0.16015625 -0.06640625 0.08984375
v -0.16015625 -0.03515625 0.12109375
v -0.16015625 0.05078125 -0.06640625
v -0.16015625 0.05078125 0.09765625
v -0.15234375 -0.18359375 0.10546875
v -0.15234375 -0.13671875 -0.26171875
v -0.15234375 -0.10546875 -0.25390625
v -0.15234375 -0.05859375 0.19921875
v -0.15234375 -0.03515625 0.09765625
v -0.15234375 0.04296875 0.12109375
v -0.15234375 0.05078125 0.12109375
v -0.14453125 -0.15234375 0.13671875
v -0.14453125 -0.11328125 0.01953125
v -0.14453125 -0.10546875 -0.27734375
v -0.14453125 -0.09765625 0.13671875
v -0.14453125 -0.05859375 0.05078125
v -0.14453125 -0.05078125 0.37109375
v -0.14453125 -0.00390625 0.08984375
v -0.13671875 -0.17578125 -0.23046875
v -0.13671875 -0.14453125 -0.27734375
v -0.13671875 -0.13671875 -0.28515625
v -0.13671875 -0.09765625 -0.26953125
v -0.13671875 -0.09765625 -0.05078125
v -0.13671875 -0.09765625 0.09765625
v -0.13671875 -0.08984375 0.11328125
v -0.13671875 -0.05859375 -0.03515625
v -0.13671875 -0.05078125 0.17578125
v -0.13671875 -0.04296875 0.08984375
v -0.13671875 -0.02734375 -0.05859375
v -0.13671875 0.03515625 0.08984375
v -0.13671875 0.05859375 -0.05859375
v -0.13671875 0.05859375 0.05078125
v -0.13671875 0.21484375 -0.30859375
v -0.13671875 0.22265625 -0.30859375
v -0.12890625 -0.10546875 -0.12109375
v -0.12890625 -0.10546875 -0.01171875
v -0.12890625 -0.08984375 -0.03515625
v -0.12890625 -0.08984375 0.08984375
v -0.12890625 -0.05859375 -0.11328125
v -0.12890625 -0.05859375 0.12890625
v -0.12890625 -0.05859375 0.15234375
v -0.12890625 -0.05078125 -0.13671875
v -0.12890625 -0.04296875 0.12890625
v -0.12890625 -0.04296875 0.15234375
v -0.12890625 -0.04296875 0.16796875
v -0.12890625 -0.04296875 0.37109375
v -0.12890625 -0.03515625 -0.14453125
v -0.12890625 0.03515625 0.05078125
v -0.12109375 -0.08203125 0.00390625
v -0.12109375 -0.08203125 0.05078125
v -0.12109375 -0.05859375 -0.14453125
v -0.12109375 -0.05859375 0.16796875
v -0.12109375 -0.05078125 0.43359375
v -0.12109375 -0.04296875 -0.15234375
v -0.12109375 -0.04296875 -0.14453125
v -0.12109375 -0.04296875 0.16796875
v -0.12109375 -0.03515625 -0.16015625
v -0.12109375 -0.02734375 -0.16015625
v -0.12109375 -0.02734375 -0.15234375
v -0.12109375 -0.02734375 0.15234375
v -0.12109375 -0.01953125 0.20703125
v -0.12109375 -0.01171875 -0.14453125
v -0.12109375 -0.00390625 0.33984375
v -0.12109375 0.05859375 0.12109375
v -0.12109375 0.21484375 -0.32421875
v -0.12109375 0.22265625 -0.30859375
v -0.11328125 -0.08203125 -0.07421875
v -0.11328125 -0.08203125 0.08984375
v -0.11328125 -0.08203125 0.12890625
v -0.11328125 -0.05859375 -0.07421875
v -0.11328125 -0.05859375 0.08984375
v -0.11328125 -0.04296875 0.17578125
v -0.11328125 -0.03515625 -0.21484375
v -0.11328125 -0.03515625 0.16796875
v -0.11328125 -0.02734375 -0.21484375
v -0.11328125 -0.02734375 -0.09765625
v -0.11328125 -0.01953125 -0.14453125
v -0.11328125 -0.01953125 -0.12890625
v -0.11328125 -0.01171875 -0.16015625
v -0.11328125 -0.01171875 -0.15234375
v -0.11328125 -0.01171875 0.19921875
v -0.11328125 -0.00390625 0.12890625
v -0.11328125 -0.00390625 0.33984375
v -0.11328125 0.05859375 0.09765625
v -0.11328125 0.22265625 -0.32421875
v -0.10546875 -0.12109375 0.17578125
v -0.10546875 -0.12109375 0.35546875
v -0.10546875 -0.11328125 0.17578125
v -0.10546875 -0.09765625 0.35546875
v -0.10546875 -0.08203125 0.15234375
v -0.10546875 -0.08203125 0.16796875
v -0.10546875 -0.04296875 -0.21484375
v -0.10546875 -0.01171875 -0.21484375
v -0.10546875 0.06640625 -0.08984375
v -0.10546875 0.06640625 0.02734375
v -0.09765625 -0.12109375 0.16796875
v -0.09765625 -0.12109375 0.32421875
v -0.09765625 -0.11328125 0.32421875
v -0.09765625 -0.11328125 0.35546875
v -0.09765625 -0.10546875 0.41796875
v -0.09765625 -0.05078125 0.46484375
v -0.09765625 -0.03515625 0.19140625
v -0.09765625 -0.03515625 0.26953125
v -0.09765625 -0.03515625 0.35546875
v -0.09765625 -0.02734375 0.43359375
v -0.09765625 0.05859375 -0.16015625
v -0.09765625 0.05859375 -0.15234375
v -0.09765625 0.06640625 -0.14453125
v -0.09765625 0.06640625 0.09765625
v -0.09765625 0.06640625 0.12890625
v -0.09765625 0.20703125 -0.30078125
v -0.08984375 -0.02734375 -0.23828125
v -0.08984375 -0.01953125 -0.23828125
v -0.08984375 -0.01171875 0.35546875
v -0.08984375 -0.01171875 0.37109375
v -0.08984375 0.01953125 -0.25390625
v -0.08984375 0.01953125 -0.24609375
v -0.08984375 0.05859375 -0.24609375
v -0.08984375 0.05859375 -0.22265625
v -0.08984375 0.06640625 -0.25390625
v -0.08984375 0.06640625 -0.14453125
v -0.08984375 0.06640625 -0.11328125
v -0.08984375 0.09765625 -0.16015625
v -0.08984375 0.09765625 -0.15234375
v -0.08984375 0.10546875 -0.14453125
v -0.08984375 0.11328125 0.09765625
v -0.08984375 0.11328125 0.12890625
v -0.08984375 0.18359375 -0.30078125
v -0.08984375 0.20703125 -0.30859375
v -0.08203125 -0.18359375 -0.05078125
v -0.08203125 -0.18359375 0.12890625
v -0.08203125 -0.16796875 0.15234375
v -0.08203125 -0.16015625 0.17578125
v -0.08203125 -0.14453125 0.32421875
v -0.08203125 -0.12890625 -0.06640625
v -0.08203125 -0.12890625 0.10546875
v -0.08203125 -0.05078125 0.46484375
v -0.08203125 -0.03515625 0.44921875
v -0.08203125 -0.00390625 0.19140625
v -0.08203125 0.00390625 -0.31640625
v -0.08203125 0.00390625 0.26953125
v -0.08203125 0.00390625 0.35546875
v -0.08203125 0.01953125 -0.26953125
v -0.08203125 0.10546875 -0.16015625
v -0.08203125 0.10546875 -0.14453125
v -0.08203125 0.11328125 0.02734375
v -0.08203125 0.11328125 0.09765625
v -0.08203125 0.11328125 0.12890625
v -0.08203125 0.17578125 -0.20703125
v -0.07421875 -0.18359375 -0.12109375
v -0.07421875 -0.18359375 -0.09765625
v -0.07421875 -0.17578125 -0.12890625
v -0.07421875 -0.17578125 -0.09765625
v -0.07421875 -0.16796875 -0.12890625
v -0.07421875 -0.10546875 0.43359375
v -0.07421875 -0.05078125 0.45703125
v -0.07421875 -0.05078125 0.46484375
v -0.07421875 -0.04296875 0.44140625
v -0.07421875 -0.03515625 0.44921875
v -0.07421875 -0.00390625 -0.41796875
v -0.07421875 -0.00390625 -0.39453125
v -0.07421875 -0.00390625 -0.30859375
v -0.07421875 -0.00390625 0.19140625
v -0.07421875 -0.00390625 0.26953125
v -0.07421875 0.00390625 -0.41796875
v -0.07421875 0.00390625 0.19140625
v -0.07421875 0.00390625 0.26953125
v -0.07421875 0.00390625 0.27734375
v -0.07421875 0.00390625 0.34765625
v -0.07421875 0.00390625 0.37109375
v -0.07421875 0.01171875 0.33984375
v -0.07421875 0.01171875 0.35546875
v -0.07421875 0.01953125 -0.28515625
v -0.07421875 0.01953125 0.33203125
v -0.07421875 0.01953125 0.33984375
v -0.07421875 0.02734375 0.33984375
v -0.07421875 0.04296875 -0.31640625
v -0.07421875 0.05859375 -0.30859375
v -0.07421875 0.06640625 -0.27734375
v -0.07421875 0.06640625 0.17578125
v -0.07421875 0.09765625 -0.25390625
v -0.07421875 0.09765625 -0.24609375
v -0.07421875 0.10546875 -0.20703125
v -0.07421875 0.10546875 -0.15234375
v -0.07421875 0.11328125 -0.15234375
v -0.07421875 0.11328125 -0.12109375
v -0.07421875 0.11328125 -0.08984375
v -0.07421875 0.11328125 0.02734375
v -0.07421875 0.16796875 -0.21484375
v -0.07421875 0.17578125 -0.20703125
v -0.06640625 -0.12109375 -0.14453125
v -0.06640625 -0.08984375 0.44921875
v -0.06640625 -0.08203125 0.44140625
v -0.06640625 -0.08203125 0.44921875
v -0.06640625 -0.05078125 0.45703125
v -0.06640625 -0.04296875 -0.28515625
v -0.06640625 -0.04296875 -0.26953125
v -0.06640625 -0.04296875 0.44140625
v -0.06640625 -0.03515625 0.44921875
v -0.06640625 -0.02734375 0.44140625
v -0.06640625 0.00390625 0.27734375
v -0.06640625 0.01171875 -0.41015625
v -0.06640625 0.01171875 0.33203125
v -0.06640625 0.01953125 0.33203125
v -0.06640625 0.02734375 0.33984375
v -0.06640625 0.04296875 -0.40234375
v -0.06640625 0.04296875 -0.39453125
v -0.06640625 0.05859375 0.19140625
v -0.06640625 0.05859375 0.27734375
v -0.06640625 0.06640625 -0.28515625
v -0.06640625 0.06640625 0.26953125
v -0.06640625 0.10546875 -0.26953125
v -0.06640625 0.10546875 -0.26171875
v -0.06640625 0.10546875 -0.20703125
v -0.06640625 0.10546875 0.16796875
v -0.06640625 0.11328125 -0.15234375
v -0.06640625 0.11328125 -0.12109375
v -0.06640625 0.11328125 -0.08984375
v -0.05859375 -0.12890625 -0.13671875
v -0.05859375 -0.12109375 -0.20703125
v -0.05859375 -0.01953125 -0.39453125
v -0.05859375 -0.01171875 0.42578125
v -0.05859375 0.01953125 -0.27734375
v -0.05859375 0.05078125 0.27734375
v -0.05859375 0.05859375 -0.28515625
v -0.05859375 0.05859375 0.19140625
v -0.05859375 0.05859375 0.26953125
v -0.05859375 0.05859375 0.27734375
v -0.05859375 0.06640625 -0.41015625
v -0.05859375 0.06640625 0.26953125
v -0.05859375 0.07421875 -0.41015625
v -0.05859375 0.07421875 0.28515625
v -0.05859375 0.07421875 0.29296875
v -0.05859375 0.10546875 -0.27734375
v -0.05859375 0.10546875 -0.26953125
v -0.05859375 0.10546875 0.17578125
v -0.05859375 0.11328125 -0.20703125
v -0.05859375 0.11328125 0.02734375
v -0.05859375 0.12890625 0.02734375
v -0.05078125 -0.09765625 -0.28515625
v -0.05078125 -0.09765625 -0.27734375
v -0.05078125 -0.02734375 -0.27734375
v -0.05078125 -0.01171875 -0.28515625
v -0.05078125 0.06640625 -0.41015625
v -0.05078125 0.06640625 0.28515625
v -0.05078125 0.07421875 0.28515625
v -0.05078125 0.08203125 0.25390625
v -0.05078125 0.08984375 0.25390625
v -0.05078125 0.09765625 0.19140625
v -0.05078125 0.11328125 -0.30078125
v -0.05078125 0.11328125 -0.27734375
v -0.05078125 0.11328125 0.09765625
v -0.05078125 0.11328125 0.12109375
v -0.05078125 0.12890625 0.09765625
v -0.05078125 0.13671875 0.02734375
v -0.05078125 0.13671875 0.08984375
v -0.05078125 0.16015625 -0.21484375
v -0.04296875 0.08203125 0.19140625
v -0.04296875 0.08203125 0.25390625
v -0.04296875 0.08984375 0.19140625
v -0.04296875 0.08984375 0.25390625
v -0.04296875 0.08984375 0.26171875
v -0.04296875 0.09765625 0.19140625
v -0.04296875 0.09765625 0.25390625
v -0.04296875 0.11328125 -0.30078125
v -0.04296875 0.11328125 -0.27734375
v -0.04296875 0.11328125 -0.15234375
v -0.04296875 0.11328125 -0.12109375
v -0.04296875 0.11328125 -0.08984375
v -0.04296875 0.12890625 -0.15234375
v -0.04296875 0.12890625 -0.12109375
v -0.04296875 0.12890625 -0.08984375
v -0.04296875 0.13671875 -0.15234375
v -0.04296875 0.13671875 -0.12109375
v -0.04296875 0.13671875 -0.08984375
v -0.04296875 0.14453125 0.02734375
v -0.04296875 0.14453125 0.08984375
v -0.04296875 0.16015625 -0.27734375
v -0.03515625 -0.12890625 -0.13671875
v -0.03515625 0.06640625 0.28515625
v -0.03515625 0.07421875 -0.41015625
v -0.03515625 0.08203125 0.26171875
v -0.03515625 0.08203125 0.26953125
v -0.03515625 0.10546875 0.16796875
v -0.03515625 0.14453125 -0.15234375
v -0.03515625 0.14453125 -0.12109375
v -0.03515625 0.14453125 -0.08984375
v -0.03515625 0.15234375 -0.27734375
v -0.02734375 -0.12109375 -0.20703125
v -0.02734375 -0.12109375 -0.14453125
v -0.02734375 -0.06640625 -0.41796875
v -0.02734375 -0.06640625 -0.28515625
v -0.02734375 -0.03515625 -0.44140625
v -0.02734375 0.03515625 -0.44921875
v -0.02734375 0.06640625 0.28515625
v -0.02734375 0.08203125 0.26171875
v -0.02734375 0.08203125 0.26953125
v -0.02734375 0.08984375 0.19140625
v -0.02734375 0.08984375 0.25390625
v -0.02734375 0.08984375 0.26171875
v -0.02734375 0.09765625 0.19140625
v -0.02734375 0.09765625 0.25390625
v -0.02734375 0.11328125 -0.42578125
v -0.02734375 0.11328125 -0.20703125
v -0.02734375 0.12890625 -0.20703125
v -0.02734375 0.14453125 -0.20703125
v -0.01953125 -0.11328125 -0.20703125
v -0.01953125 -0.09765625 -0.27734375
v -0.01953125 -0.08203125 0.44140625
v -0.01953125 -0.08203125 0.44921875
v -0.01953125 -0.07421875 0.44921875
v -0.01953125 -0.07421875 0.46484375
v -0.01953125 -0.06640625 -0.41796875
v -0.01953125 -0.06640625 -0.28515625
v -0.01953125 -0.05078125 0.45703125
v -0.01953125 -0.04296875 0.44140625
v -0.01953125 -0.04296875 0.46484375
v -0.01953125 -0.03515625 -0.41796875
v -0.01953125 0.03515625 -0.47265625
v -0.01953125 0.03515625 -0.41796875
v -0.01953125 0.11328125 -0.42578125
v -0.01953125 0.11328125 -0.30078125
v -0.01953125 0.11328125 -0.27734375
v -0.01953125 0.12890625 -0.27734375
v -0.01953125 0.13671875 -0.21484375
v -0.01171875 -0.09765625 -0.27734375
v -0.01171875 -0.08984375 0.44921875
v -0.01171875 -0.07421875 -0.27734375
v -0.01171875 -0.05078125 -0.47265625
v -0.01171875 -0.04296875 0.46484375
v -0.01171875 -0.03515625 0.44921875
v -0.01171875 -0.02734375 0.44140625
v -0.01171875 0.13671875 -0.27734375
v -0.00390625 -0.17578125 -0.12890625
v -0.00390625 -0.10546875 0.43359375
v -0.00390625 -0.08203125 0.46484375
v -0.00390625 -0.07421875 0.46484375
v -0.00390625 -0.05078125 0.45703125
v -0.00390625 -0.03515625 0.43359375
v -0.00390625 -0.02734375 0.44140625
v -0.00390625 -0.01171875 0.35546875
v -0.00390625 -0.00390625 0.37890625
v -0.00390625 0.00390625 0.33203125
v -0.00390625 0.00390625 0.37109375
v -0.00390625 0.01171875 0.35546875
v -0.00390625 0.01953125 0.33203125
v -0.00390625 0.02734375 0.33984375
v -0.00390625 0.05859375 0.19140625
v -0.00390625 0.06640625 0.26953125
v -0.00390625 0.06640625 0.27734375
v -0.00390625 0.06640625 0.28515625
v -0.00390625 0.07421875 0.28515625
v -0.00390625 0.08203125 0.19140625
v -0.00390625 0.08203125 0.25390625
v -0.00390625 0.08203125 0.26171875
v -0.00390625 0.08203125 0.26953125
v -0.00390625 0.08984375 0.19140625
v -0.00390625 0.08984375 0.25390625
v -0.00390625 0.08984375 0.26171875
v -0.00390625 0.09765625 0.19140625
v -0.00390625 0.09765625 0.25390625
v -0.00390625 0.10546875 0.16796875
v -0.00390625 0.11328125 0.09765625
v -0.00390625 0.11328125 0.12109375
v -0.00390625 0.12890625 0.09765625
v -0.00390625 0.13671875 0.08984375
v -0.00390625 0.14453125 -0.15234375
v -0.00390625 0.14453125 -0.12109375
v -0.00390625 0.14453125 -0.08984375
v -0.00390625 0.14453125 0.02734375
v -0.00390625 0.14453125 0.08984375
v 0.00390625 -0.18359375 -0.12109375
v 0.00390625 -0.18359375 -0.09765625
v 0.00390625 -0.18359375 -0.05078125
v 0.00390625 -0.18359375 0.12890625
v 0.00390625 -0.16796875 0.15234375
v 0.00390625 -0.16015625 0.17578125
v 0.00390625 -0.15234375 -0.20703125
v 0.00390625 -0.14453125 0.32421875
v 0.00390625 -0.12109375 0.40234375
v 0.00390625 -0.11328125 -0.22265625
v 0.00390625 -0.10546875 0.43359375
v 0.00390625 -0.09765625 -0.27734375
v 0.00390625 -0.09765625 0.43359375
v 0.00390625 -0.08984375 0.44140625
v 0.00390625 -0.08203125 0.46484375
v 0.00390625 -0.07421875 -0.27734375
v 0.00390625 -0.07421875 0.46484375
v 0.00390625 -0.06640625 -0.41796875
v 0.00390625 -0.06640625 -0.28515625
v 0.00390625 -0.05078125 -0.47265625
v 0.00390625 -0.05078125 0.44140625
v 0.00390625 -0.05078125 0.45703125
v 0.00390625 -0.03515625 -0.41796875
v 0.00390625 0.03515625 -0.47265625
v 0.00390625 0.03515625 -0.41796875
v 0.00390625 0.05859375 -0.28515625
v 0.00390625 0.06640625 -0.41015625
v 0.00390625 0.06640625 -0.28515625
v 0.00390625 0.07421875 -0.41015625
v 0.00390625 0.11328125 -0.42578125
v 0.00390625 0.11328125 -0.30078125
v 0.00390625 0.11328125 -0.27734375
v 0.00390625 0.12890625 -0.27734375
v 0.00390625 0.13671875 -0.27734375
v 0.00390625 0.13671875 -0.21484375
v 0.01171875 -0.09765625 -0.27734375
v 0.01171875 -0.08984375 0.44921875
v 0.01171875 -0.07421875 -0.27734375
v 0.01171875 -0.05078125 -0.47265625
v 0.01171875 -0.04296875 0.46484375
v 0.01171875 -0.03515625 0.44921875
v 0.01171875 0.13671875 -0.27734375
v 0.01953125 -0.11328125 -0.20703125
v 0.01953125 -0.09765625 -0.27734375
v 0.01953125 -0.08203125 0.44140625
v 0.01953125 -0.08203125 0.44921875
v 0.01953125 -0.07421875 0.44921875
v 0.01953125 -0.07421875 0.46484375
v 0.01953125 -0.06640625 -0.41796875
v 0.01953125 -0.06640625 -0.28515625
v 0.01953125 -0.05078125 0.45703125
v 0.01953125 -0.04296875 0.44140625
v 0.01953125 -0.04296875 0.46484375
v 0.01953125 -0.03515625 -0.41796875
v 0.01953125 0.03515625 -0.47265625
v 0.01953125 0.03515625 -0.41796875
v 0.01953125 0.11328125 -0.42578125
v 0.01953125 0.11328125 -0.30078125
v 0.01953125 0.11328125 -0.27734375
v 0.01953125 0.12890625 -0.27734375
v 0.01953125 0.13671875 -0.21484375
v 0.02734375 -0.12109375 -0.20703125
v 0.02734375 -0.12109375 -0.14453125
v 0.02734375 -0.06640625 -0.41796875
v 0.02734375 -0.06640625 -0.28515625
v 0.02734375 -0.03515625 -0.44140625
v 0.02734375 0.03515625 -0.44921875
v 0.02734375 0.06640625 0.28515625
v 0.02734375 0.08203125 0.26171875
v 0.02734375 0.08203125 0.26953125
v 0.02734375 0.08984375 0.19140625
v 0.02734375 0.08984375 0.25390625
v 0.02734375 0.08984375 0.26171875
v 0.02734375 0.09765625 0.19140625
v 0.02734375 0.09765625 0.25390625
v 0.02734375 0.11328125 -0.42578125
v 0.02734375 0.11328125 -0.20703125
v 0.02734375 0.12890625 -0.20703125
v 0.02734375 0.14453125 -0.20703125
v 0.03515625 -0.12890625 -0.13671875
v 0.03515625 0.06640625 0.28515625
v 0.03515625 0.07421875 -0.41015625
v 0.03515625 0.08203125 0.19140625
v 0.03515625 0.08203125 0.25390625
v 0.03515625 0.08203125 0.26171875
v 0.03515625 0.08203125 0.26953125
v 0.03515625 0.10546875 0.16796875
v 0.03515625 0.14453125 -0.15234375
v 0.03515625 0.14453125 -0.12109375
v 0.03515625 0.14453125 -0.08984375
v 0.03515625 0.15234375 -0.27734375
v 0.04296875 0.05859375 0.26953125
v 0.04296875 0.08203125 0.19140625
v 0.04296875 0.08203125 0.25390625
v 0.04296875 0.08984375 0.19140625
v 0.04296875 0.08984375 0.25390625
v 0.04296875 0.08984375 0.26171875
v 0.04296875 0.09765625 0.19140625
v 0.04296875 0.09765625 0.25390625
v 0.04296875 0.11328125 -0.30078125
v 0.04296875 0.11328125 -0.27734375
v 0.04296875 0.11328125 -0.15234375
v 0.04296875 0.11328125 -0.12109375
v 0.04296875 0.11328125 -0.08984375
v 0.04296875 0.12890625 -0.15234375
v 0.04296875 0.12890625 -0.12109375
v 0.04296875 0.12890625 -0.08984375
v 0.04296875 0.13671875 -0.15234375
v 0.04296875 0.13671875 -0.12109375
v 0.04296875 0.13671875 -0.08984375
v 0.04296875 0.14453125 0.02734375
v 0.04296875 0.14453125 0.08984375
v 0.04296875 0.16015625 -0.27734375
v 0.05078125 -0.09765625 -0.28515625
v 0.05078125 -0.09765625 -0.27734375
v 0.05078125 -0.02734375 -0.27734375
v 0.05078125 -0.01171875 -0.28515625
v 0.05078125 0.06640625 -0.41015625
v 0.05078125 0.06640625 0.26953125
v 0.05078125 0.06640625 0.28515625
v 0.05078125 0.07421875 0.28515625
v 0.05078125 0.08984375 0.25390625
v 0.05078125 0.09765625 0.19140625
v 0.05078125 0.11328125 -0.30078125
v 0.05078125 0.11328125 -0.27734375
v 0.05078125 0.11328125 0.09765625
v 0.05078125 0.11328125 0.12109375
v 0.05078125 0.12890625 0.09765625
v 0.05078125 0.13671875 0.02734375
v 0.05078125 0.13671875 0.08984375
v 0.05078125 0.16015625 -0.21484375
v 0.05859375 -0.12890625 -0.13671875
v 0.05859375 -0.12109375 -0.20703125
v 0.05859375 -0.01953125 -0.39453125
v 0.05859375 -0.00390625 0.19140625
v 0.05859375 0.00390625 0.19140625
v 0.05859375 0.00390625 0.26953125
v 0.05859375 0.01953125 -0.27734375
v 0.05859375 0.01953125 0.33203125
v 0.05859375 0.05859375 -0.28515625
v 0.05859375 0.06640625 -0.41015625
v 0.05859375 0.07421875 -0.41015625
v 0.05859375 0.07421875 0.26953125
v 0.05859375 0.10546875 -0.27734375
v 0.05859375 0.10546875 -0.26953125
v 0.05859375 0.10546875 0.17578125
v 0.05859375 0.11328125 -0.20703125
v 0.05859375 0.11328125 0.02734375
v 0.05859375 0.12890625 0.02734375
v 0.06640625 -0.12109375 -0.14453125
v 0.06640625 -0.08984375 0.44921875
v 0.06640625 -0.08203125 0.44140625
v 0.06640625 -0.08203125 0.44921875
v 0.06640625 -0.05078125 0.45703125
v 0.06640625 -0.04296875 -0.28515625
v 0.06640625 -0.04296875 -0.26953125
v 0.06640625 -0.04296875 0.44140625
v 0.06640625 -0.03515625 0.44921875
v 0.06640625 -0.02734375 0.44140625
v 0.06640625 -0.00390625 0.19140625
v 0.06640625 0.00390625 0.19140625
v 0.06640625 0.01171875 -0.41015625
v 0.06640625 0.01953125 0.33203125
v 0.06640625 0.02734375 0.33984375
v 0.06640625 0.04296875 -0.40234375
v 0.06640625 0.04296875 -0.39453125
v 0.06640625 0.06640625 -0.28515625
v 0.06640625 0.09765625 -0.25390625
v 0.06640625 0.10546875 -0.26953125
v 0.06640625 0.10546875 -0.20703125
v 0.06640625 0.10546875 0.16796875
v 0.06640625 0.11328125 -0.15234375
v 0.06640625 0.11328125 -0.12109375
v 0.06640625 0.11328125 -0.08984375
v 0.07421875 -0.18359375 -0.12109375
v 0.07421875 -0.18359375 -0.09765625
v 0.07421875 -0.17578125 -0.12890625
v 0.07421875 -0.17578125 -0.09765625
v 0.07421875 -0.16796875 -0.12890625
v 0.07421875 -0.10546875 0.43359375
v 0.07421875 -0.05078125 0.45703125
v 0.07421875 -0.05078125 0.46484375
v 0.07421875 -0.04296875 0.44140625
v 0.07421875 -0.03515625 0.44921875
v 0.07421875 -0.00390625 -0.41796875
v 0.07421875 -0.00390625 -0.39453125
v 0.07421875 -0.00390625 -0.30859375
v 0.07421875 -0.00390625 0.19140625
v 0.07421875 0.00390625 -0.41796875
v 0.07421875 0.00390625 0.19140625
v 0.07421875 0.00390625 0.26953125
v 0.07421875 0.00390625 0.34765625
v 0.07421875 0.00390625 0.37109375
v 0.07421875 0.01171875 0.35546875
v 0.07421875 0.01953125 -0.28515625
v 0.07421875 0.01953125 0.33984375
v 0.07421875 0.04296875 -0.31640625
v 0.07421875 0.05859375 -0.30859375
v 0.07421875 0.06640625 -0.27734375
v 0.07421875 0.06640625 0.17578125
v 0.07421875 0.09765625 -0.24609375
v 0.07421875 0.09765625 -0.21484375
v 0.07421875 0.10546875 -0.20703125
v 0.07421875 0.10546875 -0.15234375
v 0.07421875 0.10546875 -0.13671875
v 0.07421875 0.11328125 -0.12109375
v 0.07421875 0.11328125 -0.08984375
v 0.07421875 0.11328125 0.02734375
v 0.07421875 0.16796875 -0.21484375
v 0.07421875 0.17578125 -0.20703125
v 0.08203125 -0.18359375 -0.05078125
v 0.08203125 -0.18359375 0.12890625
v 0.08203125 -0.16796875 0.15234375
v 0.08203125 -0.16015625 0.17578125
v 0.08203125 -0.14453125 0.32421875
v 0.08203125 -0.12890625 -0.06640625
v 0.08203125 -0.12890625 0.10546875
v 0.08203125 -0.05078125 0.46484375
v 0.08203125 -0.03515625 0.44921875
v 0.08203125 0.00390625 -0.31640625
v 0.08203125 0.00390625 0.26953125
v 0.08203125 0.00390625 0.35546875
v 0.08203125 0.01953125 -0.26953125
v 0.08203125 0.05859375 -0.22265625
v 0.08203125 0.09765625 -0.16015625
v 0.08203125 0.10546875 -0.16015625
v 0.08203125 0.11328125 0.02734375
v 0.08203125 0.11328125 0.09765625
v 0.08203125 0.11328125 0.12890625
v 0.08203125 0.17578125 -0.20703125
v 0.08984375 -0.03515625 0.19921875
v 0.08984375 -0.02734375 -0.23828125
v 0.08984375 -0.01953125 -0.23828125
v 0.08984375 -0.01171875 0.35546875
v 0.08984375 -0.01171875 0.37109375
v 0.08984375 0.01953125 -0.25390625
v 0.08984375 0.01953125 -0.24609375
v 0.08984375 0.05859375 -0.24609375
v 0.08984375 0.06640625 -0.25390625
v 0.08984375 0.06640625 -0.11328125
v 0.08984375 0.06640625 0.15234375
v 0.08984375 0.10546875 -0.14453125
v 0.08984375 0.11328125 0.09765625
v 0.08984375 0.11328125 0.12890625
v 0.08984375 0.18359375 -0.30078125
v 0.08984375 0.20703125 -0.30859375
v 0.09765625 -0.12109375 0.16796875
v 0.09765625 -0.12109375 0.32421875
v 0.09765625 -0.11328125 0.32421875
v 0.09765625 -0.11328125 0.35546875
v 0.09765625 -0.10546875 0.41796875
v 0.09765625 -0.05078125 0.46484375
v 0.09765625 -0.03515625 0.19140625
v 0.09765625 -0.03515625 0.26953125
v 0.09765625 -0.03515625 0.35546875
v 0.09765625 -0.02734375 0.43359375
v 0.09765625 0.05859375 -0.16015625
v 0.09765625 0.05859375 -0.15234375
v 0.09765625 0.05859375 -0.14453125
v 0.09765625 0.05859375 -0.13671875
v 0.09765625 0.06640625 0.12890625
v 0.09765625 0.20703125 -0.30078125
v 0.10546875 -0.12109375 0.17578125
v 0.10546875 -0.12109375 0.35546875
v 0.10546875 -0.11328125 0.17578125
v 0.10546875 -0.09765625 0.35546875
v 0.10546875 -0.08203125 0.15234375
v 0.10546875 -0.08203125 0.16796875
v 0.10546875 -0.04296875 -0.21484375
v 0.10546875 -0.01171875 -0.21484375
v 0.10546875 0.05859375 0.08984375
v 0.10546875 0.06640625 -0.08984375
v 0.11328125 -0.08203125 -0.07421875
v 0.11328125 -0.08203125 0.08984375
v 0.11328125 -0.08203125 0.12890625
v 0.11328125 -0.05859375 -0.07421875
v 0.11328125 -0.05859375 0.08984375
v 0.11328125 -0.03515625 -0.21484375
v 0.11328125 -0.03515625 0.16796875
v 0.11328125 -0.02734375 -0.21484375
v 0.11328125 -0.02734375 -0.09765625
v 0.11328125 -0.01953125 -0.14453125
v 0.11328125 -0.01953125 -0.12890625
v 0.11328125 -0.01171875 -0.16015625
v 0.11328125 -0.01171875 -0.15234375
v 0.11328125 -0.01171875 0.19921875
v 0.11328125 -0.00390625 0.12890625
v 0.11328125 -0.00390625 0.33984375
v 0.11328125 0.05859375 0.02734375
v 0.11328125 0.22265625 -0.32421875
v 0.12109375 -0.08203125 0.00390625
v 0.12109375 -0.08203125 0.05078125
v 0.12109375 -0.05859375 -0.14453125
v 0.12109375 -0.05859375 0.16796875
v 0.12109375 -0.05078125 0.43359375
v 0.12109375 -0.04296875 -0.15234375
v 0.12109375 -0.04296875 -0.14453125
v 0.12109375 -0.04296875 0.16796875
v 0.12109375 -0.03515625 -0.16015625
v 0.12109375 -0.02734375 -0.16015625
v 0.12109375 -0.02734375 -0.15234375
v 0.12109375 -0.02734375 0.15234375
v 0.12109375 -0.01953125 -0.14453125
v 0.12109375 -0.01953125 0.20703125
v 0.12109375 -0.00390625 0.33984375
v 0.12109375 0.21484375 -0.32421875
v 0.12109375 0.22265625 -0.30859375
v 0.12890625 -0.16015625 -0.05078125
v 0.12890625 -0.16015625 0.11328125
v 0.12890625 -0.16015625 0.16796875
v 0.12890625 -0.12890625 -0.16796875
v 0.12890625 -0.12890625 -0.16015625
v 0.12890625 -0.12890625 -0.05078125
v 0.12890625 -0.12890625 0.11328125
v 0.12890625 -0.12890625 0.17578125
v 0.12890625 -0.11328125 -0.16796875
v 0.12890625 -0.11328125 0.17578125
v 0.12890625 -0.10546875 -0.16015625
v 0.12890625 -0.09765625 -0.05078125
v 0.12890625 -0.09765625 0.11328125
v 0.12890625 -0.08984375 -0.03515625
v 0.12890625 -0.08984375 0.08984375
v 0.12890625 -0.05859375 -0.11328125
v 0.12890625 -0.05859375 0.12890625
v 0.12890625 -0.05859375 0.15234375
v 0.12890625 -0.05078125 -0.13671875
v 0.12890625 -0.04296875 0.12890625
v 0.12890625 -0.04296875 0.15234375
v 0.12890625 -0.04296875 0.16796875
v 0.12890625 -0.04296875 0.37109375
v 0.12890625 -0.03515625 -0.14453125
v 0.12890625 0.05078125 0.11328125
v 0.13671875 -0.16015625 -0.16796875
v 0.13671875 -0.16015625 -0.16015625
v 0.13671875 -0.13671875 -0.26953125
v 0.13671875 -0.11328125 -0.26953125
v 0.13671875 -0.10546875 -0.17578125
v 0.13671875 -0.10546875 0.17578125
v 0.13671875 -0.09765625 -0.16015625
v 0.13671875 -0.09765625 -0.05078125
v 0.13671875 -0.09765625 0.11328125
v 0.13671875 -0.08984375 0.12109375
v 0.13671875 -0.05859375 -0.03515625
v 0.13671875 -0.05078125 0.17578125
v 0.13671875 -0.04296875 0.08984375
v 0.13671875 -0.02734375 -0.05859375
v 0.13671875 -0.00390625 0.08984375
v 0.13671875 0.05859375 -0.05859375
v 0.13671875 0.05859375 0.05078125
v 0.13671875 0.21484375 -0.30859375
v 0.13671875 0.22265625 -0.30859375
v 0.14453125 -0.16015625 -0.27734375
v 0.14453125 -0.13671875 0.20703125
v 0.14453125 -0.05859375 0.05078125
v 0.14453125 -0.05078125 0.37109375
v 0.14453125 0.04296875 0.12109375
v 0.15234375 -0.16796875 0.20703125
v 0.15234375 -0.13671875 -0.27734375
v 0.15234375 -0.12109375 0.19921875
v 0.15234375 -0.10546875 -0.26953125
v 0.15234375 -0.05859375 0.19921875
v 0.15234375 0.05078125 0.12109375
v 0.16015625 -0.17578125 -0.18359375
v 0.16015625 -0.17578125 0.19140625
v 0.16015625 -0.16796875 -0.19921875
v 0.16015625 -0.06640625 0.08984375
v 0.16015625 0.05078125 -0.05859375
v 0.16015625 0.05078125 0.05078125
v 0.16796875 -0.21484375 -0.05078125
v 0.16796875 -0.21484375 0.11328125
v 0.16796875 -0.06640625 -0.42578125
v 0.16796875 -0.06640625 -0.40234375
v 0.16796875 -0.06640625 -0.39453125
v 0.16796875 -0.06640625 0.12109375
v 0.16796875 -0.05859375 -0.42578125
v 0.16796875 -0.05859375 -0.40234375
v 0.16796875 -0.05859375 -0.39453125
v 0.16796875 -0.05859375 -0.06640625
v 0.16796875 0.05078125 -0.05859375
v 0.17578125 -0.21484375 -0.08984375
v 0.17578125 -0.16015625 0.13671875
v 0.17578125 -0.15234375 -0.28515625
v 0.17578125 -0.13671875 -0.26953125
v 0.17578125 -0.12890625 0.12109375
v 0.17578125 -0.10546875 -0.26953125
v 0.18359375 -0.21484375 0.16015625
v 0.18359375 -0.20703125 0.16796875
v 0.18359375 -0.18359375 0.12109375
v 0.18359375 -0.14453125 -0.26953125
v 0.19140625 -0.10546875 -0.22265625
v 0.19140625 -0.10546875 -0.16796875
v 0.19921875 -0.06640625 -0.26171875
v 0.19921875 -0.05859375 -0.25390625
v 0.20703125 -0.05859375 -0.20703125
v 0.21484375 -0.07421875 -0.24609375
v 0.21484375 -0.05859375 -0.26953125
v 0.21484375 -0.05859375 -0.20703125
v 0.22265625 -0.06640625 -0.27734375
v 0.23046875 -0.18359375 0.12109375
v 0.23046875 -0.08203125 -0.25390625
v 0.23046875 -0.06640625 -0.27734375
v 0.23046875 -0.05859375 -0.26171875
v 0.23046875 -0.05859375 -0.20703125
v 0.23046875 -0.03515625 0.12890625
v 0.23828125 -0.21484375 0.11328125
v 0.23828125 -0.08203125 -0.25390625
v 0.23828125 -0.05859375 -0.26953125
v 0.24609375 -0.21484375 -0.08203125
v 0.24609375 -0.21484375 -0.05078125
v 0.24609375 -0.21484375 0.14453125
v 0.24609375 -0.20703125 0.16015625
v 0.24609375 -0.16015625 0.13671875
v 0.24609375 -0.12890625 0.12109375
v 0.24609375 -0.08203125 -0.25390625
v 0.24609375 -0.06640625 -0.27734375
v 0.25390625 -0.17578125 -0.18359375
v 0.25390625 -0.14453125 -0.28515625
v 0.25390625 -0.12890625 0.12109375
v 0.25390625 -0.10546875 -0.27734375
v 0.25390625 -0.03515625 0.05078125
v 0.26171875 -0.16796875 -0.21484375
v 0.26171875 -0.16015625 0.17578125
v 0.26171875 -0.12890625 0.17578125
v 0.26171875 -0.11328125 0.17578125
v 0.26171875 -0.10546875 -0.22265625
v 0.26171875 -0.08203125 0.12890625
v 0.26171875 -0.05078125 -0.05859375
v 0.26171875 -0.04296875 -0.05859375
v 0.26953125 -0.16015625 0.17578125
v 0.26953125 -0.08984375 -0.05859375
v 0.26953125 -0.08984375 0.11328125
v 0.27734375 -0.15234375 -0.28515625
v 0.27734375 -0.14453125 -0.28515625
v 0.27734375 -0.10546875 -0.28515625
v 0.27734375 -0.09765625 0.16796875
v 0.27734375 -0.08984375 -0.05859375
v 0.28515625 -0.16015625 -0.16015625
v 0.28515625 -0.16015625 -0.05078125
v 0.28515625 -0.16015625 0.05078125
v 0.28515625 -0.16015625 0.13671875
v 0.28515625 -0.15234375 -0.27734375
v 0.28515625 -0.15234375 -0.26953125
v 0.28515625 -0.12890625 0.05078125
v 0.28515625 -0.12890625 0.16796875
v 0.28515625 -0.11328125 -0.27734375
v 0.28515625 -0.08984375 -0.16015625
v 0.28515625 -0.08984375 0.05078125
v 0.29296875 -0.15234375 -0.26953125
v 0.29296875 -0.15234375 -0.16015625
v 0.29296875 -0.15234375 -0.05078125
v 0.29296875 -0.15234375 0.01953125
v 0.29296875 -0.12890625 0.13671875
v 0.29296875 -0.12109375 0.01953125
v 0.29296875 -0.11328125 -0.26953125
v 0.29296875 -0.11328125 -0.17578125
v 0.29296875 -0.11328125 0.13671875
v 0.29296875 -0.10546875 -0.27734375
v 0.29296875 -0.10546875 -0.16015625
v 0.29296875 -0.10546875 -0.05078125
v 0.45703125 -0.14453125 -0.05859375
v 0.45703125 -0.12109375 -0.05859375
v 0.46484375 -0.14453125 -0.11328125
v 0.47265625 -0.12109375 -0.11328125
v 0.47265625 -0.11328125 -0.23046875
v 0.48046875 -0.13671875 -0.23046875
v 0.48046875 -0.13671875 -0.21484375
v 0.48046875 -0.12109375 -0.23046875
v 0.48046875 -0.11328125 -0.21484375
v 0.49609375 -0.13671875 -0.21484375
v 0.49609375 -0.13671875 -0.11328125
v 0.49609375 -0.12890625 -0.08984375
v 0.49609375 -0.12109375 -0.21484375
v 0.49609375 -0.12109375 -0.11328125
v 0.49609375 -0.12109375 -0.08984375
f 37 75 76
f 37 76 38
f 76 75 105
f 75 37 119
f 37 38 10
f 38 76 49
f 76 105 71
f 105 75 119
f 119 37 18
f 37 10 18
f 10 38 17
f 38 49 39
f 49 76 71
f 71 105 77
f 105 119 112
f 119 18 97
f 18 10 9
f 10 17 21
f 17 38 39
f 39 49 50
f 49 71 56
f 71 77 72
f 77 105 112
f 112 119 113
f 119 97 120
f 97 18 28
f 18 9 19
f 9 10 13
f 10 21 12
f 21 17 31
f 17 39 31
f 39 50 30
f 50 49 56
f 56 71 72
f 72 77 70
f 77 112 99
f 112 113 115
f 113 119 135
f 119 120 135
f 120 97 121
f 97 28 98
f 28 18 19
f 19 9 1
f 9 13 3
f 13 10 12
f 12 21 26
f 21 31 32
f 31 39 30
f 30 50 41
f 50 56 61
f 56 72 62
f 72 70 62
f 70 77 73
f 77 99 85
f 99 112 115
f 115 113 124
f 113 135 136
f 135 120 122
f 120 121 114
f 121 97 98
f 98 28 29
f 28 19 20
f 19 1 14
f 1 9 3
f 3 13 7
f 13 12 16
f 12 26 25
f 26 21 24
f 21 32 24
f 32 31 42
f 31 30 42
f 30 41 51
f 41 50 61
f 61 56 62
f 62 70 73
f 73 77 85
f 85 99 86
f 99 115 86
f 115 124 26
f 124 113 136
f 136 135 123
f 135 122 69
f 122 120 114
f 114 121 107
f 121 98 106
f 98 29 84
f 29 28 23
f 28 20 23
f 20 19 15
f 19 14 15
f 14 1 2
f 1 3 2
f 3 7 4
f 7 13 16
f 16 12 20
f 12 25 44
f 25 26 27
f 26 24 115
f 24 32 86
f 32 42 81
f 42 30 51
f 51 41 74
f 41 61 78
f 61 62 73
f 73 85 78
f 85 86 81
f 86 115 24
f 26 124 125
f 124 136 125
f 136 123 125
f 123 135 69
f 69 122 67
f 122 114 66
f 114 107 65
f 107 121 106
f 106 98 84
f 84 29 40
f 29 23 33
f 23 20 52
f 20 15 5
f 15 14 2
f 2 3 4
f 4 7 8
f 7 16 8
f 16 20 11
f 20 12 44
f 44 25 34
f 25 27 36
f 27 26 35
f 86 32 81
f 81 42 74
f 42 51 74
f 74 41 78
f 78 61 73
f 78 85 81
f 26 125 35
f 125 123 138
f 123 69 68
f 69 67 59
f 67 122 66
f 66 114 65
f 65 107 82
f 107 106 82
f 106 84 80
f 84 40 79
f 40 29 33
f 33 23 58
f 23 52 58
f 52 20 53
f 20 5 11
f 5 15 2
f 2 4 6
f 4 8 6
f 8 16 11
f 20 44 45
f 44 34 59
f 34 25 48
f 25 36 48
f 36 27 54
f 27 35 54
f 81 74 78
f 35 125 100
f 125 138 101
f 138 123 137
f 123 68 34
f 68 69 59
f 59 67 52
f 67 66 58
f 66 65 57
f 65 82 64
f 82 106 80
f 80 84 79
f 79 40 63
f 40 33 43
f 33 58 43
f 58 52 67
f 52 53 59
f 53 20 22
f 11 5 6
f 5 2 6
f 6 8 11
f 20 45 22
f 45 44 59
f 59 34 68
f 34 48 47
f 48 36 96
f 36 54 83
f 54 35 55
f 35 100 90
f 100 125 101
f 101 138 116
f 138 137 150
f 137 123 34
f 58 66 57
f 57 65 64
f 64 82 80
f 80 79 63
f 63 40 43
f 43 58 57
f 59 53 22
f 22 45 59
f 34 47 94
f 47 48 103
f 48 96 103
f 96 36 83
f 83 54 104
f 54 55 104
f 55 35 46
f 35 90 46
f 90 100 102
f 100 101 95
f 101 116 171
f 116 138 150
f 150 137 149
f 137 34 94
f 57 64 63
f 64 80 63
f 63 43 57
f 94 47 103
f 103 96 131
f 96 83 131
f 83 104 132
f 104 55 111
f 55 46 60
f 46 90 102
f 102 100 109
f 100 95 109
f 95 101 128
f 101 171 128
f 171 116 150
f 150 149 168
f 149 137 94
f 94 103 129
f 103 131 129
f 131 83 132
f 132 104 184
f 104 111 184
f 111 55 60
f 60 46 102
f 102 109 164
f 109 95 130
f 95 128 182
f 128 171 143
f 171 150 168
f 168 149 167
f 149 94 126
f 94 129 126
f 129 131 176
f 131 132 194
f 132 184 195
f 184 111 164
f 111 60 110
f 60 102 110
f 102 164 110
f 164 109 184
f 109 130 184
f 130 95 148
f 95 182 118
f 182 128 143
f 143 171 140
f 171 168 140
f 168 167 236
f 167 149 126
f 126 129 170
f 129 176 139
f 176 131 194
f 194 132 195
f 195 184 209
f 164 111 110
f 184 130 148
f 148 95 118
f 118 182 148
f 182 143 160
f 143 140 144
f 140 168 169
f 168 236 169
f 236 167 235
f 167 126 139
f 126 170 139
f 170 129 139
f 139 176 142
f 176 194 178
f 194 195 287
f 195 209 246
f 209 184 148
f 148 182 209
f 182 160 210
f 160 143 144
f 144 140 141
f 140 169 141
f 169 236 231
f 236 235 231
f 235 167 139
f 139 142 253
f 142 176 178
f 178 194 222
f 194 287 222
f 287 195 246
f 246 209 226
f 209 182 210
f 210 160 280
f 160 144 174
f 144 141 156
f 141 169 190
f 169 231 190
f 231 235 230
f 235 139 253
f 253 142 252
f 142 178 155
f 178 222 177
f 222 287 286
f 287 246 288
f 246 226 247
f 226 209 210
f 210 280 315
f 280 160 174
f 174 144 156
f 156 141 152
f 141 190 152
f 190 231 232
f 231 230 475
f 230 235 253
f 253 252 251
f 252 142 254
f 142 155 151
f 155 178 177
f 177 222 221
f 222 286 221
f 286 287 318
f 287 288 318
f 288 246 247
f 247 226 227
f 226 210 227
f 210 315 227
f 315 280 349
f 280 174 202
f 174 156 202
f 156 152 172
f 152 190 191
f 190 232 191
f 232 231 475
f 475 230 474
f 230 253 251
f 251 252 250
f 252 254 291
f 254 142 151
f 151 155 154
f 155 177 147
f 177 221 162
f 221 286 245
f 286 318 317
f 318 288 338
f 288 247 352
f 247 227 248
f 227 315 336
f 315 349 363
f 349 280 308
f 280 202 308
f 202 156 172
f 172 152 191
f 191 232 233
f 232 475 476
f 475 474 682
f 474 230 251
f 251 250 473
f 250 252 319
f 252 291 319
f 291 254 151
f 151 154 291
f 154 155 157
f 155 147 159
f 147 177 162
f 162 221 208
f 221 245 208
f 245 286 285
f 286 317 285
f 317 318 369
f 318 338 369
f 338 288 352
f 352 247 248
f 248 227 336
f 336 315 363
f 363 349 326
f 349 308 326
f 308 202 239
f 202 172 181
f 172 191 145
f 191 233 196
f 233 232 476
f 476 475 684
f 475 682 683
f 682 474 647
f 474 251 473
f 473 250 472
f 250 319 379
f 319 291 320
f 291 154 192
f 154 157 173
f 157 155 159
f 159 147 162
f 162 208 180
f 208 245 225
f 245 285 284
f 285 317 316
f 317 369 368
f 369 338 339
f 338 352 354
f 352 248 353
f 248 336 384
f 336 363 401
f 363 326 358
f 326 308 239
f 239 202 203
f 202 181 183
f 181 172 145
f 145 191 196
f 196 233 234
f 233 476 477
f 476 684 685
f 684 475 683
f 683 682 687
f 682 647 649
f 647 474 473
f 473 472 646
f 472 250 379
f 379 319 320
f 320 291 192
f 192 154 173
f 173 157 158
f 157 159 158
f 159 162 180
f 180 208 207
f 208 225 207
f 225 245 284
f 284 285 337
f 285 316 337
f 316 317 368
f 368 369 372
f 369 339 372
f 339 338 354
f 354 352 465
f 352 353 463
f 353 248 384
f 384 336 401
f 401 363 398
f 358 326 327
f 326 239 266
f 239 203 241
f 203 202 183
f 183 181 163
f 181 145 161
f 145 196 127
f 196 234 197
f 234 233 479
f 233 477 479
f 477 476 685
f 685 684 739
f 684 683 738
f 683 687 688
f 687 682 649
f 649 647 648
f 647 473 646
f 646 472 551
f 472 379 434
f 379 320 389
f 320 192 297
f 192 173 212
f 173 158 175
f 158 159 180
f 180 207 179
f 207 225 224
f 225 284 244
f 284 337 314
f 337 316 367
f 316 368 367
f 368 372 371
f 372 339 355
f 339 354 356
f 354 465 466
f 465 352 463
f 463 353 464
f 353 384 462
f 384 401 460
f 401 398 457
f 398 363 360
f 358 327 359
f 327 326 267
f 326 266 267
f 266 239 263
f 239 241 263
f 241 203 242
f 203 183 204
f 183 163 117
f 163 181 161
f 161 145 127
f 127 196 188
f 196 197 188
f 197 234 200
f 234 479 482
f 479 477 685
f 685 739 718
f 739 684 738
f 738 683 746
f 683 688 746
f 688 687 744
f 687 649 794
f 649 648 797
f 648 647 646
f 646 551 603
f 551 472 434
f 434 379 390
f 379 389 390
f 389 320 340
f 320 297 341
f 297 192 212
f 212 173 213
f 173 175 213
f 175 158 179
f 158 180 179
f 179 207 206
f 207 224 206
f 224 225 244
f 244 284 314
f 314 337 351
f 337 367 404
f 367 368 371
f 371 372 375
f 372 355 375
f 355 339 356
f 356 354 466
f 466 465 599
f 465 463 597
f 463 464 598
f 464 353 462
f 462 384 460
f 460 401 457
f 457 398 458
f 398 360 399
f 358 359 360
f 359 327 347
f 327 267 268
f 267 266 264
f 266 263 264
f 263 241 264
f 241 242 267
f 242 203 204
f 204 183 146
f 183 117 146
f 117 163 108
f 163 161 108
f 161 127 108
f 127 188 108
f 188 197 198
f 197 200 189
f 200 234 255
f 234 482 255
f 482 479 686
f 479 685 686
f 685 718 686
f 718 739 800
f 739 738 765
f 738 746 796
f 746 688 745
f 688 744 745
f 744 687 794
f 794 649 797
f 797 648 650
f 648 646 603
f 603 551 604
f 551 434 534
f 434 390 478
f 390 389 407
f 389 340 408
f 340 320 341
f 341 297 296
f 297 212 243
f 212 213 216
f 213 175 217
f 175 179 193
f 179 206 193
f 206 224 223
f 224 244 223
f 244 314 283
f 314 351 335
f 351 337 366
f 337 404 366
f 404 367 370
f 367 371 370
f 371 375 374
f 375 355 387
f 355 356 376
f 356 466 377
f 466 599 601
f 599 465 597
f 597 463 598
f 598 464 462
f 462 460 558
f 460 457 545
f 457 458 454
f 457 458 542
f 458 398 399
f 399 360 361
f 360 359 361
f 359 347 364
f 347 327 330
f 327 268 324
f 268 267 271
f 267 264 241
f 267 242 269
f 242 204 214
f 204 146 214
f 146 117 199
f 117 108 188
f 188 198 186
f 198 197 189
f 189 200 146
f 200 255 153
f 482 234 480
f 482 686 651
f 686 718 719
f 718 800 815
f 800 739 765
f 765 738 796
f 796 746 795
f 746 745 795
f 745 744 762
f 744 794 814
f 794 797 752
f 797 650 764
f 650 648 621
f 648 603 621
f 603 604 621
f 604 551 533
f 551 534 533
f 534 434 478
f 478 390 407
f 407 389 408
f 408 340 392
f 340 341 296
f 296 297 273
f 297 243 273
f 243 212 216
f 216 213 217
f 217 175 193
f 193 206 219
f 206 223 219
f 223 244 283
f 283 314 335
f 335 351 350
f 351 366 365
f 366 404 423
f 404 370 405
f 370 371 374
f 374 375 386
f 375 387 386
f 387 355 376
f 376 356 377
f 377 466 471
f 466 601 583
f 601 599 620
f 599 597 619
f 597 598 700
f 598 462 558
f 558 460 545
f 545 457 542
f 457 454 453
f 458 457 453
f 542 458 543
f 458 399 461
f 399 361 402
f 364 347 348
f 347 330 348
f 330 327 328
f 327 324 271
f 324 268 301
f 268 271 303
f 271 267 269
f 269 242 305
f 242 214 305
f 214 146 215
f 146 199 189
f 199 117 187
f 117 188 187
f 188 186 187
f 186 198 187
f 198 189 199
f 146 200 153
f 153 255 201
f 482 480 686
f 651 686 722
f 686 719 722
f 719 718 736
f 718 815 736
f 815 800 775
f 800 765 769
f 765 796 769
f 796 795 799
f 795 745 748
f 745 762 763
f 762 744 814
f 814 794 747
f 794 752 817
f 752 797 754
f 797 764 768
f 764 650 621
f 621 604 740
f 604 533 585
f 533 534 514
f 534 478 514
f 478 407 481
f 407 408 426
f 408 392 414
f 392 340 296
f 296 273 342
f 273 243 310
f 243 216 279
f 216 217 218
f 217 193 218
f 193 219 218
f 219 223 283
f 283 335 313
f 335 350 334
f 350 351 365
f 365 366 422
f 366 423 422
f 423 404 405
f 405 370 373
f 370 374 373
f 374 386 373
f 386 387 468
f 387 376 469
f 376 377 470
f 377 471 470
f 471 466 583
f 583 601 582
f 601 620 600
f 620 599 619
f 619 597 679
f 597 700 699
f 700 598 558
f 558 545 617
f 545 542 569
f 453 454 449
f 458 453 456
f 542 543 566
f 543 458 461
f 461 399 402
f 402 361 364
f 364 348 333
f 348 330 311
f 330 328 309
f 328 327 274
f 327 271 274
f 271 324 303
f 324 301 303
f 301 268 303
f 271 269 275
f 269 305 275
f 305 214 272
f 214 215 272
f 215 146 153
f 199 187 198
f 153 201 205
f 201 255 237
f 651 722 766
f 722 719 737
f 719 736 720
f 736 815 832
f 815 775 832
f 775 800 757
f 800 769 750
f 769 796 799
f 799 795 798
f 795 748 798
f 748 745 763
f 763 762 792
f 762 814 849
f 814 747 817
f 747 794 817
f 817 752 819
f 752 754 743
f 754 797 768
f 768 764 767
f 764 621 767
f 621 740 767
f 740 604 627
f 604 585 586
f 585 533 515
f 533 514 515
f 514 478 481
f 481 407 426
f 426 408 414
f 414 392 391
f 392 296 342
f 342 273 323
f 273 310 323
f 310 243 279
f 279 216 220
f 216 218 220
f 218 219 282
f 219 283 282
f 283 313 282
f 313 335 334
f 334 350 310
f 350 365 403
f 365 422 421
f 422 423 502
f 423 405 424
f 405 373 406
f 373 386 385
f 386 468 385
f 468 387 469
f 469 376 470
f 470 471 583
f 583 582 470
f 582 601 600
f 600 620 578
f 620 619 575
f 619 679 645
f 679 597 699
f 699 700 715
f 700 558 617
f 617 545 569
f 569 542 566
f 453 449 448
f 449 454 458
f 458 456 461
f 566 543 567
f 543 461 546
f 461 402 459
f 402 364 400
f 364 333 332
f 333 348 311
f 311 330 309
f 309 328 274
f 274 271 275
f 275 305 276
f 305 272 447
f 272 215 270
f 215 153 205
f 205 201 238
f 201 237 259
f 237 255 292
f 651 766 723
f 766 722 801
f 722 737 801
f 737 719 720
f 720 736 734
f 736 832 826
f 832 775 776
f 775 757 776
f 757 800 724
f 800 750 724
f 750 769 799
f 799 798 773
f 798 748 816
f 748 763 825
f 763 792 793
f 792 762 849
f 849 814 817
f 817 819 838
f 819 752 743
f 743 754 711
f 754 768 753
f 768 767 770
f 767 740 749
f 740 627 703
f 627 604 586
f 586 585 626
f 585 515 536
f 515 514 507
f 514 481 507
f 481 426 483
f 426 414 428
f 414 391 413
f 391 392 321
f 392 342 343
f 342 323 343
f 323 310 325
f 310 279 334
f 279 220 334
f 220 218 282
f 282 313 281
f 313 334 312
f 310 350 403
f 403 365 421
f 421 422 501
f 422 502 501
f 502 423 503
f 423 424 503
f 424 405 406
f 406 373 388
f 373 385 357
f 385 468 467
f 468 469 561
f 469 470 582
f 582 600 561
f 600 578 581
f 578 620 575
f 575 619 645
f 645 679 678
f 679 699 698
f 699 715 714
f 715 700 617
f 617 569 642
f 449 458 452
f 461 456 459
f 566 567 565
f 567 543 546
f 546 461 459
f 459 402 400
f 400 364 362
f 364 332 362
f 332 333 305
f 333 311 276
f 311 309 275
f 309 274 275
f 275 276 311
f 276 305 333
f 305 447 446
f 447 272 445
f 272 270 445
f 270 215 205
f 205 238 300
f 238 201 259
f 259 237 257
f 237 292 257
f 292 255 435
f 651 723 689
f 723 766 727
f 766 801 706
f 801 737 721
f 737 720 721
f 720 734 735
f 734 736 735
f 736 826 735
f 826 832 776
f 776 757 759
f 757 724 759
f 724 750 671
f 750 799 773
f 773 798 758
f 798 816 758
f 816 748 837
f 748 825 837
f 825 763 793
f 793 792 811
f 792 849 901
f 849 817 838
f 838 819 850
f 819 743 820
f 743 711 678
f 711 754 753
f 753 768 802
f 768 770 772
f 770 767 749
f 749 740 703
f 703 627 694
f 627 586 626
f 626 585 536
f 536 515 521
f 515 507 521
f 507 481 483
f 483 426 487
f 426 428 487
f 428 414 490
f 414 413 490
f 413 391 429
f 391 321 261
f 321 392 343
f 343 323 325
f 325 310 499
f 334 220 312
f 220 282 281
f 281 313 312
f 310 403 331
f 403 421 381
f 421 501 500
f 501 502 529
f 502 503 530
f 503 424 504
f 424 406 433
f 406 388 433
f 388 373 289
f 373 357 290
f 357 385 425
f 385 467 425
f 467 468 559
f 468 561 560
f 561 469 582
f 561 600 581
f 581 578 577
f 578 575 574
f 575 645 644
f 645 678 677
f 678 679 698
f 698 699 714
f 714 715 732
f 715 617 642
f 642 569 594
f 458 449 456
f 459 456 544
f 566 565 564
f 567 546 570
f 546 459 544
f 459 400 456
f 400 362 397
f 362 332 346
f 332 305 346
f 305 446 304
f 446 447 634
f 447 445 441
f 447 445 665
f 445 270 444
f 270 205 300
f 300 238 259
f 259 257 258
f 257 292 294
f 292 435 427
f 651 689 622
f 689 723 655
f 723 727 690
f 727 766 706
f 706 801 705
f 801 721 826
f 721 720 735
f 735 826 721
f 826 776 759
f 759 724 725
f 724 671 661
f 671 750 773
f 773 758 712
f 758 816 818
f 816 837 845
f 837 825 793
f 793 811 812
f 811 792 901
f 901 849 898
f 849 838 898
f 838 850 898
f 850 819 839
f 819 820 839
f 820 743 760
f 743 678 698
f 678 711 677
f 711 753 731
f 753 802 774
f 802 768 772
f 772 770 771
f 770 749 751
f 749 703 704
f 703 694 707
f 694 627 666
f 627 626 666
f 626 536 587
f 536 521 535
f 521 507 509
f 507 483 487
f 487 428 490
f 490 413 489
f 413 429 489
f 429 391 393
f 391 261 260
f 261 321 262
f 321 343 262
f 343 325 278
f 325 499 497
f 499 310 500
f 312 220 281
f 310 331 500
f 331 403 381
f 381 421 500
f 500 501 528
f 501 529 528
f 529 502 530
f 530 503 531
f 503 504 531
f 504 424 433
f 433 388 378
f 388 289 228
f 289 373 249
f 373 290 249
f 290 357 211
f 357 425 378
f 425 467 506
f 467 559 532
f 559 468 560
f 560 561 581
f 581 577 580
f 577 578 574
f 574 575 644
f 644 645 677
f 698 714 760
f 714 732 742
f 732 715 642
f 642 594 671
f 594 569 661
f 544 456 541
f 564 565 555
f 570 546 544
f 456 400 397
f 397 362 383
f 362 346 383
f 346 305 345
f 305 304 345
f 304 446 345
f 446 634 591
f 634 447 635
f 447 441 443
f 447 665 635
f 665 445 664
f 445 444 664
f 444 270 300
f 300 259 299
f 259 258 298
f 258 257 256
f 257 294 256
f 294 292 427
f 427 435 484
f 651 622 482
f 622 689 653
f 689 655 653
f 655 723 690
f 690 727 630
f 727 706 664
f 706 705 665
f 705 801 726
f 801 826 759
f 759 725 726
f 725 724 692
f 724 661 702
f 661 671 594
f 671 773 712
f 712 758 732
f 758 818 732
f 818 816 845
f 845 837 813
f 837 793 813
f 793 812 813
f 812 811 790
f 811 901 917
f 901 898 907
f 898 850 899
f 850 839 899
f 839 820 833
f 820 760 803
f 760 743 698
f 677 711 731
f 731 753 774
f 774 802 772
f 772 771 756
f 771 770 751
f 751 749 704
f 704 703 707
f 707 694 670
f 694 666 638
f 666 626 587
f 587 536 588
f 536 535 605
f 535 521 520
f 521 509 490
f 509 507 487
f 487 490 509
f 490 489 520
f 489 429 491
f 429 393 418
f 393 391 260
f 260 261 87
f 261 262 88
f 262 343 278
f 278 325 329
f 325 497 498
f 497 499 611
f 499 500 638
f 500 528 553
f 528 529 571
f 529 530 572
f 530 531 549
f 531 504 513
f 504 433 505
f 433 378 425
f 378 388 211
f 388 228 229
f 228 289 133
f 289 249 133
f 249 290 134
f 290 211 166
f 211 357 378
f 425 506 433
f 506 467 532
f 532 559 602
f 559 560 579
f 560 581 580
f 580 577 576
f 577 574 573
f 574 644 643
f 644 677 675
f 760 714 742
f 742 732 818
f 732 642 712
f 642 671 712
f 661 569 632
f 544 541 568
f 541 456 455
f 564 555 554
f 555 565 590
f 570 544 568
f 456 397 396
f 397 383 382
f 383 346 345
f 345 446 380
f 446 591 552
f 591 634 635
f 635 665 705
f 665 664 706
f 664 444 630
f 444 300 440
f 300 299 431
f 299 259 298
f 298 258 256
f 256 294 293
f 294 427 410
f 427 484 436
f 484 435 482
f 482 622 508
f 622 653 624
f 653 655 654
f 655 690 630
f 630 727 664
f 705 726 693
f 726 801 759
f 726 725 693
f 725 692 693
f 692 724 702
f 702 661 659
f 818 845 803
f 845 813 897
f 813 812 897
f 812 790 791
f 790 811 810
f 811 917 810
f 917 901 907
f 907 898 899
f 899 839 891
f 839 833 891
f 833 820 803
f 803 760 742
f 677 731 676
f 731 774 730
f 774 772 756
f 756 771 755
f 771 751 755
f 751 704 708
f 704 707 708
f 707 670 710
f 670 694 638
f 638 666 609
f 666 587 609
f 587 588 609
f 588 536 605
f 605 535 657
f 535 520 510
f 520 521 490
f 520 489 510
f 489 491 510
f 491 429 418
f 418 393 394
f 393 260 302
f 260 87 91
f 87 261 88
f 88 262 89
f 262 278 240
f 278 329 277
f 329 325 344
f 325 498 344
f 498 497 611
f 611 499 638
f 638 500 613
f 553 528 547
f 528 571 547
f 571 529 572
f 572 530 548
f 530 549 548
f 549 531 550
f 531 513 550
f 513 504 505
f 505 433 506
f 211 388 229
f 229 228 185
f 228 133 165
f 133 249 134
f 134 290 166
f 166 211 185
f 506 532 513
f 532 602 584
f 602 559 579
f 579 560 580
f 580 576 579
f 576 577 573
f 573 574 643
f 643 644 675
f 675 677 676
f 742 818 803
f 661 632 659
f 632 569 554
f 568 541 557
f 541 455 540
f 455 456 450
f 455 456 396
f 564 554 569
f 554 555 563
f 555 590 563
f 590 565 593
f 570 568 592
f 396 397 382
f 382 383 345
f 345 380 382
f 380 446 395
f 446 552 539
f 552 591 556
f 591 635 592
f 635 705 693
f 630 444 440
f 300 444 322
f 300 431 432
f 431 299 416
f 299 298 416
f 298 256 295
f 256 293 295
f 293 294 410
f 410 427 436
f 436 484 485
f 484 482 508
f 508 622 624
f 624 653 652
f 653 654 652
f 654 655 628
f 655 630 629
f 693 692 662
f 692 702 662
f 702 659 662
f 803 845 875
f 845 897 875
f 897 812 902
f 812 791 809
f 791 790 784
f 790 810 789
f 810 917 868
f 917 907 929
f 907 899 918
f 899 891 918
f 891 833 875
f 833 803 827
f 676 731 730
f 730 774 756
f 756 755 729
f 755 751 741
f 751 708 741
f 708 707 709
f 707 710 709
f 710 670 615
f 670 638 615
f 638 609 611
f 609 588 611
f 588 605 658
f 605 657 658
f 657 535 656
f 535 510 537
f 510 491 525
f 491 418 494
f 418 394 420
f 394 393 306
f 393 302 306
f 302 260 265
f 260 91 265
f 91 87 88
f 88 89 92
f 89 262 93
f 262 240 93
f 240 278 277
f 277 329 307
f 329 344 394
f 344 498 419
f 498 611 589
f 638 613 547
f 553 547 613
f 547 571 595
f 571 572 596
f 572 548 618
f 548 549 576
f 549 550 579
f 550 513 562
f 513 505 506
f 211 229 185
f 185 228 165
f 165 133 134
f 134 166 185
f 513 532 584
f 584 602 733
f 602 579 681
f 579 576 549
f 576 573 548
f 573 643 618
f 643 675 641
f 675 676 697
f 659 632 631
f 632 554 607
f 568 557 592
f 557 541 540
f 540 455 539
f 455 450 539
f 450 456 451
f 455 396 395
f 554 563 607
f 563 590 608
f 590 593 614
f 593 565 570
f 570 592 614
f 396 382 395
f 382 380 395
f 395 446 451
f 446 539 450
f 539 552 556
f 556 591 557
f 591 592 557
f 592 635 667
f 635 693 663
f 630 440 512
f 440 444 432
f 322 444 442
f 432 431 417
f 431 416 415
f 416 298 295
f 295 293 409
f 293 410 409
f 410 436 412
f 436 485 437
f 485 484 486
f 484 508 486
f 508 624 517
f 624 652 623
f 652 654 628
f 628 655 629
f 629 630 512
f 693 662 663
f 662 659 631
f 803 875 827
f 875 897 902
f 902 812 809
f 809 791 788
f 791 784 785
f 784 790 783
f 790 789 783
f 789 810 808
f 810 868 865
f 868 917 874
f 917 929 926
f 929 907 930
f 907 918 930
f 918 891 902
f 891 875 902
f 875 833 827
f 676 730 713
f 730 756 729
f 729 755 728
f 755 741 728
f 741 708 709
f 709 710 672
f 710 615 640
f 615 638 595
f 611 588 669
f 588 658 669
f 658 657 843
f 657 656 842
f 656 535 537
f 537 510 525
f 525 491 494
f 494 418 420
f 420 394 419
f 394 306 329
f 306 302 307
f 302 265 240
f 265 91 92
f 91 88 92
f 92 89 93
f 93 240 92
f 240 277 307
f 307 329 306
f 394 344 419
f 419 498 495
f 498 589 526
f 589 611 612
f 638 547 595
f 595 571 596
f 596 572 618
f 618 548 573
f 579 550 562
f 562 513 584
f 185 165 134
f 584 733 562
f 733 602 681
f 681 579 701
f 618 643 641
f 641 675 697
f 697 676 713
f 631 632 607
f 557 540 556
f 540 539 556
f 450 455 395
f 450 451 446
f 607 563 608
f 608 590 610
f 590 614 634
f 614 593 570
f 614 592 667
f 395 451 450
f 667 635 663
f 512 440 524
f 440 432 430
f 432 444 442
f 442 444 322
f 432 417 430
f 417 431 415
f 415 416 295
f 295 409 415
f 409 410 412
f 412 436 430
f 436 437 430
f 437 485 438
f 485 486 488
f 486 508 517
f 517 624 623
f 623 652 625
f 652 628 625
f 628 629 523
f 629 512 523
f 663 662 667
f 662 631 608
f 902 809 906
f 809 788 830
f 788 791 785
f 785 784 779
f 784 783 805
f 783 789 782
f 789 808 787
f 808 810 863
f 810 865 864
f 865 868 867
f 868 874 873
f 874 917 928
f 917 926 925
f 926 929 939
f 929 930 934
f 930 918 924
f 918 902 906
f 713 730 729
f 729 728 697
f 728 741 695
f 741 709 695
f 709 672 695
f 672 710 639
f 710 640 639
f 640 615 616
f 615 595 596
f 611 669 612
f 669 658 691
f 658 843 844
f 843 657 842
f 842 656 846
f 656 537 633
f 537 525 538
f 525 494 527
f 494 420 496
f 420 419 496
f 307 302 240
f 240 265 92
f 419 495 496
f 495 498 526
f 526 589 538
f 589 612 538
f 596 618 616
f 579 562 680
f 562 733 717
f 733 681 778
f 681 701 822
f 701 579 680
f 618 641 616
f 641 697 674
f 697 713 729
f 631 607 606
f 607 608 606
f 608 610 663
f 610 590 634
f 634 614 667
f 512 524 522
f 524 440 511
f 440 430 438
f 432 442 322
f 430 417 412
f 417 415 411
f 415 409 411
f 409 412 411
f 430 437 438
f 438 485 492
f 485 488 493
f 488 486 511
f 486 517 519
f 517 623 516
f 623 625 516
f 625 628 523
f 523 512 522
f 667 662 608
f 608 631 606
f 906 809 830
f 830 788 824
f 788 785 786
f 785 779 780
f 779 784 805
f 805 783 804
f 783 782 804
f 782 789 787
f 787 808 807
f 808 863 866
f 863 810 864
f 864 865 867
f 867 868 873
f 873 874 878
f 874 928 878
f 928 917 925
f 925 926 935
f 926 939 935
f 939 929 934
f 934 930 932
f 930 924 932
f 924 918 914
f 918 906 927
f 697 728 696
f 728 695 696
f 695 672 673
f 672 639 673
f 639 640 674
f 640 616 641
f 616 615 596
f 612 669 668
f 669 691 668
f 691 658 848
f 658 844 848
f 844 843 847
f 843 842 846
f 846 656 660
f 656 633 660
f 633 537 636
f 537 538 636
f 538 525 527
f 527 494 496
f 496 495 526
f 526 538 527
f 538 612 636
f 680 562 716
f 562 717 716
f 717 733 761
f 733 778 761
f 778 681 822
f 822 701 821
f 701 680 821
f 641 674 640
f 674 697 696
f 608 663 634
f 663 610 634
f 634 667 608
f 522 524 518
f 524 511 519
f 511 440 493
f 440 438 439
f 412 417 411
f 438 492 439
f 492 485 493
f 493 488 511
f 511 486 519
f 519 517 516
f 516 625 522
f 625 523 522
f 906 830 895
f 830 824 828
f 824 788 786
f 786 785 780
f 780 779 841
f 779 805 840
f 805 804 834
f 804 782 823
f 782 787 806
f 787 807 806
f 807 808 831
f 808 866 862
f 866 863 871
f 863 864 869
f 864 867 869
f 867 873 872
f 873 878 886
f 878 928 886
f 928 925 919
f 925 935 938
f 935 939 938
f 939 934 944
f 934 932 945
f 932 924 931
f 924 914 910
f 914 918 923
f 918 927 923
f 927 906 923
f 696 695 673
f 673 639 674
f 612 668 637
f 668 691 637
f 691 848 847
f 848 844 847
f 847 843 846
f 846 660 847
f 660 633 691
f 633 636 637
f 527 496 526
f 636 612 637
f 680 716 821
f 716 717 761
f 761 778 822
f 822 821 777
f 674 696 673
f 522 518 516
f 518 524 519
f 493 440 439
f 439 492 493
f 519 516 518
f 906 895 915
f 895 830 855
f 830 828 835
f 828 824 781
f 824 786 781
f 786 780 781
f 780 841 781
f 841 779 840
f 840 805 851
f 805 834 851
f 834 804 836
f 804 823 836
f 823 782 806
f 806 807 829
f 807 831 829
f 831 808 862
f 862 866 861
f 866 871 861
f 871 863 869
f 869 867 872
f 872 873 886
f 886 928 916
f 928 919 912
f 919 925 938
f 938 939 943
f 939 944 943
f 944 934 945
f 945 932 942
f 932 931 942
f 931 924 922
f 924 910 922
f 910 914 911
f 914 923 911
f 923 906 915
f 637 691 633
f 691 847 660
f 821 716 777
f 716 761 777
f 761 822 777
f 915 895 894
f 895 855 884
f 855 830 852
f 830 835 852
f 835 828 857
f 828 781 857
f 781 841 857
f 841 840 876
f 840 851 880
f 851 834 887
f 834 836 887
f 836 823 853
f 823 806 853
f 806 829 853
f 829 831 856
f 831 862 861
f 861 871 896
f 871 869 877
f 869 872 877
f 872 886 885
f 886 916 885
f 916 928 912
f 912 919 913
f 919 938 936
f 938 943 936
f 943 944 940
f 944 945 941
f 945 942 941
f 942 931 941
f 931 922 933
f 922 910 909
f 910 911 876
f 911 923 915
f 915 894 893
f 894 895 884
f 884 855 852
f 852 835 859
f 835 857 858
f 857 841 881
f 841 876 881
f 876 840 880
f 880 851 879
f 851 887 879
f 887 836 892
f 836 853 892
f 853 829 854
f 829 856 854
f 856 831 890
f 831 861 905
f 861 896 905
f 896 871 877
f 877 872 885
f 885 916 896
f 916 912 904
f 912 913 903
f 913 919 908
f 919 936 920
f 936 943 940
f 940 944 941
f 941 931 933
f 933 922 921
f 922 909 921
f 909 910 880
f 910 876 880
f 876 911 900
f 911 915 900
f 915 893 900
f 893 894 889
f 894 884 889
f 884 852 889
f 852 859 883
f 859 835 858
f 858 857 881
f 881 876 900
f 880 879 909
f 879 887 908
f 887 892 908
f 892 853 903
f 853 854 860
f 854 856 890
f 890 831 905
f 905 896 916
f 896 877 885
f 916 904 905
f 904 912 888
f 912 903 888
f 903 913 892
f 913 908 892
f 908 919 920
f 920 936 937
f 936 940 937
f 940 941 933
f 933 921 937
f 921 909 908
f 900 893 882
f 893 889 883
f 889 852 883
f 883 859 870
f 859 858 870
f 858 881 882
f 881 900 882
f 909 879 908
f 903 853 860
f 860 854 888
f 854 890 888
f 890 905 888
f 905 904 888
f 888 903 860
f 908 920 921
f 920 937 921
f 937 940 933
f 882 893 883
f 883 870 882
f 870 858 882

