# https://github.com/mikedh/trimesh
v -0.49609375 -0.14453125 -0.23046875
v -0.49609375 -0.13671875 -0.23046875
v -0.49609375 -0.13671875 -0.16015625
v -0.49609375 -0.13671875 -0.12890625
v -0.49609375 -0.12890625 -0.23046875
v -0.49609375 -0.12890625 -0.16015625
v -0.49609375 -0.12890625 -0.12890625
v -0.48828125 -0.13671875 -0.08984375
v -0.48828125 -0.12890625 -0.08984375
v -0.35546875 -0.14453125 -0.26953125
v -0.35546875 -0.13671875 -0.26953125
v -0.35546875 -0.12890625 -0.26953125
v -0.35546875 -0.12109375 -0.26953125
v -0.34765625 -0.16015625 -0.16015625
v -0.34765625 -0.15234375 -0.07421875
v -0.34765625 -0.11328125 -0.16015625
v -0.34765625 -0.11328125 -0.07421875
v -0.33984375 -0.15234375 -0.01171875
v -0.33984375 -0.12890625 -0.01171875
v -0.33984375 -0.11328125 -0.01171875
v -0.30078125 -0.15234375 -0.14453125
v -0.30078125 -0.15234375 -0.05859375
v -0.30078125 -0.15234375 0.00390625
v -0.30078125 -0.14453125 -0.26171875
v -0.30078125 -0.13671875 -0.26171875
v -0.30078125 -0.12890625 -0.26171875
v -0.30078125 -0.12890625 0.10546875
v -0.30078125 -0.12109375 -0.26171875
v -0.30078125 -0.11328125 -0.14453125
v -0.30078125 -0.11328125 -0.05859375
v -0.30078125 -0.11328125 0.00390625
v -0.30078125 -0.11328125 0.10546875
v -0.29296875 -0.17578125 0.12109375
v -0.29296875 -0.16015625 -0.27734375
v -0.29296875 -0.15234375 -0.27734375
v -0.29296875 -0.14453125 0.12109375
v -0.29296875 -0.12890625 -0.27734375
v -0.29296875 -0.12890625 0.01953125
v -0.29296875 -0.11328125 -0.27734375
v -0.29296875 -0.11328125 0.01953125
v -0.29296875 -0.10546875 -0.26171875
v -0.29296875 -0.09765625 -0.05859375
v -0.29296875 -0.08984375 -0.05859375
v -0.29296875 -0.08984375 0.00390625
v -0.28515625 -0.16015625 -0.28515625
v -0.28515625 -0.16015625 -0.26171875
v -0.28515625 -0.15234375 -0.28515625
v -0.28515625 -0.15234375 -0.26171875
v -0.28515625 -0.12890625 -0.28515625
v -0.28515625 -0.12890625 0.01953125
v -0.28515625 -0.12109375 -0.28515625
v -0.28515625 -0.12109375 -0.26171875
v -0.28515625 -0.11328125 0.12109375
v -0.28515625 -0.10546875 0.13671875
v -0.28515625 -0.09765625 -0.14453125
v -0.28515625 -0.08984375 -0.05859375
v -0.28515625 -0.08984375 0.00390625
v -0.28515625 -0.08203125 -0.05859375
v -0.28515625 -0.08203125 0.00390625
v -0.27734375 -0.16015625 -0.26953125
v -0.27734375 -0.16015625 -0.26171875
v -0.27734375 -0.16015625 0.16796875
v -0.27734375 -0.15234375 -0.26953125
v -0.27734375 -0.14453125 -0.26953125
v -0.27734375 -0.14453125 0.16796875
v -0.27734375 -0.12890625 -0.26953125
v -0.27734375 -0.12109375 -0.26953125
v -0.27734375 -0.08984375 0.11328125
v -0.26953125 -0.12890625 0.18359375
v -0.26953125 -0.08984375 0.11328125
v -0.26953125 -0.08203125 0.11328125
v -0.26953125 -0.04296875 0.00390625
v -0.26171875 -0.22265625 -0.06640625
v -0.26171875 -0.22265625 0.01953125
v -0.26171875 -0.19921875 -0.14453125
v -0.26171875 -0.15234375 0.12109375
v -0.26171875 -0.14453125 -0.30078125
v -0.26171875 -0.14453125 0.12109375
v -0.26171875 -0.13671875 -0.30078125
v -0.26171875 -0.12890625 -0.30078125
v -0.26171875 -0.12109375 -0.30078125
v -0.26171875 -0.10546875 -0.30078125
v -0.26171875 -0.08984375 -0.28515625
v -0.26171875 -0.08203125 0.12109375
v -0.26171875 -0.07421875 -0.28515625
v -0.25390625 -0.21484375 0.10546875
v -0.25390625 -0.13671875 -0.26953125
v -0.25390625 -0.12890625 -0.26953125
v -0.25390625 -0.12109375 -0.26953125
v -0.25390625 -0.09765625 -0.26953125
v -0.25390625 -0.06640625 -0.24609375
v -0.25390625 -0.04296875 -0.06640625
v -0.24609375 -0.19140625 0.14453125
v -0.24609375 -0.13671875 0.12109375
v -0.24609375 -0.10546875 -0.29296875
v -0.24609375 -0.05859375 -0.19921875
v -0.24609375 -0.04296875 0.12109375
v -0.23046875 -0.18359375 0.10546875
v -0.22265625 -0.08984375 -0.26953125
v -0.21484375 -0.10546875 -0.28515625
v -0.21484375 -0.07421875 -0.28515625
v -0.21484375 -0.06640625 -0.28515625
v -0.20703125 -0.08203125 -0.26171875
v -0.20703125 -0.06640625 -0.19921875
v -0.20703125 -0.05859375 -0.24609375
v -0.19921875 -0.19921875 0.14453125
v -0.19921875 -0.13671875 -0.26171875
v -0.19921875 -0.12890625 -0.26171875
v -0.19921875 -0.12109375 -0.26171875
v -0.19140625 -0.18359375 0.11328125
v -0.19140625 -0.14453125 -0.28515625
v -0.19140625 -0.10546875 -0.28515625
v -0.19140625 -0.08203125 -0.23046875
v -0.18359375 -0.21484375 0.10546875
v -0.18359375 -0.12890625 -0.26953125
v -0.18359375 -0.07421875 -0.28515625
v -0.18359375 -0.05078125 0.12109375
v -0.17578125 -0.22265625 -0.05078125
v -0.17578125 -0.22265625 0.01953125
v -0.17578125 -0.16015625 -0.24609375
v -0.17578125 -0.13671875 0.12109375
v -0.17578125 -0.05859375 -0.39453125
v -0.17578125 0.05078125 -0.00390625
v -0.16796875 -0.16015625 -0.25390625
v -0.16796875 -0.16015625 0.17578125
v -0.16796875 -0.15234375 0.13671875
v -0.16796875 -0.14453125 0.13671875
v -0.16796875 -0.13671875 -0.30859375
v -0.16796875 -0.12890625 -0.30859375
v -0.16796875 -0.12109375 -0.30859375
v -0.16796875 -0.08203125 0.12109375
v -0.16796875 -0.06640625 -0.39453125
v -0.16796875 -0.06640625 -0.25390625
v -0.16796875 -0.05078125 -0.42578125
v -0.16796875 0.05078125 -0.06640625
v -0.16015625 -0.19921875 -0.12890625
v -0.16015625 -0.16015625 -0.25390625
v -0.16015625 -0.08984375 0.11328125
v -0.16015625 -0.08203125 0.11328125
v -0.16015625 -0.07421875 0.12109375
v -0.16015625 -0.05859375 -0.42578125
v -0.16015625 -0.05859375 -0.38671875
v -0.16015625 -0.05078125 -0.38671875
v -0.16015625 -0.04296875 -0.41796875
v -0.15234375 -0.14453125 -0.26953125
v -0.15234375 -0.12890625 -0.26953125
v -0.15234375 -0.12890625 0.18359375
v -0.15234375 -0.12109375 -0.26953125
v -0.15234375 -0.11328125 0.17578125
v -0.15234375 -0.10546875 -0.26953125
v -0.15234375 -0.05859375 0.16015625
v -0.15234375 -0.05859375 0.22265625
v -0.15234375 -0.05859375 0.35546875
v -0.15234375 -0.05859375 0.36328125
v -0.15234375 -0.05078125 -0.41796875
v -0.15234375 -0.05078125 0.07421875
v -0.15234375 0.05078125 0.12109375
v -0.14453125 -0.17578125 0.12109375
v -0.14453125 -0.14453125 -0.28515625
v -0.14453125 -0.14453125 0.12109375
v -0.14453125 -0.12890625 -0.28515625
v -0.14453125 -0.12109375 -0.28515625
v -0.14453125 -0.10546875 -0.28515625
v -0.14453125 -0.10546875 0.14453125
v -0.14453125 -0.09765625 -0.14453125
v -0.14453125 -0.09765625 -0.09765625
v -0.14453125 -0.09765625 -0.06640625
v -0.14453125 -0.09765625 -0.05859375
v -0.14453125 -0.09765625 0.00390625
v -0.14453125 -0.09765625 0.12109375
v -0.14453125 -0.08984375 -0.05859375
v -0.14453125 -0.08984375 0.00390625
v -0.14453125 -0.08984375 0.10546875
v -0.14453125 -0.08984375 0.12109375
v -0.14453125 -0.05078125 0.16015625
v -0.14453125 -0.05078125 0.38671875
v -0.14453125 -0.04296875 0.16015625
v -0.14453125 -0.04296875 0.36328125
v -0.14453125 0.21484375 -0.30859375
v -0.13671875 -0.14453125 -0.27734375
v -0.13671875 -0.12109375 -0.27734375
v -0.13671875 -0.11328125 -0.27734375
v -0.13671875 -0.10546875 -0.27734375
v -0.13671875 -0.09765625 -0.14453125
v -0.13671875 -0.09765625 -0.06640625
v -0.13671875 -0.09765625 0.00390625
v -0.13671875 -0.05078125 -0.05859375
v -0.13671875 -0.05078125 0.16015625
v -0.13671875 0.05859375 -0.06640625
v -0.13671875 0.23046875 -0.30859375
v -0.12890625 -0.15234375 -0.16015625
v -0.12890625 -0.13671875 0.00390625
v -0.12890625 -0.12890625 -0.16015625
v -0.12890625 -0.12890625 0.00390625
v -0.12890625 -0.12890625 0.11328125
v -0.12890625 -0.12109375 -0.16015625
v -0.12890625 -0.11328125 0.00390625
v -0.12890625 -0.11328125 0.11328125
v -0.12890625 -0.11328125 0.16015625
v -0.12890625 -0.10546875 -0.14453125
v -0.12890625 -0.09765625 -0.06640625
v -0.12890625 -0.09765625 0.00390625
v -0.12890625 -0.05078125 -0.15234375
v -0.12890625 -0.05078125 -0.12109375
v -0.12890625 -0.03515625 -0.05859375
v -0.12890625 -0.02734375 0.19140625
v -0.12890625 -0.01953125 0.19921875
v -0.12890625 0.05859375 -0.06640625
v -0.12890625 0.05859375 -0.00390625
v -0.12890625 0.20703125 -0.28515625
v -0.12890625 0.21484375 -0.32421875
v -0.12890625 0.21484375 -0.28515625
v -0.12890625 0.22265625 -0.32421875
v -0.12890625 0.23046875 -0.32421875
v -0.12109375 -0.13671875 -0.07421875
v -0.12109375 -0.12890625 -0.07421875
v -0.12109375 -0.11328125 -0.07421875
v -0.12109375 -0.08203125 0.12890625
v -0.12109375 -0.08203125 0.16015625
v -0.12109375 -0.05078125 -0.18359375
v -0.12109375 -0.03515625 -0.15234375
v -0.12109375 -0.03515625 -0.12109375
v -0.12109375 -0.00390625 -0.06640625
v -0.12109375 -0.00390625 0.11328125
v -0.12109375 -0.00390625 0.33984375
v -0.12109375 0.05078125 0.11328125
v -0.12109375 0.21484375 -0.27734375
v -0.12109375 0.22265625 -0.31640625
v -0.11328125 -0.11328125 0.16015625
v -0.11328125 -0.11328125 0.20703125
v -0.11328125 -0.11328125 0.35546875
v -0.11328125 -0.11328125 0.36328125
v -0.11328125 -0.10546875 0.35546875
v -0.11328125 -0.08203125 0.16015625
v -0.11328125 -0.07421875 -0.05859375
v -0.11328125 -0.05078125 0.44140625
v -0.11328125 -0.03515625 -0.18359375
v -0.11328125 -0.00390625 0.33984375
v -0.11328125 -0.00390625 0.37109375
v -0.11328125 0.00390625 0.21484375
v -0.11328125 0.00390625 0.33203125
v -0.11328125 0.01171875 0.33203125
v -0.11328125 0.01953125 -0.15234375
v -0.11328125 0.01953125 -0.06640625
v -0.11328125 0.06640625 -0.00390625
v -0.11328125 0.21484375 -0.32421875
v -0.11328125 0.21484375 -0.27734375
v -0.11328125 0.22265625 -0.31640625
v -0.10546875 -0.11328125 0.26953125
v -0.10546875 -0.10546875 0.26953125
v -0.10546875 -0.09765625 0.16015625
v -0.10546875 -0.09765625 0.35546875
v -0.10546875 -0.08984375 0.16015625
v -0.10546875 -0.08984375 0.36328125
v -0.10546875 -0.07421875 -0.12109375
v -0.10546875 -0.07421875 0.00390625
v -0.10546875 -0.00390625 -0.18359375
v -0.10546875 -0.00390625 -0.15234375
v -0.10546875 -0.00390625 -0.12109375
v -0.10546875 0.01953125 -0.18359375
v -0.10546875 0.04296875 -0.15234375
v -0.10546875 0.04296875 -0.06640625
v -0.10546875 0.06640625 0.08203125
v -0.10546875 0.08203125 -0.00390625
v -0.09765625 -0.12890625 0.22265625
v -0.09765625 -0.11328125 -0.16015625
v -0.09765625 -0.09765625 0.12890625
v -0.09765625 -0.02734375 0.42578125
v -0.09765625 -0.01171875 0.20703125
v -0.09765625 -0.01171875 0.40234375
v -0.09765625 -0.00390625 -0.24609375
v -0.09765625 -0.00390625 0.12890625
v -0.09765625 0.00390625 0.26953125
v -0.09765625 0.01171875 0.32421875
v -0.09765625 0.01953125 -0.24609375
v -0.09765625 0.01953125 -0.15234375
v -0.09765625 0.01953125 -0.12109375
v -0.09765625 0.04296875 -0.18359375
v -0.09765625 0.04296875 -0.15234375
v -0.09765625 0.04296875 -0.12109375
v -0.09765625 0.06640625 -0.15234375
v -0.09765625 0.06640625 -0.06640625
v -0.09765625 0.08203125 0.08203125
v -0.08984375 -0.12890625 0.18359375
v -0.08984375 -0.12890625 0.28515625
v -0.08984375 -0.12109375 0.36328125
v -0.08984375 -0.12109375 0.37109375
v -0.08984375 -0.09765625 -0.11328125
v -0.08984375 -0.09765625 -0.07421875
v -0.08984375 -0.09765625 0.00390625
v -0.08984375 -0.05078125 0.46484375
v -0.08984375 -0.03515625 -0.24609375
v -0.08984375 -0.00390625 0.18359375
v -0.08984375 0.04296875 -0.24609375
v -0.08984375 0.06640625 -0.24609375
v -0.08984375 0.06640625 -0.18359375
v -0.08984375 0.06640625 -0.14453125
v -0.08984375 0.06640625 -0.12109375
v -0.08984375 0.08203125 -0.12109375
v -0.08984375 0.08203125 -0.06640625
v -0.08984375 0.08203125 0.12890625
v -0.08984375 0.08984375 -0.18359375
v -0.08984375 0.08984375 -0.15234375
v -0.08203125 -0.18359375 0.00390625
v -0.08203125 -0.18359375 0.12890625
v -0.08203125 -0.17578125 0.16015625
v -0.08203125 -0.15234375 0.26953125
v -0.08203125 -0.13671875 0.37109375
v -0.08203125 -0.12109375 0.39453125
v -0.08203125 -0.05078125 -0.24609375
v -0.08203125 -0.05078125 0.46484375
v -0.08203125 0.00390625 0.26953125
v -0.08203125 0.00390625 0.35546875
v -0.08203125 0.00390625 0.36328125
v -0.08203125 0.01171875 0.32421875
v -0.08203125 0.01953125 -0.28515625
v -0.08203125 0.04296875 -0.28515625
v -0.08203125 0.06640625 -0.28515625
v -0.08203125 0.06640625 0.16796875
v -0.08203125 0.08203125 -0.14453125
v -0.08203125 0.08984375 -0.24609375
v -0.08203125 0.10546875 -0.12109375
v -0.08203125 0.10546875 -0.06640625
v -0.08203125 0.10546875 -0.00390625
v -0.08203125 0.10546875 0.08203125
v -0.08203125 0.10546875 0.12890625
v -0.08203125 0.11328125 -0.15234375
v -0.08203125 0.11328125 -0.12109375
v -0.08203125 0.11328125 -0.06640625
v -0.08203125 0.11328125 -0.00390625
v -0.08203125 0.11328125 0.08203125
v -0.08203125 0.11328125 0.12890625
v -0.08203125 0.16015625 -0.13671875
v -0.08203125 0.16796875 -0.13671875
v -0.07421875 -0.18359375 -0.12109375
v -0.07421875 -0.08203125 -0.25390625
v -0.07421875 -0.05859375 0.44921875
v -0.07421875 -0.05078125 0.44140625
v -0.07421875 -0.04296875 0.44921875
v -0.07421875 -0.03515625 0.45703125
v -0.07421875 -0.01171875 -0.31640625
v -0.07421875 -0.00390625 -0.28515625
v -0.07421875 -0.00390625 0.18359375
v -0.07421875 0.00390625 -0.31640625
v -0.07421875 0.01953125 -0.31640625
v -0.07421875 0.01953125 -0.28515625
v -0.07421875 0.04296875 -0.28515625
v -0.07421875 0.10546875 -0.14453125
v -0.07421875 0.10546875 0.15234375
v -0.07421875 0.11328125 -0.24609375
v -0.07421875 0.11328125 -0.18359375
v -0.07421875 0.11328125 -0.14453125
v -0.07421875 0.11328125 -0.12109375
v -0.07421875 0.11328125 0.08203125
v -0.07421875 0.11328125 0.15234375
v -0.06640625 -0.09765625 0.44140625
v -0.06640625 -0.08203125 0.45703125
v -0.06640625 -0.07421875 0.44921875
v -0.06640625 -0.07421875 0.45703125
v -0.06640625 -0.00390625 -0.41796875
v -0.06640625 -0.00390625 -0.28515625
v -0.06640625 -0.00390625 -0.27734375
v -0.06640625 0.00390625 -0.41796875
v -0.06640625 0.00390625 0.34765625
v -0.06640625 0.01171875 0.35546875
v -0.06640625 0.01953125 -0.41796875
v -0.06640625 0.01953125 -0.28515625
v -0.06640625 0.01953125 -0.27734375
v -0.06640625 0.04296875 -0.31640625
v -0.06640625 0.04296875 -0.28515625
v -0.06640625 0.04296875 -0.27734375
v -0.06640625 0.06640625 -0.28515625
v -0.06640625 0.06640625 -0.27734375
v -0.06640625 0.06640625 0.18359375
v -0.06640625 0.07421875 -0.29296875
v -0.06640625 0.10546875 0.16796875
v -0.06640625 0.11328125 -0.24609375
v -0.05859375 -0.12890625 -0.16015625
v -0.05859375 -0.11328125 -0.14453125
v -0.05859375 -0.00390625 -0.28515625
v -0.05859375 0.01953125 -0.28515625
v -0.05859375 0.04296875 -0.28515625
v -0.05859375 0.05078125 -0.41796875
v -0.05859375 0.05859375 -0.28515625
v -0.05859375 0.06640625 -0.31640625
v -0.05859375 0.06640625 0.25390625
v -0.05859375 0.06640625 0.26953125
v -0.05859375 0.06640625 0.28515625
v -0.05859375 0.07421875 -0.29296875
v -0.05859375 0.08984375 -0.28515625
v -0.05859375 0.09765625 0.18359375
v -0.05078125 -0.08203125 -0.27734375
v -0.05078125 -0.00390625 -0.28515625
v -0.05078125 0.05859375 -0.28515625
v -0.05078125 0.06640625 -0.28515625
v -0.05078125 0.06640625 0.18359375
v -0.05078125 0.08984375 0.26171875
v -0.05078125 0.11328125 -0.13671875
v -0.05078125 0.11328125 -0.00390625
v -0.05078125 0.11328125 0.08203125
v -0.05078125 0.11328125 0.09765625
v -0.05078125 0.13671875 -0.00390625
v -0.05078125 0.13671875 0.08203125
v -0.05078125 0.13671875 0.09765625
v -0.04296875 -0.09765625 -0.28515625
v -0.04296875 -0.08203125 -0.28515625
v -0.04296875 -0.00390625 -0.43359375
v -0.04296875 0.05859375 -0.43359375
v -0.04296875 0.06640625 0.27734375
v -0.04296875 0.07421875 0.26953125
v -0.04296875 0.07421875 0.28515625
v -0.04296875 0.08203125 -0.41796875
v -0.04296875 0.08203125 0.25390625
v -0.04296875 0.08203125 0.26953125
v -0.04296875 0.08984375 0.18359375
v -0.04296875 0.08984375 0.24609375
v -0.04296875 0.11328125 -0.13671875
v -0.04296875 0.11328125 -0.08984375
v -0.04296875 0.13671875 -0.13671875
v -0.04296875 0.13671875 -0.08984375
v -0.04296875 0.14453125 -0.13671875
v -0.04296875 0.14453125 -0.08984375
v -0.04296875 0.14453125 -0.00390625
v -0.04296875 0.14453125 0.08203125
v -0.04296875 0.14453125 0.08984375
v -0.03515625 -0.07421875 -0.28515625
v -0.03515625 -0.05859375 -0.43359375
v -0.03515625 -0.00390625 -0.43359375
v -0.03515625 0.08203125 -0.41796875
v -0.03515625 0.11328125 -0.23828125
v -0.03515625 0.12109375 -0.35546875
v -0.03515625 0.14453125 -0.23828125
v -0.02734375 0.05078125 -0.43359375
v -0.02734375 0.11328125 -0.42578125
v -0.02734375 0.11328125 -0.23828125
v -0.02734375 0.13671875 -0.23828125
v -0.02734375 0.14453125 -0.23828125
v -0.01953125 -0.08203125 0.45703125
v -0.01953125 -0.07421875 0.44921875
v -0.01953125 -0.07421875 0.45703125
v -0.01953125 -0.05859375 0.44140625
v -0.01953125 -0.05078125 -0.43359375
v -0.01953125 -0.05078125 0.44140625
v -0.01953125 -0.05078125 0.45703125
v -0.01953125 -0.05078125 0.46484375
v -0.01953125 -0.04296875 0.44921875
v -0.01953125 -0.03515625 0.45703125
v -0.01953125 -0.00390625 -0.46484375
v -0.01953125 0.04296875 -0.46484375
v -0.01953125 0.11328125 -0.28515625
v -0.01953125 0.13671875 -0.27734375
v -0.01953125 0.14453125 -0.27734375
v -0.01171875 -0.09765625 -0.27734375
v -0.01171875 -0.08203125 -0.27734375
v -0.01171875 -0.03515625 -0.46484375
v -0.01171875 -0.02734375 -0.42578125
v -0.01171875 -0.00390625 -0.42578125
v -0.01171875 0.03515625 -0.42578125
v -0.00390625 -0.12890625 -0.15234375
v -0.00390625 -0.11328125 -0.13671875
v -0.00390625 -0.05078125 -0.43359375
v -0.00390625 -0.05078125 0.46484375
v -0.00390625 -0.03515625 -0.46484375
v -0.00390625 -0.02734375 -0.42578125
v -0.00390625 -0.00390625 -0.42578125
v -0.00390625 0.00390625 0.33984375
v -0.00390625 0.00390625 0.36328125
v -0.00390625 0.01171875 0.35546875
v -0.00390625 0.03515625 -0.42578125
v -0.00390625 0.06640625 0.27734375
v -0.00390625 0.07421875 0.26953125
v -0.00390625 0.08203125 0.25390625
v -0.00390625 0.08203125 0.26953125
v -0.00390625 0.08984375 0.18359375
v -0.00390625 0.08984375 0.24609375
v -0.00390625 0.08984375 0.26171875
v -0.00390625 0.09765625 0.18359375
v -0.00390625 0.11328125 0.09765625
v -0.00390625 0.13671875 0.09765625
v -0.00390625 0.14453125 -0.27734375
v -0.00390625 0.14453125 -0.23828125
v -0.00390625 0.14453125 -0.13671875
v -0.00390625 0.14453125 -0.08984375
v -0.00390625 0.14453125 -0.00390625
v -0.00390625 0.14453125 0.08203125
v -0.00390625 0.14453125 0.08984375
v 0.00390625 -0.18359375 -0.12109375
v 0.00390625 -0.18359375 0.00390625
v 0.00390625 -0.18359375 0.12890625
v 0.00390625 -0.17578125 0.16015625
v 0.00390625 -0.15234375 0.26953125
v 0.00390625 -0.13671875 0.37109375
v 0.00390625 -0.12890625 -0.15234375
v 0.00390625 -0.12109375 0.39453125
v 0.00390625 -0.11328125 -0.13671875
v 0.00390625 -0.09765625 -0.27734375
v 0.00390625 -0.09765625 0.44140625
v 0.00390625 -0.08203125 -0.27734375
v 0.00390625 -0.07421875 -0.28515625
v 0.00390625 -0.07421875 -0.27734375
v 0.00390625 -0.05859375 -0.43359375
v 0.00390625 -0.05078125 0.46484375
v 0.00390625 -0.01953125 0.43359375
v 0.00390625 -0.01171875 0.41015625
v 0.00390625 0.04296875 -0.46484375
v 0.00390625 0.05078125 -0.43359375
v 0.00390625 0.05859375 -0.43359375
v 0.00390625 0.05859375 -0.28515625
v 0.00390625 0.06640625 -0.31640625
v 0.00390625 0.06640625 -0.28515625
v 0.00390625 0.06640625 -0.27734375
v 0.00390625 0.08203125 -0.41796875
v 0.00390625 0.10546875 0.16796875
v 0.00390625 0.11328125 -0.42578125
v 0.00390625 0.11328125 -0.28515625
v 0.00390625 0.11328125 0.15234375
v 0.00390625 0.12109375 -0.35546875
v 0.00390625 0.13671875 -0.27734375
v 0.01171875 -0.18359375 -0.12109375
v 0.01171875 -0.08203125 0.45703125
v 0.01171875 -0.07421875 0.45703125
v 0.01171875 -0.05859375 0.44140625
v 0.01171875 -0.05078125 0.44140625
v 0.01171875 -0.05078125 0.45703125
v 0.01171875 -0.04296875 0.44921875
v 0.01171875 -0.03515625 -0.46484375
v 0.01171875 -0.03515625 0.45703125
v 0.01171875 -0.02734375 -0.42578125
v 0.01171875 -0.00390625 -0.42578125
v 0.01171875 0.03515625 -0.42578125
v 0.01953125 -0.07421875 0.44921875
v 0.01953125 -0.05078125 -0.43359375
v 0.01953125 -0.00390625 -0.46484375
v 0.01953125 0.04296875 -0.46484375
v 0.01953125 0.11328125 -0.28515625
v 0.01953125 0.13671875 -0.27734375
v 0.01953125 0.14453125 -0.27734375
v 0.02734375 0.08984375 0.18359375
v 0.02734375 0.11328125 -0.42578125
v 0.02734375 0.11328125 -0.23828125
v 0.02734375 0.12109375 -0.35546875
v 0.02734375 0.13671875 -0.23828125
v 0.02734375 0.14453125 -0.27734375
v 0.02734375 0.14453125 -0.23828125
v 0.03515625 -0.09765625 -0.28515625
v 0.03515625 -0.08203125 -0.27734375
v 0.03515625 -0.05859375 -0.43359375
v 0.03515625 -0.00390625 -0.43359375
v 0.03515625 0.05078125 -0.43359375
v 0.03515625 0.06640625 0.18359375
v 0.03515625 0.06640625 0.27734375
v 0.03515625 0.07421875 0.26953125
v 0.03515625 0.07421875 0.28515625
v 0.03515625 0.08203125 0.25390625
v 0.03515625 0.08203125 0.26953125
v 0.03515625 0.08984375 0.24609375
v 0.03515625 0.11328125 -0.23828125
v 0.03515625 0.14453125 -0.23828125
v 0.03515625 0.14453125 0.00390625
v 0.03515625 0.14453125 0.08203125
v 0.03515625 0.14453125 0.08984375
v 0.04296875 -0.09765625 -0.28515625
v 0.04296875 0.05859375 -0.43359375
v 0.04296875 0.06640625 0.25390625
v 0.04296875 0.06640625 0.26953125
v 0.04296875 0.06640625 0.28515625
v 0.04296875 0.08203125 -0.41796875
v 0.04296875 0.08984375 0.26171875
v 0.04296875 0.09765625 0.18359375
v 0.04296875 0.11328125 -0.13671875
v 0.04296875 0.11328125 -0.08984375
v 0.04296875 0.11328125 0.00390625
v 0.04296875 0.11328125 0.08203125
v 0.04296875 0.11328125 0.09765625
v 0.04296875 0.13671875 -0.13671875
v 0.04296875 0.13671875 -0.08984375
v 0.04296875 0.13671875 0.00390625
v 0.04296875 0.13671875 0.08203125
v 0.04296875 0.13671875 0.09765625
v 0.04296875 0.14453125 -0.13671875
v 0.04296875 0.14453125 -0.08984375
v 0.05078125 -0.09765625 0.44140625
v 0.05078125 -0.08203125 -0.27734375
v 0.05078125 -0.08203125 0.45703125
v 0.05078125 -0.07421875 -0.28515625
v 0.05078125 -0.07421875 0.44921875
v 0.05078125 -0.07421875 0.45703125
v 0.05078125 -0.00390625 -0.43359375
v 0.05078125 0.00390625 0.34765625
v 0.05078125 0.01171875 0.35546875
v 0.05078125 0.05859375 -0.28515625
v 0.05078125 0.06640625 -0.28515625
v 0.05078125 0.06640625 0.18359375
v 0.05078125 0.08203125 -0.41796875
v 0.05859375 -0.12890625 -0.16015625
v 0.05859375 -0.11328125 -0.14453125
v 0.05859375 -0.08203125 -0.28515625
v 0.05859375 -0.05859375 0.44921875
v 0.05859375 -0.05078125 0.44140625
v 0.05859375 -0.04296875 0.44921875
v 0.05859375 -0.03515625 0.45703125
v 0.05859375 -0.00390625 -0.28515625
v 0.05859375 -0.00390625 0.18359375
v 0.05859375 0.00390625 0.26953125
v 0.05859375 0.00390625 0.36328125
v 0.05859375 0.01171875 0.32421875
v 0.05859375 0.04296875 -0.28515625
v 0.05859375 0.05078125 -0.41796875
v 0.05859375 0.05859375 -0.28515625
v 0.05859375 0.06640625 -0.31640625
v 0.05859375 0.07421875 -0.29296875
v 0.05859375 0.08984375 -0.28515625
v 0.05859375 0.10546875 0.16796875
v 0.06640625 -0.13671875 0.37109375
v 0.06640625 -0.12109375 0.39453125
v 0.06640625 -0.05078125 0.46484375
v 0.06640625 -0.00390625 -0.41796875
v 0.06640625 -0.00390625 -0.28515625
v 0.06640625 -0.00390625 -0.27734375
v 0.06640625 0.00390625 -0.41796875
v 0.06640625 0.00390625 0.35546875
v 0.06640625 0.01953125 -0.41796875
v 0.06640625 0.01953125 -0.28515625
v 0.06640625 0.01953125 -0.27734375
v 0.06640625 0.04296875 -0.28515625
v 0.06640625 0.04296875 -0.27734375
v 0.06640625 0.06640625 -0.28515625
v 0.06640625 0.06640625 -0.27734375
v 0.06640625 0.07421875 -0.29296875
v 0.06640625 0.10546875 0.15234375
v 0.06640625 0.11328125 -0.24609375
v 0.06640625 0.11328125 0.15234375
v 0.07421875 -0.18359375 -0.12109375
v 0.07421875 -0.18359375 0.12890625
v 0.07421875 -0.17578125 0.16015625
v 0.07421875 -0.15234375 0.26953125
v 0.07421875 -0.12109375 0.36328125
v 0.07421875 -0.12109375 0.37109375
v 0.07421875 -0.08203125 -0.25390625
v 0.07421875 -0.05078125 0.46484375
v 0.07421875 -0.02734375 0.42578125
v 0.07421875 -0.01171875 0.40234375
v 0.07421875 -0.00390625 -0.28515625
v 0.07421875 -0.00390625 0.18359375
v 0.07421875 0.00390625 0.26953125
v 0.07421875 0.01171875 0.32421875
v 0.07421875 0.01953125 -0.31640625
v 0.07421875 0.01953125 -0.28515625
v 0.07421875 0.04296875 -0.31640625
v 0.07421875 0.04296875 -0.28515625
v 0.07421875 0.06640625 -0.28515625
v 0.07421875 0.06640625 0.16796875
v 0.07421875 0.08984375 -0.24609375
v 0.07421875 0.10546875 -0.13671875
v 0.07421875 0.10546875 -0.06640625
v 0.07421875 0.10546875 0.00390625
v 0.07421875 0.10546875 0.08203125
v 0.07421875 0.10546875 0.12890625
v 0.07421875 0.11328125 -0.18359375
v 0.07421875 0.11328125 -0.12109375
v 0.07421875 0.11328125 -0.06640625
v 0.07421875 0.11328125 0.00390625
v 0.07421875 0.11328125 0.08203125
v 0.07421875 0.11328125 0.12890625
v 0.07421875 0.16015625 -0.13671875
v 0.07421875 0.16796875 -0.13671875
v 0.08203125 -0.18359375 0.00390625
v 0.08203125 -0.12890625 0.28515625
v 0.08203125 -0.09765625 0.35546875
v 0.08203125 -0.05078125 -0.24609375
v 0.08203125 -0.01953125 0.19921875
v 0.08203125 -0.01171875 -0.31640625
v 0.08203125 -0.01171875 0.21484375
v 0.08203125 0.00390625 -0.31640625
v 0.08203125 0.01953125 -0.28515625
v 0.08203125 0.04296875 -0.28515625
v 0.08203125 0.08203125 -0.14453125
v 0.08203125 0.08203125 -0.12109375
v 0.08203125 0.08203125 -0.06640625
v 0.08203125 0.08203125 0.12890625
v 0.08203125 0.08984375 -0.18359375
v 0.08203125 0.10546875 -0.14453125
v 0.08203125 0.10546875 -0.12109375
v 0.08203125 0.11328125 -0.18359375
v 0.08203125 0.11328125 -0.13671875
v 0.08203125 0.11328125 -0.12109375
v 0.08984375 -0.12890625 0.18359375
v 0.08984375 -0.12890625 0.22265625
v 0.08984375 -0.11328125 0.16015625
v 0.08984375 -0.11328125 0.36328125
v 0.08984375 -0.09765625 -0.11328125
v 0.08984375 -0.09765625 -0.07421875
v 0.08984375 -0.09765625 0.00390625
v 0.08984375 -0.09765625 0.12890625
v 0.08984375 -0.09765625 0.35546875
v 0.08984375 -0.03515625 -0.24609375
v 0.08984375 -0.00390625 0.12890625
v 0.08984375 -0.00390625 0.33984375
v 0.08984375 -0.00390625 0.37109375
v 0.08984375 0.00390625 0.32421875
v 0.08984375 0.00390625 0.33203125
v 0.08984375 0.04296875 -0.24609375
v 0.08984375 0.05859375 0.12890625
v 0.08984375 0.06640625 -0.24609375
v 0.08984375 0.06640625 -0.18359375
v 0.08984375 0.06640625 -0.14453125
v 0.08984375 0.06640625 -0.12109375
v 0.08984375 0.08203125 -0.06640625
v 0.08984375 0.08203125 0.00390625
v 0.08984375 0.08203125 0.08203125
v 0.08984375 0.08984375 -0.15234375
v 0.08984375 0.10546875 -0.14453125
v 0.09765625 -0.11328125 -0.16015625
v 0.09765625 -0.10546875 0.26953125
v 0.09765625 -0.08984375 0.16015625
v 0.09765625 -0.08984375 0.36328125
v 0.09765625 -0.05078125 0.44140625
v 0.09765625 -0.01171875 0.20703125
v 0.09765625 -0.00390625 -0.24609375
v 0.09765625 0.01171875 0.32421875
v 0.09765625 0.01953125 -0.24609375
v 0.09765625 0.01953125 -0.15234375
v 0.09765625 0.01953125 -0.12109375
v 0.09765625 0.02734375 0.11328125
v 0.09765625 0.04296875 -0.18359375
v 0.09765625 0.04296875 -0.15234375
v 0.09765625 0.04296875 -0.12109375
v 0.09765625 0.06640625 -0.15234375
v 0.09765625 0.06640625 -0.06640625
v 0.09765625 0.06640625 -0.05859375
v 0.10546875 -0.11328125 0.26953125
v 0.10546875 -0.11328125 0.35546875
v 0.10546875 -0.10546875 0.35546875
v 0.10546875 -0.09765625 0.16015625
v 0.10546875 -0.07421875 -0.12109375
v 0.10546875 -0.07421875 0.00390625
v 0.10546875 -0.00390625 -0.18359375
v 0.10546875 -0.00390625 -0.15234375
v 0.10546875 -0.00390625 -0.12109375
v 0.10546875 -0.00390625 0.33984375
v 0.10546875 0.01953125 -0.18359375
v 0.10546875 0.04296875 -0.15234375
v 0.10546875 0.04296875 -0.06640625
v 0.10546875 0.05859375 0.00390625
v 0.10546875 0.05859375 0.08203125
v 0.11328125 -0.11328125 0.20703125
v 0.11328125 -0.08203125 0.16015625
v 0.11328125 -0.07421875 -0.05859375
v 0.11328125 -0.05078125 -0.18359375
v 0.11328125 -0.05078125 0.38671875
v 0.11328125 -0.03515625 -0.18359375
v 0.11328125 -0.00390625 -0.15234375
v 0.11328125 -0.00390625 0.11328125
v 0.11328125 0.01953125 -0.15234375
v 0.11328125 0.01953125 -0.06640625
v 0.11328125 0.02734375 0.07421875
v 0.11328125 0.05078125 0.07421875
v 0.11328125 0.21484375 -0.27734375
v 0.11328125 0.22265625 -0.31640625
v 0.12109375 -0.16796875 0.00390625
v 0.12109375 -0.11328125 0.00390625
v 0.12109375 -0.10546875 -0.14453125
v 0.12109375 -0.08203125 0.12890625
v 0.12109375 -0.08203125 0.16015625
v 0.12109375 -0.04296875 0.36328125
v 0.12109375 -0.03515625 -0.15234375
v 0.12109375 -0.03515625 -0.12109375
v 0.12109375 -0.02734375 0.19140625
v 0.12109375 -0.01953125 0.19921875
v 0.12109375 -0.00390625 -0.06640625
v 0.12109375 0.05078125 0.12109375
v 0.12109375 0.21484375 -0.32421875
v 0.12109375 0.22265625 -0.31640625
v 0.12109375 0.23046875 -0.32421875
v 0.12890625 -0.16796875 -0.08203125
v 0.12890625 -0.11328125 -0.08203125
v 0.12890625 -0.11328125 0.00390625
v 0.12890625 -0.11328125 0.16015625
v 0.12890625 -0.09765625 0.00390625
v 0.12890625 -0.05859375 0.35546875
v 0.12890625 -0.05859375 0.36328125
v 0.12890625 -0.05078125 -0.15234375
v 0.12890625 -0.05078125 -0.12109375
v 0.12890625 -0.04296875 0.16015625
v 0.12890625 -0.04296875 0.36328125
v 0.12890625 -0.03515625 -0.05859375
v 0.12890625 -0.00390625 0.07421875
v 0.12890625 0.05859375 -0.05859375
v 0.12890625 0.05859375 0.00390625
v 0.12890625 0.20703125 -0.28515625
v 0.12890625 0.21484375 -0.32421875
v 0.12890625 0.21484375 -0.28515625
v 0.12890625 0.21484375 -0.27734375
v 0.12890625 0.22265625 -0.31640625
v 0.13671875 -0.16796875 -0.23828125
v 0.13671875 -0.11328125 -0.23828125
v 0.13671875 -0.11328125 -0.06640625
v 0.13671875 -0.10546875 -0.23828125
v 0.13671875 -0.10546875 -0.16796875
v 0.13671875 -0.09765625 -0.23828125
v 0.13671875 -0.09765625 -0.16015625
v 0.13671875 -0.09765625 -0.06640625
v 0.13671875 -0.09765625 0.00390625
v 0.13671875 -0.08984375 0.00390625
v 0.13671875 -0.05859375 0.16015625
v 0.13671875 -0.05859375 0.36328125
v 0.13671875 -0.05078125 -0.05859375
v 0.13671875 -0.05078125 0.16015625
v 0.13671875 0.21484375 -0.30859375
v 0.13671875 0.23046875 -0.30859375
v 0.14453125 -0.16796875 0.13671875
v 0.14453125 -0.16796875 0.16015625
v 0.14453125 -0.16015625 -0.25390625
v 0.14453125 -0.12109375 0.15234375
v 0.14453125 -0.11328125 -0.25390625
v 0.14453125 -0.11328125 0.13671875
v 0.14453125 -0.10546875 -0.26953125
v 0.14453125 -0.10546875 -0.25390625
v 0.14453125 -0.10546875 0.12890625
v 0.14453125 -0.09765625 -0.05859375
v 0.14453125 -0.08984375 -0.05859375
v 0.14453125 -0.08984375 0.12109375
v 0.14453125 -0.05078125 0.07421875
v 0.14453125 -0.05078125 0.16015625
v 0.15234375 -0.21484375 0.00390625
v 0.15234375 -0.16796875 0.17578125
v 0.15234375 -0.16015625 -0.26953125
v 0.15234375 -0.12890625 0.16796875
v 0.15234375 -0.11328125 -0.26953125
v 0.15234375 -0.10546875 -0.27734375
v 0.15234375 -0.10546875 -0.26953125
v 0.15234375 -0.08984375 0.11328125
v 0.15234375 -0.08203125 0.11328125
v 0.15234375 -0.07421875 0.12109375
v 0.15234375 -0.05859375 0.22265625
v 0.15234375 0.05078125 0.11328125
v 0.15234375 0.05078125 0.12109375
v 0.16015625 -0.21484375 -0.08203125
v 0.16015625 -0.19140625 -0.18359375
v 0.16015625 -0.16796875 0.16015625
v 0.16015625 -0.15234375 -0.27734375
v 0.16015625 -0.15234375 -0.26953125
v 0.16015625 -0.13671875 0.15234375
v 0.16015625 -0.11328125 -0.27734375
v 0.16015625 -0.11328125 -0.26953125
v 0.16015625 -0.10546875 -0.28515625
v 0.16015625 -0.10546875 -0.27734375
v 0.16015625 -0.10546875 -0.26953125
v 0.16015625 -0.08203125 0.12109375
v 0.16015625 -0.05078125 -0.41796875
v 0.16015625 0.05078125 -0.05859375
v 0.16015625 0.05078125 0.00390625
v 0.16796875 -0.19921875 0.13671875
v 0.16796875 -0.13671875 0.12109375
v 0.16796875 -0.05859375 -0.42578125
v 0.16796875 -0.05859375 -0.38671875
v 0.16796875 -0.05078125 -0.38671875
v 0.16796875 -0.04296875 -0.41796875
v 0.17578125 -0.22265625 0.00390625
v 0.17578125 -0.21484375 -0.08203125
v 0.17578125 -0.21484375 0.12109375
v 0.17578125 -0.19921875 0.15234375
v 0.17578125 -0.19140625 -0.17578125
v 0.17578125 -0.19140625 0.13671875
v 0.17578125 -0.16796875 0.12109375
v 0.17578125 -0.13671875 -0.22265625
v 0.17578125 -0.11328125 -0.22265625
v 0.17578125 -0.11328125 -0.21484375
v 0.17578125 -0.10546875 -0.21484375
v 0.17578125 -0.09765625 -0.22265625
v 0.17578125 -0.06640625 -0.39453125
v 0.17578125 -0.05859375 -0.39453125
v 0.17578125 -0.05078125 -0.42578125
v 0.18359375 -0.22265625 0.10546875
v 0.18359375 -0.17578125 0.10546875
v 0.18359375 -0.05078125 0.12109375
v 0.19921875 -0.05859375 -0.24609375
v 0.19921875 -0.05859375 -0.22265625
v 0.21484375 -0.19140625 0.13671875
v 0.21484375 -0.18359375 0.10546875
v 0.21484375 -0.07421875 -0.28515625
v 0.21484375 -0.06640625 -0.27734375
v 0.22265625 -0.19921875 0.15234375
v 0.22265625 -0.19140625 0.13671875
v 0.22265625 -0.18359375 0.10546875
v 0.22265625 -0.09765625 -0.22265625
v 0.22265625 -0.08203125 -0.26953125
v 0.23046875 -0.20703125 0.13671875
v 0.23046875 -0.09765625 -0.22265625
v 0.23828125 -0.22265625 0.00390625
v 0.23828125 -0.22265625 0.10546875
v 0.23828125 -0.21484375 0.12109375
v 0.23828125 -0.08203125 -0.26953125
v 0.23828125 -0.07421875 -0.28515625
v 0.23828125 -0.06640625 -0.27734375
v 0.23828125 -0.05859375 -0.24609375
v 0.23828125 -0.05859375 -0.22265625
v 0.24609375 -0.21484375 -0.07421875
v 0.24609375 -0.21484375 0.00390625
v 0.24609375 -0.19140625 -0.17578125
v 0.24609375 -0.16796875 0.12890625
v 0.24609375 -0.05078125 0.12890625
v 0.25390625 -0.21484375 -0.07421875
v 0.25390625 -0.19140625 -0.18359375
v 0.25390625 -0.16796875 0.12109375
v 0.25390625 -0.16796875 0.16015625
v 0.25390625 -0.16796875 0.18359375
v 0.25390625 -0.16015625 0.12890625
v 0.25390625 -0.16015625 0.16015625
v 0.25390625 -0.16015625 0.18359375
v 0.25390625 -0.15234375 0.12890625
v 0.25390625 -0.15234375 0.16015625
v 0.25390625 -0.13671875 0.12109375
v 0.25390625 -0.13671875 0.12890625
v 0.25390625 -0.13671875 0.15234375
v 0.25390625 -0.13671875 0.16015625
v 0.25390625 -0.05078125 0.12109375
v 0.25390625 -0.04296875 -0.05859375
v 0.25390625 -0.04296875 0.11328125
v 0.26171875 -0.16796875 0.16796875
v 0.26171875 -0.15234375 0.18359375
v 0.26171875 -0.13671875 -0.22265625
v 0.26171875 -0.13671875 0.18359375
v 0.26171875 -0.12890625 0.15234375
v 0.26171875 -0.12890625 0.17578125
v 0.26171875 -0.11328125 -0.22265625
v 0.26171875 -0.10546875 -0.22265625
v 0.26171875 -0.08203125 0.12109375
v 0.26171875 -0.08203125 0.12890625
v 0.26171875 -0.04296875 0.00390625
v 0.26953125 -0.16796875 0.15234375
v 0.26953125 -0.16015625 0.16796875
v 0.26953125 -0.15234375 -0.26953125
v 0.26953125 -0.12109375 0.16796875
v 0.26953125 -0.11328125 -0.26953125
v 0.26953125 -0.10546875 -0.26953125
v 0.26953125 -0.08203125 0.11328125
v 0.27734375 -0.16796875 0.12890625
v 0.27734375 -0.16015625 -0.28515625
v 0.27734375 -0.16015625 0.15234375
v 0.27734375 -0.14453125 0.16796875
v 0.27734375 -0.13671875 0.16796875
v 0.27734375 -0.11328125 -0.28515625
v 0.27734375 -0.11328125 0.13671875
v 0.27734375 -0.11328125 0.15234375
v 0.27734375 -0.10546875 -0.28515625
v 0.27734375 -0.09765625 -0.16796875
v 0.27734375 -0.08984375 -0.16015625
v 0.27734375 -0.08984375 0.11328125
v 0.28515625 -0.16796875 -0.23828125
v 0.28515625 -0.16015625 -0.27734375
v 0.28515625 -0.16015625 -0.25390625
v 0.28515625 -0.16015625 0.12890625
v 0.28515625 -0.14453125 0.12890625
v 0.28515625 -0.14453125 0.15234375
v 0.28515625 -0.13671875 0.12890625
v 0.28515625 -0.13671875 0.15234375
v 0.28515625 -0.11328125 -0.27734375
v 0.28515625 -0.10546875 -0.27734375
v 0.28515625 -0.10546875 -0.26171875
v 0.28515625 -0.10546875 0.12109375
v 0.28515625 -0.08984375 -0.05859375
v 0.28515625 -0.08984375 0.00390625
v 0.28515625 -0.08984375 0.12890625
v 0.28515625 -0.08203125 -0.05859375
v 0.28515625 -0.08203125 0.00390625
v 0.29296875 -0.16796875 -0.08203125
v 0.29296875 -0.16796875 0.00390625
v 0.29296875 -0.14453125 -0.26171875
v 0.29296875 -0.13671875 -0.26171875
v 0.29296875 -0.11328125 -0.26171875
v 0.29296875 -0.10546875 -0.05859375
v 0.29296875 -0.09765625 -0.26171875
v 0.29296875 -0.08984375 -0.05859375
v 0.29296875 -0.08984375 0.00390625
v 0.30078125 -0.15234375 -0.08203125
v 0.30078125 -0.14453125 0.01171875
v 0.30078125 -0.10546875 -0.08203125
v 0.30078125 -0.10546875 0.01171875
v 0.30859375 -0.15234375 0.01171875
v 0.30859375 -0.13671875 0.01171875
v 0.30859375 -0.10546875 0.01171875
v 0.45703125 -0.13671875 -0.23828125
v 0.46484375 -0.13671875 -0.05859375
v 0.49609375 -0.13671875 -0.21484375
v 0.49609375 -0.13671875 -0.08984375
v 0.49609375 -0.12109375 -0.21484375
v 0.49609375 -0.12109375 -0.08984375
f 73 74 23
f 73 23 22
f 23 74 33
f 74 73 118
f 73 22 75
f 22 23 18
f 23 33 36
f 33 74 86
f 74 118 119
f 118 73 136
f 73 75 136
f 75 22 21
f 22 18 15
f 18 23 19
f 23 36 50
f 36 33 65
f 33 86 62
f 86 74 119
f 119 118 215
f 118 136 191
f 136 75 137
f 75 21 46
f 21 22 15
f 15 18 8
f 18 19 8
f 19 23 50
f 50 36 27
f 36 65 69
f 65 33 62
f 62 86 93
f 86 119 114
f 119 215 192
f 215 118 191
f 191 136 180
f 136 137 180
f 137 75 46
f 46 21 24
f 21 15 14
f 15 8 4
f 8 19 9
f 19 50 20
f 50 27 38
f 27 36 69
f 69 65 94
f 65 62 78
f 62 93 76
f 93 86 114
f 114 119 192
f 192 215 216
f 215 191 193
f 191 180 181
f 180 137 159
f 137 46 124
f 46 24 25
f 24 21 14
f 14 15 4
f 4 8 9
f 9 19 20
f 20 50 31
f 50 38 31
f 38 27 32
f 27 69 32
f 69 94 121
f 94 65 78
f 78 62 76
f 76 93 98
f 93 114 106
f 114 192 158
f 192 216 194
f 216 215 193
f 193 191 181
f 181 180 159
f 159 137 124
f 124 46 60
f 46 25 48
f 25 24 11
f 24 14 10
f 14 4 3
f 4 9 7
f 9 20 7
f 20 31 17
f 31 38 40
f 38 32 40
f 32 69 54
f 69 121 149
f 121 94 110
f 94 78 76
f 76 98 94
f 98 93 106
f 106 114 158
f 158 192 194
f 194 216 217
f 216 193 196
f 193 181 182
f 181 159 161
f 159 124 145
f 124 60 120
f 60 46 34
f 46 48 34
f 48 25 26
f 25 11 12
f 11 24 10
f 10 14 1
f 14 3 1
f 3 4 7
f 7 20 17
f 17 31 30
f 31 40 53
f 40 32 53
f 32 54 53
f 54 69 149
f 149 121 127
f 121 110 126
f 110 94 98
f 98 106 110
f 106 158 125
f 158 194 160
f 194 217 197
f 217 216 196
f 196 193 182
f 182 181 161
f 161 159 145
f 145 124 120
f 120 60 61
f 60 34 45
f 34 48 35
f 48 26 52
f 26 25 12
f 12 11 5
f 11 10 2
f 10 1 2
f 1 3 2
f 3 7 6
f 7 17 6
f 17 30 16
f 30 31 44
f 31 53 68
f 53 54 164
f 54 149 164
f 149 127 147
f 127 121 126
f 126 110 125
f 110 106 125
f 125 158 160
f 160 194 197
f 197 217 201
f 217 196 184
f 196 182 183
f 182 161 162
f 161 145 146
f 145 120 128
f 120 61 111
f 61 60 45
f 45 34 35
f 35 48 52
f 52 26 28
f 26 12 13
f 12 5 13
f 5 11 2
f 2 3 6
f 6 17 16
f 16 30 29
f 30 44 43
f 44 31 68
f 68 53 174
f 53 164 170
f 164 149 198
f 149 147 195
f 147 127 126
f 126 125 147
f 125 160 147
f 160 197 195
f 197 201 202
f 201 217 184
f 184 196 183
f 183 182 162
f 162 161 146
f 146 145 128
f 128 120 111
f 111 61 77
f 61 45 63
f 45 35 47
f 35 52 37
f 52 28 41
f 28 26 13
f 13 5 16
f 5 2 6
f 6 16 5
f 16 29 28
f 29 30 42
f 30 43 42
f 43 44 56
f 44 68 57
f 68 174 173
f 174 53 170
f 170 164 198
f 198 149 195
f 195 147 160
f 195 197 202
f 202 201 186
f 201 184 185
f 184 183 163
f 183 162 163
f 162 146 148
f 146 128 129
f 128 111 115
f 111 77 107
f 77 61 63
f 63 45 47
f 47 35 37
f 37 52 41
f 41 28 55
f 28 13 16
f 28 29 55
f 29 42 55
f 42 43 185
f 43 56 168
f 56 44 57
f 57 68 70
f 68 173 70
f 173 174 202
f 174 170 202
f 170 198 202
f 198 195 202
f 202 186 173
f 186 201 185
f 185 184 165
f 184 163 165
f 163 162 148
f 148 146 129
f 129 128 115
f 115 111 107
f 107 77 87
f 77 63 79
f 63 47 64
f 47 37 49
f 37 41 39
f 41 55 96
f 55 42 167
f 42 185 167
f 185 43 168
f 168 56 171
f 56 57 58
f 57 70 59
f 70 173 138
f 173 186 138
f 186 185 169
f 185 165 167
f 165 163 113
f 163 148 150
f 148 129 130
f 129 115 130
f 115 107 108
f 107 87 108
f 87 77 79
f 79 63 64
f 64 47 49
f 49 37 39
f 39 41 91
f 41 96 91
f 96 55 166
f 55 167 166
f 185 168 169
f 168 171 172
f 171 56 58
f 58 57 59
f 59 70 71
f 70 138 71
f 138 186 169
f 165 113 104
f 113 163 150
f 150 148 130
f 130 115 112
f 115 108 109
f 108 87 88
f 87 79 88
f 79 64 66
f 64 49 66
f 49 39 51
f 39 91 85
f 91 96 104
f 96 166 104
f 169 168 172
f 172 171 256
f 171 58 235
f 58 59 92
f 59 71 72
f 71 138 139
f 138 169 139
f 165 104 166
f 104 113 105
f 113 150 103
f 150 130 103
f 130 112 103
f 112 115 109
f 109 108 88
f 88 79 80
f 79 66 80
f 66 49 51
f 51 39 85
f 85 91 105
f 91 104 105
f 169 172 139
f 172 256 218
f 256 171 235
f 235 58 92
f 92 59 72
f 72 71 97
f 71 139 84
f 105 113 133
f 113 103 133
f 103 112 99
f 112 109 100
f 109 88 89
f 88 80 81
f 80 66 67
f 66 51 67
f 51 85 83
f 85 105 102
f 139 172 218
f 218 256 267
f 256 235 290
f 235 92 187
f 92 72 135
f 72 97 123
f 97 71 84
f 84 139 131
f 105 133 102
f 133 103 116
f 103 99 101
f 99 112 100
f 100 109 89
f 89 88 82
f 88 81 82
f 81 80 67
f 67 51 83
f 83 85 102
f 139 218 140
f 218 267 251
f 267 256 290
f 290 235 289
f 235 187 204
f 187 92 135
f 135 72 123
f 123 97 157
f 97 84 131
f 131 139 140
f 102 133 116
f 116 103 101
f 101 99 90
f 99 100 95
f 100 89 95
f 89 82 95
f 82 81 90
f 81 67 90
f 67 83 90
f 83 102 101
f 140 218 117
f 218 251 234
f 251 267 284
f 267 290 305
f 290 289 304
f 289 235 255
f 235 204 255
f 204 187 222
f 187 135 205
f 135 123 189
f 123 157 209
f 157 97 117
f 97 131 117
f 131 140 117
f 102 116 101
f 101 90 83
f 90 99 95
f 95 82 90
f 117 218 156
f 218 234 188
f 234 251 199
f 251 284 265
f 284 267 306
f 267 305 306
f 305 290 304
f 304 289 335
f 289 255 288
f 255 204 200
f 204 222 203
f 222 187 205
f 205 135 189
f 189 123 209
f 209 157 226
f 157 117 226
f 117 156 226
f 156 218 272
f 218 188 272
f 188 234 219
f 234 199 219
f 199 251 265
f 265 284 285
f 284 306 307
f 306 305 489
f 305 304 488
f 304 335 487
f 335 289 288
f 288 255 200
f 200 204 203
f 203 222 221
f 222 205 259
f 205 189 223
f 189 209 208
f 209 226 245
f 226 156 263
f 156 272 224
f 272 188 206
f 188 219 175
f 219 199 152
f 199 265 230
f 265 285 250
f 285 284 307
f 307 306 490
f 306 489 490
f 489 305 488
f 488 304 487
f 487 335 460
f 335 288 200
f 200 203 220
f 203 221 237
f 221 222 259
f 259 205 223
f 223 189 208
f 208 209 245
f 245 226 263
f 263 156 224
f 224 272 319
f 272 206 319
f 206 188 175
f 175 219 152
f 152 199 230
f 230 265 250
f 250 285 252
f 285 307 308
f 307 490 491
f 490 489 635
f 489 488 634
f 488 487 667
f 487 460 519
f 460 335 379
f 335 200 266
f 200 220 266
f 220 203 237
f 237 221 257
f 221 259 258
f 259 223 277
f 223 208 244
f 208 245 282
f 245 263 264
f 263 224 283
f 224 319 301
f 319 206 293
f 206 175 207
f 175 152 207
f 152 230 153
f 230 250 249
f 250 252 231
f 252 285 286
f 285 308 286
f 308 307 491
f 491 490 636
f 490 635 636
f 635 489 634
f 634 488 667
f 667 487 633
f 519 460 495
f 460 379 459
f 379 335 266
f 266 220 310
f 220 237 292
f 237 257 271
f 257 221 258
f 258 259 277
f 277 223 244
f 244 208 282
f 282 245 264
f 264 263 283
f 283 224 301
f 301 319 349
f 319 293 374
f 293 206 269
f 206 207 269
f 207 152 225
f 152 153 225
f 153 230 249
f 249 250 231
f 231 252 233
f 252 286 287
f 286 308 287
f 308 491 492
f 491 636 614
f 636 635 687
f 635 634 694
f 634 667 693
f 667 633 692
f 519 495 633
f 495 460 454
f 460 459 453
f 459 379 378
f 379 266 336
f 266 310 336
f 310 220 292
f 292 237 271
f 271 257 275
f 257 258 260
f 258 277 276
f 277 244 280
f 282 208 300
f 282 264 300
f 264 283 324
f 283 301 325
f 301 349 326
f 349 319 376
f 319 374 376
f 374 293 396
f 293 269 273
f 269 207 240
f 207 225 240
f 225 153 154
f 153 249 231
f 231 233 154
f 233 252 154
f 252 287 178
f 287 308 309
f 308 492 309
f 492 491 614
f 614 636 668
f 636 687 668
f 687 635 694
f 694 634 693
f 693 667 692
f 692 633 691
f 633 495 596
f 495 454 498
f 454 460 453
f 453 459 378
f 378 379 392
f 379 336 392
f 336 310 271
f 310 292 271
f 271 275 336
f 275 257 260
f 260 258 243
f 258 276 243
f 276 277 280
f 280 244 262
f 282 300 299
f 300 264 323
f 264 324 323
f 324 283 325
f 325 301 326
f 326 349 355
f 349 376 355
f 376 374 391
f 374 396 415
f 396 293 343
f 293 273 343
f 273 269 241
f 269 240 241
f 240 225 242
f 225 154 178
f 154 153 231
f 154 252 178
f 178 287 176
f 287 309 176
f 309 492 494
f 492 614 615
f 614 668 637
f 668 687 688
f 687 694 734
f 694 693 736
f 693 692 748
f 692 691 735
f 691 633 762
f 633 596 713
f 596 495 493
f 495 498 496
f 498 454 500
f 454 453 405
f 453 378 405
f 378 392 405
f 392 336 342
f 336 275 342
f 275 260 294
f 260 243 278
f 243 276 279
f 276 280 279
f 280 262 298
f 282 299 298
f 299 300 322
f 300 323 322
f 323 324 330
f 324 325 330
f 325 326 331
f 326 355 332
f 355 376 513
f 376 391 477
f 391 374 415
f 415 396 416
f 396 343 386
f 343 273 312
f 273 241 274
f 241 240 242
f 242 225 241
f 225 178 274
f 178 176 238
f 176 309 236
f 309 494 356
f 494 492 615
f 615 614 638
f 614 637 638
f 637 668 669
f 668 688 714
f 688 687 734
f 734 694 763
f 694 736 763
f 736 693 748
f 748 692 735
f 735 691 762
f 762 633 713
f 713 596 639
f 596 493 595
f 493 495 496
f 496 498 545
f 498 500 546
f 500 454 406
f 454 405 406
f 405 392 362
f 392 342 362
f 342 275 294
f 294 260 278
f 278 243 261
f 243 279 261
f 279 280 298
f 298 262 282
f 298 299 297
f 299 322 320
f 322 323 328
f 323 330 329
f 330 325 331
f 331 326 332
f 332 355 354
f 355 513 516
f 513 376 477
f 477 391 474
f 391 415 474
f 415 416 413
f 416 396 386
f 386 343 312
f 312 273 274
f 274 241 225
f 225 274 238
f 274 178 238
f 238 176 239
f 176 236 239
f 236 309 356
f 356 494 497
f 494 615 582
f 615 638 750
f 638 637 695
f 637 669 695
f 669 668 714
f 714 688 746
f 688 734 778
f 734 763 747
f 763 736 804
f 736 748 821
f 748 735 783
f 735 762 783
f 762 713 749
f 713 639 670
f 639 596 583
f 596 595 583
f 595 493 496
f 496 545 595
f 545 498 546
f 546 500 597
f 500 406 499
f 406 405 361
f 405 362 361
f 362 342 316
f 342 294 316
f 294 278 295
f 278 261 296
f 261 279 297
f 279 298 297
f 297 299 320
f 320 322 348
f 322 328 348
f 328 323 329
f 329 330 399
f 330 331 354
f 331 332 354
f 354 355 401
f 355 516 401
f 516 513 632
f 513 477 613
f 477 474 569
f 474 415 472
f 415 413 472
f 413 416 475
f 416 386 397
f 386 312 387
f 312 274 315
f 274 238 239
f 239 236 268
f 236 356 291
f 356 497 357
f 497 494 582
f 582 615 717
f 615 750 717
f 750 638 765
f 638 695 765
f 695 669 714
f 714 746 731
f 746 688 778
f 778 734 747
f 747 763 808
f 763 804 833
f 804 736 821
f 821 748 965
f 748 783 807
f 783 762 782
f 762 749 782
f 749 713 670
f 670 639 719
f 639 583 643
f 583 595 562
f 595 545 562
f 545 546 562
f 546 597 562
f 597 500 499
f 499 406 426
f 406 361 380
f 361 362 368
f 362 316 368
f 316 294 295
f 295 278 296
f 296 261 281
f 261 297 281
f 297 320 281
f 320 348 303
f 348 328 352
f 328 329 353
f 329 399 418
f 399 330 400
f 330 354 400
f 354 401 400
f 401 516 478
f 516 632 574
f 632 513 613
f 613 477 569
f 569 474 538
f 474 477 475
f 474 472 538
f 472 413 475
f 475 416 476
f 416 397 476
f 397 386 387
f 387 312 315
f 315 274 239
f 239 268 270
f 268 236 340
f 236 291 340
f 291 356 357
f 357 497 438
f 497 582 584
f 582 717 640
f 717 750 699
f 750 765 698
f 765 695 781
f 695 714 732
f 714 731 732
f 731 746 780
f 746 778 835
f 778 747 764
f 747 808 764
f 808 763 697
f 763 833 834
f 833 804 803
f 804 821 820
f 821 965 962
f 965 748 918
f 748 807 918
f 807 783 767
f 783 782 767
f 782 749 751
f 749 670 696
f 670 719 696
f 719 639 721
f 639 643 721
f 643 583 619
f 583 562 619
f 562 597 643
f 597 499 585
f 499 426 501
f 426 406 380
f 380 361 346
f 361 368 346
f 368 316 317
f 316 295 317
f 295 296 321
f 296 281 302
f 281 320 303
f 303 348 327
f 348 352 327
f 352 328 353
f 353 329 418
f 418 399 420
f 399 400 402
f 400 401 403
f 401 478 404
f 478 516 574
f 574 632 663
f 632 613 630
f 613 569 593
f 569 538 593
f 474 475 472
f 538 472 554
f 472 475 554
f 475 476 556
f 476 397 473
f 397 387 388
f 387 315 313
f 315 239 313
f 239 270 313
f 270 268 503
f 268 340 447
f 340 291 339
f 291 357 311
f 357 438 359
f 438 497 462
f 497 584 520
f 584 582 640
f 640 717 601
f 717 699 641
f 699 750 698
f 698 765 720
f 765 781 740
f 781 695 733
f 695 732 733
f 732 731 780
f 780 746 835
f 835 778 764
f 764 808 824
f 808 697 768
f 697 763 823
f 763 834 876
f 834 833 849
f 833 803 832
f 803 804 820
f 820 821 962
f 962 965 963
f 965 918 966
f 918 807 851
f 807 767 786
f 767 782 766
f 782 751 766
f 751 749 696
f 696 719 751
f 719 721 737
f 721 643 702
f 643 619 675
f 619 562 643
f 643 597 618
f 597 585 618
f 585 499 501
f 501 426 427
f 426 380 393
f 380 346 367
f 346 368 371
f 368 317 371
f 317 295 321
f 321 296 302
f 302 281 303
f 303 327 351
f 327 352 398
f 352 353 398
f 353 418 417
f 418 420 419
f 420 399 402
f 402 400 403
f 403 401 404
f 404 478 479
f 478 574 579
f 574 663 573
f 663 632 664
f 632 630 658
f 630 613 652
f 613 593 652
f 593 538 550
f 538 554 556
f 554 475 556
f 556 476 568
f 476 473 568
f 473 397 414
f 397 388 414
f 388 387 313
f 313 270 314
f 270 503 504
f 503 268 447
f 447 340 446
f 340 339 446
f 339 291 311
f 311 357 359
f 359 438 440
f 438 462 445
f 462 497 520
f 520 584 587
f 584 640 616
f 640 601 600
f 601 717 641
f 641 699 642
f 699 698 646
f 698 720 701
f 720 765 740
f 740 781 780
f 781 733 732
f 732 780 781
f 780 835 740
f 835 764 824
f 824 808 768
f 768 697 652
f 697 823 753
f 823 763 876
f 876 834 849
f 849 833 928
f 833 832 949
f 832 803 779
f 803 820 802
f 820 962 974
f 962 963 975
f 963 965 966
f 966 918 930
f 918 851 930
f 851 807 786
f 786 767 739
f 767 766 739
f 766 751 737
f 751 719 737
f 737 721 741
f 721 702 741
f 702 643 675
f 675 619 624
f 619 643 624
f 643 618 648
f 618 585 602
f 585 501 547
f 501 427 461
f 427 426 341
f 426 393 341
f 393 380 367
f 367 346 347
f 346 371 347
f 371 317 318
f 317 321 318
f 321 302 350
f 302 303 351
f 351 327 398
f 398 353 417
f 417 418 419
f 419 420 421
f 420 402 422
f 402 403 423
f 403 404 424
f 404 479 425
f 479 478 579
f 579 574 578
f 574 573 578
f 573 663 662
f 663 664 658
f 664 632 658
f 658 630 680
f 630 652 680
f 652 593 644
f 593 550 644
f 550 538 556
f 556 568 564
f 568 473 555
f 473 414 471
f 414 388 411
f 388 313 314
f 314 270 504
f 504 503 642
f 503 447 445
f 447 446 444
f 446 339 443
f 339 311 338
f 311 359 337
f 359 440 358
f 440 438 445
f 445 462 503
f 462 520 502
f 520 587 521
f 587 584 616
f 616 640 600
f 600 601 525
f 601 641 527
f 641 642 503
f 642 699 621
f 699 646 606
f 646 698 701
f 701 720 700
f 720 740 700
f 740 835 769
f 835 824 769
f 824 768 769
f 768 652 644
f 652 697 680
f 697 753 703
f 753 823 787
f 823 876 757
f 876 849 902
f 849 928 929
f 928 833 949
f 949 832 822
f 832 779 822
f 779 803 802
f 802 820 974
f 974 962 975
f 975 963 964
f 963 966 949
f 966 930 937
f 930 851 852
f 851 786 788
f 786 739 770
f 739 766 738
f 766 737 752
f 737 741 752
f 741 702 725
f 702 675 704
f 675 624 676
f 624 643 648
f 648 618 602
f 602 585 672
f 585 547 672
f 547 501 461
f 461 427 442
f 427 341 360
f 341 393 344
f 393 367 381
f 367 347 370
f 347 371 373
f 371 318 373
f 318 321 350
f 350 302 351
f 351 398 430
f 398 417 435
f 417 419 436
f 419 421 432
f 419 421 437
f 421 420 422
f 422 402 423
f 423 403 424
f 424 404 425
f 425 479 486
f 479 579 561
f 579 578 560
f 578 573 577
f 573 662 572
f 662 663 657
f 663 658 657
f 658 680 657
f 644 550 603
f 550 556 564
f 564 568 565
f 568 555 566
f 555 473 471
f 471 414 410
f 414 411 410
f 411 388 314
f 314 504 467
f 504 642 605
f 445 447 444
f 444 446 441
f 446 443 441
f 443 339 338
f 338 311 337
f 337 359 358
f 358 440 439
f 440 445 444
f 503 462 502
f 502 520 521
f 521 587 586
f 587 616 598
f 616 600 599
f 600 525 523
f 525 601 527
f 527 641 503
f 642 621 605
f 621 699 606
f 606 646 604
f 646 701 700
f 700 740 718
f 740 769 718
f 769 768 718
f 768 644 671
f 680 697 703
f 703 753 724
f 753 787 756
f 757 876 771
f 876 902 837
f 902 849 929
f 929 928 917
f 928 949 937
f 949 822 964
f 822 779 777
f 779 802 797
f 802 974 972
f 974 975 979
f 975 964 961
f 964 963 949
f 949 966 937
f 937 930 919
f 930 852 919
f 852 851 788
f 788 786 770
f 770 739 723
f 739 738 723
f 738 766 752
f 752 741 754
f 741 725 754
f 725 702 704
f 704 675 676
f 676 624 626
f 624 648 626
f 648 602 623
f 602 672 674
f 672 547 617
f 547 461 532
f 461 442 463
f 442 427 407
f 427 360 363
f 360 341 155
f 341 344 142
f 344 393 381
f 381 367 370
f 370 347 372
f 347 373 372
f 373 318 390
f 318 350 390
f 350 351 377
f 351 430 377
f 430 398 435
f 435 417 436
f 436 419 437
f 419 417 333
f 419 432 333
f 432 421 437
f 421 419 334
f 421 422 483
f 422 423 484
f 423 424 485
f 424 425 486
f 486 479 561
f 561 579 560
f 560 578 559
f 578 577 559
f 577 573 572
f 572 662 661
f 662 657 656
f 657 680 710
f 644 603 645
f 603 550 564
f 564 565 604
f 565 568 566
f 566 555 553
f 555 471 552
f 471 410 470
f 410 411 409
f 411 314 365
f 314 467 365
f 467 504 605
f 444 441 439
f 441 443 338
f 338 337 441
f 337 358 439
f 439 440 444
f 503 502 527
f 502 521 524
f 521 586 531
f 586 587 598
f 598 616 599
f 599 600 523
f 523 525 522
f 525 527 524
f 605 621 566
f 621 606 565
f 606 604 565
f 604 646 645
f 646 700 645
f 700 718 645
f 718 768 671
f 671 644 673
f 680 703 710
f 703 724 745
f 724 753 756
f 757 771 789
f 771 876 837
f 837 902 917
f 902 929 917
f 917 928 919
f 928 937 919
f 964 822 819
f 822 777 819
f 777 779 797
f 797 802 972
f 972 974 979
f 979 975 961
f 961 964 819
f 919 852 836
f 852 788 789
f 788 770 730
f 770 723 755
f 723 738 722
f 738 752 722
f 752 754 722
f 754 725 742
f 725 704 705
f 704 676 653
f 676 626 651
f 626 648 650
f 648 623 625
f 623 602 674
f 674 672 856
f 672 617 850
f 617 547 620
f 547 532 588
f 532 461 463
f 463 442 455
f 442 407 428
f 407 427 363
f 363 360 144
f 360 155 144
f 155 341 142
f 142 344 143
f 344 381 345
f 381 370 382
f 370 372 384
f 372 373 511
f 373 390 395
f 390 350 377
f 377 430 450
f 430 435 450
f 435 436 451
f 436 437 452
f 419 333 334
f 333 432 227
f 432 437 421
f 421 432 246
f 421 483 482
f 483 422 484
f 484 423 485
f 485 424 486
f 486 561 560
f 560 559 485
f 559 577 581
f 577 572 576
f 572 661 571
f 661 662 655
f 662 656 655
f 656 657 710
f 644 645 673
f 645 603 604
f 603 564 604
f 565 566 621
f 566 553 605
f 553 555 552
f 552 471 470
f 470 410 409
f 409 411 365
f 365 467 468
f 467 605 590
f 439 441 337
f 527 502 524
f 524 521 531
f 531 586 598
f 598 599 522
f 599 523 522
f 522 525 524
f 645 718 673
f 718 671 673
f 710 703 745
f 745 724 756
f 757 789 744
f 789 771 836
f 771 837 836
f 837 917 836
f 917 919 836
f 819 777 761
f 777 797 776
f 797 972 978
f 972 979 982
f 979 961 944
f 961 819 816
f 836 852 789
f 789 788 730
f 755 723 727
f 723 722 727
f 722 754 726
f 754 742 726
f 742 725 705
f 705 704 653
f 653 676 651
f 651 626 628
f 626 650 628
f 650 648 625
f 625 623 607
f 623 674 647
f 674 856 857
f 856 672 850
f 850 617 858
f 617 620 858
f 620 547 588
f 588 532 548
f 532 463 526
f 463 455 464
f 455 442 428
f 428 407 408
f 407 363 366
f 363 144 143
f 144 155 134
f 155 142 141
f 142 143 132
f 143 344 363
f 344 345 363
f 345 381 382
f 382 370 384
f 384 372 510
f 372 511 510
f 511 373 510
f 373 395 510
f 395 390 389
f 390 377 431
f 377 450 431
f 450 435 451
f 451 436 452
f 452 437 481
f 334 333 247
f 333 227 247
f 227 432 248
f 432 421 211
f 432 421 481
f 421 246 248
f 246 432 211
f 421 482 481
f 482 483 580
f 483 484 581
f 484 485 559
f 485 486 560
f 559 581 484
f 581 577 576
f 576 572 571
f 571 661 660
f 661 655 686
f 655 656 709
f 656 710 709
f 605 553 590
f 553 552 551
f 552 470 551
f 470 409 466
f 409 365 364
f 365 468 364
f 468 467 590
f 524 531 522
f 531 598 522
f 710 745 709
f 745 756 757
f 757 744 745
f 744 789 730
f 819 761 816
f 761 777 776
f 776 797 978
f 978 972 982
f 982 979 944
f 944 961 816
f 755 727 743
f 727 722 726
f 726 742 706
f 742 705 728
f 705 653 681
f 653 651 631
f 651 628 612
f 628 650 627
f 650 625 627
f 625 607 609
f 607 623 647
f 647 674 620
f 674 857 620
f 857 856 871
f 856 850 855
f 850 858 873
f 858 620 857
f 620 588 622
f 588 548 563
f 548 532 526
f 526 463 464
f 464 455 456
f 455 428 448
f 428 408 433
f 408 407 366
f 366 363 345
f 143 144 122
f 144 134 122
f 134 155 141
f 141 142 132
f 132 143 122
f 345 382 369
f 382 384 369
f 384 510 508
f 510 511 627
f 511 510 628
f 510 395 512
f 395 389 412
f 389 390 375
f 390 431 375
f 431 450 515
f 450 451 518
f 451 452 480
f 452 481 480
f 334 247 212
f 333 247 212
f 247 227 248
f 211 421 179
f 248 246 211
f 481 482 580
f 580 483 581
f 581 576 580
f 576 571 575
f 571 660 570
f 660 661 686
f 686 655 683
f 655 709 708
f 590 553 551
f 551 470 466
f 466 409 364
f 364 468 466
f 468 590 589
f 709 745 744
f 744 730 708
f 816 761 760
f 761 776 775
f 776 978 947
f 978 982 988
f 982 944 956
f 944 816 814
f 743 727 707
f 727 726 707
f 726 706 707
f 706 742 728
f 728 705 681
f 681 653 631
f 631 651 612
f 612 628 592
f 628 627 511
f 627 625 609
f 609 607 649
f 607 647 649
f 647 620 622
f 857 871 872
f 871 856 855
f 855 850 873
f 873 858 872
f 858 857 872
f 622 588 563
f 563 548 549
f 548 526 533
f 526 464 528
f 464 456 457
f 456 455 448
f 448 428 433
f 433 408 507
f 408 366 383
f 366 345 369
f 122 134 132
f 134 141 132
f 369 384 385
f 508 510 609
f 510 627 609
f 628 510 592
f 510 512 592
f 512 395 429
f 395 412 429
f 412 389 375
f 375 431 412
f 431 515 517
f 515 450 518
f 518 451 480
f 480 481 537
f 212 247 228
f 333 212 210
f 247 248 228
f 211 179 214
f 179 421 210
f 248 211 228
f 481 580 558
f 580 576 575
f 575 571 570
f 570 660 685
f 660 686 683
f 683 655 678
f 655 708 679
f 708 709 744
f 590 551 589
f 551 466 589
f 466 468 589
f 708 730 743
f 816 760 811
f 760 761 775
f 775 776 795
f 776 947 799
f 947 978 960
f 978 988 987
f 988 982 981
f 982 956 981
f 956 944 945
f 944 814 945
f 814 816 812
f 743 707 729
f 707 706 678
f 706 728 677
f 728 681 711
f 681 631 684
f 631 612 541
f 612 592 611
f 609 649 610
f 649 647 622
f 872 871 873
f 871 855 873
f 622 563 608
f 563 549 507
f 549 548 533
f 533 526 528
f 528 464 529
f 464 457 465
f 457 456 448
f 448 433 449
f 433 507 506
f 507 408 509
f 408 383 385
f 383 366 369
f 369 385 383
f 385 384 394
f 510 508 394
f 592 512 567
f 512 429 514
f 429 412 434
f 412 431 434
f 431 517 434
f 517 515 541
f 515 518 535
f 518 480 536
f 480 537 536
f 537 481 544
f 212 228 190
f 210 212 190
f 214 179 190
f 179 210 190
f 228 211 213
f 558 580 575
f 580 575 544
f 575 570 542
f 570 685 659
f 685 660 654
f 660 683 654
f 683 678 677
f 678 655 679
f 679 708 729
f 708 743 729
f 816 811 812
f 811 760 825
f 760 775 838
f 775 795 839
f 795 776 796
f 776 799 796
f 799 947 948
f 947 960 973
f 960 978 971
f 978 987 971
f 987 988 986
f 988 981 984
f 981 956 977
f 956 945 957
f 945 814 828
f 814 812 826
f 729 707 678
f 678 706 677
f 677 728 711
f 711 681 684
f 684 631 659
f 631 541 535
f 541 612 629
f 612 611 629
f 611 592 594
f 609 610 591
f 610 649 608
f 649 622 608
f 608 563 610
f 563 507 509
f 507 549 506
f 549 533 534
f 533 528 529
f 529 464 465
f 465 457 458
f 457 448 449
f 449 433 506
f 509 408 385
f 385 394 509
f 394 508 509
f 592 567 594
f 567 512 514
f 514 429 434
f 434 517 514
f 517 541 539
f 541 515 535
f 535 518 536
f 536 537 542
f 537 544 542
f 190 228 214
f 228 213 214
f 558 575 665
f 575 580 666
f 580 558 544
f 580 558 791
f 580 544 543
f 544 575 542
f 542 570 540
f 570 575 665
f 570 659 557
f 659 685 712
f 685 654 712
f 654 683 682
f 683 677 682
f 678 679 729
f 812 811 853
f 811 825 861
f 825 760 838
f 838 775 839
f 839 795 904
f 795 796 815
f 796 799 798
f 799 948 801
f 948 947 973
f 973 960 959
f 960 971 958
f 971 987 970
f 987 986 985
f 986 988 984
f 984 981 977
f 977 956 954
f 956 957 954
f 957 945 934
f 945 828 934
f 828 814 826
f 826 812 862
f 677 711 682
f 711 684 712
f 684 659 712
f 659 631 557
f 631 535 557
f 541 629 594
f 629 611 594
f 591 610 509
f 610 563 509
f 506 549 534
f 534 533 529
f 529 465 530
f 465 458 469
f 458 457 449
f 449 506 505
f 509 508 591
f 594 567 539
f 567 514 539
f 514 517 539
f 539 541 594
f 535 536 540
f 536 542 540
f 558 665 758
f 665 575 666
f 580 791 809
f 791 558 772
f 544 580 772
f 540 570 557
f 712 654 682
f 812 853 862
f 853 811 861
f 861 825 859
f 825 838 860
f 838 839 863
f 839 904 900
f 904 795 950
f 795 815 813
f 815 796 798
f 798 799 801
f 801 948 897
f 948 973 896
f 973 959 895
f 959 960 958
f 958 971 951
f 971 970 951
f 970 987 983
f 987 985 983
f 985 986 980
f 986 984 980
f 984 977 980
f 977 954 953
f 954 957 955
f 957 934 942
f 934 828 843
f 828 826 840
f 826 862 864
f 682 711 712
f 557 535 540
f 506 534 505
f 534 529 530
f 530 465 469
f 469 458 505
f 458 449 505
f 558 758 759
f 758 665 792
f 665 666 793
f 580 809 790
f 809 791 774
f 791 772 759
f 772 558 759
f 772 580 794
f 862 853 883
f 853 861 888
f 861 859 874
f 859 825 860
f 860 838 863
f 863 839 900
f 900 904 898
f 904 950 903
f 950 795 813
f 813 815 829
f 815 798 818
f 798 801 800
f 801 897 878
f 897 948 896
f 896 973 895
f 895 959 946
f 959 958 943
f 958 951 939
f 951 970 969
f 970 983 969
f 983 985 969
f 985 980 976
f 980 977 953
f 953 954 955
f 955 957 942
f 942 934 925
f 934 843 924
f 843 828 840
f 840 826 864
f 864 862 879
f 505 534 530
f 530 469 505
f 759 758 773
f 758 792 773
f 792 665 793
f 793 666 792
f 580 790 792
f 790 809 810
f 809 774 810
f 774 791 794
f 791 759 794
f 862 883 879
f 883 853 888
f 888 861 892
f 861 874 892
f 874 859 891
f 859 860 890
f 860 863 898
f 863 900 898
f 898 904 903
f 903 950 967
f 950 813 952
f 813 829 827
f 829 815 818
f 818 798 800
f 800 801 878
f 878 897 896
f 896 895 882
f 895 946 894
f 946 959 943
f 943 958 939
f 939 951 827
f 951 969 952
f 969 985 976
f 976 980 967
f 980 953 968
f 953 955 940
f 955 942 941
f 942 925 923
f 925 934 915
f 934 924 915
f 924 843 854
f 843 840 865
f 840 864 875
f 864 879 880
f 773 792 810
f 792 790 810
f 810 774 773
f 774 794 773
f 879 883 884
f 883 888 907
f 888 892 920
f 892 874 891
f 891 859 890
f 890 860 898
f 898 903 890
f 903 967 899
f 967 950 976
f 950 952 969
f 952 813 827
f 827 829 844
f 829 818 831
f 818 800 817
f 800 878 877
f 878 896 877
f 896 882 877
f 882 895 894
f 894 946 936
f 946 943 935
f 943 939 933
f 939 827 841
f 827 951 952
f 969 976 950
f 967 980 968
f 968 953 938
f 953 940 938
f 940 955 941
f 941 942 923
f 923 925 915
f 915 924 914
f 924 854 913
f 854 843 865
f 865 840 875
f 875 864 880
f 880 879 884
f 884 883 906
f 883 907 906
f 907 888 920
f 920 892 931
f 892 891 899
f 891 890 899
f 890 903 899
f 899 967 968
f 827 844 841
f 844 829 831
f 831 818 817
f 817 800 877
f 877 882 817
f 882 894 881
f 894 936 893
f 936 946 935
f 935 943 933
f 933 939 842
f 939 841 842
f 968 938 892
f 938 940 931
f 940 941 932
f 941 923 921
f 923 915 916
f 914 924 913
f 913 854 865
f 865 875 905
f 875 880 905
f 880 884 885
f 884 906 901
f 906 907 909
f 907 920 910
f 920 931 932
f 931 892 938
f 892 899 968
f 841 844 845
f 844 831 847
f 831 817 830
f 817 882 881
f 881 894 893
f 893 936 927
f 936 935 926
f 935 933 922
f 933 842 866
f 842 841 845
f 931 940 932
f 932 941 921
f 921 923 916
f 914 913 901
f 913 865 905
f 905 880 885
f 885 884 901
f 901 906 908
f 906 909 908
f 909 907 910
f 910 920 932
f 845 844 847
f 847 831 830
f 830 817 881
f 881 893 887
f 893 927 889
f 927 936 926
f 926 935 922
f 922 933 866
f 866 842 867
f 842 845 867
f 932 921 910
f 921 916 912
f 914 901 908
f 901 913 905
f 905 885 901
f 908 909 911
f 909 910 912
f 845 847 848
f 847 830 846
f 830 881 887
f 887 893 889
f 889 927 870
f 927 926 870
f 926 922 866
f 866 867 926
f 867 845 848
f 910 921 912
f 912 916 914
f 911 909 912
f 846 830 848
f 830 887 848
f 887 889 886
f 870 926 867
f 867 848 868
f 912 914 911
f 848 887 886
f 870 867 868
f 868 848 869
f 848 886 869
f 870 868 869
f 869 886 870
f 229 253 254
f 229 254 232
f 253 229 151
f 229 232 151
f 232 254 178
f 253 151 177
f 151 232 154
f 232 178 154
f 177 151 154
f 154 178 177
f 689 715 805
f 689 805 690
f 805 715 784
f 715 689 716
f 689 690 716
f 690 805 806
f 805 784 806
f 716 690 785
f 690 806 785
f 806 784 785

