# https://github.com/mikedh/trimesh
v -0.34570312 0.34960938 -0.07617188
v -0.34570312 0.34960938 -0.04492188
v -0.34570312 0.35742188 -0.08007812
v -0.34570312 0.35742188 -0.04882812
v -0.34179688 0.34960938 -0.02929688
v -0.34179688 0.35351562 -0.08789062
v -0.33398438 0.32617188 -0.07617188
v -0.33007812 0.32226562 -0.03320312
v -0.33007812 0.32617188 -0.08789062
v -0.32617188 0.31445312 -0.07226562
v -0.32617188 0.32226562 -0.02148438
v -0.32226562 0.31445312 -0.08789062
v -0.32226562 0.31445312 -0.03710938
v -0.31835938 0.31445312 -0.02929688
v -0.31835938 0.33398438 -0.09179688
v -0.31835938 0.35742188 -0.09179688
v -0.31835938 0.36132812 -0.08007812
v -0.31835938 0.36132812 -0.03320312
v -0.31445312 0.34960938 -0.02148438
v -0.31445312 0.35742188 -0.02148438
v -0.31054688 0.28710938 -0.07226562
v -0.31054688 0.28710938 -0.03710938
v -0.31054688 0.31835938 -0.09179688
v -0.30664062 0.29101562 -0.02929688
v -0.30664062 0.31445312 -0.08789062
v -0.30664062 0.32226562 -0.02148438
v -0.30273438 0.27539062 -0.07226562
v -0.30273438 0.28710938 -0.08789062
v -0.30273438 0.31445312 -0.02539062
v -0.29882812 0.27539062 -0.03710938
v -0.29101562 0.27148438 -0.08789062
v -0.28320312 0.27539062 -0.02929688
v -0.27929688 0.25976562 -0.07226562
v -0.27929688 0.31445312 -0.08789062
v -0.27929688 0.31835938 -0.09179688
v -0.27929688 0.33398438 -0.09570312
v -0.27929688 0.35742188 -0.09179688
v -0.27929688 0.36132812 -0.08007812
v -0.27539062 0.25976562 -0.03710938
v -0.27148438 0.26367188 -0.02929688
v -0.27148438 0.36132812 -0.03320312
v -0.26757812 0.31054688 -0.02929688
v -0.26757812 0.31835938 -0.02148438
v -0.26757812 0.34960938 -0.02148438
v -0.26757812 0.35742188 -0.02148438
v -0.25976562 0.25585938 -0.08398438
v -0.25976562 0.25585938 -0.07226562
v -0.25976562 0.25585938 -0.03710938
v -0.25195312 0.25585938 -0.04492188
v -0.25195312 0.27148438 -0.02929688
v -0.24804688 0.25585938 -0.06445312
v -0.24804688 0.25976562 -0.09179688
v -0.24414062 0.25195312 -0.07226562
v -0.24414062 0.25585938 -0.07617188
v -0.24414062 0.25585938 -0.04492188
v -0.24414062 0.26367188 -0.02539062
v -0.23632812 0.25195312 -0.08789062
v -0.23632812 0.25976562 -0.03320312
v -0.23242188 0.24414062 -0.07226562
v -0.23242188 0.24414062 -0.04492188
v -0.23242188 0.25585938 -0.02929688
v -0.22460938 0.31054688 -0.02539062
v -0.22070312 0.24414062 -0.08789062
v -0.22070312 0.24804688 -0.02929688
v -0.22070312 0.31054688 -0.08789062
v -0.22070312 0.31835938 -0.09570312
v -0.22070312 0.33398438 -0.09570312
v -0.22070312 0.35742188 -0.09179688
v -0.22070312 0.36132812 -0.08007812
v -0.20898438 0.29882812 -0.02539062
v -0.20898438 0.31835938 -0.02148438
v -0.20898438 0.34960938 -0.02148438
v -0.20898438 0.35742188 -0.02148438
v -0.20898438 0.36523438 -0.03710938
v -0.20507812 0.23242188 -0.07226562
v -0.20507812 0.23242188 -0.04492188
v -0.20507812 0.23632812 -0.08789062
v -0.20507812 0.23632812 -0.02929688
v -0.20117188 0.29882812 -0.09179688
v -0.20117188 0.30664062 -0.08398438
v -0.19726562 0.28710938 -0.08398438
v -0.19726562 0.29101562 -0.09179688
v -0.19726562 0.31054688 -0.09570312
v -0.19335938 0.28710938 -0.02539062
v -0.18945312 0.28710938 -0.03320312
v -0.18945312 0.29882812 -0.08398438
v -0.18945312 0.30664062 -0.09570312
v -0.18554688 0.28320312 -0.09179688
v -0.18554688 0.28320312 -0.02539062
v -0.18554688 0.29101562 -0.08398438
v -0.18164062 0.29492188 -0.09570312
v -0.17773438 0.28710938 -0.09179688
v -0.16601562 0.23242188 -0.08398438
v -0.16601562 0.23242188 -0.02539062
v -0.16601562 0.26367188 -0.09179688
v -0.16601562 0.29101562 -0.02539062
v -0.16210938 0.23242188 -0.08398438
v -0.16210938 0.23632812 -0.03320312
v -0.16210938 0.33007812 -0.09179688
v -0.16210938 0.35742188 -0.09179688
v -0.16210938 0.36523438 -0.08007812
v -0.15820312 0.23242188 -0.08398438
v -0.15820312 0.23242188 -0.03320312
v -0.15820312 0.23632812 -0.02539062
v -0.15820312 0.25976562 -0.08398438
v -0.15820312 0.27929688 -0.02539062
v -0.15820312 0.29101562 -0.03320312
v -0.15820312 0.29492188 -0.09179688
v -0.15429688 0.27929688 -0.08398438
v -0.15429688 0.27929688 -0.02539062
v -0.15429688 0.29492188 -0.02539062
v -0.15429688 0.29882812 -0.09179688
v -0.15039062 0.26367188 -0.09179688
v -0.15039062 0.31445312 -0.02539062
v -0.15039062 0.34179688 -0.02539062
v -0.15039062 0.35742188 -0.02539062
v -0.15039062 0.36523438 -0.03710938
v -0.12695312 -0.49414062 -0.13085938
v -0.12695312 -0.49414062 0.04101562
v -0.12695312 -0.49023438 -0.13085938
v -0.12695312 -0.49023438 0.04101562
v -0.12695312 -0.40039062 -0.13085938
v -0.12695312 -0.40039062 0.04101562
v -0.12695312 -0.39648438 -0.13085938
v -0.12695312 -0.39648438 0.03710938
v -0.12304688 -0.49804688 -0.13085938
v -0.12304688 -0.49804688 0.03710938
v -0.12304688 -0.39257812 -0.13085938
v -0.11914062 -0.49414062 -0.13476562
v -0.11914062 -0.49414062 0.04492188
v -0.11914062 -0.49023438 -0.13867188
v -0.11914062 -0.40039062 -0.13867188
v -0.11523438 -0.49023438 0.05273438
v -0.11523438 -0.40039062 0.05273438
v -0.11523438 -0.39648438 0.05273438
v -0.11523438 -0.36914062 0.01757812
v -0.11523438 -0.34960938 -0.09179688
v -0.11523438 -0.34960938 0.01757812
v -0.11523438 -0.29882812 0.01757812
v -0.11523438 -0.29492188 0.04101562
v -0.11523438 -0.28320312 0.06054688
v -0.11523438 -0.25585938 0.06445312
v -0.11523438 -0.22460938 -0.09179688
v -0.11523438 -0.22070312 0.01757812
v -0.11523438 -0.22070312 0.06054688
v -0.11523438 -0.20898438 -0.09179688
v -0.11523438 -0.20507812 0.01757812
v -0.11523438 -0.20117188 0.06054688
v -0.11523438 -0.18945312 -0.09179688
v -0.11523438 -0.18554688 0.01757812
v -0.11523438 -0.14257812 -0.09179688
v -0.11523438 -0.14257812 0.01757812
v -0.11523438 -0.09960938 -0.09179688
v -0.11523438 -0.09960938 0.01757812
v -0.11523438 -0.06445312 0.01757812
v -0.11132812 -0.09960938 -0.10742188
v -0.11132812 -0.06445312 -0.09960938
v -0.10742188 -0.38085938 -0.11132812
v -0.10742188 -0.38085938 0.01757812
v -0.10742188 -0.37695312 -0.11132812
v -0.10742188 -0.37695312 0.01757812
v -0.10742188 -0.36914062 -0.11132812
v -0.10742188 -0.34960938 -0.11132812
v -0.10742188 -0.22460938 -0.10742188
v -0.10742188 -0.20898438 -0.10742188
v -0.10742188 -0.18945312 -0.10742188
v -0.10742188 -0.17382812 0.03710938
v -0.10742188 -0.16601562 0.06054688
v -0.10742188 -0.14257812 -0.10742188
v -0.10742188 -0.14257812 0.03710938
v -0.10742188 -0.11914062 0.02539062
v -0.10742188 -0.09960938 0.02539062
v -0.10742188 -0.00976562 -0.08007812
v -0.10742188 0.00585938 -0.08007812
v -0.10742188 0.08789062 -0.08398438
v -0.10742188 0.08789062 0.00585938
v -0.10742188 0.14648438 -0.08007812
v -0.10742188 0.14648438 0.00585938
v -0.10351562 -0.25195312 0.07226562
v -0.10351562 -0.14648438 0.06445312
v -0.10351562 -0.13085938 0.05273438
v -0.10351562 -0.12695312 0.03710938
v -0.10351562 -0.06445312 0.02539062
v -0.10351562 -0.04882812 0.01757812
v -0.10351562 -0.02148438 -0.08007812
v -0.10351562 -0.02148438 0.02148438
v -0.10351562 -0.01367188 0.02148438
v -0.10351562 0.00976562 0.03320312
v -0.10351562 0.05664062 0.03320312
v -0.10351562 0.05664062 0.04492188
v -0.10351562 0.08789062 0.04101562
v -0.10351562 0.08789062 0.04492188
v -0.10351562 0.09179688 0.05273438
v -0.10351562 0.11914062 0.05273438
v -0.10351562 0.15429688 0.00585938
v -0.10351562 0.15820312 -0.08007812
v -0.09570312 -0.24023438 0.06445312
v -0.09570312 -0.20507812 0.07226562
v -0.09570312 -0.17382812 0.06445312
v -0.09570312 -0.16992188 0.06445312
v -0.09570312 -0.16210938 0.06445312
v -0.09570312 -0.04882812 -0.09570312
v -0.09570312 -0.02929688 0.01757812
v -0.09570312 -0.01367188 -0.11914062
v -0.09570312 0.00585938 -0.11914062
v -0.09570312 0.05273438 0.05664062
v -0.09570312 0.08789062 -0.12304688
v -0.09570312 0.14648438 -0.11914062
v -0.09570312 0.14648438 0.05273438
v -0.09570312 0.15429688 0.05273438
v -0.09570312 0.23242188 -0.08398438
v -0.09570312 0.32226562 -0.09179688
v -0.09570312 0.33398438 -0.09179688
v -0.09570312 0.35351562 -0.09179688
v -0.09179688 -0.22070312 0.07226562
v -0.09179688 -0.18554688 0.07617188
v -0.09179688 -0.14648438 0.07226562
v -0.09179688 -0.02148438 -0.11523438
v -0.09179688 0.23242188 -0.03320312
v -0.09179688 0.32226562 -0.09960938
v -0.09179688 0.32226562 -0.02539062
v -0.09179688 0.34179688 -0.09179688
v -0.09179688 0.34179688 -0.02539062
v -0.09179688 0.36523438 -0.03710938
v -0.09179688 0.36914062 -0.08398438
v -0.09179688 0.38476562 -0.08789062
v -0.09179688 0.38867188 -0.03710938
v -0.09179688 0.40820312 -0.09179688
v -0.09179688 0.41210938 -0.04492188
v -0.09179688 0.45117188 -0.08789062
v -0.09179688 0.45117188 -0.04101562
v -0.08789062 -0.23632812 0.07226562
v -0.08789062 -0.22460938 0.06445312
v -0.08789062 -0.22460938 0.07617188
v -0.08789062 -0.21679688 0.07226562
v -0.08789062 -0.13085938 0.06445312
v -0.08789062 -0.11914062 0.04101562
v -0.08789062 -0.04101562 0.01757812
v -0.08789062 0.01367188 0.05664062
v -0.08789062 0.12304688 0.07617188
v -0.08789062 0.15820312 -0.09960938
v -0.08789062 0.16210938 -0.07226562
v -0.08789062 0.23242188 -0.09960938
v -0.08789062 0.23242188 -0.02148438
v -0.08789062 0.23242188 -0.00585938
v -0.08789062 0.32226562 -0.00585938
v -0.08789062 0.36523438 -0.07617188
v -0.08789062 0.36914062 -0.03710938
v -0.08789062 0.47460938 -0.08789062
v -0.08789062 0.47851562 -0.04101562
v -0.08398438 -0.34179688 0.03320312
v -0.08398438 -0.33789062 0.04492188
v -0.08398438 -0.33398438 0.06054688
v -0.08398438 -0.23632812 0.08007812
v -0.08398438 -0.22851562 0.08007812
v -0.08398438 -0.21679688 0.07617188
v -0.08398438 -0.20507812 0.07617188
v -0.08398438 -0.11132812 0.03710938
v -0.08398438 -0.05273438 -0.10742188
v -0.08398438 0.08789062 0.05273438
v -0.08398438 0.09960938 0.06054688
v -0.08398438 0.10742188 0.06445312
v -0.08398438 0.15429688 -0.11523438
v -0.08398438 0.16601562 -0.10742188
v -0.08398438 0.23242188 -0.11523438
v -0.08398438 0.32226562 -0.11523438
v -0.08398438 0.35351562 -0.09179688
v -0.08398438 0.36523438 -0.09960938
v -0.08398438 0.39648438 0.00976562
v -0.08398438 0.40429688 -0.10742188
v -0.08398438 0.41601562 0.00195312
v -0.08398438 0.44726562 -0.10742188
v -0.08398438 0.45117188 0.00195312
v -0.08398438 0.48632812 -0.08789062
v -0.08398438 0.49023438 -0.04882812
v -0.08007812 -0.29101562 0.08398438
v -0.08007812 -0.24804688 0.08007812
v -0.08007812 -0.22070312 0.08007812
v -0.08007812 -0.20898438 0.06445312
v -0.08007812 -0.09570312 0.04101562
v -0.08007812 -0.04101562 -0.09179688
v -0.08007812 -0.02148438 0.05664062
v -0.08007812 0.08789062 0.05273438
v -0.08007812 0.09960938 0.05664062
v -0.08007812 0.11914062 0.07226562
v -0.08007812 0.17382812 -0.11523438
v -0.08007812 0.28320312 0.04101562
v -0.08007812 0.32617188 0.03320312
v -0.08007812 0.35742188 -0.08398438
v -0.08007812 0.37695312 -0.10742188
v -0.08007812 0.37695312 0.00585938
v -0.08007812 0.47070312 -0.10742188
v -0.08007812 0.47460938 -0.00195312
v -0.08007812 0.49023438 -0.00976562
v -0.07617188 -0.32617188 0.08007812
v -0.07617188 -0.25585938 0.07617188
v -0.07617188 -0.25195312 0.07617188
v -0.07617188 -0.24414062 0.08398438
v -0.07617188 -0.21679688 0.08007812
v -0.07617188 -0.21289062 0.08007812
v -0.07617188 0.07226562 0.05273438
v -0.07617188 0.07226562 0.05664062
v -0.07617188 0.08789062 0.04492188
v -0.07617188 0.09960938 0.05273438
v -0.07617188 0.10742188 0.06054688
v -0.07617188 0.14648438 0.07226562
v -0.07617188 0.16210938 0.00195312
v -0.07617188 0.18164062 0.03710938
v -0.07617188 0.36523438 -0.00585938
v -0.07617188 0.41601562 0.02539062
v -0.07617188 0.45898438 0.02929688
v -0.07617188 0.47070312 0.02929688
v -0.07617188 0.48242188 0.01757812
v -0.07617188 0.48632812 -0.10742188
v -0.07617188 0.49414062 -0.08789062
v -0.07617188 0.49414062 -0.04882812
v -0.07226562 -0.26367188 0.08007812
v -0.07226562 -0.14648438 0.06445312
v -0.07226562 -0.13476562 0.06445312
v -0.07226562 0.06445312 0.06445312
v -0.07226562 0.07226562 0.04492188
v -0.07226562 0.08789062 0.05273438
v -0.07226562 0.09960938 0.05664062
v -0.07226562 0.10351562 0.05273438
v -0.07226562 0.10742188 0.05273438
v -0.07226562 0.15820312 -0.11132812
v -0.07226562 0.15820312 0.07226562
v -0.07226562 0.20117188 0.05664062
v -0.07226562 0.21679688 0.02148438
v -0.07226562 0.24023438 0.03710938
v -0.07226562 0.34179688 0.00195312
v -0.07226562 0.35742188 -0.09960938
v -0.07226562 0.35742188 -0.02539062
v -0.07226562 0.36132812 -0.11132812
v -0.07226562 0.40039062 0.02929688
v -0.07226562 0.43164062 0.01757812
v -0.07226562 0.49414062 -0.00976562
v -0.06835938 -0.23632812 0.08007812
v -0.06835938 -0.22851562 0.08007812
v -0.06835938 -0.22070312 0.08007812
v -0.06835938 -0.18554688 0.08007812
v -0.06835938 -0.16210938 0.06445312
v -0.06835938 -0.04101562 0.06054688
v -0.06835938 0.06445312 0.06054688
v -0.06835938 0.07617188 0.05273438
v -0.06835938 0.08789062 0.05664062
v -0.06835938 0.09960938 0.06054688
v -0.06835938 0.10351562 0.06054688
v -0.06835938 0.18164062 0.06445312
v -0.06835938 0.28320312 0.04882812
v -0.06835938 0.32617188 0.04492188
v -0.06835938 0.34179688 -0.11132812
v -0.06835938 0.38476562 0.03320312
v -0.06835938 0.40820312 0.02539062
v -0.06835938 0.43164062 0.01367188
v -0.06835938 0.45117188 0.01367188
v -0.06835938 0.48632812 0.01757812
v -0.06445312 -0.24804688 0.08398438
v -0.06445312 -0.21679688 0.08007812
v -0.06445312 -0.21289062 0.08007812
v -0.06445312 -0.20898438 0.07226562
v -0.06445312 0.05664062 0.06445312
v -0.06445312 0.06835938 0.05273438
v -0.06445312 0.07226562 0.05664062
v -0.06445312 0.07617188 0.05664062
v -0.06445312 0.11132812 0.06054688
v -0.06445312 0.18164062 0.06445312
v -0.06445312 0.19726562 0.06445312
v -0.06445312 0.23242188 -0.12695312
v -0.06445312 0.31835938 -0.12695312
v -0.06445312 0.37304688 0.03710938
v -0.06445312 0.40820312 -0.11914062
v -0.06445312 0.42773438 0.02148438
v -0.06445312 0.44335938 -0.11914062
v -0.06054688 -0.34179688 0.08398438
v -0.06054688 -0.32617188 0.08398438
v -0.06054688 -0.29101562 0.09179688
v -0.06054688 -0.25585938 0.07617188
v -0.06054688 -0.25195312 0.08398438
v -0.06054688 -0.20117188 0.08007812
v -0.06054688 -0.15039062 0.07226562
v -0.06054688 -0.13085938 0.06445312
v -0.06054688 -0.12304688 0.05273438
v -0.06054688 -0.11914062 0.04101562
v -0.06054688 -0.07617188 -0.11914062
v -0.06054688 -0.04882812 0.03320312
v -0.06054688 -0.04101562 -0.09570312
v -0.06054688 0.06054688 0.06445312
v -0.06054688 0.08789062 0.06054688
v -0.06054688 0.09960938 0.06054688
v -0.06054688 0.10742188 0.05273438
v -0.06054688 0.10742188 0.06054688
v -0.06054688 0.16601562 -0.11523438
v -0.06054688 0.16992188 0.07226562
v -0.06054688 0.17382812 -0.12695312
v -0.06054688 0.18164062 0.07226562
v -0.06054688 0.24023438 0.04492188
v -0.06054688 0.45507812 0.04492188
v -0.06054688 0.47070312 -0.11914062
v -0.06054688 0.47070312 0.04101562
v -0.06054688 0.48632812 -0.11132812
v -0.06054688 0.49414062 -0.09960938
v -0.06054688 0.49804688 -0.08007812
v -0.06054688 0.49804688 -0.04492188
v -0.05664062 -0.25976562 0.08398438
v -0.05664062 -0.25585938 0.08007812
v -0.05664062 -0.24414062 0.08398438
v -0.05664062 -0.22070312 0.08007812
v -0.05664062 -0.16601562 0.06445312
v -0.05664062 -0.09960938 0.04492188
v -0.05664062 -0.04492188 0.05273438
v -0.05664062 0.01757812 0.07226562
v -0.05664062 0.06445312 0.05273438
v -0.05664062 0.07226562 0.05664062
v -0.05664062 0.14648438 0.07617188
v -0.05664062 0.15820312 0.07226562
v -0.05664062 0.16210938 0.07226562
v -0.05664062 0.16601562 0.07226562
v -0.05664062 0.17382812 0.07226562
v -0.05664062 0.18945312 0.07226562
v -0.05664062 0.35742188 0.02539062
v -0.05664062 0.41992188 0.02929688
v -0.05664062 0.49023438 0.01757812
v -0.05664062 0.49414062 -0.00585938
v -0.05273438 -0.37304688 0.04492188
v -0.05273438 -0.36914062 -0.12304688
v -0.05273438 -0.36914062 0.07617188
v -0.05273438 -0.34960938 -0.12304688
v -0.05273438 -0.33398438 0.08398438
v -0.05273438 -0.24804688 0.08007812
v -0.05273438 -0.23632812 0.08007812
v -0.05273438 -0.22460938 -0.12304688
v -0.05273438 -0.20898438 -0.12304688
v -0.05273438 -0.18945312 -0.12304688
v -0.05273438 -0.14257812 -0.12304688
v -0.05273438 -0.09960938 -0.12304688
v -0.05273438 0.06835938 0.05664062
v -0.05273438 0.08789062 0.06054688
v -0.05273438 0.09960938 0.05273438
v -0.05273438 0.09960938 0.05664062
v -0.05273438 0.09960938 0.06054688
v -0.05273438 0.10351562 0.05273438
v -0.05273438 0.10351562 0.05664062
v -0.05273438 0.10351562 0.06054688
v -0.05273438 0.10742188 0.05273438
v -0.05273438 0.10742188 0.05664062
v -0.05273438 0.10742188 0.06054688
v -0.05273438 0.11132812 0.05664062
v -0.05273438 0.11132812 0.06054688
v -0.05273438 0.11132812 0.07617188
v -0.05273438 0.13476562 0.07617188
v -0.05273438 0.17773438 0.06445312
v -0.05273438 0.18554688 0.06445312
v -0.05273438 0.19726562 0.06445312
v -0.05273438 0.20507812 0.05273438
v -0.05273438 0.42773438 0.02148438
v -0.05273438 0.44726562 0.01757812
v -0.04882812 -0.33007812 0.08007812
v -0.04882812 -0.32617188 0.09179688
v -0.04882812 -0.29101562 0.09570312
v -0.04882812 -0.25195312 0.07226562
v -0.04882812 -0.22851562 0.08007812
v -0.04882812 -0.21679688 0.08007812
v -0.04882812 -0.18945312 0.08398438
v -0.04882812 -0.16992188 0.07226562
v -0.04882812 -0.14648438 0.07226562
v -0.04882812 -0.13085938 0.06054688
v -0.04882812 -0.04101562 0.07226562
v -0.04882812 0.05664062 0.06445312
v -0.04882812 0.06054688 0.06054688
v -0.04882812 0.06445312 0.05273438
v -0.04882812 0.06835938 0.05664062
v -0.04882812 0.07617188 0.05664062
v -0.04882812 0.09960938 0.05273438
v -0.04882812 0.09960938 0.05664062
v -0.04882812 0.09960938 0.06054688
v -0.04882812 0.10351562 0.05273438
v -0.04882812 0.10351562 0.06054688
v -0.04882812 0.10742188 0.05273438
v -0.04882812 0.10742188 0.05664062
v -0.04882812 0.10742188 0.06054688
v -0.04882812 0.11132812 0.05273438
v -0.04882812 0.11132812 0.05664062
v -0.04882812 0.18945312 0.06445312
v -0.04882812 0.22070312 0.03320312
v -0.04492188 -0.25585938 0.08398438
v -0.04492188 -0.23632812 0.08007812
v -0.04492188 -0.16601562 0.06054688
v -0.04492188 -0.02539062 0.07226562
v -0.04492188 -0.00195312 0.07617188
v -0.04492188 0.00195312 0.07226562
v -0.04492188 0.01757812 0.07226562
v -0.04492188 0.08789062 0.06054688
v -0.04492188 0.09960938 0.05273438
v -0.04492188 0.09960938 0.05664062
v -0.04492188 0.09960938 0.06054688
v -0.04492188 0.10351562 0.05273438
v -0.04492188 0.10351562 0.05664062
v -0.04492188 0.10742188 0.05273438
v -0.04492188 0.10742188 0.05664062
v -0.04492188 0.15820312 0.07226562
v -0.04492188 0.16601562 0.07226562
v -0.04492188 0.18554688 0.06445312
v -0.04492188 0.36523438 0.04492188
v -0.04492188 0.37695312 0.04492188
v -0.04101562 -0.25976562 0.09570312
v -0.04101562 -0.24023438 0.07617188
v -0.04101562 -0.22460938 0.08007812
v -0.04101562 -0.21289062 0.07226562
v -0.04101562 -0.07617188 0.04492188
v -0.04101562 -0.00585938 0.07617188
v -0.04101562 -0.00195312 0.07226562
v -0.04101562 0.00195312 0.07617188
v -0.04101562 0.06835938 0.05273438
v -0.04101562 0.07226562 0.05664062
v -0.04101562 0.09960938 0.05273438
v -0.04101562 0.09960938 0.05664062
v -0.04101562 0.10351562 0.05273438
v -0.04101562 0.10351562 0.05664062
v -0.04101562 0.10351562 0.06054688
v -0.04101562 0.10742188 0.05273438
v -0.04101562 0.10742188 0.06054688
v -0.04101562 0.11132812 0.05273438
v -0.04101562 0.15429688 0.06445312
v -0.04101562 0.16992188 0.07226562
v -0.04101562 0.18945312 0.06445312
v -0.04101562 0.38085938 -0.12304688
v -0.04101562 0.40820312 0.04492188
v -0.04101562 0.41992188 0.03710938
v -0.04101562 0.45507812 0.04492188
v -0.03710938 -0.29101562 0.09960938
v -0.03710938 -0.24023438 0.08398438
v -0.03710938 -0.22460938 0.07617188
v -0.03710938 -0.21289062 0.08398438
v -0.03710938 -0.16601562 0.03710938
v -0.03710938 -0.14257812 0.04492188
v -0.03710938 -0.13085938 0.04101562
v -0.03710938 -0.00585938 0.07226562
v -0.03710938 -0.00195312 0.07226562
v -0.03710938 0.06445312 0.05273438
v -0.03710938 0.07617188 0.05664062
v -0.03710938 0.08398438 0.05664062
v -0.03710938 0.09570312 0.06054688
v -0.03710938 0.09960938 0.05273438
v -0.03710938 0.09960938 0.05664062
v -0.03710938 0.10351562 0.05273438
v -0.03710938 0.10742188 0.05273438
v -0.03710938 0.11132812 0.05273438
v -0.03710938 0.11132812 0.05664062
v -0.03710938 0.11914062 0.07617188
v -0.03710938 0.15820312 0.07226562
v -0.03710938 0.16210938 0.07226562
v -0.03710938 0.17382812 0.07226562
v -0.03710938 0.17773438 0.06445312
v -0.03710938 0.18554688 0.06445312
v -0.03710938 0.19726562 0.06445312
v -0.03710938 0.20507812 0.04101562
v -0.03710938 0.42773438 0.02929688
v -0.03710938 0.45117188 0.02929688
v -0.03710938 0.46679688 0.04492188
v -0.02929688 -0.33789062 0.09960938
v -0.02929688 -0.33007812 0.09179688
v -0.02929688 -0.28710938 0.09960938
v -0.02929688 -0.28710938 0.11132812
v -0.02929688 -0.25585938 0.09570312
v -0.02929688 -0.25585938 0.09960938
v -0.02929688 -0.25585938 0.10742188
v -0.02929688 -0.24023438 0.09570312
v -0.02929688 -0.23632812 0.09960938
v -0.02929688 -0.22070312 0.08398438
v -0.02929688 -0.21679688 0.09570312
v -0.02929688 -0.20898438 0.09570312
v -0.02929688 -0.10742188 0.04492188
v -0.02929688 0.07226562 0.04492188
v -0.02929688 0.07617188 0.05273438
v -0.02929688 0.08398438 0.05273438
v -0.02929688 0.09570312 0.05273438
v -0.02929688 0.10351562 0.04882812
v -0.02929688 0.15429688 0.07226562
v -0.02929688 0.15820312 0.07226562
v -0.02929688 0.16992188 0.07226562
v -0.02929688 0.17773438 0.07226562
v -0.02929688 0.39648438 0.05273438
v -0.02929688 0.40820312 0.04882812
v -0.02929688 0.43945312 -0.12695312
v -0.02929688 0.47070312 -0.12304688
v -0.02929688 0.48632812 -0.11914062
v -0.02929688 0.49023438 0.01757812
v -0.02929688 0.49414062 -0.10351562
v -0.02929688 0.49804688 -0.08007812
v -0.02929688 0.49804688 -0.04492188
v -0.02929688 0.49804688 -0.00976562
v -0.02539062 -0.32617188 0.08398438
v -0.02539062 -0.32226562 0.09570312
v -0.02539062 -0.04492188 0.06445312
v -0.02539062 0.01757812 0.07226562
v -0.02539062 0.03320312 0.06445312
v -0.02539062 0.04101562 0.06445312
v -0.02539062 0.05664062 0.06054688
v -0.02539062 0.06835938 0.05273438
v -0.02539062 0.07226562 0.05273438
v -0.02539062 0.08398438 0.05273438
v -0.02539062 0.09960938 0.04882812
v -0.02539062 0.10351562 0.05273438
v -0.02539062 0.10742188 0.05273438
v -0.02539062 0.11132812 0.05664062
v -0.02539062 0.38476562 0.05273438
v -0.02539062 0.38476562 0.08789062
v -0.02539062 0.39257812 0.09570312
v -0.02539062 0.41601562 0.09570312
v -0.02539062 0.42773438 0.04492188
v -0.02539062 0.43554688 0.03320312
v -0.02539062 0.44726562 0.03320312
v -0.02148438 0.18945312 0.06445312
v -0.02148438 0.20117188 0.04492188
v -0.02148438 0.40429688 0.12695312
v -0.02148438 0.45117188 0.04882812
v -0.01757812 0.04492188 0.09570312
v -0.01757812 0.06054688 0.09179688
v -0.01757812 0.07226562 0.09179688
v -0.01757812 0.09570312 0.08398438
v -0.01757812 0.11132812 0.08007812
v -0.01757812 0.13476562 0.07617188
v -0.01757812 0.15820312 0.05273438
v -0.01757812 0.16992188 0.05273438
v -0.01757812 0.18164062 0.05273438
v -0.01757812 0.18554688 0.01367188
v -0.01757812 0.21289062 0.02539062
v -0.01757812 0.36523438 0.13867188
v -0.01757812 0.37695312 0.11132812
v -0.01757812 0.38085938 0.13476562
v -0.01757812 0.38085938 0.13867188
v -0.01757812 0.38476562 0.05273438
v -0.01757812 0.38476562 0.08789062
v -0.01757812 0.41210938 0.13476562
v -0.01757812 0.43164062 0.12304688
v -0.01757812 0.44335938 0.09570312
v -0.01367188 -0.29492188 0.10742188
v -0.01367188 -0.29101562 0.10742188
v -0.01367188 -0.28710938 0.11132812
v -0.01367188 0.04101562 0.09960938
v -0.01367188 0.15820312 0.05273438
v -0.01367188 0.16210938 0.00585938
v -0.01367188 0.36132812 0.12304688
v -0.00195312 -0.49804688 -0.13085938
v -0.00195312 -0.49804688 0.03710938
v -0.00195312 -0.49414062 -0.13867188
v -0.00195312 -0.49414062 0.05273438
v -0.00195312 -0.49023438 -0.13867188
v -0.00195312 -0.49023438 0.05273438
v -0.00195312 -0.40039062 -0.13867188
v -0.00195312 -0.40039062 0.05273438
v -0.00195312 -0.39648438 -0.13085938
v -0.00195312 -0.39648438 0.05273438
v -0.00195312 -0.38085938 -0.11132812
v -0.00195312 -0.38085938 0.03710938
v -0.00195312 -0.37695312 0.05273438
v -0.00195312 -0.36914062 -0.12304688
v -0.00195312 -0.36914062 0.08398438
v -0.00195312 -0.34960938 -0.12304688
v -0.00195312 -0.33789062 0.09960938
v -0.00195312 -0.33007812 0.09570312
v -0.00195312 -0.32617188 0.09179688
v -0.00195312 -0.32226562 0.09570312
v -0.00195312 -0.22460938 -0.12304688
v -0.00195312 -0.20898438 -0.12304688
v -0.00195312 -0.20898438 0.09960938
v -0.00195312 -0.18945312 -0.12304688
v -0.00195312 -0.18945312 0.09179688
v -0.00195312 -0.16992188 0.07226562
v -0.00195312 -0.16601562 0.06054688
v -0.00195312 -0.16210938 0.03710938
v -0.00195312 -0.14257812 -0.12304688
v -0.00195312 -0.10742188 0.04492188
v -0.00195312 -0.09960938 -0.12304688
v -0.00195312 -0.07617188 -0.12304688
v -0.00195312 -0.07617188 0.04492188
v -0.00195312 -0.05664062 -0.11523438
v -0.00195312 -0.05273438 0.03320312
v -0.00195312 -0.04492188 0.05273438
v -0.00195312 -0.04101562 -0.09960938
v -0.00195312 -0.04101562 0.07226562
v -0.00195312 -0.03320312 0.07226562
v -0.00195312 -0.02148438 -0.11914062
v -0.00195312 -0.02148438 0.07617188
v -0.00195312 -0.00976562 0.07617188
v -0.00195312 -0.00195312 0.07226562
v -0.00195312 -0.00195312 0.07617188
v -0.00195312 0.00585938 -0.11914062
v -0.00195312 0.01757812 0.07226562
v -0.00195312 0.03320312 0.06445312
v -0.00195312 0.03320312 0.09960938
v -0.00195312 0.06054688 0.09570312
v -0.00195312 0.07617188 0.09179688
v -0.00195312 0.08789062 -0.11914062
v -0.00195312 0.09570312 0.08398438
v -0.00195312 0.11132812 0.08007812
v -0.00195312 0.13867188 0.07617188
v -0.00195312 0.14648438 -0.12304688
v -0.00195312 0.15429688 -0.11914062
v -0.00195312 0.15429688 0.07226562
v -0.00195312 0.15820312 -0.11132812
v -0.00195312 0.15820312 0.05273438
v -0.00195312 0.16210938 0.00585938
v -0.00195312 0.17382812 -0.13085938
v -0.00195312 0.18554688 0.01367188
v -0.00195312 0.21679688 0.03320312
v -0.00195312 0.23242188 -0.13085938
v -0.00195312 0.24414062 0.04882812
v -0.00195312 0.28710938 0.05273438
v -0.00195312 0.32226562 -0.12695312
v -0.00195312 0.33398438 0.04882812
v -0.00195312 0.34960938 -0.11132812
v -0.00195312 0.35742188 -0.11132812
v -0.00195312 0.35742188 0.03320312
v -0.00195312 0.36132812 -0.11914062
v -0.00195312 0.36132812 0.12304688
v -0.00195312 0.36523438 0.04882812
v -0.00195312 0.36523438 0.13867188
v -0.00195312 0.37695312 0.04882812
v -0.00195312 0.37695312 0.11132812
v -0.00195312 0.38085938 -0.12695312
v -0.00195312 0.38085938 0.13867188
v -0.00195312 0.38476562 0.05273438
v -0.00195312 0.38476562 0.08789062
v -0.00195312 0.41210938 0.13476562
v -0.00195312 0.43164062 0.12304688
v -0.00195312 0.43945312 -0.12695312
v -0.00195312 0.44335938 0.09570312
v -0.00195312 0.45507812 0.04882812
v -0.00195312 0.46679688 0.04492188
v -0.00195312 0.47070312 -0.12304688
v -0.00195312 0.48632812 -0.11914062
v -0.00195312 0.49023438 0.02148438
v -0.00195312 0.49414062 -0.10351562
v -0.00195312 0.49804688 -0.08398438
v -0.00195312 0.49804688 -0.04492188
v -0.00195312 0.49804688 -0.00976562
v 0.00195312 -0.29882812 0.11132812
v 0.00195312 -0.29492188 0.10742188
v 0.00195312 -0.29101562 0.11523438
v 0.00195312 -0.25585938 0.11132812
v 0.00195312 -0.23632812 0.10742188
v 0.01367188 -0.29492188 0.10742188
v 0.01367188 -0.29101562 0.10742188
v 0.01367188 -0.28710938 0.11132812
v 0.01367188 0.04101562 0.09960938
v 0.01367188 0.15820312 0.05273438
v 0.01367188 0.16210938 0.00585938
v 0.01367188 0.36132812 0.12304688
v 0.01757812 0.04492188 0.09570312
v 0.01757812 0.06054688 0.09179688
v 0.01757812 0.07226562 0.09179688
v 0.01757812 0.09570312 0.08398438
v 0.01757812 0.11132812 0.08007812
v 0.01757812 0.13476562 0.07617188
v 0.01757812 0.15820312 0.05273438
v 0.01757812 0.16992188 0.05273438
v 0.01757812 0.18164062 0.05273438
v 0.01757812 0.18554688 0.01367188
v 0.01757812 0.21289062 0.02539062
v 0.01757812 0.36523438 0.13867188
v 0.01757812 0.37695312 0.11132812
v 0.01757812 0.38085938 0.13476562
v 0.01757812 0.38085938 0.13867188
v 0.01757812 0.38476562 0.05273438
v 0.01757812 0.38476562 0.08789062
v 0.01757812 0.41210938 0.13476562
v 0.01757812 0.43164062 0.12304688
v 0.01757812 0.44335938 0.09570312
v 0.02148438 0.18945312 0.06445312
v 0.02148438 0.20117188 0.04492188
v 0.02148438 0.40429688 0.12695312
v 0.02148438 0.45117188 0.04882812
v 0.02539062 -0.32617188 0.08398438
v 0.02539062 -0.32226562 0.09570312
v 0.02539062 -0.04492188 0.06445312
v 0.02539062 0.01757812 0.07226562
v 0.02539062 0.03320312 0.06445312
v 0.02539062 0.04101562 0.06445312
v 0.02539062 0.05664062 0.06054688
v 0.02539062 0.06835938 0.05273438
v 0.02539062 0.07226562 0.05273438
v 0.02539062 0.08398438 0.05273438
v 0.02539062 0.09960938 0.04882812
v 0.02539062 0.10351562 0.05273438
v 0.02539062 0.10742188 0.05273438
v 0.02539062 0.11132812 0.05664062
v 0.02539062 0.38476562 0.05273438
v 0.02539062 0.38476562 0.08789062
v 0.02539062 0.39257812 0.09570312
v 0.02539062 0.41601562 0.09570312
v 0.02539062 0.42773438 0.04492188
v 0.02539062 0.43554688 0.03320312
v 0.02539062 0.44726562 0.03320312
v 0.02929688 -0.33789062 0.09960938
v 0.02929688 -0.33007812 0.09179688
v 0.02929688 -0.28710938 0.09960938
v 0.02929688 -0.28710938 0.11132812
v 0.02929688 -0.25585938 0.09570312
v 0.02929688 -0.25585938 0.09960938
v 0.02929688 -0.25585938 0.10742188
v 0.02929688 -0.24023438 0.09570312
v 0.02929688 -0.23632812 0.09960938
v 0.02929688 -0.22070312 0.08398438
v 0.02929688 -0.21679688 0.09570312
v 0.02929688 -0.20898438 0.09570312
v 0.02929688 -0.10742188 0.04492188
v 0.02929688 0.07226562 0.04492188
v 0.02929688 0.07617188 0.05273438
v 0.02929688 0.08398438 0.05273438
v 0.02929688 0.09570312 0.05273438
v 0.02929688 0.10351562 0.04882812
v 0.02929688 0.15429688 0.07226562
v 0.02929688 0.15820312 0.07226562
v 0.02929688 0.16992188 0.07226562
v 0.02929688 0.17773438 0.07226562
v 0.02929688 0.39648438 0.05273438
v 0.02929688 0.40820312 0.04882812
v 0.02929688 0.43945312 -0.12695312
v 0.02929688 0.47070312 -0.12304688
v 0.02929688 0.48632812 -0.11914062
v 0.02929688 0.49023438 0.01757812
v 0.02929688 0.49414062 -0.10351562
v 0.02929688 0.49804688 -0.08007812
v 0.02929688 0.49804688 -0.04492188
v 0.02929688 0.49804688 -0.00976562
v 0.03710938 -0.29101562 0.09960938
v 0.03710938 -0.24023438 0.08398438
v 0.03710938 -0.22460938 0.07617188
v 0.03710938 -0.21289062 0.08398438
v 0.03710938 -0.16601562 0.03710938
v 0.03710938 -0.14257812 0.04492188
v 0.03710938 -0.13085938 0.04101562
v 0.03710938 -0.00585938 0.07226562
v 0.03710938 -0.00195312 0.07226562
v 0.03710938 0.06445312 0.05273438
v 0.03710938 0.07617188 0.05664062
v 0.03710938 0.08398438 0.05664062
v 0.03710938 0.09570312 0.06054688
v 0.03710938 0.09960938 0.05273438
v 0.03710938 0.09960938 0.05664062
v 0.03710938 0.10351562 0.05273438
v 0.03710938 0.10742188 0.05273438
v 0.03710938 0.11132812 0.05273438
v 0.03710938 0.11132812 0.05664062
v 0.03710938 0.11914062 0.07617188
v 0.03710938 0.15820312 0.07226562
v 0.03710938 0.16210938 0.07226562
v 0.03710938 0.17382812 0.07226562
v 0.03710938 0.17773438 0.06445312
v 0.03710938 0.18554688 0.06445312
v 0.03710938 0.19726562 0.06445312
v 0.03710938 0.20507812 0.04101562
v 0.03710938 0.42773438 0.02929688
v 0.03710938 0.45117188 0.02929688
v 0.03710938 0.46679688 0.04492188
v 0.04101562 -0.25976562 0.09570312
v 0.04101562 -0.24023438 0.07617188
v 0.04101562 -0.22460938 0.08007812
v 0.04101562 -0.21289062 0.07226562
v 0.04101562 -0.07617188 0.04492188
v 0.04101562 -0.00585938 0.07617188
v 0.04101562 -0.00195312 0.07226562
v 0.04101562 0.00195312 0.07617188
v 0.04101562 0.06835938 0.05273438
v 0.04101562 0.07226562 0.05664062
v 0.04101562 0.09960938 0.05273438
v 0.04101562 0.09960938 0.05664062
v 0.04101562 0.10351562 0.05273438
v 0.04101562 0.10351562 0.05664062
v 0.04101562 0.10351562 0.06054688
v 0.04101562 0.10742188 0.05273438
v 0.04101562 0.10742188 0.06054688
v 0.04101562 0.11132812 0.05273438
v 0.04101562 0.15429688 0.06445312
v 0.04101562 0.16992188 0.07226562
v 0.04101562 0.18945312 0.06445312
v 0.04101562 0.38085938 -0.12304688
v 0.04101562 0.40820312 0.04492188
v 0.04101562 0.41992188 0.03710938
v 0.04101562 0.45507812 0.04492188
v 0.04492188 -0.25585938 0.08398438
v 0.04492188 -0.23632812 0.08007812
v 0.04492188 -0.16601562 0.06054688
v 0.04492188 -0.02539062 0.07226562
v 0.04492188 -0.00195312 0.07617188
v 0.04492188 0.00195312 0.07226562
v 0.04492188 0.01757812 0.07226562
v 0.04492188 0.08789062 0.06054688
v 0.04492188 0.09960938 0.05273438
v 0.04492188 0.09960938 0.05664062
v 0.04492188 0.09960938 0.06054688
v 0.04492188 0.10351562 0.05273438
v 0.04492188 0.10351562 0.05664062
v 0.04492188 0.10742188 0.05273438
v 0.04492188 0.10742188 0.05664062
v 0.04492188 0.15820312 0.07226562
v 0.04492188 0.16601562 0.07226562
v 0.04492188 0.18554688 0.06445312
v 0.04492188 0.36523438 0.04492188
v 0.04492188 0.37695312 0.04492188
v 0.04882812 -0.33007812 0.08007812
v 0.04882812 -0.32617188 0.09179688
v 0.04882812 -0.29101562 0.09570312
v 0.04882812 -0.25195312 0.07226562
v 0.04882812 -0.22851562 0.08007812
v 0.04882812 -0.21679688 0.08007812
v 0.04882812 -0.18945312 0.08398438
v 0.04882812 -0.16992188 0.07226562
v 0.04882812 -0.14648438 0.07226562
v 0.04882812 -0.13085938 0.06054688
v 0.04882812 -0.04101562 0.07226562
v 0.04882812 0.05664062 0.06445312
v 0.04882812 0.06054688 0.06054688
v 0.04882812 0.06445312 0.05273438
v 0.04882812 0.06835938 0.05664062
v 0.04882812 0.07617188 0.05664062
v 0.04882812 0.09960938 0.05273438
v 0.04882812 0.09960938 0.05664062
v 0.04882812 0.09960938 0.06054688
v 0.04882812 0.10351562 0.05273438
v 0.04882812 0.10351562 0.06054688
v 0.04882812 0.10742188 0.05273438
v 0.04882812 0.10742188 0.05664062
v 0.04882812 0.11132812 0.05273438
v 0.04882812 0.11132812 0.05664062
v 0.04882812 0.18945312 0.06445312
v 0.04882812 0.22070312 0.03320312
v 0.05273438 -0.37304688 0.04492188
v 0.05273438 -0.36914062 -0.12304688
v 0.05273438 -0.36914062 0.07617188
v 0.05273438 -0.34960938 -0.12304688
v 0.05273438 -0.33398438 0.08398438
v 0.05273438 -0.24804688 0.08007812
v 0.05273438 -0.23632812 0.08007812
v 0.05273438 -0.22460938 -0.12304688
v 0.05273438 -0.20898438 -0.12304688
v 0.05273438 -0.18945312 -0.12304688
v 0.05273438 -0.14257812 -0.12304688
v 0.05273438 -0.09960938 -0.12304688
v 0.05273438 0.06835938 0.05664062
v 0.05273438 0.08789062 0.06054688
v 0.05273438 0.09960938 0.05273438
v 0.05273438 0.09960938 0.05664062
v 0.05273438 0.09960938 0.06054688
v 0.05273438 0.10351562 0.05273438
v 0.05273438 0.10351562 0.05664062
v 0.05273438 0.10351562 0.06054688
v 0.05273438 0.10742188 0.05273438
v 0.05273438 0.10742188 0.05664062
v 0.05273438 0.10742188 0.06054688
v 0.05273438 0.11132812 0.05664062
v 0.05273438 0.11132812 0.06054688
v 0.05273438 0.11132812 0.07617188
v 0.05273438 0.13476562 0.07617188
v 0.05273438 0.17773438 0.06445312
v 0.05273438 0.18554688 0.06445312
v 0.05273438 0.19726562 0.06445312
v 0.05273438 0.20507812 0.05273438
v 0.05273438 0.42773438 0.02148438
v 0.05273438 0.44726562 0.01757812
v 0.05664062 -0.25976562 0.08398438
v 0.05664062 -0.25585938 0.08007812
v 0.05664062 -0.24414062 0.08398438
v 0.05664062 -0.22070312 0.08007812
v 0.05664062 -0.16601562 0.06445312
v 0.05664062 -0.09960938 0.04492188
v 0.05664062 -0.04492188 0.05273438
v 0.05664062 0.01757812 0.07226562
v 0.05664062 0.06445312 0.05273438
v 0.05664062 0.07226562 0.05664062
v 0.05664062 0.14648438 0.07617188
v 0.05664062 0.15820312 0.07226562
v 0.05664062 0.16210938 0.07226562
v 0.05664062 0.16601562 0.07226562
v 0.05664062 0.17382812 0.07226562
v 0.05664062 0.18945312 0.07226562
v 0.05664062 0.35742188 0.02539062
v 0.05664062 0.41992188 0.02929688
v 0.05664062 0.49023438 0.01757812
v 0.05664062 0.49414062 -0.00585938
v 0.06054688 -0.34179688 0.08398438
v 0.06054688 -0.32617188 0.08398438
v 0.06054688 -0.29101562 0.09179688
v 0.06054688 -0.25585938 0.07617188
v 0.06054688 -0.25195312 0.08398438
v 0.06054688 -0.20117188 0.08007812
v 0.06054688 -0.15039062 0.07226562
v 0.06054688 -0.13085938 0.06445312
v 0.06054688 -0.12304688 0.05273438
v 0.06054688 -0.11914062 0.04101562
v 0.06054688 -0.07617188 -0.11914062
v 0.06054688 -0.04882812 0.03320312
v 0.06054688 -0.04101562 -0.09570312
v 0.06054688 0.06054688 0.06445312
v 0.06054688 0.08789062 0.06054688
v 0.06054688 0.09960938 0.06054688
v 0.06054688 0.10742188 0.05273438
v 0.06054688 0.10742188 0.06054688
v 0.06054688 0.16601562 -0.11523438
v 0.06054688 0.16992188 0.07226562
v 0.06054688 0.17382812 -0.12695312
v 0.06054688 0.18164062 0.07226562
v 0.06054688 0.24023438 0.04492188
v 0.06054688 0.45507812 0.04492188
v 0.06054688 0.47070312 -0.11914062
v 0.06054688 0.47070312 0.04101562
v 0.06054688 0.48632812 -0.11132812
v 0.06054688 0.49414062 -0.09960938
v 0.06054688 0.49804688 -0.08007812
v 0.06054688 0.49804688 -0.04492188
v 0.06445312 -0.24804688 0.08398438
v 0.06445312 -0.21679688 0.08007812
v 0.06445312 -0.21289062 0.08007812
v 0.06445312 -0.20898438 0.07226562
v 0.06445312 0.05664062 0.06445312
v 0.06445312 0.06835938 0.05273438
v 0.06445312 0.07226562 0.05664062
v 0.06445312 0.07617188 0.05664062
v 0.06445312 0.11132812 0.06054688
v 0.06445312 0.18164062 0.06445312
v 0.06445312 0.19726562 0.06445312
v 0.06445312 0.23242188 -0.12695312
v 0.06445312 0.31835938 -0.12695312
v 0.06445312 0.37304688 0.03710938
v 0.06445312 0.40820312 -0.11914062
v 0.06445312 0.42773438 0.02148438
v 0.06445312 0.44335938 -0.11914062
v 0.06835938 -0.23632812 0.08007812
v 0.06835938 -0.22851562 0.08007812
v 0.06835938 -0.22070312 0.08007812
v 0.06835938 -0.18554688 0.08007812
v 0.06835938 -0.16210938 0.06445312
v 0.06835938 -0.04101562 0.06054688
v 0.06835938 0.06445312 0.06054688
v 0.06835938 0.07617188 0.05273438
v 0.06835938 0.08789062 0.05664062
v 0.06835938 0.09960938 0.06054688
v 0.06835938 0.10351562 0.06054688
v 0.06835938 0.18164062 0.06445312
v 0.06835938 0.28320312 0.04882812
v 0.06835938 0.32617188 0.04492188
v 0.06835938 0.34179688 -0.11132812
v 0.06835938 0.38476562 0.03320312
v 0.06835938 0.40820312 0.02539062
v 0.06835938 0.43164062 0.01367188
v 0.06835938 0.45117188 0.01367188
v 0.06835938 0.48632812 0.01757812
v 0.07226562 -0.26367188 0.08007812
v 0.07226562 -0.14648438 0.06445312
v 0.07226562 -0.13476562 0.06445312
v 0.07226562 0.06445312 0.06445312
v 0.07226562 0.07226562 0.04492188
v 0.07226562 0.08789062 0.05273438
v 0.07226562 0.09960938 0.05664062
v 0.07226562 0.10351562 0.05273438
v 0.07226562 0.10742188 0.05273438
v 0.07226562 0.15820312 -0.11132812
v 0.07226562 0.15820312 0.07226562
v 0.07226562 0.20117188 0.05664062
v 0.07226562 0.21679688 0.02148438
v 0.07226562 0.24023438 0.03710938
v 0.07226562 0.34179688 0.00195312
v 0.07226562 0.35742188 -0.09960938
v 0.07226562 0.35742188 -0.02539062
v 0.07226562 0.36132812 -0.11132812
v 0.07226562 0.40039062 0.02929688
v 0.07226562 0.43164062 0.01757812
v 0.07226562 0.49414062 -0.00976562
v 0.07617188 -0.32617188 0.08007812
v 0.07617188 -0.25585938 0.07617188
v 0.07617188 -0.25195312 0.07617188
v 0.07617188 -0.24414062 0.08398438
v 0.07617188 -0.21679688 0.08007812
v 0.07617188 -0.21289062 0.08007812
v 0.07617188 0.07226562 0.05273438
v 0.07617188 0.07226562 0.05664062
v 0.07617188 0.08789062 0.04492188
v 0.07617188 0.09960938 0.05273438
v 0.07617188 0.10742188 0.06054688
v 0.07617188 0.14648438 0.07226562
v 0.07617188 0.16210938 0.00195312
v 0.07617188 0.18164062 0.03710938
v 0.07617188 0.36523438 -0.00585938
v 0.07617188 0.41601562 0.02539062
v 0.07617188 0.45898438 0.02929688
v 0.07617188 0.47070312 0.02929688
v 0.07617188 0.48242188 0.01757812
v 0.07617188 0.48632812 -0.10742188
v 0.07617188 0.49414062 -0.08789062
v 0.07617188 0.49414062 -0.04882812
v 0.08007812 -0.29101562 0.08398438
v 0.08007812 -0.24804688 0.08007812
v 0.08007812 -0.22070312 0.08007812
v 0.08007812 -0.20898438 0.06445312
v 0.08007812 -0.09570312 0.04101562
v 0.08007812 -0.04101562 -0.09179688
v 0.08007812 -0.02148438 0.05664062
v 0.08007812 0.08789062 0.05273438
v 0.08007812 0.09960938 0.05664062
v 0.08007812 0.11914062 0.07226562
v 0.08007812 0.17382812 -0.11523438
v 0.08007812 0.28320312 0.04101562
v 0.08007812 0.32617188 0.03320312
v 0.08007812 0.35742188 -0.08398438
v 0.08007812 0.37695312 -0.10742188
v 0.08007812 0.37695312 0.00585938
v 0.08007812 0.47070312 -0.10742188
v 0.08007812 0.47460938 -0.00195312
v 0.08007812 0.49023438 -0.00976562
v 0.08398438 -0.34179688 0.03320312
v 0.08398438 -0.33789062 0.04492188
v 0.08398438 -0.33398438 0.06054688
v 0.08398438 -0.23632812 0.08007812
v 0.08398438 -0.22851562 0.08007812
v 0.08398438 -0.21679688 0.07617188
v 0.08398438 -0.20507812 0.07617188
v 0.08398438 -0.11132812 0.03710938
v 0.08398438 -0.05273438 -0.10742188
v 0.08398438 0.08789062 0.05273438
v 0.08398438 0.09960938 0.06054688
v 0.08398438 0.10742188 0.06445312
v 0.08398438 0.15429688 -0.11523438
v 0.08398438 0.16601562 -0.10742188
v 0.08398438 0.23242188 -0.11523438
v 0.08398438 0.32226562 -0.11523438
v 0.08398438 0.35351562 -0.09179688
v 0.08398438 0.36523438 -0.09960938
v 0.08398438 0.39648438 0.00976562
v 0.08398438 0.40429688 -0.10742188
v 0.08398438 0.41601562 0.00195312
v 0.08398438 0.44726562 -0.10742188
v 0.08398438 0.45117188 0.00195312
v 0.08398438 0.48632812 -0.08789062
v 0.08398438 0.49023438 -0.04882812
v 0.08789062 -0.23632812 0.07226562
v 0.08789062 -0.22460938 0.06445312
v 0.08789062 -0.22460938 0.07617188
v 0.08789062 -0.21679688 0.07226562
v 0.08789062 -0.13085938 0.06445312
v 0.08789062 -0.11914062 0.04101562
v 0.08789062 -0.04101562 0.01757812
v 0.08789062 0.01367188 0.05664062
v 0.08789062 0.12304688 0.07617188
v 0.08789062 0.15820312 -0.09960938
v 0.08789062 0.16210938 -0.07226562
v 0.08789062 0.23242188 -0.09960938
v 0.08789062 0.23242188 -0.02148438
v 0.08789062 0.23242188 -0.00585938
v 0.08789062 0.32226562 -0.00585938
v 0.08789062 0.36523438 -0.07617188
v 0.08789062 0.36914062 -0.03710938
v 0.08789062 0.47460938 -0.08789062
v 0.08789062 0.47851562 -0.04101562
v 0.09179688 -0.22070312 0.07226562
v 0.09179688 -0.18554688 0.07617188
v 0.09179688 -0.14648438 0.07226562
v 0.09179688 -0.02148438 -0.11523438
v 0.09179688 0.23242188 -0.03320312
v 0.09179688 0.32226562 -0.09960938
v 0.09179688 0.32226562 -0.02539062
v 0.09179688 0.34179688 -0.09179688
v 0.09179688 0.34179688 -0.02539062
v 0.09179688 0.36523438 -0.03710938
v 0.09179688 0.36914062 -0.08398438
v 0.09179688 0.38476562 -0.08789062
v 0.09179688 0.38867188 -0.03710938
v 0.09179688 0.40820312 -0.09179688
v 0.09179688 0.41210938 -0.04492188
v 0.09179688 0.45117188 -0.08789062
v 0.09179688 0.45117188 -0.04101562
v 0.09570312 -0.24023438 0.06445312
v 0.09570312 -0.20507812 0.07226562
v 0.09570312 -0.17382812 0.06445312
v 0.09570312 -0.16992188 0.06445312
v 0.09570312 -0.16210938 0.06445312
v 0.09570312 -0.04882812 -0.09570312
v 0.09570312 -0.02929688 0.01757812
v 0.09570312 -0.01367188 -0.11914062
v 0.09570312 0.00585938 -0.11914062
v 0.09570312 0.05273438 0.05664062
v 0.09570312 0.08789062 -0.12304688
v 0.09570312 0.14648438 -0.11914062
v 0.09570312 0.14648438 0.05273438
v 0.09570312 0.15429688 0.05273438
v 0.09570312 0.23242188 -0.08398438
v 0.09570312 0.32226562 -0.09179688
v 0.09570312 0.33398438 -0.09179688
v 0.09570312 0.35351562 -0.09179688
v 0.10351562 -0.25195312 0.07226562
v 0.10351562 -0.17382812 0.05273438
v 0.10351562 -0.16992188 0.05273438
v 0.10351562 -0.14648438 0.06445312
v 0.10351562 -0.13085938 0.05273438
v 0.10351562 -0.12695312 0.03710938
v 0.10351562 -0.06445312 0.02539062
v 0.10351562 -0.04882812 0.01757812
v 0.10351562 -0.02148438 -0.08007812
v 0.10351562 -0.02148438 0.02148438
v 0.10351562 -0.01367188 0.02148438
v 0.10351562 0.00976562 0.03320312
v 0.10351562 0.05664062 0.03320312
v 0.10351562 0.05664062 0.04492188
v 0.10351562 0.08789062 0.04101562
v 0.10351562 0.08789062 0.04492188
v 0.10351562 0.09179688 0.05273438
v 0.10351562 0.11914062 0.05273438
v 0.10351562 0.15429688 0.00585938
v 0.10351562 0.15820312 -0.08007812
v 0.10742188 -0.38085938 -0.11132812
v 0.10742188 -0.38085938 0.01757812
v 0.10742188 -0.37695312 -0.11132812
v 0.10742188 -0.37695312 0.01757812
v 0.10742188 -0.36914062 -0.11132812
v 0.10742188 -0.34960938 -0.11132812
v 0.10742188 -0.20898438 -0.10742188
v 0.10742188 -0.18945312 -0.10742188
v 0.10742188 -0.17382812 0.03710938
v 0.10742188 -0.16601562 0.06054688
v 0.10742188 -0.14257812 0.03710938
v 0.10742188 -0.11914062 0.02539062
v 0.10742188 -0.09960938 0.02539062
v 0.10742188 -0.00976562 -0.08007812
v 0.10742188 0.00585938 -0.08007812
v 0.10742188 0.08789062 -0.08398438
v 0.10742188 0.08789062 0.00585938
v 0.10742188 0.14648438 -0.08007812
v 0.10742188 0.14648438 0.00585938
v 0.11132812 -0.34960938 -0.09179688
v 0.11132812 -0.22460938 -0.10742188
v 0.11132812 -0.18554688 0.01757812
v 0.11132812 -0.14257812 -0.10742188
v 0.11132812 -0.09960938 -0.10742188
v 0.11132812 -0.06445312 -0.09960938
v 0.11523438 -0.49023438 0.05273438
v 0.11523438 -0.40039062 0.05273438
v 0.11523438 -0.39648438 0.05273438
v 0.11523438 -0.36914062 0.01757812
v 0.11523438 -0.34960938 0.01757812
v 0.11523438 -0.29882812 0.01757812
v 0.11523438 -0.29492188 0.04101562
v 0.11523438 -0.28320312 0.06054688
v 0.11523438 -0.25585938 0.06445312
v 0.11523438 -0.22460938 -0.09179688
v 0.11523438 -0.22070312 0.01757812
v 0.11523438 -0.22070312 0.06054688
v 0.11523438 -0.20898438 -0.09179688
v 0.11523438 -0.20507812 0.01757812
v 0.11523438 -0.20117188 0.06054688
v 0.11523438 -0.18945312 -0.09179688
v 0.11523438 -0.14257812 -0.09179688
v 0.11523438 -0.14257812 0.01757812
v 0.11523438 -0.09960938 -0.09179688
v 0.11523438 -0.09960938 0.01757812
v 0.11523438 -0.06445312 0.01757812
v 0.11914062 -0.49414062 -0.13476562
v 0.11914062 -0.49414062 0.04492188
v 0.11914062 -0.49023438 -0.13867188
v 0.11914062 -0.40039062 -0.13867188
v 0.12304688 -0.49804688 -0.13085938
v 0.12304688 -0.49804688 0.03710938
v 0.12304688 -0.39257812 -0.13085938
v 0.12695312 -0.49414062 -0.13085938
v 0.12695312 -0.49414062 0.04101562
v 0.12695312 -0.49023438 -0.13085938
v 0.12695312 -0.49023438 0.04101562
v 0.12695312 -0.40039062 -0.13085938
v 0.12695312 -0.40039062 0.04101562
v 0.12695312 -0.39648438 -0.13085938
v 0.12695312 -0.39648438 0.03710938
v 0.15039062 0.26367188 -0.09179688
v 0.15039062 0.31445312 -0.02539062
v 0.15039062 0.34179688 -0.02539062
v 0.15039062 0.35742188 -0.02539062
v 0.15039062 0.36523438 -0.03710938
v 0.15429688 0.27929688 -0.08398438
v 0.15429688 0.27929688 -0.02539062
v 0.15429688 0.29492188 -0.02539062
v 0.15429688 0.29882812 -0.09179688
v 0.15820312 0.23242188 -0.08398438
v 0.15820312 0.23242188 -0.03320312
v 0.15820312 0.23632812 -0.02539062
v 0.15820312 0.25976562 -0.08398438
v 0.15820312 0.27929688 -0.02539062
v 0.15820312 0.29101562 -0.03320312
v 0.15820312 0.29492188 -0.09179688
v 0.16210938 0.23242188 -0.08398438
v 0.16210938 0.23632812 -0.03320312
v 0.16210938 0.33007812 -0.09179688
v 0.16210938 0.35742188 -0.09179688
v 0.16210938 0.36523438 -0.08007812
v 0.16601562 0.23242188 -0.08398438
v 0.16601562 0.23242188 -0.02539062
v 0.16601562 0.26367188 -0.09179688
v 0.16601562 0.29101562 -0.02539062
v 0.17773438 0.28710938 -0.09179688
v 0.18164062 0.29492188 -0.09570312
v 0.18554688 0.28320312 -0.09179688
v 0.18554688 0.28320312 -0.02539062
v 0.18554688 0.29101562 -0.08398438
v 0.18945312 0.28710938 -0.03320312
v 0.18945312 0.29882812 -0.08398438
v 0.18945312 0.30664062 -0.09570312
v 0.19335938 0.28710938 -0.02539062
v 0.19726562 0.28710938 -0.08398438
v 0.19726562 0.29101562 -0.09179688
v 0.19726562 0.31054688 -0.09570312
v 0.20117188 0.29882812 -0.09179688
v 0.20117188 0.30664062 -0.08398438
v 0.20507812 0.23242188 -0.07226562
v 0.20507812 0.23242188 -0.04492188
v 0.20507812 0.23632812 -0.08789062
v 0.20507812 0.23632812 -0.02929688
v 0.20898438 0.29882812 -0.02539062
v 0.20898438 0.31835938 -0.02148438
v 0.20898438 0.34960938 -0.02148438
v 0.20898438 0.35742188 -0.02148438
v 0.20898438 0.36523438 -0.03710938
v 0.22070312 0.24414062 -0.08789062
v 0.22070312 0.24804688 -0.02929688
v 0.22070312 0.31054688 -0.08789062
v 0.22070312 0.31835938 -0.09570312
v 0.22070312 0.33398438 -0.09570312
v 0.22070312 0.35742188 -0.09179688
v 0.22070312 0.36132812 -0.08007812
v 0.22460938 0.31054688 -0.02539062
v 0.23242188 0.24414062 -0.07226562
v 0.23242188 0.24414062 -0.04492188
v 0.23242188 0.25585938 -0.02929688
v 0.23632812 0.25195312 -0.08789062
v 0.23632812 0.25976562 -0.03320312
v 0.24414062 0.25195312 -0.07226562
v 0.24414062 0.25585938 -0.07617188
v 0.24414062 0.25585938 -0.04492188
v 0.24414062 0.26367188 -0.02539062
v 0.24804688 0.25585938 -0.06445312
v 0.24804688 0.25976562 -0.09179688
v 0.25195312 0.25585938 -0.04492188
v 0.25195312 0.27148438 -0.02929688
v 0.25976562 0.25585938 -0.08398438
v 0.25976562 0.25585938 -0.07226562
v 0.25976562 0.25585938 -0.03710938
v 0.26757812 0.31054688 -0.02929688
v 0.26757812 0.31835938 -0.02148438
v 0.26757812 0.34960938 -0.02148438
v 0.26757812 0.35742188 -0.02148438
v 0.27148438 0.26367188 -0.02929688
v 0.27148438 0.36132812 -0.03320312
v 0.27539062 0.25976562 -0.03710938
v 0.27929688 0.25976562 -0.07226562
v 0.27929688 0.31445312 -0.08789062
v 0.27929688 0.31835938 -0.09179688
v 0.27929688 0.33398438 -0.09570312
v 0.27929688 0.35742188 -0.09179688
v 0.27929688 0.36132812 -0.08007812
v 0.28320312 0.27539062 -0.02929688
v 0.29101562 0.27148438 -0.08789062
v 0.29882812 0.27539062 -0.03710938
v 0.30273438 0.27539062 -0.07226562
v 0.30273438 0.28710938 -0.08789062
v 0.30273438 0.31445312 -0.02539062
v 0.30664062 0.29101562 -0.02929688
v 0.30664062 0.31445312 -0.08789062
v 0.30664062 0.32226562 -0.02148438
v 0.31054688 0.28710938 -0.07226562
v 0.31054688 0.28710938 -0.03710938
v 0.31054688 0.31835938 -0.09179688
v 0.31445312 0.34960938 -0.02148438
v 0.31445312 0.35742188 -0.02148438
v 0.31835938 0.31445312 -0.02929688
v 0.31835938 0.33398438 -0.09179688
v 0.31835938 0.35742188 -0.09179688
v 0.31835938 0.36132812 -0.08007812
v 0.31835938 0.36132812 -0.03320312
v 0.32226562 0.31445312 -0.08789062
v 0.32226562 0.31445312 -0.03710938
v 0.32617188 0.31445312 -0.07226562
v 0.32617188 0.32226562 -0.02148438
v 0.33007812 0.32226562 -0.03320312
v 0.33007812 0.32617188 -0.08789062
v 0.33398438 0.32617188 -0.07617188
v 0.34179688 0.34960938 -0.02929688
v 0.34179688 0.35351562 -0.08789062
v 0.34570312 0.34960938 -0.07617188
v 0.34570312 0.34960938 -0.04492188
v 0.34570312 0.35742188 -0.08007812
v 0.34570312 0.35742188 -0.04882812
f 126 127 118
f 126 118 129
f 118 127 119
f 127 126 645
f 126 129 645
f 129 118 120
f 118 119 120
f 119 127 130
f 127 645 646
f 645 129 647
f 129 120 131
f 120 119 121
f 119 130 121
f 130 127 646
f 646 645 1262
f 645 647 1257
f 647 129 131
f 131 120 122
f 120 121 123
f 121 130 133
f 130 646 648
f 646 1262 1258
f 1262 645 1261
f 645 1257 1261
f 1257 647 1259
f 647 131 649
f 131 122 132
f 122 120 123
f 123 121 134
f 121 133 134
f 133 130 648
f 648 646 1258
f 1258 1262 1265
f 1262 1261 1264
f 1261 1257 1264
f 1257 1259 1266
f 1259 647 649
f 649 131 132
f 132 122 128
f 122 123 125
f 123 134 135
f 134 133 650
f 133 648 650
f 648 1258 1236
f 1258 1265 1267
f 1265 1262 1264
f 1264 1257 1266
f 1266 1259 1268
f 1259 649 1260
f 649 132 651
f 132 128 653
f 128 122 124
f 122 125 124
f 125 123 135
f 135 134 654
f 134 650 652
f 650 648 1236
f 1236 1258 1267
f 1267 1265 1266
f 1265 1264 1266
f 1266 1268 1269
f 1268 1259 1260
f 1260 649 651
f 651 132 653
f 653 128 158
f 128 124 158
f 124 125 158
f 125 135 159
f 135 654 656
f 654 134 652
f 652 650 1237
f 650 1236 1237
f 1236 1267 1237
f 1267 1266 1269
f 1269 1268 1271
f 1268 1260 1263
f 1260 651 653
f 653 158 655
f 158 125 159
f 159 135 656
f 656 654 1238
f 654 652 1237
f 1237 1267 1269
f 1269 1271 1238
f 1271 1268 1270
f 1268 1263 1270
f 1263 1260 653
f 653 655 1211
f 655 158 160
f 158 159 160
f 159 656 161
f 656 1238 1212
f 1238 654 1237
f 1237 1269 1238
f 1238 1271 1212
f 1271 1270 1211
f 1270 1263 1211
f 1263 653 1211
f 1211 655 1213
f 655 160 658
f 160 159 161
f 161 656 425
f 656 1212 1214
f 1212 1271 1211
f 1211 1213 1212
f 1213 655 658
f 658 160 426
f 160 161 136
f 161 425 136
f 425 656 657
f 656 1214 930
f 1214 1212 1213
f 1213 658 931
f 658 426 428
f 426 160 162
f 160 136 162
f 136 425 251
f 425 657 427
f 657 656 930
f 930 1214 1239
f 1214 1213 1239
f 1213 931 1215
f 931 658 933
f 658 428 660
f 428 426 163
f 426 162 163
f 162 136 137
f 136 251 138
f 251 425 252
f 425 427 252
f 427 657 659
f 657 930 932
f 930 1239 1112
f 1239 1213 1215
f 1215 931 1216
f 931 933 1216
f 933 658 660
f 660 428 665
f 428 163 432
f 163 162 137
f 137 136 138
f 138 251 139
f 251 252 139
f 252 427 253
f 427 659 561
f 659 657 932
f 932 930 1113
f 930 1112 1113
f 1112 1239 1240
f 1239 1215 1230
f 1215 1216 1230
f 1216 933 937
f 933 660 665
f 665 428 432
f 432 163 164
f 163 137 164
f 137 138 139
f 139 252 140
f 252 253 140
f 253 427 375
f 427 561 375
f 561 659 661
f 659 932 796
f 932 1113 1114
f 1113 1112 1241
f 1112 1240 1241
f 1240 1239 1230
f 1230 1216 1231
f 1216 937 1231
f 937 933 665
f 665 432 433
f 432 164 165
f 164 137 143
f 137 139 143
f 139 140 144
f 140 253 295
f 253 375 429
f 375 561 429
f 561 661 662
f 661 659 796
f 796 932 983
f 932 1114 983
f 1114 1113 1242
f 1113 1241 1242
f 1241 1240 1230
f 1230 1231 1245
f 1231 937 1217
f 937 665 938
f 665 433 666
f 433 432 165
f 165 164 143
f 143 139 144
f 144 140 141
f 140 295 141
f 295 253 429
f 429 561 562
f 561 662 562
f 662 661 796
f 796 983 934
f 983 1114 934
f 1114 1242 1071
f 1242 1241 1246
f 1241 1230 1245
f 1245 1231 1217
f 1217 937 938
f 938 665 666
f 666 433 434
f 433 165 166
f 165 143 146
f 143 144 146
f 144 141 142
f 141 295 276
f 295 429 458
f 429 562 458
f 562 662 593
f 662 796 797
f 796 934 797
f 934 1114 1071
f 1071 1242 1243
f 1242 1246 1243
f 1246 1241 1245
f 1245 1217 1248
f 1217 938 1218
f 938 666 939
f 666 434 668
f 434 433 166
f 166 165 146
f 146 144 147
f 144 142 145
f 142 141 276
f 276 295 376
f 295 458 376
f 458 562 593
f 593 662 663
f 662 797 775
f 797 934 903
f 934 1071 903
f 1071 1243 1093
f 1243 1246 1244
f 1246 1245 1248
f 1248 1217 1218
f 1218 938 939
f 939 666 668
f 668 434 673
f 434 166 435
f 166 146 149
f 146 147 149
f 147 144 145
f 145 142 179
f 142 276 317
f 276 376 377
f 376 458 459
f 458 593 459
f 593 663 594
f 663 662 775
f 775 797 903
f 903 1071 984
f 1071 1093 984
f 1093 1243 1244
f 1244 1246 1247
f 1246 1248 1249
f 1248 1218 1251
f 1218 939 940
f 939 668 673
f 673 434 435
f 435 166 169
f 166 149 151
f 149 147 150
f 147 145 148
f 145 179 215
f 179 142 317
f 317 276 377
f 377 376 459
f 459 593 594
f 594 663 664
f 663 775 776
f 775 903 904
f 903 984 904
f 984 1093 985
f 1093 1244 1050
f 1244 1247 1191
f 1247 1246 1249
f 1249 1248 1251
f 1251 1218 1252
f 1218 940 1233
f 940 939 673
f 673 435 436
f 435 169 436
f 169 166 151
f 151 149 152
f 149 150 152
f 150 147 148
f 148 145 198
f 145 215 198
f 215 179 197
f 179 317 296
f 317 377 405
f 377 459 460
f 459 594 460
f 594 664 638
f 664 663 776
f 776 775 904
f 904 984 985
f 985 1093 1050
f 1050 1244 1191
f 1191 1247 1156
f 1247 1249 1250
f 1249 1251 1232
f 1251 1252 1253
f 1252 1218 1233
f 1233 940 941
f 940 673 941
f 673 436 675
f 436 169 156
f 169 151 156
f 151 152 154
f 152 150 167
f 150 148 199
f 148 198 216
f 198 215 235
f 215 197 233
f 197 179 297
f 179 296 297
f 296 317 406
f 317 405 406
f 405 377 460
f 460 594 531
f 594 638 531
f 638 664 739
f 664 776 744
f 776 904 905
f 904 985 905
f 985 1050 963
f 1050 1191 1072
f 1191 1156 1173
f 1156 1247 1174
f 1247 1250 1174
f 1250 1249 1232
f 1232 1251 1253
f 1253 1252 1255
f 1252 1233 1234
f 1233 941 1234
f 941 673 675
f 675 436 676
f 436 156 385
f 156 151 153
f 151 154 153
f 154 152 171
f 152 167 170
f 167 150 199
f 199 148 216
f 216 198 257
f 198 235 257
f 235 215 233
f 233 197 232
f 197 297 277
f 297 296 378
f 296 406 378
f 406 405 486
f 405 460 506
f 460 531 506
f 531 638 563
f 638 739 639
f 739 664 744
f 744 776 828
f 776 905 828
f 905 985 963
f 963 1050 964
f 1050 1072 964
f 1072 1191 1073
f 1191 1173 1073
f 1173 1156 1138
f 1156 1174 1140
f 1174 1250 1157
f 1250 1232 1192
f 1232 1253 1219
f 1253 1255 1222
f 1255 1252 1254
f 1252 1234 1254
f 1234 941 993
f 941 675 676
f 676 436 385
f 385 156 157
f 156 153 157
f 153 154 155
f 154 171 172
f 171 152 170
f 170 167 168
f 167 199 200
f 199 216 465
f 216 257 341
f 257 235 279
f 235 233 256
f 233 232 234
f 232 197 277
f 277 297 378
f 378 406 461
f 406 486 461
f 486 405 506
f 506 531 565
f 531 563 565
f 563 638 639
f 639 739 740
f 739 744 745
f 744 828 798
f 828 905 858
f 905 963 858
f 963 964 883
f 964 1072 986
f 1072 1073 986
f 1073 1173 1094
f 1173 1138 1137
f 1138 1156 1140
f 1140 1174 1118
f 1174 1157 1118
f 1157 1250 1175
f 1250 1192 1175
f 1192 1232 1219
f 1219 1253 1221
f 1253 1222 1221
f 1222 1255 1223
f 1255 1254 1256
f 1254 1234 1235
f 1234 993 1235
f 993 941 676
f 676 385 678
f 385 157 259
f 157 153 155
f 155 154 172
f 172 171 258
f 171 170 182
f 170 168 180
f 168 167 200
f 200 199 409
f 199 465 409
f 465 216 341
f 341 257 380
f 257 279 380
f 279 235 300
f 235 256 300
f 256 233 234
f 234 232 255
f 232 277 254
f 277 378 379
f 378 461 430
f 461 486 532
f 486 506 532
f 506 565 532
f 565 563 566
f 563 639 564
f 639 740 640
f 740 739 745
f 745 744 798
f 798 828 800
f 828 858 800
f 858 963 883
f 883 964 906
f 964 986 906
f 986 1073 1094
f 1094 1173 1137
f 1137 1138 1139
f 1138 1140 1117
f 1140 1118 1096
f 1118 1157 1033
f 1157 1175 910
f 1175 1192 1193
f 1192 1219 1193
f 1219 1221 1220
f 1221 1222 1196
f 1222 1223 1119
f 1223 1255 1256
f 1256 1254 1235
f 1235 993 1120
f 993 676 678
f 678 385 259
f 259 157 202
f 157 155 184
f 155 172 183
f 172 258 280
f 258 171 182
f 182 170 181
f 170 180 181
f 180 168 201
f 168 200 201
f 200 409 342
f 409 465 488
f 465 341 464
f 341 380 464
f 380 279 361
f 279 300 361
f 300 256 278
f 256 234 255
f 255 232 254
f 254 277 298
f 277 379 358
f 379 378 430
f 430 461 507
f 461 532 507
f 532 565 568
f 565 566 568
f 566 563 564
f 564 639 640
f 640 740 741
f 740 745 746
f 745 798 799
f 798 800 801
f 800 858 829
f 858 883 829
f 883 906 829
f 906 986 935
f 986 1094 987
f 1094 1137 1115
f 1137 1139 1116
f 1139 1138 1117
f 1117 1140 1076
f 1140 1096 1076
f 1096 1118 988
f 1118 1033 988
f 1033 1157 910
f 910 1175 967
f 1175 1193 1176
f 1193 1219 1220
f 1220 1221 1194
f 1221 1196 1195
f 1196 1222 1119
f 1119 1223 1097
f 1223 1256 1197
f 1256 1235 1198
f 1235 1120 1178
f 1120 993 678
f 678 259 387
f 259 202 281
f 202 157 184
f 184 155 183
f 183 172 280
f 280 258 384
f 258 182 237
f 182 181 237
f 181 180 236
f 180 201 217
f 201 200 342
f 342 409 381
f 409 488 466
f 488 465 670
f 465 464 670
f 464 380 534
f 380 361 509
f 361 300 360
f 300 278 299
f 278 256 255
f 255 254 339
f 254 298 338
f 298 277 358
f 358 379 407
f 379 430 407
f 430 507 487
f 507 532 570
f 532 568 570
f 568 566 569
f 566 564 567
f 564 640 742
f 640 741 742
f 741 740 746
f 746 745 799
f 799 798 801
f 801 800 803
f 800 829 803
f 829 906 859
f 906 935 859
f 935 986 987
f 987 1094 1013
f 1094 1115 1074
f 1115 1137 1116
f 1116 1139 1117
f 1117 1076 1095
f 1076 1096 1016
f 1096 988 1016
f 988 1033 909
f 1033 910 909
f 910 967 885
f 967 1175 1176
f 1176 1193 1177
f 1193 1220 1177
f 1220 1194 1177
f 1194 1221 1195
f 1195 1196 1142
f 1196 1119 1142
f 1119 1097 992
f 1097 1223 1197
f 1197 1256 1198
f 1198 1235 1178
f 1178 1120 1098
f 1120 678 995
f 678 387 681
f 387 259 281
f 281 202 184
f 184 183 386
f 183 280 510
f 280 384 410
f 384 258 237
f 237 181 236
f 236 180 217
f 217 201 342
f 342 381 318
f 381 409 466
f 466 488 536
f 488 670 671
f 670 464 669
f 464 534 572
f 534 380 509
f 509 361 463
f 361 360 463
f 360 300 359
f 300 299 359
f 299 278 340
f 278 255 339
f 339 254 338
f 338 298 358
f 358 407 338
f 407 430 431
f 430 487 431
f 487 507 533
f 507 570 533
f 570 568 571
f 568 569 571
f 569 566 567
f 567 564 742
f 742 741 746
f 746 799 742
f 799 801 802
f 801 803 804
f 803 829 805
f 829 859 805
f 859 935 884
f 935 987 965
f 987 1013 965
f 1013 1094 1074
f 1074 1115 1030
f 1115 1116 1031
f 1116 1117 1095
f 1095 1076 1075
f 1076 1016 1015
f 1016 988 861
f 988 909 831
f 909 910 670
f 910 885 670
f 885 967 911
f 967 1176 1034
f 1176 1177 1034
f 1177 1194 1158
f 1194 1195 1141
f 1195 1142 1141
f 1142 1119 992
f 992 1097 968
f 1097 1197 862
f 1197 1198 994
f 1198 1178 1098
f 1098 1120 995
f 995 678 681
f 681 387 684
f 387 281 218
f 281 184 238
f 184 386 238
f 386 183 510
f 510 280 410
f 410 384 573
f 384 237 383
f 237 236 319
f 236 217 319
f 217 342 318
f 318 381 319
f 381 466 382
f 466 536 467
f 536 488 535
f 488 671 535
f 671 670 885
f 670 669 909
f 669 464 572
f 572 534 571
f 534 509 533
f 509 463 508
f 463 360 408
f 360 359 408
f 359 299 340
f 340 278 339
f 339 338 462
f 338 407 431
f 431 487 462
f 487 533 508
f 533 570 534
f 570 571 534
f 571 569 743
f 569 567 743
f 567 742 743
f 742 799 802
f 802 801 804
f 804 803 806
f 803 805 806
f 805 859 830
f 859 884 830
f 884 935 936
f 935 965 936
f 965 1013 1030
f 1013 1074 1030
f 1030 1115 1031
f 1031 1116 1095
f 1095 1075 1032
f 1075 1076 1014
f 1076 1015 1014
f 1015 1016 908
f 1016 861 908
f 861 988 831
f 831 909 807
f 885 911 833
f 911 967 989
f 967 1034 989
f 1034 1177 1158
f 1158 1194 1141
f 1141 1142 1052
f 1142 992 991
f 992 968 808
f 968 1097 862
f 862 1197 994
f 994 1198 1143
f 1198 1098 1143
f 1098 995 1159
f 995 681 684
f 684 387 218
f 218 281 185
f 281 238 203
f 238 386 203
f 386 510 679
f 510 410 573
f 573 384 537
f 384 383 467
f 383 237 319
f 319 217 318
f 319 381 382
f 382 466 467
f 467 536 537
f 536 535 537
f 535 671 672
f 671 885 832
f 909 669 807
f 669 572 667
f 572 571 667
f 533 509 508
f 508 463 462
f 463 408 462
f 408 359 340
f 340 339 408
f 339 462 408
f 462 338 431
f 462 487 508
f 571 743 667
f 743 742 802
f 802 804 743
f 804 806 743
f 806 805 831
f 805 830 831
f 830 884 860
f 884 936 907
f 936 965 1030
f 1030 1031 907
f 1031 1095 1032
f 1032 1075 1014
f 1014 1015 966
f 1015 908 966
f 908 861 860
f 861 831 830
f 831 807 806
f 885 833 832
f 833 911 912
f 911 989 990
f 989 1034 1051
f 1034 1158 1051
f 1158 1141 1052
f 1052 1142 991
f 991 992 912
f 992 808 834
f 808 968 862
f 862 994 679
f 994 1143 1179
f 1143 1098 1179
f 1098 1159 1199
f 1159 995 684
f 684 218 204
f 218 185 204
f 185 281 203
f 203 386 411
f 386 679 411
f 679 510 677
f 510 573 677
f 573 537 674
f 537 384 467
f 467 383 382
f 383 319 382
f 537 535 672
f 672 671 832
f 807 669 667
f 667 743 806
f 830 860 861
f 860 884 907
f 907 936 1030
f 907 1031 966
f 1031 1032 966
f 1032 1014 966
f 966 908 907
f 908 860 907
f 806 807 667
f 832 833 834
f 833 912 834
f 912 911 990
f 990 989 1052
f 989 1051 1052
f 1051 1158 1052
f 1052 991 990
f 991 912 990
f 912 992 834
f 834 808 674
f 808 862 677
f 862 679 677
f 679 994 969
f 994 1179 969
f 1179 1098 1199
f 1199 1159 1180
f 1159 684 1180
f 684 204 689
f 204 185 173
f 185 203 186
f 203 411 343
f 411 679 680
f 677 573 674
f 674 537 672
f 672 832 834
f 808 677 674
f 679 969 680
f 969 1179 1035
f 1179 1199 1200
f 1199 1180 1224
f 1180 684 689
f 689 204 205
f 204 173 205
f 173 185 186
f 186 203 343
f 343 411 468
f 411 680 595
f 674 672 808
f 680 969 777
f 969 1035 913
f 1035 1179 1200
f 1200 1199 1224
f 1224 1180 1181
f 1180 689 1181
f 689 205 695
f 205 173 174
f 173 186 187
f 186 343 282
f 343 468 489
f 468 411 595
f 595 680 682
f 680 777 682
f 777 969 913
f 913 1035 886
f 1035 1200 1099
f 1200 1224 1201
f 1224 1181 1225
f 1181 689 695
f 695 205 207
f 205 174 175
f 174 173 187
f 187 186 282
f 282 343 489
f 489 468 683
f 468 595 683
f 595 682 683
f 682 777 683
f 777 913 683
f 913 886 683
f 886 1035 1099
f 1099 1200 1201
f 1201 1224 1225
f 1225 1181 1226
f 1181 695 1183
f 695 207 699
f 207 205 175
f 175 174 176
f 174 187 188
f 187 282 188
f 282 489 490
f 489 683 685
f 683 886 685
f 886 1099 887
f 1099 1201 1202
f 1201 1225 1202
f 1225 1226 1227
f 1226 1181 1183
f 1183 695 699
f 699 207 208
f 207 175 208
f 175 176 177
f 176 174 189
f 174 188 189
f 188 282 239
f 282 490 239
f 490 489 511
f 489 685 511
f 685 886 863
f 886 887 863
f 887 1099 1144
f 1099 1202 1144
f 1202 1225 1203
f 1225 1227 1203
f 1227 1226 1228
f 1226 1183 1184
f 1183 699 1184
f 699 208 263
f 208 175 177
f 177 176 178
f 176 189 191
f 189 188 190
f 188 239 206
f 239 490 412
f 490 511 538
f 511 685 686
f 685 863 686
f 863 887 835
f 887 1144 970
f 1144 1202 1182
f 1202 1203 1204
f 1203 1227 1205
f 1227 1228 1229
f 1228 1226 1184
f 1184 699 1124
f 699 263 700
f 263 208 241
f 208 177 196
f 177 178 196
f 178 176 194
f 176 191 194
f 191 189 190
f 190 188 206
f 206 239 412
f 412 490 491
f 490 538 512
f 538 511 686
f 686 863 835
f 835 887 864
f 887 970 888
f 970 1144 1182
f 1182 1202 1204
f 1204 1203 1205
f 1205 1227 1208
f 1227 1229 1208
f 1229 1228 1210
f 1228 1184 1210
f 1184 1124 1146
f 1124 699 700
f 700 263 326
f 263 241 326
f 241 208 196
f 196 178 195
f 178 194 209
f 194 191 193
f 191 190 192
f 190 206 192
f 206 412 362
f 412 491 492
f 491 490 512
f 512 538 539
f 538 686 687
f 686 835 687
f 835 864 836
f 864 887 888
f 888 970 889
f 970 1182 1017
f 1182 1204 1206
f 1204 1205 1206
f 1205 1208 1207
f 1208 1229 1185
f 1229 1210 1209
f 1210 1184 1146
f 1146 1124 1059
f 1124 700 1059
f 700 326 702
f 326 241 264
f 241 196 242
f 196 195 242
f 195 178 209
f 209 194 240
f 194 193 240
f 193 191 192
f 192 206 260
f 206 362 320
f 362 412 469
f 412 492 469
f 492 491 513
f 491 512 513
f 512 539 513
f 539 538 687
f 687 835 836
f 836 864 865
f 864 888 865
f 888 889 865
f 889 970 914
f 970 1017 914
f 1017 1182 1053
f 1182 1206 1121
f 1206 1205 1207
f 1207 1208 1145
f 1208 1185 1145
f 1185 1229 1209
f 1209 1210 1147
f 1210 1146 1147
f 1146 1059 1125
f 1059 700 702
f 702 326 393
f 326 264 393
f 264 241 242
f 242 195 307
f 195 209 210
f 209 240 306
f 240 193 262
f 193 192 260
f 260 206 302
f 206 320 302
f 320 362 388
f 362 469 388
f 469 492 598
f 492 513 596
f 513 539 688
f 539 687 688
f 687 836 688
f 836 865 688
f 865 889 778
f 889 914 780
f 914 1017 996
f 1017 1053 996
f 1053 1182 1078
f 1182 1121 1078
f 1121 1206 1207
f 1207 1145 1123
f 1145 1185 1082
f 1185 1209 1186
f 1209 1147 1083
f 1147 1146 1125
f 1125 1059 1001
f 1059 702 1001
f 702 393 705
f 393 264 286
f 264 242 243
f 242 307 219
f 307 195 210
f 210 209 306
f 306 240 451
f 240 262 285
f 262 193 261
f 193 260 261
f 260 302 283
f 302 320 344
f 320 388 344
f 388 469 470
f 469 598 599
f 598 492 596
f 596 513 688
f 688 865 778
f 778 889 780
f 780 914 781
f 914 996 915
f 996 1053 1036
f 1053 1078 1036
f 1078 1121 1100
f 1121 1207 1122
f 1207 1123 1122
f 1123 1145 1102
f 1145 1082 956
f 1082 1185 1186
f 1186 1209 1083
f 1083 1147 1160
f 1147 1125 1148
f 1125 1001 1103
f 1001 702 705
f 705 393 395
f 393 286 395
f 286 264 243
f 243 242 219
f 219 307 245
f 307 210 327
f 210 306 327
f 306 451 415
f 451 240 285
f 285 262 305
f 262 261 284
f 261 260 284
f 260 283 284
f 283 302 301
f 302 344 301
f 344 388 413
f 388 470 413
f 470 469 599
f 599 598 619
f 598 596 597
f 596 688 690
f 688 778 690
f 778 780 779
f 780 781 752
f 781 914 915
f 915 996 971
f 996 1036 971
f 1036 1078 1077
f 1078 1100 1077
f 1100 1121 1101
f 1121 1122 1101
f 1122 1123 1101
f 1123 1102 1081
f 1102 1145 956
f 956 1082 973
f 1082 1186 1060
f 1186 1083 1060
f 1083 1160 1150
f 1160 1147 1148
f 1148 1125 1103
f 1103 1001 1003
f 1001 705 1003
f 705 395 708
f 395 286 369
f 286 243 265
f 243 219 211
f 219 245 244
f 245 307 329
f 307 327 308
f 327 306 415
f 415 451 579
f 451 285 450
f 285 305 366
f 305 262 284
f 284 283 304
f 283 301 321
f 301 344 363
f 344 413 363
f 413 470 471
f 470 599 540
f 599 619 620
f 619 598 618
f 598 597 618
f 597 596 690
f 690 778 779
f 779 780 751
f 780 752 751
f 752 781 753
f 781 915 837
f 915 971 916
f 971 1036 1018
f 1036 1077 1018
f 1077 1100 1054
f 1100 1101 1080
f 1101 1123 1081
f 1081 1102 1021
f 1102 956 955
f 956 973 814
f 973 1082 1060
f 1060 1083 1084
f 1083 1150 1062
f 1150 1160 1149
f 1160 1148 1187
f 1148 1103 1126
f 1103 1003 1024
f 1003 705 708
f 708 395 369
f 369 286 265
f 265 243 266
f 243 211 220
f 211 219 102
f 219 244 104
f 244 245 246
f 245 329 330
f 329 307 308
f 308 327 349
f 327 415 416
f 415 579 524
f 579 451 623
f 451 450 550
f 450 285 366
f 366 305 325
f 305 284 325
f 284 304 325
f 304 283 303
f 283 321 303
f 321 301 363
f 363 413 364
f 413 471 437
f 471 470 540
f 540 599 600
f 599 620 600
f 620 619 693
f 619 618 693
f 618 597 641
f 597 690 691
f 690 779 691
f 779 751 747
f 751 752 693
f 752 753 693
f 753 781 782
f 781 837 782
f 837 915 916
f 916 971 942
f 971 1018 1019
f 1018 1077 1054
f 1054 1100 1079
f 1100 1080 1079
f 1080 1101 1058
f 1101 1081 1058
f 1081 1021 1058
f 1021 1102 955
f 955 956 847
f 956 814 756
f 814 973 876
f 973 1060 974
f 1060 1084 1041
f 1084 1083 1062
f 1062 1150 1063
f 1150 1149 1151
f 1149 1160 1283
f 1160 1187 1281
f 1187 1148 1161
f 1148 1126 1127
f 1126 1103 1024
f 1024 1003 708
f 708 369 370
f 369 265 370
f 265 266 370
f 266 243 220
f 220 211 212
f 211 102 113
f 102 219 103
f 219 104 103
f 104 244 110
f 244 246 221
f 246 245 287
f 245 330 287
f 330 329 485
f 329 308 328
f 308 349 328
f 349 327 394
f 327 416 394
f 416 415 524
f 524 579 551
f 579 623 701
f 623 451 550
f 550 450 549
f 450 366 448
f 366 325 391
f 325 304 324
f 304 303 322
f 303 321 322
f 321 363 345
f 363 364 345
f 364 413 437
f 437 471 472
f 471 540 514
f 540 600 601
f 600 620 602
f 620 693 694
f 693 618 641
f 641 597 691
f 691 779 747
f 747 751 693
f 693 753 694
f 753 782 784
f 782 837 783
f 837 916 866
f 916 942 917
f 942 971 1019
f 1019 1018 1037
f 1018 1054 1037
f 1054 1079 1055
f 1079 1080 1055
f 1080 1058 1057
f 1058 1021 999
f 1021 955 953
f 955 847 846
f 847 956 756
f 756 814 701
f 814 876 848
f 876 973 974
f 974 1060 1002
f 1060 1041 1002
f 1041 1084 1061
f 1084 1062 1061
f 1062 1063 929
f 1063 1150 1104
f 1150 1151 1104
f 1151 1149 1162
f 1149 1283 1278
f 1283 1160 1282
f 1160 1281 1282
f 1281 1187 1272
f 1187 1161 1188
f 1161 1148 1127
f 1127 1126 1025
f 1126 1024 1025
f 1024 708 1025
f 708 370 711
f 370 266 352
f 266 220 222
f 220 212 222
f 212 211 113
f 113 102 105
f 102 103 97
f 103 104 98
f 104 110 98
f 110 244 221
f 221 246 223
f 246 287 288
f 287 330 397
f 330 485 397
f 485 329 455
f 329 328 455
f 328 349 368
f 349 394 367
f 394 416 417
f 416 524 501
f 524 551 501
f 551 579 580
f 579 701 642
f 701 623 698
f 623 550 622
f 550 549 606
f 549 450 448
f 448 366 391
f 391 325 324
f 324 304 323
f 304 322 323
f 322 321 345
f 345 364 365
f 364 437 414
f 437 472 414
f 472 471 515
f 471 514 515
f 514 540 574
f 540 601 574
f 602 620 621
f 620 694 621
f 693 641 692
f 641 691 692
f 691 747 692
f 747 693 692
f 694 753 754
f 753 784 754
f 783 837 809
f 837 866 809
f 866 916 867
f 916 917 867
f 917 942 972
f 942 1019 972
f 1019 1037 1020
f 1037 1054 1055
f 1055 1080 1056
f 1080 1057 1056
f 1057 1058 999
f 999 1021 953
f 953 955 846
f 846 847 788
f 847 756 755
f 756 701 698
f 701 814 748
f 814 848 815
f 848 876 898
f 876 974 898
f 974 1002 975
f 1002 1041 1022
f 1041 1061 1023
f 1061 1062 960
f 1062 929 960
f 929 1063 1005
f 1063 1104 1005
f 1104 1151 1105
f 1151 1162 1164
f 1162 1149 1278
f 1278 1283 1289
f 1283 1282 1289
f 1282 1281 1288
f 1281 1272 1284
f 1272 1187 1188
f 1188 1161 1163
f 1161 1127 1163
f 1127 1025 1044
f 1025 708 711
f 711 370 713
f 370 352 713
f 352 266 222
f 222 212 213
f 212 113 112
f 113 105 109
f 105 102 97
f 97 103 98
f 98 110 106
f 110 221 111
f 221 223 115
f 223 246 331
f 246 288 331
f 288 287 351
f 287 397 350
f 397 485 709
f 485 455 557
f 455 328 368
f 368 349 367
f 367 394 396
f 394 417 418
f 417 416 501
f 501 551 552
f 551 580 552
f 580 579 642
f 642 701 703
f 698 623 697
f 623 622 697
f 622 550 606
f 606 549 548
f 549 448 548
f 448 391 482
f 391 324 348
f 324 323 348
f 323 322 346
f 322 345 346
f 345 365 346
f 365 364 414
f 414 472 473
f 472 515 473
f 515 514 575
f 514 574 575
f 574 601 602
f 602 621 604
f 621 694 696
f 694 754 696
f 754 784 786
f 783 809 784
f 809 866 810
f 866 867 810
f 867 917 918
f 917 972 918
f 972 1019 1020
f 1020 1037 1038
f 1037 1055 1038
f 1055 1056 1038
f 1056 1057 1040
f 1057 999 1040
f 999 953 926
f 953 846 845
f 846 788 845
f 788 847 755
f 755 756 697
f 756 698 697
f 701 748 703
f 748 814 815
f 815 848 849
f 848 898 849
f 898 974 975
f 975 1002 976
f 1002 1022 1004
f 1022 1041 1023
f 1023 1061 960
f 960 929 854
f 929 1005 709
f 1005 1104 1042
f 1104 1105 1043
f 1105 1151 1064
f 1151 1164 1064
f 1164 1162 1274
f 1162 1278 1279
f 1278 1289 1285
f 1289 1282 1288
f 1288 1281 1284
f 1284 1272 1277
f 1272 1188 1280
f 1188 1163 1189
f 1163 1127 1044
f 1044 1025 713
f 1025 711 713
f 713 352 714
f 352 222 332
f 222 213 214
f 213 212 99
f 212 112 99
f 112 113 109
f 109 105 95
f 105 97 95
f 97 98 94
f 98 106 94
f 106 110 107
f 110 111 107
f 111 221 114
f 221 115 114
f 115 223 116
f 223 331 333
f 331 288 421
f 288 351 421
f 351 287 350
f 350 397 710
f 397 709 710
f 709 485 707
f 485 557 628
f 557 455 556
f 455 368 454
f 368 367 420
f 367 396 420
f 396 394 419
f 394 418 419
f 418 417 501
f 501 552 502
f 552 580 581
f 580 642 624
f 642 703 643
f 697 622 621
f 622 606 604
f 606 548 605
f 548 448 482
f 482 391 392
f 391 348 392
f 348 323 347
f 323 346 347
f 346 365 389
f 365 414 389
f 414 473 438
f 473 515 541
f 515 575 541
f 575 574 602
f 602 604 603
f 604 621 622
f 621 696 697
f 696 754 697
f 754 786 755
f 786 784 785
f 784 809 810
f 810 867 838
f 867 918 838
f 918 972 943
f 972 1020 997
f 1020 1038 997
f 1038 1056 1039
f 1056 1040 1039
f 1040 999 1000
f 999 926 1000
f 926 953 845
f 845 788 787
f 788 755 786
f 755 697 754
f 703 748 749
f 748 815 757
f 815 849 816
f 849 898 899
f 898 975 976
f 976 1002 977
f 1002 1004 977
f 1004 1022 978
f 1022 1023 978
f 1023 960 959
f 960 854 853
f 854 929 761
f 929 709 707
f 709 1005 710
f 1005 1042 710
f 1042 1104 1043
f 1043 1105 979
f 1105 1064 979
f 1064 1164 1066
f 1164 1274 1275
f 1274 1162 1273
f 1162 1279 1273
f 1279 1278 1286
f 1278 1285 1286
f 1285 1289 1294
f 1289 1288 1294
f 1288 1284 1295
f 1284 1277 1295
f 1277 1272 1280
f 1280 1188 1290
f 1188 1189 1290
f 1189 1163 1190
f 1163 1044 1065
f 1044 713 714
f 714 352 332
f 332 222 267
f 222 214 267
f 214 213 99
f 99 112 108
f 112 109 108
f 109 95 92
f 95 97 93
f 97 94 93
f 94 106 78
f 106 107 96
f 107 111 96
f 111 114 96
f 114 115 71
f 115 116 72
f 116 223 333
f 333 331 421
f 421 351 712
f 351 350 710
f 707 485 628
f 628 557 615
f 557 556 615
f 556 455 454
f 454 368 420
f 420 396 453
f 396 419 452
f 419 418 452
f 418 501 502
f 502 552 525
f 552 581 525
f 581 580 625
f 580 624 625
f 624 642 643
f 643 703 704
f 604 606 605
f 605 548 578
f 482 448 445
f 482 392 449
f 392 348 347
f 347 346 389
f 389 414 438
f 438 473 493
f 473 541 493
f 541 575 542
f 575 602 576
f 602 603 577
f 603 604 578
f 786 785 813
f 785 784 812
f 784 810 811
f 810 838 839
f 838 918 890
f 918 943 890
f 943 972 997
f 997 1038 1039
f 1039 1040 1000
f 1000 926 954
f 926 845 896
f 845 787 813
f 787 788 786
f 703 749 704
f 749 748 757
f 757 815 758
f 815 816 758
f 816 849 877
f 849 899 877
f 899 898 976
f 976 977 957
f 977 1004 957
f 1004 978 958
f 978 1023 959
f 959 960 853
f 853 854 772
f 854 761 772
f 761 929 707
f 710 1042 1043
f 1043 979 712
f 979 1064 1066
f 1066 1164 1275
f 1275 1274 1317
f 1274 1273 1316
f 1273 1279 1296
f 1279 1286 1296
f 1286 1285 1296
f 1285 1294 1314
f 1294 1288 1293
f 1288 1295 1293
f 1295 1277 1297
f 1277 1280 1287
f 1280 1290 1287
f 1290 1189 1190
f 1190 1163 1128
f 1163 1065 1128
f 1065 1044 714
f 714 332 334
f 332 267 289
f 267 214 289
f 214 99 100
f 99 108 91
f 108 109 92
f 92 95 88
f 95 93 77
f 93 94 76
f 94 78 76
f 78 106 89
f 106 96 89
f 96 114 71
f 71 115 72
f 72 116 73
f 116 333 224
f 333 421 309
f 421 712 715
f 712 351 710
f 707 628 706
f 628 615 627
f 615 556 614
f 556 454 526
f 454 420 484
f 420 453 484
f 453 396 452
f 452 418 502
f 502 525 452
f 525 581 553
f 581 625 626
f 625 624 627
f 624 643 627
f 643 704 706
f 604 605 578
f 578 548 523
f 482 445 479
f 445 448 446
f 482 449 523
f 449 392 390
f 392 347 390
f 347 389 390
f 389 438 390
f 438 493 496
f 493 541 542
f 542 575 576
f 576 602 577
f 577 603 546
f 603 578 546
f 786 813 787
f 813 785 843
f 785 812 843
f 812 784 811
f 811 810 839
f 839 838 890
f 890 943 893
f 943 997 998
f 997 1039 998
f 1039 1000 998
f 1000 954 998
f 954 926 875
f 926 896 924
f 896 845 844
f 845 926 875
f 845 813 875
f 704 749 706
f 749 757 760
f 757 758 760
f 758 816 759
f 816 877 850
f 877 899 957
f 899 976 957
f 957 1004 958
f 958 978 928
f 978 959 928
f 959 853 878
f 853 772 771
f 772 761 760
f 761 707 706
f 710 1043 712
f 712 979 715
f 979 1066 1085
f 1066 1275 1165
f 1275 1317 1318
f 1317 1274 1316
f 1316 1273 1296
f 1296 1285 1300
f 1285 1314 1300
f 1314 1294 1312
f 1294 1293 1312
f 1293 1295 1313
f 1295 1297 1299
f 1297 1277 1287
f 1287 1290 1298
f 1290 1190 1291
f 1190 1128 1106
f 1128 1065 1106
f 1065 714 1067
f 714 334 716
f 334 332 268
f 332 289 268
f 289 214 247
f 214 100 101
f 100 99 67
f 99 91 87
f 91 108 92
f 92 88 90
f 88 95 77
f 77 93 75
f 93 76 75
f 76 78 64
f 78 89 64
f 89 96 85
f 96 71 70
f 71 72 43
f 72 73 44
f 73 116 117
f 116 224 117
f 224 333 309
f 309 421 371
f 421 715 718
f 706 628 627
f 627 615 626
f 615 614 626
f 614 556 555
f 556 526 555
f 526 454 484
f 484 453 503
f 453 452 503
f 452 525 553
f 553 581 582
f 581 626 582
f 626 625 627
f 627 643 706
f 578 523 521
f 482 479 499
f 479 445 442
f 445 446 442
f 446 448 447
f 523 449 522
f 449 390 441
f 390 438 441
f 438 496 441
f 496 493 543
f 493 542 543
f 542 576 577
f 577 546 543
f 546 578 521
f 813 843 873
f 843 812 840
f 812 811 839
f 839 890 840
f 890 893 840
f 893 943 946
f 943 998 946
f 998 954 946
f 954 875 874
f 875 926 927
f 926 924 950
f 924 896 894
f 896 844 870
f 844 845 873
f 845 875 873
f 875 813 873
f 706 749 760
f 760 758 759
f 759 816 817
f 816 850 817
f 850 877 957
f 957 958 900
f 958 928 900
f 928 959 878
f 878 853 852
f 853 771 852
f 771 772 759
f 772 760 759
f 760 761 706
f 715 979 718
f 979 1085 1026
f 1085 1066 1165
f 1165 1275 1276
f 1275 1318 1276
f 1318 1317 1346
f 1317 1316 1345
f 1316 1296 1315
f 1296 1300 1302
f 1300 1314 1321
f 1314 1312 1321
f 1312 1293 1311
f 1293 1313 1311
f 1313 1295 1299
f 1299 1297 1301
f 1297 1287 1298
f 1298 1290 1304
f 1290 1291 1324
f 1291 1190 1292
f 1190 1106 1152
f 1106 1065 1129
f 1065 1067 1129
f 1067 714 716
f 716 334 527
f 334 268 290
f 268 289 225
f 289 247 225
f 247 214 101
f 101 100 69
f 100 67 68
f 67 99 83
f 99 87 83
f 87 91 86
f 91 92 90
f 90 88 81
f 88 77 63
f 77 75 63
f 75 76 59
f 76 64 60
f 64 89 61
f 89 85 61
f 85 96 84
f 96 70 84
f 70 71 62
f 71 43 62
f 43 72 44
f 44 73 45
f 73 117 74
f 117 224 101
f 224 309 248
f 309 371 291
f 371 421 504
f 421 718 504
f 626 614 582
f 614 555 582
f 555 526 503
f 526 484 503
f 503 452 554
f 452 553 554
f 553 582 554
f 521 523 522
f 482 499 523
f 499 479 497
f 479 442 477
f 442 446 443
f 446 447 443
f 447 448 483
f 522 449 441
f 441 496 522
f 496 543 520
f 543 542 577
f 543 546 520
f 546 521 520
f 873 843 872
f 843 840 872
f 840 812 839
f 840 893 872
f 893 946 874
f 946 954 874
f 874 875 873
f 875 927 925
f 927 926 953
f 926 950 953
f 950 924 947
f 924 894 922
f 894 896 870
f 870 844 873
f 873 875 897
f 759 817 771
f 817 850 851
f 850 957 851
f 957 900 851
f 900 928 878
f 878 852 900
f 852 771 817
f 718 979 901
f 979 1026 901
f 1026 1085 1108
f 1085 1165 1153
f 1165 1276 1292
f 1276 1318 1319
f 1318 1346 1347
f 1346 1317 1345
f 1345 1316 1327
f 1316 1315 1327
f 1315 1296 1305
f 1296 1302 1305
f 1302 1300 1330
f 1300 1321 1330
f 1321 1312 1329
f 1312 1311 1328
f 1311 1313 1320
f 1313 1299 1320
f 1299 1301 1306
f 1301 1297 1298
f 1298 1304 1303
f 1304 1290 1308
f 1290 1324 1308
f 1324 1291 1325
f 1291 1292 1326
f 1292 1190 1152
f 1152 1106 1166
f 1106 1129 1166
f 1129 1067 1107
f 1067 716 879
f 716 527 722
f 527 334 290
f 290 268 225
f 225 247 248
f 247 101 224
f 101 69 74
f 69 100 68
f 68 67 36
f 67 83 66
f 83 87 80
f 87 86 80
f 86 91 90
f 90 81 82
f 81 88 57
f 88 63 57
f 63 75 59
f 59 76 60
f 60 64 61
f 61 85 58
f 85 84 58
f 84 70 56
f 70 62 50
f 62 43 42
f 43 44 26
f 44 45 19
f 45 73 74
f 74 117 101
f 224 248 247
f 248 309 291
f 291 371 353
f 371 504 505
f 504 718 720
f 582 555 554
f 555 503 554
f 521 522 520
f 482 523 483
f 523 499 547
f 499 497 518
f 497 479 477
f 477 442 439
f 442 443 439
f 443 447 444
f 447 483 481
f 483 448 482
f 522 496 520
f 873 872 874
f 872 893 874
f 875 925 897
f 925 927 952
f 927 953 952
f 953 950 951
f 950 947 951
f 947 924 922
f 922 894 891
f 894 870 891
f 870 873 871
f 873 897 871
f 817 851 852
f 851 900 852
f 718 901 720
f 901 1026 902
f 1026 1108 1045
f 1108 1085 1153
f 1153 1165 1152
f 1165 1292 1152
f 1292 1276 1319
f 1319 1318 1347
f 1347 1346 1369
f 1346 1345 1365
f 1345 1327 1344
f 1327 1315 1340
f 1315 1305 1336
f 1305 1302 1332
f 1302 1330 1332
f 1330 1321 1329
f 1329 1312 1328
f 1328 1311 1320
f 1320 1299 1331
f 1299 1306 1331
f 1306 1301 1307
f 1301 1298 1303
f 1303 1304 1310
f 1304 1308 1310
f 1308 1324 1323
f 1324 1325 1354
f 1325 1291 1326
f 1326 1292 1319
f 1152 1166 1153
f 1166 1129 1107
f 1107 1067 879
f 879 716 722
f 722 527 585
f 527 290 372
f 290 225 226
f 225 248 226
f 74 69 41
f 69 68 38
f 68 36 37
f 36 67 66
f 66 83 80
f 80 86 79
f 86 90 82
f 82 81 54
f 81 57 54
f 57 63 59
f 59 60 53
f 60 61 55
f 61 58 55
f 58 84 56
f 56 70 50
f 50 62 42
f 42 43 29
f 43 26 29
f 26 44 19
f 19 45 20
f 45 74 41
f 248 291 227
f 291 353 269
f 353 371 505
f 505 504 720
f 483 523 480
f 523 547 521
f 499 523 521
f 499 518 521
f 518 497 494
f 497 477 494
f 477 439 474
f 439 443 440
f 443 444 440
f 444 447 481
f 481 483 480
f 897 925 895
f 925 952 949
f 952 953 951
f 951 947 948
f 947 922 944
f 922 891 919
f 891 870 868
f 870 871 869
f 871 897 895
f 720 901 902
f 902 1026 1045
f 1045 1108 1130
f 1108 1153 1168
f 1319 1347 1349
f 1347 1369 1370
f 1369 1346 1365
f 1365 1345 1362
f 1345 1344 1362
f 1344 1327 1340
f 1340 1315 1336
f 1336 1305 1332
f 1332 1330 1335
f 1330 1329 1335
f 1329 1328 1333
f 1328 1320 1331
f 1331 1306 1334
f 1306 1307 1334
f 1307 1301 1303
f 1303 1310 1309
f 1310 1308 1323
f 1323 1324 1354
f 1354 1325 1355
f 1325 1326 1356
f 1326 1319 1349
f 1153 1166 1167
f 1166 1107 1167
f 1107 879 1027
f 879 722 820
f 722 585 728
f 585 527 372
f 372 290 270
f 290 226 270
f 226 248 227
f 41 69 38
f 38 68 37
f 37 36 15
f 36 66 35
f 66 80 65
f 80 79 65
f 79 86 82
f 82 54 52
f 54 57 53
f 57 59 53
f 53 60 55
f 55 58 49
f 58 56 49
f 56 50 40
f 50 42 32
f 42 29 24
f 29 26 14
f 26 19 11
f 19 20 5
f 20 45 41
f 227 291 269
f 269 353 335
f 353 505 335
f 505 720 633
f 480 523 500
f 523 521 500
f 521 547 518
f 521 518 519
f 518 494 516
f 494 477 474
f 474 439 440
f 440 444 441
f 444 481 478
f 481 480 478
f 895 925 923
f 925 949 923
f 949 952 948
f 952 951 948
f 948 947 944
f 944 922 919
f 919 891 892
f 891 868 869
f 868 870 869
f 869 871 895
f 720 902 766
f 902 1045 1068
f 1045 1130 1068
f 1130 1108 1168
f 1168 1153 1167
f 1349 1347 1370
f 1370 1369 1383
f 1369 1365 1379
f 1365 1362 1371
f 1362 1344 1363
f 1344 1340 1357
f 1340 1336 1348
f 1336 1332 1339
f 1332 1335 1339
f 1335 1329 1333
f 1333 1328 1331
f 1331 1334 1333
f 1334 1307 1338
f 1307 1303 1309
f 1309 1310 1322
f 1310 1323 1322
f 1323 1354 1353
f 1354 1355 1372
f 1355 1325 1356
f 1356 1326 1349
f 1167 1107 1131
f 1107 1027 1131
f 1027 879 820
f 820 722 728
f 728 585 586
f 585 372 374
f 372 270 374
f 270 226 228
f 226 227 229
f 41 38 18
f 38 37 17
f 37 15 16
f 15 36 23
f 36 35 23
f 35 66 65
f 65 79 52
f 79 82 52
f 52 54 46
f 54 53 51
f 53 55 51
f 55 49 51
f 49 56 48
f 56 40 48
f 40 50 32
f 32 42 24
f 24 29 14
f 14 26 11
f 11 19 5
f 5 20 18
f 20 41 18
f 227 269 271
f 269 335 354
f 335 505 528
f 505 633 607
f 633 720 724
f 480 500 498
f 500 521 519
f 519 518 517
f 518 516 517
f 516 494 517
f 494 474 495
f 474 440 475
f 440 441 475
f 441 444 478
f 478 480 498
f 895 923 921
f 923 949 946
f 949 948 945
f 948 944 945
f 944 919 945
f 919 892 920
f 892 891 869
f 869 895 892
f 720 766 724
f 766 902 789
f 902 1068 880
f 1068 1130 1046
f 1130 1168 1132
f 1168 1167 1170
f 1349 1370 1375
f 1370 1383 1375
f 1383 1369 1379
f 1379 1365 1371
f 1371 1362 1363
f 1363 1344 1357
f 1357 1340 1348
f 1348 1336 1343
f 1336 1339 1343
f 1339 1335 1337
f 1335 1333 1337
f 1333 1334 1337
f 1334 1338 1341
f 1338 1307 1309
f 1309 1322 1338
f 1322 1323 1353
f 1353 1354 1368
f 1354 1372 1368
f 1372 1355 1373
f 1355 1356 1374
f 1356 1349 1375
f 1167 1131 1169
f 1131 1027 1029
f 1027 820 1029
f 820 728 821
f 728 586 732
f 586 585 374
f 374 270 272
f 270 228 272
f 228 226 229
f 229 227 271
f 18 38 17
f 17 37 16
f 16 15 6
f 15 23 9
f 23 35 25
f 35 65 34
f 65 52 34
f 52 46 31
f 46 54 51
f 51 49 47
f 49 48 47
f 48 40 39
f 40 32 39
f 32 24 30
f 24 14 13
f 14 11 8
f 11 5 8
f 5 18 4
f 271 269 354
f 354 335 528
f 528 505 583
f 505 607 583
f 607 633 634
f 633 724 725
f 498 500 519
f 519 517 498
f 517 494 495
f 495 474 475
f 475 441 476
f 441 478 476
f 478 498 476
f 895 921 892
f 921 923 946
f 946 949 945
f 945 919 920
f 920 892 921
f 724 766 725
f 766 789 767
f 789 902 818
f 902 880 818
f 880 1068 1046
f 1046 1130 1132
f 1132 1168 1170
f 1170 1167 1169
f 1375 1383 1388
f 1383 1379 1380
f 1379 1371 1380
f 1371 1363 1377
f 1363 1357 1359
f 1357 1348 1350
f 1348 1343 1350
f 1343 1339 1342
f 1339 1337 1342
f 1337 1334 1341
f 1341 1338 1358
f 1338 1322 1352
f 1322 1353 1352
f 1353 1368 1364
f 1368 1372 1381
f 1372 1373 1384
f 1373 1355 1374
f 1374 1356 1375
f 1169 1131 1133
f 1131 1029 1133
f 1029 820 821
f 821 728 732
f 732 586 733
f 586 374 399
f 374 272 399
f 272 228 230
f 228 229 230
f 229 271 231
f 18 17 4
f 17 16 6
f 6 15 9
f 9 23 12
f 23 25 12
f 25 35 34
f 34 52 31
f 31 46 47
f 46 51 47
f 47 48 33
f 48 39 33
f 39 32 30
f 30 24 22
f 24 13 22
f 13 14 8
f 8 5 2
f 5 4 2
f 271 354 310
f 354 528 422
f 528 583 584
f 583 607 609
f 607 634 608
f 634 633 725
f 498 517 495
f 495 475 476
f 476 498 495
f 921 946 920
f 946 945 920
f 725 766 767
f 767 789 790
f 789 818 791
f 818 880 819
f 880 1046 980
f 1046 1132 1086
f 1132 1170 1172
f 1170 1169 1171
f 1375 1388 1374
f 1388 1383 1386
f 1383 1380 1386
f 1380 1371 1377
f 1377 1363 1367
f 1363 1359 1367
f 1359 1357 1350
f 1350 1343 1351
f 1343 1342 1351
f 1342 1337 1341
f 1341 1358 1342
f 1358 1338 1352
f 1352 1353 1364
f 1364 1368 1376
f 1368 1381 1376
f 1381 1372 1384
f 1384 1373 1374
f 1169 1133 1171
f 1133 1029 1007
f 1029 821 1007
f 821 732 733
f 733 586 587
f 586 399 587
f 399 272 292
f 272 230 292
f 230 229 231
f 231 271 273
f 4 17 3
f 17 6 3
f 6 9 1
f 9 12 7
f 12 25 28
f 25 34 28
f 34 31 28
f 31 47 33
f 33 39 30
f 30 22 27
f 22 13 21
f 13 8 10
f 8 2 7
f 2 4 1
f 271 310 336
f 310 354 422
f 422 528 529
f 528 584 529
f 584 583 609
f 609 607 608
f 608 634 630
f 634 725 721
f 725 767 721
f 767 790 763
f 790 789 791
f 791 818 819
f 819 880 881
f 880 980 881
f 980 1046 1086
f 1086 1132 1069
f 1132 1172 1134
f 1172 1170 1171
f 1374 1388 1387
f 1388 1386 1385
f 1386 1380 1382
f 1380 1377 1378
f 1377 1367 1366
f 1367 1359 1360
f 1359 1350 1351
f 1351 1342 1358
f 1358 1352 1361
f 1352 1364 1361
f 1364 1376 1361
f 1376 1381 1382
f 1381 1384 1385
f 1384 1374 1387
f 1171 1133 1109
f 1133 1007 1109
f 1007 821 822
f 821 733 822
f 733 587 735
f 587 399 401
f 399 292 314
f 292 230 249
f 230 231 249
f 231 273 293
f 273 271 336
f 4 3 1
f 3 6 1
f 1 9 7
f 7 12 10
f 12 28 21
f 28 31 27
f 31 33 27
f 33 30 27
f 27 22 21
f 21 13 10
f 10 8 7
f 7 2 1
f 336 310 373
f 310 422 373
f 422 529 456
f 529 584 611
f 584 609 610
f 609 608 630
f 630 634 721
f 721 767 763
f 763 790 791
f 791 819 792
f 819 881 793
f 881 980 961
f 980 1086 1028
f 1086 1069 1028
f 1069 1132 1134
f 1134 1172 1110
f 1172 1171 1154
f 1387 1388 1385
f 1385 1386 1382
f 1382 1380 1378
f 1378 1377 1366
f 1366 1367 1360
f 1360 1359 1351
f 1351 1358 1360
f 1358 1361 1360
f 1361 1376 1366
f 1376 1382 1378
f 1382 1381 1385
f 1385 1384 1387
f 1171 1109 1154
f 1109 1007 1090
f 1007 822 1009
f 822 733 735
f 735 587 589
f 587 401 589
f 401 399 314
f 314 292 249
f 249 231 250
f 231 293 250
f 293 273 311
f 273 336 356
f 10 12 21
f 21 28 27
f 336 373 355
f 373 422 456
f 456 529 558
f 529 611 558
f 611 584 610
f 610 609 616
f 609 630 631
f 630 721 644
f 721 763 750
f 763 791 764
f 791 792 773
f 792 819 793
f 793 881 855
f 881 961 855
f 961 980 1028
f 1028 1069 1047
f 1069 1134 1048
f 1134 1110 1087
f 1110 1172 1155
f 1172 1154 1155
f 1378 1366 1376
f 1366 1360 1361
f 1154 1109 1090
f 1090 1007 1009
f 1009 822 824
f 822 735 824
f 735 589 736
f 589 401 402
f 401 314 402
f 314 249 274
f 249 250 275
f 250 293 294
f 293 311 312
f 311 273 356
f 356 336 355
f 355 373 456
f 456 558 559
f 558 611 612
f 611 610 637
f 610 616 636
f 616 609 631
f 631 630 629
f 630 644 629
f 644 721 717
f 721 750 717
f 750 763 762
f 763 764 762
f 764 791 773
f 773 792 769
f 792 793 770
f 793 855 794
f 855 961 856
f 961 1028 1047
f 1047 1069 1048
f 1048 1134 1087
f 1087 1110 1088
f 1110 1155 1111
f 1155 1154 1136
f 1154 1090 1135
f 1090 1009 1010
f 1009 824 1010
f 824 735 736
f 736 589 590
f 589 402 590
f 402 314 315
f 314 274 315
f 274 249 275
f 275 250 294
f 294 293 313
f 293 312 313
f 312 311 400
f 311 356 457
f 356 355 457
f 355 456 457
f 456 559 457
f 559 558 612
f 612 611 617
f 611 637 617
f 637 610 636
f 636 616 635
f 616 631 632
f 631 629 632
f 629 644 717
f 717 750 762
f 762 764 765
f 764 773 765
f 773 769 768
f 769 792 770
f 770 793 774
f 793 794 774
f 794 855 856
f 856 961 962
f 961 1047 962
f 1047 1048 962
f 1048 1087 962
f 1087 1088 1008
f 1088 1110 1089
f 1110 1111 1089
f 1111 1155 1136
f 1136 1154 1135
f 1135 1090 1091
f 1090 1010 1091
f 1010 824 825
f 824 736 825
f 736 590 737
f 590 402 403
f 402 315 403
f 315 274 316
f 274 275 316
f 275 294 316
f 294 313 337
f 313 312 357
f 312 400 357
f 400 311 398
f 311 457 398
f 457 559 398
f 559 612 613
f 612 617 613
f 617 637 730
f 637 636 729
f 636 635 726
f 635 616 632
f 632 629 719
f 629 717 719
f 717 762 719
f 762 765 719
f 765 773 768
f 768 769 726
f 769 770 729
f 770 774 730
f 774 794 795
f 794 856 795
f 856 962 1006
f 962 1087 1006
f 1087 1008 1006
f 1008 1088 1049
f 1088 1089 1049
f 1089 1111 1070
f 1111 1136 1092
f 1136 1135 1092
f 1135 1091 1092
f 1091 1010 1011
f 1010 825 1011
f 825 736 737
f 737 590 591
f 590 403 591
f 403 315 316
f 316 294 337
f 337 313 357
f 357 400 423
f 400 398 560
f 398 559 530
f 559 613 530
f 613 617 530
f 617 730 731
f 730 637 729
f 729 636 727
f 636 726 727
f 726 635 723
f 635 632 723
f 632 719 723
f 719 765 723
f 765 768 723
f 768 726 723
f 726 769 727
f 769 729 727
f 729 770 730
f 730 774 731
f 774 795 882
f 795 856 882
f 856 1006 882
f 1006 1008 857
f 1008 1049 981
f 1049 1089 1070
f 1070 1111 1092
f 1092 1091 1011
f 1011 825 826
f 825 737 826
f 737 591 738
f 591 403 404
f 403 316 404
f 316 337 404
f 337 357 424
f 357 423 424
f 423 400 560
f 560 398 530
f 530 617 560
f 617 731 560
f 731 774 857
f 774 882 857
f 882 1006 857
f 857 1008 981
f 981 1049 982
f 1049 1070 982
f 1070 1092 1012
f 1092 1011 1012
f 1011 826 1012
f 826 737 738
f 738 591 592
f 591 404 424
f 404 337 424
f 424 423 592
f 423 560 588
f 560 731 588
f 731 857 823
f 857 981 823
f 981 982 827
f 982 1070 1012
f 1012 826 982
f 826 738 827
f 738 592 588
f 592 591 424
f 592 423 588
f 588 731 734
f 731 823 734
f 823 981 827
f 827 982 826
f 827 738 823
f 738 588 734
f 734 823 738
f 544 545 517
f 841 869 842
f 521 547 548

