# https://github.com/mikedh/trimesh
v -0.49609375 0.03515625 -0.12890625 0.40000000 0.40000000 0.40000000
v -0.49609375 0.03515625 0.12890625 0.40000000 0.40000000 0.40000000
v -0.49609375 0.09765625 -0.07421875 0.40000000 0.40000000 0.40000000
v -0.49609375 0.09765625 0.08984375 0.40000000 0.40000000 0.40000000
v -0.49609375 0.24609375 -0.07421875 0.40000000 0.40000000 0.40000000
v -0.49609375 0.24609375 0.08984375 0.40000000 0.40000000 0.40000000
v -0.49609375 0.33984375 -0.12890625 0.40000000 0.40000000 0.40000000
v -0.49609375 0.33984375 0.12890625 0.40000000 0.40000000 0.40000000
v -0.48828125 0.04296875 -0.12890625 0.40000000 0.40000000 0.40000000
v -0.48828125 0.04296875 0.12890625 0.40000000 0.40000000 0.40000000
v -0.48828125 0.32421875 -0.12890625 0.40000000 0.40000000 0.40000000
v -0.48828125 0.32421875 0.12890625 0.40000000 0.40000000 0.40000000
v -0.48046875 0.05078125 -0.12890625 0.40000000 0.40000000 0.40000000
v -0.48046875 0.05078125 -0.12109375 0.40000000 0.40000000 0.40000000
v -0.48046875 0.05078125 0.12890625 0.40000000 0.40000000 0.40000000
v -0.48046875 0.09765625 -0.07421875 0.40000000 0.40000000 0.40000000
v -0.48046875 0.09765625 0.08984375 0.40000000 0.40000000 0.40000000
v -0.48046875 0.24609375 -0.07421875 0.40000000 0.40000000 0.40000000
v -0.48046875 0.24609375 0.08984375 0.40000000 0.40000000 0.40000000
v -0.48046875 0.31640625 -0.12890625 0.40000000 0.40000000 0.40000000
v -0.48046875 0.31640625 -0.12109375 0.40000000 0.40000000 0.40000000
v -0.48046875 0.31640625 0.12890625 0.40000000 0.40000000 0.40000000
v -0.43359375 -0.33984375 -0.12890625 0.40000000 0.40000000 0.40000000
v -0.43359375 -0.33984375 0.12890625 0.40000000 0.40000000 0.40000000
v -0.43359375 -0.27734375 -0.05859375 0.40000000 0.40000000 0.40000000
v -0.43359375 -0.27734375 -0.02734375 0.40000000 0.40000000 0.40000000
v -0.43359375 -0.27734375 -0.00390625 0.40000000 0.40000000 0.40000000
v -0.43359375 -0.27734375 0.01953125 0.40000000 0.40000000 0.40000000
v -0.43359375 -0.27734375 0.05078125 0.40000000 0.40000000 0.40000000
v -0.43359375 -0.26953125 -0.05859375 0.40000000 0.40000000 0.40000000
v -0.43359375 -0.26953125 0.05078125 0.40000000 0.40000000 0.40000000
v -0.43359375 -0.21484375 -0.05859375 0.40000000 0.40000000 0.40000000
v -0.43359375 -0.21484375 0.05078125 0.40000000 0.40000000 0.40000000
v -0.43359375 -0.20703125 -0.05859375 0.40000000 0.40000000 0.40000000
v -0.43359375 -0.20703125 -0.02734375 0.40000000 0.40000000 0.40000000
v -0.43359375 -0.20703125 -0.00390625 0.40000000 0.40000000 0.40000000
v -0.43359375 -0.20703125 0.01953125 0.40000000 0.40000000 0.40000000
v -0.43359375 -0.20703125 0.05078125 0.40000000 0.40000000 0.40000000
v -0.43359375 -0.18359375 -0.12890625 0.40000000 0.40000000 0.40000000
v -0.43359375 -0.18359375 0.12890625 0.40000000 0.40000000 0.40000000
v -0.43359375 -0.14453125 -0.07421875 0.40000000 0.40000000 0.40000000
v -0.43359375 -0.14453125 0.08984375 0.40000000 0.40000000 0.40000000
v -0.43359375 0.00390625 -0.07421875 0.40000000 0.40000000 0.40000000
v -0.43359375 0.00390625 0.08984375 0.40000000 0.40000000 0.40000000
v -0.43359375 0.03515625 -0.12890625 0.40000000 0.40000000 0.40000000
v -0.43359375 0.03515625 0.12890625 0.40000000 0.40000000 0.40000000
v -0.42578125 -0.27734375 -0.05859375 0.40000000 0.40000000 0.40000000
v -0.42578125 -0.27734375 -0.02734375 0.40000000 0.40000000 0.40000000
v -0.42578125 -0.27734375 -0.00390625 0.40000000 0.40000000 0.40000000
v -0.42578125 -0.27734375 0.01953125 0.40000000 0.40000000 0.40000000
v -0.42578125 -0.27734375 0.05078125 0.40000000 0.40000000 0.40000000
v -0.41796875 -0.32421875 -0.12890625 0.40000000 0.40000000 0.40000000
v -0.41796875 -0.32421875 0.12890625 0.40000000 0.40000000 0.40000000
v -0.41796875 -0.20703125 -0.05859375 0.40000000 0.40000000 0.40000000
v -0.41796875 -0.20703125 -0.02734375 0.40000000 0.40000000 0.40000000
v -0.41796875 -0.20703125 -0.00390625 0.40000000 0.40000000 0.40000000
v -0.41796875 -0.20703125 0.01953125 0.40000000 0.40000000 0.40000000
v -0.41796875 -0.20703125 0.05078125 0.40000000 0.40000000 0.40000000
v -0.41796875 -0.18359375 -0.12890625 0.40000000 0.40000000 0.40000000
v -0.41796875 -0.18359375 0.12890625 0.40000000 0.40000000 0.40000000
v -0.41796875 0.04296875 -0.12890625 0.40000000 0.40000000 0.40000000
v -0.41796875 0.04296875 0.12890625 0.40000000 0.40000000 0.40000000
v -0.41796875 0.05078125 -0.12890625 0.40000000 0.40000000 0.40000000
v -0.41796875 0.05078125 -0.12109375 0.40000000 0.40000000 0.40000000
v -0.41796875 0.05078125 0.12890625 0.40000000 0.40000000 0.40000000
v -0.41015625 -0.31640625 -0.12890625 0.40000000 0.40000000 0.40000000
v -0.41015625 -0.31640625 -0.10546875 0.40000000 0.40000000 0.40000000
v -0.41015625 -0.31640625 -0.08203125 0.40000000 0.40000000 0.40000000
v -0.41015625 -0.31640625 -0.05859375 0.40000000 0.40000000 0.40000000
v -0.41015625 -0.31640625 -0.02734375 0.40000000 0.40000000 0.40000000
v -0.41015625 -0.31640625 -0.00390625 0.40000000 0.40000000 0.40000000
v -0.41015625 -0.31640625 0.01953125 0.40000000 0.40000000 0.40000000
v -0.41015625 -0.31640625 0.05078125 0.40000000 0.40000000 0.40000000
v -0.41015625 -0.31640625 0.07421875 0.40000000 0.40000000 0.40000000
v -0.41015625 -0.31640625 0.09765625 0.40000000 0.40000000 0.40000000
v -0.41015625 -0.31640625 0.12890625 0.40000000 0.40000000 0.40000000
v -0.41015625 -0.27734375 -0.05859375 0.40000000 0.40000000 0.40000000
v -0.41015625 -0.27734375 -0.02734375 0.40000000 0.40000000 0.40000000
v -0.41015625 -0.27734375 -0.00390625 0.40000000 0.40000000 0.40000000
v -0.41015625 -0.27734375 0.01953125 0.40000000 0.40000000 0.40000000
v -0.41015625 -0.27734375 0.05078125 0.40000000 0.40000000 0.40000000
v -0.41015625 -0.26953125 -0.12890625 0.40000000 0.40000000 0.40000000
v -0.41015625 -0.26953125 -0.10546875 0.40000000 0.40000000 0.40000000
v -0.41015625 -0.26953125 -0.08203125 0.40000000 0.40000000 0.40000000
v -0.41015625 -0.26953125 -0.05859375 0.40000000 0.40000000 0.40000000
v -0.41015625 -0.26953125 0.05078125 0.40000000 0.40000000 0.40000000
v -0.41015625 -0.26953125 0.07421875 0.40000000 0.40000000 0.40000000
v -0.41015625 -0.26953125 0.09765625 0.40000000 0.40000000 0.40000000
v -0.41015625 -0.26953125 0.12890625 0.40000000 0.40000000 0.40000000
v -0.41015625 -0.21484375 -0.12890625 0.40000000 0.40000000 0.40000000
v -0.41015625 -0.21484375 -0.10546875 0.40000000 0.40000000 0.40000000
v -0.41015625 -0.21484375 -0.08203125 0.40000000 0.40000000 0.40000000
v -0.41015625 -0.21484375 -0.05859375 0.40000000 0.40000000 0.40000000
v -0.41015625 -0.21484375 0.05078125 0.40000000 0.40000000 0.40000000
v -0.41015625 -0.21484375 0.07421875 0.40000000 0.40000000 0.40000000
v -0.41015625 -0.21484375 0.09765625 0.40000000 0.40000000 0.40000000
v -0.41015625 -0.21484375 0.12890625 0.40000000 0.40000000 0.40000000
v -0.41015625 -0.20703125 -0.05859375 0.40000000 0.40000000 0.40000000
v -0.41015625 -0.20703125 -0.02734375 0.40000000 0.40000000 0.40000000
v -0.41015625 -0.20703125 -0.00390625 0.40000000 0.40000000 0.40000000
v -0.41015625 -0.20703125 0.01953125 0.40000000 0.40000000 0.40000000
v -0.41015625 -0.20703125 0.05078125 0.40000000 0.40000000 0.40000000
v -0.41015625 -0.19140625 -0.12890625 0.40000000 0.40000000 0.40000000
v -0.41015625 -0.19140625 -0.10546875 0.40000000 0.40000000 0.40000000
v -0.41015625 -0.19140625 -0.08203125 0.40000000 0.40000000 0.40000000
v -0.41015625 -0.19140625 -0.05859375 0.40000000 0.40000000 0.40000000
v -0.41015625 -0.19140625 -0.02734375 0.40000000 0.40000000 0.40000000
v -0.41015625 -0.19140625 -0.00390625 0.40000000 0.40000000 0.40000000
v -0.41015625 -0.19140625 0.01953125 0.40000000 0.40000000 0.40000000
v -0.41015625 -0.19140625 0.05078125 0.40000000 0.40000000 0.40000000
v -0.41015625 -0.19140625 0.07421875 0.40000000 0.40000000 0.40000000
v -0.41015625 -0.19140625 0.09765625 0.40000000 0.40000000 0.40000000
v -0.41015625 -0.19140625 0.12890625 0.40000000 0.40000000 0.40000000
v -0.41015625 -0.18359375 -0.12890625 0.40000000 0.40000000 0.40000000
v -0.41015625 -0.18359375 -0.12109375 0.40000000 0.40000000 0.40000000
v -0.41015625 -0.18359375 0.12890625 0.40000000 0.40000000 0.40000000
v -0.41015625 -0.17578125 -0.12890625 0.40000000 0.40000000 0.40000000
v -0.41015625 -0.17578125 -0.12109375 0.40000000 0.40000000 0.40000000
v -0.41015625 -0.14453125 -0.07421875 0.40000000 0.40000000 0.40000000
v -0.41015625 -0.14453125 0.08984375 0.40000000 0.40000000 0.40000000
v -0.41015625 0.00390625 -0.07421875 0.40000000 0.40000000 0.40000000
v -0.41015625 0.00390625 0.08984375 0.40000000 0.40000000 0.40000000
v -0.41015625 0.03515625 -0.12890625 0.40000000 0.40000000 0.40000000
v -0.41015625 0.03515625 -0.12109375 0.40000000 0.40000000 0.40000000
v -0.41015625 0.03515625 0.12890625 0.40000000 0.40000000 0.40000000
v -0.39453125 -0.31640625 -0.12890625 0.40000000 0.40000000 0.40000000
v -0.39453125 -0.31640625 -0.10546875 0.40000000 0.40000000 0.40000000
v -0.39453125 -0.31640625 -0.08203125 0.40000000 0.40000000 0.40000000
v -0.39453125 -0.31640625 -0.05859375 0.40000000 0.40000000 0.40000000
v -0.39453125 -0.31640625 -0.02734375 0.40000000 0.40000000 0.40000000
v -0.39453125 -0.31640625 -0.00390625 0.40000000 0.40000000 0.40000000
v -0.39453125 -0.31640625 0.01953125 0.40000000 0.40000000 0.40000000
v -0.39453125 -0.31640625 0.05078125 0.40000000 0.40000000 0.40000000
v -0.39453125 -0.31640625 0.07421875 0.40000000 0.40000000 0.40000000
v -0.39453125 -0.31640625 0.09765625 0.40000000 0.40000000 0.40000000
v -0.39453125 -0.31640625 0.12890625 0.40000000 0.40000000 0.40000000
v -0.38671875 -0.31640625 -0.12890625 0.40000000 0.40000000 0.40000000
v -0.38671875 -0.26953125 -0.12890625 0.40000000 0.40000000 0.40000000
v -0.38671875 -0.21484375 -0.12890625 0.40000000 0.40000000 0.40000000
v -0.38671875 -0.19140625 -0.12890625 0.40000000 0.40000000 0.40000000
v -0.37109375 -0.19140625 -0.12890625 0.40000000 0.40000000 0.40000000
v -0.37109375 -0.19140625 -0.10546875 0.40000000 0.40000000 0.40000000
v -0.37109375 -0.19140625 -0.08203125 0.40000000 0.40000000 0.40000000
v -0.37109375 -0.19140625 -0.05859375 0.40000000 0.40000000 0.40000000
v -0.37109375 -0.19140625 -0.02734375 0.40000000 0.40000000 0.40000000
v -0.37109375 -0.19140625 -0.00390625 0.40000000 0.40000000 0.40000000
v -0.37109375 -0.19140625 0.01953125 0.40000000 0.40000000 0.40000000
v -0.37109375 -0.19140625 0.05078125 0.40000000 0.40000000 0.40000000
v -0.37109375 -0.18359375 -0.12890625 0.40000000 0.40000000 0.40000000
v -0.37109375 -0.18359375 -0.12109375 0.40000000 0.40000000 0.40000000
v -0.37109375 -0.18359375 -0.10546875 0.40000000 0.40000000 0.40000000
v -0.37109375 -0.18359375 -0.08203125 0.40000000 0.40000000 0.40000000
v -0.37109375 -0.18359375 -0.05859375 0.40000000 0.40000000 0.40000000
v -0.37109375 -0.18359375 -0.02734375 0.40000000 0.40000000 0.40000000
v -0.37109375 -0.18359375 -0.00390625 0.40000000 0.40000000 0.40000000
v -0.37109375 -0.18359375 0.01953125 0.40000000 0.40000000 0.40000000
v -0.37109375 -0.18359375 0.05078125 0.40000000 0.40000000 0.40000000
v -0.37109375 -0.17578125 -0.12890625 0.40000000 0.40000000 0.40000000
v -0.37109375 -0.17578125 -0.12109375 0.40000000 0.40000000 0.40000000
v -0.36328125 -0.31640625 -0.12890625 0.40000000 0.40000000 0.40000000
v -0.36328125 -0.26953125 -0.12890625 0.40000000 0.40000000 0.40000000
v -0.36328125 -0.21484375 -0.12890625 0.40000000 0.40000000 0.40000000
v -0.36328125 -0.19140625 -0.12890625 0.40000000 0.40000000 0.40000000
v -0.36328125 -0.19140625 0.05078125 0.40000000 0.40000000 0.40000000
v -0.36328125 -0.19140625 0.07421875 0.40000000 0.40000000 0.40000000
v -0.36328125 -0.19140625 0.09765625 0.40000000 0.40000000 0.40000000
v -0.36328125 -0.19140625 0.12890625 0.40000000 0.40000000 0.40000000
v -0.36328125 -0.18359375 0.05078125 0.40000000 0.40000000 0.40000000
v -0.33984375 -0.31640625 -0.12890625 0.40000000 0.40000000 0.40000000
v -0.33984375 -0.31640625 -0.10546875 0.40000000 0.40000000 0.40000000
v -0.33984375 -0.31640625 -0.08203125 0.40000000 0.40000000 0.40000000
v -0.33984375 -0.31640625 -0.05859375 0.40000000 0.40000000 0.40000000
v -0.33984375 -0.31640625 -0.02734375 0.40000000 0.40000000 0.40000000
v -0.33984375 -0.31640625 -0.00390625 0.40000000 0.40000000 0.40000000
v -0.33984375 -0.31640625 0.01953125 0.40000000 0.40000000 0.40000000
v -0.33984375 -0.31640625 0.05078125 0.40000000 0.40000000 0.40000000
v -0.33984375 -0.31640625 0.07421875 0.40000000 0.40000000 0.40000000
v -0.33984375 -0.31640625 0.09765625 0.40000000 0.40000000 0.40000000
v -0.33984375 -0.31640625 0.12890625 0.40000000 0.40000000 0.40000000
v -0.33984375 -0.26953125 -0.12890625 0.40000000 0.40000000 0.40000000
v -0.33984375 -0.21484375 -0.12890625 0.40000000 0.40000000 0.40000000
v -0.33984375 -0.19140625 -0.12890625 0.40000000 0.40000000 0.40000000
v -0.31640625 -0.31640625 -0.12890625 0.40000000 0.40000000 0.40000000
v -0.31640625 -0.26953125 -0.12890625 0.40000000 0.40000000 0.40000000
v -0.31640625 -0.21484375 -0.12890625 0.40000000 0.40000000 0.40000000
v -0.31640625 -0.19140625 -0.12890625 0.40000000 0.40000000 0.40000000
v -0.31640625 -0.19140625 0.05078125 0.40000000 0.40000000 0.40000000
v -0.31640625 -0.19140625 0.07421875 0.40000000 0.40000000 0.40000000
v -0.31640625 -0.19140625 0.09765625 0.40000000 0.40000000 0.40000000
v -0.31640625 -0.19140625 0.12890625 0.40000000 0.40000000 0.40000000
v -0.31640625 -0.18359375 0.05078125 0.40000000 0.40000000 0.40000000
v -0.29296875 -0.31640625 -0.12890625 0.40000000 0.40000000 0.40000000
v -0.29296875 -0.31640625 -0.10546875 0.40000000 0.40000000 0.40000000
v -0.29296875 -0.31640625 -0.08203125 0.40000000 0.40000000 0.40000000
v -0.29296875 -0.31640625 -0.05859375 0.40000000 0.40000000 0.40000000
v -0.29296875 -0.31640625 -0.02734375 0.40000000 0.40000000 0.40000000
v -0.29296875 -0.31640625 -0.00390625 0.40000000 0.40000000 0.40000000
v -0.29296875 -0.31640625 0.01953125 0.40000000 0.40000000 0.40000000
v -0.29296875 -0.31640625 0.05078125 0.40000000 0.40000000 0.40000000
v -0.29296875 -0.31640625 0.07421875 0.40000000 0.40000000 0.40000000
v -0.29296875 -0.31640625 0.09765625 0.40000000 0.40000000 0.40000000
v -0.29296875 -0.31640625 0.12890625 0.40000000 0.40000000 0.40000000
v -0.28515625 -0.31640625 -0.12890625 0.40000000 0.40000000 0.40000000
v -0.28515625 -0.26953125 -0.12890625 0.40000000 0.40000000 0.40000000
v -0.28515625 -0.21484375 -0.12890625 0.40000000 0.40000000 0.40000000
v -0.28515625 -0.19140625 -0.12890625 0.40000000 0.40000000 0.40000000
v -0.26171875 -0.31640625 -0.12890625 0.40000000 0.40000000 0.40000000
v -0.26171875 -0.26953125 -0.12890625 0.40000000 0.40000000 0.40000000
v -0.26171875 -0.21484375 -0.12890625 0.40000000 0.40000000 0.40000000
v -0.26171875 -0.19140625 -0.12890625 0.40000000 0.40000000 0.40000000
v -0.26171875 -0.19140625 0.05078125 0.40000000 0.40000000 0.40000000
v -0.26171875 -0.19140625 0.07421875 0.40000000 0.40000000 0.40000000
v -0.26171875 -0.19140625 0.09765625 0.40000000 0.40000000 0.40000000
v -0.26171875 -0.19140625 0.12890625 0.40000000 0.40000000 0.40000000
v -0.26171875 -0.18359375 0.05078125 0.40000000 0.40000000 0.40000000
v -0.24609375 -0.31640625 -0.12890625 0.40000000 0.40000000 0.40000000
v -0.24609375 -0.31640625 -0.10546875 0.40000000 0.40000000 0.40000000
v -0.24609375 -0.31640625 -0.08203125 0.40000000 0.40000000 0.40000000
v -0.24609375 -0.31640625 -0.05859375 0.40000000 0.40000000 0.40000000
v -0.24609375 -0.31640625 -0.02734375 0.40000000 0.40000000 0.40000000
v -0.24609375 -0.31640625 -0.00390625 0.40000000 0.40000000 0.40000000
v -0.24609375 -0.31640625 0.01953125 0.40000000 0.40000000 0.40000000
v -0.24609375 -0.31640625 0.05078125 0.40000000 0.40000000 0.40000000
v -0.24609375 -0.31640625 0.07421875 0.40000000 0.40000000 0.40000000
v -0.24609375 -0.31640625 0.09765625 0.40000000 0.40000000 0.40000000
v -0.24609375 -0.31640625 0.12890625 0.40000000 0.40000000 0.40000000
v -0.24609375 -0.19140625 -0.12890625 0.40000000 0.40000000 0.40000000
v -0.24609375 -0.19140625 -0.10546875 0.40000000 0.40000000 0.40000000
v -0.24609375 -0.19140625 -0.08203125 0.40000000 0.40000000 0.40000000
v -0.24609375 -0.19140625 -0.05859375 0.40000000 0.40000000 0.40000000
v -0.24609375 -0.19140625 -0.02734375 0.40000000 0.40000000 0.40000000
v -0.24609375 -0.19140625 -0.00390625 0.40000000 0.40000000 0.40000000
v -0.24609375 -0.19140625 0.01953125 0.40000000 0.40000000 0.40000000
v -0.24609375 -0.19140625 0.05078125 0.40000000 0.40000000 0.40000000
v -0.24609375 -0.18359375 -0.12890625 0.40000000 0.40000000 0.40000000
v -0.24609375 -0.18359375 -0.12109375 0.40000000 0.40000000 0.40000000
v -0.24609375 -0.18359375 -0.10546875 0.40000000 0.40000000 0.40000000
v -0.24609375 -0.18359375 -0.08203125 0.40000000 0.40000000 0.40000000
v -0.24609375 -0.18359375 -0.05859375 0.40000000 0.40000000 0.40000000
v -0.24609375 -0.18359375 -0.02734375 0.40000000 0.40000000 0.40000000
v -0.24609375 -0.18359375 -0.00390625 0.40000000 0.40000000 0.40000000
v -0.24609375 -0.18359375 0.01953125 0.40000000 0.40000000 0.40000000
v -0.24609375 -0.18359375 0.05078125 0.40000000 0.40000000 0.40000000
v -0.23828125 -0.31640625 -0.12890625 0.40000000 0.40000000 0.40000000
v -0.23828125 -0.26953125 -0.12890625 0.40000000 0.40000000 0.40000000
v -0.23828125 -0.21484375 -0.12890625 0.40000000 0.40000000 0.40000000
v -0.23828125 -0.19140625 -0.12890625 0.40000000 0.40000000 0.40000000
v -0.23828125 -0.18359375 -0.12890625 0.40000000 0.40000000 0.40000000
v -0.23828125 -0.18359375 -0.12109375 0.40000000 0.40000000 0.40000000
v -0.23828125 -0.17578125 -0.12890625 0.40000000 0.40000000 0.40000000
v -0.23828125 -0.17578125 -0.12109375 0.40000000 0.40000000 0.40000000
v -0.21484375 -0.31640625 -0.12890625 0.40000000 0.40000000 0.40000000
v -0.21484375 -0.26953125 -0.12890625 0.40000000 0.40000000 0.40000000
v -0.21484375 -0.21484375 -0.12890625 0.40000000 0.40000000 0.40000000
v -0.21484375 -0.19140625 -0.12890625 0.40000000 0.40000000 0.40000000
v -0.21484375 -0.19140625 -0.10546875 0.40000000 0.40000000 0.40000000
v -0.21484375 -0.19140625 -0.08203125 0.40000000 0.40000000 0.40000000
v -0.21484375 -0.19140625 -0.05859375 0.40000000 0.40000000 0.40000000
v -0.21484375 -0.19140625 -0.02734375 0.40000000 0.40000000 0.40000000
v -0.21484375 -0.19140625 -0.00390625 0.40000000 0.40000000 0.40000000
v -0.21484375 -0.19140625 0.01953125 0.40000000 0.40000000 0.40000000
v -0.21484375 -0.19140625 0.05078125 0.40000000 0.40000000 0.40000000
v -0.21484375 -0.19140625 0.07421875 0.40000000 0.40000000 0.40000000
v -0.21484375 -0.19140625 0.09765625 0.40000000 0.40000000 0.40000000
v -0.21484375 -0.19140625 0.12890625 0.40000000 0.40000000 0.40000000
v -0.19921875 -0.31640625 -0.12890625 0.40000000 0.40000000 0.40000000
v -0.19921875 -0.31640625 -0.10546875 0.40000000 0.40000000 0.40000000
v -0.19921875 -0.31640625 -0.08203125 0.40000000 0.40000000 0.40000000
v -0.19921875 -0.31640625 -0.05859375 0.40000000 0.40000000 0.40000000
v -0.19921875 -0.31640625 -0.02734375 0.40000000 0.40000000 0.40000000
v -0.19921875 -0.31640625 -0.00390625 0.40000000 0.40000000 0.40000000
v -0.19921875 -0.31640625 0.01953125 0.40000000 0.40000000 0.40000000
v -0.19921875 -0.31640625 0.05078125 0.40000000 0.40000000 0.40000000
v -0.19921875 -0.31640625 0.07421875 0.40000000 0.40000000 0.40000000
v -0.19921875 -0.31640625 0.09765625 0.40000000 0.40000000 0.40000000
v -0.19921875 -0.31640625 0.12890625 0.40000000 0.40000000 0.40000000
v -0.19921875 -0.28515625 -0.12890625 0.40000000 0.40000000 0.40000000
v -0.19921875 -0.28515625 -0.10546875 0.40000000 0.40000000 0.40000000
v -0.19921875 -0.28515625 -0.08203125 0.40000000 0.40000000 0.40000000
v -0.19921875 -0.28515625 -0.05859375 0.40000000 0.40000000 0.40000000
v -0.19921875 -0.28515625 -0.02734375 0.40000000 0.40000000 0.40000000
v -0.19921875 -0.28515625 -0.00390625 0.40000000 0.40000000 0.40000000
v -0.19921875 -0.28515625 0.01953125 0.40000000 0.40000000 0.40000000
v -0.19921875 -0.28515625 0.05078125 0.40000000 0.40000000 0.40000000
v -0.19921875 -0.28515625 0.07421875 0.40000000 0.40000000 0.40000000
v -0.19921875 -0.28515625 0.09765625 0.40000000 0.40000000 0.40000000
v -0.19921875 -0.28515625 0.12890625 0.40000000 0.40000000 0.40000000
v -0.19921875 -0.26953125 -0.12890625 0.40000000 0.40000000 0.40000000
v -0.19921875 -0.23828125 -0.12890625 0.40000000 0.40000000 0.40000000
v -0.19921875 -0.23828125 -0.10546875 0.40000000 0.40000000 0.40000000
v -0.19921875 -0.23828125 -0.08203125 0.40000000 0.40000000 0.40000000
v -0.19921875 -0.23828125 -0.05859375 0.40000000 0.40000000 0.40000000
v -0.19921875 -0.23828125 -0.02734375 0.40000000 0.40000000 0.40000000
v -0.19921875 -0.23828125 -0.00390625 0.40000000 0.40000000 0.40000000
v -0.19921875 -0.23828125 0.01953125 0.40000000 0.40000000 0.40000000
v -0.19921875 -0.23828125 0.05078125 0.40000000 0.40000000 0.40000000
v -0.19921875 -0.23828125 0.07421875 0.40000000 0.40000000 0.40000000
v -0.19921875 -0.23828125 0.09765625 0.40000000 0.40000000 0.40000000
v -0.19921875 -0.23828125 0.12890625 0.40000000 0.40000000 0.40000000
v -0.19921875 -0.21484375 -0.12890625 0.40000000 0.40000000 0.40000000
v -0.19921875 -0.19140625 -0.12890625 0.40000000 0.40000000 0.40000000
v -0.19921875 -0.19140625 -0.10546875 0.40000000 0.40000000 0.40000000
v -0.19921875 -0.19140625 -0.08203125 0.40000000 0.40000000 0.40000000
v -0.19921875 -0.19140625 -0.05859375 0.40000000 0.40000000 0.40000000
v -0.19921875 -0.19140625 -0.02734375 0.40000000 0.40000000 0.40000000
v -0.19921875 -0.19140625 -0.00390625 0.40000000 0.40000000 0.40000000
v -0.19921875 -0.19140625 0.01953125 0.40000000 0.40000000 0.40000000
v -0.19921875 -0.19140625 0.05078125 0.40000000 0.40000000 0.40000000
v -0.19921875 -0.19140625 0.07421875 0.40000000 0.40000000 0.40000000
v -0.19921875 -0.19140625 0.09765625 0.40000000 0.40000000 0.40000000
v -0.19921875 -0.19140625 0.12890625 0.40000000 0.40000000 0.40000000
v -0.19140625 -0.33984375 -0.12890625 0.40000000 0.40000000 0.40000000
v -0.19140625 -0.33984375 0.12890625 0.40000000 0.40000000 0.40000000
v -0.19140625 -0.32421875 -0.12890625 0.40000000 0.40000000 0.40000000
v -0.19140625 -0.32421875 0.12890625 0.40000000 0.40000000 0.40000000
v -0.19140625 -0.31640625 -0.12890625 0.40000000 0.40000000 0.40000000
v -0.19140625 -0.31640625 -0.12109375 0.40000000 0.40000000 0.40000000
v -0.19140625 -0.31640625 0.12890625 0.40000000 0.40000000 0.40000000
v -0.19140625 -0.18359375 -0.12890625 0.40000000 0.40000000 0.40000000
v -0.19140625 -0.18359375 -0.12109375 0.40000000 0.40000000 0.40000000
v -0.19140625 -0.18359375 0.12890625 0.40000000 0.40000000 0.40000000
v -0.18359375 -0.31640625 -0.12890625 0.40000000 0.40000000 0.40000000
v -0.18359375 -0.31640625 -0.12109375 0.40000000 0.40000000 0.40000000
v -0.18359375 -0.17578125 -0.12890625 0.40000000 0.40000000 0.40000000
v -0.18359375 -0.17578125 -0.12109375 0.40000000 0.40000000 0.40000000
v -0.16796875 0.11328125 -0.12890625 0.40000000 0.40000000 0.40000000
v -0.16796875 0.11328125 -0.12109375 0.40000000 0.40000000 0.40000000
v -0.16796875 0.15234375 -0.12890625 0.40000000 0.40000000 0.40000000
v -0.16796875 0.15234375 -0.12109375 0.40000000 0.40000000 0.40000000
v -0.16796875 0.31640625 -0.12890625 0.40000000 0.40000000 0.40000000
v -0.16796875 0.31640625 -0.12109375 0.40000000 0.40000000 0.40000000
v -0.16015625 -0.33984375 -0.12890625 0.40000000 0.40000000 0.40000000
v -0.16015625 -0.33984375 0.05078125 0.40000000 0.40000000 0.40000000
v -0.16015625 -0.31640625 -0.12890625 0.40000000 0.40000000 0.40000000
v -0.16015625 -0.31640625 -0.12109375 0.40000000 0.40000000 0.40000000
v -0.16015625 -0.31640625 0.05078125 0.40000000 0.40000000 0.40000000
v -0.16015625 0.03515625 -0.12890625 0.40000000 0.40000000 0.40000000
v -0.16015625 0.03515625 -0.12109375 0.40000000 0.40000000 0.40000000
v -0.16015625 0.03515625 0.12890625 0.40000000 0.40000000 0.40000000
v -0.16015625 0.04296875 -0.12890625 0.40000000 0.40000000 0.40000000
v -0.16015625 0.04296875 0.12890625 0.40000000 0.40000000 0.40000000
v -0.16015625 0.05078125 -0.12890625 0.40000000 0.40000000 0.40000000
v -0.16015625 0.05078125 -0.12109375 0.40000000 0.40000000 0.40000000
v -0.16015625 0.05078125 0.05078125 0.40000000 0.40000000 0.40000000
v -0.16015625 0.05078125 0.12890625 0.40000000 0.40000000 0.40000000
v -0.16015625 0.05859375 -0.12890625 0.40000000 0.40000000 0.40000000
v -0.16015625 0.05859375 0.12890625 0.40000000 0.40000000 0.40000000
v -0.16015625 0.11328125 -0.12890625 0.40000000 0.40000000 0.40000000
v -0.16015625 0.11328125 -0.12109375 0.40000000 0.40000000 0.40000000
v -0.16015625 0.11328125 0.05078125 0.40000000 0.40000000 0.40000000
v -0.16015625 0.15234375 -0.12890625 0.40000000 0.40000000 0.40000000
v -0.16015625 0.15234375 -0.12109375 0.40000000 0.40000000 0.40000000
v -0.16015625 0.15234375 0.12890625 0.40000000 0.40000000 0.40000000
v -0.16015625 0.31640625 -0.12890625 0.40000000 0.40000000 0.40000000
v -0.16015625 0.31640625 -0.12109375 0.40000000 0.40000000 0.40000000
v -0.16015625 0.31640625 0.12890625 0.40000000 0.40000000 0.40000000
v -0.16015625 0.32421875 -0.12890625 0.40000000 0.40000000 0.40000000
v -0.16015625 0.32421875 0.12890625 0.40000000 0.40000000 0.40000000
v -0.15234375 0.05078125 -0.12890625 0.40000000 0.40000000 0.40000000
v -0.15234375 0.05078125 -0.12109375 0.40000000 0.40000000 0.40000000
v -0.15234375 0.05078125 0.05078125 0.40000000 0.40000000 0.40000000
v -0.15234375 0.05078125 0.12890625 0.40000000 0.40000000 0.40000000
v -0.15234375 0.05859375 -0.12890625 0.40000000 0.40000000 0.40000000
v -0.15234375 0.05859375 0.12890625 0.40000000 0.40000000 0.40000000
v -0.15234375 0.11328125 -0.12890625 0.40000000 0.40000000 0.40000000
v -0.15234375 0.11328125 0.05078125 0.40000000 0.40000000 0.40000000
v -0.15234375 0.12109375 -0.12890625 0.40000000 0.40000000 0.40000000
v -0.15234375 0.12109375 -0.12109375 0.40000000 0.40000000 0.40000000
v -0.15234375 0.12890625 -0.12890625 0.40000000 0.40000000 0.40000000
v -0.15234375 0.12890625 -0.12109375 0.40000000 0.40000000 0.40000000
v -0.15234375 0.14453125 -0.12890625 0.40000000 0.40000000 0.40000000
v -0.15234375 0.14453125 -0.12109375 0.40000000 0.40000000 0.40000000
v -0.15234375 0.14453125 0.05078125 0.40000000 0.40000000 0.40000000
v -0.15234375 0.14453125 0.12890625 0.40000000 0.40000000 0.40000000
v -0.15234375 0.15234375 -0.12890625 0.40000000 0.40000000 0.40000000
v -0.15234375 0.15234375 0.05078125 0.40000000 0.40000000 0.40000000
v -0.15234375 0.15234375 0.12890625 0.40000000 0.40000000 0.40000000
v -0.15234375 0.16015625 -0.12890625 0.40000000 0.40000000 0.40000000
v -0.15234375 0.16015625 0.05078125 0.40000000 0.40000000 0.40000000
v -0.15234375 0.16015625 0.12890625 0.40000000 0.40000000 0.40000000
v -0.15234375 0.33984375 -0.12890625 0.40000000 0.40000000 0.40000000
v -0.15234375 0.33984375 0.12890625 0.40000000 0.40000000 0.40000000
v -0.08203125 0.14453125 -0.12890625 0.40000000 0.40000000 0.40000000
v -0.08203125 0.14453125 0.05078125 0.40000000 0.40000000 0.40000000
v -0.08203125 0.16015625 -0.12890625 0.40000000 0.40000000 0.40000000
v -0.08203125 0.16015625 0.05078125 0.40000000 0.40000000 0.40000000
v -0.07421875 -0.33984375 -0.12890625 0.40000000 0.40000000 0.40000000
v -0.07421875 -0.33984375 0.05078125 0.40000000 0.40000000 0.40000000
v -0.07421875 -0.31640625 -0.12890625 0.40000000 0.40000000 0.40000000
v -0.07421875 -0.31640625 0.05078125 0.40000000 0.40000000 0.40000000
v -0.07421875 0.03515625 -0.12890625 0.40000000 0.40000000 0.40000000
v -0.07421875 0.03515625 -0.12109375 0.40000000 0.40000000 0.40000000
v -0.07421875 0.05078125 -0.12890625 0.40000000 0.40000000 0.40000000
v -0.07421875 0.05078125 -0.12109375 0.40000000 0.40000000 0.40000000
v -0.07421875 0.14453125 -0.12890625 0.40000000 0.40000000 0.40000000
v -0.07421875 0.14453125 -0.12109375 0.40000000 0.40000000 0.40000000
v -0.06640625 -0.31640625 -0.12890625 0.40000000 0.40000000 0.40000000
v -0.06640625 -0.31640625 -0.12109375 0.40000000 0.40000000 0.40000000
v -0.06640625 -0.31640625 0.12890625 0.40000000 0.40000000 0.40000000
v -0.06640625 -0.26171875 -0.12890625 0.40000000 0.40000000 0.40000000
v -0.06640625 -0.26171875 -0.12109375 0.40000000 0.40000000 0.40000000
v -0.06640625 -0.26171875 0.12890625 0.40000000 0.40000000 0.40000000
v -0.06640625 0.03515625 -0.12890625 0.40000000 0.40000000 0.40000000
v -0.06640625 0.03515625 0.05859375 0.40000000 0.40000000 0.40000000
v -0.06640625 0.05078125 -0.12890625 0.40000000 0.40000000 0.40000000
v -0.06640625 0.05078125 0.05859375 0.40000000 0.40000000 0.40000000
v -0.05859375 -0.32421875 -0.12890625 0.40000000 0.40000000 0.40000000
v -0.05859375 -0.32421875 0.12890625 0.40000000 0.40000000 0.40000000
v -0.05859375 -0.27734375 -0.12890625 0.40000000 0.40000000 0.40000000
v -0.05859375 -0.27734375 0.12890625 0.40000000 0.40000000 0.40000000
v -0.04296875 -0.33984375 -0.12890625 0.40000000 0.40000000 0.40000000
v -0.04296875 -0.33984375 0.12890625 0.40000000 0.40000000 0.40000000
v -0.04296875 -0.28515625 -0.12890625 0.40000000 0.40000000 0.40000000
v -0.04296875 -0.28515625 0.12890625 0.40000000 0.40000000 0.40000000
v 0.02734375 0.03515625 -0.12890625 0.40000000 0.40000000 0.40000000
v 0.02734375 0.03515625 0.05859375 0.40000000 0.40000000 0.40000000
v 0.02734375 0.05078125 -0.12890625 0.40000000 0.40000000 0.40000000
v 0.02734375 0.05078125 0.05859375 0.40000000 0.40000000 0.40000000
v 0.03515625 0.03515625 -0.12890625 0.40000000 0.40000000 0.40000000
v 0.03515625 0.03515625 -0.12109375 0.40000000 0.40000000 0.40000000
v 0.03515625 0.03515625 0.12890625 0.40000000 0.40000000 0.40000000
v 0.03515625 0.04296875 -0.12890625 0.40000000 0.40000000 0.40000000
v 0.03515625 0.04296875 0.12890625 0.40000000 0.40000000 0.40000000
v 0.03515625 0.05078125 -0.12890625 0.40000000 0.40000000 0.40000000
v 0.03515625 0.05078125 0.05078125 0.40000000 0.40000000 0.40000000
v 0.03515625 0.05078125 0.12890625 0.40000000 0.40000000 0.40000000
v 0.03515625 0.11328125 -0.12890625 0.40000000 0.40000000 0.40000000
v 0.03515625 0.11328125 0.05078125 0.40000000 0.40000000 0.40000000
v 0.03515625 0.12109375 -0.12890625 0.40000000 0.40000000 0.40000000
v 0.03515625 0.12109375 -0.12109375 0.40000000 0.40000000 0.40000000
v 0.03515625 0.14453125 -0.12890625 0.40000000 0.40000000 0.40000000
v 0.03515625 0.14453125 -0.12109375 0.40000000 0.40000000 0.40000000
v 0.03515625 0.14453125 0.12890625 0.40000000 0.40000000 0.40000000
v 0.03515625 0.15234375 -0.12890625 0.40000000 0.40000000 0.40000000
v 0.03515625 0.15234375 0.12890625 0.40000000 0.40000000 0.40000000
v 0.03515625 0.16015625 -0.12890625 0.40000000 0.40000000 0.40000000
v 0.03515625 0.16015625 0.12890625 0.40000000 0.40000000 0.40000000
v 0.03515625 0.32421875 -0.12890625 0.40000000 0.40000000 0.40000000
v 0.03515625 0.32421875 0.12890625 0.40000000 0.40000000 0.40000000
v 0.03515625 0.33984375 -0.12890625 0.40000000 0.40000000 0.40000000
v 0.03515625 0.33984375 0.12890625 0.40000000 0.40000000 0.40000000
v 0.04296875 0.05078125 -0.12890625 0.40000000 0.40000000 0.40000000
v 0.04296875 0.05078125 -0.12109375 0.40000000 0.40000000 0.40000000
v 0.04296875 0.05078125 0.05078125 0.40000000 0.40000000 0.40000000
v 0.04296875 0.05078125 0.12890625 0.40000000 0.40000000 0.40000000
v 0.04296875 0.11328125 -0.12890625 0.40000000 0.40000000 0.40000000
v 0.04296875 0.11328125 0.05078125 0.40000000 0.40000000 0.40000000
v 0.04296875 0.12109375 -0.12890625 0.40000000 0.40000000 0.40000000
v 0.04296875 0.12109375 -0.12109375 0.40000000 0.40000000 0.40000000
v 0.04296875 0.15234375 -0.12890625 0.40000000 0.40000000 0.40000000
v 0.04296875 0.15234375 -0.12109375 0.40000000 0.40000000 0.40000000
v 0.04296875 0.15234375 0.12890625 0.40000000 0.40000000 0.40000000
v 0.04296875 0.31640625 -0.12890625 0.40000000 0.40000000 0.40000000
v 0.04296875 0.31640625 -0.12109375 0.40000000 0.40000000 0.40000000
v 0.04296875 0.31640625 0.12890625 0.40000000 0.40000000 0.40000000
v 0.36328125 -0.26171875 -0.12890625 0.35686275 0.47450980 0.51764706
v 0.36328125 -0.26171875 -0.12109375 0.40000000 0.40000000 0.40000000
v 0.36328125 -0.26171875 0.12890625 0.40000000 0.40000000 0.40000000
v 0.36328125 -0.24609375 -0.12890625 0.40000000 0.40000000 0.40000000
v 0.36328125 -0.24609375 -0.12109375 0.40000000 0.40000000 0.40000000
v 0.36328125 -0.23828125 -0.12890625 0.40000000 0.40000000 0.40000000
v 0.36328125 -0.23828125 -0.12109375 0.40000000 0.40000000 0.40000000
v 0.36328125 -0.23828125 0.05859375 0.40000000 0.40000000 0.40000000
v 0.36328125 -0.00390625 -0.12890625 0.40000000 0.40000000 0.40000000
v 0.36328125 -0.00390625 -0.12109375 0.40000000 0.40000000 0.40000000
v 0.36328125 -0.00390625 0.05859375 0.40000000 0.40000000 0.40000000
v 0.36328125 0.03515625 -0.12890625 0.40000000 0.40000000 0.40000000
v 0.36328125 0.03515625 -0.12109375 0.40000000 0.40000000 0.40000000
v 0.36328125 0.03515625 0.12890625 0.40000000 0.40000000 0.40000000
v 0.36328125 0.05078125 -0.12890625 0.40000000 0.40000000 0.40000000
v 0.36328125 0.05078125 -0.12109375 0.40000000 0.40000000 0.40000000
v 0.36328125 0.05078125 0.12890625 0.40000000 0.40000000 0.40000000
v 0.36328125 0.09765625 -0.07421875 0.40000000 0.40000000 0.40000000
v 0.36328125 0.09765625 0.08984375 0.40000000 0.40000000 0.40000000
v 0.36328125 0.25390625 -0.07421875 0.40000000 0.40000000 0.40000000
v 0.36328125 0.25390625 0.08984375 0.40000000 0.40000000 0.40000000
v 0.36328125 0.31640625 -0.12890625 0.40000000 0.40000000 0.40000000
v 0.36328125 0.31640625 -0.12109375 0.40000000 0.40000000 0.40000000
v 0.36328125 0.31640625 0.12890625 0.40000000 0.40000000 0.40000000
v 0.37109375 0.04296875 -0.12890625 0.40000000 0.40000000 0.40000000
v 0.37109375 0.04296875 0.12890625 0.40000000 0.40000000 0.40000000
v 0.37109375 0.32421875 -0.12890625 0.40000000 0.40000000 0.40000000
v 0.37109375 0.32421875 0.12890625 0.40000000 0.40000000 0.40000000
v 0.37890625 -0.28515625 -0.12890625 0.40000000 0.40000000 0.40000000
v 0.37890625 -0.28515625 0.12890625 0.40000000 0.40000000 0.40000000
v 0.37890625 -0.27734375 -0.12890625 0.40000000 0.40000000 0.40000000
v 0.37890625 -0.27734375 -0.12109375 0.40000000 0.40000000 0.40000000
v 0.37890625 -0.27734375 0.12890625 0.40000000 0.40000000 0.40000000
v 0.37890625 0.04296875 -0.12890625 0.40000000 0.40000000 0.40000000
v 0.37890625 0.04296875 0.12890625 0.40000000 0.40000000 0.40000000
v 0.37890625 0.05078125 -0.12890625 0.40000000 0.40000000 0.40000000
v 0.37890625 0.05078125 0.12890625 0.40000000 0.40000000 0.40000000
v 0.37890625 0.09765625 -0.07421875 0.40000000 0.40000000 0.40000000
v 0.37890625 0.09765625 0.08984375 0.40000000 0.40000000 0.40000000
v 0.37890625 0.25390625 -0.07421875 0.40000000 0.40000000 0.40000000
v 0.37890625 0.25390625 0.08984375 0.40000000 0.40000000 0.40000000
v 0.37890625 0.33984375 -0.12890625 0.40000000 0.40000000 0.40000000
v 0.37890625 0.33984375 0.12890625 0.40000000 0.40000000 0.40000000
v 0.38671875 -0.26171875 -0.12890625 0.40000000 0.40000000 0.40000000
v 0.38671875 -0.26171875 -0.12109375 0.40000000 0.40000000 0.40000000
v 0.38671875 -0.26171875 -0.10546875 0.40000000 0.40000000 0.40000000
v 0.38671875 -0.26171875 -0.08203125 0.40000000 0.40000000 0.40000000
v 0.38671875 -0.26171875 -0.05859375 0.40000000 0.40000000 0.40000000
v 0.38671875 -0.26171875 -0.02734375 0.40000000 0.40000000 0.40000000
v 0.38671875 -0.26171875 -0.00390625 0.40000000 0.40000000 0.40000000
v 0.38671875 -0.26171875 0.01953125 0.40000000 0.40000000 0.40000000
v 0.38671875 -0.26171875 0.05078125 0.40000000 0.40000000 0.40000000
v 0.38671875 -0.26171875 0.07421875 0.40000000 0.40000000 0.40000000
v 0.38671875 -0.26171875 0.09765625 0.40000000 0.40000000 0.40000000
v 0.38671875 -0.26171875 0.12890625 0.40000000 0.40000000 0.40000000
v 0.38671875 -0.25390625 -0.12890625 0.40000000 0.40000000 0.40000000
v 0.38671875 -0.25390625 -0.12109375 0.40000000 0.40000000 0.40000000
v 0.38671875 -0.23828125 -0.12890625 0.40000000 0.40000000 0.40000000
v 0.38671875 -0.23828125 -0.12109375 0.40000000 0.40000000 0.40000000
v 0.38671875 -0.23828125 -0.10546875 0.40000000 0.40000000 0.40000000
v 0.38671875 -0.23828125 -0.08203125 0.40000000 0.40000000 0.40000000
v 0.38671875 -0.23828125 -0.05859375 0.40000000 0.40000000 0.40000000
v 0.38671875 -0.23828125 -0.02734375 0.40000000 0.40000000 0.40000000
v 0.38671875 -0.23828125 -0.00390625 0.40000000 0.40000000 0.40000000
v 0.38671875 -0.23828125 0.01953125 0.40000000 0.40000000 0.40000000
v 0.38671875 -0.23828125 0.05078125 0.40000000 0.40000000 0.40000000
v 0.38671875 -0.23828125 0.05859375 0.40000000 0.40000000 0.40000000
v 0.38671875 -0.23828125 0.07421875 0.40000000 0.40000000 0.40000000
v 0.38671875 -0.22265625 -0.12890625 0.40000000 0.40000000 0.40000000
v 0.38671875 -0.20703125 0.07421875 0.40000000 0.40000000 0.40000000
v 0.38671875 -0.20703125 0.09765625 0.40000000 0.40000000 0.40000000
v 0.38671875 -0.20703125 0.12890625 0.40000000 0.40000000 0.40000000
v 0.38671875 -0.19921875 -0.12890625 0.40000000 0.40000000 0.40000000
v 0.38671875 -0.16796875 -0.12890625 0.40000000 0.40000000 0.40000000
v 0.38671875 -0.14453125 -0.12890625 0.40000000 0.40000000 0.40000000
v 0.38671875 -0.14453125 0.07421875 0.40000000 0.40000000 0.40000000
v 0.38671875 -0.14453125 0.09765625 0.40000000 0.40000000 0.40000000
v 0.38671875 -0.14453125 0.12890625 0.40000000 0.40000000 0.40000000
v 0.38671875 -0.12890625 -0.12890625 0.40000000 0.40000000 0.40000000
v 0.38671875 -0.09765625 -0.12890625 0.40000000 0.40000000 0.40000000
v 0.38671875 -0.08984375 0.07421875 0.40000000 0.40000000 0.40000000
v 0.38671875 -0.08984375 0.09765625 0.40000000 0.40000000 0.40000000
v 0.38671875 -0.08984375 0.12890625 0.40000000 0.40000000 0.40000000
v 0.38671875 -0.07421875 -0.12890625 0.40000000 0.40000000 0.40000000
v 0.38671875 -0.05078125 -0.12890625 0.40000000 0.40000000 0.40000000
v 0.38671875 -0.02734375 -0.12890625 0.40000000 0.40000000 0.40000000
v 0.38671875 -0.02734375 0.07421875 0.40000000 0.40000000 0.40000000
v 0.38671875 -0.02734375 0.09765625 0.40000000 0.40000000 0.40000000
v 0.38671875 -0.02734375 0.12890625 0.40000000 0.40000000 0.40000000
v 0.38671875 -0.00390625 -0.12890625 0.40000000 0.40000000 0.40000000
v 0.38671875 -0.00390625 -0.12109375 0.40000000 0.40000000 0.40000000
v 0.38671875 -0.00390625 -0.10546875 0.40000000 0.40000000 0.40000000
v 0.38671875 -0.00390625 -0.08203125 0.40000000 0.40000000 0.40000000
v 0.38671875 -0.00390625 -0.05859375 0.40000000 0.40000000 0.40000000
v 0.38671875 -0.00390625 -0.02734375 0.40000000 0.40000000 0.40000000
v 0.38671875 -0.00390625 -0.00390625 0.40000000 0.40000000 0.40000000
v 0.38671875 -0.00390625 0.01953125 0.40000000 0.40000000 0.40000000
v 0.38671875 -0.00390625 0.05078125 0.40000000 0.40000000 0.40000000
v 0.38671875 -0.00390625 0.05859375 0.40000000 0.40000000 0.40000000
v 0.38671875 -0.00390625 0.07421875 0.40000000 0.40000000 0.40000000
v 0.38671875 0.00390625 -0.12890625 0.40000000 0.40000000 0.40000000
v 0.38671875 0.00390625 -0.10546875 0.40000000 0.40000000 0.40000000
v 0.38671875 0.00390625 -0.08203125 0.40000000 0.40000000 0.40000000
v 0.38671875 0.00390625 -0.05859375 0.40000000 0.40000000 0.40000000
v 0.38671875 0.00390625 -0.02734375 0.40000000 0.40000000 0.40000000
v 0.38671875 0.00390625 -0.00390625 0.40000000 0.40000000 0.40000000
v 0.38671875 0.00390625 0.01953125 0.40000000 0.40000000 0.40000000
v 0.38671875 0.03515625 -0.12890625 0.40000000 0.40000000 0.40000000
v 0.38671875 0.03515625 -0.12109375 0.40000000 0.40000000 0.40000000
v 0.38671875 0.03515625 -0.10546875 0.40000000 0.40000000 0.40000000
v 0.38671875 0.03515625 -0.08203125 0.40000000 0.40000000 0.40000000
v 0.38671875 0.03515625 -0.05859375 0.40000000 0.40000000 0.40000000
v 0.38671875 0.03515625 -0.02734375 0.40000000 0.40000000 0.40000000
v 0.38671875 0.03515625 -0.00390625 0.40000000 0.40000000 0.40000000
v 0.38671875 0.03515625 0.01953125 0.40000000 0.40000000 0.40000000
v 0.38671875 0.03515625 0.05078125 0.40000000 0.40000000 0.40000000
v 0.38671875 0.03515625 0.07421875 0.40000000 0.40000000 0.40000000
v 0.38671875 0.03515625 0.09765625 0.40000000 0.40000000 0.40000000
v 0.38671875 0.03515625 0.12890625 0.40000000 0.40000000 0.40000000
v 0.41015625 -0.26171875 -0.12890625 0.40000000 0.40000000 0.40000000
v 0.41015625 -0.26171875 -0.10546875 0.40000000 0.40000000 0.40000000
v 0.41015625 -0.26171875 -0.08203125 0.40000000 0.40000000 0.40000000
v 0.41015625 -0.26171875 -0.05859375 0.40000000 0.40000000 0.40000000
v 0.41015625 -0.26171875 -0.02734375 0.40000000 0.40000000 0.40000000
v 0.41015625 -0.26171875 -0.00390625 0.40000000 0.40000000 0.40000000
v 0.41015625 -0.26171875 0.01953125 0.40000000 0.40000000 0.40000000
v 0.41015625 -0.26171875 0.05078125 0.40000000 0.40000000 0.40000000
v 0.41015625 -0.26171875 0.07421875 0.40000000 0.40000000 0.40000000
v 0.41015625 -0.26171875 0.09765625 0.40000000 0.40000000 0.40000000
v 0.41015625 -0.26171875 0.12890625 0.40000000 0.40000000 0.40000000
v 0.41015625 -0.25390625 -0.12890625 0.40000000 0.40000000 0.40000000
v 0.41015625 -0.22265625 -0.12890625 0.40000000 0.40000000 0.40000000
v 0.41015625 -0.19921875 -0.12890625 0.40000000 0.40000000 0.40000000
v 0.41015625 -0.16796875 -0.12890625 0.40000000 0.40000000 0.40000000
v 0.41015625 -0.14453125 -0.12890625 0.40000000 0.40000000 0.40000000
v 0.41015625 -0.12890625 -0.12890625 0.40000000 0.40000000 0.40000000
v 0.41015625 -0.09765625 -0.12890625 0.40000000 0.40000000 0.40000000
v 0.41015625 -0.07421875 -0.12890625 0.40000000 0.40000000 0.40000000
v 0.41015625 -0.05078125 -0.12890625 0.40000000 0.40000000 0.40000000
v 0.41015625 -0.02734375 -0.12890625 0.40000000 0.40000000 0.40000000
v 0.41015625 0.00390625 -0.12890625 0.40000000 0.40000000 0.40000000
v 0.41015625 0.03515625 -0.12890625 0.40000000 0.40000000 0.40000000
v 0.43359375 -0.26171875 -0.12890625 0.40000000 0.40000000 0.40000000
v 0.43359375 -0.25390625 -0.12890625 0.40000000 0.40000000 0.40000000
v 0.43359375 -0.22265625 -0.12890625 0.40000000 0.40000000 0.40000000
v 0.43359375 -0.19921875 -0.12890625 0.40000000 0.40000000 0.40000000
v 0.43359375 -0.16796875 -0.12890625 0.40000000 0.40000000 0.40000000
v 0.43359375 -0.14453125 -0.12890625 0.40000000 0.40000000 0.40000000
v 0.43359375 -0.12890625 -0.12890625 0.40000000 0.40000000 0.40000000
v 0.43359375 -0.09765625 -0.12890625 0.40000000 0.40000000 0.40000000
v 0.43359375 -0.07421875 -0.12890625 0.40000000 0.40000000 0.40000000
v 0.43359375 -0.05078125 -0.12890625 0.40000000 0.40000000 0.40000000
v 0.43359375 -0.02734375 -0.12890625 0.40000000 0.40000000 0.40000000
v 0.43359375 0.00390625 -0.12890625 0.40000000 0.40000000 0.40000000
v 0.43359375 0.03515625 -0.12890625 0.40000000 0.40000000 0.40000000
v 0.44921875 0.03515625 -0.12890625 0.40000000 0.40000000 0.40000000
v 0.44921875 0.03515625 -0.10546875 0.40000000 0.40000000 0.40000000
v 0.44921875 0.03515625 -0.08203125 0.40000000 0.40000000 0.40000000
v 0.44921875 0.03515625 -0.05859375 0.40000000 0.40000000 0.40000000
v 0.44921875 0.03515625 -0.02734375 0.40000000 0.40000000 0.40000000
v 0.44921875 0.03515625 -0.00390625 0.40000000 0.40000000 0.40000000
v 0.44921875 0.03515625 0.01953125 0.40000000 0.40000000 0.40000000
v 0.44921875 0.03515625 0.05078125 0.40000000 0.40000000 0.40000000
v 0.44921875 0.03515625 0.07421875 0.40000000 0.40000000 0.40000000
v 0.44921875 0.03515625 0.09765625 0.40000000 0.40000000 0.40000000
v 0.44921875 0.03515625 0.12890625 0.40000000 0.40000000 0.40000000
v 0.45703125 -0.26171875 -0.12890625 0.40000000 0.40000000 0.40000000
v 0.45703125 -0.25390625 -0.12890625 0.40000000 0.40000000 0.40000000
v 0.45703125 -0.22265625 -0.12890625 0.40000000 0.40000000 0.40000000
v 0.45703125 -0.19921875 -0.12890625 0.40000000 0.40000000 0.40000000
v 0.45703125 -0.16796875 -0.12890625 0.40000000 0.40000000 0.40000000
v 0.45703125 -0.14453125 -0.12890625 0.40000000 0.40000000 0.40000000
v 0.45703125 -0.12890625 -0.12890625 0.40000000 0.40000000 0.40000000
v 0.45703125 -0.09765625 -0.12890625 0.40000000 0.40000000 0.40000000
v 0.45703125 -0.07421875 -0.12890625 0.40000000 0.40000000 0.40000000
v 0.45703125 -0.05078125 -0.12890625 0.40000000 0.40000000 0.40000000
v 0.45703125 -0.02734375 -0.12890625 0.40000000 0.40000000 0.40000000
v 0.45703125 0.00390625 -0.12890625 0.40000000 0.40000000 0.40000000
v 0.45703125 0.03515625 -0.12890625 0.40000000 0.40000000 0.40000000
v 0.48046875 -0.26171875 -0.12890625 0.40000000 0.40000000 0.40000000
v 0.48046875 -0.26171875 -0.12109375 0.40000000 0.40000000 0.40000000
v 0.48046875 -0.26171875 -0.10546875 0.40000000 0.40000000 0.40000000
v 0.48046875 -0.26171875 -0.08203125 0.40000000 0.40000000 0.40000000
v 0.48046875 -0.26171875 -0.05859375 0.40000000 0.40000000 0.40000000
v 0.48046875 -0.26171875 -0.02734375 0.40000000 0.40000000 0.40000000
v 0.48046875 -0.26171875 -0.00390625 0.40000000 0.40000000 0.40000000
v 0.48046875 -0.26171875 0.01953125 0.40000000 0.40000000 0.40000000
v 0.48046875 -0.26171875 0.05078125 0.40000000 0.40000000 0.40000000
v 0.48046875 -0.26171875 0.07421875 0.40000000 0.40000000 0.40000000
v 0.48046875 -0.26171875 0.09765625 0.40000000 0.40000000 0.40000000
v 0.48046875 -0.26171875 0.12890625 0.40000000 0.40000000 0.40000000
v 0.48046875 -0.25390625 -0.12890625 0.40000000 0.40000000 0.40000000
v 0.48046875 -0.24609375 -0.11328125 0.40000000 0.40000000 0.40000000
v 0.48046875 -0.24609375 -0.10546875 0.40000000 0.40000000 0.40000000
v 0.48046875 -0.24609375 -0.08203125 0.40000000 0.40000000 0.40000000
v 0.48046875 -0.24609375 -0.05859375 0.40000000 0.40000000 0.40000000
v 0.48046875 -0.24609375 -0.02734375 0.40000000 0.40000000 0.40000000
v 0.48046875 -0.24609375 -0.00390625 0.40000000 0.40000000 0.40000000
v 0.48046875 -0.24609375 0.01953125 0.40000000 0.40000000 0.40000000
v 0.48046875 -0.24609375 0.05078125 0.40000000 0.40000000 0.40000000
v 0.48046875 -0.24609375 0.07421875 0.40000000 0.40000000 0.40000000
v 0.48046875 -0.24609375 0.08984375 0.40000000 0.40000000 0.40000000
v 0.48046875 -0.22265625 -0.12890625 0.40000000 0.40000000 0.40000000
v 0.48046875 -0.22265625 -0.11328125 0.40000000 0.40000000 0.40000000
v 0.48046875 -0.22265625 0.08984375 0.40000000 0.40000000 0.40000000
v 0.48046875 -0.22265625 0.09765625 0.40000000 0.40000000 0.40000000
v 0.48046875 -0.22265625 0.12890625 0.40000000 0.40000000 0.40000000
v 0.48046875 -0.19921875 -0.12890625 0.40000000 0.40000000 0.40000000
v 0.48046875 -0.16796875 -0.12890625 0.40000000 0.40000000 0.40000000
v 0.48046875 -0.16015625 -0.12890625 0.40000000 0.40000000 0.40000000
v 0.48046875 -0.16015625 -0.11328125 0.40000000 0.40000000 0.40000000
v 0.48046875 -0.16015625 0.08984375 0.40000000 0.40000000 0.40000000
v 0.48046875 -0.16015625 0.09765625 0.40000000 0.40000000 0.40000000
v 0.48046875 -0.16015625 0.12890625 0.40000000 0.40000000 0.40000000
v 0.48046875 -0.14453125 -0.12890625 0.40000000 0.40000000 0.40000000
v 0.48046875 -0.12890625 -0.12890625 0.40000000 0.40000000 0.40000000
v 0.48046875 -0.09765625 -0.12890625 0.40000000 0.40000000 0.40000000
v 0.48046875 -0.09765625 -0.11328125 0.40000000 0.40000000 0.40000000
v 0.48046875 -0.09765625 0.08984375 0.40000000 0.40000000 0.40000000
v 0.48046875 -0.09765625 0.09765625 0.40000000 0.40000000 0.40000000
v 0.48046875 -0.09765625 0.12890625 0.40000000 0.40000000 0.40000000
v 0.48046875 -0.07421875 -0.12890625 0.40000000 0.40000000 0.40000000
v 0.48046875 -0.05078125 -0.12890625 0.40000000 0.40000000 0.40000000
v 0.48046875 -0.04296875 -0.12890625 0.40000000 0.40000000 0.40000000
v 0.48046875 -0.04296875 -0.11328125 0.40000000 0.40000000 0.40000000
v 0.48046875 -0.04296875 0.08984375 0.40000000 0.40000000 0.40000000
v 0.48046875 -0.04296875 0.09765625 0.40000000 0.40000000 0.40000000
v 0.48046875 -0.04296875 0.12890625 0.40000000 0.40000000 0.40000000
v 0.48046875 -0.02734375 -0.12890625 0.40000000 0.40000000 0.40000000
v 0.48046875 -0.02734375 0.09765625 0.40000000 0.40000000 0.40000000
v 0.48046875 -0.02734375 0.12890625 0.40000000 0.40000000 0.40000000
v 0.48046875 0.00390625 -0.12890625 0.40000000 0.40000000 0.40000000
v 0.48046875 0.01171875 -0.11328125 0.40000000 0.40000000 0.40000000
v 0.48046875 0.01171875 -0.10546875 0.40000000 0.40000000 0.40000000
v 0.48046875 0.01171875 -0.08203125 0.40000000 0.40000000 0.40000000
v 0.48046875 0.01171875 -0.05859375 0.40000000 0.40000000 0.40000000
v 0.48046875 0.01171875 -0.02734375 0.40000000 0.40000000 0.40000000
v 0.48046875 0.01171875 -0.00390625 0.40000000 0.40000000 0.40000000
v 0.48046875 0.01171875 0.01953125 0.40000000 0.40000000 0.40000000
v 0.48046875 0.01171875 0.05078125 0.40000000 0.40000000 0.40000000
v 0.48046875 0.01171875 0.07421875 0.40000000 0.40000000 0.40000000
v 0.48046875 0.01171875 0.08984375 0.40000000 0.40000000 0.40000000
v 0.48046875 0.03515625 -0.12890625 0.40000000 0.40000000 0.40000000
v 0.48046875 0.03515625 -0.12109375 0.40000000 0.40000000 0.40000000
v 0.48046875 0.03515625 -0.10546875 0.40000000 0.40000000 0.40000000
v 0.48046875 0.03515625 -0.08203125 0.40000000 0.40000000 0.40000000
v 0.48046875 0.03515625 -0.05859375 0.40000000 0.40000000 0.40000000
v 0.48046875 0.03515625 -0.02734375 0.40000000 0.40000000 0.40000000
v 0.48046875 0.03515625 -0.00390625 0.40000000 0.40000000 0.40000000
v 0.48046875 0.03515625 0.01953125 0.40000000 0.40000000 0.40000000
v 0.48046875 0.03515625 0.05078125 0.40000000 0.40000000 0.40000000
v 0.48046875 0.03515625 0.07421875 0.40000000 0.40000000 0.40000000
v 0.48046875 0.03515625 0.09765625 0.40000000 0.40000000 0.40000000
v 0.48046875 0.03515625 0.12890625 0.40000000 0.40000000 0.40000000
v 0.48828125 -0.27734375 -0.12890625 0.40000000 0.40000000 0.40000000
v 0.48828125 -0.27734375 0.12890625 0.40000000 0.40000000 0.40000000
v 0.48828125 -0.24609375 -0.11328125 0.40000000 0.40000000 0.40000000
v 0.48828125 -0.24609375 0.08984375 0.40000000 0.40000000 0.40000000
v 0.48828125 -0.22265625 -0.11328125 0.40000000 0.40000000 0.40000000
v 0.48828125 -0.22265625 0.08984375 0.40000000 0.40000000 0.40000000
v 0.48828125 -0.16015625 -0.11328125 0.40000000 0.40000000 0.40000000
v 0.48828125 -0.16015625 0.08984375 0.40000000 0.40000000 0.40000000
v 0.48828125 -0.09765625 -0.11328125 0.40000000 0.40000000 0.40000000
v 0.48828125 -0.09765625 0.08984375 0.40000000 0.40000000 0.40000000
v 0.48828125 -0.04296875 -0.11328125 0.40000000 0.40000000 0.40000000
v 0.48828125 -0.04296875 0.08984375 0.40000000 0.40000000 0.40000000
v 0.48828125 0.01171875 -0.11328125 0.40000000 0.40000000 0.40000000
v 0.48828125 0.01171875 0.08984375 0.40000000 0.40000000 0.40000000
v 0.48828125 0.04296875 -0.12890625 0.40000000 0.40000000 0.40000000
v 0.48828125 0.04296875 0.12890625 0.40000000 0.40000000 0.40000000
v 0.49609375 -0.28515625 -0.12890625 0.40000000 0.40000000 0.40000000
v 0.49609375 -0.28515625 0.12890625 0.40000000 0.40000000 0.40000000
v 0.49609375 -0.24609375 -0.11328125 0.40000000 0.40000000 0.40000000
v 0.49609375 -0.24609375 -0.10546875 0.40000000 0.40000000 0.40000000
v 0.49609375 -0.24609375 -0.08203125 0.40000000 0.40000000 0.40000000
v 0.49609375 -0.24609375 -0.05859375 0.40000000 0.40000000 0.40000000
v 0.49609375 -0.24609375 -0.02734375 0.40000000 0.40000000 0.40000000
v 0.49609375 -0.24609375 -0.00390625 0.40000000 0.40000000 0.40000000
v 0.49609375 -0.24609375 0.01953125 0.40000000 0.40000000 0.40000000
v 0.49609375 -0.24609375 0.05078125 0.40000000 0.40000000 0.40000000
v 0.49609375 -0.24609375 0.05859375 0.40000000 0.40000000 0.40000000
v 0.49609375 -0.24609375 0.07421875 0.40000000 0.40000000 0.40000000
v 0.49609375 -0.24609375 0.08984375 0.40000000 0.40000000 0.40000000
v 0.49609375 -0.22265625 -0.11328125 0.40000000 0.40000000 0.40000000
v 0.49609375 -0.22265625 0.08984375 0.40000000 0.40000000 0.40000000
v 0.49609375 -0.16015625 -0.11328125 0.40000000 0.40000000 0.40000000
v 0.49609375 -0.16015625 0.08984375 0.40000000 0.40000000 0.40000000
v 0.49609375 -0.09765625 -0.11328125 0.40000000 0.40000000 0.40000000
v 0.49609375 -0.09765625 0.08984375 0.40000000 0.40000000 0.40000000
v 0.49609375 -0.04296875 -0.11328125 0.40000000 0.40000000 0.40000000
v 0.49609375 -0.04296875 0.08984375 0.40000000 0.40000000 0.40000000
v 0.49609375 0.01171875 -0.11328125 0.40000000 0.40000000 0.40000000
v 0.49609375 0.01171875 -0.10546875 0.40000000 0.40000000 0.40000000
v 0.49609375 0.01171875 -0.08203125 0.40000000 0.40000000 0.40000000
v 0.49609375 0.01171875 -0.05859375 0.40000000 0.40000000 0.40000000
v 0.49609375 0.01171875 -0.02734375 0.40000000 0.40000000 0.40000000
v 0.49609375 0.01171875 -0.00390625 0.40000000 0.40000000 0.40000000
v 0.49609375 0.01171875 0.01953125 0.40000000 0.40000000 0.40000000
v 0.49609375 0.01171875 0.05078125 0.40000000 0.40000000 0.40000000
v 0.49609375 0.01171875 0.05859375 0.40000000 0.40000000 0.40000000
v 0.49609375 0.01171875 0.07421875 0.40000000 0.40000000 0.40000000
v 0.49609375 0.01171875 0.08984375 0.40000000 0.40000000 0.40000000
v 0.49609375 0.05078125 -0.12890625 0.40000000 0.40000000 0.40000000
v 0.49609375 0.05078125 0.12890625 0.40000000 0.40000000 0.40000000
v -0.19140625 -0.30859375 -0.12890625 0.70588235 0.50980392 0.27450980
v -0.16015625 -0.30859375 -0.12890625 0.70588235 0.50980392 0.27450980
v -0.16015625 -0.19140625 -0.12890625 0.70588235 0.50980392 0.27450980
v -0.19140625 -0.19140625 -0.12890625 0.70588235 0.50980392 0.27450980
v -0.19140625 -0.30859375 -0.02734375 0.70588235 0.50980392 0.27450980
v -0.16015625 -0.30859375 -0.02734375 0.70588235 0.50980392 0.27450980
v -0.16015625 -0.19140625 -0.02734375 0.70588235 0.50980392 0.27450980
v -0.19140625 -0.19140625 -0.02734375 0.70588235 0.50980392 0.27450980
v -0.03515625 -0.26171875 -0.12890625 0.70588235 0.50980392 0.27450980
v 0.03515625 -0.26171875 -0.12890625 0.70588235 0.50980392 0.27450980
v 0.03515625 -0.23828125 -0.12890625 0.70588235 0.50980392 0.27450980
v -0.03515625 -0.23828125 -0.12890625 0.70588235 0.50980392 0.27450980
v -0.03515625 -0.26171875 -0.03515625 0.70588235 0.50980392 0.27450980
v 0.03515625 -0.26171875 -0.03515625 0.70588235 0.50980392 0.27450980
v 0.03515625 -0.23828125 -0.03515625 0.70588235 0.50980392 0.27450980
v -0.03515625 -0.23828125 -0.03515625 0.70588235 0.50980392 0.27450980
v 0.10546875 -0.26171875 -0.12890625 0.00000000 0.54901961 1.00000000
v 0.28515625 -0.26171875 -0.12890625 0.00000000 0.54901961 1.00000000
v 0.28515625 -0.19921875 -0.12890625 0.00000000 0.54901961 1.00000000
v 0.10546875 -0.19921875 -0.12890625 0.00000000 0.54901961 1.00000000
v 0.10546875 -0.26171875 -0.06640625 0.00000000 0.54901961 1.00000000
v 0.28515625 -0.26171875 -0.06640625 0.00000000 0.54901961 1.00000000
v 0.28515625 -0.19921875 -0.06640625 0.00000000 0.54901961 1.00000000
v 0.10546875 -0.19921875 -0.06640625 0.00000000 0.54901961 1.00000000
v 0.25390625 -0.26171875 -0.12890625 0.19607843 0.78431373 1.00000000
v 0.36328125 -0.17578125 -0.12890625 0.19607843 0.78431373 1.00000000
v 0.25390625 -0.17578125 -0.12890625 0.19607843 0.78431373 1.00000000
v 0.25390625 -0.26171875 0.01953125 0.19607843 0.78431373 1.00000000
v 0.36328125 -0.26171875 0.01953125 0.19607843 0.78431373 1.00000000
v 0.36328125 -0.17578125 0.01953125 0.19607843 0.78431373 1.00000000
v 0.25390625 -0.17578125 0.01953125 0.19607843 0.78431373 1.00000000
v 0.05078125 -0.25390625 -0.12890625 0.70588235 0.50980392 0.27450980
v 0.09765625 -0.25390625 -0.12890625 0.70588235 0.50980392 0.27450980
v 0.09765625 -0.21484375 -0.12890625 0.70588235 0.50980392 0.27450980
v 0.05078125 -0.21484375 -0.12890625 0.70588235 0.50980392 0.27450980
v 0.05078125 -0.25390625 -0.08203125 0.70588235 0.50980392 0.27450980
v 0.09765625 -0.25390625 -0.08203125 0.70588235 0.50980392 0.27450980
v 0.09765625 -0.21484375 -0.08203125 0.70588235 0.50980392 0.27450980
v 0.05078125 -0.21484375 -0.08203125 0.70588235 0.50980392 0.27450980
v 0.29296875 -0.25390625 -0.12890625 0.70588235 0.50980392 0.27450980
v 0.33203125 -0.25390625 -0.12890625 0.70588235 0.50980392 0.27450980
v 0.33203125 -0.21484375 -0.12890625 0.70588235 0.50980392 0.27450980
v 0.29296875 -0.21484375 -0.12890625 0.70588235 0.50980392 0.27450980
v 0.29296875 -0.25390625 -0.08203125 0.70588235 0.50980392 0.27450980
v 0.33203125 -0.25390625 -0.08203125 0.70588235 0.50980392 0.27450980
v 0.33203125 -0.21484375 -0.08203125 0.70588235 0.50980392 0.27450980
v 0.29296875 -0.21484375 -0.08203125 0.70588235 0.50980392 0.27450980
v 0.05078125 -0.16796875 -0.12890625 0.00000000 0.54901961 1.00000000
v 0.12109375 -0.16796875 -0.12890625 0.00000000 0.54901961 1.00000000
v 0.12109375 -0.08203125 -0.12890625 0.00000000 0.54901961 1.00000000
v 0.05078125 -0.08203125 -0.12890625 0.00000000 0.54901961 1.00000000
v 0.05078125 -0.16796875 -0.08984375 0.00000000 0.54901961 1.00000000
v 0.12109375 -0.16796875 -0.08984375 0.00000000 0.54901961 1.00000000
v 0.12109375 -0.08203125 -0.08984375 0.00000000 0.54901961 1.00000000
v 0.05078125 -0.08203125 -0.08984375 0.00000000 0.54901961 1.00000000
v 0.15234375 -0.16796875 -0.12890625 0.70588235 0.50980392 0.27450980
v 0.24609375 -0.16796875 -0.12890625 0.70588235 0.50980392 0.27450980
v 0.24609375 -0.11328125 -0.12890625 0.70588235 0.50980392 0.27450980
v 0.15234375 -0.11328125 -0.12890625 0.70588235 0.50980392 0.27450980
v 0.15234375 -0.16796875 -0.09765625 0.70588235 0.50980392 0.27450980
v 0.24609375 -0.16796875 -0.09765625 0.70588235 0.50980392 0.27450980
v 0.24609375 -0.11328125 -0.09765625 0.70588235 0.50980392 0.27450980
v 0.15234375 -0.11328125 -0.09765625 0.70588235 0.50980392 0.27450980
v 0.27734375 -0.16015625 -0.12890625 0.31372549 0.47058824 0.62745098
v 0.32421875 -0.16015625 -0.12890625 0.31372549 0.47058824 0.62745098
v 0.32421875 -0.10546875 -0.12890625 0.31372549 0.47058824 0.62745098
v 0.27734375 -0.10546875 -0.12890625 0.31372549 0.47058824 0.62745098
v 0.27734375 -0.16015625 -0.08984375 0.31372549 0.47058824 0.62745098
v 0.32421875 -0.16015625 -0.08984375 0.31372549 0.47058824 0.62745098
v 0.32421875 -0.10546875 -0.08984375 0.31372549 0.47058824 0.62745098
v 0.27734375 -0.10546875 -0.08984375 0.31372549 0.47058824 0.62745098
v -0.33203125 -0.15234375 -0.12890625 0.78431373 0.39215686 0.78431373
v -0.30078125 -0.15234375 -0.12890625 0.78431373 0.39215686 0.78431373
v -0.30078125 -0.10546875 -0.12890625 0.78431373 0.39215686 0.78431373
v -0.33203125 -0.10546875 -0.12890625 0.78431373 0.39215686 0.78431373
v -0.33203125 -0.15234375 -0.05859375 0.78431373 0.39215686 0.78431373
v -0.30078125 -0.15234375 -0.05859375 0.78431373 0.39215686 0.78431373
v -0.30078125 -0.10546875 -0.05859375 0.78431373 0.39215686 0.78431373
v -0.33203125 -0.10546875 -0.05859375 0.78431373 0.39215686 0.78431373
v -0.28515625 -0.15234375 -0.12890625 0.78431373 0.39215686 0.78431373
v -0.25390625 -0.15234375 -0.12890625 0.78431373 0.39215686 0.78431373
v -0.25390625 -0.10546875 -0.12890625 0.78431373 0.39215686 0.78431373
v -0.28515625 -0.10546875 -0.12890625 0.78431373 0.39215686 0.78431373
v -0.28515625 -0.15234375 -0.05859375 0.78431373 0.39215686 0.78431373
v -0.25390625 -0.15234375 -0.05859375 0.78431373 0.39215686 0.78431373
v -0.25390625 -0.10546875 -0.05859375 0.78431373 0.39215686 0.78431373
v -0.28515625 -0.10546875 -0.05859375 0.78431373 0.39215686 0.78431373
v -0.34765625 -0.12109375 -0.12890625 0.78431373 0.78431373 0.31372549
v -0.23046875 -0.12109375 -0.12890625 0.78431373 0.78431373 0.31372549
v -0.23046875 -0.05859375 -0.12890625 0.78431373 0.78431373 0.31372549
v -0.34765625 -0.05859375 -0.12890625 0.78431373 0.78431373 0.31372549
v -0.34765625 -0.12109375 -0.06640625 0.78431373 0.78431373 0.31372549
v -0.23046875 -0.12109375 -0.06640625 0.78431373 0.78431373 0.31372549
v -0.23046875 -0.05859375 -0.06640625 0.78431373 0.78431373 0.31372549
v -0.34765625 -0.05859375 -0.06640625 0.78431373 0.78431373 0.31372549
v -0.33203125 -0.07421875 -0.12890625 0.78431373 0.39215686 0.78431373
v -0.29296875 -0.07421875 -0.12890625 0.78431373 0.39215686 0.78431373
v -0.29296875 -0.02734375 -0.12890625 0.78431373 0.39215686 0.78431373
v -0.33203125 -0.02734375 -0.12890625 0.78431373 0.39215686 0.78431373
v -0.33203125 -0.07421875 -0.05859375 0.78431373 0.39215686 0.78431373
v -0.29296875 -0.07421875 -0.05859375 0.78431373 0.39215686 0.78431373
v -0.29296875 -0.02734375 -0.05859375 0.78431373 0.39215686 0.78431373
v -0.33203125 -0.02734375 -0.05859375 0.78431373 0.39215686 0.78431373
v -0.27734375 -0.07421875 -0.12890625 0.78431373 0.39215686 0.78431373
v -0.24609375 -0.07421875 -0.12890625 0.78431373 0.39215686 0.78431373
v -0.24609375 -0.02734375 -0.12890625 0.78431373 0.39215686 0.78431373
v -0.27734375 -0.02734375 -0.12890625 0.78431373 0.39215686 0.78431373
v -0.27734375 -0.07421875 -0.05859375 0.78431373 0.39215686 0.78431373
v -0.24609375 -0.07421875 -0.05859375 0.78431373 0.39215686 0.78431373
v -0.24609375 -0.02734375 -0.05859375 0.78431373 0.39215686 0.78431373
v -0.27734375 -0.02734375 -0.05859375 0.78431373 0.39215686 0.78431373
v -0.37890625 0.00390625 -0.12890625 0.70588235 0.50980392 0.27450980
v -0.22265625 0.00390625 -0.12890625 0.70588235 0.50980392 0.27450980
v -0.22265625 0.03515625 -0.12890625 0.70588235 0.50980392 0.27450980
v -0.37890625 0.03515625 -0.12890625 0.70588235 0.50980392 0.27450980
v -0.37890625 0.00390625 -0.05078125 0.70588235 0.50980392 0.27450980
v -0.22265625 0.00390625 -0.05078125 0.70588235 0.50980392 0.27450980
v -0.22265625 0.03515625 -0.05078125 0.70588235 0.50980392 0.27450980
v -0.37890625 0.03515625 -0.05078125 0.70588235 0.50980392 0.27450980
v 0.12890625 0.01171875 -0.12890625 0.70588235 0.50980392 0.27450980
v 0.29296875 0.01171875 -0.12890625 0.70588235 0.50980392 0.27450980
v 0.29296875 0.03515625 -0.12890625 0.70588235 0.50980392 0.27450980
v 0.12890625 0.03515625 -0.12890625 0.70588235 0.50980392 0.27450980
v 0.12890625 0.01171875 -0.08984375 0.70588235 0.50980392 0.27450980
v 0.29296875 0.01171875 -0.08984375 0.70588235 0.50980392 0.27450980
v 0.29296875 0.03515625 -0.08984375 0.70588235 0.50980392 0.27450980
v 0.12890625 0.03515625 -0.08984375 0.70588235 0.50980392 0.27450980
v 0.31640625 0.01171875 -0.12890625 0.70588235 0.50980392 0.27450980
v 0.35546875 0.01171875 -0.12890625 0.70588235 0.50980392 0.27450980
v 0.35546875 0.03515625 -0.12890625 0.70588235 0.50980392 0.27450980
v 0.31640625 0.03515625 -0.12890625 0.70588235 0.50980392 0.27450980
v 0.31640625 0.01171875 -0.03515625 0.70588235 0.50980392 0.27450980
v 0.35546875 0.01171875 -0.03515625 0.70588235 0.50980392 0.27450980
v 0.35546875 0.03515625 -0.03515625 0.70588235 0.50980392 0.27450980
v 0.31640625 0.03515625 -0.03515625 0.70588235 0.50980392 0.27450980
v -0.43359375 0.06640625 -0.12890625 0.78431373 0.39215686 0.78431373
v -0.34765625 0.06640625 -0.12890625 0.78431373 0.39215686 0.78431373
v -0.34765625 0.15234375 -0.12890625 0.78431373 0.39215686 0.78431373
v -0.43359375 0.15234375 -0.12890625 0.78431373 0.39215686 0.78431373
v -0.43359375 0.06640625 -0.08203125 0.78431373 0.39215686 0.78431373
v -0.34765625 0.06640625 -0.08203125 0.78431373 0.39215686 0.78431373
v -0.34765625 0.15234375 -0.08203125 0.78431373 0.39215686 0.78431373
v -0.43359375 0.15234375 -0.08203125 0.78431373 0.39215686 0.78431373
v 0.10546875 0.16796875 -0.12890625 0.31372549 0.78431373 0.94117647
v 0.28515625 0.16796875 -0.12890625 0.31372549 0.78431373 0.94117647
v 0.28515625 0.26953125 -0.12890625 0.31372549 0.78431373 0.94117647
v 0.10546875 0.26953125 -0.12890625 0.31372549 0.78431373 0.94117647
v 0.10546875 0.16796875 0.05859375 0.31372549 0.78431373 0.94117647
v 0.28515625 0.16796875 0.05859375 0.31372549 0.78431373 0.94117647
v 0.28515625 0.26953125 0.05859375 0.31372549 0.78431373 0.94117647
v 0.10546875 0.26953125 0.05859375 0.31372549 0.78431373 0.94117647
v -0.41015625 0.19140625 -0.12890625 0.31372549 0.78431373 0.94117647
v -0.25390625 0.19140625 -0.12890625 0.31372549 0.78431373 0.94117647
v -0.25390625 0.26953125 -0.12890625 0.31372549 0.78431373 0.94117647
v -0.41015625 0.26953125 -0.12890625 0.31372549 0.78431373 0.94117647
v -0.41015625 0.19140625 0.04296875 0.31372549 0.78431373 0.94117647
v -0.25390625 0.19140625 0.04296875 0.31372549 0.78431373 0.94117647
v -0.25390625 0.26953125 0.04296875 0.31372549 0.78431373 0.94117647
v -0.41015625 0.26953125 0.04296875 0.31372549 0.78431373 0.94117647
v 0.28515625 0.21484375 -0.12890625 0.78431373 0.39215686 0.78431373
v 0.34765625 0.21484375 -0.12890625 0.78431373 0.39215686 0.78431373
v 0.34765625 0.30078125 -0.12890625 0.78431373 0.39215686 0.78431373
v 0.28515625 0.30078125 -0.12890625 0.78431373 0.39215686 0.78431373
v 0.28515625 0.21484375 -0.08203125 0.78431373 0.39215686 0.78431373
v 0.34765625 0.21484375 -0.08203125 0.78431373 0.39215686 0.78431373
v 0.34765625 0.30078125 -0.08203125 0.78431373 0.39215686 0.78431373
v 0.28515625 0.30078125 -0.08203125 0.78431373 0.39215686 0.78431373
v -0.45703125 0.27734375 -0.12890625 0.70588235 0.50980392 0.27450980
v -0.41796875 0.27734375 -0.12890625 0.70588235 0.50980392 0.27450980
v -0.41796875 0.32421875 -0.12890625 0.70588235 0.50980392 0.27450980
v -0.45703125 0.32421875 -0.12890625 0.70588235 0.50980392 0.27450980
v -0.45703125 0.27734375 -0.09765625 0.70588235 0.50980392 0.27450980
v -0.41796875 0.27734375 -0.09765625 0.70588235 0.50980392 0.27450980
v -0.41796875 0.32421875 -0.09765625 0.70588235 0.50980392 0.27450980
v -0.45703125 0.32421875 -0.09765625 0.70588235 0.50980392 0.27450980
v -0.25390625 0.27734375 -0.12890625 0.70588235 0.50980392 0.27450980
v -0.21484375 0.27734375 -0.12890625 0.70588235 0.50980392 0.27450980
v -0.21484375 0.32421875 -0.12890625 0.70588235 0.50980392 0.27450980
v -0.25390625 0.32421875 -0.12890625 0.70588235 0.50980392 0.27450980
v -0.25390625 0.27734375 -0.09765625 0.70588235 0.50980392 0.27450980
v -0.21484375 0.27734375 -0.09765625 0.70588235 0.50980392 0.27450980
v -0.21484375 0.32421875 -0.09765625 0.70588235 0.50980392 0.27450980
v -0.25390625 0.32421875 -0.09765625 0.70588235 0.50980392 0.27450980
v -0.35546875 0.14453125 0.01171875 0.19607843 0.78431373 1.00000000
v -0.30078125 0.14453125 0.01171875 0.19607843 0.78431373 1.00000000
v -0.30078125 0.22265625 0.01171875 0.19607843 0.78431373 1.00000000
v -0.35546875 0.22265625 0.01171875 0.19607843 0.78431373 1.00000000
v -0.35546875 0.14453125 0.04296875 0.19607843 0.78431373 1.00000000
v -0.30078125 0.14453125 0.04296875 0.19607843 0.78431373 1.00000000
v -0.30078125 0.22265625 0.04296875 0.19607843 0.78431373 1.00000000
v -0.35546875 0.22265625 0.04296875 0.19607843 0.78431373 1.00000000
v 0.15234375 -0.15234375 0.02734375 0.19607843 0.78431373 1.00000000
v 0.23046875 -0.15234375 0.02734375 0.19607843 0.78431373 1.00000000
v 0.23046875 -0.06640625 0.02734375 0.19607843 0.78431373 1.00000000
v 0.15234375 -0.06640625 0.02734375 0.19607843 0.78431373 1.00000000
v 0.15234375 -0.15234375 0.08984375 0.19607843 0.78431373 1.00000000
v 0.23046875 -0.15234375 0.08984375 0.19607843 0.78431373 1.00000000
v 0.23046875 -0.06640625 0.08984375 0.19607843 0.78431373 1.00000000
v 0.15234375 -0.06640625 0.08984375 0.19607843 0.78431373 1.00000000
v 0.16015625 0.16796875 0.03515625 0.19607843 0.78431373 1.00000000
v 0.22265625 0.16796875 0.03515625 0.19607843 0.78431373 1.00000000
v 0.22265625 0.17578125 0.03515625 0.19607843 0.78431373 1.00000000
v 0.16015625 0.17578125 0.03515625 0.19607843 0.78431373 1.00000000
v 0.16015625 0.16796875 0.04296875 0.19607843 0.78431373 1.00000000
v 0.22265625 0.16796875 0.04296875 0.19607843 0.78431373 1.00000000
v 0.22265625 0.17578125 0.04296875 0.19607843 0.78431373 1.00000000
v 0.16015625 0.17578125 0.04296875 0.19607843 0.78431373 1.00000000
v -0.33203125 -0.12109375 0.04296875 0.19607843 0.78431373 1.00000000
v -0.28515625 -0.12109375 0.04296875 0.19607843 0.78431373 1.00000000
v -0.28515625 -0.05859375 0.04296875 0.19607843 0.78431373 1.00000000
v -0.33203125 -0.05859375 0.04296875 0.19607843 0.78431373 1.00000000
v -0.33203125 -0.12109375 0.10546875 0.19607843 0.78431373 1.00000000
v -0.28515625 -0.12109375 0.10546875 0.19607843 0.78431373 1.00000000
v -0.28515625 -0.05859375 0.10546875 0.19607843 0.78431373 1.00000000
v -0.33203125 -0.05859375 0.10546875 0.19607843 0.78431373 1.00000000
f 23 312 313
f 23 313 24
f 313 312 333
f 312 23 314
f 23 24 25
f 24 313 53
f 313 333 412
f 333 312 332
f 312 314 334
f 314 23 52
f 23 25 34
f 25 24 29
f 24 53 40
f 53 313 315
f 313 412 315
f 412 333 388
f 333 332 336
f 332 312 334
f 334 314 316
f 314 52 266
f 52 23 39
f 23 34 39
f 29 24 38
f 24 40 38
f 40 53 76
f 53 315 76
f 315 412 408
f 412 388 387
f 388 333 336
f 336 332 334
f 334 316 318
f 316 314 266
f 266 52 66
f 52 39 66
f 39 34 38
f 38 40 39
f 40 76 113
f 76 315 276
f 315 408 318
f 408 412 414
f 412 387 411
f 387 388 389
f 388 336 390
f 336 334 318
f 334 332 387
f 318 316 321
f 316 334 335
f 316 266 319
f 66 39 103
f 39 40 41
f 40 113 60
f 276 315 318
f 318 408 399
f 408 414 399
f 414 412 411
f 411 387 397
f 387 389 334
f 387 389 397
f 389 388 390
f 390 336 318
f 318 321 311
f 321 316 319
f 316 335 317
f 335 334 323
f 316 319 324
f 319 266 301
f 103 39 59
f 39 41 43
f 41 40 42
f 40 60 46
f 60 113 311
f 276 318 311
f 318 399 390
f 399 414 402
f 414 411 413
f 397 389 390
f 311 321 60
f 321 319 243
f 319 316 397
f 319 316 317
f 323 334 322
f 316 324 322
f 324 319 250
f 319 301 227
f 103 59 149
f 39 43 45
f 43 41 119
f 41 42 119
f 42 40 44
f 40 46 44
f 46 60 116
f 390 399 397
f 399 402 400
f 414 413 485
f 413 411 407
f 407 397 413
f 321 243 116
f 243 319 235
f 319 397 400
f 319 317 320
f 323 322 325
f 322 324 325
f 324 250 251
f 250 319 248
f 319 227 235
f 103 149 141
f 39 45 114
f 45 43 44
f 43 119 121
f 119 42 120
f 42 44 122
f 44 46 45
f 46 116 125
f 397 399 400
f 400 402 456
f 414 485 410
f 485 413 484
f 413 397 400
f 116 243 157
f 235 319 320
f 319 400 456
f 400 397 398
f 320 317 323
f 323 325 320
f 325 324 251
f 251 250 249
f 250 248 249
f 248 319 320
f 235 227 228
f 103 141 142
f 141 149 151
f 114 45 123
f 44 43 122
f 43 121 122
f 121 119 123
f 119 120 114
f 120 42 122
f 45 46 1
f 46 125 62
f 125 116 120
f 397 400 401
f 400 456 409
f 400 456 457
f 456 402 458
f 410 485 488
f 485 484 727
f 484 413 486
f 116 157 149
f 235 320 236
f 319 456 461
f 456 400 401
f 400 398 401
f 398 397 401
f 320 325 249
f 325 251 249
f 249 248 320
f 235 228 237
f 228 227 256
f 227 235 149
f 103 142 104
f 142 141 151
f 149 141 227
f 114 123 119
f 123 45 61
f 122 121 125
f 121 123 125
f 114 120 116
f 120 122 125
f 45 1 61
f 1 46 2
f 46 62 10
f 62 125 339
f 401 400 457
f 409 456 486
f 457 456 401
f 457 456 460
f 456 458 461
f 458 402 488
f 410 488 402
f 488 485 727
f 727 484 726
f 484 486 710
f 486 413 409
f 116 149 114
f 319 461 513
f 237 228 229
f 228 256 257
f 256 227 255
f 103 104 90
f 104 142 143
f 142 151 152
f 123 114 319
f 123 114 115
f 123 61 340
f 125 123 339
f 61 1 9
f 1 2 3
f 2 46 10
f 10 62 15
f 62 339 341
f 486 456 499
f 456 457 459
f 457 460 459
f 460 456 459
f 456 461 513
f 461 458 463
f 458 488 510
f 488 727 711
f 727 726 736
f 726 484 710
f 710 486 635
f 114 149 150
f 319 513 545
f 513 461 462
f 513 461 463
f 237 229 238
f 229 228 257
f 257 256 303
f 256 255 302
f 103 90 139
f 90 104 91
f 104 143 105
f 143 142 152
f 123 319 464
f 123 115 124
f 115 114 150
f 123 340 337
f 340 61 342
f 339 123 337
f 61 9 63
f 9 1 7
f 1 3 5
f 3 2 4
f 2 10 8
f 10 15 8
f 15 62 65
f 62 341 65
f 341 339 421
f 486 499 635
f 499 456 513
f 463 458 466
f 458 510 469
f 510 488 711
f 711 727 759
f 727 736 759
f 736 726 728
f 726 710 758
f 710 635 758
f 150 149 159
f 149 114 117
f 319 545 464
f 513 462 514
f 462 461 514
f 461 513 514
f 513 463 522
f 238 229 230
f 229 257 258
f 257 303 304
f 303 256 302
f 302 255 301
f 103 139 140
f 139 90 138
f 90 91 82
f 91 104 105
f 105 143 144
f 143 152 153
f 123 464 467
f 123 124 117
f 123 124 337
f 115 150 159
f 123 337 338
f 337 340 405
f 340 342 359
f 342 61 63
f 339 337 404
f 63 9 13
f 9 7 13
f 7 1 5
f 5 3 16
f 3 4 16
f 4 2 6
f 2 8 6
f 8 15 22
f 15 65 63
f 65 341 345
f 341 421 423
f 421 339 404
f 499 486 487
f 499 513 515
f 463 466 554
f 466 458 469
f 469 510 574
f 510 711 646
f 711 759 646
f 759 736 755
f 728 726 758
f 758 635 724
f 159 149 158
f 149 117 158
f 464 545 546
f 464 545 554
f 522 463 554
f 238 230 239
f 230 229 258
f 258 257 304
f 304 303 292
f 303 302 291
f 302 301 290
f 301 255 300
f 140 139 162
f 139 138 161
f 138 90 82
f 82 91 83
f 91 105 92
f 105 144 106
f 144 143 153
f 467 464 466
f 467 464 465
f 117 124 118
f 124 123 338
f 337 124 338
f 115 159 118
f 338 337 392
f 337 405 403
f 405 340 359
f 359 342 344
f 342 63 64
f 342 63 65
f 404 337 403
f 63 13 14
f 63 13 15
f 13 7 20
f 7 5 6
f 5 16 18
f 16 4 17
f 4 6 19
f 6 8 7
f 8 22 12
f 22 15 17
f 65 345 342
f 345 341 362
f 341 423 362
f 423 421 469
f 421 404 416
f 499 487 500
f 487 486 512
f 499 515 501
f 554 466 464
f 466 469 467
f 469 574 490
f 646 759 725
f 759 755 747
f 728 758 747
f 758 724 489
f 724 635 698
f 159 158 118
f 158 117 118
f 464 546 465
f 546 545 465
f 545 464 465
f 545 464 563
f 239 230 231
f 230 258 259
f 258 304 305
f 304 292 293
f 292 303 291
f 291 302 290
f 290 301 289
f 300 255 254
f 140 162 163
f 162 139 161
f 161 138 160
f 138 82 137
f 82 83 66
f 83 91 92
f 92 105 106
f 106 144 145
f 144 153 154
f 464 467 563
f 464 467 468
f 467 465 468
f 465 464 468
f 337 338 391
f 338 392 391
f 392 337 391
f 403 405 406
f 405 359 362
f 359 344 361
f 342 359 348
f 342 64 343
f 64 63 14
f 64 63 343
f 63 342 343
f 404 403 406
f 14 13 64
f 14 13 21
f 13 63 64
f 15 13 17
f 13 20 21
f 13 20 16
f 20 7 11
f 6 5 19
f 5 18 19
f 18 16 20
f 16 17 13
f 17 4 19
f 7 8 381
f 8 12 358
f 12 22 356
f 22 17 19
f 345 362 353
f 362 423 426
f 423 469 481
f 469 421 419
f 421 416 415
f 416 404 406
f 499 500 511
f 499 500 635
f 500 487 512
f 512 486 511
f 499 501 575
f 501 515 516
f 467 469 419
f 469 490 481
f 490 574 709
f 646 725 709
f 725 759 492
f 759 747 758
f 758 489 491
f 489 724 563
f 724 698 563
f 698 635 636
f 545 563 564
f 239 231 240
f 231 230 259
f 259 258 305
f 305 304 293
f 293 292 281
f 292 291 280
f 291 290 279
f 290 289 278
f 300 254 288
f 254 255 247
f 163 162 181
f 162 161 180
f 161 160 169
f 160 138 137
f 137 82 66
f 66 83 67
f 83 92 84
f 92 106 93
f 106 145 107
f 145 144 154
f 563 467 489
f 468 467 420
f 467 468 419
f 406 405 362
f 405 403 415
f 361 344 366
f 348 359 365
f 13 14 20
f 14 21 20
f 21 20 331
f 20 13 342
f 20 11 357
f 11 7 381
f 19 18 22
f 18 20 22
f 381 8 382
f 8 358 382
f 358 12 356
f 356 22 20
f 345 353 350
f 353 362 374
f 362 426 418
f 426 423 445
f 423 481 445
f 419 421 415
f 415 416 417
f 416 406 418
f 511 500 512
f 500 499 636
f 499 635 636
f 635 500 636
f 575 501 576
f 501 516 502
f 467 419 420
f 467 419 480
f 481 490 472
f 490 709 725
f 725 492 490
f 492 759 758
f 758 491 492
f 563 698 699
f 698 636 699
f 636 635 699
f 635 698 699
f 545 564 546
f 564 563 546
f 564 563 699
f 563 545 546
f 240 231 232
f 231 259 260
f 259 305 306
f 305 293 294
f 293 281 282
f 281 292 280
f 280 291 279
f 279 290 278
f 278 289 277
f 288 254 253
f 254 247 246
f 163 181 182
f 181 162 180
f 180 161 169
f 66 67 126
f 67 83 84
f 84 92 93
f 106 107 98
f 107 145 146
f 145 154 155
f 489 467 480
f 468 420 419
f 406 362 418
f 405 415 417
f 361 366 374
f 366 344 350
f 348 365 366
f 20 21 354
f 331 20 330
f 20 342 354
f 20 357 354
f 357 11 381
f 381 382 375
f 382 358 356
f 356 20 354
f 345 350 344
f 350 353 351
f 353 374 433
f 374 362 361
f 418 426 424
f 426 445 433
f 445 481 472
f 419 415 422
f 415 417 422
f 417 416 418
f 575 576 635
f 576 501 502
f 502 516 517
f 480 419 422
f 472 490 498
f 699 698 564
f 698 563 564
f 240 232 241
f 232 231 260
f 260 259 306
f 306 305 294
f 294 293 282
f 282 281 271
f 281 280 270
f 280 279 269
f 279 278 268
f 278 277 267
f 288 253 266
f 253 254 246
f 246 247 210
f 182 181 185
f 181 180 184
f 180 169 183
f 126 67 127
f 67 84 68
f 84 93 85
f 98 107 99
f 107 146 108
f 146 145 155
f 489 480 497
f 374 366 365
f 366 350 348
f 365 348 371
f 354 21 355
f 331 330 329
f 354 357 381
f 381 375 354
f 375 382 377
f 382 356 377
f 356 354 353
f 350 351 348
f 351 353 354
f 353 433 435
f 433 374 373
f 418 424 417
f 426 433 428
f 433 445 452
f 445 472 470
f 422 417 424
f 635 576 637
f 576 502 577
f 502 517 503
f 480 422 470
f 472 498 479
f 498 490 494
f 241 232 233
f 232 260 261
f 260 306 307
f 306 294 295
f 294 282 283
f 282 271 272
f 271 281 270
f 270 280 269
f 269 279 268
f 268 278 267
f 267 277 266
f 266 253 252
f 253 246 245
f 246 210 209
f 182 185 186
f 185 181 184
f 184 180 183
f 126 127 169
f 127 67 68
f 68 84 85
f 85 93 32
f 98 99 54
f 99 107 108
f 108 146 147
f 146 155 156
f 489 497 493
f 497 480 470
f 374 365 371
f 371 348 351
f 354 355 351
f 331 329 352
f 329 330 328
f 354 375 351
f 377 356 353
f 353 351 347
f 353 435 380
f 435 433 452
f 433 373 384
f 426 428 425
f 428 433 431
f 452 445 444
f 445 470 442
f 470 472 473
f 422 424 442
f 635 637 648
f 637 576 577
f 577 502 503
f 503 517 518
f 470 422 442
f 472 479 476
f 479 498 483
f 498 494 496
f 494 490 489
f 241 233 242
f 233 232 261
f 261 260 307
f 307 306 295
f 295 294 283
f 283 282 272
f 272 271 222
f 271 270 221
f 270 269 220
f 269 268 219
f 268 267 218
f 267 266 217
f 252 253 245
f 245 246 209
f 209 210 206
f 186 185 205
f 185 184 204
f 184 183 203
f 169 127 170
f 127 68 128
f 68 85 69
f 85 32 30
f 32 93 34
f 54 99 55
f 99 108 100
f 108 147 109
f 147 146 156
f 489 493 494
f 493 497 495
f 497 470 477
f 371 351 378
f 354 351 328
f 351 355 352
f 331 352 355
f 352 329 349
f 329 328 327
f 328 330 354
f 351 375 371
f 353 347 364
f 347 351 346
f 380 435 437
f 435 452 437
f 433 384 383
f 384 373 379
f 425 428 447
f 428 431 427
f 431 433 383
f 452 444 447
f 442 470 471
f 442 470 453
f 470 473 475
f 473 472 474
f 442 424 425
f 635 648 658
f 648 637 649
f 637 577 638
f 577 503 578
f 503 518 504
f 470 442 443
f 472 476 474
f 476 479 477
f 479 483 439
f 483 498 441
f 498 496 495
f 496 494 474
f 242 233 234
f 233 261 262
f 261 307 308
f 307 295 296
f 295 283 284
f 283 272 273
f 272 222 223
f 222 271 221
f 221 270 220
f 220 269 219
f 219 268 218
f 218 267 217
f 217 266 216
f 252 245 244
f 245 209 208
f 209 206 205
f 186 205 206
f 205 185 204
f 204 184 203
f 169 170 192
f 170 127 128
f 128 68 69
f 85 30 77
f 34 93 98
f 54 55 34
f 55 99 100
f 100 108 109
f 109 147 148
f 147 156 157
f 494 493 474
f 493 495 475
f 495 497 498
f 497 477 482
f 477 470 471
f 477 470 475
f 371 378 379
f 328 351 326
f 351 352 348
f 352 349 348
f 349 329 327
f 329 352 351
f 327 328 326
f 328 329 351
f 371 375 376
f 353 364 377
f 380 437 386
f 437 452 455
f 383 384 385
f 384 379 386
f 379 373 371
f 425 447 444
f 447 428 427
f 427 431 450
f 431 383 434
f 452 447 446
f 442 471 443
f 471 470 443
f 471 470 478
f 453 470 477
f 475 473 493
f 473 474 493
f 442 425 444
f 424 442 427
f 658 648 659
f 648 649 728
f 649 637 638
f 638 577 578
f 578 503 504
f 504 518 519
f 474 476 496
f 476 477 475
f 477 479 453
f 479 439 455
f 439 483 441
f 441 498 497
f 495 496 475
f 242 234 243
f 234 233 262
f 262 261 308
f 308 307 296
f 296 295 284
f 284 283 273
f 273 272 223
f 223 222 199
f 222 221 198
f 221 220 197
f 220 219 196
f 219 218 195
f 218 217 194
f 217 216 193
f 244 245 208
f 208 209 205
f 205 204 208
f 204 203 207
f 192 170 193
f 170 128 171
f 128 69 129
f 77 30 25
f 34 55 35
f 55 100 56
f 100 109 101
f 109 148 110
f 148 147 157
f 497 482 438
f 482 477 453
f 477 471 478
f 470 477 478
f 378 371 383
f 326 351 348
f 375 371 383
f 377 364 363
f 380 386 379
f 386 437 436
f 437 455 441
f 455 452 450
f 383 385 434
f 383 385 378
f 385 384 386
f 447 427 446
f 427 450 446
f 450 431 434
f 452 446 450
f 453 477 478
f 427 442 446
f 658 659 665
f 659 648 712
f 728 649 729
f 649 638 650
f 638 578 639
f 578 504 579
f 504 519 505
f 496 476 475
f 477 453 454
f 453 479 455
f 455 439 441
f 441 497 440
f 243 234 215
f 234 262 263
f 262 308 309
f 308 296 297
f 296 284 285
f 284 273 274
f 273 223 224
f 223 199 200
f 199 222 198
f 198 221 197
f 197 220 196
f 196 219 195
f 195 218 194
f 194 217 193
f 193 216 192
f 244 208 207
f 208 204 207
f 193 170 171
f 171 128 129
f 129 69 70
f 35 55 56
f 56 100 101
f 101 109 110
f 110 148 165
f 148 157 164
f 497 438 440
f 438 482 453
f 478 477 454
f 377 363 375
f 386 436 385
f 436 437 440
f 437 441 440
f 455 450 453
f 434 385 436
f 450 434 453
f 453 478 454
f 665 659 666
f 659 712 714
f 729 649 650
f 650 638 639
f 639 578 579
f 579 504 505
f 505 519 520
f 454 453 451
f 215 234 211
f 234 263 211
f 263 262 309
f 309 308 297
f 297 296 285
f 285 284 274
f 274 273 224
f 224 223 200
f 200 199 177
f 199 198 176
f 198 197 175
f 197 196 174
f 196 195 173
f 195 194 172
f 194 193 171
f 171 129 172
f 129 70 130
f 70 69 78
f 35 56 36
f 56 101 57
f 101 110 102
f 110 165 111
f 165 148 164
f 164 157 168
f 436 440 453
f 453 450 451
f 434 436 453
f 450 453 454
f 665 666 672
f 666 659 714
f 714 712 728
f 729 650 730
f 650 639 651
f 639 579 640
f 579 505 580
f 505 520 506
f 454 451 450
f 215 211 191
f 211 263 212
f 263 309 310
f 309 297 298
f 297 285 286
f 285 274 275
f 274 224 225
f 224 200 201
f 200 177 178
f 177 199 176
f 176 198 175
f 175 197 174
f 174 196 173
f 173 195 172
f 172 194 171
f 172 129 130
f 130 70 71
f 70 78 79
f 78 69 77
f 36 56 57
f 57 101 102
f 102 110 111
f 111 165 166
f 165 164 188
f 164 168 187
f 451 450 449
f 672 666 673
f 666 714 716
f 714 728 739
f 730 650 651
f 651 639 640
f 640 579 580
f 580 505 506
f 506 520 521
f 450 451 448
f 191 211 187
f 211 212 187
f 212 263 264
f 263 310 264
f 310 309 298
f 298 297 286
f 286 285 275
f 275 274 225
f 225 224 201
f 201 200 178
f 178 177 135
f 177 176 134
f 176 175 133
f 175 174 132
f 174 173 131
f 173 172 130
f 130 71 131
f 71 70 79
f 79 78 49
f 78 77 48
f 36 57 37
f 57 102 58
f 102 111 94
f 111 166 112
f 166 165 189
f 165 188 189
f 188 164 187
f 187 168 191
f 451 449 448
f 449 450 448
f 672 673 679
f 673 666 716
f 716 714 739
f 730 651 731
f 651 640 652
f 640 580 641
f 580 506 581
f 506 521 507
f 187 212 188
f 212 264 213
f 264 310 311
f 310 298 299
f 298 286 287
f 286 275 276
f 275 225 226
f 225 201 202
f 201 178 179
f 178 135 136
f 135 177 134
f 134 176 133
f 133 175 132
f 132 174 131
f 131 173 130
f 131 71 72
f 71 79 80
f 79 49 50
f 49 78 48
f 48 77 47
f 37 57 58
f 102 94 33
f 94 111 95
f 111 112 95
f 112 166 167
f 166 189 190
f 189 188 213
f 679 673 680
f 673 716 718
f 716 739 741
f 731 651 652
f 652 640 641
f 641 580 581
f 581 506 507
f 507 521 523
f 188 212 213
f 213 264 265
f 264 311 265
f 311 310 299
f 299 298 287
f 287 286 276
f 276 275 226
f 226 225 202
f 202 201 179
f 179 178 136
f 136 135 76
f 135 134 75
f 134 133 74
f 133 132 73
f 132 131 72
f 72 71 80
f 80 79 50
f 50 49 28
f 49 48 27
f 48 47 26
f 37 58 38
f 102 33 38
f 33 94 31
f 94 95 86
f 95 112 96
f 112 167 113
f 167 166 190
f 190 189 214
f 189 213 214
f 679 680 688
f 680 673 718
f 718 716 741
f 731 652 732
f 652 641 653
f 641 581 642
f 581 507 582
f 507 523 508
f 213 265 214
f 76 135 75
f 75 134 74
f 74 133 73
f 73 132 72
f 72 80 81
f 80 50 51
f 50 28 29
f 28 49 27
f 27 48 26
f 26 47 25
f 31 94 86
f 86 95 87
f 95 96 87
f 96 112 113
f 679 688 698
f 688 680 720
f 680 718 720
f 718 741 743
f 732 652 653
f 653 641 642
f 642 581 582
f 582 507 508
f 508 523 526
f 76 75 89
f 75 74 88
f 74 73 87
f 73 72 81
f 81 80 51
f 51 50 29
f 31 86 29
f 86 87 81
f 87 96 88
f 96 113 97
f 698 688 689
f 688 720 722
f 720 718 743
f 732 653 733
f 653 642 654
f 642 582 643
f 582 508 583
f 508 526 509
f 526 523 525
f 89 75 88
f 88 74 87
f 87 73 81
f 29 86 81
f 88 96 97
f 698 689 700
f 689 688 748
f 722 720 745
f 720 743 745
f 733 653 654
f 654 642 643
f 643 582 583
f 583 508 509
f 509 526 527
f 526 525 532
f 89 88 97
f 698 700 611
f 700 689 690
f 689 748 749
f 748 688 747
f 722 745 747
f 733 654 734
f 654 643 655
f 643 583 644
f 583 509 584
f 509 527 510
f 527 526 533
f 526 532 533
f 532 525 531
f 611 700 612
f 700 690 701
f 690 689 749
f 734 654 655
f 655 643 644
f 644 583 584
f 584 509 510
f 533 532 538
f 532 531 537
f 611 612 563
f 612 700 701
f 701 690 691
f 690 749 750
f 734 655 735
f 655 644 656
f 644 584 645
f 584 510 585
f 538 532 537
f 537 531 536
f 563 612 565
f 612 701 613
f 701 691 702
f 691 690 750
f 735 655 656
f 656 644 645
f 645 584 585
f 538 537 544
f 537 536 543
f 563 565 556
f 565 612 613
f 613 701 702
f 702 691 692
f 691 750 751
f 735 656 737
f 656 645 657
f 645 585 646
f 544 537 543
f 543 536 542
f 563 556 596
f 556 565 557
f 565 613 566
f 613 702 614
f 702 692 703
f 692 691 751
f 737 656 657
f 657 645 660
f 645 646 661
f 544 543 574
f 543 542 573
f 563 596 597
f 596 556 595
f 556 557 545
f 557 565 566
f 566 613 614
f 614 702 703
f 703 692 693
f 692 751 752
f 737 657 738
f 657 660 715
f 660 645 661
f 661 646 662
f 574 543 573
f 573 542 555
f 597 596 609
f 596 595 608
f 595 556 541
f 545 557 547
f 557 566 558
f 566 614 567
f 614 703 615
f 703 693 704
f 693 692 752
f 657 715 713
f 715 660 717
f 660 661 667
f 661 662 668
f 574 573 621
f 573 555 572
f 597 609 610
f 609 596 608
f 608 595 607
f 595 541 594
f 547 557 558
f 558 566 567
f 567 614 615
f 615 703 704
f 704 693 694
f 693 752 753
f 713 715 740
f 715 717 742
f 717 660 667
f 667 661 668
f 668 662 669
f 621 573 620
f 573 572 620
f 572 555 553
f 610 609 633
f 609 608 632
f 608 607 631
f 607 595 594
f 594 541 540
f 547 558 548
f 558 567 559
f 567 615 568
f 615 704 616
f 704 694 705
f 694 693 753
f 713 740 738
f 740 715 742
f 742 717 744
f 717 667 719
f 667 668 674
f 668 669 675
f 621 620 709
f 620 572 619
f 572 553 571
f 610 633 634
f 633 609 632
f 632 608 631
f 631 607 630
f 607 594 606
f 594 540 593
f 548 558 559
f 559 567 568
f 568 615 616
f 616 704 705
f 705 694 695
f 694 753 754
f 744 717 719
f 719 667 674
f 674 668 675
f 675 669 676
f 709 620 708
f 620 619 708
f 619 572 571
f 571 553 552
f 634 633 687
f 633 632 684
f 632 631 678
f 631 630 677
f 630 607 606
f 606 594 593
f 593 540 539
f 548 559 549
f 559 568 560
f 568 616 569
f 616 705 617
f 705 695 706
f 695 694 754
f 744 719 746
f 719 674 721
f 674 675 681
f 675 676 682
f 709 708 686
f 708 619 707
f 619 571 618
f 571 552 570
f 634 687 698
f 687 633 684
f 684 632 678
f 678 631 677
f 677 630 672
f 630 606 629
f 606 593 605
f 593 539 592
f 549 559 560
f 560 568 569
f 569 616 617
f 617 705 706
f 706 695 696
f 695 754 756
f 746 719 721
f 721 674 681
f 681 675 682
f 682 676 683
f 686 708 685
f 708 707 697
f 707 619 618
f 618 571 570
f 570 552 551
f 672 630 629
f 629 606 605
f 605 593 592
f 592 539 535
f 549 560 550
f 560 569 561
f 569 617 570
f 617 706 618
f 706 696 707
f 696 695 756
f 746 721 757
f 721 681 723
f 681 682 697
f 682 683 685
f 686 685 683
f 685 708 697
f 697 707 696
f 707 618 706
f 618 570 617
f 570 551 569
f 672 629 671
f 629 605 628
f 605 592 604
f 592 535 591
f 550 560 561
f 561 569 570
f 696 756 757
f 757 721 723
f 723 681 697
f 697 682 685
f 697 696 757
f 671 629 628
f 628 605 604
f 604 592 591
f 591 535 534
f 550 561 551
f 561 570 562
f 671 628 670
f 628 604 627
f 604 591 603
f 591 534 590
f 551 561 562
f 670 628 627
f 627 604 603
f 603 591 590
f 590 534 530
f 551 562 552
f 670 627 664
f 627 603 626
f 603 590 602
f 590 530 589
f 664 627 626
f 626 603 602
f 602 590 589
f 589 530 529
f 664 626 663
f 626 602 625
f 602 589 601
f 589 529 588
f 663 626 625
f 625 602 601
f 601 589 588
f 588 529 528
f 663 625 658
f 625 601 624
f 601 588 600
f 588 528 587
f 658 625 624
f 624 601 600
f 600 588 587
f 587 528 524
f 658 624 647
f 624 600 623
f 600 587 599
f 587 524 586
f 647 624 623
f 623 600 599
f 599 587 586
f 586 524 511
f 647 623 635
f 623 599 622
f 599 586 598
f 586 511 575
f 635 623 622
f 622 599 598
f 598 586 575
f 575 511 499
f 359 393 394
f 359 394 360
f 394 393 360
f 393 359 360
f 424 431 371
f 424 371 359
f 367 371 372
f 367 372 368
f 372 371 368
f 371 367 368
f 429 431 432
f 429 432 430
f 432 431 430
f 432 431 396
f 431 429 430
f 431 432 395
f 432 396 395
f 396 431 395
f 369 371 372
f 369 372 370
f 760 761 762
f 760 762 763
f 764 767 766
f 764 766 765
f 760 764 765
f 760 765 761
f 763 762 766
f 763 766 767
f 760 763 767
f 760 767 764
f 761 765 766
f 761 766 762
f 768 769 770
f 768 770 771
f 772 775 774
f 772 774 773
f 768 772 773
f 768 773 769
f 771 770 774
f 771 774 775
f 768 771 775
f 768 775 772
f 769 773 774
f 769 774 770
f 776 777 778
f 776 778 779
f 780 783 782
f 780 782 781
f 776 780 781
f 776 781 777
f 779 778 782
f 779 782 783
f 776 779 783
f 776 783 780
f 777 781 782
f 777 782 778
f 784 456 785
f 784 785 786
f 787 790 789
f 787 789 788
f 784 787 788
f 784 788 456
f 786 785 789
f 786 789 790
f 784 786 790
f 784 790 787
f 456 788 789
f 456 789 785
f 791 792 793
f 791 793 794
f 795 798 797
f 795 797 796
f 791 795 796
f 791 796 792
f 794 793 797
f 794 797 798
f 791 794 798
f 791 798 795
f 792 796 797
f 792 797 793
f 799 800 801
f 799 801 802
f 803 806 805
f 803 805 804
f 799 803 804
f 799 804 800
f 802 801 805
f 802 805 806
f 799 802 806
f 799 806 803
f 800 804 805
f 800 805 801
f 807 808 809
f 807 809 810
f 811 814 813
f 811 813 812
f 807 811 812
f 807 812 808
f 810 809 813
f 810 813 814
f 807 810 814
f 807 814 811
f 808 812 813
f 808 813 809
f 815 816 817
f 815 817 818
f 819 822 821
f 819 821 820
f 815 819 820
f 815 820 816
f 818 817 821
f 818 821 822
f 815 818 822
f 815 822 819
f 816 820 821
f 816 821 817
f 823 824 825
f 823 825 826
f 827 830 829
f 827 829 828
f 823 827 828
f 823 828 824
f 826 825 829
f 826 829 830
f 823 826 830
f 823 830 827
f 824 828 829
f 824 829 825
f 831 832 833
f 831 833 834
f 835 838 837
f 835 837 836
f 831 835 836
f 831 836 832
f 834 833 837
f 834 837 838
f 831 834 838
f 831 838 835
f 832 836 837
f 832 837 833
f 839 840 841
f 839 841 842
f 843 846 845
f 843 845 844
f 839 843 844
f 839 844 840
f 842 841 845
f 842 845 846
f 839 842 846
f 839 846 843
f 840 844 845
f 840 845 841
f 847 848 849
f 847 849 850
f 851 854 853
f 851 853 852
f 847 851 852
f 847 852 848
f 850 849 853
f 850 853 854
f 847 850 854
f 847 854 851
f 848 852 853
f 848 853 849
f 855 856 857
f 855 857 858
f 859 862 861
f 859 861 860
f 855 859 860
f 855 860 856
f 858 857 861
f 858 861 862
f 855 858 862
f 855 862 859
f 856 860 861
f 856 861 857
f 863 864 865
f 863 865 866
f 867 870 869
f 867 869 868
f 863 867 868
f 863 868 864
f 866 865 869
f 866 869 870
f 863 866 870
f 863 870 867
f 864 868 869
f 864 869 865
f 871 872 873
f 871 873 874
f 875 878 877
f 875 877 876
f 871 875 876
f 871 876 872
f 874 873 877
f 874 877 878
f 871 874 878
f 871 878 875
f 872 876 877
f 872 877 873
f 879 880 881
f 879 881 882
f 883 886 885
f 883 885 884
f 879 883 884
f 879 884 880
f 882 881 885
f 882 885 886
f 879 882 886
f 879 886 883
f 880 884 885
f 880 885 881
f 887 888 889
f 887 889 890
f 891 894 893
f 891 893 892
f 887 891 892
f 887 892 888
f 890 889 893
f 890 893 894
f 887 890 894
f 887 894 891
f 888 892 893
f 888 893 889
f 895 896 897
f 895 897 898
f 899 902 901
f 899 901 900
f 895 899 900
f 895 900 896
f 898 897 901
f 898 901 902
f 895 898 902
f 895 902 899
f 896 900 901
f 896 901 897
f 903 904 905
f 903 905 906
f 907 910 909
f 907 909 908
f 903 907 908
f 903 908 904
f 906 905 909
f 906 909 910
f 903 906 910
f 903 910 907
f 904 908 909
f 904 909 905
f 911 912 913
f 911 913 914
f 915 918 917
f 915 917 916
f 911 915 916
f 911 916 912
f 914 913 917
f 914 917 918
f 911 914 918
f 911 918 915
f 912 916 917
f 912 917 913
f 919 920 921
f 919 921 922
f 923 926 925
f 923 925 924
f 919 923 924
f 919 924 920
f 922 921 925
f 922 925 926
f 919 922 926
f 919 926 923
f 920 924 925
f 920 925 921
f 927 928 929
f 927 929 930
f 931 934 933
f 931 933 932
f 927 931 932
f 927 932 928
f 930 929 933
f 930 933 934
f 927 930 934
f 927 934 931
f 928 932 933
f 928 933 929
f 935 936 937
f 935 937 938
f 939 942 941
f 939 941 940
f 935 939 940
f 935 940 936
f 938 937 941
f 938 941 942
f 935 938 942
f 935 942 939
f 936 940 941
f 936 941 937
f 943 944 945
f 943 945 946
f 947 950 949
f 947 949 948
f 943 947 948
f 943 948 944
f 946 945 949
f 946 949 950
f 943 946 950
f 943 950 947
f 944 948 949
f 944 949 945
f 951 952 953
f 951 953 954
f 955 958 957
f 955 957 956
f 951 955 956
f 951 956 952
f 954 953 957
f 954 957 958
f 951 954 958
f 951 958 955
f 952 956 957
f 952 957 953
f 959 960 961
f 959 961 962
f 963 966 965
f 963 965 964
f 959 963 964
f 959 964 960
f 962 961 965
f 962 965 966
f 959 962 966
f 959 966 963
f 960 964 965
f 960 965 961
f 967 968 969
f 967 969 970
f 971 974 973
f 971 973 972
f 967 971 972
f 967 972 968
f 970 969 973
f 970 973 974
f 967 970 974
f 967 974 971
f 968 972 973
f 968 973 969

