# https://github.com/mikedh/trimesh
v -0.49609375 -0.40234375 -0.10546875 0.40000000 0.40000000 0.40000000
v -0.49609375 -0.40234375 0.10546875 0.40000000 0.40000000 0.40000000
v -0.49609375 0.00390625 -0.10546875 0.40000000 0.40000000 0.40000000
v -0.49609375 0.00390625 0.10546875 0.40000000 0.40000000 0.40000000
v -0.49609375 0.05078125 -0.10546875 0.40000000 0.40000000 0.40000000
v -0.49609375 0.05078125 0.06640625 0.40000000 0.40000000 0.40000000
v -0.49609375 0.12109375 -0.10546875 0.40000000 0.40000000 0.40000000
v -0.49609375 0.12109375 0.06640625 0.40000000 0.40000000 0.40000000
v -0.49609375 0.19140625 -0.10546875 0.40000000 0.40000000 0.40000000
v -0.49609375 0.19140625 0.10546875 0.40000000 0.40000000 0.40000000
v -0.48828125 0.00390625 -0.10546875 0.40000000 0.40000000 0.40000000
v -0.48828125 0.00390625 0.10546875 0.40000000 0.40000000 0.40000000
v -0.48046875 -0.37890625 -0.10546875 0.40000000 0.40000000 0.40000000
v -0.48046875 -0.37890625 0.08984375 0.40000000 0.40000000 0.40000000
v -0.48046875 -0.37890625 0.10546875 0.40000000 0.40000000 0.40000000
v -0.48046875 -0.01171875 -0.10546875 0.40000000 0.40000000 0.40000000
v -0.48046875 -0.01171875 0.08984375 0.40000000 0.40000000 0.40000000
v -0.48046875 -0.01171875 0.10546875 0.40000000 0.40000000 0.40000000
v -0.48046875 0.01171875 -0.10546875 0.40000000 0.40000000 0.40000000
v -0.48046875 0.01171875 0.08984375 0.40000000 0.40000000 0.40000000
v -0.48046875 0.01171875 0.10546875 0.40000000 0.40000000 0.40000000
v -0.48046875 0.05078125 -0.10546875 0.40000000 0.40000000 0.40000000
v -0.48046875 0.05078125 0.06640625 0.40000000 0.40000000 0.40000000
v -0.48046875 0.05078125 0.08984375 0.40000000 0.40000000 0.40000000
v -0.48046875 0.12109375 -0.10546875 0.40000000 0.40000000 0.40000000
v -0.48046875 0.12109375 0.06640625 0.40000000 0.40000000 0.40000000
v -0.48046875 0.12890625 -0.10546875 0.40000000 0.40000000 0.40000000
v -0.48046875 0.12890625 -0.09765625 0.40000000 0.40000000 0.40000000
v -0.48046875 0.16015625 -0.10546875 0.40000000 0.40000000 0.40000000
v -0.48046875 0.16015625 -0.09765625 0.40000000 0.40000000 0.40000000
v -0.48046875 0.16796875 -0.10546875 0.40000000 0.40000000 0.40000000
v -0.48046875 0.16796875 -0.09765625 0.40000000 0.40000000 0.40000000
v -0.48046875 0.16796875 0.08984375 0.40000000 0.40000000 0.40000000
v -0.48046875 0.16796875 0.10546875 0.40000000 0.40000000 0.40000000
v -0.43359375 0.01171875 -0.10546875 0.40000000 0.40000000 0.40000000
v -0.43359375 0.01171875 0.10546875 0.40000000 0.40000000 0.40000000
v -0.43359375 0.05078125 -0.10546875 0.40000000 0.40000000 0.40000000
v -0.43359375 0.05078125 -0.09765625 0.40000000 0.40000000 0.40000000
v -0.43359375 0.05078125 0.08984375 0.40000000 0.40000000 0.40000000
v -0.43359375 0.05078125 0.10546875 0.40000000 0.40000000 0.40000000
v -0.43359375 0.05859375 -0.10546875 0.40000000 0.40000000 0.40000000
v -0.43359375 0.05859375 -0.09765625 0.40000000 0.40000000 0.40000000
v -0.41796875 -0.01171875 -0.10546875 0.40000000 0.40000000 0.40000000
v -0.41796875 -0.01171875 0.08984375 0.40000000 0.40000000 0.40000000
v -0.41796875 -0.01171875 0.10546875 0.40000000 0.40000000 0.40000000
v -0.41796875 0.03515625 -0.10546875 0.40000000 0.40000000 0.40000000
v -0.41796875 0.03515625 0.08984375 0.40000000 0.40000000 0.40000000
v -0.41796875 0.03515625 0.10546875 0.40000000 0.40000000 0.40000000
v -0.41015625 0.03515625 -0.10546875 0.40000000 0.40000000 0.40000000
v -0.41015625 0.03515625 0.07421875 0.40000000 0.40000000 0.40000000
v -0.41015625 0.05078125 -0.10546875 0.40000000 0.40000000 0.40000000
v -0.41015625 0.05078125 -0.09765625 0.40000000 0.40000000 0.40000000
v -0.41015625 0.05078125 0.07421875 0.40000000 0.40000000 0.40000000
v -0.41015625 0.05859375 -0.10546875 0.40000000 0.40000000 0.40000000
v -0.41015625 0.05859375 -0.09765625 0.40000000 0.40000000 0.40000000
v -0.33984375 0.03515625 -0.10546875 0.40000000 0.40000000 0.40000000
v -0.33984375 0.03515625 0.07421875 0.40000000 0.40000000 0.40000000
v -0.33984375 0.05078125 -0.10546875 0.40000000 0.40000000 0.40000000
v -0.33984375 0.05078125 0.07421875 0.40000000 0.40000000 0.40000000
v -0.33203125 -0.37890625 -0.10546875 0.40000000 0.40000000 0.40000000
v -0.33203125 -0.37890625 0.08984375 0.40000000 0.40000000 0.40000000
v -0.33203125 -0.37890625 0.10546875 0.40000000 0.40000000 0.40000000
v -0.33203125 -0.32421875 -0.10546875 0.40000000 0.40000000 0.40000000
v -0.33203125 -0.32421875 0.07421875 0.40000000 0.40000000 0.40000000
v -0.33203125 -0.24609375 -0.10546875 0.40000000 0.40000000 0.40000000
v -0.33203125 -0.24609375 0.07421875 0.40000000 0.40000000 0.40000000
v -0.33203125 -0.16796875 -0.10546875 0.40000000 0.40000000 0.40000000
v -0.33203125 -0.16796875 0.08984375 0.40000000 0.40000000 0.40000000
v -0.33203125 -0.16796875 0.10546875 0.40000000 0.40000000 0.40000000
v -0.33203125 0.03515625 -0.10546875 0.40000000 0.40000000 0.40000000
v -0.33203125 0.03515625 0.08984375 0.40000000 0.40000000 0.40000000
v -0.33203125 0.03515625 0.10546875 0.40000000 0.40000000 0.40000000
v -0.33203125 0.05078125 -0.10546875 0.40000000 0.40000000 0.40000000
v -0.33203125 0.05078125 -0.09765625 0.40000000 0.40000000 0.40000000
v -0.33203125 0.05859375 -0.10546875 0.40000000 0.40000000 0.40000000
v -0.33203125 0.05859375 -0.09765625 0.40000000 0.40000000 0.40000000
v -0.31640625 -0.40234375 -0.10546875 0.40000000 0.40000000 0.40000000
v -0.31640625 -0.40234375 0.10546875 0.40000000 0.40000000 0.40000000
v -0.31640625 -0.38671875 -0.10546875 0.40000000 0.40000000 0.40000000
v -0.31640625 -0.38671875 0.10546875 0.40000000 0.40000000 0.40000000
v -0.31640625 -0.16796875 -0.10546875 0.40000000 0.40000000 0.40000000
v -0.31640625 -0.16796875 0.10546875 0.40000000 0.40000000 0.40000000
v -0.31640625 0.04296875 -0.10546875 0.40000000 0.40000000 0.40000000
v -0.31640625 0.04296875 0.10546875 0.40000000 0.40000000 0.40000000
v -0.31640625 0.05078125 -0.10546875 0.40000000 0.40000000 0.40000000
v -0.31640625 0.05078125 -0.09765625 0.40000000 0.40000000 0.40000000
v -0.31640625 0.05078125 0.08984375 0.40000000 0.40000000 0.40000000
v -0.31640625 0.05078125 0.10546875 0.40000000 0.40000000 0.40000000
v -0.31640625 0.05859375 -0.10546875 0.40000000 0.40000000 0.40000000
v -0.31640625 0.05859375 -0.09765625 0.40000000 0.40000000 0.40000000
v -0.30859375 -0.37890625 -0.10546875 0.40000000 0.40000000 0.40000000
v -0.30859375 -0.37890625 0.08984375 0.40000000 0.40000000 0.40000000
v -0.30859375 -0.37890625 0.10546875 0.40000000 0.40000000 0.40000000
v -0.30859375 -0.32421875 -0.10546875 0.40000000 0.40000000 0.40000000
v -0.30859375 -0.32421875 0.07421875 0.40000000 0.40000000 0.40000000
v -0.30859375 -0.24609375 -0.10546875 0.40000000 0.40000000 0.40000000
v -0.30859375 -0.24609375 0.07421875 0.40000000 0.40000000 0.40000000
v -0.30859375 -0.17578125 -0.10546875 0.40000000 0.40000000 0.40000000
v -0.30859375 -0.17578125 0.08984375 0.40000000 0.40000000 0.40000000
v -0.30859375 -0.17578125 0.10546875 0.40000000 0.40000000 0.40000000
v -0.30859375 -0.15234375 -0.10546875 0.40000000 0.40000000 0.40000000
v -0.30859375 -0.15234375 0.08984375 0.40000000 0.40000000 0.40000000
v -0.30859375 -0.15234375 0.10546875 0.40000000 0.40000000 0.40000000
v -0.30859375 0.03515625 -0.10546875 0.40000000 0.40000000 0.40000000
v -0.30859375 0.03515625 0.08984375 0.40000000 0.40000000 0.40000000
v -0.30859375 0.03515625 0.10546875 0.40000000 0.40000000 0.40000000
v -0.30078125 0.05078125 -0.10546875 0.40000000 0.40000000 0.40000000
v -0.30078125 0.05078125 -0.09765625 0.40000000 0.40000000 0.40000000
v -0.30078125 0.05859375 -0.10546875 0.40000000 0.40000000 0.40000000
v -0.30078125 0.05859375 -0.09765625 0.40000000 0.40000000 0.40000000
v -0.29296875 0.03515625 -0.10546875 0.40000000 0.40000000 0.40000000
v -0.29296875 0.03515625 0.07421875 0.40000000 0.40000000 0.40000000
v -0.29296875 0.05078125 -0.10546875 0.40000000 0.40000000 0.40000000
v -0.29296875 0.05078125 0.07421875 0.40000000 0.40000000 0.40000000
v -0.27734375 -0.17578125 -0.03515625 0.40000000 0.40000000 0.40000000
v -0.27734375 -0.17578125 0.08984375 0.40000000 0.40000000 0.40000000
v -0.27734375 -0.15234375 -0.03515625 0.40000000 0.40000000 0.40000000
v -0.27734375 -0.15234375 0.08984375 0.40000000 0.40000000 0.40000000
v -0.24609375 0.03515625 -0.10546875 0.40000000 0.40000000 0.40000000
v -0.24609375 0.03515625 0.07421875 0.40000000 0.40000000 0.40000000
v -0.24609375 0.05078125 -0.10546875 0.40000000 0.40000000 0.40000000
v -0.24609375 0.05078125 -0.09765625 0.40000000 0.40000000 0.40000000
v -0.24609375 0.05078125 0.07421875 0.40000000 0.40000000 0.40000000
v -0.24609375 0.05859375 -0.10546875 0.40000000 0.40000000 0.40000000
v -0.24609375 0.05859375 -0.09765625 0.40000000 0.40000000 0.40000000
v -0.24609375 0.19140625 -0.10546875 0.40000000 0.40000000 0.40000000
v -0.24609375 0.19140625 0.10546875 0.40000000 0.40000000 0.40000000
v -0.24609375 0.40234375 -0.10546875 0.40000000 0.40000000 0.40000000
v -0.24609375 0.40234375 0.10546875 0.40000000 0.40000000 0.40000000
v -0.23046875 0.16015625 -0.10546875 0.40000000 0.40000000 0.40000000
v -0.23046875 0.16015625 -0.09765625 0.40000000 0.40000000 0.40000000
v -0.23046875 0.16796875 -0.10546875 0.40000000 0.40000000 0.40000000
v -0.23046875 0.16796875 -0.09765625 0.40000000 0.40000000 0.40000000
v -0.23046875 0.16796875 0.08984375 0.40000000 0.40000000 0.40000000
v -0.23046875 0.16796875 0.10546875 0.40000000 0.40000000 0.40000000
v -0.23046875 0.37890625 -0.10546875 0.40000000 0.40000000 0.40000000
v -0.23046875 0.37890625 -0.09765625 0.40000000 0.40000000 0.40000000
v -0.23046875 0.37890625 0.08984375 0.40000000 0.40000000 0.40000000
v -0.23046875 0.37890625 0.10546875 0.40000000 0.40000000 0.40000000
v -0.21484375 -0.17578125 -0.03515625 0.40000000 0.40000000 0.40000000
v -0.21484375 -0.17578125 0.08984375 0.40000000 0.40000000 0.40000000
v -0.21484375 -0.15234375 -0.03515625 0.40000000 0.40000000 0.40000000
v -0.21484375 -0.15234375 0.08984375 0.40000000 0.40000000 0.40000000
v -0.18359375 -0.37890625 -0.10546875 0.40000000 0.40000000 0.40000000
v -0.18359375 -0.37890625 0.08984375 0.40000000 0.40000000 0.40000000
v -0.18359375 -0.37890625 0.10546875 0.40000000 0.40000000 0.40000000
v -0.18359375 -0.36328125 -0.08984375 0.40000000 0.40000000 0.40000000
v -0.18359375 -0.36328125 0.08984375 0.40000000 0.40000000 0.40000000
v -0.18359375 -0.27734375 -0.08984375 0.40000000 0.40000000 0.40000000
v -0.18359375 -0.27734375 0.08984375 0.40000000 0.40000000 0.40000000
v -0.18359375 -0.24609375 -0.10546875 0.40000000 0.40000000 0.40000000
v -0.18359375 -0.24609375 0.08984375 0.40000000 0.40000000 0.40000000
v -0.18359375 -0.24609375 0.10546875 0.40000000 0.40000000 0.40000000
v -0.18359375 -0.17578125 -0.10546875 0.40000000 0.40000000 0.40000000
v -0.18359375 -0.17578125 0.08984375 0.40000000 0.40000000 0.40000000
v -0.18359375 -0.17578125 0.10546875 0.40000000 0.40000000 0.40000000
v -0.18359375 -0.15234375 -0.10546875 0.40000000 0.40000000 0.40000000
v -0.18359375 -0.15234375 0.08984375 0.40000000 0.40000000 0.40000000
v -0.18359375 -0.15234375 0.10546875 0.40000000 0.40000000 0.40000000
v -0.18359375 0.03515625 -0.10546875 0.40000000 0.40000000 0.40000000
v -0.18359375 0.03515625 0.08984375 0.40000000 0.40000000 0.40000000
v -0.18359375 0.03515625 0.10546875 0.40000000 0.40000000 0.40000000
v -0.18359375 0.05078125 -0.10546875 0.40000000 0.40000000 0.40000000
v -0.16796875 -0.24609375 -0.10546875 0.56470588 0.45882353 0.32941176
v -0.16796875 -0.24609375 0.10546875 0.40000000 0.40000000 0.40000000
v -0.16796875 -0.16796875 -0.10546875 0.40000000 0.40000000 0.40000000
v -0.16796875 -0.16796875 0.10546875 0.40000000 0.40000000 0.40000000
v -0.16796875 0.04296875 -0.10546875 0.40000000 0.40000000 0.40000000
v -0.16796875 0.04296875 0.10546875 0.40000000 0.40000000 0.40000000
v -0.16796875 0.05078125 -0.10546875 0.40000000 0.40000000 0.40000000
v -0.16796875 0.05078125 -0.09765625 0.40000000 0.40000000 0.40000000
v -0.16796875 0.05078125 0.08984375 0.40000000 0.40000000 0.40000000
v -0.16796875 0.05078125 0.10546875 0.40000000 0.40000000 0.40000000
v -0.16796875 0.05859375 -0.10546875 0.40000000 0.40000000 0.40000000
v -0.16796875 0.05859375 -0.09765625 0.40000000 0.40000000 0.40000000
v -0.16015625 -0.40234375 -0.10546875 0.40000000 0.40000000 0.40000000
v -0.16015625 -0.40234375 0.10546875 0.40000000 0.40000000 0.40000000
v -0.16015625 -0.36328125 -0.08984375 0.40000000 0.40000000 0.40000000
v -0.16015625 -0.36328125 0.08984375 0.40000000 0.40000000 0.40000000
v -0.16015625 -0.27734375 -0.08984375 0.40000000 0.40000000 0.40000000
v -0.16015625 -0.27734375 0.08984375 0.40000000 0.40000000 0.40000000
v -0.16015625 -0.25390625 -0.10546875 0.40000000 0.40000000 0.40000000
v -0.16015625 -0.25390625 0.10546875 0.40000000 0.40000000 0.40000000
v -0.16015625 -0.23828125 -0.10546875 0.40000000 0.40000000 0.40000000
v -0.16015625 -0.23828125 -0.09765625 0.40000000 0.40000000 0.40000000
v -0.16015625 -0.23828125 0.10546875 0.40000000 0.40000000 0.40000000
v -0.16015625 -0.23046875 0.08984375 0.40000000 0.40000000 0.40000000
v -0.16015625 -0.23046875 0.10546875 0.40000000 0.40000000 0.40000000
v -0.16015625 -0.16796875 -0.10546875 0.40000000 0.40000000 0.40000000
v -0.16015625 -0.16796875 -0.09765625 0.40000000 0.40000000 0.40000000
v -0.16015625 -0.16796875 0.08984375 0.40000000 0.40000000 0.40000000
v -0.16015625 -0.16796875 0.10546875 0.40000000 0.40000000 0.40000000
v -0.16015625 0.03515625 -0.10546875 0.40000000 0.40000000 0.40000000
v -0.16015625 0.03515625 -0.09765625 0.40000000 0.40000000 0.40000000
v -0.16015625 0.03515625 0.08984375 0.40000000 0.40000000 0.40000000
v -0.16015625 0.03515625 0.10546875 0.40000000 0.40000000 0.40000000
v -0.10546875 -0.25390625 -0.03515625 0.40000000 0.40000000 0.40000000
v -0.10546875 -0.25390625 0.07421875 0.40000000 0.40000000 0.40000000
v -0.10546875 -0.23828125 -0.03515625 0.40000000 0.40000000 0.40000000
v -0.10546875 -0.23828125 0.07421875 0.40000000 0.40000000 0.40000000
v 0.01171875 0.03515625 -0.10546875 0.40000000 0.40000000 0.40000000
v 0.01171875 0.03515625 -0.09765625 0.40000000 0.40000000 0.40000000
v 0.01953125 0.03515625 -0.10546875 0.40000000 0.40000000 0.40000000
v 0.01953125 0.03515625 0.07421875 0.40000000 0.40000000 0.40000000
v 0.01953125 0.05078125 -0.10546875 0.40000000 0.40000000 0.40000000
v 0.01953125 0.05078125 -0.09765625 0.40000000 0.40000000 0.40000000
v 0.01953125 0.05078125 0.07421875 0.40000000 0.40000000 0.40000000
v 0.01953125 0.05859375 -0.10546875 0.40000000 0.40000000 0.40000000
v 0.01953125 0.05859375 -0.09765625 0.40000000 0.40000000 0.40000000
v 0.06640625 -0.25390625 -0.03515625 0.40000000 0.40000000 0.40000000
v 0.06640625 -0.25390625 0.07421875 0.40000000 0.40000000 0.40000000
v 0.06640625 -0.23828125 -0.03515625 0.40000000 0.40000000 0.40000000
v 0.06640625 -0.23828125 0.07421875 0.40000000 0.40000000 0.40000000
v 0.09765625 0.03515625 -0.10546875 0.40000000 0.40000000 0.40000000
v 0.09765625 0.03515625 0.07421875 0.40000000 0.40000000 0.40000000
v 0.09765625 0.05078125 -0.10546875 0.40000000 0.40000000 0.40000000
v 0.09765625 0.05078125 0.07421875 0.40000000 0.40000000 0.40000000
v 0.10546875 -0.23828125 -0.10546875 0.40000000 0.40000000 0.40000000
v 0.10546875 -0.23828125 -0.09765625 0.40000000 0.40000000 0.40000000
v 0.10546875 -0.23828125 0.10546875 0.40000000 0.40000000 0.40000000
v 0.10546875 -0.23046875 0.08984375 0.40000000 0.40000000 0.40000000
v 0.10546875 -0.23046875 0.10546875 0.40000000 0.40000000 0.40000000
v 0.10546875 0.03515625 -0.10546875 0.40000000 0.40000000 0.40000000
v 0.10546875 0.03515625 -0.09765625 0.40000000 0.40000000 0.40000000
v 0.10546875 0.03515625 0.08984375 0.40000000 0.40000000 0.40000000
v 0.10546875 0.03515625 0.10546875 0.40000000 0.40000000 0.40000000
v 0.10546875 0.05078125 -0.10546875 0.40000000 0.40000000 0.40000000
v 0.10546875 0.05078125 -0.09765625 0.40000000 0.40000000 0.40000000
v 0.10546875 0.05859375 -0.10546875 0.40000000 0.40000000 0.40000000
v 0.10546875 0.05859375 -0.09765625 0.40000000 0.40000000 0.40000000
v 0.12109375 -0.25390625 -0.10546875 0.40000000 0.40000000 0.40000000
v 0.12109375 -0.25390625 0.10546875 0.40000000 0.40000000 0.40000000
v 0.12109375 -0.24609375 -0.10546875 0.40000000 0.40000000 0.40000000
v 0.12109375 -0.24609375 0.10546875 0.40000000 0.40000000 0.40000000
v 0.12109375 0.04296875 -0.10546875 0.40000000 0.40000000 0.40000000
v 0.12109375 0.04296875 0.10546875 0.40000000 0.40000000 0.40000000
v 0.12109375 0.05078125 -0.10546875 0.40000000 0.40000000 0.40000000
v 0.12109375 0.05078125 -0.09765625 0.40000000 0.40000000 0.40000000
v 0.12109375 0.05078125 0.08984375 0.40000000 0.40000000 0.40000000
v 0.12109375 0.05078125 0.10546875 0.40000000 0.40000000 0.40000000
v 0.12109375 0.05859375 -0.10546875 0.40000000 0.40000000 0.40000000
v 0.12109375 0.05859375 -0.09765625 0.40000000 0.40000000 0.40000000
v 0.12890625 -0.23828125 -0.10546875 0.40000000 0.40000000 0.40000000
v 0.12890625 -0.23828125 -0.09765625 0.40000000 0.40000000 0.40000000
v 0.12890625 -0.23828125 0.08984375 0.40000000 0.40000000 0.40000000
v 0.12890625 -0.23828125 0.10546875 0.40000000 0.40000000 0.40000000
v 0.12890625 0.03515625 -0.10546875 0.40000000 0.40000000 0.40000000
v 0.12890625 0.03515625 -0.09765625 0.40000000 0.40000000 0.40000000
v 0.12890625 0.03515625 0.08984375 0.40000000 0.40000000 0.40000000
v 0.12890625 0.03515625 0.10546875 0.40000000 0.40000000 0.40000000
v 0.12890625 0.05078125 -0.10546875 0.40000000 0.40000000 0.40000000
v 0.12890625 0.05078125 -0.09765625 0.40000000 0.40000000 0.40000000
v 0.12890625 0.05859375 -0.10546875 0.40000000 0.40000000 0.40000000
v 0.12890625 0.05859375 -0.09765625 0.40000000 0.40000000 0.40000000
v 0.13671875 0.03515625 -0.10546875 0.40000000 0.40000000 0.40000000
v 0.13671875 0.03515625 0.07421875 0.40000000 0.40000000 0.40000000
v 0.13671875 0.05078125 -0.10546875 0.40000000 0.40000000 0.40000000
v 0.13671875 0.05078125 0.07421875 0.40000000 0.40000000 0.40000000
v 0.19921875 0.03515625 -0.10546875 0.40000000 0.40000000 0.40000000
v 0.19921875 0.03515625 0.07421875 0.40000000 0.40000000 0.40000000
v 0.19921875 0.05078125 -0.10546875 0.40000000 0.40000000 0.40000000
v 0.19921875 0.05078125 0.07421875 0.40000000 0.40000000 0.40000000
v 0.20703125 0.03515625 -0.10546875 0.40000000 0.40000000 0.40000000
v 0.20703125 0.03515625 -0.09765625 0.40000000 0.40000000 0.40000000
v 0.20703125 0.05078125 -0.10546875 0.40000000 0.40000000 0.40000000
v 0.20703125 0.05078125 -0.09765625 0.40000000 0.40000000 0.40000000
v 0.20703125 0.05859375 -0.10546875 0.40000000 0.40000000 0.40000000
v 0.20703125 0.05859375 -0.09765625 0.40000000 0.40000000 0.40000000
v 0.45703125 -0.23828125 0.08984375 0.40000000 0.40000000 0.40000000
v 0.45703125 -0.23828125 0.10546875 0.40000000 0.40000000 0.40000000
v 0.45703125 0.03515625 0.08984375 0.40000000 0.40000000 0.40000000
v 0.45703125 0.03515625 0.10546875 0.40000000 0.40000000 0.40000000
v 0.45703125 0.05078125 0.08984375 0.40000000 0.40000000 0.40000000
v 0.45703125 0.05078125 0.10546875 0.40000000 0.40000000 0.40000000
v 0.45703125 0.37890625 0.08984375 0.40000000 0.40000000 0.40000000
v 0.47265625 0.05859375 -0.10546875 0.40000000 0.40000000 0.40000000
v 0.47265625 0.37890625 -0.10546875 0.40000000 0.40000000 0.40000000
v 0.48046875 -0.23828125 -0.10546875 0.40000000 0.40000000 0.40000000
v 0.48046875 -0.23828125 -0.09765625 0.40000000 0.40000000 0.40000000
v 0.48046875 -0.23828125 0.10546875 0.40000000 0.40000000 0.40000000
v 0.48046875 -0.19140625 -0.03515625 0.40000000 0.40000000 0.40000000
v 0.48046875 -0.19140625 0.07421875 0.40000000 0.40000000 0.40000000
v 0.48046875 -0.01171875 -0.03515625 0.40000000 0.40000000 0.40000000
v 0.48046875 -0.01171875 0.07421875 0.40000000 0.40000000 0.40000000
v 0.48046875 0.03515625 -0.10546875 0.40000000 0.40000000 0.40000000
v 0.48046875 0.03515625 -0.09765625 0.40000000 0.40000000 0.40000000
v 0.48046875 0.03515625 0.10546875 0.40000000 0.40000000 0.40000000
v 0.48046875 0.05078125 -0.10546875 0.40000000 0.40000000 0.40000000
v 0.48046875 0.05078125 -0.09765625 0.40000000 0.40000000 0.40000000
v 0.48046875 0.05078125 0.10546875 0.40000000 0.40000000 0.40000000
v 0.48046875 0.05859375 -0.10546875 0.40000000 0.40000000 0.40000000
v 0.48046875 0.05859375 -0.09765625 0.40000000 0.40000000 0.40000000
v 0.48046875 0.12890625 -0.10546875 0.40000000 0.40000000 0.40000000
v 0.48046875 0.12890625 -0.09765625 0.40000000 0.40000000 0.40000000
v 0.48046875 0.12890625 -0.08984375 0.40000000 0.40000000 0.40000000
v 0.48046875 0.12890625 0.01953125 0.40000000 0.40000000 0.40000000
v 0.48046875 0.12890625 0.07421875 0.40000000 0.40000000 0.40000000
v 0.48046875 0.33203125 -0.08984375 0.40000000 0.40000000 0.40000000
v 0.48046875 0.33203125 0.07421875 0.40000000 0.40000000 0.40000000
v 0.48046875 0.37890625 -0.10546875 0.40000000 0.40000000 0.40000000
v 0.48046875 0.37890625 -0.09765625 0.40000000 0.40000000 0.40000000
v 0.48046875 0.37890625 0.10546875 0.40000000 0.40000000 0.40000000
v 0.48828125 0.04296875 -0.10546875 0.40000000 0.40000000 0.40000000
v 0.48828125 0.04296875 0.10546875 0.40000000 0.40000000 0.40000000
v 0.49609375 -0.25390625 -0.10546875 0.40000000 0.40000000 0.40000000
v 0.49609375 -0.25390625 0.10546875 0.40000000 0.40000000 0.40000000
v 0.49609375 -0.19140625 -0.03515625 0.40000000 0.40000000 0.40000000
v 0.49609375 -0.19140625 0.07421875 0.40000000 0.40000000 0.40000000
v 0.49609375 -0.01171875 -0.03515625 0.40000000 0.40000000 0.40000000
v 0.49609375 -0.01171875 0.07421875 0.40000000 0.40000000 0.40000000
v 0.49609375 0.04296875 -0.10546875 0.40000000 0.40000000 0.40000000
v 0.49609375 0.04296875 0.10546875 0.40000000 0.40000000 0.40000000
v 0.49609375 0.12890625 -0.08984375 0.40000000 0.40000000 0.40000000
v 0.49609375 0.12890625 0.07421875 0.40000000 0.40000000 0.40000000
v 0.49609375 0.33203125 -0.08984375 0.40000000 0.40000000 0.40000000
v 0.49609375 0.33203125 0.07421875 0.40000000 0.40000000 0.40000000
v 0.49609375 0.40234375 -0.10546875 0.40000000 0.40000000 0.40000000
v 0.49609375 0.40234375 0.10546875 0.40000000 0.40000000 0.40000000
v -0.11328125 -0.24609375 -0.10546875 0.70588235 0.50980392 0.27450980
v -0.11328125 -0.17578125 -0.10546875 0.70588235 0.50980392 0.27450980
v -0.16796875 -0.17578125 -0.10546875 0.70588235 0.50980392 0.27450980
v -0.16796875 -0.24609375 -0.06640625 0.70588235 0.50980392 0.27450980
v -0.11328125 -0.24609375 -0.06640625 0.70588235 0.50980392 0.27450980
v -0.11328125 -0.17578125 -0.06640625 0.70588235 0.50980392 0.27450980
v -0.16796875 -0.17578125 -0.06640625 0.70588235 0.50980392 0.27450980
v 0.18359375 -0.23828125 -0.10546875 0.70588235 0.50980392 0.27450980
v 0.22265625 -0.23828125 -0.10546875 0.70588235 0.50980392 0.27450980
v 0.22265625 -0.18359375 -0.10546875 0.70588235 0.50980392 0.27450980
v 0.18359375 -0.18359375 -0.10546875 0.70588235 0.50980392 0.27450980
v 0.18359375 -0.23828125 -0.06640625 0.70588235 0.50980392 0.27450980
v 0.22265625 -0.23828125 -0.06640625 0.70588235 0.50980392 0.27450980
v 0.22265625 -0.18359375 -0.06640625 0.70588235 0.50980392 0.27450980
v 0.18359375 -0.18359375 -0.06640625 0.70588235 0.50980392 0.27450980
v 0.41015625 -0.23828125 -0.10546875 0.70588235 0.50980392 0.27450980
v 0.44921875 -0.23828125 -0.10546875 0.70588235 0.50980392 0.27450980
v 0.44921875 -0.18359375 -0.10546875 0.70588235 0.50980392 0.27450980
v 0.41015625 -0.18359375 -0.10546875 0.70588235 0.50980392 0.27450980
v 0.41015625 -0.23828125 -0.06640625 0.70588235 0.50980392 0.27450980
v 0.44921875 -0.23828125 -0.06640625 0.70588235 0.50980392 0.27450980
v 0.44921875 -0.18359375 -0.06640625 0.70588235 0.50980392 0.27450980
v 0.41015625 -0.18359375 -0.06640625 0.70588235 0.50980392 0.27450980
v 0.21484375 -0.19140625 -0.10546875 0.78431373 0.78431373 0.31372549
v 0.41796875 -0.19140625 -0.10546875 0.78431373 0.78431373 0.31372549
v 0.41796875 -0.12109375 -0.10546875 0.78431373 0.78431373 0.31372549
v 0.21484375 -0.12109375 -0.10546875 0.78431373 0.78431373 0.31372549
v 0.21484375 -0.19140625 0.08203125 0.78431373 0.78431373 0.31372549
v 0.41796875 -0.19140625 0.08203125 0.78431373 0.78431373 0.31372549
v 0.41796875 -0.12109375 0.08203125 0.78431373 0.78431373 0.31372549
v 0.21484375 -0.12109375 0.08203125 0.78431373 0.78431373 0.31372549
v -0.11328125 -0.18359375 -0.10546875 0.31372549 0.78431373 0.94117647
v -0.01953125 -0.18359375 -0.10546875 0.31372549 0.78431373 0.94117647
v -0.01953125 -0.05078125 -0.10546875 0.31372549 0.78431373 0.94117647
v -0.11328125 -0.05078125 -0.10546875 0.31372549 0.78431373 0.94117647
v -0.11328125 -0.18359375 0.06640625 0.31372549 0.78431373 0.94117647
v -0.01953125 -0.18359375 0.06640625 0.31372549 0.78431373 0.94117647
v -0.01953125 -0.05078125 0.06640625 0.31372549 0.78431373 0.94117647
v -0.11328125 -0.05078125 0.06640625 0.31372549 0.78431373 0.94117647
v -0.16796875 -0.05859375 -0.10546875 0.70588235 0.50980392 0.27450980
v -0.11328125 -0.05859375 -0.10546875 0.70588235 0.50980392 0.27450980
v -0.11328125 0.00390625 -0.10546875 0.70588235 0.50980392 0.27450980
v -0.16796875 0.00390625 -0.10546875 0.70588235 0.50980392 0.27450980
v -0.16796875 -0.05859375 -0.06640625 0.70588235 0.50980392 0.27450980
v -0.11328125 -0.05859375 -0.06640625 0.70588235 0.50980392 0.27450980
v -0.11328125 0.00390625 -0.06640625 0.70588235 0.50980392 0.27450980
v -0.16796875 0.00390625 -0.06640625 0.70588235 0.50980392 0.27450980
v 0.22265625 0.05078125 -0.10546875 0.70588235 0.50980392 0.27450980
v 0.45703125 0.05078125 -0.10546875 0.70588235 0.50980392 0.27450980
v 0.45703125 0.12109375 -0.10546875 0.70588235 0.50980392 0.27450980
v 0.22265625 0.12109375 -0.10546875 0.70588235 0.50980392 0.27450980
v 0.22265625 0.05078125 -0.06640625 0.70588235 0.50980392 0.27450980
v 0.45703125 0.05078125 -0.06640625 0.70588235 0.50980392 0.27450980
v 0.45703125 0.12109375 -0.06640625 0.70588235 0.50980392 0.27450980
v 0.22265625 0.12109375 -0.06640625 0.70588235 0.50980392 0.27450980
v -0.23046875 0.21484375 -0.10546875 0.70588235 0.50980392 0.27450980
v -0.19921875 0.21484375 -0.10546875 0.70588235 0.50980392 0.27450980
v -0.19921875 0.29296875 -0.10546875 0.70588235 0.50980392 0.27450980
v -0.23046875 0.29296875 -0.10546875 0.70588235 0.50980392 0.27450980
v -0.23046875 0.21484375 0.05859375 0.70588235 0.50980392 0.27450980
v -0.19921875 0.21484375 0.05859375 0.70588235 0.50980392 0.27450980
v -0.19921875 0.29296875 0.05859375 0.70588235 0.50980392 0.27450980
v -0.23046875 0.29296875 0.05859375 0.70588235 0.50980392 0.27450980
v 0.16015625 0.21484375 -0.10546875 0.70588235 0.50980392 0.27450980
v 0.26171875 0.21484375 -0.10546875 0.70588235 0.50980392 0.27450980
v 0.26171875 0.26953125 -0.10546875 0.70588235 0.50980392 0.27450980
v 0.16015625 0.26953125 -0.10546875 0.70588235 0.50980392 0.27450980
v 0.16015625 0.21484375 -0.06640625 0.70588235 0.50980392 0.27450980
v 0.26171875 0.21484375 -0.06640625 0.70588235 0.50980392 0.27450980
v 0.26171875 0.26953125 -0.06640625 0.70588235 0.50980392 0.27450980
v 0.16015625 0.26953125 -0.06640625 0.70588235 0.50980392 0.27450980
v -0.14453125 0.21484375 -0.10546875 0.78431373 0.39215686 0.78431373
v -0.09765625 0.21484375 -0.10546875 0.78431373 0.39215686 0.78431373
v -0.09765625 0.26953125 -0.10546875 0.78431373 0.39215686 0.78431373
v -0.14453125 0.26953125 -0.10546875 0.78431373 0.39215686 0.78431373
v -0.14453125 0.21484375 -0.02734375 0.78431373 0.39215686 0.78431373
v -0.09765625 0.21484375 -0.02734375 0.78431373 0.39215686 0.78431373
v -0.09765625 0.26953125 -0.02734375 0.78431373 0.39215686 0.78431373
v -0.14453125 0.26953125 -0.02734375 0.78431373 0.39215686 0.78431373
v -0.08984375 0.21484375 -0.10546875 0.78431373 0.39215686 0.78431373
v -0.03515625 0.21484375 -0.10546875 0.78431373 0.39215686 0.78431373
v -0.03515625 0.26953125 -0.10546875 0.78431373 0.39215686 0.78431373
v -0.08984375 0.26953125 -0.10546875 0.78431373 0.39215686 0.78431373
v -0.08984375 0.21484375 -0.02734375 0.78431373 0.39215686 0.78431373
v -0.03515625 0.21484375 -0.02734375 0.78431373 0.39215686 0.78431373
v -0.03515625 0.26953125 -0.02734375 0.78431373 0.39215686 0.78431373
v -0.08984375 0.26953125 -0.02734375 0.78431373 0.39215686 0.78431373
v -0.16015625 0.26953125 -0.10546875 0.78431373 0.78431373 0.31372549
v -0.01953125 0.26953125 -0.10546875 0.78431373 0.78431373 0.31372549
v -0.01953125 0.33984375 -0.10546875 0.78431373 0.78431373 0.31372549
v -0.16015625 0.33984375 -0.10546875 0.78431373 0.78431373 0.31372549
v -0.16015625 0.26953125 -0.04296875 0.78431373 0.78431373 0.31372549
v -0.01953125 0.26953125 -0.04296875 0.78431373 0.78431373 0.31372549
v -0.01953125 0.33984375 -0.04296875 0.78431373 0.78431373 0.31372549
v -0.16015625 0.33984375 -0.04296875 0.78431373 0.78431373 0.31372549
v -0.13671875 0.33203125 -0.10546875 0.78431373 0.39215686 0.78431373
v -0.09765625 0.33203125 -0.10546875 0.78431373 0.39215686 0.78431373
v -0.09765625 0.37890625 -0.10546875 0.78431373 0.39215686 0.78431373
v -0.13671875 0.37890625 -0.10546875 0.78431373 0.39215686 0.78431373
v -0.13671875 0.33203125 -0.02734375 0.78431373 0.39215686 0.78431373
v -0.09765625 0.33203125 -0.02734375 0.78431373 0.39215686 0.78431373
v -0.09765625 0.37890625 -0.02734375 0.78431373 0.39215686 0.78431373
v -0.13671875 0.37890625 -0.02734375 0.78431373 0.39215686 0.78431373
v -0.08984375 0.33203125 -0.10546875 0.78431373 0.39215686 0.78431373
v -0.03515625 0.33203125 -0.10546875 0.78431373 0.39215686 0.78431373
v -0.03515625 0.37890625 -0.10546875 0.78431373 0.39215686 0.78431373
v -0.08984375 0.37890625 -0.10546875 0.78431373 0.39215686 0.78431373
v -0.08984375 0.33203125 -0.02734375 0.78431373 0.39215686 0.78431373
v -0.03515625 0.33203125 -0.02734375 0.78431373 0.39215686 0.78431373
v -0.03515625 0.37890625 -0.02734375 0.78431373 0.39215686 0.78431373
v -0.08984375 0.37890625 -0.02734375 0.78431373 0.39215686 0.78431373
v -0.06640625 -0.14453125 0.01953125 0.19607843 0.78431373 1.00000000
v 0.02734375 -0.14453125 0.01953125 0.19607843 0.78431373 1.00000000
v 0.02734375 -0.08203125 0.01953125 0.19607843 0.78431373 1.00000000
v -0.06640625 -0.08203125 0.01953125 0.19607843 0.78431373 1.00000000
v -0.06640625 -0.14453125 0.06640625 0.19607843 0.78431373 1.00000000
v 0.02734375 -0.14453125 0.06640625 0.19607843 0.78431373 1.00000000
v 0.02734375 -0.08203125 0.06640625 0.19607843 0.78431373 1.00000000
v -0.06640625 -0.08203125 0.06640625 0.19607843 0.78431373 1.00000000
v -0.11328125 0.26953125 0.02734375 0.19607843 0.78431373 1.00000000
v -0.09765625 0.26953125 0.02734375 0.19607843 0.78431373 1.00000000
v -0.09765625 0.28515625 0.02734375 0.19607843 0.78431373 1.00000000
v -0.11328125 0.28515625 0.02734375 0.19607843 0.78431373 1.00000000
v -0.11328125 0.26953125 0.08984375 0.19607843 0.78431373 1.00000000
v -0.09765625 0.26953125 0.08984375 0.19607843 0.78431373 1.00000000
v -0.09765625 0.28515625 0.08984375 0.19607843 0.78431373 1.00000000
v -0.11328125 0.28515625 0.08984375 0.19607843 0.78431373 1.00000000
v -0.05859375 0.26953125 0.02734375 0.19607843 0.78431373 1.00000000
v -0.04296875 0.26953125 0.02734375 0.19607843 0.78431373 1.00000000
v -0.04296875 0.28515625 0.02734375 0.19607843 0.78431373 1.00000000
v -0.05859375 0.28515625 0.02734375 0.19607843 0.78431373 1.00000000
v -0.05859375 0.26953125 0.08984375 0.19607843 0.78431373 1.00000000
v -0.04296875 0.26953125 0.08984375 0.19607843 0.78431373 1.00000000
v -0.04296875 0.28515625 0.08984375 0.19607843 0.78431373 1.00000000
v -0.05859375 0.28515625 0.08984375 0.19607843 0.78431373 1.00000000
v 0.33203125 -0.18359375 0.03515625 0.19607843 0.78431373 1.00000000
v 0.41796875 -0.18359375 0.03515625 0.19607843 0.78431373 1.00000000
v 0.41796875 -0.11328125 0.03515625 0.19607843 0.78431373 1.00000000
v 0.33203125 -0.11328125 0.03515625 0.19607843 0.78431373 1.00000000
v 0.33203125 -0.18359375 0.08984375 0.19607843 0.78431373 1.00000000
v 0.41796875 -0.18359375 0.08984375 0.19607843 0.78431373 1.00000000
v 0.41796875 -0.11328125 0.08984375 0.19607843 0.78431373 1.00000000
v 0.33203125 -0.11328125 0.08984375 0.19607843 0.78431373 1.00000000
f 1 77 78
f 1 78 2
f 78 77 177
f 77 1 79
f 1 2 3
f 2 78 80
f 78 177 80
f 177 77 176
f 77 79 176
f 79 1 13
f 1 3 13
f 3 2 4
f 2 80 15
f 80 177 146
f 177 176 179
f 176 79 144
f 79 13 60
f 13 3 16
f 3 4 5
f 4 2 15
f 15 80 62
f 80 146 93
f 146 177 183
f 177 179 183
f 179 176 178
f 176 144 182
f 144 79 91
f 79 60 91
f 60 13 14
f 13 16 17
f 16 3 11
f 3 5 19
f 5 4 6
f 4 15 18
f 62 80 93
f 146 183 153
f 183 179 181
f 179 178 147
f 178 176 182
f 182 144 151
f 144 91 92
f 91 60 94
f 60 14 61
f 14 13 17
f 13 60 16
f 17 16 44
f 16 11 35
f 11 3 19
f 19 5 22
f 5 6 23
f 6 4 8
f 4 18 12
f 62 93 100
f 153 183 165
f 183 181 180
f 181 179 150
f 179 147 148
f 147 178 180
f 178 182 180
f 182 151 164
f 151 144 149
f 144 92 145
f 92 91 95
f 91 144 98
f 91 94 95
f 94 60 63
f 60 61 63
f 16 60 43
f 44 16 43
f 16 35 43
f 35 11 19
f 19 22 20
f 22 5 23
f 23 6 8
f 8 4 10
f 4 12 21
f 12 18 36
f 62 100 69
f 153 165 186
f 165 183 234
f 183 180 182
f 180 181 150
f 150 179 148
f 148 147 145
f 147 180 149
f 182 164 233
f 164 151 184
f 151 149 150
f 149 144 147
f 144 151 98
f 144 145 147
f 92 95 99
f 95 94 63
f 63 61 64
f 43 60 67
f 44 43 47
f 43 35 46
f 35 19 21
f 20 22 23
f 5 22 25
f 23 8 26
f 8 10 9
f 10 4 21
f 21 12 36
f 36 18 45
f 69 100 82
f 153 186 156
f 186 165 220
f 165 234 220
f 234 183 232
f 183 182 198
f 180 150 149
f 182 233 231
f 233 164 218
f 164 184 218
f 184 151 154
f 151 150 152
f 98 151 154
f 99 95 97
f 95 63 64
f 63 94 96
f 64 61 66
f 43 67 70
f 47 43 46
f 46 35 37
f 35 21 36
f 19 35 31
f 20 23 33
f 5 25 7
f 23 26 33
f 26 8 25
f 8 9 7
f 9 10 126
f 10 21 34
f 36 45 48
f 69 82 103
f 82 100 167
f 156 186 192
f 186 220 213
f 220 234 246
f 234 232 306
f 232 183 198
f 198 182 197
f 182 231 197
f 231 233 305
f 233 218 243
f 218 184 185
f 218 184 212
f 184 154 189
f 154 151 155
f 151 152 155
f 98 154 115
f 99 97 96
f 97 95 66
f 95 64 66
f 63 96 65
f 66 61 68
f 43 70 46
f 70 67 68
f 47 46 50
f 46 37 51
f 37 35 36
f 31 35 37
f 7 25 8
f 33 26 25
f 7 9 31
f 9 126 31
f 126 10 127
f 10 34 127
f 36 48 40
f 69 103 72
f 103 82 159
f 82 167 159
f 167 100 156
f 156 192 167
f 186 213 200
f 213 220 218
f 220 246 250
f 246 234 280
f 234 306 280
f 306 232 231
f 232 198 211
f 198 197 199
f 197 231 210
f 231 305 306
f 305 233 278
f 233 243 278
f 243 218 247
f 218 185 219
f 185 184 190
f 184 218 189
f 218 212 213
f 212 184 199
f 184 189 187
f 184 189 190
f 189 154 166
f 154 155 140
f 98 115 116
f 115 154 140
f 154 98 166
f 99 96 98
f 96 97 66
f 65 96 66
f 66 68 67
f 70 68 71
f 67 70 101
f 47 50 71
f 50 46 49
f 46 51 49
f 51 37 54
f 51 37 39
f 37 36 40
f 31 37 163
f 25 7 31
f 33 25 31
f 31 126 132
f 126 127 128
f 127 34 135
f 40 48 84
f 72 103 106
f 159 167 196
f 167 192 196
f 186 200 199
f 200 213 198
f 218 220 221
f 220 250 226
f 280 306 312
f 231 232 210
f 232 211 210
f 211 198 213
f 198 199 200
f 199 197 210
f 306 305 308
f 305 278 311
f 278 243 244
f 278 243 269
f 243 247 245
f 247 218 223
f 218 219 223
f 189 218 223
f 213 212 210
f 212 199 210
f 199 184 186
f 184 187 188
f 187 189 191
f 189 166 193
f 140 155 141
f 98 116 99
f 116 115 117
f 115 140 117
f 166 98 81
f 98 96 65
f 65 66 67
f 70 71 56
f 67 101 81
f 101 70 104
f 71 50 57
f 50 49 51
f 54 37 41
f 37 51 38
f 51 39 53
f 31 163 237
f 31 132 29
f 31 132 134
f 132 126 136
f 126 128 136
f 128 127 129
f 127 135 139
f 40 84 88
f 84 48 72
f 72 106 84
f 159 196 162
f 218 221 225
f 221 220 222
f 226 250 236
f 280 312 287
f 312 306 308
f 210 211 213
f 308 305 307
f 305 311 307
f 311 278 285
f 278 244 279
f 243 278 247
f 278 269 270
f 269 243 245
f 245 247 249
f 247 243 248
f 247 223 235
f 223 218 225
f 223 219 224
f 189 223 193
f 186 184 188
f 191 189 195
f 189 193 195
f 193 166 157
f 140 141 143
f 116 117 118
f 117 140 142
f 166 81 157
f 81 98 67
f 98 65 67
f 70 56 83
f 56 71 57
f 81 101 157
f 101 104 102
f 104 70 83
f 57 50 59
f 50 51 53
f 51 49 58
f 54 41 42
f 37 38 42
f 38 51 52
f 53 39 59
f 31 237 288
f 29 132 130
f 132 31 133
f 132 31 293
f 31 134 33
f 134 132 138
f 132 136 138
f 136 128 317
f 128 129 317
f 129 127 139
f 88 84 173
f 84 106 169
f 162 196 169
f 226 236 196
f 236 250 304
f 280 287 284
f 287 312 304
f 312 308 310
f 308 307 281
f 307 311 309
f 311 285 303
f 285 278 279
f 285 278 283
f 247 278 285
f 278 270 280
f 249 247 255
f 248 243 244
f 247 235 257
f 235 223 214
f 223 225 214
f 195 193 204
f 193 189 194
f 193 157 160
f 140 143 142
f 143 141 116
f 116 118 143
f 118 117 102
f 117 142 101
f 83 56 58
f 56 57 59
f 157 101 142
f 101 102 117
f 102 104 105
f 104 101 157
f 104 83 113
f 59 50 53
f 58 49 56
f 54 42 55
f 42 41 37
f 42 38 55
f 38 52 55
f 59 39 87
f 31 288 293
f 23 33 24
f 29 130 131
f 132 133 137
f 133 31 32
f 132 293 300
f 138 136 300
f 136 132 137
f 136 132 300
f 136 317 300
f 317 129 318
f 129 139 318
f 173 84 169
f 169 106 162
f 169 196 236
f 236 304 290
f 304 250 287
f 280 284 282
f 284 287 285
f 304 312 318
f 312 310 309
f 310 308 284
f 308 281 282
f 281 307 309
f 309 311 312
f 311 303 317
f 303 285 259
f 285 279 286
f 285 283 284
f 283 278 281
f 278 280 281
f 249 255 256
f 255 247 257
f 257 235 237
f 235 214 216
f 214 225 215
f 195 204 225
f 204 193 203
f 194 189 190
f 193 160 168
f 160 157 158
f 142 143 158
f 83 58 85
f 58 56 59
f 157 142 158
f 105 104 112
f 104 157 160
f 104 113 111
f 113 83 85
f 54 55 51
f 59 87 85
f 293 288 296
f 29 131 30
f 131 130 137
f 133 32 30
f 32 31 27
f 300 293 298
f 138 300 275
f 136 137 130
f 136 300 301
f 300 317 288
f 317 318 315
f 318 139 302
f 173 169 240
f 169 236 240
f 236 290 240
f 290 304 318
f 280 282 281
f 282 284 308
f 285 287 271
f 318 312 314
f 309 310 284
f 281 309 283
f 312 311 314
f 311 317 313
f 317 303 288
f 303 259 261
f 259 285 271
f 285 286 263
f 284 283 309
f 249 256 271
f 256 255 257
f 257 237 239
f 237 235 216
f 216 214 217
f 214 215 217
f 215 225 204
f 204 203 205
f 203 193 205
f 193 168 205
f 168 160 119
f 160 158 161
f 85 58 59
f 105 112 161
f 112 104 111
f 111 113 112
f 113 85 87
f 288 293 289
f 29 30 27
f 30 131 133
f 32 27 28
f 300 298 299
f 298 293 295
f 137 136 301
f 301 300 292
f 317 315 313
f 315 318 316
f 318 302 290
f 271 287 272
f 318 314 316
f 314 311 313
f 288 303 261
f 261 259 262
f 259 271 260
f 263 286 264
f 271 256 260
f 256 257 258
f 257 255 261
f 257 239 258
f 239 237 217
f 237 216 217
f 214 216 203
f 217 215 204
f 204 205 207
f 205 203 216
f 205 168 170
f 168 119 121
f 119 160 161
f 161 112 120
f 112 113 114
f 113 111 121
f 113 87 114
f 288 289 266
f 289 293 294
f 27 30 28
f 300 299 302
f 299 298 315
f 298 295 315
f 292 300 291
f 313 315 295
f 315 316 299
f 290 302 299
f 316 314 299
f 314 313 295
f 288 261 273
f 261 262 273
f 262 259 260
f 259 261 255
f 260 256 262
f 256 258 262
f 258 239 262
f 239 217 172
f 217 204 207
f 207 205 172
f 205 170 174
f 205 170 172
f 170 168 121
f 121 119 123
f 119 161 120
f 120 112 123
f 112 114 123
f 121 111 119
f 114 87 123
f 288 266 265
f 266 289 292
f 294 293 292
f 290 299 297
f 299 314 297
f 314 295 297
f 288 273 274
f 273 262 239
f 172 217 207
f 205 174 208
f 174 170 171
f 174 170 124
f 170 205 171
f 172 170 123
f 170 121 124
f 170 121 123
f 123 119 120
f 123 87 172
f 288 265 267
f 266 292 268
f 292 293 291
f 300 291 276
f 290 297 295
f 288 274 290
f 205 208 209
f 208 174 175
f 174 171 175
f 171 170 175
f 170 174 175
f 174 124 125
f 170 171 122
f 171 205 206
f 124 121 122
f 121 170 122
f 288 267 291
f 268 292 291
f 300 276 277
f 290 295 288
f 205 209 206
f 209 208 175
f 175 174 125
f 175 171 209
f 171 175 122
f 125 124 122
f 171 206 209
f 291 267 268
f 288 295 293
f 175 125 122
f 201 202 193
f 193 202 194
f 55 51 52
f 73 75 85
f 73 85 74
f 85 75 89
f 75 73 74
f 74 85 86
f 85 89 107
f 85 89 90
f 89 75 76
f 75 74 76
f 74 86 90
f 86 85 107
f 86 85 90
f 107 89 109
f 89 85 86
f 76 74 90
f 90 86 110
f 86 107 108
f 107 109 110
f 109 89 90
f 90 110 109
f 110 86 108
f 108 107 110
f 227 229 237
f 227 237 228
f 237 229 241
f 229 227 228
f 228 237 238
f 237 241 251
f 237 241 242
f 241 229 230
f 229 228 230
f 228 238 242
f 238 237 251
f 238 237 242
f 251 241 253
f 241 237 238
f 242 241 238
f 242 241 230
f 230 228 242
f 242 238 254
f 238 251 252
f 251 253 254
f 253 241 242
f 242 254 253
f 254 238 252
f 252 251 254
f 267 266 265
f 266 267 268
f 164 319 320
f 164 320 321
f 322 325 324
f 322 324 323
f 164 322 323
f 164 323 319
f 321 320 324
f 321 324 325
f 164 321 325
f 164 325 322
f 319 323 324
f 319 324 320
f 326 327 328
f 326 328 329
f 330 333 332
f 330 332 331
f 326 330 331
f 326 331 327
f 329 328 332
f 329 332 333
f 326 329 333
f 326 333 330
f 327 331 332
f 327 332 328
f 334 335 336
f 334 336 337
f 338 341 340
f 338 340 339
f 334 338 339
f 334 339 335
f 337 336 340
f 337 340 341
f 334 337 341
f 334 341 338
f 335 339 340
f 335 340 336
f 342 343 344
f 342 344 345
f 346 349 348
f 346 348 347
f 342 346 347
f 342 347 343
f 345 344 348
f 345 348 349
f 342 345 349
f 342 349 346
f 343 347 348
f 343 348 344
f 350 351 352
f 350 352 353
f 354 357 356
f 354 356 355
f 350 354 355
f 350 355 351
f 353 352 356
f 353 356 357
f 350 353 357
f 350 357 354
f 351 355 356
f 351 356 352
f 358 359 360
f 358 360 361
f 362 365 364
f 362 364 363
f 358 362 363
f 358 363 359
f 361 360 364
f 361 364 365
f 358 361 365
f 358 365 362
f 359 363 364
f 359 364 360
f 366 367 368
f 366 368 369
f 370 373 372
f 370 372 371
f 366 370 371
f 366 371 367
f 369 368 372
f 369 372 373
f 366 369 373
f 366 373 370
f 367 371 372
f 367 372 368
f 374 375 376
f 374 376 377
f 378 381 380
f 378 380 379
f 374 378 379
f 374 379 375
f 377 376 380
f 377 380 381
f 374 377 381
f 374 381 378
f 375 379 380
f 375 380 376
f 382 383 384
f 382 384 385
f 386 389 388
f 386 388 387
f 382 386 387
f 382 387 383
f 385 384 388
f 385 388 389
f 382 385 389
f 382 389 386
f 383 387 388
f 383 388 384
f 390 391 392
f 390 392 393
f 394 397 396
f 394 396 395
f 390 394 395
f 390 395 391
f 393 392 396
f 393 396 397
f 390 393 397
f 390 397 394
f 391 395 396
f 391 396 392
f 398 399 400
f 398 400 401
f 402 405 404
f 402 404 403
f 398 402 403
f 398 403 399
f 401 400 404
f 401 404 405
f 398 401 405
f 398 405 402
f 399 403 404
f 399 404 400
f 406 407 408
f 406 408 409
f 410 413 412
f 410 412 411
f 406 410 411
f 406 411 407
f 409 408 412
f 409 412 413
f 406 409 413
f 406 413 410
f 407 411 412
f 407 412 408
f 414 415 416
f 414 416 417
f 418 421 420
f 418 420 419
f 414 418 419
f 414 419 415
f 417 416 420
f 417 420 421
f 414 417 421
f 414 421 418
f 415 419 420
f 415 420 416
f 422 423 424
f 422 424 425
f 426 429 428
f 426 428 427
f 422 426 427
f 422 427 423
f 425 424 428
f 425 428 429
f 422 425 429
f 422 429 426
f 423 427 428
f 423 428 424
f 430 431 432
f 430 432 433
f 434 437 436
f 434 436 435
f 430 434 435
f 430 435 431
f 433 432 436
f 433 436 437
f 430 433 437
f 430 437 434
f 431 435 436
f 431 436 432
f 438 439 440
f 438 440 441
f 442 445 444
f 442 444 443
f 438 442 443
f 438 443 439
f 441 440 444
f 441 444 445
f 438 441 445
f 438 445 442
f 439 443 444
f 439 444 440
f 446 447 448
f 446 448 449
f 450 453 452
f 450 452 451
f 446 450 451
f 446 451 447
f 449 448 452
f 449 452 453
f 446 449 453
f 446 453 450
f 447 451 452
f 447 452 448
f 454 455 456
f 454 456 457
f 458 461 460
f 458 460 459
f 454 458 459
f 454 459 455
f 457 456 460
f 457 460 461
f 454 457 461
f 454 461 458
f 455 459 460
f 455 460 456

